<svg id="Capa_1" data-name="Capa 1" xmlns="http://www.w3.org/2000/svg" viewBox="0 0 1080 1080"><defs><style>.cls-1{fill:#fff;}.cls-2{fill:#ff4234;}.cls-3{fill:#ffbc00;}.cls-4{fill:#00a84e;}.cls-5{fill:#0085f9;}</style></defs><title>ICONOS FC-GOOGLE</title><path class="cls-1" d="M1007.29,5.81H72.71a66.91,66.91,0,0,0-66.9,66.9v934.58a66.91,66.91,0,0,0,66.9,66.9h934.58a66.91,66.91,0,0,0,66.9-66.9V72.71A66.91,66.91,0,0,0,1007.29,5.81Z"/><path class="cls-2" d="M545.72,312.68c65.17,0,107.28,22.94,145.88,54.94,30.92-30.94,28.32-35.4,107-109.77a374.19,374.19,0,0,0-252.85-98c-145.63,0-271.79,83-334.15,204.36l130.16,88.81C373.68,370.78,451.84,312.68,545.72,312.68Z"/><path class="cls-3" d="M214.86,714.74l125-100a231.48,231.48,0,0,1,1.83-161.65L211.57,364.24a377.18,377.18,0,0,0,3.29,350.5Z"/><path class="cls-4" d="M659.8,735.46c-29,16-65.76,24.43-114.08,24.43-89.1,0-164.06-52.32-198.77-128q-3.87-8.42-7.05-17.21l-125,100q4.71,8.76,9.86,17.23c66,108.37,185,180.72,321,180.72,95.88,0,169.32-25.9,224.35-67Z"/><path class="cls-5" d="M906.56,461.75H545.72V610.82s144.36-.18,203.1-.18C730,667.65,705,709.2,662.69,733.81c-1,.55-1.91,1.11-2.89,1.65L770.07,845.73c6.21-4.63,12.23-9.42,18-14.42C896.1,737.2,923.06,580.07,906.56,461.75Z"/></svg>