<svg id="Capa_1" data-name="Capa 1" xmlns="http://www.w3.org/2000/svg" viewBox="0 0 1080 1080"><defs><style>.cls-1{fill:#fff;}.cls-2{fill:#004983;}</style></defs><title>ICONOS FC-GOOGLE</title><path class="cls-1" d="M1009.31,7H70.69A67.19,67.19,0,0,0,3.5,74.19v938.62A67.19,67.19,0,0,0,70.69,1080H536.14V624.55H428.07V477.88H528.42V426.46c0-57.48,6.56-103.71,19.82-130.86,13.11-30.33,36.21-51.42,70.94-70.49,34.57-19.35,77.49-27.44,132-27.44,53.5,0,105.27,4.8,155.46,21.61v16.33L884.74,350.2a342.64,342.64,0,0,0-87.33-11.56c-28.17,0-48,8.09-57.82,19.36-13.12,12.71-18.18,34.95-18.18,71.64v48.24h139V624.55h-139V1080h287.9a67.19,67.19,0,0,0,67.19-67.19V74.19A67.19,67.19,0,0,0,1009.31,7Z"/><path class="cls-2" d="M860.36,624.55V477.88h-139V429.64c0-36.69,5.06-58.93,18.18-71.64,9.83-11.27,29.65-19.36,57.82-19.36a342.64,342.64,0,0,1,87.33,11.56l21.93-114.59V219.28c-50.19-16.81-102-21.61-155.46-21.61-54.54,0-97.46,8.09-132,27.44-34.73,19.07-57.83,40.16-70.94,70.49C535,322.75,528.42,369,528.42,426.46v51.42H428.07V624.55H536.14V1080H721.41V624.55Z"/></svg>