<svg width="245" height="227" viewBox="0 0 245 227" fill="none" xmlns="http://www.w3.org/2000/svg">
<path opacity="0.35" fill-rule="evenodd" clip-rule="evenodd" d="M35.022 3.04297C25.1827 3.04297 17.6269 5.731 12.1657 10.944C6.714 16.1479 3.91797 23.3342 3.91797 32.695V64.903C3.91797 74.3523 6.71502 81.6793 12.1783 87.0621C17.6401 92.3561 25.1915 95.083 35.022 95.083C44.8517 95.083 52.4531 92.3563 58.0061 87.0539C63.5534 81.6696 66.39 74.3454 66.39 64.903V32.695C66.39 23.4336 63.5573 16.2919 58.0184 11.0837L58.0098 11.0757C52.4565 5.77094 44.8539 3.04297 35.022 3.04297ZM10.0943 8.77393C16.249 2.89894 24.6213 0.0429688 35.022 0.0429688C45.4278 0.0429688 53.8398 2.94577 60.078 8.90241C66.3281 14.7818 69.39 22.7747 69.39 32.695V64.903C69.39 74.9939 66.3321 83.1562 60.0904 89.2116L60.0821 89.2196C53.8435 95.1789 45.4301 98.083 35.022 98.083C24.6149 98.083 16.2396 95.1792 10.0858 89.2118L10.0774 89.2037C3.9275 83.1469 0.917969 74.9873 0.917969 64.903V32.695C0.917969 22.6958 3.92994 14.6581 10.0943 8.77393ZM91.2096 4.38633L77.6608 10.3057C77.6597 10.3062 77.6587 10.3066 77.6576 10.3071C77.4817 10.3858 77.4348 10.4527 77.4224 10.4721C77.4091 10.4928 77.3653 10.569 77.3636 10.7713L77.6246 24.4736L90.326 21.4927C90.6558 21.3751 91.0276 21.3438 91.4074 21.4388C91.8397 21.5468 92.1567 21.7868 92.3683 21.9983C92.7078 22.3378 93.0716 22.8728 93.0716 23.587V93.415C93.0716 93.4432 93.0732 93.4693 93.0766 93.4939C93.1013 93.4974 93.1274 93.499 93.1556 93.499H111.9C111.914 93.499 111.926 93.4985 111.936 93.4979C111.968 93.46 111.979 93.4378 111.981 93.4328C111.982 93.4305 111.982 93.4291 111.983 93.4286L111.983 93.4249C111.983 93.4231 111.984 93.4199 111.984 93.415V4.27296L111.884 4.19839L111.81 4.09896H92.6276C92.2345 4.09896 91.7657 4.1816 91.2096 4.38633ZM90.1209 1.59047C90.9573 1.27681 91.7969 1.09896 92.6276 1.09896H111.9C112.74 1.09896 113.482 1.43702 114.022 2.06084C114.646 2.60043 114.984 3.34265 114.984 4.18297V93.415C114.984 94.3063 114.609 95.0706 114.016 95.6636C113.421 96.2587 112.661 96.499 111.9 96.499H93.1556C92.391 96.499 91.6792 96.2617 91.0676 95.803L90.8962 95.6744L90.7676 95.503C90.3089 94.8913 90.0716 94.1795 90.0716 93.415V24.6339L78.1965 27.4209L77.5003 27.595H77.3156C76.6 27.595 75.8199 27.3617 75.2637 26.6818C74.7585 26.0644 74.6296 25.3053 74.6276 24.6584L74.3636 10.7973V10.783C74.3636 10.114 74.5164 9.44477 74.8988 8.84983C75.2823 8.25336 75.8289 7.83692 76.4424 7.56425L76.4511 7.56042L90.0836 1.60447L90.1209 1.59047ZM26.139 22.4297C28.398 19.9719 31.4145 18.787 35.022 18.787C38.6976 18.787 41.7596 19.9593 44.0257 22.4174C46.3838 24.7894 47.478 28.0189 47.478 31.903V66.091C47.478 69.9901 46.3762 73.2548 44.0259 75.7078C41.7527 78.0843 38.6896 79.207 35.022 79.207C31.3543 79.207 28.2912 78.0843 26.018 75.7078L25.995 75.6838L25.9731 75.6587C23.824 73.2026 22.83 69.9558 22.83 66.091V31.903C22.83 28.0306 23.8732 24.8054 26.139 22.4297ZM35.022 21.787C32.1231 21.787 29.9514 22.7103 28.3397 24.4686L28.3289 24.4803L28.3179 24.4918C26.7194 26.163 25.83 28.5656 25.83 31.903V66.091C25.83 69.4263 26.6759 71.892 28.2089 73.6581C29.806 75.3142 32.0161 76.207 35.022 76.207C38.0423 76.207 40.2592 75.3056 41.858 73.6341L41.859 73.6331C43.5561 71.8622 44.478 69.4073 44.478 66.091V31.903C44.478 28.5836 43.5552 26.1895 41.8813 24.5156L41.8583 24.4926L41.8362 24.4686C40.2325 22.719 38.0225 21.787 35.022 21.787Z" fill="#CF0A2C"/>
<path d="M172.06 227C192.654 227 209.35 224.185 209.35 220.712C209.35 217.239 192.654 214.424 172.06 214.424C151.465 214.424 134.77 217.239 134.77 220.712C134.77 224.185 151.465 227 172.06 227Z" fill="#D7ECF9"/>
<path d="M104.52 217.332C130.212 217.332 151.04 213.818 151.04 209.484C151.04 205.15 130.212 201.637 104.52 201.637C78.8277 201.637 58 205.15 58 209.484C58 213.818 78.8277 217.332 104.52 217.332Z" fill="#D7ECF9"/>
<path d="M212.53 217.172C229.955 217.172 244.08 214.787 244.08 211.844C244.08 208.901 229.955 206.516 212.53 206.516C195.106 206.516 180.98 208.901 180.98 211.844C180.98 214.787 195.106 217.172 212.53 217.172Z" fill="#D7ECF9"/>
<path d="M62.9989 216.183C74.1109 216.183 83.1189 214.827 83.1189 213.154C83.1189 211.481 74.1109 210.125 62.9989 210.125C51.8869 210.125 42.8789 211.481 42.8789 213.154C42.8789 214.827 51.8869 216.183 62.9989 216.183Z" fill="#D7ECF9"/>
<path d="M58.6379 185.013C56.9779 183.373 56.8279 180.754 57.5479 178.585C58.4378 176.447 59.5972 174.431 60.9979 172.587C62.2579 170.657 63.3979 168.518 63.3579 166.238C63.2979 162 59.3579 158.831 57.6579 154.932C57.2267 153.952 56.9242 152.92 56.7579 151.863C55.3979 142.926 60.0179 132.679 68.9679 129.22C70.0979 128.68 71.6679 129.35 71.7179 130.449C71.9679 132.889 69.6279 134.948 69.7179 137.517C69.7467 137.818 69.8498 138.106 70.0179 138.357C74.7479 140.596 75.8579 144.965 71.2679 148.104C70.9659 148.514 70.7235 148.965 70.5479 149.444C70.2852 150.234 70.2506 151.083 70.4479 151.893C70.6555 152.727 70.9929 153.523 71.4479 154.252C72.4072 155.648 73.2757 157.104 74.0479 158.611C75.8179 162.86 73.7079 167.608 71.1079 171.497C68.5079 175.386 65.2979 179.075 64.6079 183.603C64.5442 185.069 64.2784 186.519 63.8179 187.912C63.1979 189.251 61.6079 190.361 60.1679 189.841L59.8279 188.672" fill="#63B78B"/>
<path d="M61.9086 171.439L61.8086 171.339C67.9786 165.97 65.7086 158.453 63.4986 151.185C63.3086 150.555 63.1186 149.935 62.9386 149.305C62.0007 145.878 62.4347 142.221 64.1486 139.108C64.9379 137.576 65.9488 136.168 67.1486 134.93L67.2486 135.03C67.1886 135.09 60.7686 141.418 63.0886 149.265C63.2686 149.895 63.4586 150.515 63.6486 151.145C65.8586 158.453 68.1486 166.02 61.9086 171.439Z" fill="#1F264C"/>
<path d="M44.2292 160.02C41.7492 157.541 40.0092 154.162 40.4792 150.783C40.9492 147.404 44.1092 144.295 47.6792 144.535C45.5592 141.686 43.3992 138.667 43.0292 135.188C42.6592 131.709 44.8992 127.74 48.5292 127.34C49.2915 127.278 50.0583 127.377 50.78 127.631C51.5018 127.884 52.1624 128.285 52.7192 128.81C53.281 129.314 53.7307 129.93 54.039 130.619C54.3474 131.308 54.5076 132.054 54.5092 132.808C53.6892 131.869 54.6592 130.599 55.6692 130.309C55.9746 130.23 56.293 130.215 56.6045 130.265C56.9159 130.315 57.2137 130.429 57.4792 130.599C58.0106 130.945 58.4376 131.43 58.7142 132C58.9909 132.571 59.1067 133.206 59.0492 133.838C58.4192 136.837 56.3792 139.586 58.0492 142.575C60.7092 147.114 63.1092 151.573 64.4492 156.571C64.7092 157.381 64.9492 158.191 65.1692 159.01C65.3892 159.83 65.5792 160.66 65.7392 161.49C66.341 163.684 66.2993 166.006 65.6192 168.178C64.6192 170.697 62.2192 172.596 61.5692 175.175C60.5692 179.324 64.2492 183.873 62.3392 187.732C60.9592 190.531 56.9292 191.201 54.2092 189.921C50.3292 188.092 49.9992 183.353 50.7892 179.764C51.5392 176.375 53.4092 173.396 52.6792 169.767C52.4265 168.575 51.9219 167.45 51.1992 166.468C49.3992 163.949 46.4692 162.199 44.2292 160.02Z" fill="#4FA87B"/>
<path d="M57.641 183.724C57.641 183.674 54.811 178.445 58.481 168.408C61.101 161.23 56.861 154.412 53.771 149.354C52.6562 147.753 51.7426 146.02 51.051 144.196C49.811 139.547 52.401 133.779 52.401 133.719L52.541 133.779C52.541 133.779 49.931 139.557 51.161 144.166C51.848 145.976 52.7548 147.695 53.861 149.284C56.971 154.282 61.231 161.22 58.591 168.448C54.941 178.445 57.711 183.614 57.741 183.664L57.641 183.724Z" fill="#1F264C"/>
<path d="M58.6206 168.429H58.4806C58.9006 162.671 55.1206 158.562 51.8706 156.143C49.6555 154.503 47.222 153.18 44.6406 152.214V152.084C47.237 153.075 49.6836 154.421 51.9106 156.083C55.2306 158.462 59.0506 162.601 58.6206 168.429Z" fill="#1F264C"/>
<path d="M52.6892 147.593C52.1295 146.155 51.8966 144.611 52.0073 143.072C52.118 141.533 52.5695 140.038 53.3292 138.695C54.032 137.445 54.9532 136.331 56.0492 135.406L56.1392 135.516C55.0534 136.425 54.1448 137.527 53.4592 138.765C52.7046 140.088 52.2563 141.563 52.1472 143.082C52.0382 144.601 52.2713 146.125 52.8292 147.543L52.6892 147.593Z" fill="#1F264C"/>
<path d="M58.0077 170.248H57.8577C57.9877 164.83 55.5977 162.111 53.5777 160.781C52.2291 159.905 50.6955 159.354 49.0977 159.171V159.021C50.7172 159.197 52.2726 159.752 53.6377 160.641C55.7077 162.021 58.1277 164.77 58.0077 170.248Z" fill="#1F264C"/>
<path d="M63.9078 152.022H63.7578C63.9678 147.134 65.7078 144.775 67.1278 143.645C68.0016 142.917 69.0754 142.471 70.2078 142.365V142.505C69.1057 142.621 68.0623 143.059 67.2078 143.765C65.8178 144.864 64.1078 147.194 63.9078 152.022Z" fill="#1F264C"/>
<path d="M43.4472 151.833C43.3675 151.847 43.2859 151.843 43.2076 151.823C43.1294 151.802 43.0564 151.766 42.9934 151.715C42.9305 151.664 42.8791 151.601 42.8426 151.528C42.8061 151.456 42.7854 151.377 42.7818 151.296C42.7782 151.216 42.7919 151.135 42.8219 151.06C42.8518 150.985 42.8974 150.917 42.9556 150.861C43.0138 150.805 43.0833 150.762 43.1595 150.734C43.2356 150.707 43.3167 150.697 43.3972 150.703C43.5522 150.692 43.7053 150.742 43.8232 150.844C43.9412 150.945 44.0145 151.088 44.0272 151.243C44.0286 151.32 44.0146 151.397 43.986 151.468C43.9574 151.54 43.9149 151.605 43.8609 151.66C43.807 151.715 43.7426 151.758 43.6715 151.788C43.6005 151.818 43.5243 151.833 43.4472 151.833ZM43.4472 150.833C43.3895 150.834 43.3325 150.847 43.2796 150.87C43.2267 150.894 43.1789 150.927 43.139 150.969C43.0991 151.011 43.0678 151.06 43.0469 151.114C43.026 151.168 43.0159 151.225 43.0172 151.283C43.0172 151.402 43.0647 151.517 43.149 151.601C43.2334 151.686 43.3479 151.733 43.4672 151.733C43.5866 151.733 43.7011 151.686 43.7854 151.601C43.8698 151.517 43.9172 151.402 43.9172 151.283C43.9202 151.217 43.9081 151.152 43.8818 151.091C43.8555 151.031 43.8157 150.978 43.7654 150.935C43.7152 150.893 43.6559 150.862 43.5921 150.846C43.5282 150.83 43.4616 150.829 43.3972 150.843L43.4472 150.833Z" fill="#1F264C"/>
<path d="M71.2973 142.456C71.1742 142.464 71.0528 142.424 70.9592 142.343C70.8657 142.263 70.8075 142.149 70.7973 142.026C70.7946 141.964 70.8045 141.902 70.8264 141.844C70.8483 141.786 70.8818 141.733 70.9248 141.688C70.9677 141.643 71.0194 141.607 71.0765 141.583C71.1337 141.558 71.1952 141.546 71.2573 141.546C71.3227 141.536 71.3895 141.541 71.453 141.559C71.5165 141.578 71.5753 141.609 71.6254 141.653C71.6754 141.696 71.7156 141.749 71.7432 141.809C71.7707 141.87 71.7849 141.935 71.7849 142.001C71.7849 142.067 71.7707 142.132 71.7432 142.193C71.7156 142.253 71.6754 142.306 71.6254 142.349C71.5753 142.393 71.5165 142.424 71.453 142.443C71.3895 142.461 71.3227 142.466 71.2573 142.456H71.2973ZM71.2973 141.686C71.2544 141.686 71.212 141.695 71.1725 141.711C71.133 141.728 71.0973 141.752 71.0674 141.783C71.0376 141.814 71.0142 141.851 70.9987 141.89C70.9833 141.93 70.976 141.973 70.9773 142.016C70.985 142.102 71.0259 142.181 71.0912 142.237C71.1566 142.293 71.2414 142.322 71.3273 142.316C71.3734 142.324 71.4207 142.322 71.4659 142.31C71.5111 142.298 71.5532 142.276 71.589 142.246C71.6249 142.216 71.6538 142.179 71.6736 142.136C71.6934 142.094 71.7037 142.048 71.7037 142.001C71.7037 141.954 71.6934 141.908 71.6736 141.866C71.6538 141.823 71.6249 141.786 71.589 141.756C71.5532 141.726 71.5111 141.704 71.4659 141.692C71.4207 141.68 71.3734 141.678 71.3273 141.686H71.2973Z" fill="#1F264C"/>
<path d="M47.6898 159.691C47.5858 159.691 47.4842 159.66 47.3975 159.603C47.3108 159.545 47.243 159.464 47.2023 159.368C47.1617 159.272 47.1501 159.167 47.169 159.065C47.1879 158.962 47.2364 158.868 47.3085 158.793C47.3806 158.718 47.4732 158.666 47.5747 158.644C47.6761 158.621 47.782 158.629 47.8791 158.666C47.9762 158.703 48.0603 158.768 48.1209 158.852C48.1815 158.937 48.2159 159.037 48.2198 159.141C48.2211 159.212 48.2084 159.282 48.1825 159.348C48.1566 159.414 48.1179 159.475 48.0687 159.526C48.0195 159.577 47.9607 159.618 47.8957 159.646C47.8307 159.674 47.7607 159.69 47.6898 159.691ZM47.6898 158.771C47.6368 158.771 47.5844 158.782 47.5358 158.802C47.4871 158.823 47.4432 158.854 47.4067 158.892C47.3702 158.93 47.3419 158.976 47.3235 159.025C47.3051 159.075 47.2971 159.128 47.2998 159.181C47.2998 159.29 47.343 159.394 47.4199 159.471C47.4968 159.548 47.601 159.591 47.7098 159.591C47.8185 159.591 47.9228 159.548 47.9997 159.471C48.0766 159.394 48.1198 159.29 48.1198 159.181C48.1204 159.122 48.1082 159.063 48.0839 159.009C48.0597 158.955 48.024 158.906 47.9793 158.867C47.9346 158.829 47.882 158.8 47.8252 158.783C47.7683 158.766 47.7084 158.762 47.6498 158.771H47.6898Z" fill="#1F264C"/>
<path d="M52.7792 133.27C52.6577 133.275 52.5389 133.234 52.4475 133.153C52.3561 133.073 52.2994 132.961 52.2892 132.84C52.2878 132.78 52.2982 132.722 52.3196 132.667C52.341 132.611 52.373 132.561 52.4139 132.518C52.4547 132.476 52.5036 132.441 52.5577 132.418C52.6118 132.394 52.6701 132.381 52.7292 132.38C52.7923 132.367 52.8574 132.368 52.92 132.383C52.9826 132.398 53.0412 132.426 53.0921 132.466C53.1429 132.505 53.1847 132.555 53.2146 132.612C53.2445 132.669 53.2618 132.732 53.2654 132.796C53.269 132.86 53.2588 132.924 53.2355 132.984C53.2122 133.044 53.1762 133.099 53.1301 133.143C53.0841 133.188 53.0289 133.223 52.9683 133.245C52.9078 133.266 52.8433 133.275 52.7792 133.27ZM52.7792 132.52C52.7345 132.511 52.6886 132.513 52.6447 132.525C52.6008 132.536 52.56 132.557 52.5251 132.587C52.4902 132.616 52.4622 132.652 52.4429 132.693C52.4237 132.734 52.4137 132.779 52.4137 132.825C52.4137 132.87 52.4237 132.915 52.4429 132.956C52.4622 132.997 52.4902 133.033 52.5251 133.063C52.56 133.092 52.6008 133.113 52.6447 133.124C52.6886 133.136 52.7345 133.138 52.7792 133.13C52.8203 133.13 52.861 133.121 52.8988 133.105C52.9366 133.089 52.9706 133.065 52.9987 133.035C53.0268 133.005 53.0485 132.969 53.0623 132.931C53.0762 132.892 53.0819 132.851 53.0792 132.81C53.0781 132.767 53.0682 132.726 53.0501 132.688C53.032 132.65 53.006 132.616 52.9739 132.589C52.9419 132.561 52.9044 132.541 52.8639 132.529C52.8235 132.517 52.781 132.514 52.7392 132.52H52.7792Z" fill="#1F264C"/>
<path d="M56.9201 135.349C56.8581 135.358 56.7951 135.353 56.7348 135.336C56.6746 135.319 56.6184 135.29 56.5697 135.251C56.521 135.212 56.4809 135.163 56.4517 135.108C56.4226 135.052 56.405 134.992 56.4001 134.929C56.3923 134.838 56.4119 134.746 56.4565 134.666C56.5011 134.586 56.5687 134.521 56.6505 134.479C56.7324 134.438 56.8247 134.422 56.9158 134.433C57.0068 134.445 57.0923 134.483 57.1613 134.544C57.2304 134.604 57.2798 134.684 57.3032 134.772C57.3266 134.861 57.323 134.955 57.2927 135.041C57.2625 135.128 57.2071 135.203 57.1335 135.258C57.06 135.313 56.9718 135.345 56.8801 135.349H56.9201ZM56.9201 134.599C56.859 134.603 56.8005 134.625 56.7519 134.663C56.7033 134.7 56.6669 134.751 56.6472 134.809C56.6275 134.867 56.6254 134.929 56.6413 134.989C56.6571 135.048 56.6901 135.101 56.7361 135.141C56.7821 135.182 56.8391 135.208 56.8998 135.216C56.9605 135.224 57.0223 135.214 57.0773 135.187C57.1323 135.16 57.178 135.117 57.2088 135.064C57.2396 135.011 57.254 134.95 57.2501 134.889C57.2401 134.803 57.1967 134.725 57.1294 134.671C57.0621 134.616 56.9762 134.591 56.8901 134.599H56.9201Z" fill="#1F264C"/>
<path d="M67.9801 134.459C67.8485 134.461 67.7192 134.424 67.6085 134.353C67.4978 134.282 67.4105 134.179 67.3575 134.059C67.3045 133.938 67.2882 133.805 67.3105 133.675C67.3329 133.546 67.393 133.425 67.4833 133.33C67.5736 133.234 67.6901 133.167 67.8183 133.137C67.9465 133.107 68.0806 133.115 68.204 133.161C68.3274 133.207 68.4346 133.288 68.5121 133.394C68.5897 133.501 68.6342 133.628 68.6401 133.759C68.6428 133.848 68.6278 133.937 68.5961 134.021C68.5643 134.104 68.5165 134.181 68.4552 134.246C68.3939 134.311 68.3204 134.363 68.2389 134.4C68.1573 134.436 68.0694 134.456 67.9801 134.459ZM67.9201 133.269C67.7786 133.274 67.6449 133.335 67.5476 133.438C67.4504 133.541 67.3974 133.678 67.4001 133.819C67.4067 133.965 67.471 134.102 67.5789 134.201C67.6867 134.299 67.8292 134.351 67.9751 134.344C68.121 134.337 68.2582 134.273 68.3567 134.165C68.4552 134.057 68.5067 133.915 68.5001 133.769C68.495 133.698 68.476 133.629 68.4441 133.565C68.4121 133.502 68.368 133.445 68.3141 133.398C68.2602 133.352 68.1976 133.317 68.13 133.294C68.0624 133.272 67.9911 133.264 67.9201 133.269Z" fill="#1F264C"/>
<path d="M63.7395 192.72C62.6495 190.72 63.2895 188.141 64.6495 186.261C66.1412 184.456 67.8586 182.85 69.7595 181.483C71.5595 179.983 73.2895 178.244 73.9495 176.055C75.1695 171.986 72.3895 167.867 71.9495 163.658C71.8276 162.6 71.8512 161.531 72.0195 160.479C73.3995 151.542 80.9195 143.025 90.5295 142.165C91.7795 141.965 93.0795 143.035 92.7995 144.104C92.2995 146.504 89.4295 147.833 88.7995 150.322C88.7228 150.614 88.7228 150.921 88.7995 151.212C92.6495 154.661 92.3895 159.15 87.0395 160.889C86.6222 161.21 86.2549 161.59 85.9495 162.019C85.4607 162.7 85.17 163.502 85.1095 164.338C85.0462 165.183 85.1136 166.033 85.3095 166.857C85.8051 168.461 86.1992 170.093 86.4895 171.746C86.8895 176.305 83.4095 180.313 79.7595 183.282C76.1095 186.251 71.8995 188.921 69.8695 193.069C69.3608 194.46 68.6643 195.776 67.7995 196.978C66.7995 198.088 64.9395 198.708 63.7295 197.818V196.608" fill="#4FA87B"/>
<path d="M70.978 180.624L70.918 180.504C78.448 177.075 78.548 169.247 78.648 161.68C78.648 161.013 78.648 160.347 78.648 159.68C78.7968 156.108 80.3193 152.731 82.898 150.253C84.1203 149.007 85.5103 147.937 87.028 147.074L87.088 147.194C87.008 147.194 78.948 151.533 78.788 159.68V161.68C78.688 169.287 78.588 177.165 70.978 180.624Z" fill="#1F264C"/>
<path d="M57.5275 164.801C55.8875 161.802 55.2475 158.053 56.7175 154.944C58.1875 151.835 62.1675 149.735 65.5075 150.945C64.3975 147.646 63.1775 144.147 63.8875 140.728C64.5975 137.309 67.9375 134.11 71.5375 134.73C72.2724 134.886 72.967 135.193 73.5772 135.631C74.1874 136.069 74.6999 136.629 75.0825 137.276C75.465 137.922 75.7092 138.641 75.7996 139.387C75.8899 140.132 75.8245 140.889 75.6075 141.608C75.1075 140.478 76.4175 139.528 77.4775 139.528C77.7902 139.537 78.0976 139.61 78.3801 139.745C78.6626 139.879 78.9138 140.071 79.1175 140.308C79.5217 140.791 79.7843 141.376 79.8761 141.999C79.9678 142.622 79.8853 143.258 79.6375 143.837C78.1475 146.506 75.3375 148.606 76.0475 151.935C77.2175 157.013 78.1675 161.932 77.9475 167.06C77.9475 167.9 77.9475 168.749 77.8875 169.599C77.8275 170.449 77.7775 171.279 77.6875 172.128C77.5851 174.41 76.8436 176.616 75.5475 178.497C73.8375 180.636 70.9475 181.786 69.5475 184.115C67.2975 187.794 69.4775 193.182 66.4875 196.351C64.3175 198.64 60.2475 198.171 58.0275 196.191C54.8775 193.372 56.0275 188.743 57.8475 185.534C59.5875 182.535 62.2775 180.156 62.6775 176.487C62.8033 175.279 62.6634 174.057 62.2675 172.908C61.2775 170.019 58.9975 167.53 57.5275 164.801Z" fill="#63B78B"/>
<path d="M63.1686 191.219C63.1686 191.159 62.0586 185.381 68.6186 176.784C73.2986 170.636 71.3186 162.898 69.8786 157.24C69.3013 155.395 68.9652 153.483 68.8786 151.551C69.0886 146.763 73.3286 141.954 73.3686 141.904L73.4786 141.994C73.4786 141.994 69.2286 146.813 69.0186 151.561C69.1124 153.479 69.4484 155.377 70.0186 157.21C71.4686 162.888 73.4586 170.666 68.7286 176.864C62.2086 185.411 63.2986 191.129 63.3086 191.189L63.1686 191.219Z" fill="#1F264C"/>
<path d="M68.7373 176.845H68.6073C70.7573 171.446 68.3773 166.478 66.0073 163.259C64.3779 161.079 62.4489 159.141 60.2773 157.501L60.3573 157.391C62.5457 159.036 64.4886 160.985 66.1273 163.179C68.5173 166.368 70.9173 171.386 68.7373 176.845Z" fill="#1F264C"/>
<path d="M69.3994 155.262C69.3029 153.715 69.5486 152.166 70.1189 150.725C70.6893 149.284 71.5703 147.987 72.6994 146.925C73.7472 145.922 74.9621 145.11 76.2894 144.525V144.655C74.9947 145.237 73.8105 146.039 72.7894 147.025C71.6743 148.074 70.8042 149.356 70.2408 150.78C69.6773 152.204 69.4344 153.734 69.5294 155.262H69.3994Z" fill="#1F264C"/>
<path d="M67.6084 178.415H67.4684C69.2284 173.266 67.7684 169.997 66.2284 168.168C65.1936 166.94 63.8805 165.977 62.3984 165.358L62.4484 165.229C63.9468 165.839 65.2796 166.795 66.3384 168.018C67.8984 169.897 69.3984 173.206 67.6084 178.415Z" fill="#1F264C"/>
<path d="M78.7706 162.598H78.6406C80.3206 157.979 82.7006 156.19 84.4006 155.51C85.4498 155.062 86.6073 154.93 87.7306 155.13V155.26C86.6298 155.078 85.4999 155.209 84.4706 155.64C82.7806 156.27 80.4006 158.019 78.7706 162.598Z" fill="#1F264C"/>
<path d="M59.2489 156.77C59.1744 156.755 59.1037 156.725 59.0412 156.681C58.9787 156.638 58.9258 156.582 58.8855 156.518C58.8453 156.453 58.8186 156.381 58.8072 156.306C58.7957 156.231 58.7997 156.154 58.8189 156.08C58.861 155.931 58.9601 155.804 59.0948 155.728C59.2296 155.651 59.3891 155.63 59.5389 155.67C59.6128 155.687 59.6826 155.718 59.7444 155.762C59.8061 155.805 59.8585 155.861 59.8985 155.925C59.9386 155.989 59.9654 156.061 59.9775 156.136C59.9896 156.21 59.9866 156.287 59.9689 156.36C59.9268 156.51 59.8277 156.636 59.693 156.713C59.5582 156.79 59.3987 156.81 59.2489 156.77ZM59.5089 155.77C59.3937 155.743 59.2721 155.76 59.1696 155.82C59.0672 155.88 58.9917 155.976 58.9589 156.09C58.9442 156.146 58.9412 156.205 58.95 156.262C58.9589 156.319 58.9795 156.374 59.0104 156.422C59.0414 156.471 59.0821 156.513 59.13 156.545C59.178 156.578 59.232 156.6 59.2889 156.61C59.3447 156.625 59.403 156.629 59.4603 156.622C59.5177 156.615 59.573 156.596 59.6232 156.567C59.6733 156.538 59.7173 156.5 59.7526 156.454C59.7879 156.408 59.8138 156.356 59.8289 156.3C59.8476 156.192 59.8251 156.081 59.7659 155.988C59.7067 155.896 59.615 155.829 59.5089 155.8V155.77Z" fill="#1F264C"/>
<path d="M88.7483 155.481C88.6894 155.468 88.6336 155.443 88.5844 155.408C88.5352 155.373 88.4935 155.329 88.4618 155.278C88.43 155.226 88.409 155.169 88.3998 155.11C88.3906 155.05 88.3935 154.989 88.4083 154.931C88.4412 154.809 88.5204 154.706 88.6288 154.642C88.7373 154.579 88.8663 154.56 88.9883 154.591C89.0476 154.605 89.1035 154.63 89.1528 154.666C89.2021 154.702 89.2438 154.747 89.2754 154.799C89.3071 154.852 89.328 154.909 89.3371 154.97C89.3462 155.03 89.3432 155.091 89.3283 155.151C89.2933 155.27 89.2132 155.371 89.105 155.433C88.9968 155.494 88.8689 155.512 88.7483 155.481ZM88.9483 154.731C88.9076 154.72 88.8652 154.718 88.8236 154.724C88.7819 154.729 88.7419 154.743 88.7057 154.765C88.6694 154.786 88.6378 154.814 88.6125 154.848C88.5872 154.882 88.5688 154.92 88.5583 154.961C88.5478 155.001 88.5454 155.044 88.5513 155.085C88.5571 155.127 88.5712 155.167 88.5925 155.203C88.6139 155.239 88.6422 155.271 88.6757 155.296C88.7093 155.322 88.7476 155.34 88.7883 155.351C88.8732 155.372 88.963 155.358 89.038 155.313C89.113 155.268 89.167 155.195 89.1883 155.111C89.2002 155.07 89.2032 155.027 89.1973 154.985C89.1914 154.943 89.1766 154.902 89.1539 154.867C89.1312 154.831 89.1011 154.8 89.0657 154.776C89.0302 154.753 88.9902 154.737 88.9483 154.731Z" fill="#1F264C"/>
<path d="M60.93 165.458C60.8615 165.443 60.7967 165.414 60.7394 165.374C60.6821 165.333 60.6334 165.281 60.5962 165.222C60.559 165.162 60.534 165.096 60.5226 165.027C60.5112 164.957 60.5138 164.887 60.53 164.818C60.5719 164.681 60.6647 164.565 60.7893 164.495C60.914 164.424 61.0609 164.404 61.2 164.438C61.2692 164.452 61.3349 164.48 61.3929 164.521C61.4509 164.561 61.5002 164.612 61.5376 164.672C61.575 164.732 61.5999 164.799 61.6106 164.869C61.6213 164.939 61.6177 165.01 61.6 165.078C61.5604 165.217 61.4679 165.334 61.3427 165.405C61.2174 165.476 61.0692 165.495 60.93 165.458ZM61.17 164.568C61.0654 164.543 60.9552 164.56 60.8622 164.614C60.7692 164.668 60.7004 164.755 60.67 164.858C60.6583 164.909 60.6568 164.961 60.6655 165.012C60.6743 165.064 60.6932 165.113 60.7212 165.156C60.7491 165.2 60.7855 165.238 60.8283 165.267C60.871 165.297 60.9192 165.318 60.97 165.328C61.072 165.353 61.1797 165.338 61.2709 165.286C61.362 165.234 61.4298 165.149 61.46 165.048C61.4734 164.998 61.4765 164.945 61.4691 164.893C61.4617 164.841 61.4439 164.792 61.4168 164.747C61.3898 164.702 61.354 164.663 61.3116 164.632C61.2692 164.602 61.221 164.58 61.17 164.568Z" fill="#1F264C"/>
<path d="M73.8083 141.567C73.7509 141.555 73.6963 141.532 73.648 141.498C73.5996 141.465 73.5584 141.423 73.5267 141.373C73.495 141.324 73.4735 141.269 73.4635 141.211C73.4535 141.153 73.4551 141.094 73.4683 141.037C73.5032 140.92 73.5822 140.821 73.6886 140.761C73.7949 140.702 73.9204 140.686 74.0383 140.717C74.0949 140.73 74.1483 140.754 74.1956 140.787C74.2428 140.821 74.2829 140.864 74.3136 140.913C74.3443 140.962 74.3649 141.017 74.3743 141.074C74.3837 141.132 74.3817 141.19 74.3683 141.247C74.3356 141.363 74.2585 141.461 74.1538 141.521C74.0491 141.581 73.925 141.597 73.8083 141.567ZM73.9983 140.847C73.9176 140.828 73.8326 140.84 73.7603 140.88C73.688 140.921 73.6338 140.988 73.6083 141.067C73.5995 141.107 73.5988 141.148 73.6061 141.189C73.6134 141.229 73.6287 141.267 73.651 141.302C73.6734 141.336 73.7023 141.366 73.7362 141.389C73.77 141.412 73.8082 141.428 73.8483 141.437C73.8877 141.447 73.9288 141.45 73.9693 141.445C74.0097 141.439 74.0487 141.426 74.084 141.406C74.1193 141.385 74.1502 141.358 74.175 141.325C74.1997 141.293 74.2179 141.256 74.2283 141.217C74.2387 141.177 74.2409 141.136 74.2348 141.096C74.2287 141.055 74.2144 141.017 74.1929 140.982C74.1714 140.948 74.143 140.918 74.1096 140.894C74.0761 140.871 74.0383 140.855 73.9983 140.847Z" fill="#1F264C"/>
<path d="M77.1482 144.705C77.0907 144.693 77.0362 144.67 76.9878 144.637C76.9394 144.604 76.8982 144.561 76.8665 144.512C76.8349 144.462 76.8134 144.407 76.8033 144.349C76.7933 144.291 76.795 144.232 76.8082 144.175C76.8409 144.059 76.9179 143.96 77.0227 143.9C77.1274 143.841 77.2515 143.824 77.3682 143.855C77.4256 143.867 77.4802 143.89 77.5285 143.923C77.5769 143.956 77.6181 143.999 77.6498 144.048C77.6815 144.098 77.703 144.153 77.713 144.211C77.723 144.269 77.7214 144.328 77.7082 144.385C77.6754 144.501 77.5984 144.6 77.4936 144.66C77.3889 144.719 77.2648 144.736 77.1482 144.705ZM77.3382 143.985C77.2574 143.966 77.1724 143.978 77.1001 144.019C77.0279 144.06 76.9736 144.126 76.9482 144.205C76.9301 144.285 76.9442 144.368 76.9872 144.437C77.0303 144.507 77.0989 144.556 77.1782 144.575C77.2589 144.594 77.3439 144.582 77.4162 144.541C77.4885 144.501 77.5427 144.434 77.5682 144.355C77.5753 144.282 77.5561 144.208 77.514 144.148C77.4718 144.087 77.4095 144.044 77.3382 144.025V143.985Z" fill="#1F264C"/>
<path d="M87.999 146.904C87.9132 146.886 87.832 146.85 87.7602 146.799C87.6883 146.748 87.6274 146.684 87.5808 146.609C87.5342 146.535 87.503 146.452 87.489 146.365C87.4749 146.278 87.4783 146.19 87.499 146.104C87.5481 145.93 87.6637 145.782 87.8208 145.692C87.9779 145.603 88.164 145.578 88.339 145.624C88.4251 145.643 88.5066 145.679 88.5788 145.73C88.6511 145.78 88.7126 145.844 88.76 145.919C88.8074 145.993 88.8396 146.076 88.8549 146.163C88.8702 146.249 88.8682 146.338 88.849 146.424C88.7956 146.598 88.6777 146.744 88.5196 146.834C88.3615 146.923 88.1752 146.948 87.999 146.904ZM88.309 145.754C88.1699 145.72 88.0229 145.74 87.8983 145.811C87.7737 145.882 87.6809 145.997 87.639 146.134C87.6227 146.203 87.6202 146.274 87.6316 146.343C87.6429 146.412 87.6679 146.478 87.7052 146.538C87.7424 146.598 87.7911 146.649 87.8484 146.69C87.9057 146.73 87.9705 146.759 88.039 146.774C88.1781 146.809 88.3251 146.789 88.4497 146.718C88.5743 146.647 88.6671 146.531 88.709 146.394C88.7253 146.326 88.7278 146.255 88.7164 146.186C88.7051 146.117 88.6801 146.05 88.6429 145.991C88.6056 145.931 88.557 145.88 88.4997 145.839C88.4423 145.798 88.3775 145.77 88.309 145.754Z" fill="#1F264C"/>
<path d="M55.6998 177.015C55.2804 177.363 54.9395 177.796 54.6998 178.285C54.5029 178.731 54.4204 179.219 54.4598 179.705C54.1339 179.269 53.9302 178.755 53.8698 178.215C53.7562 177.404 53.9683 176.581 54.4598 175.926C55.1398 175.156 56.1198 175.216 56.2398 175.646C56.3598 176.076 56.0398 176.565 55.6998 177.015Z" fill="#1D3B4C"/>
<path d="M58.9305 181.334C58.511 181.682 58.1702 182.114 57.9305 182.604C57.734 183.05 57.6515 183.537 57.6905 184.023C57.2876 183.476 57.0703 182.814 57.0703 182.134C57.0703 181.454 57.2876 180.792 57.6905 180.244C58.3605 179.475 59.3405 179.535 59.4605 179.974C59.5805 180.414 59.2705 180.924 58.9305 181.334Z" fill="#1D3B4C"/>
<path d="M61.9589 186.153C61.5372 186.498 61.1959 186.931 60.9589 187.422C60.7633 187.865 60.6842 188.35 60.7289 188.832C60.4029 188.397 60.1992 187.882 60.1389 187.342C60.0263 186.531 60.2384 185.709 60.7289 185.053C61.4089 184.283 62.3789 184.343 62.5089 184.783C62.6389 185.223 62.2989 185.743 61.9589 186.153Z" fill="#1D3B4C"/>
<path d="M51.7807 180.115C52.1861 179.812 52.6543 179.604 53.1507 179.505C53.5905 179.432 54.0417 179.473 54.4607 179.625C54.1514 179.232 53.7397 178.931 53.2707 178.755C52.9257 178.61 52.5551 178.535 52.1807 178.535C51.8064 178.535 51.4358 178.61 51.0907 178.755C50.2407 179.185 50.0907 180.075 50.4307 180.285C50.7707 180.495 51.3307 180.325 51.7807 180.115Z" fill="#1D3B4C"/>
<path d="M55.1497 184.634C55.5541 184.329 56.0226 184.12 56.5197 184.024C56.9621 183.951 57.4155 183.989 57.8397 184.134C57.5188 183.748 57.1062 183.449 56.6397 183.264C55.9418 182.975 55.1577 182.975 54.4597 183.264C53.6197 183.694 53.4597 184.584 53.7997 184.794C54.1397 185.004 54.6997 184.844 55.1497 184.634Z" fill="#1D3B4C"/>
<path d="M51.4008 174.507C51.2228 174.778 51.1067 175.085 51.0608 175.407C51.0265 175.691 51.0643 175.98 51.1708 176.247C50.9117 176.057 50.708 175.801 50.5808 175.507C50.4761 175.29 50.4151 175.055 50.4014 174.815C50.3877 174.574 50.4215 174.334 50.5008 174.107C50.7508 173.557 51.3108 173.417 51.5008 173.637C51.5513 173.78 51.5685 173.932 51.5511 174.083C51.5338 174.234 51.4824 174.379 51.4008 174.507Z" fill="#1D3B4C"/>
<path d="M49.3977 176.016C49.694 175.886 50.014 175.817 50.3377 175.816C50.6243 175.83 50.9028 175.916 51.1477 176.066C51.0019 175.779 50.785 175.535 50.5177 175.356C50.3196 175.22 50.0963 175.126 49.861 175.077C49.6257 175.029 49.3832 175.029 49.1477 175.076C48.5577 175.226 48.3277 175.766 48.5277 175.946C48.658 176.023 48.804 176.069 48.9547 176.081C49.1054 176.093 49.2568 176.071 49.3977 176.016Z" fill="#1D3B4C"/>
<path d="M71.7092 163.819C71.3518 174.717 69.1507 185.476 65.1992 195.639L65.7092 195.979C69.5525 185.801 71.6748 175.054 71.9892 164.179C72.0392 161.73 72.2192 158.91 70.6092 156.871C70.6092 156.871 70.5292 156.871 70.5592 156.921C71.9592 158.88 71.7492 161.53 71.7092 163.819Z" fill="#1D3B4C"/>
<path d="M64.2486 195.009C63.7641 183.756 61.6729 172.63 58.0386 161.969C58.0386 161.859 57.8086 161.969 57.8386 162.029C61.3463 172.573 63.3329 183.564 63.7386 194.669L64.2486 195.009Z" fill="#1D3B4C"/>
<path d="M74.3381 158.941C73.7655 159.087 73.2304 159.353 72.7681 159.721C72.3725 160.067 72.07 160.507 71.8881 161C71.7804 160.424 71.8182 159.829 71.9981 159.271C72.1246 158.847 72.3337 158.452 72.6135 158.108C72.8932 157.765 73.238 157.481 73.6281 157.271C74.6281 156.832 75.5681 157.341 75.4881 157.821C75.4081 158.301 74.8581 158.701 74.3381 158.941Z" fill="#1D3B4C"/>
<path d="M68.801 164.8C69.3798 164.698 69.9739 164.725 70.541 164.88C71.0428 165.033 71.4972 165.312 71.861 165.69C71.7349 165.117 71.4628 164.586 71.071 164.15C70.4906 163.486 69.6706 163.08 68.791 163.02C67.691 163.02 67.041 163.87 67.311 164.28C67.581 164.69 68.231 164.78 68.801 164.8Z" fill="#1D3B4C"/>
<path d="M68.5673 168.83C69.1497 168.732 69.7462 168.759 70.3173 168.91C70.817 169.061 71.2685 169.34 71.6273 169.72C71.5049 169.148 71.2322 168.62 70.8373 168.19C70.5572 167.849 70.2104 167.57 69.8183 167.369C69.4262 167.168 68.997 167.049 68.5573 167.02C67.4573 167.02 66.8173 167.86 67.0773 168.27C67.3373 168.68 67.9973 168.82 68.5673 168.83Z" fill="#1D3B4C"/>
<path d="M58.008 171.487C58.5874 171.394 59.1796 171.422 59.748 171.567C60.2484 171.723 60.702 172.002 61.068 172.377C60.9387 171.808 60.6668 171.282 60.278 170.847C59.9944 170.513 59.6463 170.24 59.2545 170.044C58.8627 169.848 58.4353 169.734 57.998 169.707C56.898 169.707 56.248 170.547 56.518 170.957C56.788 171.367 57.398 171.477 58.008 171.487Z" fill="#1D3B4C"/>
<path d="M56.7291 166.669C57.3115 166.571 57.9081 166.598 58.4791 166.749C58.9789 166.9 59.4304 167.18 59.7891 167.559C59.6255 166.845 59.2404 166.202 58.689 165.721C58.1376 165.239 57.4481 164.945 56.7191 164.879C55.6191 164.879 54.9791 165.729 55.2491 166.139C55.5191 166.549 56.1591 166.659 56.7291 166.669Z" fill="#1D3B4C"/>
<path d="M74.539 163.809C73.9505 163.863 73.3808 164.044 72.869 164.339C72.4204 164.612 72.0514 164.998 71.799 165.459C71.7785 164.872 71.9094 164.291 72.179 163.769C72.3718 163.375 72.6407 163.023 72.9702 162.733C73.2997 162.443 73.6833 162.221 74.099 162.08C75.169 161.81 75.999 162.45 75.849 162.92C75.699 163.389 75.089 163.649 74.539 163.809Z" fill="#1D3B4C"/>
<path d="M74.8489 168.768C74.2273 168.596 73.5705 168.596 72.9489 168.768C72.4157 168.956 71.9543 169.305 71.6289 169.768C71.6802 169.043 71.903 168.34 72.2789 167.718C72.5102 167.3 72.8467 166.948 73.2554 166.699C73.664 166.45 74.1306 166.312 74.6089 166.299C75.8189 166.389 76.6089 167.578 76.4089 168.128C76.2089 168.678 75.4789 168.788 74.8489 168.768Z" fill="#1D3B4C"/>
<path d="M74.1681 175.507C73.5884 175.223 72.9401 175.108 72.2981 175.177C71.7371 175.272 71.2217 175.546 70.8281 175.957C70.9995 175.245 71.3428 174.586 71.8281 174.037C72.1288 173.667 72.5194 173.381 72.9624 173.206C73.4055 173.031 73.8861 172.973 74.3581 173.037C75.5381 173.327 76.1481 174.637 75.8281 175.147C75.5081 175.657 74.7881 175.627 74.1681 175.507Z" fill="#1D3B4C"/>
<path d="M64.0509 173.756C63.5378 173.651 63.0061 173.686 62.5109 173.856C62.0888 174.045 61.7382 174.364 61.5109 174.766C61.4853 174.159 61.6198 173.555 61.9009 173.016C62.064 172.663 62.317 172.359 62.6347 172.134C62.9523 171.91 63.3235 171.772 63.7109 171.736C64.7109 171.736 65.4409 172.656 65.2809 173.116C65.1209 173.576 64.5609 173.736 64.0509 173.756Z" fill="#1D3B4C"/>
<path d="M69.22 157.212C69.5499 157.144 69.8901 157.144 70.22 157.212C70.5239 157.281 70.8057 157.426 71.04 157.632C70.9425 157.298 70.7558 156.997 70.5 156.762C70.13 156.395 69.6312 156.186 69.11 156.182C68.45 156.242 68.11 156.762 68.29 156.992C68.47 157.222 68.88 157.232 69.22 157.212Z" fill="#1D3B4C"/>
<path d="M71.5795 155.731C71.3375 155.986 71.1534 156.289 71.0395 156.621C70.945 156.915 70.9278 157.229 70.9895 157.531C70.7544 157.278 70.589 156.968 70.5095 156.631C70.3741 156.126 70.4423 155.587 70.6995 155.131C71.0695 154.591 71.6995 154.551 71.8095 154.821C71.8421 154.981 71.8383 155.145 71.7985 155.303C71.7587 155.46 71.6838 155.607 71.5795 155.731Z" fill="#1D3B4C"/>
<path d="M56.4011 162.38C56.7312 162.314 57.071 162.314 57.4011 162.38C57.7025 162.448 57.9814 162.593 58.2111 162.8C58.1125 162.469 57.9299 162.169 57.6811 161.93C57.3086 161.56 56.8058 161.352 56.2811 161.35C55.6311 161.41 55.2811 161.93 55.4611 162.16C55.6411 162.39 56.0211 162.4 56.4011 162.38Z" fill="#1D3B4C"/>
<path d="M58.9293 161.021C58.6679 161.254 58.4598 161.54 58.3193 161.861C58.2039 162.15 58.1627 162.462 58.1993 162.771C57.9782 162.502 57.8362 162.176 57.7893 161.831C57.7396 161.576 57.7423 161.313 57.7973 161.058C57.8523 160.804 57.9585 160.563 58.1093 160.351C58.5193 159.841 59.1093 159.851 59.2293 160.131C59.3493 160.411 59.1293 160.741 58.9293 161.021Z" fill="#1D3B4C"/>
<path d="M50.3998 175.535C51.6742 176.573 52.8615 177.713 53.9498 178.944C55.902 181.219 57.674 183.642 59.2498 186.192C60.0498 187.432 60.8598 188.661 61.5998 189.931C61.9767 190.516 62.3109 191.127 62.5998 191.76C62.923 192.611 63.1869 193.483 63.3898 194.369L62.7998 194.01C62.3223 192.395 61.6508 190.844 60.7998 189.391C57.8698 184.392 54.7998 179.294 50.3398 175.545L50.3998 175.535Z" fill="#1D3B4C"/>
<path d="M50.3984 190.012H75.4984V200.658C75.4984 203.967 74.1836 207.141 71.8431 209.48C69.5027 211.82 66.3283 213.135 63.0184 213.135H62.8884C59.5803 213.137 56.4064 211.827 54.0643 209.491C51.7223 207.155 50.4037 203.986 50.3984 200.678V190.012Z" fill="#CA5B30"/>
<path d="M75.5492 194.49H50.4492V195.69H75.5492V194.49Z" fill="#DBB58A"/>
<path d="M75.5492 197.43H50.4492V198.63H75.5492V197.43Z" fill="#DBB58A"/>
<path d="M137.671 217.373L83.9409 220.872C80.5909 221.092 74.2309 219.672 73.7909 214.994L65.2509 64.0496C64.6809 56.7718 69.8009 54.6225 72.8109 55.0523L122.081 62.83C123.404 63.0971 124.611 63.7688 125.536 64.7521C126.46 65.7353 127.056 66.9816 127.241 68.3183L142.161 211.145C142.501 214.394 140.501 217.193 137.671 217.373Z" fill="#926E75"/>
<path d="M140.961 217.163L84.131 220.862C83.3086 220.885 82.4897 220.745 81.7215 220.45C80.9532 220.156 80.2507 219.713 79.6542 219.146C79.0578 218.579 78.5791 217.901 78.2456 217.149C77.9121 216.397 77.7305 215.586 77.711 214.764L68.501 59.4414C68.331 56.6122 70.631 54.7128 73.611 55.1827L125.091 63.3102C126.406 63.577 127.606 64.2454 128.525 65.2231C129.444 66.2009 130.037 67.4397 130.221 68.7685L145.401 211.005C145.741 214.194 143.761 217.003 140.961 217.163Z" fill="#2B0E0D"/>
<path d="M124.319 67.908L111.229 66.0486L110.779 67.898C110.631 68.4848 110.263 68.9922 109.751 69.3143C109.238 69.6365 108.622 69.7487 108.029 69.6275L93.8187 67.6281C93.1013 67.5126 92.4256 67.2147 91.8565 66.7631C91.2874 66.3114 90.8439 65.7212 90.5687 65.0489L89.7487 62.9595L76.7487 61.1101C76.236 61.0299 75.7118 61.0656 75.2148 61.2147C74.7178 61.3639 74.2605 61.6225 73.8767 61.9717C73.4929 62.3208 73.1924 62.7516 72.9971 63.2322C72.8019 63.7129 72.717 64.2312 72.7487 64.749L82.2087 210.555C82.2784 211.736 82.8108 212.842 83.6905 213.633C84.5702 214.425 85.7264 214.838 86.9087 214.783L137.959 212.444C138.398 212.425 138.83 212.315 139.226 212.123C139.622 211.931 139.974 211.66 140.262 211.327C140.549 210.994 140.766 210.605 140.898 210.185C141.029 209.765 141.074 209.323 141.029 208.885L126.959 70.6572C126.891 69.9692 126.594 69.3239 126.115 68.8252C125.636 68.3265 125.004 68.0035 124.319 67.908Z" fill="#CDE8F7"/>
<path d="M100.858 65.4904C101.565 65.4904 102.138 64.8546 102.138 64.0704C102.138 63.2861 101.565 62.6504 100.858 62.6504C100.151 62.6504 99.5781 63.2861 99.5781 64.0704C99.5781 64.8546 100.151 65.4904 100.858 65.4904Z" fill="#EAEDEF"/>
<path d="M130.197 102.131C129.197 101.362 129.027 105.08 129.027 105.08C129.027 105.08 129.127 102.171 128.397 101.411C127.807 100.812 127.267 103.411 127.077 104.551C127.167 103.461 127.327 100.812 126.587 100.422C125.847 100.032 125.377 103.661 125.307 104.321C125.377 97.7626 123.627 102.171 123.367 105.32C122.273 104.786 121.045 104.585 119.837 104.74C119.467 105.03 121.177 106.47 121.517 106.8C121.899 107.187 122.169 107.67 122.298 108.198C122.426 108.727 122.409 109.28 122.247 109.799C122.127 110.259 128.737 110.539 128.737 110.539C129.268 109.422 129.667 108.248 129.927 107.04C129.974 106.909 130.01 106.776 130.037 106.64C130.037 106.46 130.107 106.22 130.157 105.95C130.397 104.681 130.737 102.571 130.197 102.131Z" fill="#FCBDB6"/>
<path d="M126.549 108.789C126.564 108.784 126.578 108.775 126.588 108.762C126.599 108.75 126.606 108.735 126.609 108.719C126.641 108.428 126.586 108.134 126.45 107.874C126.315 107.614 126.106 107.4 125.849 107.259C125.243 106.91 124.69 106.476 124.209 105.969C124.2 105.96 124.19 105.953 124.179 105.949C124.168 105.944 124.156 105.941 124.144 105.941C124.131 105.941 124.119 105.944 124.108 105.949C124.097 105.953 124.087 105.96 124.079 105.969C124.07 105.978 124.063 105.988 124.058 105.999C124.053 106.01 124.051 106.022 124.051 106.034C124.051 106.046 124.053 106.058 124.058 106.069C124.063 106.081 124.07 106.091 124.079 106.099C124.569 106.628 125.139 107.076 125.769 107.429C125.984 107.558 126.158 107.746 126.27 107.972C126.382 108.197 126.426 108.449 126.399 108.699C126.397 108.711 126.398 108.723 126.401 108.734C126.405 108.746 126.41 108.757 126.418 108.766C126.425 108.775 126.434 108.783 126.445 108.789C126.455 108.794 126.467 108.798 126.479 108.799L126.549 108.789Z" fill="#F9A6A0"/>
<path d="M107.538 106.719C107.538 106.719 112.778 113.467 115.788 114.316C118.798 115.166 110.318 124.873 110.318 124.873C105.478 121.894 104.398 115.036 104.398 115.036L107.538 106.719Z" fill="#49ADB7"/>
<path d="M79.6173 143.826C79.6173 145.136 84.4773 146.715 94.2073 146.415C103.937 146.115 106.787 143.546 106.747 142.236C106.707 140.927 106.397 140.027 96.6873 140.307C86.9773 140.587 79.5873 142.526 79.6173 143.826Z" fill="#333333"/>
<path d="M78.9559 107.979C78.9559 107.979 80.6759 101.151 93.3959 101.041C111.706 100.942 105.076 116.337 106.766 141.959C106.766 141.959 103.876 137.19 79.8759 143.269C79.8559 143.309 74.9859 118.426 78.9559 107.979Z" fill="#49ADB7"/>
<path d="M74.2773 107.04L82.5673 111.639C82.5673 111.639 101.117 115.737 105.937 114.948C110.757 114.158 111.677 112.178 111.677 112.178C111.677 112.178 106.547 102.831 97.8273 101.412C96.985 101.241 96.1336 101.117 95.2773 101.042C93.8044 100.937 92.3248 100.967 90.8573 101.132C79.8073 102.411 74.2773 107.04 74.2773 107.04Z" fill="#49ADB7"/>
<path d="M90.8883 99.4913L92.0983 95.5725L92.4583 94.4328L94.5283 87.7148L94.7983 94.3928L94.9683 98.3916V99.6612C94.9683 100.521 101.368 101.961 101.968 102.66C102.318 103.04 100.138 105.04 97.3983 105.639C91.8983 106.769 83.8983 105.04 82.2383 103.04C82.2583 102.98 90.4983 100.761 90.8883 99.4913Z" fill="#FCBDB6"/>
<path d="M99.8689 85.1953C100.123 86.4051 100.123 87.6544 99.8689 88.8642C99.4389 90.8636 97.3789 85.8651 97.3789 85.8651L99.8689 85.1953Z" fill="#5C305D"/>
<path d="M100.106 89.4437C99.5962 85.5149 96.5362 82.6658 93.2762 83.0956C90.0162 83.5255 87.7962 87.0944 88.2762 91.0032C88.7562 94.912 91.8562 97.7812 95.1162 97.3513C98.3762 96.9214 100.626 93.3825 100.106 89.4437Z" fill="#FCBDB6"/>
<path d="M84.3984 89.1348C84.3984 89.1348 86.3984 93.4335 89.2084 93.7534C89.2084 93.7534 86.9284 90.4744 91.7384 88.475C91.6884 88.475 87.2684 87.7752 84.3984 89.1348Z" fill="#501506"/>
<path d="M88.3261 91.5036C88.4566 91.5981 88.6044 91.6659 88.7612 91.7031C88.9179 91.7402 89.0805 91.7459 89.2395 91.7199C89.3985 91.6938 89.5507 91.6366 89.6875 91.5514C89.8242 91.4662 89.9427 91.3548 90.0361 91.2236C90.1944 90.9396 90.2338 90.6045 90.1457 90.2916C90.0576 89.9786 89.8493 89.7133 89.5661 89.5536C89.4348 89.4721 89.2887 89.4174 89.1363 89.3924C88.9838 89.3674 88.8279 89.3728 88.6774 89.408C88.527 89.4433 88.385 89.5079 88.2595 89.5981C88.134 89.6882 88.0276 89.8022 87.9461 89.9336C87.8647 90.0649 87.81 90.211 87.785 90.3634C87.76 90.5159 87.7653 90.6718 87.8006 90.8223C87.8359 90.9727 87.9005 91.1147 87.9907 91.2402C88.0808 91.3657 88.1948 91.4721 88.3261 91.5536V91.5036Z" fill="#FCBDB6"/>
<path d="M91.6871 88.4746C91.6871 88.4746 91.2971 92.0835 92.0271 92.7633C92.7571 93.4431 97.6071 93.763 99.8671 92.8633C99.8671 95.1826 101.397 100.151 99.7571 101.801C98.0269 102.884 96.0183 103.44 93.9771 103.4C88.9171 102.57 89.3571 99.6212 88.7071 98.1517C88.5071 97.7018 90.2871 92.0035 90.2871 92.0035C90.3479 91.5676 90.3152 91.1237 90.1911 90.7014C90.0669 90.279 89.8542 89.888 89.5671 89.5543C90.1654 89.0128 90.8971 88.6402 91.6871 88.4746Z" fill="#501506"/>
<path d="M91.6686 88.6641C91.611 88.4305 91.6085 88.1867 91.6614 87.952C91.7143 87.7173 91.8212 87.4982 91.9736 87.312C92.1259 87.1257 92.3195 86.9775 92.5391 86.879C92.7587 86.7806 92.9982 86.7346 93.2386 86.7447C95.2386 86.6247 97.4286 86.3848 98.2386 86.7447C98.9123 87.2233 99.4835 87.8317 99.9186 88.5341C99.9186 88.5341 102.069 81.2763 100.109 80.1267C98.1486 78.977 90.1086 78.2873 86.1086 80.2866C82.1086 82.286 84.3986 89.134 84.3986 89.134C86.796 88.6996 89.2353 88.542 91.6686 88.6641Z" fill="#501506"/>
<path d="M93.7781 207.509C94.4096 207.474 95.038 207.618 95.5915 207.924C96.1451 208.23 96.6013 208.685 96.9081 209.238C97.2036 209.806 97.683 210.257 98.2681 210.518C100.268 211.328 105.838 212.067 103.738 213.917C102.528 214.976 96.8481 214.287 95.2381 214.287C93.6281 214.287 92.1281 214.986 90.9281 213.917C90.2181 213.267 90.2781 211.228 90.4881 209.498C90.5559 208.9 90.8584 208.354 91.3291 207.979C91.7998 207.604 92.4001 207.431 92.9981 207.499C93.1845 207.513 93.3718 207.513 93.5581 207.499L93.7781 207.509Z" fill="#333333"/>
<path d="M105.187 141.577C105.558 141.619 105.904 141.785 106.168 142.048C106.433 142.311 106.602 142.656 106.647 143.026C106.837 144.566 106.867 147.795 105.947 154.513C104.607 164.38 96.7367 199.979 95.9467 204.778C95.6467 206.487 98.0767 207.957 95.5867 208.316L92.2967 208.247C89.6067 208.636 91.2367 206.077 91.2167 204.248L90.7167 148.465L82.1367 144.286C86.6418 143.139 91.2236 142.317 95.8467 141.827C98.946 141.46 102.072 141.376 105.187 141.577Z" fill="#440808"/>
<path d="M98.3384 145.656L81.0484 192.872L78.3984 151.285L78.7384 148.545C78.8884 147.866 79.2684 144.857 79.9284 144.667C83.3984 143.647 98.6884 143.137 98.3384 145.656Z" fill="#440808"/>
<path d="M88.9883 171.4L93.0483 159.024C93.9551 156.247 95.8618 153.906 98.3983 152.456L98.2383 152.176C95.6567 153.671 93.7191 156.067 92.7983 158.904L88.7383 171.3L88.9883 171.4Z" fill="#333333"/>
<path d="M98.6691 94.1738C97.4002 94.4816 96.0901 94.5829 94.7891 94.4738C94.8316 94.7337 94.9283 94.9818 95.0728 95.2019C95.2174 95.422 95.4065 95.6094 95.6281 95.7517C95.8496 95.8941 96.0986 95.9883 96.3589 96.0283C96.6192 96.0683 96.885 96.0531 97.1391 95.9838C98.3291 95.7638 98.6691 94.1738 98.6691 94.1738Z" fill="white"/>
<path d="M93.8984 114.944C93.8985 114.819 93.9357 114.697 94.0053 114.593C94.075 114.49 94.174 114.409 94.2897 114.361C94.4054 114.314 94.5326 114.302 94.6551 114.327C94.7775 114.352 94.8898 114.413 94.9775 114.503C95.0652 114.592 95.1244 114.705 95.1475 114.828C95.1707 114.951 95.1568 115.078 95.1076 115.192C95.0583 115.307 94.976 115.405 94.8711 115.473C94.7662 115.541 94.6434 115.576 94.5184 115.574C94.3531 115.572 94.1954 115.504 94.0794 115.386C93.9634 115.268 93.8984 115.11 93.8984 114.944Z" fill="#5C305D"/>
<path d="M95.1485 123.163C95.1485 123.082 95.1646 123.001 95.1957 122.926C95.2269 122.851 95.2725 122.782 95.3301 122.725C95.3877 122.667 95.456 122.621 95.5313 122.59C95.6065 122.559 95.6871 122.543 95.7685 122.543C95.8939 122.541 96.0171 122.577 96.1222 122.645C96.2274 122.714 96.3096 122.812 96.3586 122.927C96.4075 123.043 96.4208 123.17 96.3968 123.293C96.3728 123.417 96.3126 123.53 96.2239 123.618C96.1352 123.707 96.022 123.767 95.8989 123.791C95.7758 123.815 95.6483 123.802 95.5328 123.753C95.4173 123.704 95.319 123.622 95.2505 123.517C95.1821 123.412 95.1465 123.288 95.1485 123.163Z" fill="#5C305D"/>
<path d="M95.1485 132.032C95.1472 131.95 95.1622 131.868 95.1928 131.792C95.2234 131.716 95.2688 131.646 95.3265 131.587C95.3842 131.529 95.453 131.482 95.5289 131.45C95.6048 131.419 95.6862 131.402 95.7685 131.402C95.9356 131.402 96.0958 131.469 96.214 131.587C96.3321 131.705 96.3985 131.865 96.3985 132.032C96.3985 132.198 96.3335 132.356 96.2175 132.474C96.1016 132.592 95.9439 132.66 95.7785 132.662C95.6114 132.662 95.4512 132.596 95.333 132.478C95.2149 132.36 95.1485 132.199 95.1485 132.032Z" fill="#5C305D"/>
<path d="M106.398 128.51H106.568C106.858 123.512 106.268 114.515 106.268 114.385H106.098C106.118 114.495 106.698 123.512 106.398 128.51Z" fill="#5C305D"/>
<path d="M77.4686 123.943C78.1977 121.339 79.1375 118.798 80.2786 116.345L80.1286 116.275C78.9814 118.74 78.0383 121.294 77.3086 123.913L77.4686 123.943Z" fill="#5C305D"/>
<path d="M114.738 119.375C114.939 118.929 114.985 118.43 114.868 117.955L114.148 118.795L114.738 119.375Z" fill="#125A5E"/>
<path d="M113.036 113.566C113.757 114.213 114.609 114.694 115.535 114.978C116.461 115.261 117.437 115.338 118.396 115.205C119.496 115.015 122.176 109.797 122.176 109.797L128.666 110.537C128.666 110.537 127.396 118.934 121.206 123.033C115.016 127.132 110.316 123.283 110.316 123.283" fill="#FCBDB6"/>
<path d="M98.2584 140.269L95.2584 139.759C97.5684 126.663 93.3984 106.899 93.3984 106.699L96.3184 106.039C96.4884 106.909 100.618 126.613 98.2584 140.269Z" fill="#24555E"/>
<path d="M140.106 110.828H97.6758V151.676H140.106V110.828Z" fill="#FCB554"/>
<path d="M82.8558 151.676H97.6758V110.828H82.8558V151.676Z" fill="#FF970D"/>
<path d="M133.267 140.188H130.917C128.918 140.188 127.297 141.808 127.297 143.806V143.836C127.297 145.835 128.918 147.455 130.917 147.455H133.267C135.266 147.455 136.887 145.835 136.887 143.836V143.806C136.887 141.808 135.266 140.188 133.267 140.188Z" fill="white"/>
<path d="M96.1677 151.666C91.7077 150.806 85.3977 143.898 84.2877 140.03C82.2877 132.882 82.4577 124.584 82.2877 119.516C82.2077 117.166 81.7377 112.388 82.1577 111.038C82.4977 109.959 80.9877 108.129 79.1577 107.519C78.3048 107.274 77.4039 107.246 76.5377 107.439C76.2677 107.439 75.9377 107.829 75.5977 108.349C75.5977 108.349 77.4877 143.339 77.9777 144.108C79.9777 147.407 84.2977 152.536 88.5377 152.756L96.1677 151.666Z" fill="#FCBDB6"/>
<path d="M76.9873 129.032C76.9873 129.032 82.4373 128.972 82.6473 128.372C84.0273 124.483 82.6473 114.816 82.9173 109.448C83.0773 106.109 75.5273 106.588 75.5273 106.588L76.9873 129.032Z" fill="#49ADB7"/>
<path d="M103.308 151.665H107.558C107.558 151.665 108.048 153.284 104.208 153.984C101.31 154.399 98.3752 154.486 95.458 154.244C92.252 154.209 89.0883 153.507 86.168 152.184L93.528 151.675H98.808C98.808 151.675 101.158 149.025 102.038 149.025C102.918 149.025 102.738 150.935 101.938 151.525L103.308 151.665Z" fill="#FCBDB6"/>
<path d="M139.498 110.824H107.598V151.282H139.498V110.824Z" fill="#FCB554"/>
<path d="M135.759 140.938H127.959C127.49 140.938 127.109 141.318 127.109 141.787V147.286C127.109 147.755 127.49 148.135 127.959 148.135H135.759C136.229 148.135 136.609 147.755 136.609 147.286V141.787C136.609 141.318 136.229 140.938 135.759 140.938Z" fill="white"/>
<path d="M103.696 212.43L92.5195 212.977L92.6661 215.973L103.843 215.427L103.696 212.43Z" fill="#333333"/>
<path d="M175.619 215.463H216.879V167.208H175.619V215.463Z" fill="#FCB554"/>
<path d="M234.009 167.209H216.879V215.464H234.009V167.209Z" fill="#FF970D"/>
<path d="M191.189 166.979H180.289V188.772H191.189V166.979Z" fill="white"/>
<path d="M211.888 201.607H201.628C201.236 201.607 200.918 201.925 200.918 202.317V211.015C200.918 211.407 201.236 211.724 201.628 211.724H211.888C212.28 211.724 212.598 211.407 212.598 211.015V202.317C212.598 201.925 212.28 201.607 211.888 201.607Z" fill="white"/>
<path d="M222.229 167.308H182.519C180.449 167.308 178.819 166.138 178.989 164.788L182.649 135.797C182.799 134.588 184.339 133.668 186.179 133.668H218.569C220.409 133.668 221.939 134.588 222.099 135.797L225.759 164.788C225.929 166.138 224.299 167.308 222.229 167.308Z" fill="#C42014"/>
<path d="M194.428 139.954C195.4 139.954 196.188 139.167 196.188 138.195C196.188 137.223 195.4 136.436 194.428 136.436C193.456 136.436 192.668 137.223 192.668 138.195C192.668 139.167 193.456 139.954 194.428 139.954Z" fill="#490707"/>
<path d="M210.319 139.954C211.291 139.954 212.079 139.167 212.079 138.195C212.079 137.223 211.291 136.436 210.319 136.436C209.347 136.436 208.559 137.223 208.559 138.195C208.559 139.167 209.347 139.954 210.319 139.954Z" fill="#490707"/>
<path d="M202.4 153.511C200.064 153.509 197.825 152.58 196.173 150.929C194.522 149.278 193.592 147.039 193.59 144.704V138.196C193.59 137.965 193.682 137.744 193.845 137.581C194.008 137.418 194.229 137.326 194.46 137.326C194.691 137.326 194.912 137.418 195.075 137.581C195.238 137.744 195.33 137.965 195.33 138.196V144.704C195.399 146.534 196.174 148.266 197.493 149.536C198.813 150.806 200.573 151.516 202.405 151.516C204.237 151.516 205.997 150.806 207.316 149.536C208.635 148.266 209.411 146.534 209.48 144.704V138.196C209.48 137.965 209.572 137.744 209.735 137.581C209.898 137.418 210.119 137.326 210.35 137.326C210.581 137.326 210.802 137.418 210.965 137.581C211.128 137.744 211.22 137.965 211.22 138.196V144.704C211.217 147.041 210.287 149.281 208.633 150.932C206.979 152.584 204.737 153.511 202.4 153.511Z" fill="#490707"/>
<path d="M230.95 167.308H219.04C218.893 167.309 218.748 167.279 218.613 167.22C218.478 167.161 218.357 167.075 218.257 166.967C218.157 166.859 218.081 166.731 218.034 166.592C217.986 166.453 217.968 166.305 217.98 166.159L219.08 152.963C219.096 152.692 219.214 152.438 219.411 152.252C219.608 152.066 219.869 151.962 220.14 151.963H229.85C230.121 151.965 230.38 152.069 230.577 152.254C230.774 152.44 230.893 152.693 230.91 152.963L232 166.159C232.014 166.305 231.998 166.452 231.951 166.591C231.905 166.73 231.83 166.858 231.731 166.966C231.632 167.075 231.511 167.161 231.377 167.22C231.242 167.279 231.097 167.309 230.95 167.308Z" fill="#473703"/>
<path d="M229.579 167.307H217.399C217.25 167.306 217.103 167.274 216.966 167.214C216.829 167.154 216.707 167.066 216.605 166.956C216.504 166.847 216.427 166.717 216.377 166.576C216.328 166.436 216.308 166.286 216.319 166.137L217.439 152.681C217.462 152.41 217.585 152.157 217.785 151.972C217.985 151.787 218.247 151.683 218.519 151.682H228.419C228.692 151.683 228.954 151.787 229.154 151.972C229.354 152.157 229.477 152.41 229.499 152.681L230.619 166.137C230.63 166.283 230.612 166.429 230.565 166.567C230.518 166.706 230.444 166.833 230.347 166.942C230.25 167.051 230.132 167.14 230 167.202C229.868 167.265 229.725 167.301 229.579 167.307Z" fill="url(#paint0_linear_110_1802)"/>
<path d="M227.199 154.472C227.652 154.472 228.019 154.105 228.019 153.652C228.019 153.199 227.652 152.832 227.199 152.832C226.746 152.832 226.379 153.199 226.379 153.652C226.379 154.105 226.746 154.472 227.199 154.472Z" fill="#490707"/>
<path d="M219.82 154.472C220.273 154.472 220.64 154.105 220.64 153.652C220.64 153.199 220.273 152.832 219.82 152.832C219.367 152.832 219 153.199 219 153.652C219 154.105 219.367 154.472 219.82 154.472Z" fill="#490707"/>
<path d="M223.51 146.533C224.596 146.533 225.637 146.964 226.406 147.73C227.174 148.497 227.608 149.537 227.61 150.622V153.621C227.595 153.717 227.546 153.805 227.472 153.869C227.397 153.932 227.303 153.967 227.205 153.967C227.107 153.967 227.013 153.932 226.939 153.869C226.865 153.805 226.815 153.717 226.8 153.621V150.622C226.8 149.75 226.454 148.913 225.837 148.296C225.22 147.679 224.383 147.333 223.51 147.333C222.638 147.333 221.801 147.679 221.184 148.296C220.567 148.913 220.22 149.75 220.22 150.622V153.621C220.22 153.727 220.178 153.829 220.103 153.904C220.028 153.979 219.926 154.021 219.82 154.021C219.713 154.021 219.61 153.979 219.534 153.904C219.457 153.83 219.413 153.728 219.41 153.621V150.622C219.413 149.537 219.846 148.497 220.615 147.73C221.383 146.964 222.425 146.533 223.51 146.533Z" fill="#490707"/>
<path d="M189.659 211.595C190.012 213.426 189.817 215.321 189.099 217.043C188.383 218.757 187.915 220.565 187.709 222.411C187.658 222.818 187.753 223.229 187.979 223.571C188.337 223.919 188.819 224.113 189.319 224.111C191.036 224.291 192.766 224.321 194.489 224.201C194.985 224.2 195.472 224.076 195.909 223.841C196.219 223.597 196.462 223.278 196.616 222.914C196.77 222.551 196.829 222.154 196.789 221.761C196.789 220.222 195.899 218.852 195.329 217.423C194.561 215.481 194.296 213.376 194.559 211.305L189.659 211.595Z" fill="#FDAF89"/>
<path d="M173.26 210.005C173.319 210.83 173.097 211.651 172.63 212.335C172.344 212.636 172.005 212.884 171.63 213.064C169.824 214.034 167.911 214.792 165.93 215.324C164.831 215.522 163.782 215.933 162.84 216.533C162.38 216.851 162.046 217.32 161.896 217.859C161.746 218.398 161.79 218.973 162.02 219.482C166.813 219.772 171.618 219.772 176.41 219.482C177.43 219.462 178.441 219.29 179.41 218.973C179.9 215.774 178.8 212.554 179.26 209.355L173.26 210.005Z" fill="#FDAF89"/>
<path d="M179.401 220.263C173.651 220.603 167.841 220.623 162.081 220.473C161.864 220.468 161.657 220.381 161.503 220.228C161.348 220.076 161.258 219.87 161.251 219.653C161.246 219.535 161.267 219.418 161.31 219.308C161.353 219.198 161.418 219.098 161.502 219.015C161.585 218.931 161.685 218.866 161.795 218.823C161.905 218.779 162.023 218.759 162.141 218.763C167.836 219.005 173.542 218.821 179.211 218.213C179.434 218.191 179.658 218.257 179.833 218.397C180.009 218.537 180.123 218.74 180.151 218.963C180.151 219.083 180.151 219.203 180.151 219.323C180.173 219.547 180.107 219.771 179.967 219.946C179.827 220.122 179.624 220.236 179.401 220.263Z" fill="#026864"/>
<path d="M166.399 219.801C166.364 218.183 165.993 216.59 165.309 215.123L169.459 213.793C170.464 215.606 171.1 217.601 171.329 219.661L166.399 219.801Z" fill="#026864"/>
<path d="M172.03 101.249C171.732 100.373 171.771 99.4177 172.14 98.5694C172.985 96.1615 173.539 93.6611 173.79 91.1216C173.95 87.9426 173.1 84.8036 172.93 81.6245C172.795 80.4645 172.978 79.2895 173.46 78.2256C173.713 77.6987 174.131 77.2689 174.651 77.0018C175.171 76.7347 175.764 76.6449 176.34 76.746C176.69 76.6061 178.8 76.2362 179.07 76.5161C180.293 77.7326 181.128 79.2841 181.47 80.9747C182.05 84.9735 179.93 89.812 180.2 93.8408C180.312 94.9725 180.289 96.1136 180.13 97.2398C179.958 98.3738 179.391 99.4109 178.53 100.169C177.776 100.701 176.928 101.084 176.03 101.299C175.292 101.561 174.514 101.693 173.73 101.688C172.95 101.638 172.4 101.948 172.03 101.249Z" fill="#2B0F0A"/>
<path d="M168.398 130.85C169.228 135.908 168.618 141.086 168.608 146.215C168.608 149.504 168.848 152.783 169.098 156.062C170.518 174.136 172.338 192.221 172.038 210.355C173.246 211.103 174.614 211.552 176.03 211.665C177.445 211.778 178.868 211.552 180.178 211.005C180.328 208.366 180.178 205.597 180.288 202.948C180.458 199.869 182.438 184.493 182.168 180.015C181.168 163.92 188.298 149.574 186.168 133.589L168.398 130.85Z" fill="#B72929"/>
<path d="M178.26 151.602C178.043 150.84 177.706 150.118 177.26 149.463C176.757 148.905 176.178 148.42 175.54 148.024C173.48 146.554 171.54 144.545 171.27 142.025C172.191 143.063 173.292 143.927 174.52 144.575C175.52 145.054 176.8 145.224 177.68 145.994C178.255 146.561 178.705 147.242 179 147.994L181.85 153.992C182.231 154.698 182.497 155.461 182.64 156.251C182.98 158.84 181.51 158.39 180.52 156.611C179.632 155.005 178.876 153.33 178.26 151.602Z" fill="#911616"/>
<path d="M178.609 140.467L181.399 166.369C181.789 169.998 182.169 173.617 182.709 177.226C184.459 188.862 187.819 200.359 187.639 212.125C190.177 213.219 193.036 213.312 195.639 212.385C196.178 206.041 196.241 199.665 195.829 193.311C195.569 189.892 195.049 186.503 194.829 183.084C193.689 167.929 198.889 152.793 196.139 137.848L178.609 140.467Z" fill="#F04A48"/>
<path d="M180.808 152.131L178.288 147.713C178.288 147.713 174.868 145.893 174.758 145.853C174.648 145.813 171.438 142.854 171.438 142.854L171.978 135.736L175.688 136.496C175.688 136.496 182.417 136.606 182.688 136.566C183.916 137.116 185.111 137.737 186.268 138.426L187.198 141.355L180.808 152.131Z" fill="#F04A48"/>
<path d="M149.919 108.795C150.239 108.485 150.539 108.165 150.849 107.845C149.289 106.252 147.766 104.636 146.279 102.997C145.649 102.297 145.739 101.087 145.189 100.327C144.95 99.9899 144.652 99.6986 144.309 99.4676C143.715 99.1773 143.061 99.0301 142.399 99.0377L138.709 98.7178C138.598 98.6826 138.48 98.6826 138.369 98.7178C138.303 98.7747 138.251 98.8467 138.219 98.9278C137.976 99.4449 137.82 99.999 137.759 100.567C137.618 100.687 137.521 100.851 137.485 101.032C137.448 101.214 137.475 101.402 137.559 101.567C137.74 101.856 137.982 102.102 138.269 102.287C139.848 103.535 141.519 104.661 143.269 105.656C144.849 107.315 146.269 108.995 147.589 110.654C148.48 110.194 149.272 109.562 149.919 108.795Z" fill="#FDAF89"/>
<path d="M141.788 94.9102H131.858C131.438 94.9102 131.098 95.2503 131.098 95.6699V101.688C131.098 102.108 131.438 102.448 131.858 102.448H141.788C142.207 102.448 142.548 102.108 142.548 101.688V95.6699C142.548 95.2503 142.207 94.9102 141.788 94.9102Z" fill="#4B74DB"/>
<path d="M142.548 96.5801H131.098V97.5801H142.548V96.5801Z" fill="#282F39"/>
<path d="M142.548 97.5684H131.098V98.1684H142.548V97.5684Z" fill="#ECEAEB"/>
<path d="M135.289 99.6387H131.949V101.129H135.289V99.6387Z" fill="#92B1EF"/>
<path d="M144.751 101.758C144.944 101.364 145.033 100.927 145.011 100.489C144.925 100.191 144.777 99.9158 144.575 99.6812C144.373 99.4465 144.123 99.2582 143.841 99.1292C142.451 98.9393 141.051 98.7693 139.661 98.6094C139.481 98.6094 139.251 98.6094 139.201 98.7793C139.173 98.8533 139.173 98.9353 139.201 99.0093C139.323 99.2709 139.507 99.4987 139.737 99.6729C139.967 99.8472 140.236 99.9625 140.521 100.009C141.06 99.9944 141.599 100.031 142.131 100.119C143.031 100.459 143.281 101.708 144.131 102.118C144.401 102.178 144.681 101.938 144.751 101.758Z" fill="#FDAF89"/>
<path d="M168.608 146.494C168.898 147.494 170.138 147.774 171.098 148.234C172.058 148.694 177.838 151.313 189.098 148.784C188.488 143.335 184.218 138.357 184.038 132.878C183.878 127.69 186.128 123.271 186.718 118.113C187.118 114.564 188.178 101.328 189.098 97.8791C190.158 93.8804 177.898 99.3387 179.578 95.5898C177.407 96.2494 175.187 96.7342 172.938 97.0394C171.693 97.0703 170.476 97.4141 169.398 98.0391C168.528 98.8171 167.87 99.8047 167.488 100.908L160.608 116.443C156.608 112.825 152.735 109.066 148.988 105.167C147.867 106.505 146.668 107.777 145.398 108.976C147.398 111.625 155.208 121.702 157.638 123.531C158.22 124.05 158.901 124.447 159.64 124.696C160.379 124.945 161.161 125.042 161.938 124.981C163.01 124.724 163.979 124.149 164.718 123.331C166.543 121.363 168.057 119.128 169.208 116.703C169.468 118.153 169.658 119.443 169.818 120.912C170.738 129.45 166.238 138.237 168.608 146.494Z" fill="#026864"/>
<path d="M189.269 93.5207C188.807 93.1912 188.264 92.9955 187.698 92.9551C187.133 92.9147 186.567 93.0312 186.063 93.2917C185.56 93.5522 185.138 93.9467 184.844 94.4316C184.55 94.9165 184.396 95.473 184.399 96.0399C184.359 100.559 184.312 105.074 184.259 109.586C184.259 112.585 184.199 115.584 183.989 118.583C183.289 128.49 180.669 137.097 181.069 146.714C181.077 147.146 181.175 147.571 181.358 147.962C181.541 148.353 181.804 148.702 182.13 148.984C182.457 149.267 182.839 149.478 183.252 149.604C183.665 149.73 184.1 149.767 184.529 149.714C185.619 149.574 186.699 149.384 187.769 149.154C190.599 148.564 193.589 147.894 195.899 146.235C196.289 145.955 196.608 145.588 196.83 145.162C197.052 144.737 197.172 144.265 197.179 143.785C197.447 138.889 196.669 133.992 194.899 129.42C194.159 127.51 195.899 124.971 195.759 122.932C195.059 114.854 194.359 106.777 193.599 98.6991C193.532 98.0514 193.267 97.4402 192.839 96.9496C191.793 95.7255 190.624 94.6132 189.349 93.6306L189.269 93.5207Z" fill="#026864"/>
<path d="M192.979 119.891C192.979 121.221 192.919 122.711 191.979 123.64C191.573 123.989 191.114 124.273 190.619 124.48L183.109 128.029C184.259 129.209 186.209 128.829 187.789 128.359L192.639 126.919C193.854 126.713 194.947 126.056 195.699 125.08C196.088 124.216 196.217 123.257 196.069 122.321C195.829 118.249 195.583 114.183 195.329 110.124C195.229 108.365 195.229 106.206 194.329 104.666C192.819 109.255 193.019 115.113 192.979 119.891Z" fill="#004547"/>
<path d="M179.691 93.1418C179.932 94.7664 179.518 96.4204 178.541 97.7404C178.231 98.1502 177.841 98.6001 177.921 99.1099C177.986 99.3494 178.112 99.5677 178.287 99.7431C178.463 99.9185 178.681 100.045 178.921 100.11C179.797 100.42 180.751 100.427 181.632 100.132C182.512 99.8368 183.269 99.2553 183.781 98.4801C184.335 97.4618 184.624 96.3204 184.621 95.1611C184.689 93.7474 184.612 92.3304 184.391 90.9324C184.351 90.574 184.224 90.2308 184.021 89.9327C183.909 89.7817 183.746 89.6755 183.563 89.6334C183.38 89.5912 183.188 89.6158 183.021 89.7028L179.691 93.1418Z" fill="#FDAF89"/>
<path d="M184.529 91.9126C184.529 91.5927 184.449 91.2628 184.399 90.9129C184.359 90.5545 184.232 90.2113 184.029 89.9132C183.917 89.7621 183.755 89.656 183.571 89.6138C183.388 89.5717 183.196 89.5963 183.029 89.6833L179.669 93.1522C179.852 94.3756 179.664 95.6259 179.129 96.7411C180.731 95.8982 182.175 94.7856 183.399 93.4521C183.87 93.0153 184.253 92.4928 184.529 91.9126Z" fill="#D88666"/>
<path d="M168.701 110.515C169.145 108.484 169.816 106.509 170.701 104.627C168.821 106.316 168.261 108.956 167.851 111.435C167.621 112.804 167.451 114.174 167.321 115.554C167.274 116.705 167.09 117.846 166.771 118.953C166.211 120.354 165.37 121.626 164.301 122.691C163.499 123.697 162.471 124.498 161.301 125.031C161.507 125.05 161.715 125.05 161.921 125.031C162.993 124.773 163.962 124.199 164.701 123.381C166.525 121.413 168.039 119.178 169.191 116.753C168.211 114.874 168.331 112.555 168.701 110.515Z" fill="#004547"/>
<path d="M179.467 129.549C178.173 129.394 176.908 129.057 175.707 128.55C174.09 128.042 172.403 127.792 170.707 127.81C170.642 127.79 170.573 127.79 170.507 127.81C170.454 127.851 170.418 127.911 170.405 127.977C170.392 128.043 170.404 128.111 170.437 128.17C170.514 128.282 170.622 128.369 170.747 128.42C171.06 128.584 171.398 128.695 171.747 128.75C172.19 128.778 172.626 128.862 173.047 129C173.488 129.237 173.863 129.58 174.137 129.999C171.556 130.099 168.982 129.677 166.567 128.76C166.505 128.74 166.439 128.74 166.377 128.76C166.237 128.76 166.247 129.01 166.307 129.14C166.444 129.402 166.634 129.633 166.865 129.819C167.095 130.005 167.362 130.141 167.647 130.219C168.215 130.378 168.773 130.572 169.317 130.799C168.356 130.886 167.389 130.713 166.517 130.299C166.337 130.639 166.587 131.039 166.857 131.299C167.689 132.058 168.664 132.643 169.726 133.019C170.787 133.395 171.913 133.554 173.037 133.488C175.28 133.351 177.493 132.91 179.617 132.179L179.467 129.549Z" fill="#FDAF89"/>
<path d="M190.138 94.4707C191.456 95.6106 192.966 96.5076 194.598 97.1199C195.347 97.3434 196.069 97.652 196.748 98.0396C198.015 99.0449 198.895 100.458 199.238 102.038C200.235 105.702 200.835 109.463 201.028 113.255C201.341 117.054 201.571 120.853 201.718 124.652C201.726 125.992 201.291 127.298 200.481 128.366C199.671 129.434 198.531 130.205 197.238 130.56H197.188C191.264 131.949 185.211 132.72 179.128 132.859C178.988 131.599 178.828 130.15 178.758 128.86C184.166 127.505 189.467 125.754 194.618 123.622C194.489 122.567 194.426 121.505 194.428 120.443C194.148 116.034 194.118 111.595 193.608 107.207C193.098 102.818 192.278 98.3395 190.138 94.4707Z" fill="#026864"/>
<path d="M187.918 222.852C187.638 223.002 187.618 223.402 187.638 223.722C187.632 224.14 187.743 224.553 187.958 224.912C188.169 225.129 188.423 225.3 188.704 225.414C188.984 225.528 189.286 225.581 189.588 225.572C191.168 225.742 192.748 225.852 194.338 225.902C194.873 225.963 195.414 225.884 195.908 225.672C196.157 225.54 196.366 225.344 196.514 225.105C196.662 224.865 196.743 224.591 196.749 224.309C196.756 224.028 196.686 223.75 196.549 223.504C196.412 223.258 196.211 223.054 195.968 222.912L187.918 222.852Z" fill="#026864"/>
<path d="M195.668 217.104C196.008 218.153 196.308 219.353 196.668 220.413C194.721 219.372 192.48 219.02 190.308 219.413C189.451 219.48 188.641 219.832 188.008 220.413C188.09 219.385 188.254 218.365 188.498 217.364C190.821 216.635 193.298 216.545 195.668 217.104Z" fill="#026864"/>
<path d="M184.031 89.1417C183.129 90.9118 181.572 92.2604 179.691 92.9006C178.99 93.1768 178.219 93.2223 177.491 93.0305C176.261 92.6207 175.631 91.2611 175.331 90.0314C175.144 89.1333 175.007 88.2255 174.921 87.3123C174.751 85.7028 174.611 84.0832 174.511 82.4637C174.279 81.1739 174.547 79.8443 175.261 78.7449C175.398 78.5615 175.576 78.4126 175.781 78.3102C175.986 78.2078 176.212 78.1547 176.441 78.1551C176.841 78.1551 177.181 78.465 177.581 78.5049C178.209 77.9987 178.962 77.6707 179.761 77.5552C180.263 77.5456 180.76 77.6623 181.206 77.8946C181.651 78.127 182.031 78.4674 182.311 78.8848C182.857 79.7178 183.228 80.6532 183.401 81.634C183.901 84.2032 185.191 86.8024 184.031 89.1417Z" fill="#FDAF89"/>
<path d="M180.299 89.582C180.069 90.2554 179.585 90.8118 178.949 91.132C178.442 91.4168 177.851 91.5158 177.279 91.412C176.985 91.3504 176.722 91.1854 176.539 90.947C176.355 90.7086 176.263 90.4124 176.279 90.112C176.939 90.012 177.629 90.012 178.279 89.922C178.959 89.8549 179.634 89.7413 180.299 89.582Z" fill="white"/>
<path d="M178.26 78.8253C178.606 78.8583 178.937 78.9807 179.221 79.1805C179.505 79.3804 179.733 79.6507 179.88 79.9649C180.43 81.0846 181.79 81.4045 182.22 82.4942C182.745 83.4926 183.186 84.5325 183.54 85.6032C183.81 86.9028 183.33 88.1724 183.47 89.492C183.57 90.4917 184.23 91.4914 184.3 92.4911C184.4 93.8207 183.6 95.3203 183.65 96.6499C183.72 98.3094 184.59 99.549 184.65 100.999C184.611 102.12 184.661 103.244 184.8 104.358C184.861 104.669 185.021 104.952 185.258 105.163C185.495 105.374 185.794 105.502 186.11 105.527C186.914 105.506 187.712 105.659 188.45 105.977C188.973 106.396 189.619 106.633 190.288 106.651C190.958 106.669 191.616 106.467 192.16 106.077C192.3 105.997 192.42 105.907 192.54 105.827C192.825 105.623 193.041 105.336 193.157 105.005C193.273 104.674 193.285 104.315 193.19 103.978C192.19 100.219 192.36 97.2797 191.94 93.7208C191.78 92.4212 190.78 91.0416 190.68 89.722C190.58 88.4024 191 86.9128 190.87 85.6532C190.864 84.6228 190.787 83.594 190.64 82.5742C190.279 81.6701 189.837 80.8002 189.32 79.9749C189.043 78.9415 188.615 77.9546 188.05 77.0458C187.24 76.2949 186.253 75.7618 185.18 75.4963C183.96 75.0364 183.55 74.1367 181.28 74.1367C179.418 74.3259 177.6 74.8225 175.9 75.6063C174.74 76.0861 175.57 76.516 175.07 77.6556C176.21 77.6756 177.13 78.7053 178.26 78.8253Z" fill="#2B0F0A"/>
<path d="M175.899 75.586C174.899 76.0259 173.259 75.3061 171.619 78.795C169.979 82.284 172.849 81.7941 172.519 83.9135C172.189 86.0328 171.029 86.0728 172.109 88.1122C173.189 90.1516 173.929 89.4118 172.549 91.7511C171.169 94.0904 170.909 93.6805 171.479 95.43L172.079 97.1694L174.079 96.8795L175.399 93.7905L173.999 86.7926L173.909 83.5436L173.969 79.4848L174.749 78.0153L179.039 75.436C177.996 75.236 176.919 75.2874 175.899 75.586Z" fill="#2B0F0A"/>
<path d="M132.62 126.501C132.62 125.261 132.62 124.011 132.62 122.772C132.642 121.846 132.524 120.923 132.27 120.033C132.086 119.371 131.68 118.792 131.12 118.393C130.47 117.973 129.73 117.713 128.96 117.633C128.51 117.573 128.05 117.533 127.59 117.503C126.84 117.503 126.09 117.433 125.34 117.433C124.59 117.433 123.93 117.433 123.23 117.433C122.62 117.433 122.013 117.503 121.42 117.643C120.825 117.813 120.298 118.162 119.91 118.643C119.65 118.983 119.44 119.363 119.21 119.733C119.13 119.543 119.04 119.323 118.94 119.113C118.736 118.63 118.413 118.206 118 117.883C117.599 117.599 117.129 117.43 116.64 117.393C115.71 117.333 114.77 117.293 113.84 117.273C113.11 117.273 112.39 117.273 111.66 117.273C111.09 117.273 110.52 117.273 109.95 117.343C109.213 117.4 108.49 117.576 107.81 117.863C107.431 118.028 107.089 118.268 106.805 118.569C106.521 118.869 106.302 119.225 106.16 119.613C105.914 120.325 105.776 121.069 105.75 121.822C105.75 122.482 105.75 123.152 105.69 123.821C105.64 124.797 105.64 125.775 105.69 126.751C105.717 127.428 105.828 128.1 106.02 128.75C106.269 129.587 106.747 130.338 107.4 130.919C108.229 131.646 109.297 132.041 110.4 132.029C111.13 132.029 111.87 132.029 112.6 132.029H114.6L117.09 132.079C117.171 132.076 117.252 132.098 117.32 132.143C117.388 132.188 117.441 132.253 117.47 132.329C117.597 132.606 117.744 132.873 117.91 133.129C118.409 133.863 119.032 134.505 119.75 135.028C119.9 135.138 120.06 135.248 120.22 135.378C120.14 135.038 120.06 134.728 120 134.378C119.921 134.015 119.949 133.636 120.08 133.289C120.207 132.95 120.424 132.651 120.708 132.426C120.991 132.201 121.331 132.056 121.69 132.009C122.066 131.981 122.445 131.987 122.82 132.029C123.62 132.029 124.42 132.029 125.22 132.029H127.86C128.784 132.07 129.697 131.818 130.47 131.309C130.998 130.952 131.447 130.492 131.791 129.956C132.135 129.419 132.366 128.819 132.47 128.19C132.572 127.633 132.623 127.067 132.62 126.501Z" fill="white"/>
<path d="M125.06 134.138C125.02 133.832 124.896 133.543 124.702 133.303C124.508 133.063 124.251 132.881 123.96 132.778C123.544 132.571 123.081 132.478 122.617 132.507C122.153 132.537 121.706 132.689 121.32 132.948C121.139 133.049 120.982 133.187 120.858 133.353C120.734 133.518 120.646 133.708 120.6 133.909C120.554 134.111 120.55 134.32 120.59 134.523C120.63 134.726 120.711 134.918 120.83 135.088C121.027 135.358 121.282 135.581 121.576 135.742C121.87 135.903 122.196 135.997 122.53 136.017C122.888 136.058 123.251 136.023 123.595 135.917C123.939 135.81 124.257 135.633 124.53 135.398C124.716 135.248 124.861 135.055 124.954 134.835C125.046 134.615 125.083 134.375 125.06 134.138Z" fill="white"/>
<path d="M126.191 135.398C125.944 135.372 125.695 135.402 125.461 135.485C125.228 135.568 125.016 135.702 124.841 135.878C124.701 136.038 124.615 136.239 124.597 136.451C124.579 136.664 124.63 136.876 124.741 137.058C125.047 137.409 125.476 137.629 125.94 137.672C126.403 137.715 126.866 137.577 127.231 137.288C127.335 137.206 127.421 137.103 127.483 136.986C127.545 136.869 127.581 136.74 127.589 136.608C127.598 136.476 127.578 136.343 127.532 136.219C127.486 136.095 127.414 135.982 127.321 135.888C127.176 135.733 127.001 135.61 126.807 135.526C126.612 135.441 126.403 135.398 126.191 135.398Z" fill="white"/>
<path d="M130.831 124.36C130.752 124.073 130.607 123.809 130.407 123.588C130.207 123.368 129.959 123.197 129.681 123.091C129.337 122.955 128.978 122.864 128.611 122.821C127.868 122.721 127.112 122.793 126.401 123.031C126.084 123.124 125.796 123.297 125.565 123.533C125.333 123.769 125.167 124.061 125.081 124.38C124.921 125.01 124.921 125.67 125.081 126.3C125.149 126.62 125.295 126.919 125.506 127.17C125.717 127.421 125.987 127.617 126.291 127.739C126.689 127.9 127.112 127.988 127.541 127.999C128.109 128.046 128.682 128.012 129.241 127.899C129.642 127.83 130.015 127.644 130.312 127.365C130.609 127.086 130.817 126.726 130.911 126.33C131.072 125.679 131.044 124.996 130.831 124.36ZM129.401 125.67C129.39 125.844 129.353 126.016 129.291 126.18C129.232 126.345 129.131 126.492 128.998 126.606C128.865 126.72 128.704 126.797 128.531 126.829C128.174 126.924 127.798 126.924 127.441 126.829C127.248 126.781 127.073 126.68 126.935 126.536C126.797 126.393 126.702 126.214 126.661 126.02C126.561 125.629 126.561 125.22 126.661 124.83C126.694 124.639 126.781 124.463 126.912 124.321C127.044 124.179 127.213 124.078 127.401 124.03C127.749 123.946 128.113 123.946 128.461 124.03C128.665 124.067 128.853 124.167 128.999 124.316C129.144 124.465 129.239 124.655 129.271 124.86C129.36 125.121 129.404 125.394 129.401 125.67Z" fill="#CE132C"/>
<path d="M120.171 123.14C119.832 122.953 119.457 122.84 119.071 122.81C118.4 122.721 117.717 122.779 117.071 122.98C116.803 123.048 116.554 123.173 116.338 123.345C116.122 123.518 115.946 123.734 115.821 123.98C115.678 124.295 115.593 124.634 115.571 124.98C115.522 125.489 115.563 126.003 115.691 126.499C115.751 126.748 115.867 126.98 116.03 127.177C116.193 127.374 116.398 127.532 116.631 127.639C117.431 128.004 118.32 128.133 119.191 128.009C119.694 127.927 120.183 127.772 120.641 127.549C120.931 127.409 120.971 127.269 120.781 127.009C120.686 126.869 120.583 126.736 120.471 126.609C120.301 126.399 120.191 126.389 119.961 126.529C119.778 126.648 119.579 126.742 119.371 126.809C118.885 126.929 118.377 126.929 117.891 126.809C117.717 126.773 117.555 126.691 117.423 126.571C117.292 126.452 117.194 126.299 117.141 126.129C117.071 125.949 117.141 125.879 117.321 125.879H120.781C120.961 125.879 121.041 125.879 121.041 125.669C121.051 125.259 121.031 124.848 120.981 124.44C120.953 124.176 120.865 123.922 120.725 123.697C120.584 123.472 120.395 123.282 120.171 123.14ZM119.401 124.87C119.165 124.89 118.927 124.89 118.691 124.87H117.231C117.208 124.87 117.186 124.865 117.166 124.855C117.145 124.844 117.128 124.828 117.116 124.809C117.104 124.79 117.097 124.768 117.096 124.745C117.095 124.722 117.1 124.7 117.111 124.68C117.149 124.51 117.234 124.355 117.356 124.231C117.478 124.108 117.632 124.02 117.801 123.98C118.082 123.909 118.371 123.878 118.661 123.89C118.929 123.892 119.186 123.996 119.381 124.18C119.492 124.311 119.565 124.47 119.591 124.64C119.601 124.78 119.551 124.84 119.401 124.87Z" fill="#CE132C"/>
<path d="M112.608 127.49C112.108 126.78 111.608 126.07 111.078 125.381C110.798 125.031 110.818 124.851 111.138 124.541C111.658 124.041 112.138 123.481 112.628 122.951C112.647 122.927 112.657 122.897 112.657 122.866C112.657 122.836 112.647 122.806 112.628 122.781C112.628 122.711 112.538 122.711 112.468 122.711C112.398 122.711 112.028 122.711 111.808 122.711C111.595 122.682 111.379 122.708 111.179 122.787C110.979 122.866 110.803 122.995 110.668 123.161C110.351 123.511 110.018 123.844 109.668 124.161V122.861C109.668 122.661 109.598 122.591 109.408 122.571C109.218 122.551 108.888 122.571 108.638 122.571C108.388 122.571 108.178 122.671 108.168 123.011V125.031C108.168 125.88 108.168 126.73 108.168 127.58C108.168 127.84 108.228 127.91 108.478 127.92C108.728 127.93 108.998 127.92 109.258 127.92C109.518 127.92 109.668 127.82 109.668 127.5V126.14C109.668 126.14 109.668 126.06 109.668 126.04C109.668 126.02 109.748 126.04 109.768 126.04C110.138 126.5 110.508 126.97 110.888 127.43C110.991 127.574 111.127 127.691 111.286 127.77C111.445 127.848 111.621 127.886 111.798 127.88C112.078 127.88 112.348 127.88 112.628 127.88C112.654 127.881 112.68 127.874 112.702 127.862C112.725 127.849 112.744 127.83 112.756 127.807C112.769 127.784 112.774 127.758 112.773 127.732C112.772 127.706 112.763 127.681 112.748 127.66C112.705 127.6 112.658 127.544 112.608 127.49Z" fill="#CE132C"/>
<path d="M124.799 122.662C124.46 122.659 124.123 122.706 123.799 122.802C123.571 122.867 123.36 122.98 123.179 123.132C123.184 123.075 123.184 123.018 123.179 122.962C123.184 122.916 123.178 122.87 123.163 122.827C123.147 122.784 123.122 122.745 123.089 122.714C123.057 122.682 123.017 122.658 122.973 122.644C122.93 122.63 122.884 122.625 122.839 122.632H121.839C121.649 122.632 121.559 122.732 121.559 122.922C121.559 123.112 121.559 123.172 121.559 123.302C121.559 123.991 121.559 124.671 121.559 125.361V127.53C121.559 127.77 121.649 127.86 121.889 127.86H122.699C123.019 127.86 123.149 127.76 123.139 127.43C123.129 127.1 123.139 126.741 123.139 126.431C123.139 126.121 123.139 125.621 123.139 125.221C123.139 124.521 123.369 124.221 123.969 124.141C124.189 124.141 124.419 124.081 124.649 124.021C124.73 124.008 124.804 123.966 124.859 123.905C124.913 123.843 124.945 123.764 124.949 123.682C124.964 123.445 124.964 123.208 124.949 122.972C125.069 122.752 124.989 122.662 124.799 122.662Z" fill="#CE132C"/>
<path d="M115.018 123.03C115.018 122.87 114.937 122.8 114.777 122.79C114.421 122.77 114.064 122.77 113.707 122.79C113.497 122.79 113.438 122.86 113.438 123.07C113.438 123.28 113.438 123.75 113.438 124.07V127.659C113.438 127.869 113.508 127.959 113.728 127.969C113.948 127.979 114.348 127.969 114.658 127.969C114.968 127.969 115.017 127.969 115.027 127.589C115.027 127.439 115.027 127.279 115.027 127.109C115.027 126.009 115.027 124.91 115.027 123.82C115.038 123.557 115.035 123.293 115.018 123.03Z" fill="#CE132C"/>
<path d="M114.401 119.164C114.817 119.198 115.213 119.363 115.531 119.634C115.665 119.742 115.773 119.88 115.847 120.035C115.921 120.191 115.959 120.361 115.959 120.534C115.959 120.706 115.921 120.876 115.847 121.032C115.773 121.188 115.665 121.325 115.531 121.434C115.146 121.741 114.668 121.909 114.176 121.909C113.683 121.909 113.206 121.741 112.821 121.434C112.66 121.316 112.531 121.16 112.446 120.979C112.361 120.799 112.322 120.6 112.334 120.401C112.346 120.202 112.408 120.009 112.514 119.84C112.62 119.671 112.767 119.531 112.941 119.434C113.38 119.173 113.898 119.077 114.401 119.164Z" fill="#74C0D1"/>
<defs>
<linearGradient id="paint0_linear_110_1802" x1="235.669" y1="173.695" x2="216.736" y2="152.546" gradientUnits="userSpaceOnUse">
<stop stop-color="#FF8E00"/>
<stop offset="1" stop-color="#FFCF01"/>
</linearGradient>
</defs>
</svg>
