<svg width="269" height="181" viewBox="0 0 269 181" fill="none" xmlns="http://www.w3.org/2000/svg">
<path opacity="0.35" fill-rule="evenodd" clip-rule="evenodd" d="M134.352 89.1C140.352 95 148.752 98 159.252 98C169.752 98 178.152 95 184.352 89.1C190.552 83.2 193.652 75 193.652 64.9V32.7C193.652 22.7 190.552 14.7 184.352 8.8C178.152 3 169.752 0 159.252 0C148.752 0 140.352 2.9 134.352 8.7C128.252 14.5 125.152 22.6 125.152 32.7V64.9C125.152 75 128.252 83.2 134.352 89.1ZM159.252 95.1C149.652 95.1 141.952 92.4 136.452 87C130.952 81.6 128.152 74.2 128.152 64.9V32.7C128.152 23.4 130.952 16.1 136.352 10.9C141.852 5.7 149.552 3 159.252 3C168.952 3 176.652 5.7 182.252 11C187.852 16.3 190.652 23.6 190.652 32.7V64.9C190.652 74.2 187.852 81.6 182.252 87C176.652 92.4 168.952 95.1 159.252 95.1ZM150.252 75.6C152.452 78 155.452 79.2 159.252 79.2C163.052 79.2 166.052 78 168.352 75.6C170.652 73.2 171.752 70 171.752 66V32C171.752 28 170.552 24.7 168.352 22.4C166.052 20 163.052 18.8 159.252 18.8C155.552 18.8 152.552 20 150.352 22.4C148.152 24.7 147.052 27.9 147.052 31.9V66C147.052 70 148.152 73.2 150.252 75.6ZM152.552 24.3C154.252 22.6 156.452 21.7 159.252 21.7C162.152 21.7 164.452 22.6 166.052 24.4C167.852 26.2 168.652 28.7 168.652 31.9V66C168.652 69.3 167.752 71.7 166.052 73.5C164.352 75.2 162.052 76.1 159.152 76.1C156.252 76.1 154.052 75.3 152.452 73.5C150.852 71.7 150.052 69.2 150.052 66V31.8C150.052 28.5 150.852 26.1 152.552 24.3ZM203.851 96.5H265.751C266.651 96.5 267.351 96.1 267.951 95.6C268.551 95 268.851 94.2 268.851 93.4V77.8C268.851 77 268.551 76.2 267.951 75.6C267.351 75 266.551 74.7 265.751 74.7H234.651L235.451 74C240.851 68.9 245.151 64.7 248.251 61.6C251.351 58.5 254.151 55.4 256.651 52.4C260.251 48.2 262.951 44.1 264.751 40.3C266.651 36.4 267.551 32.5 267.551 28.7C267.551 23.5 266.151 18.6 263.451 14.2C260.751 9.8 256.751 6.3 251.651 3.8C246.551 1.3 240.551 0 233.851 0C227.851 0 222.351 1 217.351 3.2C212.351 5.3 208.351 8.3 205.251 12.2C202.151 16.2 200.451 20.8 200.051 26V32.7C200.051 33.6 200.351 34.3 200.951 34.9C201.551 35.5 202.351 35.8 203.151 35.8H222.151C223.051 35.8 223.751 35.5 224.351 34.9C224.951 34.3 225.251 33.5 225.251 32.7V29.5C225.251 27.2 226.051 25.4 227.551 24C229.151 22.6 231.251 21.9 233.851 21.9C236.451 21.9 238.551 22.6 240.151 24C241.651 25.4 242.451 27.1 242.451 29.2C242.451 31.5 240.451 36.3 230.851 46.2L222.951 54.5C214.251 63.7 207.251 70.8 201.951 75.7C201.151 76.5 200.751 77.5 200.751 78.7V93.4C200.751 94.3 201.051 95 201.651 95.6C202.251 96.2 203.051 96.5 203.851 96.5ZM242.151 21.6C240.051 19.7 237.251 18.7 233.851 18.7C230.451 18.7 227.651 19.7 225.551 21.7C223.351 23.6 222.251 26.2 222.251 29.4V32.6L222.151 32.7H203.151L203.051 32.6V26.1C203.451 21.5 204.951 17.4 207.651 14C210.351 10.5 214.051 7.8 218.551 5.9C223.151 4 228.251 3 233.851 3C240.051 3 245.651 4.2 250.251 6.5C254.851 8.8 258.451 11.9 260.851 15.8C263.351 19.6 264.551 24 264.551 28.7C264.551 32.1 263.751 35.5 262.051 39C260.351 42.5 257.751 46.4 254.351 50.4C251.951 53.3 249.151 56.4 246.151 59.4C243.724 61.8263 240.563 64.8652 236.715 68.5645C235.646 69.5918 234.524 70.6699 233.351 71.8L230.651 74.3C230.051 75 229.851 75.8 230.251 76.6C230.651 77.3 231.351 77.7 232.151 77.7H265.851L265.951 77.8V93.4L265.851 93.5H203.951L203.851 93.4V78.7C203.851 78.3 203.951 78 204.151 77.8C209.351 72.9 216.451 65.7 225.151 56.5L233.051 48.2C241.351 39.6 245.451 33.3 245.451 29.1C245.451 26.1 244.351 23.6 242.151 21.6Z" fill="#CF0A2C"/>
<path d="M163.611 180.88C178.801 180.66 218.491 176.3 222.491 165.17C227.491 151.25 165.611 144.97 126.661 144.54C87.7115 144.11 21.8415 147.06 1.35148 164.74C-12.6385 176.81 98.6915 181.85 163.611 180.88Z" fill="#D6EBF8"/>
<path d="M158.841 169.4C173.41 169.4 185.221 168.715 185.221 167.87C185.221 167.025 173.41 166.34 158.841 166.34C144.272 166.34 132.461 167.025 132.461 167.87C132.461 168.715 144.272 169.4 158.841 169.4Z" fill="#D1D3D4"/>
<path d="M160.38 140.521C160.84 137.051 163.84 134.381 167.1 133.141C170.36 131.901 173.93 131.761 177.4 131.371C180.87 130.981 184.48 130.231 187.18 128.011C192.18 123.901 192.44 116.401 195.53 110.701C196.312 109.253 197.273 107.909 198.39 106.701C207.85 96.591 224.39 92.111 236.65 99.051C238.32 99.821 238.96 102.261 237.65 103.371C234.95 105.981 230.35 105.271 227.38 107.861C227.041 108.176 226.786 108.571 226.64 109.011C228.26 116.561 224.05 122.011 216.1 119.731C215.329 119.78 214.569 119.935 213.84 120.191C212.662 120.654 211.627 121.42 210.84 122.411C210.015 123.425 209.342 124.554 208.84 125.761C207.84 128.121 207.27 130.671 206 132.901C202.51 138.981 194.84 141.141 187.87 141.841C180.9 142.541 173.49 142.411 167.44 145.951C165.5 147.081 163.72 148.581 161.55 149.151C159.38 149.721 156.6 148.971 155.91 146.831L157.01 145.331" fill="#33CC99"/>
<path d="M179.621 131.31V131.1C191.671 133.04 198.621 123.26 205.321 113.8L207.061 111.37C210.315 107.016 215.075 104.032 220.411 103C222.951 102.446 225.557 102.255 228.151 102.43V102.64C228.021 102.64 214.591 101.33 207.291 111.47L205.551 113.91C198.781 123.44 191.801 133.27 179.621 131.31Z" fill="#1F264C"/>
<path d="M177.243 100.18C177.913 94.9903 180.393 89.7803 184.863 87.0803C189.333 84.3803 195.953 85.0803 198.863 89.3603C200.353 84.2303 201.983 78.8403 205.863 75.1203C209.743 71.4003 216.503 70.1203 220.283 73.9303C221.056 74.7496 221.64 75.7284 221.995 76.7979C222.349 77.8673 222.464 79.0014 222.333 80.1203C222.238 81.2668 221.906 82.3812 221.359 83.3932C220.811 84.4052 220.06 85.2929 219.153 86.0003C219.543 84.1703 221.943 84.0603 223.213 85.0003C223.584 85.2747 223.893 85.6256 224.117 86.0292C224.341 86.4329 224.476 86.88 224.513 87.3403C224.563 88.2768 224.373 89.2107 223.96 90.0527C223.546 90.8947 222.924 91.6169 222.153 92.1503C218.023 94.2603 212.823 94.5803 210.773 99.3603C207.773 106.73 204.643 113.69 199.883 120C199.143 121.06 198.383 122.11 197.603 123.14C196.823 124.17 195.993 125.14 195.153 126.14C192.903 128.77 190.313 131.31 187.023 132.38C183.113 133.67 178.633 132.72 174.903 134.46C168.983 137.24 166.903 145.83 160.553 147.33C155.943 148.42 151.463 144.45 150.553 140.11C149.213 133.93 154.553 129.04 159.623 126.52C164.363 124.14 169.623 123.44 173.313 119.13C174.515 117.718 175.407 116.069 175.933 114.29C177.213 109.86 176.643 104.84 177.243 100.18Z" fill="#33CC99"/>
<path d="M161 138.16C161 138.08 164.76 129.88 180.13 124.5C191.13 120.65 195.48 109.25 198.67 100.92C199.97 97.54 201.09 94.61 202.39 92.92C206.83 87.05 216.11 84.52 216.2 84.5L216.26 84.7C216.16 84.7 206.95 87.24 202.56 93.04C201.28 94.73 200.16 97.65 198.87 101.04C195.67 109.4 191.28 120.86 180.2 124.73C164.91 130.09 161.2 138.21 161.2 138.29L161 138.16Z" fill="#1F264C"/>
<path d="M180.233 124.68L180.113 124.51C187.413 119.51 188.883 111.25 188.833 105.22C188.77 101.152 188.138 97.1127 186.953 93.2202L187.153 93.1602C188.348 97.078 188.984 101.145 189.043 105.24C189.093 111.3 187.603 119.61 180.233 124.68Z" fill="#1F264C"/>
<path d="M199.812 98.0001C201.023 95.9792 202.653 94.241 204.592 92.9025C206.531 91.564 208.734 90.6562 211.052 90.2401C213.172 89.8522 215.343 89.8522 217.462 90.2401V90.4401C215.366 90.0616 213.219 90.0616 211.122 90.4401C208.834 90.8553 206.661 91.7531 204.747 93.0739C202.833 94.3947 201.222 96.1082 200.022 98.1001L199.812 98.0001Z" fill="#1F264C"/>
<path d="M177.493 125.709L177.363 125.549C183.973 120.549 185.063 115.189 184.813 111.609C184.636 109.265 183.899 106.998 182.663 104.999L182.833 104.879C184.096 106.92 184.847 109.236 185.023 111.629C185.273 115.219 184.153 120.629 177.493 125.709Z" fill="#1F264C"/>
<path d="M204.702 115.07L204.582 114.9C210.582 110.48 215.042 110.21 217.682 110.76C219.333 111.056 220.85 111.86 222.022 113.06L221.862 113.19C220.707 112.035 219.228 111.257 217.622 110.96C215.032 110.42 210.682 110.7 204.702 115.07Z" fill="#1F264C"/>
<path d="M186.303 91.4888C186.153 91.3129 186.079 91.0854 186.096 90.8554C186.113 90.6253 186.219 90.4111 186.393 90.2588C186.567 90.1102 186.793 90.0363 187.021 90.0531C187.249 90.07 187.462 90.1762 187.613 90.3488C187.688 90.4339 187.746 90.5331 187.783 90.6406C187.819 90.7482 187.835 90.862 187.827 90.9755C187.82 91.0889 187.79 91.1998 187.739 91.3016C187.689 91.4035 187.619 91.4943 187.533 91.5688C187.447 91.6445 187.347 91.7025 187.238 91.7394C187.13 91.7764 187.015 91.7916 186.901 91.7842C186.787 91.7767 186.675 91.7468 186.572 91.6961C186.47 91.6454 186.378 91.575 186.303 91.4888ZM187.453 90.4888C187.397 90.422 187.328 90.3671 187.251 90.3273C187.174 90.2875 187.089 90.2637 187.002 90.2572C186.916 90.2506 186.829 90.2616 186.746 90.2893C186.664 90.3171 186.588 90.3611 186.523 90.4188C186.392 90.5343 186.312 90.6971 186.3 90.8714C186.289 91.0457 186.348 91.2174 186.463 91.3488C186.518 91.4184 186.587 91.4762 186.665 91.5187C186.743 91.5612 186.829 91.5874 186.917 91.5958C187.006 91.6043 187.095 91.5948 187.18 91.5679C187.264 91.541 187.343 91.4972 187.41 91.4392C187.478 91.3813 187.533 91.3103 187.572 91.2305C187.611 91.1508 187.634 91.0639 187.639 90.9752C187.644 90.8864 187.631 90.7976 187.6 90.714C187.57 90.6304 187.523 90.5538 187.463 90.4888H187.453Z" fill="#1F264C"/>
<path d="M222.91 114.39C222.804 114.249 222.755 114.073 222.773 113.897C222.792 113.722 222.875 113.559 223.008 113.443C223.141 113.327 223.313 113.265 223.489 113.27C223.666 113.275 223.834 113.346 223.96 113.47C224.029 113.537 224.083 113.618 224.119 113.708C224.155 113.797 224.172 113.893 224.169 113.989C224.167 114.086 224.144 114.18 224.103 114.268C224.062 114.355 224.003 114.433 223.931 114.496C223.858 114.56 223.774 114.607 223.682 114.637C223.59 114.666 223.493 114.676 223.397 114.666C223.301 114.656 223.209 114.626 223.125 114.579C223.041 114.531 222.968 114.467 222.91 114.39ZM223.8 113.61C223.731 113.541 223.644 113.494 223.549 113.475C223.454 113.455 223.355 113.465 223.265 113.502C223.176 113.539 223.099 113.602 223.045 113.682C222.991 113.763 222.962 113.858 222.962 113.955C222.962 114.052 222.991 114.147 223.045 114.228C223.099 114.308 223.176 114.371 223.265 114.408C223.355 114.445 223.454 114.454 223.549 114.435C223.644 114.416 223.731 114.369 223.8 114.3C223.891 114.208 223.942 114.084 223.942 113.955C223.942 113.826 223.891 113.702 223.8 113.61Z" fill="#1F264C"/>
<path d="M180.761 103.84C180.659 103.72 180.595 103.573 180.576 103.416C180.557 103.26 180.585 103.101 180.656 102.961C180.727 102.82 180.838 102.704 180.975 102.626C181.112 102.548 181.269 102.512 181.426 102.523C181.583 102.534 181.734 102.592 181.859 102.688C181.983 102.784 182.077 102.915 182.128 103.064C182.178 103.213 182.184 103.374 182.144 103.526C182.103 103.679 182.019 103.815 181.901 103.92C181.739 104.06 181.528 104.13 181.315 104.115C181.101 104.1 180.902 104.001 180.761 103.84ZM181.821 102.91C181.707 102.799 181.555 102.738 181.396 102.738C181.237 102.738 181.085 102.799 180.971 102.91C180.863 103.018 180.8 103.163 180.795 103.315C180.79 103.467 180.843 103.616 180.944 103.731C181.045 103.845 181.185 103.917 181.337 103.932C181.489 103.947 181.64 103.903 181.761 103.81C181.828 103.757 181.882 103.691 181.922 103.616C181.961 103.541 181.984 103.458 181.99 103.373C181.996 103.289 181.983 103.204 181.954 103.124C181.925 103.044 181.88 102.971 181.821 102.91Z" fill="#1F264C"/>
<path d="M217.06 84.4392C216.982 84.3777 216.919 84.2998 216.874 84.2111C216.829 84.1223 216.804 84.0247 216.801 83.9253C216.798 83.8259 216.817 83.7271 216.856 83.6357C216.896 83.5444 216.954 83.4628 217.029 83.3967C217.103 83.3305 217.191 83.2815 217.286 83.2531C217.381 83.2246 217.482 83.2174 217.58 83.2319C217.679 83.2465 217.773 83.2824 217.856 83.3372C217.939 83.392 218.009 83.4644 218.06 83.5492C218.127 83.6162 218.179 83.6965 218.213 83.7851C218.246 83.8736 218.261 83.9682 218.255 84.0626C218.249 84.1571 218.224 84.2493 218.18 84.3332C218.136 84.4171 218.075 84.4907 218 84.5492C217.86 84.6565 217.684 84.7051 217.508 84.6845C217.333 84.664 217.172 84.576 217.06 84.4392ZM217.92 83.6792C217.855 83.6128 217.771 83.5674 217.68 83.5487C217.589 83.53 217.494 83.5389 217.407 83.5743C217.321 83.6097 217.247 83.6699 217.195 83.7474C217.144 83.8248 217.116 83.9159 217.116 84.0092C217.116 84.1024 217.144 84.1935 217.195 84.271C217.247 84.3484 217.321 84.4086 217.407 84.444C217.494 84.4794 217.589 84.4883 217.68 84.4697C217.771 84.451 217.855 84.4056 217.92 84.3392C218.007 84.2512 218.056 84.1327 218.056 84.0092C218.056 83.8857 218.007 83.7671 217.92 83.6792Z" fill="#1F264C"/>
<path d="M218.34 91.1688C218.265 91.1065 218.204 91.0287 218.162 90.9408C218.119 90.8528 218.096 90.7567 218.094 90.659C218.092 90.5613 218.111 90.4643 218.15 90.3747C218.189 90.285 218.246 90.2048 218.319 90.1394C218.391 90.074 218.477 90.0251 218.571 89.9959C218.664 89.9667 218.762 89.958 218.859 89.9702C218.956 89.9825 219.049 90.0155 219.132 90.0671C219.215 90.1186 219.286 90.1874 219.34 90.2688C219.404 90.3379 219.453 90.4192 219.484 90.5078C219.515 90.5963 219.527 90.6903 219.521 90.7839C219.514 90.8775 219.488 90.9688 219.445 91.0521C219.402 91.1355 219.343 91.2092 219.27 91.2688C219.133 91.3767 218.959 91.4266 218.785 91.4079C218.611 91.3893 218.452 91.3034 218.34 91.1688ZM219.2 90.4088C219.162 90.3554 219.113 90.3106 219.056 90.2774C218.999 90.2441 218.936 90.2232 218.871 90.2158C218.806 90.2085 218.739 90.215 218.677 90.2348C218.614 90.2547 218.556 90.2875 218.507 90.3311C218.458 90.3747 218.418 90.4281 218.391 90.488C218.364 90.5478 218.349 90.6127 218.349 90.6785C218.348 90.7442 218.361 90.8094 218.387 90.8697C218.413 90.9301 218.452 90.9843 218.5 91.0288C218.586 91.1076 218.698 91.1518 218.814 91.1529C218.93 91.154 219.043 91.1119 219.13 91.0347C219.217 90.9576 219.273 90.8509 219.286 90.7353C219.299 90.6196 219.268 90.5033 219.2 90.4088Z" fill="#1F264C"/>
<path d="M229.482 102.999C229.356 102.849 229.276 102.665 229.253 102.469C229.23 102.274 229.265 102.077 229.354 101.901C229.443 101.726 229.582 101.581 229.753 101.484C229.924 101.387 230.12 101.342 230.316 101.356C230.512 101.37 230.7 101.441 230.856 101.561C231.011 101.681 231.129 101.844 231.192 102.03C231.256 102.216 231.263 102.416 231.214 102.607C231.164 102.797 231.059 102.968 230.912 103.099C230.813 103.188 230.696 103.256 230.57 103.3C230.443 103.343 230.31 103.36 230.176 103.351C230.043 103.342 229.913 103.306 229.794 103.245C229.675 103.185 229.569 103.101 229.482 102.999ZM230.852 101.809C230.796 101.705 230.718 101.615 230.622 101.545C230.527 101.475 230.418 101.427 230.302 101.405C230.186 101.382 230.066 101.385 229.951 101.415C229.837 101.444 229.73 101.498 229.639 101.573C229.548 101.648 229.475 101.743 229.425 101.85C229.374 101.957 229.349 102.074 229.349 102.192C229.349 102.31 229.376 102.427 229.426 102.533C229.477 102.64 229.551 102.734 229.642 102.809C229.699 102.913 229.777 103.003 229.873 103.073C229.968 103.143 230.077 103.191 230.193 103.214C230.309 103.236 230.429 103.233 230.543 103.204C230.658 103.175 230.765 103.12 230.856 103.045C230.947 102.97 231.02 102.875 231.07 102.768C231.121 102.661 231.146 102.545 231.146 102.426C231.146 102.308 231.119 102.192 231.069 102.085C231.018 101.978 230.944 101.884 230.852 101.809Z" fill="#1F264C"/>
<path d="M155.78 153.71C157.22 150.53 160.86 148.84 164.35 148.59C167.84 148.34 171.28 149.25 174.72 149.87C178.16 150.49 181.82 150.87 185.05 149.49C191.05 147 193.45 139.9 198.05 135.33C199.214 134.173 200.517 133.165 201.93 132.33C213.93 125.39 231.01 125.88 240.77 136.07C242.15 137.29 242.05 139.81 240.51 140.5C237.18 142.22 232.97 140.21 229.39 141.84C228.987 142.043 228.642 142.346 228.39 142.72C227.76 150.42 222.15 154.4 215.19 149.93C214.437 149.754 213.663 149.683 212.89 149.72C211.62 149.816 210.399 150.248 209.35 150.97C208.281 151.708 207.324 152.597 206.51 153.61C204.88 155.61 203.59 157.86 201.72 159.61C196.63 164.42 188.66 164.27 181.78 162.92C174.9 161.57 167.85 159.32 161.04 160.92C158.86 161.44 156.72 162.36 154.47 162.29C152.22 162.22 149.79 160.68 149.75 158.43L151.15 157.4" fill="#33CC99"/>
<path d="M176.863 150.461L176.953 150.271C187.953 155.611 197.403 148.271 206.553 141.141L208.923 139.321C213.288 136.101 218.698 134.625 224.093 135.181C226.684 135.385 229.232 135.954 231.663 136.871L231.583 137.061C231.453 137.011 218.973 131.891 209.053 139.481L206.683 141.311C197.473 148.461 187.953 155.861 176.863 150.461Z" fill="#1F264C"/>
<path d="M183.582 120C185.732 115.23 189.582 111 194.672 109.67C199.762 108.34 205.872 110.93 207.452 115.91C210.372 111.43 213.452 106.75 218.242 104.3C223.032 101.85 229.862 102.61 232.392 107.3C232.893 108.308 233.167 109.412 233.197 110.537C233.226 111.661 233.009 112.778 232.562 113.81C232.141 114.875 231.506 115.842 230.696 116.65C229.885 117.459 228.917 118.092 227.852 118.51C228.752 116.86 231.082 117.45 232.042 118.67C232.318 119.041 232.512 119.467 232.61 119.919C232.709 120.371 232.709 120.838 232.612 121.29C232.39 122.228 231.926 123.091 231.266 123.793C230.607 124.495 229.774 125.011 228.852 125.29C224.292 126.12 219.222 124.92 215.852 128.9C210.852 135.08 205.852 140.85 199.442 145.5C198.442 146.31 197.442 147.1 196.352 147.86C195.262 148.62 194.232 149.35 193.142 150.05C190.222 151.91 187.012 153.6 183.552 153.67C179.432 153.77 175.422 151.56 171.342 152.16C164.872 153.1 160.412 160.73 153.882 160.33C149.162 160.04 146.012 154.94 146.372 150.51C146.882 144.21 153.452 141.08 158.982 140.12C164.212 139.22 169.462 140.07 174.222 137.01C175.792 135.998 177.132 134.666 178.152 133.1C180.752 129.23 181.662 124.26 183.582 120Z" fill="#33CC99"/>
<path d="M157.062 151.64C157.113 151.57 163.062 144.79 179.322 144.08C190.952 143.58 198.433 133.93 203.893 126.88C206.113 124.02 208.032 121.54 209.762 120.27C215.712 115.95 225.333 116.21 225.423 116.21V116.42C225.323 116.42 215.773 116.16 209.893 120.42C208.173 121.67 206.262 124.14 204.052 126.99C198.572 134.07 191.052 143.77 179.332 144.27C163.152 144.98 157.273 151.68 157.223 151.75L157.062 151.64Z" fill="#1F264C"/>
<path d="M179.363 144.29L179.293 144.09C187.733 141.39 191.523 133.93 193.223 128.15C194.351 124.233 194.913 120.175 194.893 116.1H195.153C195.161 120.199 194.592 124.279 193.463 128.22C191.713 134 187.883 141.57 179.363 144.29Z" fill="#1F264C"/>
<path d="M205.812 124.43C207.556 122.847 209.619 121.656 211.861 120.937C214.103 120.218 216.474 119.987 218.812 120.26C220.956 120.487 223.04 121.103 224.962 122.08L224.852 122.26C222.954 121.299 220.898 120.689 218.783 120.46C216.472 120.194 214.131 120.426 211.916 121.138C209.702 121.85 207.665 123.027 205.942 124.59L205.812 124.43Z" fill="#1F264C"/>
<path d="M176.441 144.489L176.371 144.289C184.141 141.389 186.731 136.599 187.521 133.099C188.047 130.79 188.003 128.387 187.391 126.099L187.591 126.029C188.204 128.347 188.252 130.779 187.731 133.119C186.921 136.699 184.311 141.549 176.441 144.489Z" fill="#1F264C"/>
<path d="M205.57 142.169L205.5 141.969C212.57 139.489 216.87 140.499 219.24 141.799C220.731 142.561 221.95 143.766 222.73 145.249L222.53 145.329C221.762 143.905 220.585 142.745 219.15 141.999C216.79 140.709 212.55 139.719 205.57 142.169Z" fill="#1F264C"/>
<path d="M194.773 114.279C194.702 114.123 194.679 113.949 194.707 113.78C194.735 113.61 194.812 113.453 194.929 113.327C195.046 113.202 195.198 113.114 195.365 113.074C195.532 113.035 195.707 113.045 195.868 113.105C196.029 113.165 196.168 113.271 196.269 113.41C196.37 113.548 196.428 113.714 196.435 113.886C196.442 114.057 196.398 114.227 196.308 114.373C196.219 114.52 196.088 114.637 195.933 114.709C195.722 114.805 195.482 114.813 195.264 114.733C195.047 114.652 194.871 114.489 194.773 114.279ZM196.173 113.649C196.119 113.53 196.032 113.429 195.921 113.36C195.811 113.29 195.682 113.255 195.551 113.259C195.42 113.262 195.294 113.305 195.187 113.381C195.081 113.456 194.999 113.562 194.953 113.684C194.907 113.807 194.897 113.94 194.927 114.067C194.956 114.194 195.023 114.31 195.118 114.4C195.214 114.489 195.333 114.548 195.462 114.57C195.591 114.591 195.724 114.573 195.843 114.519C195.998 114.444 196.117 114.31 196.175 114.148C196.233 113.985 196.225 113.806 196.153 113.649H196.173Z" fill="#1F264C"/>
<path d="M223.15 146.791C223.075 146.621 223.07 146.428 223.135 146.254C223.201 146.08 223.332 145.939 223.5 145.861C223.669 145.786 223.86 145.781 224.032 145.847C224.204 145.912 224.344 146.043 224.42 146.211C224.459 146.294 224.481 146.384 224.485 146.476C224.489 146.568 224.474 146.66 224.443 146.746C224.411 146.832 224.363 146.912 224.301 146.979C224.239 147.047 224.164 147.102 224.08 147.141C223.91 147.215 223.718 147.221 223.544 147.155C223.37 147.09 223.229 146.959 223.15 146.791ZM224.23 146.301C224.205 146.242 224.169 146.188 224.123 146.144C224.077 146.099 224.022 146.064 223.963 146.041C223.903 146.017 223.839 146.006 223.775 146.008C223.711 146.01 223.648 146.024 223.59 146.051C223.472 146.105 223.38 146.204 223.333 146.325C223.287 146.446 223.289 146.581 223.34 146.701C223.4 146.807 223.498 146.887 223.614 146.925C223.73 146.963 223.856 146.956 223.967 146.906C224.079 146.856 224.167 146.766 224.216 146.654C224.265 146.542 224.27 146.416 224.23 146.301Z" fill="#1F264C"/>
<path d="M185.89 124.491C185.825 124.345 185.805 124.183 185.832 124.025C185.859 123.867 185.932 123.72 186.043 123.604C186.153 123.488 186.295 123.407 186.451 123.372C186.607 123.336 186.771 123.348 186.92 123.405C187.07 123.463 187.199 123.563 187.291 123.694C187.384 123.824 187.436 123.98 187.44 124.14C187.444 124.3 187.401 124.458 187.316 124.593C187.23 124.729 187.107 124.836 186.96 124.901C186.764 124.986 186.542 124.991 186.342 124.914C186.142 124.838 185.98 124.686 185.89 124.491ZM187.17 123.911C187.121 123.803 187.041 123.711 186.94 123.649C186.838 123.586 186.721 123.555 186.602 123.559C186.483 123.564 186.368 123.603 186.271 123.673C186.175 123.743 186.102 123.84 186.061 123.952C186.02 124.064 186.013 124.185 186.041 124.301C186.069 124.417 186.131 124.521 186.219 124.602C186.307 124.682 186.417 124.734 186.535 124.752C186.652 124.77 186.773 124.752 186.88 124.701C186.95 124.667 187.012 124.62 187.064 124.561C187.115 124.503 187.154 124.436 187.179 124.362C187.204 124.289 187.215 124.211 187.21 124.134C187.205 124.056 187.185 123.981 187.15 123.911H187.17Z" fill="#1F264C"/>
<path d="M226.261 116.419C226.186 116.256 226.179 116.07 226.241 115.901C226.303 115.733 226.429 115.595 226.591 115.519C226.673 115.483 226.761 115.462 226.85 115.459C226.939 115.457 227.028 115.471 227.112 115.503C227.195 115.534 227.272 115.582 227.337 115.643C227.402 115.704 227.455 115.778 227.491 115.859C227.528 115.941 227.548 116.029 227.551 116.118C227.554 116.207 227.539 116.296 227.508 116.38C227.476 116.463 227.428 116.54 227.367 116.605C227.306 116.67 227.233 116.723 227.151 116.759C227.071 116.796 226.983 116.816 226.895 116.819C226.806 116.822 226.718 116.807 226.635 116.775C226.553 116.743 226.477 116.696 226.413 116.635C226.349 116.574 226.297 116.5 226.261 116.419ZM227.261 115.949C227.237 115.893 227.201 115.842 227.156 115.8C227.111 115.757 227.058 115.724 227 115.703C226.942 115.681 226.881 115.672 226.819 115.675C226.757 115.677 226.697 115.693 226.641 115.719C226.586 115.745 226.537 115.781 226.495 115.826C226.454 115.871 226.422 115.923 226.401 115.98C226.381 116.037 226.371 116.098 226.374 116.159C226.376 116.219 226.391 116.279 226.416 116.334C226.442 116.389 226.478 116.439 226.523 116.48C226.568 116.521 226.62 116.553 226.677 116.574C226.734 116.595 226.795 116.604 226.856 116.602C226.917 116.599 226.976 116.585 227.031 116.559C227.137 116.515 227.222 116.433 227.272 116.33C227.322 116.227 227.332 116.109 227.301 115.999L227.261 115.949Z" fill="#1F264C"/>
<path d="M225.533 123.229C225.478 123.107 225.46 122.97 225.482 122.838C225.504 122.705 225.565 122.582 225.657 122.484C225.749 122.386 225.868 122.317 225.999 122.287C226.13 122.257 226.267 122.266 226.393 122.313C226.519 122.361 226.628 122.445 226.706 122.554C226.784 122.663 226.828 122.794 226.832 122.928C226.837 123.062 226.801 123.195 226.73 123.309C226.659 123.423 226.555 123.514 226.433 123.569C226.268 123.641 226.082 123.645 225.914 123.582C225.746 123.518 225.609 123.392 225.533 123.229ZM226.583 122.759C226.558 122.703 226.522 122.652 226.477 122.609C226.432 122.567 226.379 122.534 226.322 122.513C226.264 122.491 226.202 122.482 226.141 122.484C226.079 122.487 226.018 122.502 225.963 122.529C225.908 122.554 225.858 122.59 225.817 122.634C225.775 122.678 225.743 122.73 225.721 122.787C225.7 122.843 225.69 122.903 225.692 122.964C225.694 123.024 225.708 123.084 225.733 123.139C225.758 123.194 225.793 123.244 225.837 123.285C225.882 123.327 225.934 123.359 225.99 123.38C226.047 123.402 226.107 123.412 226.168 123.41C226.228 123.408 226.288 123.394 226.343 123.369C226.399 123.345 226.45 123.31 226.492 123.267C226.535 123.223 226.568 123.171 226.591 123.114C226.613 123.058 226.624 122.997 226.622 122.936C226.621 122.875 226.608 122.815 226.583 122.759Z" fill="#1F264C"/>
<path d="M232.793 137.749C232.713 137.569 232.688 137.369 232.721 137.175C232.755 136.981 232.844 136.801 232.979 136.658C233.114 136.515 233.288 136.415 233.48 136.37C233.672 136.325 233.872 136.338 234.057 136.407C234.241 136.476 234.401 136.597 234.517 136.757C234.632 136.916 234.698 137.106 234.706 137.302C234.714 137.499 234.664 137.694 234.562 137.862C234.46 138.03 234.311 138.165 234.133 138.249C234.012 138.305 233.881 138.337 233.748 138.343C233.615 138.348 233.482 138.327 233.357 138.281C233.233 138.234 233.118 138.163 233.021 138.072C232.924 137.98 232.847 137.87 232.793 137.749ZM234.443 136.989C234.353 136.797 234.192 136.647 233.994 136.572C233.796 136.498 233.577 136.504 233.383 136.589C233.19 136.68 233.04 136.843 232.966 137.043C232.891 137.242 232.897 137.463 232.983 137.659C233.072 137.851 233.233 138 233.431 138.075C233.629 138.15 233.849 138.144 234.043 138.059C234.139 138.015 234.225 137.954 234.297 137.877C234.369 137.8 234.425 137.71 234.463 137.612C234.5 137.513 234.517 137.408 234.514 137.303C234.51 137.198 234.486 137.094 234.443 136.999V136.989Z" fill="#1F264C"/>
<path d="M18.0415 147.19C17.8044 147.746 17.6918 148.346 17.7115 148.95C17.7525 149.484 17.9243 149.999 18.2115 150.45C17.5394 150.119 16.9892 149.583 16.639 148.921C16.2889 148.258 16.1568 147.502 16.2615 146.76C16.5315 145.66 17.5015 145.22 17.8515 145.58C18.0019 145.817 18.0971 146.085 18.13 146.364C18.1629 146.642 18.1327 146.925 18.0415 147.19Z" fill="#1D3B4C"/>
<path d="M23.4327 149.77C23.205 150.328 23.096 150.928 23.1127 151.53C23.1523 152.063 23.3205 152.577 23.6027 153.03C23.0692 152.766 22.6116 152.37 22.2727 151.88C21.7413 151.148 21.522 150.234 21.6627 149.34C21.9327 148.24 22.9027 147.8 23.2527 148.16C23.4043 148.397 23.4994 148.665 23.5306 148.944C23.5618 149.223 23.5283 149.506 23.4327 149.77Z" fill="#1D3B4C"/>
<path d="M28.8696 152.89C28.6325 153.446 28.5199 154.046 28.5396 154.65C28.5782 155.184 28.7501 155.7 29.0396 156.15C28.3676 155.819 27.8173 155.283 27.4672 154.621C27.117 153.958 26.9849 153.202 27.0896 152.46C27.3596 151.37 28.3296 150.92 28.6796 151.28C28.8301 151.517 28.9253 151.785 28.9582 152.063C28.991 152.342 28.9608 152.625 28.8696 152.89Z" fill="#1D3B4C"/>
<path d="M15.8299 152.27C16.0684 151.771 16.4091 151.328 16.8299 150.97C17.2186 150.678 17.671 150.482 18.1499 150.4C17.643 150.182 17.0875 150.103 16.5399 150.17C16.1289 150.206 15.7294 150.325 15.3652 150.519C15.001 150.714 14.6796 150.979 14.4199 151.3C13.8199 152.15 14.0999 153.1 14.5699 153.12C15.0399 153.14 15.5099 152.7 15.8299 152.27Z" fill="#1D3B4C"/>
<path d="M21.4498 154.931C21.6883 154.433 22.029 153.99 22.4498 153.631C22.8429 153.334 23.3031 153.138 23.7898 153.061C23.1513 152.797 22.4454 152.742 21.7735 152.903C21.1016 153.065 20.4981 153.435 20.0498 153.961C19.4498 154.811 19.7398 155.761 20.1998 155.781C20.6598 155.801 21.1498 155.361 21.4498 154.931Z" fill="#1D3B4C"/>
<path d="M12.5614 147.001C12.5281 147.356 12.5724 147.714 12.6914 148.051C12.8056 148.348 12.9951 148.61 13.2414 148.811C12.876 148.772 12.5292 148.629 12.2414 148.401C12.0273 148.245 11.8463 148.048 11.7089 147.821C11.5716 147.594 11.4807 147.343 11.4414 147.081C11.4414 146.411 11.8714 145.981 12.1314 146.081C12.3914 146.181 12.5314 146.671 12.5614 147.001Z" fill="#1D3B4C"/>
<path d="M11.3804 149.55C11.5984 149.268 11.8747 149.036 12.1904 148.87C12.4757 148.73 12.7932 148.668 13.1104 148.69C12.8176 148.479 12.471 148.354 12.1104 148.33C11.8482 148.299 11.5824 148.32 11.3284 148.392C11.0744 148.464 10.8372 148.586 10.6304 148.75C10.1404 149.21 10.1904 149.85 10.4804 149.92C10.7704 149.99 11.1504 149.77 11.3804 149.55Z" fill="#1D3B4C"/>
<path d="M26.8305 126.12C32.1113 136.918 35.5262 148.533 36.9305 160.47L37.6005 160.53C36.0803 148.635 32.5963 137.075 27.2905 126.32C26.0805 123.91 24.7905 121.06 22.1705 119.9C22.1205 119.9 22.0905 119.96 22.1705 119.98C24.5205 121.17 25.6905 123.86 26.8305 126.12Z" fill="#1D3B4C"/>
<path d="M35.6628 160.339C29.3875 149.616 21.6047 139.85 12.5528 131.339C12.4628 131.249 12.3128 131.409 12.4028 131.499C21.2596 139.961 28.866 149.642 34.9928 160.249L35.6628 160.339Z" fill="#1D3B4C"/>
<path d="M26.8719 120.001C26.39 120.433 26.0078 120.966 25.7519 121.561C25.5405 122.101 25.4716 122.686 25.5519 123.261C25.1444 122.759 24.8754 122.159 24.7719 121.521C24.6781 121.046 24.6803 120.557 24.7781 120.083C24.876 119.609 25.0677 119.16 25.3419 118.761C26.1019 117.761 27.2619 117.821 27.4319 118.341C27.6019 118.861 27.2519 119.501 26.8719 120.001Z" fill="#1D3B4C"/>
<path d="M24.5015 128.57C25.0135 128.169 25.6076 127.885 26.2415 127.74C26.8083 127.632 27.3933 127.67 27.9415 127.85C27.5164 127.362 26.9769 126.987 26.3715 126.76C25.9235 126.585 25.4452 126.501 24.9644 126.513C24.4837 126.525 24.0102 126.633 23.5715 126.83C22.5015 127.41 22.3015 128.55 22.7815 128.83C23.0693 128.919 23.3734 128.941 23.6712 128.896C23.9691 128.851 24.2529 128.74 24.5015 128.57Z" fill="#1D3B4C"/>
<path d="M26.3609 132.611C26.874 132.213 27.4679 131.934 28.1009 131.791C28.6677 131.683 29.2526 131.721 29.8009 131.901C29.2726 131.292 28.5645 130.867 27.779 130.688C26.9935 130.508 26.1712 130.582 25.4309 130.901C24.3609 131.481 24.1609 132.631 24.6409 132.901C25.1209 133.171 25.8009 132.891 26.3609 132.611Z" fill="#1D3B4C"/>
<path d="M17.4497 140.66C17.963 140.26 18.5566 139.977 19.1897 139.83C19.7532 139.721 20.335 139.759 20.8797 139.94C20.4634 139.449 19.9254 139.077 19.3197 138.86C18.8729 138.681 18.3947 138.594 17.9136 138.604C17.4325 138.615 16.9585 138.722 16.5197 138.92C15.4497 139.5 15.2497 140.64 15.7197 140.92C16.1897 141.2 16.8797 140.94 17.4497 140.66Z" fill="#1D3B4C"/>
<path d="M13.7232 136.619C14.2351 136.22 14.8295 135.94 15.4632 135.799C16.026 135.69 16.6071 135.725 17.1532 135.899C16.7368 135.408 16.1988 135.036 15.5932 134.819C15.1459 134.643 14.6679 134.557 14.1871 134.567C13.7064 134.578 13.2325 134.684 12.7932 134.879C11.7232 135.459 11.5232 136.609 11.9932 136.879C12.4632 137.149 13.1532 136.899 13.7232 136.619Z" fill="#1D3B4C"/>
<path d="M29.5796 124.64C29.0344 124.988 28.5732 125.453 28.2296 126C27.9337 126.497 27.7717 127.062 27.7596 127.64C27.4372 127.08 27.265 126.447 27.2596 125.8C27.2444 125.316 27.3248 124.834 27.4964 124.381C27.668 123.928 27.9274 123.513 28.2596 123.16C29.1596 122.34 30.2596 122.54 30.3896 123.08C30.5196 123.62 30.0296 124.2 29.5796 124.64Z" fill="#1D3B4C"/>
<path d="M32.4525 129.309C31.7514 129.463 31.1071 129.809 30.5925 130.309C30.169 130.775 29.9032 131.363 29.8325 131.989C29.5048 131.254 29.3574 130.452 29.4025 129.649C29.3972 129.11 29.5375 128.579 29.8085 128.113C30.0795 127.646 30.4713 127.262 30.9425 126.999C32.1625 126.459 33.5825 127.199 33.6325 127.849C33.6825 128.499 33.0625 128.999 32.4525 129.309Z" fill="#1D3B4C"/>
<path d="M35.2609 136.221C34.5485 136.249 33.8571 136.47 33.2609 136.861C32.7765 137.254 32.4269 137.789 32.2609 138.391C32.0693 137.609 32.0693 136.792 32.2609 136.011C32.3673 135.49 32.6078 135.005 32.9585 134.605C33.3092 134.206 33.7581 133.904 34.2609 133.731C35.5609 133.401 36.8309 134.371 36.7809 135.031C36.7309 135.691 35.9209 136.001 35.2609 136.221Z" fill="#1D3B4C"/>
<path d="M24.5011 139.75C23.9455 139.908 23.444 140.216 23.0511 140.64C22.7281 141.04 22.5455 141.535 22.5311 142.05C22.2158 141.473 22.0475 140.827 22.0411 140.17C22.0237 139.743 22.1167 139.319 22.3112 138.939C22.5056 138.559 22.795 138.235 23.1511 138C24.1511 137.49 25.3111 138 25.3911 138.54C25.4711 139.08 24.9911 139.46 24.5011 139.75Z" fill="#1D3B4C"/>
<path d="M20.9901 120.999C21.278 120.741 21.6195 120.549 21.9901 120.439C22.3176 120.35 22.6626 120.35 22.9901 120.439C22.7211 120.151 22.3732 119.949 21.9901 119.859C21.4405 119.693 20.8476 119.75 20.3401 120.019C19.7301 120.409 19.6601 121.099 19.9501 121.239C20.2401 121.379 20.6701 121.149 20.9901 120.999Z" fill="#1D3B4C"/>
<path d="M22.5208 118.299C22.4205 118.67 22.3967 119.058 22.4508 119.439C22.5212 119.777 22.6722 120.092 22.8908 120.359C22.5279 120.235 22.2039 120.018 21.9508 119.729C21.7535 119.522 21.5997 119.277 21.4984 119.009C21.3971 118.741 21.3503 118.455 21.3608 118.169C21.4508 117.449 22.0308 117.089 22.2808 117.289C22.5308 117.489 22.5508 117.929 22.5208 118.299Z" fill="#1D3B4C"/>
<path d="M11.1507 132.63C11.4391 132.373 11.7804 132.182 12.1507 132.07C12.4787 131.986 12.8228 131.986 13.1507 132.07C12.8782 131.787 12.5318 131.586 12.1507 131.49C11.5977 131.326 11.0023 131.383 10.4907 131.65C9.89075 132.04 9.82075 132.73 10.1107 132.87C10.4007 133.01 10.8207 132.82 11.1507 132.63Z" fill="#1D3B4C"/>
<path d="M12.9322 130C12.7954 130.363 12.7407 130.753 12.7722 131.14C12.8074 131.479 12.9316 131.804 13.1322 132.08C12.7784 131.93 12.471 131.688 12.2422 131.38C11.8868 130.927 11.7251 130.352 11.7922 129.78C11.9322 129.07 12.5422 128.78 12.7922 128.98C12.8918 129.128 12.9562 129.297 12.9805 129.474C13.0047 129.65 12.9882 129.83 12.9322 130Z" fill="#1D3B4C"/>
<path d="M12.1532 148.54C13.9171 148.884 15.6497 149.372 17.3332 150C20.4068 151.209 23.3823 152.653 26.2332 154.32C27.6432 155.12 29.0732 155.9 30.4532 156.76C31.1041 157.145 31.7288 157.573 32.3232 158.04C33.0793 158.703 33.7908 159.414 34.4532 160.17L33.7632 160.12C32.4691 158.797 31.0223 157.632 29.4532 156.65C24.0332 153.33 18.3932 149.91 12.1132 148.57C12.0732 148.58 12.0832 148.53 12.1532 148.54Z" fill="#1D3B4C"/>
<path d="M85.2104 157.081C84.2104 153.711 80.9104 151.501 77.5004 150.741C74.0904 149.981 70.5004 150.371 67.0504 150.481C63.6004 150.591 59.8804 150.381 56.8904 148.571C51.3304 145.231 50.0004 137.851 46.1204 132.651C45.1357 131.351 43.9937 130.179 42.7204 129.161C31.9004 120.521 14.9104 118.481 3.72041 127.161C2.17041 128.161 1.89041 130.671 3.31041 131.591C6.36041 133.781 10.8104 132.411 14.1204 134.591C14.498 134.845 14.8071 135.188 15.0204 135.591C14.5004 143.291 19.4604 148.051 27.0204 144.671C27.7927 144.605 28.5704 144.649 29.3304 144.801C30.5732 145.075 31.7176 145.684 32.6404 146.561C33.5904 147.436 34.4058 148.447 35.0604 149.561C36.3904 151.751 37.3304 154.191 38.9104 156.211C43.2604 161.701 51.1504 162.731 58.1504 162.411C65.1504 162.091 72.4504 160.901 78.9504 163.521C81.0304 164.361 83.0104 165.591 85.2404 165.841C87.4704 166.091 90.1104 164.941 90.4904 162.731L89.1904 161.401" fill="#66C698"/>
<path d="M64.8423 150.74L64.7823 150.54C53.1423 154.21 44.8623 145.54 36.8523 137.15L34.7823 135C30.9416 131.171 25.81 128.914 20.3923 128.67C17.7993 128.487 15.1935 128.672 12.6523 129.22L12.7123 129.43C12.8423 129.43 25.9423 126.17 34.6323 135.14L36.7023 137.3C44.7523 145.73 53.0823 154.45 64.8423 150.74Z" fill="#1F264C"/>
<path d="M62.6997 119.6C61.2797 114.6 58.0797 109.76 53.2597 107.74C48.4397 105.72 41.9997 107.34 39.6897 112.03C37.4797 107.16 35.0797 102.03 30.7397 98.9502C26.3997 95.8702 19.4997 95.5702 16.2997 99.8602C15.6508 100.779 15.2114 101.83 15.0127 102.937C14.814 104.045 14.8608 105.183 15.1497 106.27C15.4125 107.388 15.9034 108.439 16.5918 109.358C17.2801 110.277 18.151 111.044 19.1497 111.61C18.4997 109.85 16.1497 110.09 14.9797 111.15C14.6449 111.474 14.3826 111.865 14.2102 112.298C14.0378 112.731 13.9593 113.195 13.9797 113.66C14.0676 114.62 14.407 115.539 14.9635 116.326C15.5201 117.112 16.2742 117.738 17.1497 118.14C21.5397 119.63 26.7297 119.2 29.4397 123.63C33.4997 130.49 37.5897 136.93 43.2097 142.47C44.0997 143.42 44.9997 144.35 45.9297 145.26C46.8597 146.17 47.8097 147.05 48.7797 147.9C51.3897 150.17 54.3197 152.31 57.7297 152.9C61.7897 153.6 66.0797 152.02 70.0297 153.21C76.2897 155.09 79.5698 163.3 86.0898 163.87C90.7998 164.28 94.6697 159.7 94.9697 155.27C95.3897 148.96 89.3597 144.9 84.0297 143.13C79.0297 141.46 73.6797 141.53 69.4097 137.8C68.0285 136.573 66.9183 135.071 66.1497 133.39C64.1497 129.18 63.9697 124.12 62.6997 119.6Z" fill="#66C698"/>
<path d="M84.2611 154.829C84.2611 154.759 79.3411 147.179 63.3511 144.079C51.9211 141.859 45.9611 131.209 41.6011 123.439C39.8211 120.269 38.2911 117.539 36.7611 116.029C31.5211 110.869 21.9711 109.709 21.8711 109.699V109.909C21.9611 109.909 31.4411 111.069 36.6311 116.179C38.1411 117.669 39.6311 120.389 41.4311 123.539C45.8111 131.349 51.8111 142.049 63.3311 144.279C79.2311 147.369 84.0511 154.869 84.1011 154.949L84.2611 154.829Z" fill="#1F264C"/>
<path d="M63.2931 144.28L63.3831 144.09C55.4331 140.17 52.7831 132.23 51.9631 126.26C51.4325 122.221 51.4729 118.127 52.0831 114.1H51.8731C51.2572 118.15 51.2168 122.268 51.7531 126.33C52.5831 132.31 55.2531 140.32 63.2931 144.28Z" fill="#1F264C"/>
<path d="M40.0509 120.72C38.5531 118.906 36.6857 117.433 34.5733 116.398C32.4608 115.363 30.152 114.791 27.8009 114.72C25.6505 114.632 23.5021 114.937 21.4609 115.62L21.5309 115.81C23.5509 115.142 25.6755 114.847 27.8009 114.94C30.1277 115.018 32.4107 115.595 34.4961 116.63C36.5816 117.665 38.4211 119.134 39.8909 120.94L40.0509 120.72Z" fill="#1F264C"/>
<path d="M66.1507 144.9L66.2507 144.72C58.9907 140.72 57.1407 135.59 56.8707 132C56.6968 129.645 57.0983 127.284 58.0407 125.12L57.8507 125.02C56.8938 127.222 56.4855 129.624 56.6607 132.02C56.9207 135.65 58.7907 140.83 66.1507 144.9Z" fill="#1F264C"/>
<path d="M37.6809 138.309L37.7709 138.119C31.1509 134.619 26.7709 134.989 24.2109 135.919C22.6075 136.445 21.2088 137.459 20.2109 138.819L20.3909 138.929C21.3659 137.62 22.7153 136.636 24.2609 136.109C26.7909 135.199 31.1509 134.849 37.6809 138.309Z" fill="#1F264C"/>
<path d="M51.2716 112.569C51.1266 112.476 51.0125 112.342 50.9436 112.185C50.8748 112.027 50.8543 111.852 50.8849 111.682C50.9154 111.513 50.9956 111.356 51.1152 111.232C51.2348 111.109 51.3886 111.023 51.5569 110.987C51.7252 110.95 51.9005 110.964 52.0607 111.028C52.2209 111.091 52.3587 111.2 52.4566 111.342C52.5546 111.484 52.6083 111.651 52.611 111.823C52.6137 111.996 52.5652 112.165 52.4716 112.309C52.4107 112.406 52.331 112.49 52.2374 112.555C52.1437 112.621 52.0379 112.667 51.9262 112.691C51.8145 112.715 51.699 112.717 51.5866 112.696C51.4742 112.675 51.3672 112.632 51.2716 112.569ZM51.3816 112.399C51.5296 112.491 51.7073 112.521 51.8771 112.483C52.0469 112.446 52.1955 112.344 52.2916 112.199C52.3485 112.127 52.3898 112.044 52.4128 111.956C52.4359 111.867 52.4402 111.774 52.4255 111.684C52.4108 111.594 52.3774 111.507 52.3275 111.43C52.2776 111.353 52.2122 111.288 52.1355 111.238C52.0588 111.187 51.9725 111.154 51.8821 111.139C51.7916 111.124 51.6991 111.128 51.6103 111.15C51.5215 111.173 51.4384 111.214 51.3663 111.271C51.2942 111.327 51.2347 111.398 51.1916 111.479C51.0963 111.627 51.0628 111.806 51.0984 111.978C51.1339 112.15 51.2356 112.301 51.3816 112.399Z" fill="#1F264C"/>
<path d="M18.603 140.48C18.4912 140.402 18.4048 140.293 18.3543 140.166C18.3038 140.039 18.2915 139.9 18.3189 139.767C18.3463 139.633 18.4122 139.51 18.5085 139.413C18.6048 139.317 18.7272 139.25 18.8608 139.222C18.9944 139.194 19.1333 139.206 19.2603 139.255C19.3874 139.305 19.4971 139.391 19.576 139.503C19.6549 139.614 19.6995 139.746 19.7043 139.882C19.7091 140.019 19.6739 140.154 19.603 140.27C19.5533 140.352 19.4873 140.423 19.4092 140.478C19.331 140.534 19.2423 140.572 19.1486 140.592C19.0548 140.612 18.958 140.612 18.8642 140.593C18.7704 140.574 18.6815 140.535 18.603 140.48ZM18.713 140.3C18.7667 140.342 18.8284 140.372 18.8942 140.388C18.9601 140.405 19.0287 140.408 19.0956 140.396C19.1626 140.385 19.2264 140.36 19.2831 140.322C19.3398 140.285 19.3881 140.236 19.4249 140.179C19.4618 140.122 19.4864 140.058 19.4972 139.991C19.508 139.924 19.5047 139.855 19.4876 139.79C19.4705 139.724 19.4399 139.663 19.3978 139.609C19.3557 139.556 19.303 139.512 19.243 139.48C19.1894 139.445 19.1294 139.422 19.0664 139.41C19.0035 139.399 18.9389 139.4 18.8765 139.414C18.814 139.428 18.755 139.455 18.7029 139.492C18.6508 139.529 18.6067 139.576 18.573 139.63C18.5043 139.738 18.4805 139.869 18.5067 139.994C18.5328 140.119 18.6069 140.229 18.713 140.3Z" fill="#1F264C"/>
<path d="M58.631 124C58.4951 123.915 58.3878 123.79 58.3229 123.643C58.258 123.496 58.2383 123.333 58.2663 123.174C58.2944 123.016 58.369 122.87 58.4805 122.754C58.5921 122.638 58.7356 122.558 58.8927 122.524C59.0499 122.49 59.2136 122.504 59.363 122.563C59.5125 122.622 59.6408 122.725 59.7318 122.858C59.8228 122.99 59.8722 123.147 59.8739 123.308C59.8755 123.468 59.8292 123.626 59.741 123.76C59.6244 123.938 59.4427 124.063 59.2351 124.108C59.0275 124.152 58.8105 124.114 58.631 124ZM58.741 123.82C58.8744 123.905 59.0355 123.935 59.1903 123.903C59.3451 123.871 59.4816 123.781 59.571 123.65C59.6365 123.551 59.6713 123.435 59.6707 123.316C59.6702 123.198 59.6344 123.082 59.568 122.983C59.5015 122.885 59.4073 122.809 59.2974 122.764C59.1874 122.719 59.0667 122.708 58.9503 122.731C58.834 122.755 58.7274 122.813 58.6439 122.897C58.5604 122.982 58.5039 123.089 58.4815 123.206C58.4591 123.323 58.4718 123.443 58.518 123.553C58.5642 123.662 58.6418 123.755 58.741 123.82Z" fill="#1F264C"/>
<path d="M20.0822 109.999C19.9339 109.901 19.8299 109.749 19.7925 109.575C19.7552 109.401 19.7874 109.22 19.8822 109.069C19.9299 108.993 19.9924 108.928 20.0658 108.877C20.1393 108.825 20.2223 108.789 20.31 108.771C20.3976 108.752 20.4881 108.751 20.5761 108.768C20.6641 108.785 20.7478 108.819 20.8222 108.869C20.9081 108.912 20.9839 108.973 21.0447 109.047C21.1055 109.121 21.1499 109.207 21.1749 109.3C21.2 109.393 21.2051 109.49 21.19 109.585C21.1749 109.679 21.14 109.77 21.0874 109.85C21.0348 109.93 20.9658 109.999 20.8849 110.05C20.8041 110.102 20.7132 110.136 20.6183 110.15C20.5233 110.164 20.4265 110.158 20.3341 110.132C20.2417 110.106 20.1559 110.061 20.0822 109.999ZM20.2022 109.829C20.2803 109.88 20.3716 109.906 20.4646 109.904C20.5575 109.903 20.6479 109.874 20.7243 109.821C20.8008 109.768 20.8598 109.694 20.894 109.607C20.9282 109.521 20.936 109.426 20.9165 109.335C20.8969 109.244 20.8508 109.161 20.7841 109.097C20.7173 109.032 20.6329 108.989 20.5415 108.972C20.4501 108.955 20.3557 108.966 20.2704 109.003C20.1851 109.04 20.1127 109.101 20.0622 109.179C20.0007 109.282 19.981 109.405 20.007 109.522C20.033 109.639 20.1029 109.742 20.2022 109.809V109.829Z" fill="#1F264C"/>
<path d="M19.79 116.829C19.641 116.729 19.5368 116.575 19.4995 116.399C19.4621 116.224 19.4946 116.041 19.59 115.889C19.6945 115.756 19.8446 115.667 20.0113 115.638C20.1779 115.61 20.3491 115.645 20.4915 115.736C20.6338 115.827 20.7371 115.968 20.7812 116.131C20.8253 116.295 20.8071 116.468 20.73 116.619C20.6822 116.694 20.6199 116.76 20.5467 116.811C20.4736 116.863 20.391 116.899 20.3036 116.919C20.2163 116.938 20.126 116.941 20.0379 116.925C19.9497 116.91 19.8655 116.877 19.79 116.829ZM19.9 116.649C20.0048 116.716 20.1321 116.74 20.254 116.713C20.3759 116.687 20.4824 116.614 20.55 116.509C20.6177 116.404 20.6409 116.277 20.6147 116.155C20.5884 116.033 20.5148 115.926 20.41 115.859C20.3582 115.825 20.3002 115.802 20.2395 115.791C20.1787 115.78 20.1164 115.781 20.056 115.794C19.9957 115.807 19.9385 115.832 19.8877 115.867C19.8369 115.902 19.7935 115.947 19.76 115.999C19.7266 116.051 19.7036 116.109 19.6925 116.169C19.6814 116.23 19.6824 116.292 19.6954 116.353C19.7084 116.413 19.7332 116.47 19.7683 116.521C19.8034 116.572 19.8482 116.615 19.9 116.649Z" fill="#1F264C"/>
<path d="M10.0127 130.21C9.84889 130.101 9.72085 129.946 9.64459 129.765C9.56834 129.583 9.54726 129.383 9.584 129.19C9.62074 128.997 9.71366 128.819 9.85113 128.678C9.98861 128.537 10.1645 128.44 10.3569 128.399C10.5492 128.358 10.7495 128.374 10.9325 128.446C11.1156 128.518 11.2733 128.643 11.386 128.804C11.4987 128.965 11.5614 129.156 11.5661 129.353C11.5709 129.549 11.5175 129.743 11.4127 129.91C11.3416 130.023 11.2487 130.12 11.1393 130.197C11.03 130.273 10.9064 130.327 10.7759 130.355C10.6455 130.383 10.5107 130.384 10.3797 130.359C10.2486 130.334 10.1238 130.284 10.0127 130.21ZM10.1527 130C10.2412 130.057 10.3403 130.097 10.4441 130.116C10.5479 130.135 10.6545 130.133 10.7577 130.111C10.8609 130.088 10.9586 130.046 11.0453 129.986C11.132 129.925 11.2059 129.849 11.2627 129.76C11.3478 129.627 11.3915 129.471 11.3885 129.313C11.3854 129.155 11.3356 129.002 11.2455 128.872C11.1553 128.742 11.0287 128.642 10.8817 128.584C10.7348 128.527 10.5739 128.514 10.4195 128.547C10.2651 128.58 10.1241 128.659 10.0141 128.772C9.90421 128.886 9.83031 129.029 9.80177 129.184C9.77323 129.34 9.79133 129.5 9.85378 129.645C9.91623 129.79 10.0202 129.914 10.1527 130Z" fill="#1F264C"/>
<path d="M194.182 44.7695H44.7719C39.608 44.7695 35.4219 48.9557 35.4219 54.1195V157.18C35.4219 162.343 39.608 166.53 44.7719 166.53H194.182C199.346 166.53 203.532 162.343 203.532 157.18V54.1195C203.532 48.9557 199.346 44.7695 194.182 44.7695Z" fill="#081330"/>
<path d="M187.201 53.5996H50.2612C47.5109 53.5996 45.2812 55.8292 45.2812 58.5796V152.73C45.2812 155.48 47.5109 157.71 50.2612 157.71H187.201C189.952 157.71 192.181 155.48 192.181 152.73V58.5796C192.181 55.8292 189.952 53.5996 187.201 53.5996Z" fill="white"/>
<path d="M196.442 107.189C197.293 107.189 197.982 106.5 197.982 105.649C197.982 104.799 197.293 104.109 196.442 104.109C195.592 104.109 194.902 104.799 194.902 105.649C194.902 106.5 195.592 107.189 196.442 107.189Z" fill="#657AC7"/>
<path d="M196.443 102.491C196.84 102.491 197.163 102.168 197.163 101.771C197.163 101.373 196.84 101.051 196.443 101.051C196.045 101.051 195.723 101.373 195.723 101.771C195.723 102.168 196.045 102.491 196.443 102.491Z" fill="#657AC7"/>
<path d="M192.151 58.5801V63.3801H45.2812V58.5801C45.2813 57.254 45.808 55.9822 46.7457 55.0445C47.6834 54.1069 48.9552 53.5801 50.2812 53.5801H187.201C188.519 53.5933 189.778 54.1258 190.704 55.0621C191.631 55.9984 192.151 57.2626 192.151 58.5801Z" fill="#5AC5DA"/>
<path d="M114.392 57H53.8423C53.0471 57 52.4023 57.6447 52.4023 58.44C52.4023 59.2353 53.0471 59.88 53.8423 59.88H114.392C115.188 59.88 115.832 59.2353 115.832 58.44C115.832 57.6447 115.188 57 114.392 57Z" fill="#D6EBF8"/>
<path opacity="0.3" d="M107.812 43.7697L115.082 56.3597C115.02 56.5439 114.939 56.7215 114.842 56.8897C115.612 57.7797 117.062 59.1497 118.762 59.1497C119.234 58.909 119.752 58.7726 120.282 58.7497C120.37 58.7638 120.454 58.7959 120.529 58.8441C120.604 58.8922 120.669 58.9552 120.719 59.0294C120.768 59.1035 120.802 59.187 120.818 59.2748C120.834 59.3626 120.832 59.4528 120.812 59.5397C120.442 61.1797 117.242 60.8997 117.242 60.8997C116.635 60.8685 116.03 60.9888 115.482 61.2497C114.81 61.484 114.085 61.5221 113.392 61.3597C113.237 61.1053 113.15 60.816 113.138 60.5187C113.125 60.2214 113.189 59.9259 113.322 59.6597C113.278 59.1538 113.167 58.656 112.992 58.1797H112.762C109.222 55.7409 106.169 52.6612 103.762 49.0997L99.9417 59.2097C99.7652 59.221 99.5882 59.221 99.4117 59.2097C98.8749 60.3964 98.5371 61.6633 98.4117 62.9597C98.3315 63.8951 98.4404 64.8372 98.7317 65.7297C99.1391 66.13 99.4117 66.6473 99.5117 67.2097C99.5138 67.3194 99.4904 67.428 99.4434 67.5272C99.3963 67.6263 99.327 67.7132 99.2408 67.781C99.1545 67.8488 99.0538 67.8957 98.9464 67.9181C98.839 67.9404 98.7278 67.9375 98.6217 67.9097C97.579 67.5909 96.7051 66.8716 96.1917 65.9097C95.6679 65.011 95.0512 64.1697 94.3517 63.3997C94.1363 63.1655 94.0182 62.8579 94.0217 62.5397C94.0217 61.4797 95.4017 61.1397 95.4017 61.1397C95.4611 61.0965 95.5248 61.0597 95.5917 61.0297C95.9284 60.8742 96.2181 60.6328 96.4317 60.3297C96.8018 59.7739 97.0631 59.1529 97.2017 58.4997C97.0589 58.3907 96.9251 58.2703 96.8017 58.1397C96.8017 58.1397 97.9917 48.5197 99.9117 43.8197C96.0259 45.5111 91.8795 46.5257 87.6517 46.8197C84.6517 47.0297 83.3217 45.5197 82.7617 43.6797L107.812 43.7697Z" fill="#2F3C6A"/>
<path d="M86.5127 37.0801H92.4727V31.9701H86.5127V37.0801Z" fill="#FFA935"/>
<path d="M96.4526 26.8202L95.1526 23.9102C94.3165 22.3871 92.9103 21.2578 91.2426 20.7702L89.4326 20.2102L85.7526 19.4902L83.0026 20.0602C83.0026 20.0602 81.3026 20.1802 79.8226 23.2402C79.7776 23.3231 79.7407 23.4102 79.7126 23.5002L76.7126 32.3902C76.7126 32.3902 75.5126 35.1002 78.7126 35.7602L82.9626 36.0002L88.0326 36.1002C88.2214 35.7302 88.3198 35.3207 88.3198 34.9052C88.3198 34.4898 88.2214 34.0803 88.0326 33.7102L92.1426 33.6302L96.3926 29.1802L96.4526 26.8202Z" fill="#FFA935"/>
<path d="M86.2109 16.3594L89.6309 19.2194C89.5252 19.4322 89.4702 19.6667 89.4702 19.9044C89.4702 20.1421 89.5252 20.3765 89.6309 20.5894C88.9203 20.7959 88.1704 20.8283 87.4445 20.6838C86.7187 20.5394 86.0384 20.2223 85.4609 19.7594C85.9771 18.7016 86.2341 17.5362 86.2109 16.3594Z" fill="#FCBDB6"/>
<path d="M100.66 42.3301C101.555 44.2813 102.605 46.1574 103.8 47.9401L99.9403 58.0001C99.3784 58.0841 98.8047 58.0377 98.2636 57.8642C97.7225 57.6908 97.2287 57.3951 96.8203 57.0001C96.8203 57.0001 98.0103 47.3801 99.9303 42.6801L100.66 42.3301Z" fill="#B73030"/>
<path d="M115.481 60.0508C114.808 60.2845 114.083 60.3192 113.391 60.1508C113.237 59.898 113.15 59.6103 113.138 59.3148C113.126 59.0193 113.189 58.7254 113.321 58.4608C113.938 58.4204 114.557 58.4881 115.151 58.6608C118.151 59.3508 118.761 57.9408 118.761 57.9408C119.235 57.707 119.753 57.5742 120.281 57.5508C120.369 57.5649 120.453 57.597 120.529 57.6451C120.604 57.6933 120.668 57.7563 120.718 57.8305C120.768 57.9046 120.802 57.9881 120.818 58.0759C120.834 58.1637 120.831 58.2539 120.811 58.3408C120.441 59.9808 117.241 59.6908 117.241 59.6908C116.634 59.6652 116.029 59.7888 115.481 60.0508Z" fill="#303A60"/>
<path d="M114.61 55.4199C115.29 56.2599 116.87 57.9499 118.76 57.9399C118.76 57.9399 118.16 59.3499 115.15 58.6599C114.551 58.5186 113.935 58.4647 113.32 58.4999C113.271 57.9091 113.133 57.3292 112.91 56.7799C113.273 56.686 113.613 56.5162 113.906 56.2818C114.199 56.0474 114.439 55.7537 114.61 55.4199Z" fill="#FCBDB6"/>
<path d="M82.7815 36.6394C82.7815 36.6394 80.4615 46.2094 87.6715 45.7094C92.1754 45.3891 96.582 44.2434 100.671 42.3294C103.298 48.2243 107.477 53.2949 112.761 56.9994C113.29 56.968 113.797 56.7745 114.212 56.4453C114.627 56.1161 114.93 55.6672 115.081 55.1594L105.551 38.6394C105.043 37.781 104.306 37.0801 103.424 36.6142C102.541 36.1483 101.547 35.9355 100.551 35.9994H83.0215L82.7815 36.6394Z" fill="#E25454"/>
<path d="M95.611 59.8896C95.9476 59.7341 96.2373 59.4927 96.451 59.1896C96.8226 58.631 97.084 58.0064 97.221 57.3496C97.8561 57.8125 98.6252 58.0548 99.411 58.0396C98.8728 59.2258 98.5349 60.493 98.411 61.7896C98.3308 62.7251 98.4396 63.6671 98.731 64.5596C98.731 64.5596 97.901 65.0396 96.581 63.1696L95.151 60.9996C95.151 60.9996 94.731 60.3196 95.611 59.8896Z" fill="#FCBDB6"/>
<path d="M95.423 60C95.3314 60.0393 95.2499 60.0988 95.1846 60.174C95.1192 60.2493 95.0718 60.3384 95.0458 60.4346C95.0199 60.5308 95.016 60.6317 95.0346 60.7296C95.0531 60.8275 95.0936 60.92 95.153 61L96.563 63.22C97.883 65.09 98.713 64.61 98.713 64.61C99.1188 64.9813 99.4043 65.4653 99.533 66C99.5367 66.1105 99.5144 66.2204 99.4681 66.3208C99.4218 66.4212 99.3526 66.5094 99.2662 66.5783C99.1798 66.6473 99.0784 66.6951 98.9702 66.718C98.862 66.7408 98.75 66.7381 98.643 66.71C97.6003 66.3912 96.7265 65.672 96.213 64.71C95.6892 63.8113 95.0725 62.97 94.373 62.2C94.1576 61.9658 94.0396 61.6582 94.043 61.34C94.063 60.34 95.423 60 95.423 60Z" fill="#303A60"/>
<path d="M87.2703 36.4297H102.82V35.7497H87.2703V36.4297Z" fill="#06112D"/>
<path d="M104.731 26.8203H91.9509L89.9609 35.7603H102.741L104.731 26.8203Z" fill="#0F1D4C"/>
<path d="M88.2617 35.7004L89.3217 35.3204C89.4186 35.2886 89.5198 35.2717 89.6217 35.2704H90.0717L90.3817 33.8604H89.7117C89.6324 33.846 89.5511 33.846 89.4717 33.8604L88.2617 34.1904C88.3905 34.6855 88.3905 35.2053 88.2617 35.7004Z" fill="#FFB37F"/>
<path d="M83.0427 25.6211L79.9727 32.6211C82.6976 32.8573 85.408 33.2379 88.0927 33.7611C88.351 34.413 88.4034 35.1285 88.2427 35.8111C88.4505 35.4726 88.5605 35.0832 88.5605 34.6861C88.5605 34.2889 88.4505 33.8995 88.2427 33.5611C88.2427 33.5611 87.0927 32.8511 81.0427 32.2911L83.0427 25.6211Z" fill="#FF8415"/>
<path d="M82.4234 21.2695C82.4234 21.2695 83.9234 21.7795 81.7734 28.4995L82.1034 28.7595C82.1034 28.7595 84.6834 21.7895 82.4234 21.2695Z" fill="#FF8415"/>
<path d="M92.4727 23C93.2131 24.1688 93.6718 25.4936 93.8127 26.87H92.9027C93.117 25.565 92.9682 24.2261 92.4727 23Z" fill="#FF8415"/>
<path d="M92.4498 14.78C92.5162 15.6695 92.3652 16.5618 92.0098 17.38C91.8467 17.7704 91.5889 18.114 91.2598 18.38C90.7674 18.7311 90.184 18.9325 89.5798 18.96C89.4207 19.4466 89.3762 19.9634 89.4498 20.47L92.1298 21.24C92.6368 21.4387 93.1198 21.6936 93.5698 22C93.2469 21.2833 93.0799 20.5061 93.0799 19.72C93.0799 18.9339 93.2469 18.1567 93.5698 17.44C93.5698 17.44 95.9398 11.73 91.8398 9.60998C91.8398 9.60998 85.5298 6.20998 83.6298 15.49V15.6C82.8998 18.29 81.0598 20.48 80.3398 22.41C80.8954 21.6207 81.5701 20.9224 82.3398 20.34C82.4709 20.249 82.6217 20.1908 82.7798 20.17L85.6698 19.7C86.1526 18.5058 86.318 17.207 86.1498 15.93C85.2698 15.6 85.3498 14.49 85.3498 14.49C85.4698 13.49 86.2698 13.81 86.2698 13.81C88.2226 13.9625 90.1852 13.6861 92.0198 13C92.2677 13.5631 92.4134 14.1658 92.4498 14.78Z" fill="#2F3C6A"/>
<path d="M93.3314 13.1596C93.3314 13.1596 93.8614 17.8796 89.8314 19.4596C89.5415 19.5695 89.2213 19.5695 88.9314 19.4596C88.2667 19.2739 87.6614 18.9194 87.1742 18.4305C86.6871 17.9416 86.3347 17.335 86.1514 16.6696L85.9714 15.8196C85.7922 15.6959 85.6464 15.5299 85.547 15.3362C85.4475 15.1425 85.3975 14.9273 85.4014 14.7096C85.3714 14.5443 85.3714 14.3749 85.4014 14.2096C85.4147 14.0996 85.455 13.9947 85.5188 13.9041C85.5826 13.8135 85.6679 13.7402 85.7669 13.6907C85.866 13.6411 85.9758 13.6169 86.0866 13.6202C86.1973 13.6235 86.3055 13.6543 86.4014 13.7096L86.3014 12.3496L93.3314 13.1596Z" fill="#FCBDB6"/>
<path d="M86.2427 11.7092L88.3027 11.4492L91.8927 11.6292L93.7827 12.9992L93.3527 17.0792L90.9227 19.6992L89.6627 19.5392C90.2625 19.2669 90.8054 18.8835 91.2627 18.4092C91.5918 18.1433 91.8495 17.7996 92.0127 17.4092C92.368 16.5911 92.519 15.6987 92.4527 14.8092C92.4197 14.1849 92.274 13.5717 92.0227 12.9992C90.191 13.6989 88.2284 13.989 86.2727 13.8492C86.2727 13.8492 85.4727 13.4892 85.3527 14.5292L84.9727 13.8992L86.2427 11.7092Z" fill="#2F3C6A"/>
<path d="M53.3033 170.361C76.19 170.361 94.7433 169.416 94.7433 168.251C94.7433 167.085 76.19 166.141 53.3033 166.141C30.4166 166.141 11.8633 167.085 11.8633 168.251C11.8633 169.416 30.4166 170.361 53.3033 170.361Z" fill="#D1D3D4"/>
<path d="M45.2909 150.67H20.9609V168.25H45.2909V150.67Z" fill="#FF970D"/>
<path d="M61.5031 130.84H32.7031V168.25H61.5031V130.84Z" fill="#CE7300"/>
<path d="M67.5331 130.84H42.9531V168.25H67.5331V130.84Z" fill="#E48800"/>
<path d="M85.7598 142.809H59.3398V168.249H85.7598V142.809Z" fill="#FCB554"/>
<path d="M50.1216 168.25H59.3516V142.81H50.1216V168.25Z" fill="#FF970D"/>
<path d="M82.133 161.1H79.423C78.5227 161.1 77.793 161.829 77.793 162.73V164C77.793 164.9 78.5227 165.63 79.423 165.63H82.133C83.0332 165.63 83.763 164.9 83.763 164V162.73C83.763 161.829 83.0332 161.1 82.133 161.1Z" fill="white"/>
<path d="M69.9405 142.809H62.9805V153.049H69.9405V142.809Z" fill="white"/>
<path d="M64.4395 130.84H58.0195V139.31H64.4395V130.84Z" fill="white"/>
<path d="M45.2925 150.67H26.3125V168.25H45.2925V150.67Z" fill="#FCB554"/>
<path d="M33.1511 150.76H28.6211V157.43H33.1511V150.76Z" fill="white"/>
<path d="M183.9 138.719H159.32V167.479H183.9V138.719Z" fill="#FCB554"/>
<path d="M149.12 167.48H159.32V138.72H149.12V167.48Z" fill="#FF970D"/>
<path d="M181.123 138.58H174.633V151.57H181.123V138.58Z" fill="white"/>
<path d="M166.651 159.23H164.051C162.847 159.23 161.871 160.206 161.871 161.41V163.08C161.871 164.284 162.847 165.26 164.051 165.26H166.651C167.855 165.26 168.831 164.284 168.831 163.08V161.41C168.831 160.206 167.855 159.23 166.651 159.23Z" fill="white"/>
<path d="M203.57 164.67L202.85 148.6L197 149.1L200.6 164.59C201.025 164.912 201.539 165.092 202.072 165.107C202.605 165.121 203.129 164.968 203.57 164.67Z" fill="#FCBDB6"/>
<path d="M192.5 149.65L193.29 164.42C193.29 164.42 191.05 165.26 190.29 164.34C189.53 163.42 186.91 149.65 186.91 149.65H192.5Z" fill="#FCBDB6"/>
<path d="M182.92 105.12C180.2 106.3 177.25 112.12 177.25 112.12C177.25 112.12 180.6 113.66 180.77 113.71C180.94 113.76 187.46 107.46 187.46 107.46C187.46 107.46 184.15 104.61 182.92 105.12Z" fill="#FCBDB6"/>
<path d="M194.373 142.299H194.513C194.513 142.249 193.713 136.879 193.113 134.949C192.513 133.019 189.743 131.329 189.713 131.309L189.633 131.419C189.633 131.419 192.393 133.089 192.983 134.989C193.573 136.889 194.373 142.239 194.373 142.299Z" fill="#333333"/>
<path d="M214.76 115.999C212.741 112.034 210.179 108.369 207.15 105.109C206.345 105.502 205.513 105.836 204.66 106.109C201.33 107.269 200.66 108.109 200.66 108.109C200.66 108.109 208.53 117.319 209.33 118.499C209.85 119.299 215.53 117.659 214.76 115.999Z" fill="#B21D39"/>
<path d="M208.361 117.391C209.277 116.626 210.428 116.199 211.621 116.181C211.63 116.186 211.641 116.189 211.651 116.189C211.662 116.189 211.672 116.186 211.681 116.181C211.679 116.167 211.671 116.154 211.66 116.145C211.649 116.136 211.636 116.131 211.621 116.131C210.399 116.15 209.22 116.587 208.281 117.371V117.441L208.361 117.391Z" fill="#F9A6A0"/>
<path d="M204.602 119.729C206.72 118.728 208.617 117.314 210.182 115.569C211.552 113.979 214.762 116.019 214.762 116.019C215.213 116.789 215.424 117.676 215.369 118.566C215.313 119.457 214.994 120.311 214.452 121.019C212.672 123.129 207.172 124.019 207.172 124.019L204.602 119.729Z" fill="#FCBDB6"/>
<path d="M176.602 111.869C176.602 111.869 179.392 106.869 182.362 104.869L185.152 107.479L184.072 111.479L176.602 111.869Z" fill="#B21D39"/>
<path d="M190.312 164.34C190.312 164.34 190.232 165.79 189.132 166.18C188.032 166.57 184.882 166.85 186.022 167.82C186.682 168.37 189.872 168.1 190.772 168.12C191.672 168.14 192.502 168.52 193.182 167.99C193.862 167.46 193.292 164.42 193.292 164.42C192.823 164.616 192.321 164.722 191.812 164.73C191.287 164.729 190.771 164.594 190.312 164.34Z" fill="#333333"/>
<path d="M182.871 120.689C182.871 120.689 181.871 126.849 183.781 139.479C185.171 148.589 184.251 145.579 185.091 149.989C185.391 151.559 194.371 151.439 194.281 149.709L193.961 132.369L193.681 122.589L182.871 120.689Z" fill="#332428"/>
<path d="M200.601 164.59C200.601 164.59 200.521 166.05 199.421 166.43C198.321 166.81 195.161 167.1 196.311 168.07C196.971 168.62 200.161 168.35 201.061 168.37C201.961 168.39 202.791 168.77 203.471 168.24C204.151 167.71 203.571 164.67 203.571 164.67C203.101 164.866 202.599 164.972 202.091 164.98C201.568 164.982 201.055 164.847 200.601 164.59Z" fill="#333333"/>
<path d="M192.542 120.561C192.542 120.561 192.122 127.101 194.062 139.731C195.462 148.841 194.742 144.911 195.572 149.321C195.872 150.901 204.682 150.611 204.572 148.881L204.222 132.621L203.932 122.841L192.542 120.561Z" fill="#332428"/>
<path d="M204.15 128C204.1 128.79 199.57 129 193.04 128.69C186.51 128.38 182.14 127.37 182.18 126.58C182.22 125.79 186.68 125.48 193.18 125.83C199.68 126.18 204.22 127.2 204.15 128Z" fill="#333333"/>
<path d="M201.891 105.9C201.891 105.9 202.981 101.46 194.451 101.21C182.161 100.85 183.821 111.07 182.211 126.57C189.564 125.873 196.98 126.285 204.211 127.79C204.211 127.79 204.371 112.29 201.891 105.9Z" fill="#B21D39"/>
<path d="M207.152 105.11L201.502 107.76C201.502 107.76 189.282 108.47 186.062 107.91C182.842 107.35 182.012 105.17 182.012 105.17C184.735 103.032 188 101.695 191.442 101.31C191.992 101.24 192.572 101.2 193.162 101.18C194.163 101.138 195.167 101.178 196.162 101.3C203.542 102.24 207.152 105.11 207.152 105.11Z" fill="#B21D39"/>
<path d="M195.942 100.371L195.712 97.3709L194.942 97.1309L193.632 92.8809L192.812 97.3709L192.612 99.5909L192.472 100.741C192.472 101.281 189.972 101.171 189.522 101.631C189.332 101.821 190.132 104.871 193.412 104.871C195.682 104.871 198.282 103.111 199.722 101.871C197.592 101.181 196.152 101.171 195.942 100.371Z" fill="#FCBDB6"/>
<path d="M182.363 126.77C182.363 126.77 189.543 125.55 204.133 128.5L204.183 130.41L182.773 130.57L182.363 126.77Z" fill="#8BC0CC"/>
<path d="M197.428 96.6528C198.853 94.5496 198.503 91.825 196.647 90.5673C194.79 89.3095 192.13 89.9949 190.705 92.0981C189.28 94.2013 189.63 96.9259 191.486 98.1836C193.342 99.4414 196.002 98.756 197.428 96.6528Z" fill="#FCBDB6"/>
<path d="M199.742 93.3299C199.742 93.3299 200.742 97.2599 197.012 97.1799C197.012 97.1799 199.012 95.4499 196.012 93.6099C196.022 93.6099 197.642 87.6299 199.742 93.3299Z" fill="#352C23"/>
<path d="M197.893 95.9004C197.69 95.9872 197.462 95.9954 197.253 95.9233C197.044 95.8512 196.87 95.704 196.763 95.5104C196.727 95.4081 196.712 95.2992 196.721 95.191C196.73 95.0827 196.763 94.9777 196.816 94.8829C196.869 94.7882 196.941 94.7059 197.029 94.6416C197.117 94.5773 197.217 94.5326 197.323 94.5104C197.527 94.4258 197.754 94.4188 197.962 94.4907C198.171 94.5625 198.345 94.7083 198.453 94.9004C198.488 95.0027 198.501 95.1112 198.491 95.2189C198.482 95.3266 198.449 95.431 198.396 95.5253C198.343 95.6196 198.271 95.7018 198.185 95.7664C198.098 95.831 197.999 95.8767 197.893 95.9004Z" fill="#FCBDB6"/>
<path d="M193.152 96.7208C192.304 96.7662 191.457 96.6227 190.672 96.3008C190.672 96.3008 191.362 98.4908 193.152 96.7208Z" fill="white"/>
<path d="M199.421 92.4407C199.421 92.4407 198.761 89.5007 196.601 88.2607C194.801 87.2607 191.521 87.8307 190.891 88.0107C190.261 88.1907 187.281 89.3507 188.301 90.3907C189.881 91.9907 196.021 93.6107 196.021 93.6107L199.421 92.4407Z" fill="#352C23"/>
<path d="M182.691 111.35H182.441C182.899 109.451 183.879 107.719 185.271 106.35L185.441 106.53C184.098 107.852 183.146 109.52 182.691 111.35Z" fill="#560A1A"/>
<path d="M165.711 136.79L203.641 131.79C203.729 131.78 203.814 131.752 203.892 131.709C203.97 131.666 204.038 131.608 204.093 131.538C204.148 131.468 204.188 131.388 204.212 131.303C204.235 131.217 204.242 131.128 204.231 131.04L201.151 109.09C201.121 108.913 201.024 108.755 200.881 108.649C200.737 108.543 200.558 108.496 200.381 108.52L162.451 113.52C162.363 113.529 162.277 113.557 162.2 113.6C162.122 113.643 162.054 113.701 161.999 113.771C161.944 113.841 161.903 113.921 161.88 114.006C161.856 114.092 161.85 114.181 161.861 114.27L164.931 136.2C164.943 136.29 164.973 136.376 165.019 136.455C165.065 136.533 165.126 136.602 165.198 136.657C165.271 136.711 165.353 136.751 165.441 136.774C165.529 136.797 165.621 136.802 165.711 136.79Z" fill="#62CCE0"/>
<path d="M162.92 121.791L202.21 116.591L201.56 111.961L162.27 117.161L162.92 121.791Z" fill="#1F7B87"/>
<path d="M180.371 124.839L199.371 122.329C199.405 122.325 199.439 122.315 199.469 122.298C199.499 122.282 199.525 122.259 199.547 122.232C199.568 122.205 199.584 122.174 199.593 122.141C199.603 122.108 199.605 122.073 199.601 122.039L199.441 120.909C199.436 120.875 199.425 120.842 199.407 120.812C199.389 120.782 199.365 120.756 199.337 120.736C199.31 120.715 199.278 120.701 199.244 120.693C199.21 120.685 199.175 120.683 199.141 120.689L180.141 123.199C180.073 123.209 180.011 123.245 179.969 123.298C179.926 123.352 179.905 123.421 179.911 123.489L180.071 124.619C180.076 124.653 180.088 124.686 180.105 124.716C180.123 124.746 180.147 124.772 180.175 124.792C180.203 124.813 180.235 124.827 180.268 124.835C180.302 124.844 180.337 124.845 180.371 124.839Z" fill="#A2E9F2"/>
<path d="M180.762 128.13L199.762 125.62C199.796 125.616 199.829 125.606 199.859 125.589C199.889 125.573 199.916 125.55 199.937 125.523C199.959 125.496 199.975 125.465 199.984 125.432C199.993 125.399 199.996 125.364 199.992 125.33L199.832 124.2C199.827 124.166 199.815 124.133 199.797 124.103C199.78 124.073 199.756 124.047 199.728 124.027C199.7 124.006 199.668 123.992 199.635 123.984C199.601 123.976 199.566 123.974 199.532 123.98L180.532 126.49C180.464 126.5 180.402 126.536 180.359 126.589C180.317 126.643 180.296 126.712 180.302 126.78L180.462 127.91C180.474 127.978 180.512 128.039 180.568 128.08C180.624 128.121 180.693 128.139 180.762 128.13Z" fill="#A2E9F2"/>
<path d="M168.153 134.17L200.483 129.9C200.566 129.885 200.64 129.84 200.692 129.774C200.744 129.707 200.769 129.624 200.763 129.54L200.563 128.16C200.55 128.076 200.506 128.001 200.438 127.951C200.371 127.9 200.286 127.878 200.203 127.89L167.873 132.17C167.83 132.175 167.79 132.188 167.753 132.209C167.716 132.23 167.683 132.258 167.657 132.291C167.631 132.325 167.612 132.363 167.601 132.404C167.59 132.445 167.587 132.488 167.593 132.53L167.793 133.9C167.797 133.942 167.811 133.982 167.832 134.018C167.853 134.055 167.881 134.087 167.915 134.112C167.948 134.137 167.987 134.155 168.028 134.165C168.069 134.175 168.111 134.177 168.153 134.17Z" fill="#A2E9F2"/>
<path d="M167.79 129.661L171.35 129.191C171.387 129.188 171.424 129.176 171.457 129.158C171.491 129.14 171.52 129.115 171.543 129.085C171.567 129.055 171.584 129.021 171.593 128.984C171.603 128.947 171.605 128.909 171.6 128.871L171.12 125.411C171.105 125.335 171.061 125.268 170.998 125.223C170.935 125.178 170.856 125.16 170.78 125.171L167.23 125.641C167.192 125.645 167.155 125.656 167.122 125.675C167.089 125.693 167.059 125.718 167.036 125.748C167.013 125.778 166.995 125.812 166.986 125.849C166.976 125.886 166.974 125.924 166.98 125.961L167.46 129.421C167.464 129.459 167.477 129.496 167.496 129.529C167.516 129.562 167.542 129.59 167.573 129.613C167.604 129.635 167.639 129.651 167.676 129.66C167.713 129.668 167.752 129.669 167.79 129.661Z" fill="#A2E9F2"/>
<path d="M207.152 124.099C207.152 124.099 205.862 119.099 205.532 119.249C204.587 119.66 203.537 119.762 202.532 119.539C202.172 119.459 200.972 119.269 200.832 119.539C200.692 119.809 201.602 120.369 202.052 120.599C199.812 121.379 196.842 123.049 201.762 122.099C201.292 122.269 198.292 123.249 198.512 123.879C198.682 124.359 201.512 123.529 202.312 123.249C201.542 123.599 199.172 124.349 199.432 124.889C199.692 125.429 202.942 124.359 202.942 124.359C202.942 124.359 200.312 125.359 200.942 125.729C201.572 126.099 204.002 125.099 204.762 124.829C205.522 124.559 207.152 124.099 207.152 124.099Z" fill="#FCBDB6"/>
<path d="M172.01 111.74C172.01 111.74 170.63 111.92 170.8 112.86C171.02 114.07 172.18 114.79 172.31 114.25C172.279 113.831 172.225 113.414 172.15 113C172.15 113 173.37 115.35 173.94 115C174.51 114.65 173.42 112.62 173.42 112.62C173.42 112.62 174.9 114.81 175.29 114.33C175.68 113.85 174.7 112.02 174.7 112.02C174.7 112.02 175.99 114.23 176.43 113.66C176.87 113.09 175.89 112.06 175.61 111.55C175.33 111.04 174.84 111.05 174.23 111.29C173.845 111.274 173.462 111.345 173.11 111.5C172.97 111.59 172.76 111.5 172.64 111.56C172.426 111.605 172.215 111.665 172.01 111.74Z" fill="#FCBDB6"/>
<path d="M203.261 113.449C203.261 113.449 203.061 109.449 201.391 107.519L201.581 107.359C203.301 109.359 203.501 113.279 203.511 113.439L203.261 113.449Z" fill="#5B0D1E"/>
<path d="M119.601 106.541V97.8407C120.51 98.1058 121.371 98.5143 122.151 99.0507C122.991 99.7107 122.991 100.051 122.991 101.581C123.109 102.052 123.381 102.471 123.765 102.77C124.148 103.07 124.62 103.232 125.106 103.232C125.593 103.232 126.065 103.07 126.448 102.77C126.831 102.471 127.104 102.052 127.221 101.581C127.221 99.9307 127.221 98.3907 125.101 96.7407C123.514 95.4875 121.617 94.6891 119.611 94.4307V93.7707C119.498 93.2967 119.228 92.875 118.845 92.5732C118.462 92.2715 117.989 92.1074 117.501 92.1074C117.014 92.1074 116.541 92.2715 116.158 92.5732C115.775 92.875 115.505 93.2967 115.391 93.7707V94.6507C112.011 95.4207 107.651 97.5107 107.651 102.571C107.651 106.651 111.871 108.741 115.391 109.401V119.401C114.215 119.085 113.171 118.402 112.411 117.45C111.652 116.498 111.217 115.328 111.171 114.111C111.086 113.623 110.823 113.185 110.433 112.88C110.044 112.576 109.555 112.426 109.061 112.461C107.931 112.461 106.941 113.121 106.941 114.111C106.941 118.521 110.601 122.261 115.391 122.811V123.471C115.505 123.945 115.775 124.366 116.158 124.668C116.541 124.97 117.014 125.134 117.501 125.134C117.989 125.134 118.462 124.97 118.845 124.668C119.228 124.366 119.498 123.945 119.611 123.471V122.701C123.841 122.041 128.761 119.951 128.761 114.701C128.751 110.001 123.151 107.201 119.601 106.541ZM111.861 102.541C111.859 101.515 112.207 100.519 112.847 99.7172C113.486 98.9155 114.381 98.3558 115.381 98.1307V106.001C113.691 105.441 111.861 104.451 111.861 102.581V102.541ZM119.601 119.271V110.001C121.601 110.551 124.531 112.201 124.531 114.621C124.531 117.761 121.861 118.871 119.601 119.311V119.271Z" fill="#5AC5DA"/>
<path d="M116.98 80.4499C122.965 80.4709 128.792 82.3702 133.64 85.8799L125.97 86.9999C125.233 87.1163 124.569 87.5111 124.115 88.1028C123.661 88.6946 123.451 89.4381 123.53 90.1799C123.626 90.8558 123.964 91.474 124.48 91.9205C124.996 92.3671 125.657 92.6119 126.34 92.6099H126.71L139.82 90.7399C140.556 90.6236 141.219 90.2284 141.671 89.6363C142.124 89.0442 142.331 88.3007 142.25 87.5599L140.38 74.4599C140.33 74.0909 140.209 73.7352 140.022 73.4131C139.835 73.091 139.587 72.8089 139.291 72.5828C138.996 72.3567 138.658 72.191 138.299 72.0953C137.939 71.9996 137.564 71.9757 137.195 72.0249C136.826 72.0742 136.47 72.1956 136.148 72.3823C135.826 72.569 135.544 72.8174 135.317 73.1131C135.091 73.4089 134.926 73.7463 134.83 74.106C134.734 74.4658 134.71 74.8409 134.76 75.2099L135.51 80.4499C130.04 76.7534 123.581 74.7946 116.98 74.8299C108.053 74.8563 99.4987 78.4142 93.1863 84.7266C86.8739 91.039 83.316 99.5929 83.2896 108.52C83.2686 112.145 83.8395 115.749 84.9796 119.19L89.4696 114.7C89.01 112.671 88.7587 110.6 88.7196 108.52C88.7854 101.063 91.79 93.9325 97.0809 88.6772C102.372 83.4218 109.522 80.4654 116.98 80.4499Z" fill="#5AC5DA"/>
<path d="M148.992 97.8501L144.502 102.35C144.953 104.377 145.201 106.444 145.242 108.52C145.253 112.211 144.533 115.868 143.125 119.281C141.717 122.693 139.648 125.793 137.038 128.403C134.427 131.012 131.326 133.08 127.913 134.487C124.501 135.894 120.843 136.612 117.152 136.6C111.037 136.655 105.088 134.607 100.302 130.8L106.302 129.86C106.672 129.813 107.029 129.693 107.352 129.507C107.676 129.321 107.959 129.073 108.187 128.778C108.414 128.482 108.581 128.144 108.677 127.784C108.773 127.423 108.797 127.048 108.748 126.678C108.698 126.308 108.576 125.952 108.389 125.63C108.201 125.307 107.952 125.025 107.655 124.8C107.358 124.574 107.019 124.409 106.658 124.315C106.297 124.221 105.922 124.199 105.552 124.25L92.4521 126.12C91.715 126.234 91.0505 126.629 90.5976 127.221C90.1447 127.814 89.9385 128.559 90.0221 129.3L91.8921 142.4C91.8852 142.746 91.9487 143.09 92.0788 143.41C92.2089 143.731 92.4028 144.022 92.6489 144.265C92.8949 144.508 93.1878 144.699 93.5099 144.825C93.8319 144.951 94.1763 145.011 94.5221 145H94.9021C95.6371 144.881 96.2986 144.486 96.7506 143.894C97.2026 143.303 97.4107 142.56 97.3321 141.82L96.3921 135.08C102.108 139.47 109.079 141.914 116.284 142.053C123.49 142.193 130.55 140.021 136.432 135.856C142.313 131.691 146.706 125.752 148.966 118.909C151.226 112.066 151.235 104.679 148.992 97.8301V97.8501Z" fill="#5AC5DA"/>
</svg>
