<svg width="271" height="205" viewBox="0 0 271 205" fill="none" xmlns="http://www.w3.org/2000/svg">
<path opacity="0.35" fill-rule="evenodd" clip-rule="evenodd" d="M34.4321 3C24.5928 3 17.0371 5.68803 11.5758 10.901C6.12415 16.1049 3.32812 23.2912 3.32812 32.652V64.86C3.32812 74.3093 6.12518 81.6363 11.5885 87.0192C17.0503 92.3131 24.6017 95.04 34.4321 95.04C44.2618 95.04 51.8632 92.3133 57.4163 87.0109C62.9636 81.6267 65.8001 74.3024 65.8001 64.86V32.652C65.8001 23.3907 62.9674 16.2489 57.4286 11.0408L57.42 11.0327C51.8666 5.72797 44.264 3 34.4321 3ZM9.50441 8.73096C15.6592 2.85597 24.0314 0 34.4321 0C44.8379 0 53.25 2.9028 59.4882 8.85944C65.7383 14.7389 68.8001 22.7317 68.8001 32.652V64.86C68.8001 74.951 65.7423 83.1133 59.5006 89.1686L59.4922 89.1767C53.2536 95.1359 44.8402 98.04 34.4321 98.04C24.0251 98.04 15.6498 95.1362 9.49591 89.1689L9.48759 89.1607C3.33765 83.104 0.328125 74.9443 0.328125 64.86V32.652C0.328125 22.6528 3.3401 14.6151 9.50441 8.73096ZM79.5314 4.10353C79.5307 4.11351 79.5303 4.12561 79.5303 4.14V19.716C79.5303 19.7442 79.5319 19.7703 79.5353 19.795C79.56 19.7984 79.5861 19.8 79.6143 19.8H108.522C108.774 19.8 109.224 19.8333 109.651 20.1179C110.059 20.3897 110.291 20.7829 110.378 21.1872C110.474 21.4974 110.494 21.8412 110.406 22.1918C110.298 22.6241 110.059 22.9411 109.847 23.1527L109.775 23.2247L89.3404 38.7496C89.3664 38.8053 89.403 38.8758 89.4534 38.9623L98.8492 52.1958C98.8905 52.1746 98.9378 52.1488 98.9911 52.1178C100.827 50.8083 102.359 49.8141 103.571 49.1601C104.925 48.3885 106.281 47.916 107.598 47.916C111.915 47.916 115.233 49.8279 117.351 53.5596L117.38 53.6115L117.406 53.6657C118.748 56.5413 119.394 59.8457 119.394 63.54C119.394 67.2988 118.756 70.4818 117.357 72.9811C116.329 74.84 115.004 76.3045 113.356 77.2984C111.705 78.2946 109.812 78.768 107.73 78.768C105.561 78.768 103.603 78.2723 101.919 77.22L101.891 77.2026L101.864 77.1841C100.192 76.0342 98.9637 74.4281 98.162 72.4341C97.2216 70.2653 96.6562 67.9993 96.4673 65.6425C96.4596 65.5518 96.447 65.4897 96.4362 65.4502C96.3967 65.4431 96.3351 65.436 96.2463 65.436H77.2383C77.2075 65.436 77.1803 65.4369 77.1565 65.4382C77.1558 65.4513 77.1552 65.4653 77.1548 65.4805C77.4136 69.5404 78.2177 73.234 79.5529 76.5737C81.812 82.0927 85.4372 86.4691 90.4567 89.7337C95.4715 92.9076 101.257 94.512 107.862 94.512C114.66 94.512 120.488 92.9439 125.405 89.8622C130.332 86.6869 133.867 82.4022 136.038 76.9749L136.044 76.9597L136.05 76.9447C137.727 73.0049 138.57 68.7619 138.57 64.2C138.57 59.5526 137.727 55.2232 136.052 51.197C133.054 44.4606 128.296 40.3126 121.737 38.5908L121.69 38.5785L121.644 38.563C121.161 38.4019 120.577 38.0721 120.249 37.4148L120.09 37.0981V36.744C120.09 36.0299 120.454 35.4948 120.794 35.1553L120.857 35.0917L136.871 22.519C137.148 22.2741 137.25 22.0298 137.25 21.696V4.23L137.151 4.15542L137.076 4.056H79.6143C79.6094 4.056 79.6061 4.05624 79.6044 4.05642L79.6015 4.05682C79.6011 4.05698 79.5988 4.05769 79.5965 4.05871C79.5915 4.06093 79.5692 4.07149 79.5314 4.10353ZM77.3656 2.02334C77.9587 1.4303 78.7229 1.056 79.6143 1.056H137.166C138.007 1.056 138.749 1.39404 139.288 2.01782C139.912 2.55742 140.25 3.29966 140.25 4.14V21.696C140.25 22.938 139.742 24.0099 138.802 24.8149L138.778 24.8359L124.276 36.2216C130.879 38.4569 135.732 43.0901 138.801 49.9948L138.808 50.0108L138.815 50.0271C140.655 54.4443 141.57 59.1736 141.57 64.2C141.57 69.1364 140.656 73.7763 138.817 78.1043C136.412 84.1071 132.471 88.8798 127.022 92.3891L127.015 92.394L127.007 92.3988C121.543 95.8258 115.141 97.512 107.862 97.512C100.743 97.512 94.3871 95.7741 88.8437 92.2632L88.8362 92.2585L88.8288 92.2537C83.2937 88.6559 79.266 83.7957 76.774 77.7039L76.7696 77.6931C75.2959 74.009 74.43 69.9783 74.1572 65.6136L74.1543 65.5668V65.52C74.1543 64.7608 74.3451 63.9159 74.9896 63.2713C75.6341 62.6268 76.4791 62.436 77.2383 62.436H96.2463C97.015 62.436 97.8355 62.6305 98.4847 63.2298C99.1331 63.8283 99.3933 64.6301 99.4571 65.3954L99.4575 65.4004C99.6203 67.4354 100.108 69.3857 100.922 71.2579L100.931 71.2783L100.939 71.2989C101.541 72.8032 102.412 73.9121 103.537 74.6933C104.664 75.3899 106.042 75.768 107.73 75.768C109.345 75.768 110.686 75.4054 111.807 74.7296C112.93 74.0521 113.914 73.01 114.733 71.5265L114.738 71.5191C115.802 69.619 116.394 66.9953 116.394 63.54C116.394 60.2196 115.818 57.3819 114.712 54.989C113.135 52.2436 110.83 50.916 107.598 50.916C106.985 50.916 106.146 51.1436 105.042 51.7744L105.026 51.7837L105.009 51.7927C103.947 52.3646 102.511 53.2906 100.682 54.5966L100.633 54.6314L100.582 54.6622C100.091 54.9566 99.4443 55.272 98.7543 55.272C98.2278 55.272 97.7002 55.1361 97.2292 54.8221C96.8082 54.5414 96.5032 54.1659 96.2852 53.7667L86.9378 40.6013L86.908 40.5517C86.6137 40.0612 86.2983 39.4141 86.2983 38.724C86.2983 37.7189 86.7505 36.8481 87.606 36.2997L105.375 22.8H79.6143C78.8497 22.8 78.1379 22.5627 77.5263 22.104L77.3549 21.9754L77.2263 21.804C76.7675 21.1924 76.5303 20.4805 76.5303 19.716V4.14C76.5303 3.37862 76.7705 2.61844 77.3656 2.02334ZM25.5491 22.3867C27.8082 19.9289 30.8247 18.744 34.4321 18.744C38.1077 18.744 41.1697 19.9163 43.4358 22.3744C45.794 24.7464 46.8881 27.976 46.8881 31.86V66.048C46.8881 69.9471 45.7863 73.2118 43.4361 75.6648C41.1629 78.0414 38.0998 79.164 34.4321 79.164C30.7645 79.164 27.7014 78.0414 25.4282 75.6648L25.4052 75.6408L25.3833 75.6158C23.2341 73.1596 22.2401 69.9129 22.2401 66.048V31.86C22.2401 27.9876 23.2833 24.7624 25.5491 22.3867ZM34.4321 21.744C31.5333 21.744 29.3616 22.6673 27.7499 24.4256L27.7391 24.4373L27.7281 24.4488C26.1296 26.12 25.2401 28.5227 25.2401 31.86V66.048C25.2401 69.3833 26.0861 71.849 27.6191 73.6151C29.2161 75.2712 31.4263 76.164 34.4321 76.164C37.4525 76.164 39.6694 75.2626 41.2682 73.5912L41.2691 73.5901C42.9662 71.8193 43.8881 69.3644 43.8881 66.048V31.86C43.8881 28.5407 42.9654 26.1466 41.2915 24.4727L41.2684 24.4496L41.2464 24.4256C39.6427 22.676 37.4326 21.744 34.4321 21.744Z" fill="#CF0A2C"/>
<path d="M96.2589 166.306C80.0589 166.606 37.7489 171.386 33.5189 183.306C28.2589 198.136 94.2589 204.616 135.829 204.956C177.399 205.296 247.609 201.956 269.399 182.956C284.259 170.036 165.539 165.056 96.2589 166.306Z" fill="#D6EBF8"/>
<path d="M154.148 152.306C154.678 148.306 158.148 145.306 161.868 143.836C165.588 142.366 169.718 142.256 173.698 141.836C177.678 141.416 181.828 140.526 184.928 137.986C190.688 133.256 190.978 124.646 194.528 118.106C195.427 116.462 196.529 114.936 197.808 113.566C208.668 101.956 227.628 96.8165 241.748 104.776C243.668 105.666 244.398 108.456 242.938 109.776C239.838 112.776 234.558 111.966 231.148 114.936C230.76 115.3 230.468 115.753 230.298 116.256C232.168 124.926 227.298 131.166 218.188 128.566C217.302 128.626 216.427 128.804 215.588 129.096C214.222 129.622 213.023 130.506 212.118 131.656C211.184 132.819 210.426 134.113 209.868 135.496C208.728 138.206 208.068 141.136 206.598 143.696C202.598 150.696 193.788 153.156 185.778 153.956C177.768 154.756 169.268 154.626 162.318 158.676C160.088 159.976 158.038 161.676 155.548 162.366C153.058 163.056 149.868 162.146 149.078 159.696C149.488 159.116 149.908 158.546 150.328 157.966" fill="#63B78B"/>
<path d="M176.258 141.727V141.487C190.098 143.717 198.068 132.487 205.768 121.627L207.768 118.827C211.497 113.839 216.953 110.423 223.068 109.247C225.982 108.609 228.972 108.387 231.948 108.587V108.827C231.788 108.827 216.368 107.327 207.948 118.977C207.288 119.897 206.618 120.827 205.948 121.767C198.258 132.687 190.258 143.957 176.258 141.727Z" fill="#1F264C"/>
<path d="M173.518 105.956C174.288 99.9561 177.128 94.0161 182.268 90.9561C187.408 87.8961 194.998 88.6261 198.398 93.5761C200.108 87.6761 201.988 81.4961 206.398 77.2161C210.808 72.9361 218.618 71.5061 222.958 75.8561C223.845 76.7955 224.515 77.9182 224.921 79.145C225.327 80.3718 225.459 81.6728 225.308 82.9561C225.201 84.2658 224.825 85.5393 224.204 86.6973C223.583 87.8552 222.73 88.8727 221.698 89.6861C222.138 87.5761 224.898 87.4561 226.358 88.4661C226.783 88.7836 227.136 89.1874 227.395 89.651C227.653 90.1145 227.811 90.6274 227.858 91.1561C227.92 92.2563 227.693 93.3536 227.198 94.3382C226.703 95.3227 225.958 96.16 225.038 96.7661C220.298 99.1961 214.318 99.5661 211.968 105.056C208.508 113.516 204.918 121.516 199.458 128.756C198.611 129.976 197.738 131.183 196.838 132.376C195.928 133.556 194.998 134.716 194.028 135.846C191.438 138.846 188.468 141.786 184.698 143.016C180.198 144.496 175.048 143.396 170.768 145.406C163.968 148.596 161.588 158.466 154.288 160.186C148.998 161.446 143.848 156.876 142.768 151.896C141.238 144.796 147.418 139.176 153.178 136.286C158.628 133.556 164.678 132.746 168.908 127.806C170.286 126.18 171.308 124.282 171.908 122.236C173.478 117.096 172.818 111.326 173.518 105.956Z" fill="#4FA87B"/>
<path d="M154.867 149.607C154.867 149.507 159.177 140.087 176.867 133.907C189.487 129.487 194.497 116.397 198.157 106.837C199.647 102.947 200.937 99.587 202.427 97.617C207.497 90.877 218.157 87.957 218.257 87.957L218.327 88.187C218.217 88.187 207.637 91.107 202.587 97.767C201.117 99.767 199.837 103.057 198.357 106.927C194.677 116.537 189.637 129.687 176.917 134.147C159.357 140.297 155.127 149.617 155.087 149.707L154.867 149.607Z" fill="#1F264C"/>
<path d="M176.949 134.115L176.809 133.915C185.189 128.155 186.879 118.695 186.809 111.765C186.748 107.084 186.027 102.435 184.669 97.955L184.889 97.875C186.267 102.376 187.001 107.049 187.069 111.755C187.119 118.745 185.419 128.295 176.949 134.115Z" fill="#1F264C"/>
<path d="M199.43 103.496C200.824 101.176 202.699 99.1811 204.927 97.6444C207.155 96.1078 209.686 95.065 212.35 94.5858C214.783 94.1407 217.277 94.1407 219.71 94.5858V94.8258C217.306 94.3872 214.843 94.3872 212.44 94.8258C209.811 95.2983 207.314 96.327 205.115 97.843C202.916 99.3589 201.066 101.327 199.69 103.616L199.43 103.496Z" fill="#1F264C"/>
<path d="M173.81 135.306L173.66 135.116C181.24 129.336 182.49 123.226 182.21 119.116C182.015 116.41 181.168 113.792 179.74 111.486L179.94 111.346C181.387 113.686 182.248 116.341 182.45 119.086C182.74 123.256 181.48 129.466 173.81 135.306Z" fill="#1F264C"/>
<path d="M205.058 123.086L204.918 122.886C211.858 117.806 216.918 117.496 219.918 118.126C221.818 118.465 223.566 119.388 224.918 120.766L224.728 120.926C223.406 119.598 221.711 118.705 219.868 118.366C216.918 117.746 211.918 118.066 205.058 123.086Z" fill="#1F264C"/>
<path d="M183.929 95.9565C183.799 95.8071 183.716 95.6226 183.692 95.4263C183.667 95.2301 183.701 95.0309 183.789 94.8539C183.877 94.6769 184.016 94.5302 184.188 94.4322C184.36 94.3341 184.557 94.2893 184.754 94.3033C184.952 94.3173 185.14 94.3895 185.297 94.5108C185.453 94.6321 185.57 94.797 185.632 94.9846C185.695 95.1723 185.7 95.3743 185.648 95.5651C185.596 95.7559 185.488 95.9269 185.339 96.0564C185.138 96.23 184.877 96.317 184.613 96.2983C184.348 96.2795 184.102 96.1566 183.929 95.9565ZM185.259 94.8465C185.126 94.6953 184.939 94.603 184.738 94.5898C184.537 94.5767 184.34 94.6438 184.189 94.7765C184.037 94.9091 183.945 95.0963 183.932 95.297C183.919 95.4976 183.986 95.6953 184.119 95.8465C184.25 95.9986 184.436 96.0925 184.637 96.1075C184.838 96.1225 185.036 96.0574 185.189 95.9265C185.34 95.7918 185.432 95.603 185.445 95.4008C185.458 95.1987 185.391 94.9995 185.259 94.8465Z" fill="#1F264C"/>
<path d="M225.97 122.306C225.865 122.187 225.798 122.04 225.777 121.883C225.756 121.727 225.781 121.567 225.851 121.425C225.92 121.283 226.03 121.165 226.167 121.085C226.304 121.006 226.461 120.968 226.619 120.978C226.777 120.988 226.928 121.044 227.054 121.14C227.18 121.236 227.275 121.367 227.326 121.516C227.377 121.666 227.383 121.827 227.343 121.98C227.303 122.133 227.218 122.271 227.1 122.376C227.021 122.445 226.929 122.499 226.83 122.533C226.73 122.567 226.625 122.582 226.52 122.575C226.415 122.569 226.312 122.541 226.218 122.495C226.124 122.449 226.039 122.385 225.97 122.306ZM226.97 121.406C226.865 121.301 226.723 121.243 226.575 121.243C226.427 121.243 226.285 121.301 226.18 121.406C226.073 121.505 226.01 121.642 226.003 121.788C225.996 121.933 226.046 122.075 226.142 122.184C226.239 122.294 226.373 122.361 226.519 122.373C226.664 122.384 226.807 122.339 226.92 122.246C226.984 122.198 227.037 122.138 227.076 122.068C227.115 121.998 227.139 121.921 227.145 121.842C227.152 121.762 227.141 121.682 227.115 121.607C227.088 121.532 227.045 121.463 226.99 121.406H226.97Z" fill="#1F264C"/>
<path d="M177.559 110.186C177.437 110.049 177.358 109.878 177.333 109.696C177.308 109.513 177.337 109.328 177.418 109.162C177.498 108.996 177.626 108.858 177.785 108.766C177.944 108.673 178.127 108.629 178.311 108.64C178.495 108.652 178.671 108.717 178.817 108.829C178.964 108.94 179.074 109.093 179.134 109.267C179.194 109.441 179.2 109.629 179.153 109.807C179.106 109.985 179.007 110.145 178.869 110.266C178.685 110.429 178.443 110.512 178.198 110.497C177.952 110.482 177.722 110.37 177.559 110.186ZM178.769 109.116C178.677 109.018 178.558 108.949 178.427 108.917C178.296 108.886 178.158 108.893 178.031 108.939C177.904 108.985 177.794 109.067 177.713 109.175C177.632 109.283 177.585 109.412 177.577 109.547C177.569 109.681 177.6 109.815 177.667 109.932C177.735 110.049 177.835 110.144 177.955 110.204C178.076 110.265 178.211 110.289 178.345 110.273C178.479 110.258 178.606 110.203 178.709 110.116C178.781 110.056 178.84 109.982 178.882 109.898C178.924 109.814 178.949 109.723 178.954 109.629C178.96 109.536 178.946 109.442 178.914 109.354C178.883 109.266 178.833 109.185 178.769 109.116Z" fill="#1F264C"/>
<path d="M219.26 87.8965C219.126 87.7402 219.059 87.5377 219.072 87.3323C219.085 87.1268 219.178 86.9346 219.33 86.7965C219.446 86.6944 219.59 86.629 219.743 86.6085C219.896 86.588 220.051 86.6133 220.19 86.6812C220.328 86.7492 220.444 86.8567 220.521 86.9902C220.598 87.1236 220.635 87.2771 220.625 87.4311C220.615 87.5851 220.56 87.7328 220.466 87.8553C220.372 87.9779 220.244 88.07 220.098 88.1198C219.952 88.1696 219.795 88.175 219.645 88.1353C219.496 88.0955 219.362 88.0124 219.26 87.8965ZM220.26 87.0365C220.211 86.9857 220.152 86.9453 220.087 86.9178C220.021 86.8902 219.951 86.876 219.88 86.876C219.81 86.876 219.739 86.8902 219.674 86.9178C219.609 86.9453 219.55 86.9857 219.5 87.0365C219.428 87.1112 219.379 87.2057 219.36 87.3081C219.34 87.4105 219.352 87.5163 219.392 87.6122C219.433 87.7082 219.501 87.7901 219.588 87.8477C219.674 87.9053 219.776 87.936 219.88 87.936C219.985 87.936 220.087 87.9053 220.173 87.8477C220.26 87.7901 220.328 87.7082 220.369 87.6122C220.409 87.5163 220.421 87.4105 220.401 87.3081C220.382 87.2057 220.333 87.1112 220.26 87.0365Z" fill="#1F264C"/>
<path d="M220.718 95.6259C220.616 95.5102 220.551 95.3668 220.53 95.2138C220.51 95.0609 220.535 94.9053 220.603 94.7667C220.671 94.6281 220.779 94.5128 220.912 94.4354C221.046 94.358 221.199 94.3219 221.353 94.3317C221.507 94.3415 221.655 94.3967 221.777 94.4905C221.9 94.5842 221.992 94.7122 222.042 94.8582C222.091 95.0043 222.097 95.1619 222.057 95.311C222.017 95.4601 221.934 95.5941 221.818 95.6959C221.662 95.8299 221.46 95.8975 221.254 95.8845C221.049 95.8714 220.856 95.7786 220.718 95.6259ZM221.718 94.7559C221.643 94.6799 221.547 94.628 221.442 94.6067C221.337 94.5854 221.228 94.5958 221.129 94.6366C221.03 94.6773 220.946 94.7465 220.886 94.8354C220.827 94.9243 220.795 95.0289 220.795 95.1359C220.795 95.243 220.827 95.3476 220.886 95.4365C220.946 95.5254 221.03 95.5946 221.129 95.6353C221.228 95.676 221.337 95.6864 221.442 95.6652C221.547 95.6439 221.643 95.592 221.718 95.5159C221.815 95.4123 221.868 95.2755 221.866 95.1339C221.864 94.9924 221.808 94.857 221.708 94.7559H221.718Z" fill="#1F264C"/>
<path d="M233.52 109.176C233.397 109.066 233.298 108.931 233.231 108.781C233.163 108.63 233.129 108.466 233.129 108.301C233.129 108.136 233.164 107.972 233.232 107.821C233.301 107.671 233.4 107.536 233.523 107.427C233.647 107.317 233.793 107.235 233.951 107.186C234.109 107.137 234.275 107.121 234.439 107.141C234.603 107.161 234.761 107.215 234.903 107.301C235.044 107.386 235.166 107.5 235.26 107.636C235.378 107.748 235.471 107.883 235.533 108.033C235.595 108.183 235.626 108.344 235.623 108.506C235.619 108.669 235.582 108.828 235.514 108.975C235.446 109.123 235.348 109.254 235.226 109.361C235.104 109.468 234.961 109.549 234.807 109.598C234.652 109.647 234.489 109.663 234.327 109.646C234.166 109.629 234.01 109.578 233.87 109.497C233.729 109.416 233.607 109.307 233.51 109.176H233.52ZM235.091 107.796C234.929 107.612 234.7 107.499 234.456 107.484C234.211 107.468 233.97 107.55 233.785 107.711C233.601 107.873 233.489 108.101 233.473 108.346C233.457 108.591 233.539 108.832 233.701 109.016C233.862 109.199 234.089 109.31 234.332 109.327C234.575 109.344 234.815 109.265 235.001 109.106C235.183 108.943 235.295 108.714 235.312 108.47C235.329 108.225 235.249 107.983 235.091 107.796Z" fill="#1F264C"/>
<path d="M149.368 171.545C151.028 167.885 155.208 165.955 159.218 165.665C163.228 165.375 167.218 166.425 171.128 167.145C175.038 167.865 179.288 168.235 182.998 166.695C189.868 163.845 192.638 155.695 197.928 150.445C199.264 149.126 200.762 147.983 202.388 147.045C216.138 139.045 235.778 139.635 246.988 151.345C248.568 152.755 248.458 155.635 246.698 156.435C242.858 158.435 238.038 156.105 233.918 157.965C233.441 158.192 233.028 158.536 232.718 158.965C231.998 167.805 225.558 172.375 217.568 167.245C216.704 167.044 215.815 166.963 214.928 167.005C213.467 167.109 212.061 167.607 210.858 168.445C209.632 169.282 208.534 170.292 207.598 171.445C205.718 173.725 204.238 176.335 202.098 178.355C196.248 183.875 187.098 183.705 179.198 182.155C171.298 180.605 163.198 178.015 155.368 179.885C152.858 180.485 150.368 181.545 147.828 181.455C145.288 181.365 142.448 179.615 142.398 177.035L144.108 175.745" fill="#4FA87B"/>
<path d="M173.59 167.805L173.69 167.595C186.3 173.735 197.18 165.285 207.69 157.115C208.6 156.415 209.5 155.705 210.41 155.015C215.425 151.314 221.641 149.62 227.84 150.265C230.813 150.5 233.739 151.153 236.53 152.205L236.43 152.425C236.29 152.365 221.95 146.485 210.56 155.205C209.65 155.895 208.75 156.605 207.84 157.305C197.26 165.515 186.33 174.015 173.59 167.805Z" fill="#1F264C"/>
<path d="M181.31 132.796C183.77 127.316 188.26 122.406 194.04 120.956C199.82 119.506 206.9 122.406 208.73 128.126C212.07 122.966 215.66 117.596 221.12 114.776C226.58 111.956 234.46 112.846 237.36 118.266C237.937 119.423 238.254 120.692 238.289 121.984C238.324 123.276 238.075 124.56 237.56 125.746C237.077 126.968 236.347 128.077 235.416 129.005C234.485 129.932 233.373 130.658 232.15 131.136C233.15 129.246 235.86 129.926 236.97 131.316C237.283 131.742 237.503 132.23 237.615 132.747C237.727 133.264 237.728 133.799 237.62 134.316C237.363 135.387 236.828 136.372 236.07 137.17C235.311 137.969 234.356 138.554 233.3 138.866C228.06 139.866 222.24 138.446 218.4 143.016C212.64 150.116 206.89 156.736 199.56 162.086C198.4 163.016 197.21 163.916 196.01 164.796C194.81 165.676 193.57 166.506 192.32 167.306C188.97 169.446 185.32 171.386 181.32 171.476C176.58 171.576 171.98 169.046 167.32 169.726C159.89 170.816 154.77 179.576 147.27 179.116C141.84 178.786 138.27 172.926 138.64 167.846C139.23 160.596 146.77 157.006 153.13 155.906C159.13 154.906 165.13 155.846 170.64 152.336C172.428 151.179 173.954 149.66 175.12 147.876C178.06 143.436 179.1 137.716 181.31 132.796Z" fill="#63B78B"/>
<path d="M150.84 169.165C150.91 169.085 157.72 161.305 176.41 160.495C189.77 159.915 198.36 148.825 204.63 140.735C207.18 137.445 209.38 134.595 211.38 133.145C218.21 128.145 229.25 128.475 229.38 128.475V128.715C229.27 128.715 218.3 128.415 211.54 133.335C209.54 134.775 207.38 137.605 204.84 140.885C198.54 149.015 189.91 160.145 176.44 160.735C157.86 161.535 151.11 169.245 151.05 169.325L150.84 169.165Z" fill="#1F264C"/>
<path d="M176.459 160.725L176.379 160.495C186.069 157.405 190.379 148.835 192.379 142.185C193.652 137.687 194.285 133.031 194.259 128.355H194.499C194.518 133.06 193.868 137.744 192.569 142.265C190.649 148.955 186.259 157.605 176.459 160.725Z" fill="#1F264C"/>
<path d="M206.84 137.956C208.847 136.139 211.219 134.771 213.797 133.945C216.375 133.119 219.101 132.853 221.79 133.166C224.248 133.428 226.637 134.136 228.84 135.256L228.72 135.466C226.531 134.36 224.159 133.662 221.72 133.406C219.066 133.098 216.377 133.361 213.834 134.177C211.29 134.993 208.95 136.343 206.97 138.136L206.84 137.956Z" fill="#1F264C"/>
<path d="M173.11 160.957L173.02 160.727C181.95 157.397 184.92 151.907 185.83 147.877C186.426 145.237 186.374 142.492 185.68 139.877L185.91 139.807C186.621 142.467 186.676 145.26 186.07 147.947C185.15 152.007 182.15 157.587 173.11 160.957Z" fill="#1F264C"/>
<path d="M206.56 158.296L206.48 158.066C214.6 155.216 219.54 156.386 222.26 157.866C223.978 158.75 225.376 160.148 226.26 161.866L226.03 161.956C225.149 160.302 223.785 158.956 222.12 158.096C219.45 156.616 214.58 155.476 206.56 158.296Z" fill="#1F264C"/>
<path d="M194.158 126.256C194.05 126.014 194.041 125.74 194.135 125.493C194.229 125.245 194.417 125.045 194.658 124.936C194.899 124.826 195.174 124.816 195.423 124.909C195.671 125.002 195.873 125.19 195.983 125.431C196.093 125.672 196.103 125.947 196.01 126.196C195.917 126.444 195.729 126.646 195.488 126.756C195.368 126.811 195.238 126.842 195.106 126.846C194.974 126.851 194.842 126.83 194.719 126.783C194.595 126.737 194.482 126.666 194.385 126.576C194.289 126.485 194.212 126.376 194.158 126.256ZM195.758 125.536C195.664 125.372 195.513 125.249 195.333 125.19C195.154 125.132 194.959 125.142 194.786 125.22C194.614 125.297 194.477 125.436 194.401 125.609C194.326 125.782 194.317 125.977 194.378 126.156C194.463 126.336 194.614 126.477 194.801 126.548C194.988 126.619 195.194 126.614 195.378 126.536C195.469 126.496 195.551 126.438 195.62 126.366C195.689 126.294 195.742 126.209 195.777 126.116C195.813 126.022 195.829 125.923 195.826 125.824C195.823 125.724 195.799 125.626 195.758 125.536Z" fill="#1F264C"/>
<path d="M226.801 163.597C226.748 163.5 226.715 163.392 226.706 163.282C226.697 163.171 226.71 163.06 226.746 162.955C226.782 162.85 226.839 162.754 226.914 162.673C226.989 162.591 227.08 162.526 227.182 162.481C227.283 162.437 227.393 162.414 227.504 162.414C227.615 162.414 227.724 162.437 227.826 162.482C227.927 162.527 228.018 162.592 228.093 162.674C228.168 162.755 228.225 162.852 228.261 162.957C228.306 163.052 228.331 163.156 228.335 163.262C228.339 163.367 228.322 163.473 228.285 163.571C228.247 163.67 228.191 163.761 228.118 163.837C228.045 163.914 227.958 163.975 227.861 164.017C227.664 164.101 227.443 164.104 227.244 164.025C227.046 163.946 226.886 163.792 226.801 163.597ZM228.041 163.037C227.995 162.936 227.921 162.851 227.827 162.792C227.733 162.733 227.624 162.703 227.513 162.707C227.402 162.71 227.295 162.746 227.205 162.811C227.114 162.875 227.045 162.965 227.006 163.068C226.967 163.172 226.959 163.285 226.984 163.393C227.009 163.501 227.066 163.599 227.147 163.675C227.227 163.751 227.329 163.801 227.438 163.819C227.547 163.837 227.66 163.823 227.761 163.777C227.896 163.716 228.001 163.603 228.054 163.465C228.106 163.326 228.102 163.172 228.041 163.037Z" fill="#1F264C"/>
<path d="M183.959 137.956C183.883 137.788 183.858 137.602 183.887 137.42C183.916 137.238 183.999 137.07 184.124 136.935C184.25 136.8 184.412 136.706 184.592 136.663C184.771 136.621 184.958 136.633 185.131 136.698C185.303 136.762 185.453 136.876 185.56 137.026C185.667 137.175 185.728 137.353 185.734 137.537C185.741 137.721 185.692 137.903 185.595 138.059C185.498 138.215 185.357 138.34 185.189 138.416C184.965 138.517 184.71 138.526 184.479 138.44C184.249 138.354 184.062 138.179 183.959 137.956ZM185.429 137.286C185.394 137.203 185.342 137.129 185.277 137.067C185.212 137.005 185.135 136.957 185.051 136.925C184.967 136.893 184.878 136.879 184.788 136.882C184.699 136.886 184.61 136.907 184.529 136.946C184.362 137.02 184.232 137.158 184.166 137.328C184.1 137.499 184.105 137.688 184.179 137.856C184.257 138.019 184.396 138.146 184.566 138.209C184.735 138.273 184.923 138.268 185.089 138.196C185.246 138.121 185.369 137.99 185.432 137.828C185.496 137.666 185.494 137.487 185.429 137.326V137.286Z" fill="#1F264C"/>
<path d="M230.318 128.717C230.246 128.53 230.248 128.324 230.324 128.14C230.4 127.955 230.543 127.807 230.725 127.725C230.907 127.643 231.113 127.634 231.301 127.699C231.49 127.765 231.646 127.9 231.738 128.077C231.787 128.171 231.816 128.274 231.824 128.38C231.831 128.485 231.817 128.592 231.783 128.692C231.748 128.792 231.693 128.884 231.621 128.963C231.55 129.041 231.463 129.104 231.366 129.147C231.269 129.191 231.165 129.214 231.059 129.216C230.953 129.218 230.847 129.198 230.749 129.158C230.651 129.117 230.562 129.057 230.488 128.982C230.414 128.906 230.356 128.816 230.318 128.717ZM231.518 128.177C231.474 128.079 231.403 127.996 231.312 127.939C231.222 127.881 231.117 127.852 231.01 127.855C230.903 127.858 230.799 127.893 230.711 127.955C230.624 128.017 230.557 128.103 230.519 128.203C230.481 128.303 230.474 128.412 230.498 128.517C230.522 128.621 230.576 128.716 230.654 128.789C230.733 128.862 230.831 128.911 230.936 128.928C231.042 128.945 231.15 128.931 231.248 128.887C231.377 128.828 231.478 128.72 231.529 128.587C231.579 128.454 231.575 128.307 231.518 128.177Z" fill="#1F264C"/>
<path d="M229.49 136.537C229.418 136.351 229.42 136.144 229.496 135.96C229.572 135.776 229.715 135.627 229.897 135.545C230.079 135.464 230.285 135.454 230.473 135.52C230.662 135.585 230.818 135.72 230.91 135.897C230.959 135.991 230.988 136.094 230.995 136.2C231.003 136.306 230.989 136.412 230.954 136.512C230.92 136.613 230.865 136.705 230.793 136.783C230.722 136.861 230.635 136.924 230.538 136.968C230.441 137.011 230.337 137.035 230.231 137.036C230.124 137.038 230.019 137.018 229.921 136.978C229.823 136.938 229.734 136.878 229.66 136.802C229.586 136.726 229.528 136.636 229.49 136.537ZM230.69 135.997C230.631 135.864 230.523 135.76 230.388 135.708C230.253 135.655 230.102 135.658 229.97 135.717C229.837 135.775 229.733 135.884 229.68 136.019C229.628 136.154 229.631 136.304 229.69 136.437C229.748 136.569 229.857 136.673 229.992 136.726C230.127 136.778 230.277 136.775 230.41 136.717C230.542 136.658 230.646 136.55 230.699 136.415C230.751 136.28 230.748 136.129 230.69 135.997Z" fill="#1F264C"/>
<path d="M237.82 153.217C237.724 153.007 237.693 152.772 237.73 152.544C237.767 152.316 237.872 152.103 238.029 151.934C238.187 151.765 238.392 151.647 238.617 151.594C238.842 151.541 239.078 151.556 239.295 151.637C239.512 151.718 239.699 151.861 239.835 152.049C239.97 152.237 240.046 152.461 240.054 152.692C240.062 152.923 240.001 153.152 239.88 153.348C239.758 153.545 239.581 153.701 239.37 153.797C239.087 153.923 238.766 153.933 238.476 153.824C238.186 153.716 237.951 153.498 237.82 153.217ZM239.73 152.347C239.654 152.18 239.53 152.038 239.373 151.941C239.217 151.844 239.035 151.796 238.851 151.802C238.667 151.808 238.489 151.869 238.34 151.976C238.191 152.084 238.076 152.233 238.012 152.406C237.948 152.578 237.936 152.766 237.978 152.945C238.02 153.124 238.115 153.287 238.249 153.412C238.384 153.538 238.553 153.62 238.735 153.65C238.916 153.679 239.103 153.654 239.27 153.577C239.494 153.475 239.668 153.288 239.754 153.057C239.84 152.827 239.832 152.571 239.73 152.347Z" fill="#1F264C"/>
<path d="M79.1598 171.606C78.967 172.255 78.9125 172.936 78.9998 173.606C79.1013 174.214 79.3559 174.785 79.7398 175.266C79.0961 175.029 78.5244 174.629 78.0798 174.106C77.7354 173.724 77.4698 173.277 77.2982 172.791C77.1266 172.305 77.0524 171.791 77.0798 171.276C77.2498 169.996 78.3198 169.366 78.7598 169.746C79.1998 170.126 79.2598 170.956 79.1598 171.606Z" fill="#1D3B4C"/>
<path d="M85.6281 173.956C85.4299 174.603 85.372 175.285 85.4581 175.956C85.5669 176.561 85.8208 177.131 86.1981 177.616C85.5544 177.378 84.9828 176.979 84.5381 176.456C84.1909 176.075 83.9235 175.628 83.7518 175.142C83.58 174.656 83.5074 174.141 83.5381 173.626C83.7081 172.346 84.7681 171.716 85.2081 172.096C85.4185 172.352 85.5661 172.653 85.639 172.976C85.712 173.299 85.7082 173.635 85.6281 173.956Z" fill="#1D3B4C"/>
<path d="M92.1984 176.876C92.0002 177.523 91.9423 178.205 92.0284 178.876C92.1372 179.481 92.3911 180.051 92.7684 180.536C92.1248 180.298 91.5531 179.899 91.1084 179.376C90.7612 178.995 90.4938 178.548 90.3221 178.062C90.1503 177.576 90.0777 177.061 90.1084 176.546C90.2784 175.266 91.3384 174.636 91.7784 175.016C91.9888 175.272 92.1364 175.573 92.2094 175.896C92.2823 176.219 92.2785 176.555 92.1984 176.876Z" fill="#1D3B4C"/>
<path d="M77.2589 177.676C77.473 177.073 77.8141 176.524 78.2589 176.066C78.6725 175.678 79.1786 175.402 79.7289 175.266C79.1233 175.076 78.4785 175.048 77.8589 175.186C77.3931 175.275 76.9498 175.456 76.5549 175.719C76.16 175.982 75.8214 176.32 75.5589 176.716C74.9689 177.766 75.4089 178.816 75.9389 178.786C76.4689 178.756 76.9089 178.206 77.2589 177.676Z" fill="#1D3B4C"/>
<path d="M83.9588 180.066C84.1713 179.463 84.5125 178.914 84.9588 178.456C85.3725 178.068 85.8786 177.793 86.4288 177.656C85.6697 177.425 84.8571 177.442 84.1078 177.702C83.3585 177.963 82.7112 178.454 82.2588 179.106C81.6788 180.106 82.1188 181.206 82.6488 181.176C83.1788 181.146 83.6388 180.596 83.9588 180.066Z" fill="#1D3B4C"/>
<path d="M72.8892 172.036C72.8857 172.449 72.9782 172.856 73.1592 173.226C73.3244 173.551 73.5685 173.83 73.8692 174.036C73.4626 174.01 73.0682 173.886 72.7192 173.676C72.1912 173.358 71.8103 172.844 71.6592 172.246C71.5392 171.496 72.0292 170.946 72.3392 171.086C72.6492 171.226 72.8092 171.646 72.8892 172.036Z" fill="#1D3B4C"/>
<path d="M71.8271 175.076C72.0455 174.729 72.3353 174.433 72.6771 174.206C72.9804 174.022 73.3231 173.912 73.6771 173.886C73.3205 173.695 72.9218 173.595 72.5171 173.596C72.2128 173.59 71.9102 173.644 71.6269 173.756C71.3437 173.867 71.0854 174.034 70.8671 174.246C70.3671 174.826 70.4971 175.546 70.8671 175.606C71.2371 175.666 71.5571 175.366 71.8271 175.076Z" fill="#1D3B4C"/>
<path d="M86.7685 146.515C94.0518 158.239 99.2897 171.116 102.259 184.595H103.039C99.9284 171.177 94.6092 158.369 87.2985 146.695C85.6585 144.075 83.8585 140.955 80.7285 139.955C80.6685 139.955 80.6485 140.025 80.7285 140.045C83.5585 141.125 85.2585 144.065 86.7685 146.515Z" fill="#1D3B4C"/>
<path d="M100.83 184.596C92.4128 173.078 82.3874 162.827 71.0598 154.156C70.9498 154.066 70.7898 154.266 70.9098 154.356C82.0118 162.999 91.824 173.181 100.05 184.596H100.83Z" fill="#1D3B4C"/>
<path d="M86.1206 139.526C85.6116 140.075 85.2322 140.731 85.0106 141.446C84.8413 142.102 84.8413 142.79 85.0106 143.446C84.4871 142.919 84.1113 142.264 83.9206 141.546C83.7579 141.016 83.7033 140.459 83.76 139.908C83.8167 139.356 83.9835 138.822 84.2506 138.336C85.0106 137.156 86.3306 137.036 86.5906 137.606C86.6599 137.941 86.6537 138.287 86.5724 138.619C86.4911 138.951 86.3368 139.261 86.1206 139.526Z" fill="#1D3B4C"/>
<path d="M84.3984 149.585C84.9243 149.067 85.56 148.674 86.2584 148.435C86.8913 148.243 87.5634 148.218 88.2084 148.365C87.5365 147.728 86.6795 147.321 85.7611 147.202C84.8426 147.083 83.9102 147.26 83.0984 147.705C81.9484 148.485 81.8484 149.815 82.4284 150.065C83.0084 150.315 83.7784 149.955 84.3984 149.585Z" fill="#1D3B4C"/>
<path d="M86.9876 153.955C87.5295 153.445 88.1738 153.056 88.8776 152.815C89.5264 152.616 90.2164 152.592 90.8776 152.745C90.3402 152.231 89.6786 151.866 88.9576 151.685C88.4263 151.533 87.8699 151.49 87.3217 151.559C86.7735 151.628 86.2449 151.807 85.7676 152.085C84.6076 152.865 84.5176 154.195 85.0876 154.445C85.4207 154.511 85.7646 154.502 86.0935 154.417C86.4225 154.332 86.7281 154.174 86.9876 153.955Z" fill="#1D3B4C"/>
<path d="M77.7403 164.216C78.2765 163.696 78.9223 163.303 79.6303 163.066C80.2808 162.877 80.9682 162.853 81.6303 162.996C80.9584 162.359 80.1014 161.952 79.1829 161.833C78.2645 161.714 77.3321 161.89 76.5203 162.336C75.3703 163.116 75.2703 164.456 75.8503 164.696C76.4303 164.936 77.1203 164.596 77.7403 164.216Z" fill="#1D3B4C"/>
<path d="M73.0098 160.036C73.5444 159.515 74.1907 159.121 74.8998 158.886C75.5483 158.685 76.2389 158.661 76.8998 158.816C76.2279 158.179 75.3709 157.772 74.4525 157.653C73.534 157.535 72.6016 157.711 71.7898 158.156C70.6398 158.936 70.5398 160.266 71.1198 160.516C71.6998 160.766 72.3898 160.416 73.0098 160.036Z" fill="#1D3B4C"/>
<path d="M89.7493 144.515C89.1634 144.977 88.6884 145.565 88.3593 146.235C88.0874 146.84 87.9672 147.503 88.0093 148.165C87.587 147.573 87.3189 146.886 87.2293 146.165C87.1547 145.615 87.1905 145.056 87.3348 144.52C87.479 143.985 87.7287 143.483 88.0693 143.045C88.9993 142.045 90.3293 142.045 90.4893 142.695C90.6493 143.345 90.2593 143.955 89.7493 144.515Z" fill="#1D3B4C"/>
<path d="M93.5576 149.504C92.7838 149.761 92.0931 150.22 91.5576 150.834C91.1268 151.413 90.8889 152.113 90.8776 152.834C90.4118 152.037 90.1507 151.137 90.1176 150.214C90.0672 149.613 90.1744 149.009 90.4287 148.462C90.683 147.915 91.0755 147.444 91.5676 147.094C92.9076 146.334 94.5676 147.014 94.7476 147.754C94.9276 148.494 94.2576 149.094 93.5576 149.504Z" fill="#1D3B4C"/>
<path d="M97.5801 157.087C96.7683 157.21 96.0066 157.556 95.3801 158.087C94.8582 158.589 94.5082 159.244 94.3801 159.957C94.0585 159.088 93.9522 158.155 94.0701 157.237C94.1262 156.631 94.3405 156.051 94.6916 155.554C95.0426 155.057 95.518 154.662 96.0701 154.407C97.5201 153.887 99.0701 154.837 99.0701 155.597C99.0701 156.357 98.3101 156.787 97.5801 157.087Z" fill="#1D3B4C"/>
<path d="M85.6872 162.355C85.0712 162.602 84.535 163.014 84.1372 163.545C83.8195 164.042 83.6656 164.626 83.6972 165.215C83.2743 164.591 83.0099 163.874 82.9272 163.125C82.8529 162.639 82.9059 162.142 83.0812 161.683C83.2565 161.224 83.548 160.818 83.9272 160.505C84.9272 159.815 86.3972 160.265 86.5472 160.855C86.6972 161.445 86.2572 161.955 85.6872 162.355Z" fill="#1D3B4C"/>
<path d="M79.5081 141.296C79.8075 140.97 80.172 140.711 80.5781 140.536C80.9458 140.402 81.3399 140.358 81.7281 140.406C81.3863 140.13 80.9805 139.944 80.5481 139.866C80.2269 139.8 79.8957 139.8 79.5744 139.865C79.2531 139.931 78.9483 140.06 78.6781 140.246C78.0281 140.756 78.0281 141.546 78.3781 141.666C78.5822 141.696 78.7906 141.678 78.9868 141.614C79.1829 141.55 79.3614 141.441 79.5081 141.296Z" fill="#1D3B4C"/>
<path d="M80.9477 138.077C80.866 138.515 80.8831 138.966 80.9977 139.397C81.1097 139.776 81.3161 140.12 81.5977 140.397C81.0616 140.272 80.5792 139.98 80.2197 139.563C79.8603 139.146 79.6425 138.626 79.5977 138.077C79.5977 137.247 80.2377 136.767 80.5377 136.967C80.8377 137.167 80.9377 137.647 80.9477 138.077Z" fill="#1D3B4C"/>
<path d="M69.5976 155.777C69.8915 155.445 70.2576 155.185 70.6676 155.017C71.0327 154.872 71.4295 154.827 71.8176 154.887C71.3915 154.541 70.8676 154.339 70.3201 154.309C69.7726 154.278 69.2294 154.421 68.7676 154.717C68.1176 155.237 68.1276 156.027 68.4676 156.147C68.8076 156.267 69.2576 156.027 69.5976 155.777Z" fill="#1D3B4C"/>
<path d="M71.339 152.526C71.2444 152.957 71.2444 153.404 71.339 153.836C71.42 154.222 71.5952 154.583 71.849 154.886C71.4353 154.742 71.0616 154.502 70.759 154.186C70.2989 153.709 70.0472 153.068 70.059 152.406C70.129 151.576 70.799 151.146 71.059 151.406C71.319 151.666 71.359 152.096 71.339 152.526Z" fill="#1D3B4C"/>
<path d="M72.5478 173.837C74.6188 174.039 76.6693 174.413 78.6778 174.957C82.3326 175.985 85.9031 177.292 89.3578 178.867C91.0578 179.607 92.7778 180.347 94.4578 181.157C95.2504 181.522 96.0157 181.943 96.7478 182.417C97.684 183.085 98.5759 183.813 99.4178 184.597H98.6278C96.9869 183.225 95.1834 182.059 93.2578 181.127C86.6778 177.957 79.8478 174.697 72.5078 173.897C72.5078 173.887 72.5178 173.827 72.5478 173.837Z" fill="#1D3B4C"/>
<path d="M157.069 175.135C155.589 171.395 151.509 169.265 147.519 168.795C143.529 168.325 139.519 169.165 135.519 169.705C131.519 170.245 127.319 170.405 123.689 168.705C116.949 165.525 114.579 157.245 109.539 151.765C108.27 150.384 106.832 149.168 105.259 148.145C91.8989 139.535 72.2589 139.145 60.4989 150.325C58.8489 151.665 58.8289 154.545 60.4989 155.435C64.2389 157.585 69.1689 155.505 73.1989 157.565C73.6636 157.819 74.0559 158.188 74.3389 158.635C74.6489 167.495 80.8589 172.365 89.0889 167.635C89.9626 167.475 90.8542 167.434 91.7389 167.515C93.194 167.691 94.5752 168.254 95.7389 169.145C96.9274 170.049 97.9783 171.12 98.8589 172.325C100.619 174.685 101.979 177.325 104.019 179.485C109.609 185.285 118.759 185.545 126.719 184.365C134.679 183.185 142.889 180.985 150.629 183.235C153.099 183.945 155.509 185.115 158.079 185.155C160.649 185.195 163.549 183.565 163.719 180.995L162.069 179.625" fill="#63B78B"/>
<path d="M133.06 170.255L132.97 170.025C120.09 175.565 109.62 166.615 99.4997 157.955L96.8897 155.725C92.0557 151.796 85.9291 149.813 79.7097 150.165C76.7261 150.256 73.7703 150.768 70.9297 151.685L71.0197 151.915C71.1597 151.915 85.7597 146.655 96.7297 155.915C97.5997 156.645 98.4697 157.395 99.3397 158.135C109.52 166.845 120.04 175.845 133.06 170.255Z" fill="#1F264C"/>
<path d="M126.997 134.957C124.807 129.377 120.587 124.257 114.847 122.507C109.107 120.757 101.927 123.347 99.847 128.977C96.757 123.677 93.427 118.137 88.107 115.067C82.787 111.997 74.857 112.447 71.707 117.727C71.0743 118.854 70.697 120.107 70.602 121.396C70.507 122.685 70.6964 123.979 71.157 125.187C71.575 126.427 72.2435 127.567 73.1208 128.537C73.9982 129.508 75.0657 130.287 76.257 130.827C75.307 128.897 72.607 129.447 71.437 130.827C71.096 131.24 70.8488 131.722 70.7124 132.24C70.576 132.758 70.5537 133.3 70.647 133.827C70.8514 134.91 71.3369 135.919 72.0548 136.755C72.7727 137.59 73.6977 138.222 74.737 138.587C79.927 139.787 85.817 138.687 89.427 143.437C94.857 150.807 100.277 157.687 107.347 163.377C108.467 164.357 109.607 165.314 110.767 166.247C111.927 167.181 113.117 168.074 114.337 168.927C117.577 171.227 121.167 173.337 125.137 173.617C129.857 173.947 134.577 171.617 139.227 172.537C146.597 173.967 151.307 182.967 158.807 182.857C164.247 182.787 168.137 177.107 167.967 172.007C167.717 164.747 160.357 160.807 154.057 159.407C148.057 158.087 142.057 158.777 136.737 155.007C135.005 153.768 133.551 152.18 132.467 150.347C129.747 145.697 128.977 139.957 126.997 134.957Z" fill="#4FA87B"/>
<path d="M155.718 172.686C155.648 172.606 149.218 164.506 130.588 162.806C117.258 161.596 109.258 150.116 103.338 141.736C100.948 138.326 98.8778 135.386 96.9478 133.836C90.3678 128.546 79.3178 128.326 79.2578 128.326V128.566C79.3678 128.566 90.3278 128.786 96.8478 134.026C98.7478 135.546 100.848 138.486 103.188 141.876C109.098 150.296 117.188 161.876 130.618 163.046C149.138 164.736 155.508 172.746 155.618 172.826L155.718 172.686Z" fill="#1F264C"/>
<path d="M130.529 163.045L130.619 162.815C121.079 159.265 117.139 150.495 115.509 143.765C114.437 139.211 114.016 134.528 114.259 129.855H114.019C113.776 134.559 114.204 139.273 115.289 143.855C116.919 150.615 120.899 159.455 130.529 163.045Z" fill="#1F264C"/>
<path d="M101.26 138.815C99.3422 136.906 97.0385 135.429 94.5034 134.482C91.9682 133.535 89.26 133.141 86.5602 133.325C84.0917 133.479 81.6704 134.071 79.4102 135.075L79.5202 135.295C81.7515 134.292 84.1477 133.706 86.5902 133.565C89.2513 133.381 91.9212 133.767 94.4216 134.696C96.922 135.626 99.1954 137.078 101.09 138.955L101.26 138.815Z" fill="#1F264C"/>
<path d="M133.867 163.426L133.957 163.206C125.197 159.456 122.497 153.826 121.767 149.766C121.298 147.094 121.483 144.349 122.307 141.766L122.077 141.686C121.244 144.309 121.055 147.094 121.527 149.806C122.257 153.956 124.997 159.636 133.867 163.426Z" fill="#1F264C"/>
<path d="M100.58 159.186L100.67 158.966C92.6705 155.726 87.6705 156.656 84.9205 157.966C83.1649 158.755 81.6999 160.073 80.7305 161.736L80.9405 161.846C81.9061 160.238 83.3352 158.958 85.0405 158.176C87.7805 156.896 92.7005 155.956 100.58 159.186Z" fill="#1F264C"/>
<path d="M113.128 128.207C112.9 128.081 112.73 127.872 112.653 127.624C112.577 127.375 112.601 127.106 112.719 126.875C112.837 126.643 113.041 126.467 113.288 126.383C113.534 126.3 113.803 126.315 114.038 126.427C114.159 126.484 114.267 126.565 114.356 126.665C114.445 126.765 114.513 126.882 114.556 127.008C114.599 127.135 114.616 127.269 114.607 127.403C114.597 127.536 114.561 127.666 114.5 127.785C114.439 127.904 114.355 128.01 114.252 128.096C114.15 128.182 114.031 128.247 113.903 128.286C113.775 128.325 113.641 128.339 113.507 128.325C113.374 128.311 113.245 128.271 113.128 128.207ZM113.258 127.957C113.392 128.028 113.544 128.057 113.695 128.04C113.846 128.024 113.988 127.963 114.104 127.865C114.22 127.768 114.304 127.637 114.345 127.491C114.386 127.346 114.383 127.191 114.335 127.047C114.288 126.903 114.198 126.776 114.078 126.684C113.958 126.591 113.813 126.536 113.662 126.526C113.511 126.517 113.36 126.553 113.229 126.629C113.098 126.706 112.994 126.82 112.928 126.957C112.843 127.134 112.83 127.337 112.892 127.523C112.953 127.709 113.085 127.865 113.258 127.957Z" fill="#1F264C"/>
<path d="M79.0275 163.875C78.8871 163.802 78.7712 163.69 78.6944 163.552C78.6177 163.414 78.5836 163.256 78.5964 163.099C78.6092 162.941 78.6683 162.791 78.7663 162.667C78.8643 162.543 78.9968 162.451 79.1471 162.402C79.2974 162.354 79.4588 162.35 79.6108 162.393C79.7629 162.436 79.8988 162.523 80.0016 162.643C80.1043 162.763 80.1692 162.911 80.188 163.068C80.2069 163.225 80.1789 163.384 80.1075 163.525C80.0093 163.713 79.8411 163.855 79.6391 163.92C79.4371 163.986 79.2175 163.969 79.0275 163.875ZM79.1375 163.655C79.269 163.721 79.4214 163.734 79.5618 163.689C79.7023 163.644 79.8193 163.545 79.8875 163.415C79.921 163.349 79.9413 163.277 79.9471 163.204C79.9529 163.13 79.9442 163.056 79.9214 162.986C79.8987 162.916 79.8623 162.851 79.8145 162.795C79.7666 162.739 79.7082 162.693 79.6425 162.66C79.5769 162.626 79.5053 162.606 79.4318 162.6C79.3583 162.594 79.2844 162.603 79.2143 162.626C79.1442 162.648 79.0792 162.685 79.0232 162.733C78.9671 162.78 78.921 162.839 78.8875 162.905C78.8215 163.037 78.8107 163.191 78.8576 163.331C78.9045 163.472 79.0051 163.588 79.1375 163.655Z" fill="#1F264C"/>
<path d="M122.857 140.375C122.748 140.32 122.651 140.244 122.572 140.151C122.493 140.058 122.433 139.95 122.395 139.834C122.358 139.718 122.344 139.595 122.355 139.473C122.366 139.352 122.401 139.233 122.457 139.125C122.508 139.008 122.582 138.903 122.675 138.817C122.768 138.73 122.878 138.663 122.998 138.62C123.118 138.578 123.245 138.56 123.372 138.568C123.499 138.577 123.623 138.611 123.736 138.67C123.849 138.728 123.949 138.809 124.03 138.907C124.11 139.006 124.17 139.12 124.205 139.242C124.239 139.364 124.249 139.492 124.232 139.619C124.215 139.745 124.173 139.866 124.107 139.975C124.052 140.084 123.976 140.181 123.883 140.261C123.79 140.34 123.683 140.4 123.566 140.437C123.45 140.474 123.327 140.488 123.206 140.477C123.084 140.467 122.966 140.432 122.857 140.375ZM122.967 140.165C123.126 140.228 123.303 140.23 123.463 140.169C123.624 140.109 123.756 139.992 123.834 139.84C123.913 139.688 123.932 139.512 123.888 139.347C123.844 139.182 123.741 139.038 123.597 138.945C123.517 138.893 123.426 138.857 123.33 138.842C123.235 138.827 123.138 138.832 123.045 138.856C122.951 138.881 122.864 138.925 122.789 138.985C122.714 139.046 122.652 139.121 122.608 139.207C122.564 139.293 122.538 139.387 122.532 139.483C122.527 139.579 122.541 139.675 122.575 139.766C122.609 139.856 122.661 139.938 122.729 140.007C122.796 140.076 122.878 140.13 122.967 140.165Z" fill="#1F264C"/>
<path d="M77.1971 128.856C77.1065 128.81 77.0258 128.747 76.9597 128.67C76.8936 128.593 76.8433 128.503 76.8117 128.407C76.7802 128.31 76.7679 128.208 76.7757 128.107C76.7835 128.006 76.8112 127.907 76.8571 127.816C76.9031 127.726 76.9665 127.645 77.0436 127.579C77.1207 127.513 77.2101 127.462 77.3067 127.431C77.4033 127.399 77.5051 127.387 77.6064 127.395C77.7077 127.403 77.8065 127.43 77.8971 127.476C78.0724 127.566 78.2058 127.721 78.2692 127.908C78.3327 128.094 78.3212 128.298 78.2371 128.476C78.1952 128.571 78.1347 128.656 78.0592 128.726C77.9837 128.797 77.8948 128.851 77.7977 128.887C77.7007 128.922 77.5975 128.938 77.4943 128.933C77.3911 128.927 77.2901 128.901 77.1971 128.856ZM77.3071 128.646C77.4026 128.695 77.5104 128.714 77.6167 128.701C77.723 128.688 77.823 128.644 77.9042 128.574C77.9853 128.504 78.0438 128.411 78.0722 128.308C78.1006 128.205 78.0978 128.096 78.0639 127.994C78.03 127.892 77.9667 127.803 77.882 127.738C77.7973 127.672 77.6951 127.633 77.5882 127.626C77.4814 127.619 77.3748 127.643 77.282 127.697C77.1892 127.75 77.1144 127.83 77.0671 127.926C77.0044 128.054 76.9944 128.201 77.0393 128.336C77.0842 128.47 77.1805 128.582 77.3071 128.646Z" fill="#1F264C"/>
<path d="M77.6484 136.706C77.5047 136.643 77.3836 136.538 77.3008 136.404C77.218 136.271 77.1774 136.115 77.1844 135.958C77.1913 135.802 77.2454 135.65 77.3396 135.525C77.4339 135.399 77.5638 135.305 77.7125 135.254C77.8612 135.204 78.0217 135.199 78.1729 135.242C78.3242 135.284 78.4592 135.37 78.5604 135.491C78.6615 135.611 78.724 135.759 78.7397 135.915C78.7554 136.071 78.7236 136.228 78.6484 136.366C78.5583 136.542 78.4037 136.675 78.2171 136.738C78.0305 136.802 77.8266 136.79 77.6484 136.706ZM77.7684 136.496C77.8639 136.545 77.9716 136.564 78.0779 136.551C78.1842 136.538 78.2843 136.494 78.3654 136.424C78.4465 136.354 78.505 136.262 78.5334 136.158C78.5619 136.055 78.559 135.946 78.5251 135.844C78.4913 135.743 78.428 135.653 78.3433 135.588C78.2586 135.522 78.1563 135.483 78.0495 135.476C77.9426 135.469 77.836 135.494 77.7433 135.547C77.6505 135.6 77.5757 135.68 77.5284 135.776C77.4656 135.904 77.4556 136.051 77.5006 136.186C77.5455 136.32 77.6417 136.432 77.7684 136.496Z" fill="#1F264C"/>
<path d="M68.0174 153.136C67.8142 153.03 67.6467 152.867 67.5358 152.667C67.425 152.467 67.3758 152.239 67.3945 152.011C67.4132 151.783 67.4989 151.565 67.6408 151.386C67.7828 151.206 67.9746 151.073 68.1922 151.002C68.4099 150.931 68.6435 150.927 68.8638 150.988C69.0841 151.05 69.2812 151.176 69.4304 151.349C69.5795 151.523 69.674 151.737 69.7019 151.964C69.7299 152.191 69.6901 152.421 69.5874 152.626C69.5186 152.763 69.4231 152.885 69.3067 152.985C69.1902 153.085 69.0551 153.161 68.909 153.209C68.763 153.256 68.6089 153.274 68.4559 153.261C68.3029 153.249 68.1538 153.206 68.0174 153.136ZM68.1274 152.926C68.2364 152.981 68.3552 153.014 68.477 153.023C68.5989 153.032 68.7213 153.018 68.8374 152.979C68.9535 152.941 69.0609 152.881 69.1536 152.801C69.2462 152.722 69.3223 152.625 69.3774 152.516C69.4622 152.3 69.4638 152.061 69.3818 151.845C69.2998 151.629 69.1402 151.451 68.9341 151.346C68.728 151.241 68.4902 151.217 68.2671 151.277C68.044 151.338 67.8516 151.48 67.7274 151.676C67.6685 151.786 67.6322 151.906 67.6204 152.031C67.6087 152.155 67.6218 152.28 67.659 152.399C67.6963 152.519 67.7569 152.629 67.8373 152.725C67.9177 152.82 68.0163 152.899 68.1274 152.956V152.926Z" fill="#1F264C"/>
<path d="M185.588 33.4859L185.048 33.3159L184.858 33.2559H184.658H184.458H184.268H184.048H183.858H183.628H183.448H183.178H116.828C116.528 33.2559 116.228 33.2559 115.938 33.3459L115.508 33.4259C113.519 33.8357 111.734 34.923 110.457 36.5024C109.181 38.0817 108.492 40.0551 108.508 42.0859V176.086C108.566 177.838 109.144 179.533 110.168 180.955C111.192 182.378 112.616 183.464 114.258 184.076L114.768 184.246H114.958L115.158 184.296H115.358H115.548H115.768H115.958H116.198H116.368H116.638H182.518C182.818 184.296 183.118 184.296 183.418 184.296C185.434 184.082 187.316 183.181 188.747 181.744C190.178 180.308 191.072 178.423 191.278 176.406C191.293 176.103 191.293 175.799 191.278 175.496V41.7959C191.288 39.9962 190.749 38.2363 189.732 36.7513C188.715 35.2664 187.27 34.1271 185.588 33.4859Z" fill="#1D3B4C"/>
<path d="M182.48 178.165H117.65C116.35 178.165 115.104 177.649 114.185 176.73C113.266 175.811 112.75 174.565 112.75 173.265V44.705C112.75 43.7555 113.127 42.8449 113.799 42.1736C114.47 41.5022 115.381 41.125 116.33 41.125H183.8C184.749 41.125 185.66 41.5022 186.331 42.1736C187.003 42.8449 187.38 43.7555 187.38 44.705V173.265C187.38 174.565 186.864 175.811 185.945 176.73C185.026 177.649 183.78 178.165 182.48 178.165Z" fill="#F7F7F7"/>
<path d="M150.278 38.7057C151.067 38.7057 151.708 38.0655 151.708 37.2757C151.708 36.4859 151.067 35.8457 150.278 35.8457C149.488 35.8457 148.848 36.4859 148.848 37.2757C148.848 38.0655 149.488 38.7057 150.278 38.7057Z" fill="white"/>
<path d="M257.65 184.896L260.14 184.686L259.51 153.496L252.84 159.396L257.65 184.896Z" fill="#406E82"/>
<path d="M207.789 184.886H204.809L209.799 159.066L216.479 161.636L207.789 184.886Z" fill="#406E82"/>
<path d="M246.608 185.255L244.508 185.535L242.098 165.175L249.958 159.275L246.608 185.255Z" fill="#406E82"/>
<path d="M218.337 184.886L219.417 184.896L214.637 159.186L213.527 159.396L218.337 184.886Z" fill="#1D3B4C"/>
<path d="M237.589 103.106C243.519 103.746 251.209 104.416 258.919 117.506C267.349 131.816 262.919 153.196 256.259 159.136C249.599 165.076 227.869 172.416 209.599 161.426C209.599 161.426 198.599 154.776 204.229 143.736C212.939 126.736 211.709 123.196 215.609 116.526C219.509 109.856 224.979 101.756 237.589 103.106Z" fill="#F7F7F7"/>
<path d="M258.919 117.505C253.659 108.565 248.399 105.415 243.709 104.115C245.828 106.363 247.674 108.854 249.209 111.535C257.639 125.845 253.209 147.225 246.549 153.165C240.649 158.435 222.889 164.795 206.199 158.515C207.199 159.632 208.342 160.61 209.599 161.425C227.869 172.425 249.599 165.075 256.259 159.135C262.919 153.195 267.349 131.815 258.919 117.505Z" fill="#DFF7F6"/>
<path d="M218.52 124.855L217 129.435L221.65 127.605L218.52 124.855Z" fill="#F79C8D"/>
<path d="M223.318 111.227C223.008 111.227 222.158 111.527 220.918 113.867C219.328 116.867 217.008 125.867 217.008 125.867L223.928 128.437L224.818 126.547L226.258 112.057C226.258 112.057 223.398 111.227 223.318 111.227Z" fill="#326600"/>
<path d="M232.469 109.955C229.38 110.054 226.312 110.49 223.318 111.255C223.318 111.255 221.648 125.565 224.818 136.435C225.528 138.875 224.228 146.525 224.228 146.525L244.738 146.255C244.738 146.255 242.309 127.755 243.229 124.765C244.149 121.775 244.169 111.355 244.169 111.355L239.559 110.565C237.214 110.183 234.844 109.979 232.469 109.955Z" fill="#99CC66"/>
<path d="M235.449 173.545C235.449 173.545 234.989 178.765 234.159 180.215C233.329 181.665 234.159 184.115 234.249 184.455C234.339 184.795 235.999 185.275 238.729 184.985C241.459 184.695 241.399 184.065 241.179 183.055C240.959 182.045 239.519 180.745 239.429 179.785C239.57 178.283 239.848 176.797 240.259 175.345L235.449 173.545Z" fill="#F7A491"/>
<path d="M226.548 142.186C226.548 142.186 212.388 141.406 209.228 143.316C206.068 145.226 209.798 149.146 209.798 149.146C209.798 149.146 221.328 154.146 240.618 155.246C245.188 155.516 245.618 143.376 244.728 142.366C243.838 141.356 226.548 142.186 226.548 142.186Z" fill="#3F1919"/>
<path d="M239.069 185.395C241.869 185.095 241.519 183.725 241.299 182.675C240.921 181.898 240.44 181.175 239.869 180.525C239.322 180.965 238.683 181.276 237.999 181.435C236.729 181.805 234.999 181.075 233.889 180.615C233.603 181.793 233.479 183.004 233.519 184.215C233.559 184.565 236.259 185.685 239.069 185.395Z" fill="#198444"/>
<path d="M236.929 152.286C236.359 156.556 233.559 177.796 233.559 177.796L240.059 178.606C240.059 178.606 248.059 150.876 247.639 146.606C247.219 142.336 244.239 142.006 244.239 142.006C244.239 142.006 238.429 140.956 236.929 152.286Z" fill="#4C2222"/>
<path d="M215.849 177.525C216.004 178.027 216.045 178.556 215.969 179.075C215.893 179.594 215.702 180.09 215.409 180.525C214.409 181.725 210.169 182.895 209.619 183.525C209.303 183.846 209.12 184.275 209.109 184.725L220.949 184.405L220.819 180.835L220.269 178.275L215.849 177.525Z" fill="#F7A491"/>
<path d="M214.668 181.127C214.668 181.127 217.668 182.357 219.178 181.637C220.688 180.917 220.608 180.707 221.028 180.977C221.448 181.247 221.608 184.887 221.608 184.887L208.258 184.957C207.338 184.957 206.868 184.257 207.618 183.677C208.078 183.352 208.563 183.064 209.068 182.817C210.893 182.123 212.764 181.558 214.668 181.127Z" fill="#198444"/>
<path d="M216.257 145.536C215.347 143.616 213.257 141.116 209.597 142.626C206.107 144.056 205.167 147.626 206.267 151.196C207.367 154.766 214.627 176.056 214.887 178.986H220.677C220.677 178.986 219.627 162.166 219.367 158.106C219.036 153.772 217.985 149.524 216.257 145.536Z" fill="#4C2222"/>
<path d="M207.608 119.846H223.768C224.198 119.846 224.578 120.236 224.768 120.846L229.488 139.696C229.678 140.446 229.308 141.246 228.788 141.236L213.258 140.956C212.558 140.956 211.928 140.326 211.648 139.346L206.648 122.166C206.328 121.056 206.838 119.846 207.608 119.846Z" fill="#603A8C"/>
<path d="M216.41 130.886C216.75 131.686 217.47 132.146 218.02 131.886C218.57 131.626 218.73 130.806 218.4 130.006C218.07 129.206 217.34 128.746 216.79 129.006C216.24 129.266 216.07 130.086 216.41 130.886Z" fill="white"/>
<path d="M234.818 103.795L235.768 110.045C235.768 110.045 232.998 113.835 230.928 113.195C229.198 112.655 229.578 109.715 229.578 109.715C229.578 109.715 230.518 106.175 230.238 104.405C229.958 102.635 234.818 103.795 234.818 103.795Z" fill="#F7A491"/>
<path opacity="0.2" d="M230.261 104.405C229.971 102.635 234.841 103.795 234.841 103.795L234.921 104.315C234.795 104.633 234.616 104.927 234.391 105.185C233.267 106.339 231.749 107.024 230.141 107.105C230.301 106.214 230.341 105.306 230.261 104.405Z" fill="#F47458"/>
<path d="M235.618 94.9559C235.758 94.9559 236.718 102.076 234.888 104.046C233.058 106.016 229.488 106.656 228.208 105.106C226.798 103.386 226.868 95.6859 229.708 93.6559C232.548 91.6259 235.618 94.9559 235.618 94.9559Z" fill="#F7A491"/>
<path d="M229.479 87.5453C232.179 92.0853 234.419 91.6253 234.949 92.1953C235.949 92.3153 237.309 92.8653 238.709 95.1953C239.423 96.4304 239.659 97.8847 239.371 99.2822C239.084 100.68 238.293 101.923 237.149 102.775C236.587 103.147 236.116 103.64 235.77 104.218C235.424 104.796 235.212 105.445 235.149 106.115L234.829 105.195C234.592 104.491 234.506 103.745 234.579 103.005C234.616 102.554 234.728 102.111 234.909 101.695C235.389 100.695 233.909 99.9653 233.439 99.1053C233.119 98.4353 233.099 96.9153 232.579 95.8253L231.969 94.9853C231.164 94.3714 230.156 94.0855 229.149 94.1853C227.769 94.4853 228.009 85.0653 229.479 87.5453Z" fill="#1D3B4C"/>
<path d="M233.559 100.367C233.559 101.247 233.939 101.957 234.449 101.967C234.959 101.977 235.369 101.277 235.389 100.397C235.409 99.5166 234.999 98.8066 234.499 98.8066C233.999 98.8066 233.569 99.4966 233.559 100.367Z" fill="#F7A491"/>
<path d="M231.088 102.796L228.328 102.646C228.339 102.96 228.473 103.257 228.701 103.473C228.93 103.688 229.234 103.805 229.548 103.796C231.018 103.956 231.088 102.796 231.088 102.796Z" fill="white"/>
<path d="M210.467 121.921L208.547 122.461L213.099 138.647L215.019 138.107L210.467 121.921Z" fill="#D0BEEA"/>
<path d="M221.541 121.913L219.621 122.453L224.173 138.639L226.093 138.099L221.541 121.913Z" fill="#D0BEEA"/>
<path d="M244.388 112.955C242.468 112.235 241.528 129.465 241.278 136.555C237.683 136.748 234.079 136.711 230.488 136.445C229.788 136.445 227.898 133.685 227.208 133.595C226.518 133.505 227.658 134.715 227.318 134.775C227.188 134.775 223.568 135.215 223.138 135.295C222.268 135.455 220.038 135.705 220.208 136.135C220.378 136.565 222.948 136.275 222.948 136.275L225.748 136.215C223.838 136.705 220.468 137.485 220.748 137.985C221.028 138.485 224.108 137.825 225.978 137.415C224.838 138.415 221.978 138.755 222.188 139.125C222.538 139.675 224.688 139.385 226.408 138.765C227.048 138.545 224.198 140.235 224.698 140.315C225.535 140.312 226.367 140.187 227.168 139.945L230.388 139.315C231.028 139.375 231.038 139.745 231.678 139.885C232.318 140.025 233.678 140.205 234.598 140.435C240.048 141.765 241.878 142.435 243.548 142.435C248.628 142.345 248.918 114.615 244.388 112.955Z" fill="#F7A491"/>
<path d="M247.659 135.446C248.019 128.186 248.339 112.876 244.249 111.346C242.639 110.746 238.249 111.946 239.939 135.596C242.509 135.869 245.102 135.819 247.659 135.446Z" fill="#326600"/>
<path d="M85.1086 121.505C85.5186 121.505 85.3886 119.685 85.7486 119.505C86.1086 119.325 86.7486 121.675 87.0586 121.685C87.7186 121.685 86.5786 119.065 86.8786 119.055C87.1786 119.045 88.4986 121.695 88.8786 121.285C89.2586 120.875 87.2586 118.665 87.5786 118.515C87.8986 118.365 89.3286 120.735 90.0586 120.515C90.4486 120.405 87.0586 116.765 87.1886 116.235C87.3186 115.705 89.3786 116.235 89.5686 115.835C89.7586 115.435 85.6886 115.085 85.4886 114.835C85.2886 114.585 74.3586 99.6753 73.3586 97.7953C73.9886 97.3953 72.8986 104.635 72.7586 105.285C72.3586 107.285 81.6486 115.045 82.9786 116.195C84.3086 117.345 84.1686 118.195 84.7086 119.065C85.2486 119.935 84.6986 121.465 85.1086 121.505Z" fill="#F7A491"/>
<path d="M73.9701 77.957C74.1536 75.009 73.5823 72.0628 72.3101 69.397C71.1501 67.047 68.3101 65.717 65.6701 65.707C57.3701 65.707 56.3101 76.387 51.0301 80.507C49.4501 81.747 47.6801 82.757 46.1701 84.077C46.149 84.9507 46.2844 85.8211 46.5701 86.647C48.2001 90.967 52.3601 93.417 56.3601 95.647C59.8781 97.4767 63.7662 98.4821 67.7301 98.587C69.0988 95.5674 70.3038 92.4762 71.3401 89.327C72.8009 85.6963 73.6881 81.8604 73.9701 77.957Z" fill="#FF5353"/>
<path d="M48.029 172.295C48.029 172.295 47.439 176.245 46.439 177.515C45.9229 178.043 45.4667 178.626 45.079 179.255C44.8318 179.898 44.7202 180.585 44.7511 181.274C44.7821 181.962 44.955 182.637 45.259 183.255C45.499 183.755 45.259 183.755 45.789 183.915C46.5644 184.144 47.3963 184.085 48.1315 183.748C48.8666 183.412 49.4553 182.821 49.789 182.085C50.2686 181.027 50.537 179.886 50.579 178.725C50.5846 176.846 51.0371 174.995 51.899 173.325L48.029 172.325V172.295Z" fill="#F7A491"/>
<path d="M65.6298 174.105C65.8119 176.064 65.8353 178.033 65.6998 179.995C65.5398 180.765 64.6998 182.365 65.0698 183.095C65.2519 183.48 65.549 183.798 65.9198 184.005L76.3098 184.165C76.8798 184.165 76.5098 183.815 76.0498 183.495C74.8752 182.702 73.6219 182.032 72.3098 181.495C72.1598 181.425 71.5898 181.075 71.3898 180.945C70.8361 180.594 70.3345 180.167 69.8998 179.675C69.1598 178.865 69.0898 174.945 69.0898 174.945L65.6298 174.115V174.105Z" fill="#F7A491"/>
<path d="M73.7471 114.955C73.7471 114.955 75.0571 122.175 74.1971 126.905C73.3371 131.635 69.1971 175.515 69.1971 175.515L65.7271 175.705C65.7271 175.705 63.6671 157.475 63.8471 154.955C64.1495 152.64 64.6616 150.357 65.3771 148.135L64.9171 133.335L70.6971 113.895L73.7471 114.955Z" fill="#F7A491"/>
<path d="M60.2572 113.476C60.2572 113.476 56.6572 118.756 55.7972 123.126C54.9372 127.496 56.4272 140.916 54.7972 146.646C53.9072 149.746 50.5172 154.536 49.9972 158.536C49.4772 162.536 47.8672 173.286 47.8672 173.286L51.5972 173.836L62.6872 147.716L71.0372 124.036L73.1772 111.836L60.2572 113.476Z" fill="#F7A491"/>
<path d="M73.6307 115.395C73.6307 115.395 74.9407 122.615 74.0807 127.395C73.5807 130.175 71.9507 146.395 70.6907 159.395L63.9107 159.165C63.7861 157.909 63.726 156.648 63.7307 155.385C64.0304 153.054 64.5425 150.754 65.2607 148.515L64.8007 133.715L70.5907 114.275L73.5907 115.395H73.6307Z" fill="#2F5160"/>
<path d="M60.1684 113.876C60.1684 113.876 56.5584 119.156 55.6984 123.526C54.8384 127.896 56.3284 141.316 54.6984 147.046C53.7984 150.146 50.4084 154.936 49.8984 158.936L57.4384 160.236L62.5784 148.116L70.9284 124.436L73.0684 112.236L60.1684 113.876Z" fill="#1D3B4C"/>
<path d="M63.1992 83.4358C63.1992 83.4358 58.4292 83.1358 56.5392 85.1458C54.6492 87.1558 60.7292 102.956 61.0692 105.536C61.4092 108.116 59.3192 114.856 59.3192 114.856C59.3192 114.856 70.5392 117.056 73.7492 114.996C73.7492 114.996 74.3392 96.4858 73.9892 94.6658C73.6392 92.8458 70.5392 85.6158 69.8492 84.8958C69.1592 84.1758 63.1992 83.4358 63.1992 83.4358Z" fill="#369AD8"/>
<path d="M64.7889 77.2255C64.7889 77.2255 64.7889 77.3655 64.7189 77.5955C64.3643 79.5846 63.8356 81.5388 63.1389 83.4355C62.4689 84.6655 65.4289 88.5955 68.2789 88.1155C69.1289 87.9755 67.5589 84.5055 67.6389 84.1155C67.7789 83.4155 67.9789 82.4555 68.1789 81.4755C68.2889 80.9255 68.3989 80.3655 68.5089 79.8355C68.8189 78.3355 69.0589 77.1055 69.0589 77.1055L64.7889 77.2055V77.2255Z" fill="#F7A491"/>
<path d="M64.7189 77.595C64.7689 77.365 64.7889 77.225 64.7889 77.225L69.0589 77.125C69.0589 77.125 68.8189 78.355 68.5089 79.855C68.3989 80.375 68.2889 80.935 68.1789 81.485C67.4307 81.3486 66.737 81.0017 66.1789 80.485C65.4745 79.8874 64.9399 79.1148 64.6289 78.245C64.6889 77.985 64.7289 77.765 64.7589 77.585L64.7189 77.595Z" fill="#F47458"/>
<path d="M67.6689 67.7851C67.0539 67.7393 66.4367 67.8385 65.8671 68.0747C65.2974 68.3109 64.7911 68.6775 64.3889 69.1451C63.1289 70.7351 61.7689 75.6451 64.9089 78.3151C68.0489 80.9851 71.1389 77.9551 71.5989 74.7551C72.0589 71.5551 72.2289 67.6751 67.6689 67.7551V67.7851Z" fill="#F7A491"/>
<path d="M72.52 74.7052C72.15 75.4152 71.52 75.8052 71.12 75.5852C70.72 75.3652 70.7 74.5852 71.12 73.8952C71.54 73.2052 72.12 72.7952 72.53 73.0252C72.94 73.2552 72.95 74.0252 72.53 74.7052H72.52Z" fill="#F7A491"/>
<path d="M67.8881 67.2661C67.8881 67.2661 65.1981 71.9561 63.2581 72.1461C61.3181 72.3361 61.0781 74.8461 61.0781 74.8461C61.0781 74.8461 61.7681 69.1261 63.6781 68.0261C64.967 67.3585 66.4269 67.0937 67.8681 67.2661H67.8881Z" fill="#FF5353"/>
<path d="M50.1075 181.285C49.1708 181.442 48.209 181.339 47.3272 180.986C46.4453 180.633 45.6775 180.045 45.1075 179.285C44.7644 179.886 44.5451 180.55 44.4627 181.237C44.3802 181.924 44.4363 182.62 44.6275 183.285C45.0375 184.155 46.2375 184.125 47.1875 184.165C47.6539 184.173 48.1134 184.051 48.5144 183.813C48.9154 183.574 49.2419 183.229 49.4575 182.815C49.7287 182.345 49.9531 181.849 50.1275 181.335L50.1075 181.285Z" fill="#2F2F3B"/>
<path d="M71.3896 180.956C69.4417 181.503 67.3716 181.426 65.4696 180.736C65.0939 181.477 64.9312 182.308 64.9996 183.136C65.2496 183.856 65.6096 184.016 65.9196 184.026C68.4296 184.086 75.1196 184.176 77.0296 184.196C77.0889 184.2 77.1479 184.185 77.199 184.155C77.2502 184.125 77.2912 184.08 77.3169 184.027C77.3426 183.973 77.3518 183.913 77.3434 183.854C77.335 183.795 77.3093 183.741 77.2696 183.696C76.7996 183.146 71.5896 181.076 71.3896 180.956Z" fill="#2F2F3B"/>
<path d="M63.7769 73.3173C63.9369 74.1473 63.6269 74.9073 63.0769 75.0173C62.5269 75.1273 61.9669 74.5473 61.8069 73.7173C61.6469 72.8873 61.9669 72.1273 62.5069 72.0173C63.0469 71.9073 63.6269 72.4873 63.7769 73.3173Z" fill="#F7A491"/>
<path d="M74.8673 117.225L74.0873 114.585C73.6673 113.425 72.7473 111.425 71.3873 111.585C70.8273 111.585 69.9673 112.585 69.3873 114.495L68.8973 117.195L68.0273 117.035L68.5273 114.295C69.1273 112.155 70.1773 110.795 71.2873 110.705C72.7673 110.605 74.0073 111.835 74.8973 114.335L75.7173 116.955L74.8673 117.225Z" fill="#E0F0FF"/>
<path d="M69.4686 117.277C69.4335 117.472 69.3413 117.652 69.2037 117.794C69.0661 117.937 68.8892 118.035 68.6956 118.077C68.502 118.119 68.3003 118.102 68.1162 118.029C67.932 117.956 67.7736 117.83 67.6612 117.667C67.5487 117.504 67.4872 117.311 67.4845 117.113C67.4817 116.915 67.5379 116.721 67.6458 116.555C67.7537 116.389 67.9085 116.258 68.0906 116.18C68.2727 116.102 68.4739 116.08 68.6686 116.117C68.928 116.165 69.1577 116.315 69.3076 116.532C69.4575 116.749 69.5153 117.017 69.4686 117.277Z" fill="#E0F0FF"/>
<path d="M74.3377 117.386C74.3937 117.576 74.5048 117.745 74.6571 117.872C74.8093 117.999 74.9957 118.077 75.1927 118.098C75.3897 118.119 75.5884 118.08 75.7635 117.988C75.9387 117.896 76.0825 117.753 76.1767 117.579C76.2708 117.405 76.3111 117.206 76.2924 117.009C76.2737 116.812 76.1969 116.625 76.0717 116.471C75.9465 116.318 75.7785 116.205 75.5891 116.147C75.3996 116.089 75.1973 116.089 75.0077 116.146C74.7549 116.223 74.5426 116.396 74.4171 116.628C74.2916 116.86 74.263 117.133 74.3377 117.386Z" fill="#E0F0FF"/>
<path d="M80.0903 134.375H63.5703L65.4103 116.215H76.7103L80.0903 134.375Z" fill="#C60519"/>
<path d="M78.0078 134.375H60.5078L63.7878 116.365L75.1578 116.215L78.0078 134.375Z" fill="#EA576C"/>
<path d="M66.4772 117.325L65.6172 117.115L66.2572 114.365C66.8972 111.995 68.4772 110.465 70.2572 110.465C72.5272 110.465 72.7272 112.295 72.9372 114.245L73.2372 117.175L72.3572 117.265L72.0572 114.365C71.8372 112.265 71.6772 111.365 70.2572 111.365C68.8972 111.365 67.6272 112.665 67.0972 114.605L66.4772 117.325Z" fill="white"/>
<path d="M67.0177 117.456C66.9736 117.648 66.8736 117.823 66.7302 117.959C66.5868 118.095 66.4064 118.185 66.2118 118.218C66.0173 118.251 65.8172 118.226 65.6368 118.146C65.4564 118.066 65.3038 117.934 65.1981 117.767C65.0925 117.601 65.0386 117.406 65.0432 117.209C65.0479 117.012 65.1108 116.82 65.2241 116.658C65.3374 116.497 65.496 116.372 65.6799 116.301C65.8639 116.229 66.0649 116.213 66.2577 116.256C66.3867 116.284 66.5088 116.338 66.6169 116.414C66.7251 116.489 66.8171 116.586 66.8878 116.697C66.9584 116.809 67.0063 116.933 67.0286 117.064C67.0509 117.194 67.0472 117.327 67.0177 117.456Z" fill="white"/>
<path d="M71.8571 117.326C71.878 117.523 71.9567 117.709 72.0832 117.861C72.2098 118.013 72.3786 118.124 72.5682 118.18C72.7578 118.236 72.9598 118.234 73.1486 118.176C73.3374 118.117 73.5046 118.003 73.629 117.85C73.7534 117.696 73.8294 117.509 73.8474 117.312C73.8654 117.115 73.8247 116.917 73.7303 116.743C73.6359 116.57 73.4922 116.428 73.3172 116.336C73.1422 116.244 72.9438 116.206 72.7471 116.226C72.6165 116.24 72.4897 116.279 72.3743 116.342C72.2588 116.405 72.1568 116.49 72.0742 116.592C71.9915 116.694 71.9298 116.811 71.8926 116.937C71.8553 117.063 71.8433 117.195 71.8571 117.326Z" fill="white"/>
<path d="M56.5678 100.646L54.2578 108.856C57.3278 108.646 64.6178 109.416 66.4678 109.496C69.2878 109.156 70.1578 109.396 70.8478 109.746C71.2178 109.926 72.7178 110.746 72.7178 110.746C72.7178 110.746 73.8878 112.426 73.7678 112.516C73.3778 112.796 72.3078 111.186 72.3078 111.186C72.3078 111.186 71.3078 110.706 71.1278 110.656C70.7378 110.526 70.8878 110.656 70.8878 110.656C71.2078 110.806 72.4878 111.656 72.4878 111.656C73.0873 112.205 73.6393 112.804 74.1378 113.446C73.7073 113.345 73.3086 113.139 72.9778 112.846C72.5778 112.556 71.9778 111.996 71.6178 111.756C70.9578 111.356 70.4478 111.306 70.6178 111.486C70.7878 111.666 71.0778 111.626 71.4778 111.866C72.4778 112.456 73.6678 113.626 73.4778 113.696C72.7375 113.38 72.0222 113.009 71.3378 112.586C70.7422 112.397 70.1224 112.296 69.4978 112.286C69.5923 112.437 69.7067 112.575 69.8378 112.696C69.9778 112.826 71.2578 113.416 71.0378 113.696C70.8178 113.976 67.9078 112.796 67.9078 112.796L66.5078 111.956H66.4178C66.4178 111.956 52.2578 115.216 49.3378 112.016C46.8478 109.286 51.6078 97.7057 51.6378 97.7757L56.5678 100.646Z" fill="#F8A492"/>
<path d="M56.7378 101.725C56.7378 101.725 62.1378 93.6453 62.6178 90.7253C63.0978 87.8053 60.4378 84.0853 57.7078 84.3753C54.9778 84.6653 51.2578 98.1253 51.2578 98.1253L56.7578 101.725H56.7378Z" fill="#75B6F2"/>
<path d="M175.89 151.365H123.89C120.55 151.365 117.84 149.235 117.84 146.615V72.5254C117.84 69.9054 120.55 67.7754 123.89 67.7754H175.89C179.23 67.7754 181.94 69.9054 181.94 72.5254V146.615C181.94 149.235 179.26 151.365 175.89 151.365Z" fill="#5AC5DA"/>
<path d="M152.069 101.436V117.686H148.309V104.456H145.059V101.456L152.069 101.436Z" fill="white"/>
<path d="M172.898 91.377C172.168 88.457 168.268 83.707 149.898 83.707C141.258 83.707 134.898 84.707 131.268 86.507C127.128 88.577 126.758 91.377 126.758 92.237V108.427C126.755 113.387 128.074 118.259 130.578 122.54C133.083 126.822 136.683 130.358 141.008 132.787L148.078 136.787C148.632 137.108 149.262 137.278 149.903 137.278C150.544 137.278 151.173 137.108 151.728 136.787L158.788 132.787C163.107 130.352 166.703 126.814 169.206 122.534C171.71 118.254 173.032 113.386 173.038 108.427V92.237C173.051 91.9438 173.003 91.6511 172.898 91.377ZM164.768 109.167C164.76 112.356 163.907 115.486 162.296 118.239C160.686 120.991 158.374 123.268 155.598 124.837L151.058 127.417C150.702 127.626 150.296 127.737 149.883 127.737C149.47 127.737 149.064 127.626 148.708 127.417L144.168 124.837C141.388 123.272 139.074 120.996 137.462 118.243C135.851 115.489 135.001 112.357 134.998 109.167V98.747C134.998 98.197 135.228 96.397 137.898 95.067C140.248 93.897 144.318 93.267 149.898 93.267C161.728 93.267 164.238 96.267 164.708 98.197C164.773 98.3728 164.8 98.5601 164.788 98.747L164.768 109.167Z" fill="white"/>
</svg>
