<svg width="16" height="9" viewBox="0 0 16 9" fill="none" xmlns="http://www.w3.org/2000/svg">
<path d="M15.7593 8.75405C15.6213 8.89611 15.4362 8.98277 15.2387 8.99769C15.0412 9.01262 14.8451 8.95476 14.6873 8.83505L14.5953 8.75405L8.00033 2.02705L1.40533 8.75405C1.26735 8.89611 1.08216 8.98277 0.884679 8.99769C0.687202 9.01261 0.49109 8.95476 0.333329 8.83505L0.241329 8.75405C0.101553 8.61038 0.0169062 8.42203 0.00227417 8.22212C-0.0123579 8.02221 0.0439619 7.82354 0.161329 7.66105L0.241329 7.56705L7.41833 0.24605C7.55631 0.103989 7.7415 0.0173262 7.93898 0.00240491C8.13646 -0.0125164 8.33257 0.0453353 8.49033 0.165049L8.58233 0.24605L15.7593 7.56705C15.9137 7.72605 16.0001 7.93894 16.0001 8.16055C16.0001 8.38216 15.9137 8.59505 15.7593 8.75405V8.75405Z" fill="#CF0A2C"/>
</svg>
