<svg width="16" height="9" viewBox="0 0 16 9" fill="none" xmlns="http://www.w3.org/2000/svg">
<path d="M0.240671 0.245951C0.378652 0.103891 0.563844 0.0172278 0.761321 0.00230648C0.958798 -0.0126148 1.15491 0.0452369 1.31267 0.164951L1.40467 0.245951L7.99967 6.97295L14.5947 0.245951C14.7327 0.103891 14.9178 0.0172278 15.1153 0.00230648C15.3128 -0.0126148 15.5089 0.0452369 15.6667 0.164951L15.7587 0.245951C15.8984 0.38962 15.9831 0.577971 15.9977 0.777881C16.0124 0.977792 15.956 1.17646 15.8387 1.33895L15.7587 1.43295L8.58167 8.75395C8.44369 8.89601 8.2585 8.98267 8.06102 8.9976C7.86354 9.01252 7.66743 8.95467 7.50967 8.83495L7.41767 8.75395L0.240671 1.43295C0.0862976 1.27395 -5.14984e-05 1.06106 -5.14984e-05 0.839451C-5.14984e-05 0.61784 0.0862976 0.404949 0.240671 0.245951V0.245951Z" fill="#CF0A2C"/>
</svg>
