<svg width="36" height="36" viewBox="0 0 36 36" fill="none" xmlns="http://www.w3.org/2000/svg">
<path d="M36 0H0V36H36V0Z" fill="white"/>
<path d="M36 0H0V36H36V0Z" fill="white"/>
<path d="M23.5708 8.56934C23.7417 8.69712 23.9397 8.78366 24.1496 8.82217C24.3595 8.86069 24.5756 8.85011 24.7807 8.79132C26.6568 10.566 27.8802 12.921 28.2536 15.4763C28.2909 15.6707 28.4021 15.8431 28.5639 15.9571C28.7257 16.0711 28.9255 16.1178 29.1211 16.0875C29.3167 16.0572 29.4928 15.9521 29.6125 15.7945C29.7322 15.6368 29.786 15.4389 29.7627 15.2423C29.3254 12.3382 27.9235 9.66576 25.7827 7.65533L25.7756 7.64835C25.8093 7.40282 25.7768 7.15273 25.6811 6.9241C25.5855 6.69548 25.4302 6.49665 25.2317 6.34833C23.1806 4.79361 20.6775 3.95215 18.1037 3.95215C15.53 3.95215 13.0269 4.79361 10.9758 6.34833C10.7875 6.48894 10.6381 6.67518 10.5417 6.8895C10.4453 7.10381 10.4051 7.33916 10.4248 7.57333L10.3318 7.65732C8.19108 9.66775 6.78948 12.3403 6.35276 15.2443C6.33739 15.3434 6.34173 15.4445 6.36545 15.542C6.38917 15.6394 6.43174 15.7312 6.49094 15.8121C6.55014 15.893 6.62476 15.9615 6.71042 16.0136C6.79608 16.0657 6.89112 16.1005 6.99021 16.1158C7.08929 16.1312 7.19039 16.1269 7.28781 16.1032C7.38523 16.0795 7.47715 16.0368 7.55808 15.9776C7.639 15.9184 7.70738 15.8438 7.75949 15.7581C7.81161 15.6725 7.84642 15.5774 7.86179 15.4783C8.23773 12.9119 9.47134 10.5483 11.3618 8.77234C11.5073 8.82233 11.6599 8.848 11.8137 8.84833C12.1129 8.84862 12.4043 8.75176 12.6438 8.57233C14.2152 7.37632 16.1353 6.72867 18.1101 6.72867C20.0849 6.72867 22.0052 7.37632 23.5766 8.57233L23.5708 8.56934Z" fill="#233AD4"/>
<path d="M12.0676 18.6524C12.0676 17.9367 11.4875 17.3564 10.7721 17.3564C10.0566 17.3564 9.47656 17.9367 9.47656 18.6524V25.0474C9.47656 25.7632 10.0566 26.3434 10.7721 26.3434C11.4875 26.3434 12.0676 25.7632 12.0676 25.0474V18.6524Z" fill="#233AD4"/>
<path d="M30.0522 18.3535H28.1733C28.0636 18.3538 27.9584 18.3975 27.8809 18.4751C27.8033 18.5527 27.7595 18.6578 27.7593 18.7675V24.9355C27.7595 25.0453 27.8033 25.1504 27.8809 25.228C27.9584 25.3055 28.0636 25.3493 28.1733 25.3495H28.9004C28.6999 26.1608 28.3343 26.9219 27.8264 27.5855C27.1037 28.4405 26.206 29.1304 25.1938 29.6088C24.1817 30.0871 23.0786 30.3428 21.9592 30.3585V29.9345C21.959 29.8447 21.9231 29.7586 21.8596 29.6951C21.7961 29.6316 21.7102 29.5958 21.6204 29.5955H17.0344C16.9446 29.5958 16.8584 29.6316 16.7949 29.6951C16.7314 29.7586 16.6956 29.8447 16.6953 29.9345V31.4685C16.6956 31.5583 16.7314 31.6444 16.7949 31.7079C16.8584 31.7715 16.9446 31.8072 17.0344 31.8075H21.6204C21.7102 31.8072 21.7961 31.7715 21.8596 31.7079C21.9231 31.6444 21.959 31.5583 21.9592 31.4685V31.0535C25.5422 30.7585 27.4304 29.2535 28.4014 27.9765C28.9914 27.1996 29.4049 26.3035 29.6133 25.3505H30.0513C30.222 25.3505 30.3911 25.3169 30.5488 25.2516C30.7066 25.1863 30.8497 25.0905 30.9705 24.9698C31.0912 24.8491 31.1871 24.7058 31.2524 24.548C31.3178 24.3903 31.3513 24.2213 31.3513 24.0505V19.6505C31.3505 19.3064 31.2132 18.9767 30.9697 18.7336C30.7262 18.4905 30.3963 18.3538 30.0522 18.3535V18.3535Z" fill="#233AD4"/>
<path d="M7.77637 18.3535H5.95947C5.6121 18.3546 5.27932 18.4931 5.03369 18.7387C4.78806 18.9843 4.64949 19.3172 4.64844 19.6645V24.0355C4.64976 24.3827 4.78833 24.7154 5.03394 24.9608C5.27954 25.2062 5.61227 25.3445 5.95947 25.3455H7.78052C7.92117 25.3455 8.05596 25.2897 8.15552 25.1904C8.25507 25.091 8.31126 24.9562 8.31152 24.8156V18.8845C8.31153 18.8145 8.29769 18.7451 8.27075 18.6804C8.24382 18.6157 8.20427 18.557 8.15454 18.5076C8.10481 18.4583 8.04584 18.4193 7.98096 18.3928C7.91607 18.3664 7.84643 18.353 7.77637 18.3535V18.3535Z" fill="#233AD4"/>
<path d="M23.9219 18.6519V25.0519C23.949 25.3769 24.0972 25.6797 24.3372 25.9005C24.5771 26.1213 24.8912 26.2438 25.2173 26.2438C25.5434 26.2438 25.8577 26.1213 26.0977 25.9005C26.3376 25.6797 26.4858 25.3769 26.5129 25.0519V18.6519C26.4858 18.3269 26.3376 18.0241 26.0977 17.8033C25.8577 17.5825 25.5434 17.46 25.2173 17.46C24.8912 17.46 24.5771 17.5825 24.3372 17.8033C24.0972 18.0241 23.949 18.3269 23.9219 18.6519V18.6519Z" fill="#233AD4"/>
<path d="M23.5708 8.56934C23.7417 8.69712 23.9397 8.78366 24.1496 8.82217C24.3595 8.86069 24.5756 8.85011 24.7807 8.79132C26.6568 10.566 27.8802 12.921 28.2536 15.4763C28.2909 15.6707 28.4021 15.8431 28.5639 15.9571C28.7257 16.0711 28.9255 16.1178 29.1211 16.0875C29.3167 16.0572 29.4928 15.9521 29.6125 15.7945C29.7322 15.6368 29.786 15.4389 29.7627 15.2423C29.3254 12.3382 27.9235 9.66576 25.7827 7.65533L25.7756 7.64835C25.8093 7.40282 25.7768 7.15273 25.6811 6.9241C25.5855 6.69548 25.4302 6.49665 25.2317 6.34833C23.1806 4.79361 20.6775 3.95215 18.1037 3.95215C15.53 3.95215 13.0269 4.79361 10.9758 6.34833C10.7875 6.48894 10.6381 6.67518 10.5417 6.8895C10.4453 7.10381 10.4051 7.33916 10.4248 7.57333L10.3318 7.65732C8.19108 9.66775 6.78948 12.3403 6.35276 15.2443C6.33739 15.3434 6.34173 15.4445 6.36545 15.542C6.38917 15.6394 6.43174 15.7312 6.49094 15.8121C6.55014 15.893 6.62476 15.9615 6.71042 16.0136C6.79608 16.0657 6.89112 16.1005 6.99021 16.1158C7.08929 16.1312 7.19039 16.1269 7.28781 16.1032C7.38523 16.0795 7.47715 16.0368 7.55808 15.9776C7.639 15.9184 7.70738 15.8438 7.75949 15.7581C7.81161 15.6725 7.84642 15.5774 7.86179 15.4783C8.23773 12.9119 9.47134 10.5483 11.3618 8.77234C11.5073 8.82233 11.6599 8.848 11.8137 8.84833C12.1129 8.84862 12.4043 8.75176 12.6438 8.57233C14.2152 7.37632 16.1353 6.72867 18.1101 6.72867C20.0849 6.72867 22.0052 7.37632 23.5766 8.57233L23.5708 8.56934Z" fill="#233AD4"/>
<path d="M12.0676 18.6524C12.0676 17.9367 11.4875 17.3564 10.7721 17.3564C10.0566 17.3564 9.47656 17.9367 9.47656 18.6524V25.0474C9.47656 25.7632 10.0566 26.3434 10.7721 26.3434C11.4875 26.3434 12.0676 25.7632 12.0676 25.0474V18.6524Z" fill="#233AD4"/>
<path d="M30.0522 18.3535H28.1733C28.0636 18.3538 27.9584 18.3975 27.8809 18.4751C27.8033 18.5527 27.7595 18.6578 27.7593 18.7675V24.9355C27.7595 25.0453 27.8033 25.1504 27.8809 25.228C27.9584 25.3055 28.0636 25.3493 28.1733 25.3495H28.9004C28.6999 26.1608 28.3343 26.9219 27.8264 27.5855C27.1037 28.4405 26.206 29.1304 25.1938 29.6088C24.1817 30.0871 23.0786 30.3428 21.9592 30.3585V29.9345C21.959 29.8447 21.9231 29.7586 21.8596 29.6951C21.7961 29.6316 21.7102 29.5958 21.6204 29.5955H17.0344C16.9446 29.5958 16.8584 29.6316 16.7949 29.6951C16.7314 29.7586 16.6956 29.8447 16.6953 29.9345V31.4685C16.6956 31.5583 16.7314 31.6444 16.7949 31.7079C16.8584 31.7715 16.9446 31.8072 17.0344 31.8075H21.6204C21.7102 31.8072 21.7961 31.7715 21.8596 31.7079C21.9231 31.6444 21.959 31.5583 21.9592 31.4685V31.0535C25.5422 30.7585 27.4304 29.2535 28.4014 27.9765C28.9914 27.1996 29.4049 26.3035 29.6133 25.3505H30.0513C30.222 25.3505 30.3911 25.3169 30.5488 25.2516C30.7066 25.1863 30.8497 25.0905 30.9705 24.9698C31.0912 24.8491 31.1871 24.7058 31.2524 24.548C31.3178 24.3903 31.3513 24.2213 31.3513 24.0505V19.6505C31.3505 19.3064 31.2132 18.9767 30.9697 18.7336C30.7262 18.4905 30.3963 18.3538 30.0522 18.3535V18.3535Z" fill="#233AD4"/>
<path d="M7.77637 18.3535H5.95947C5.6121 18.3546 5.27932 18.4931 5.03369 18.7387C4.78806 18.9843 4.64949 19.3172 4.64844 19.6645V24.0355C4.64976 24.3827 4.78833 24.7154 5.03394 24.9608C5.27954 25.2062 5.61227 25.3445 5.95947 25.3455H7.78052C7.92117 25.3455 8.05596 25.2897 8.15552 25.1904C8.25507 25.091 8.31126 24.9562 8.31152 24.8156V18.8845C8.31153 18.8145 8.29769 18.7451 8.27075 18.6804C8.24382 18.6157 8.20427 18.557 8.15454 18.5076C8.10481 18.4583 8.04584 18.4193 7.98096 18.3928C7.91607 18.3664 7.84643 18.353 7.77637 18.3535V18.3535Z" fill="#233AD4"/>
<path d="M23.9219 18.6519V25.0519C23.949 25.3769 24.0972 25.6797 24.3372 25.9005C24.5771 26.1213 24.8912 26.2438 25.2173 26.2438C25.5434 26.2438 25.8577 26.1213 26.0977 25.9005C26.3376 25.6797 26.4858 25.3769 26.5129 25.0519V18.6519C26.4858 18.3269 26.3376 18.0241 26.0977 17.8033C25.8577 17.5825 25.5434 17.46 25.2173 17.46C24.8912 17.46 24.5771 17.5825 24.3372 17.8033C24.0972 18.0241 23.949 18.3269 23.9219 18.6519V18.6519Z" fill="#233AD4"/>
</svg>
