<svg width="375" height="104" viewBox="0 0 375 104" fill="none" xmlns="http://www.w3.org/2000/svg">
<mask id="mask0_110_1983" style="mask-type:alpha" maskUnits="userSpaceOnUse" x="0" y="0" width="375" height="104">
<rect width="375" height="104" fill="white"/>
</mask>
<g mask="url(#mask0_110_1983)">
<path d="M-66.256 90.896C-70.4747 90.896 -74.264 90.0187 -77.624 88.264C-80.984 86.5093 -83.616 84.0827 -85.52 80.984C-87.424 77.848 -88.376 74.32 -88.376 70.4C-88.376 66.48 -87.424 62.9707 -85.52 59.872C-83.616 56.736 -80.984 54.2907 -77.624 52.536C-74.264 50.7813 -70.4747 49.904 -66.256 49.904C-62.0373 49.904 -58.248 50.7813 -54.888 52.536C-51.528 54.2907 -48.896 56.736 -46.992 59.872C-45.088 62.9707 -44.136 66.48 -44.136 70.4C-44.136 74.32 -45.088 77.848 -46.992 80.984C-48.896 84.0827 -51.528 86.5093 -54.888 88.264C-58.248 90.0187 -62.0373 90.896 -66.256 90.896ZM-66.256 80.2C-64.6133 80.2 -63.1387 79.808 -61.832 79.024C-60.488 78.2027 -59.424 77.064 -58.64 75.608C-57.856 74.1147 -57.464 72.3787 -57.464 70.4C-57.464 68.4213 -57.856 66.704 -58.64 65.248C-59.424 63.7547 -60.488 62.616 -61.832 61.832C-63.1387 61.0107 -64.6133 60.6 -66.256 60.6C-67.8987 60.6 -69.392 61.0107 -70.736 61.832C-72.0427 62.616 -73.088 63.7547 -73.872 65.248C-74.656 66.704 -75.048 68.4213 -75.048 70.4C-75.048 72.3787 -74.656 74.1147 -73.872 75.608C-73.088 77.064 -72.0427 78.2027 -70.736 79.024C-69.392 79.808 -67.8987 80.2 -66.256 80.2ZM-26.1232 60.768V67.488H-9.77125V77.456H-26.1232V90H-39.3392V50.8H-7.47525V60.768H-26.1232ZM29.2918 80.032V90H-3.30019V50.8H28.5638V60.768H9.69181V65.36H26.2678V74.88H9.69181V80.032H29.2918ZM51.1795 80.144H47.5955V90H34.3795V50.8H53.2515C56.8728 50.8 60.0275 51.3973 62.7155 52.592C65.4035 53.7867 67.4755 55.504 68.9315 57.744C70.3875 59.984 71.1155 62.5973 71.1155 65.584C71.1155 68.384 70.4808 70.8293 69.2115 72.92C67.9422 75.0107 66.1128 76.672 63.7235 77.904L71.9555 90H57.8435L51.1795 80.144ZM57.7875 65.584C57.7875 64.128 57.3395 63.008 56.4435 62.224C55.5475 61.4027 54.2035 60.992 52.4115 60.992H47.5955V70.176H52.4115C54.2035 70.176 55.5475 69.784 56.4435 69C57.3395 68.1787 57.7875 67.04 57.7875 65.584ZM84.0712 61.048H72.5912V50.8H108.767V61.048H97.2872V90H84.0712V61.048ZM136.943 83.168H122.047L119.415 90H105.975L123.111 50.8H136.103L153.239 90H139.575L136.943 83.168ZM133.303 73.648L129.495 63.792L125.687 73.648H133.303ZM204.729 80.032V90H172.137V50.8H204.001V60.768H185.129V65.36H201.705V74.88H185.129V80.032H204.729ZM224.433 90.896C221.185 90.896 218.012 90.5413 214.913 89.832C211.852 89.0853 209.332 88.096 207.353 86.864L211.609 77.232C213.476 78.3147 215.566 79.192 217.881 79.864C220.196 80.4987 222.417 80.816 224.545 80.816C226.374 80.816 227.681 80.648 228.465 80.312C229.249 79.9387 229.641 79.3973 229.641 78.688C229.641 77.8667 229.118 77.2507 228.073 76.84C227.065 76.4293 225.385 75.9813 223.033 75.496C220.009 74.8613 217.489 74.1893 215.473 73.48C213.457 72.7333 211.702 71.5387 210.209 69.896C208.716 68.216 207.969 65.9573 207.969 63.12C207.969 60.656 208.66 58.416 210.041 56.4C211.422 54.384 213.476 52.7973 216.201 51.64C218.964 50.4827 222.305 49.904 226.225 49.904C228.913 49.904 231.545 50.2027 234.121 50.8C236.734 51.36 239.03 52.2 241.009 53.32L237.033 62.896C233.188 60.9547 229.548 59.984 226.113 59.984C222.716 59.984 221.017 60.8053 221.017 62.448C221.017 63.232 221.521 63.8293 222.529 64.24C223.537 64.6133 225.198 65.024 227.513 65.472C230.5 66.032 233.02 66.6853 235.073 67.432C237.126 68.1413 238.9 69.3173 240.393 70.96C241.924 72.6027 242.689 74.8427 242.689 77.68C242.689 80.144 241.998 82.384 240.617 84.4C239.236 86.3787 237.164 87.9653 234.401 89.16C231.676 90.3173 228.353 90.896 224.433 90.896ZM265.494 50.8C269.115 50.8 272.27 51.3973 274.958 52.592C277.646 53.7867 279.718 55.504 281.174 57.744C282.63 59.984 283.358 62.5973 283.358 65.584C283.358 68.5707 282.63 71.184 281.174 73.424C279.718 75.664 277.646 77.3813 274.958 78.576C272.27 79.7707 269.115 80.368 265.494 80.368H259.838V90H246.622V50.8H265.494ZM264.654 70.176C266.446 70.176 267.79 69.784 268.686 69C269.582 68.1787 270.03 67.04 270.03 65.584C270.03 64.128 269.582 63.008 268.686 62.224C267.79 61.4027 266.446 60.992 264.654 60.992H259.838V70.176H264.654ZM320.284 80.032V90H287.692V50.8H319.556V60.768H300.684V65.36H317.26V74.88H300.684V80.032H320.284ZM345.644 90.896C341.5 90.896 337.766 90.0373 334.444 88.32C331.121 86.5653 328.508 84.1387 326.604 81.04C324.737 77.904 323.804 74.3573 323.804 70.4C323.804 66.4427 324.737 62.9147 326.604 59.816C328.508 56.68 331.121 54.2533 334.444 52.536C337.766 50.7813 341.5 49.904 345.644 49.904C349.452 49.904 352.849 50.576 355.836 51.92C358.822 53.264 361.286 55.2053 363.228 57.744L354.884 65.192C352.457 62.1307 349.601 60.6 346.316 60.6C343.553 60.6 341.332 61.496 339.652 63.288C337.972 65.0427 337.132 67.4133 337.132 70.4C337.132 73.3867 337.972 75.776 339.652 77.568C341.332 79.3227 343.553 80.2 346.316 80.2C349.601 80.2 352.457 78.6693 354.884 75.608L363.228 83.056C361.286 85.5947 358.822 87.536 355.836 88.88C352.849 90.224 349.452 90.896 345.644 90.896ZM367.044 50.8H380.26V90H367.044V50.8ZM413.334 83.168H398.438L395.806 90H382.366L399.502 50.8H412.494L429.63 90H415.966L413.334 83.168ZM409.694 73.648L405.886 63.792L402.078 73.648H409.694ZM431.739 50.8H444.955V79.752H462.651V90H431.739V50.8Z" fill="#F3F3F3"/>
</g>
</svg>
