<svg xmlns="http://www.w3.org/2000/svg" width="271" height="201" fill="none" viewBox="0 0 271 201">
  <g opacity=".35">
    <path stroke="#CF0A2C" stroke-width="3" d="M130.411 100.558c-5.79-5.69-8.684-13.375-8.684-23.157V45.36c0-9.683 2.894-17.269 8.684-22.759 5.789-5.49 13.774-8.384 23.856-8.384 10.081 0 18.067 2.795 23.956 8.384 5.889 5.59 8.884 13.176 8.884 22.759V77.5c0 9.783-2.895 17.469-8.784 23.158-5.889 5.69-13.875 8.485-23.956 8.485-10.182-.1-18.167-2.895-23.956-8.585zm31.841-13.375c1.997-2.096 2.995-4.891 2.995-8.484V44.56c0-3.593-.998-6.388-2.995-8.484-1.996-2.096-4.591-3.095-7.985-3.095-3.294 0-5.889.999-7.786 3.095-1.896 2.096-2.895 4.89-2.895 8.484V78.6c0 3.593.899 6.388 2.795 8.484 1.897 2.096 4.492 3.094 7.886 3.094 3.294.1 5.989-.998 7.985-2.994zM268.155 65.523c.299.299.499.698.499 1.098v16.17c0 .4-.2.799-.499 1.098-.299.3-.699.499-1.098.499h-5.69c-.399 0-.698.2-.698.699v20.861c0 .4-.2.799-.499 1.098-.3.3-.699.5-1.098.5h-18.666c-.399 0-.799-.2-1.098-.5-.3-.299-.499-.698-.499-1.098V85.087c0-.4-.2-.699-.699-.699h-41.025c-.399 0-.798-.2-1.098-.5-.299-.299-.499-.698-.499-1.097V70.114c0-.499.1-1.198.4-1.996l22.658-51.705c.399-.799.998-1.198 1.797-1.198h20.063c.599 0 .998.2 1.298.499.199.3.199.798-.1 1.397l-20.662 47.214c-.1.2-.1.4 0 .499.099.2.199.3.399.3h16.869c.399 0 .699-.2.699-.7V49.653c0-.4.199-.799.499-1.098.299-.3.698-.5 1.098-.5h18.666c.399 0 .798.2 1.097.5.3.3.5.698.5 1.098v14.773c0 .399.199.698.698.698h5.69c.299 0 .699.1.998.4z"/>
  </g>
  <path fill="#D6EBF8" d="M81.542 200.004c44.842 0 81.194-4.682 81.194-10.457s-36.352-10.456-81.194-10.456c-44.843 0-81.194 4.681-81.194 10.456 0 5.775 36.352 10.457 81.194 10.457z"/>
  <path fill="#22226D" d="M124.965 186.591l-90.39 5.784c-2.385.469-6.847 0-6.927-3.436L28.79 47.174c-.068-5.302 3.663-7.352 5.785-7.284l88.052 9.667a3.647 3.647 0 012.401 1.113c.633.66.998 1.533 1.022 2.448l2.476 128.445a4.893 4.893 0 01-.888 3.151 4.862 4.862 0 01-2.672 1.877z"/>
  <path fill="#080833" d="M129.878 186.249l-94.498 6.127a3.579 3.579 0 01-3.081-.896 3.614 3.614 0 01-1.14-3.009l.775-144.903a3.665 3.665 0 011.122-2.63 3.637 3.637 0 012.666-1.012l91.486 8.635a3.646 3.646 0 012.401 1.114 3.67 3.67 0 011.022 2.448l2.682 129.155a4.836 4.836 0 01-.845 3.093 4.802 4.802 0 01-2.59 1.878z"/>
  <path fill="#F4F7FA" d="M123.93 53.108l-32.165-3.367-.513 2.016c-.123.441-.388.83-.753 1.105s-.81.422-1.267.418l-9.904-.756a2.368 2.368 0 01-2.179-1.638l-.536-1.958-37.562-3.745a3.098 3.098 0 00-2.08.93 3.121 3.121 0 00-.887 2.105l-.205 128.49a2.612 2.612 0 00.908 2.12 2.589 2.589 0 002.23.56l86.442-4.695a2.93 2.93 0 001.65-1.045 2.953 2.953 0 00.632-1.853l-2.065-116.9a1.774 1.774 0 00-.503-1.258 1.746 1.746 0 00-1.243-.529z"/>
  <path fill="#EAEDEF" d="M85.267 49.608c.26-.54.127-1.147-.298-1.353-.426-.207-.982.064-1.243.604-.26.541-.127 1.147.298 1.354.426.207.982-.064 1.243-.605z"/>
  <path fill="#FCBDB6" d="M109.454 109.044c8.181 3.951 17.115 23.49 17.115 23.49s-10.086 5.165-10.588 5.337c-.502.172-20.208-21.005-20.208-21.005s10.133-9.54 13.681-7.822z"/>
  <path fill="#BA1E3F" d="M45.907 110.738s3.115-14.018 28.799-14.889c35.656-1.145 34.641 30.591 38.794 79.461-7.565.584-50.136 3.127-70.982 3.848-.924-14.797-2.488-51.538 3.389-68.42z"/>
  <path fill="#BA1E3F" d="M36.375 108.998l17.035 8.91s36.82 2.36 46.53.481c9.71-1.878 12.198-9.162 12.198-9.162a53.603 53.603 0 00-28.411-12.976 53.775 53.775 0 00-5.18-.447 50.285 50.285 0 00-8.923.424c-22.307 3.126-33.249 12.77-33.249 12.77z"/>
  <path fill="#FCBDB6" d="M71.093 92.817l1.768-6.368.513-1.879 3.024-10.891.73 10.743.434 6.436.137 2.039c.091 1.386 11.718 3.527 12.768 4.707.433.47 3.423 12.152-12.038 12.804-13.213.562-18.918-8.189-21.679-11.453.034.023 13.76-4.1 14.343-6.138z"/>
  <path fill="#FCBDB6" d="M79.098 88.365c4.986-1.687 7.378-7.968 5.343-14.027-2.035-6.06-7.728-9.605-12.714-7.917-4.986 1.687-7.378 7.967-5.343 14.027s7.728 9.604 12.714 7.917z"/>
  <path fill="#FCBDB6" d="M66.598 81.361a1.967 1.967 0 002.602-.996 2.023 2.023 0 00-.135-1.508 2.01 2.01 0 00-1.143-.989 1.867 1.867 0 00-2.75.908 1.885 1.885 0 00.668 2.213c.227.16.486.268.758.315v.057z"/>
  <path fill="#fff" d="M77.46 83.412s3.618.217 5.706-1.077c0 0-1.54 5.635-5.705 1.077z"/>
  <path fill="#091542" d="M69.952 77.628c-.342.286-1.688-1.707-2.43-1.352-.742.355-.799 2.29 0 3.597.65 1.145 1.506 1.019 1.757 1.912.422 1.466-1.38 3.642-2.065 3.436-.434-.172-.069-1.214-.49-2.405-.834-2.29-3.55-2.073-5.706-3.871-3.491-2.818-4.438-9.69-2.362-12.255.788-.985 1.678-.916 2.75-2.485 1.073-1.57.662-2.566 1.552-3.654 1.517-1.867 4.85-1.695 6.96-1.008 2.647.87 2.887-1.878 4.667-1.98 2.1-.138 2.35 1.958 4.86 1.568a5.412 5.412 0 014.2 1.237c2.281 2.13 1.722 5.841 1.642 6.368-.502 3.367-3.046 6.402-5.864 7.078-.582.149-.468 0-6.424-.149-1.974 0-3.16 0-3.56.687-.57 1.077.913 3 .559 3.276h-.046z"/>
  <path fill="#BA1E3F" d="M35.986 109.464l.387-.469s2.636-.424 7.531 3.367c8.866 6.872 8.375 10.983 8.375 10.983s-9.71 12.988-16.396 22.219l.102-36.1z"/>
  <path fill="#FCBDB6" d="M52.6 166.227c14.833 3.184 5.864-2.44-.89-5.051 1.38-.756 4.027-2.657 3.685-3.562-.342-.905-4.04-.389-5.112-.114-1.506.366-4.005.595-6.275.859l.125-.241a50.383 50.383 0 01-8.215-5.348v19.836l.49.218s4.884 1.695 7.257 2.668c2.374.974 9.813 4.032 11.49 3.047 1.678-.985-6.104-4.582-6.104-4.582s9.915 3.333 10.577 1.787c.765-1.809-6.355-4.352-8.672-5.52v-.069c2.362.939 10.931 3.745 11.41 2.13.742-2.199-8.386-5.463-9.767-6.058z"/>
  <path fill="#BA1E3F" d="M127.349 146.449c-18.04-9.563-33.09-24.395-33.42-24.658 0 0-.24-2.68 3.81-7.364 7.36-8.487 11.41-7.731 11.41-7.731s9.551 8.269 17.755 15.244l.445 24.509z"/>
  <path fill="#BA1E3F" d="M127.534 146.539c-18.621-9.483-34.378-24.979-34.652-25.196 0 0-.251-2.669 3.788-7.33 7.325-8.453 11.41-7.708 11.41-7.708s25.034 21.692 28.799 24.383c2.465 1.718-4.062 18.542-9.345 15.851z"/>
  <path fill="#FCBDB6" d="M162.601 106.925c-.947-1.901-4.941 5.829-4.941 5.829s3.914-9.735 2.442-10.491c-1.735-.881-4.701 6.093-6.002 8.35h-.057c1.073-2.291 4.381-10.709 2.818-11.327-2.054-.825-5.864 8.017-6.526 9.437 4.073-14.66-2.031-6.036-5.044.572-.65-1.42-2.361-4.214-3.274-3.916-.913.297-.639 4.031-.445 5.108.26 2.109.412 4.231.456 6.356l-.228-.149a53.329 53.329 0 01-14.833 16.034c-5.534 3.78.593 13.916.593 13.916s8.569 5.382 16.556 0c7.337-4.925 11.41-21.349 11.41-21.349l-.137-.091.354.103s1.997-4.788 3.104-7.101c1.106-2.314 4.666-9.529 3.754-11.281z"/>
  <path fill="url(#paint0_linear_415_1253)" d="M166.594 35.07L111.392 2.132a8.797 8.797 0 00-12.55 3.252L82.57 36.628a9.757 9.757 0 00-.534 7.264 9.715 9.715 0 004.641 5.598l18.336 10.216 3.298 14.888a1.704 1.704 0 001.962 1.318l13.567-5.647 18.906 10.537a8.525 8.525 0 0011.798-3.505L170.12 47.52a9.465 9.465 0 00.698-6.927 9.43 9.43 0 00-4.224-5.523z"/>
  <path fill="#4BD0E2" d="M169.091 34.405l-55.19-32.996a8.811 8.811 0 00-6.962-1.13 8.846 8.846 0 00-5.566 4.348l-16.305 31.29a9.757 9.757 0 00-.524 7.26 9.715 9.715 0 004.643 5.59l18.324 10.227 3.218 14.477a1.715 1.715 0 002.282 1.225l13.315-5.2 18.93 10.549a8.519 8.519 0 009.654-.852 8.57 8.57 0 002.144-2.664l15.563-29.778a9.47 9.47 0 00.652-6.868 9.431 9.431 0 00-4.178-5.478z"/>
  <path fill="#770C26" d="M56.77 98.988s-1.141-.974-1.426.435c-.285 1.409 7.222 12.117 19.876 12.598 12.654.481 15.084-4.397 15.084-4.397s3.218-2.978 2.282-9.38c0 0-.958-2.76-2.076-.596 0 0 4.221 12.323-12.552 12.541-6.994.08-11.706-2.027-14.832-4.501a31.34 31.34 0 01-6.356-6.7zM87.578 124.596l.936 10.605 7.04 3.894 4.883-5.268-1.152-10.743-11.707 1.512z"/>
  <path fill="#0E626B" d="M83.794 175.46a3.789 3.789 0 01-1.814-3.378v-12.69a4.215 4.215 0 01.967-2.859c.664-.8 1.6-1.324 2.627-1.47l16.316-.939 21.246-1.466 1.141-.092 1.871-.126 9.128-.63h.936l2.955-.149a2.645 2.645 0 011.746.848 2.399 2.399 0 00-1.027-.229h-.171l-53.548 3.332a4.178 4.178 0 00-2.63 1.468 4.205 4.205 0 00-.964 2.862v12.689a3.989 3.989 0 001.141 2.887"/>
  <path fill="#4BD0E2" d="M85.989 176.236a3.017 3.017 0 01-2.145-.881 3.934 3.934 0 01-1.141-2.875v-12.701a4.213 4.213 0 01.967-2.859c.664-.8 1.6-1.324 2.627-1.471l53.547-3.321h.171c.352 0 .699.078 1.016.229a3.544 3.544 0 011.825 3.298v11.602c0 2.05-1.346 3.848-3.012 3.997l-3.058.344-.89.08-4.301.401h-.411l-4.918.447-1.871.183-1.141.103-22.752 2.096-14.445 1.317"/>
  <path fill="#fff" d="M144.116 41.274c-.171-.298-2.282-1.306-3.332-2.188a7.815 7.815 0 01-2.727-7.891c.89-3.79 2.157-7.433 0-8.143-3.138-1.03-8.557 9.884-8.888 10.548-.605-.32-7.736-3.092-10.532-4.146-3.503-1.317-4.678 2.749-3.138 4.73l5.705 2.29-.308.78-5.705-2.29c-1.688.824-2.909 3.366-1.905 4.786l5.705 2.291-.297.767-5.579-2.21c-1.141.905-2.282 3.333-1.267 4.879l6.55 2.668-.308.768-6.664-2.646-.285.126a3.492 3.492 0 00-1.308 1.809 3.509 3.509 0 00.053 2.234c.102.286.844.618 1.198.905 3.195 2.657 22.672 10.307 24.531 9.941 4.473-.973 10.258-16.95 8.501-20.008zM101.993 164.67a5.366 5.366 0 00-1.693-3.423 5.326 5.326 0 00-3.533-1.422h-.582a5.304 5.304 0 00-3.597 1.913 5.34 5.34 0 00-1.195 3.905 5.54 5.54 0 00.456 1.718l-.456 1.386-.65 1.947 1.973-.527 1.37-.366a5.237 5.237 0 002.544.687c.186.011.373.011.559 0a5.319 5.319 0 004.592-3.744c.206-.67.278-1.375.212-2.074zm-1.849 3.367a4.476 4.476 0 01-3.035 1.603c-.16.012-.32.012-.48 0a4.547 4.547 0 01-2.133-.572l-.297-.172-.33.092-1.37.366-.468.126.16-.458.457-1.374.114-.321-.149-.309a4.52 4.52 0 01.199-4.116 4.471 4.471 0 013.453-2.229h.49a4.55 4.55 0 012.784 1.03 4.51 4.51 0 01.605 6.334z"/>
  <path fill="#fff" d="M94.72 164.806a.773.773 0 00-.581-.16.75.75 0 00-.536.275.682.682 0 00-.171.549.774.774 0 00.273.527.832.832 0 00.57.172.715.715 0 00.537-.286.781.781 0 00-.091-1.077zM97.253 164.569a.774.774 0 00-.582-.16.75.75 0 00-.536.274.67.67 0 00-.171.55.74.74 0 00.543.665c.098.027.2.035.301.022a.682.682 0 00.536-.275.779.779 0 00-.09-1.076zM99.787 164.328a.793.793 0 00-.582-.161.75.75 0 00-.536.275.663.663 0 00-.194.527.764.764 0 00.274.527.774.774 0 00.582.16.67.67 0 00.525-.275.753.753 0 00.106-.832.71.71 0 00-.175-.221zM119.293 163.549a5.31 5.31 0 00-1.905-3.608 5.372 5.372 0 00-3.321-1.225h-.57a5.29 5.29 0 00-3.605 1.913 5.328 5.328 0 00-1.187 3.916 5.25 5.25 0 00.456 1.718l-.468 1.375-.65 1.947 1.974-.527 1.381-.367a5.284 5.284 0 002.533.688h.57a5.328 5.328 0 003.598-1.92 5.362 5.362 0 001.194-3.91zm-1.848 3.436a4.476 4.476 0 01-3.024 1.603h-.479a4.549 4.549 0 01-2.134-.572l-.296-.172-.331.091-1.381.367-.456.114.148-.446.468-1.386.103-.309-.137-.309a4.506 4.506 0 01.191-4.121 4.476 4.476 0 013.46-2.224h.49a4.47 4.47 0 012.388.714 4.51 4.51 0 011.036 6.65h-.046z"/>
  <path fill="#fff" d="M112.026 163.698a.794.794 0 00-.582-.161.836.836 0 00-.536.264.8.8 0 00-.171.561.757.757 0 00.274.527.804.804 0 00.582.16.796.796 0 00.536-.275.713.713 0 00.171-.561.725.725 0 00-.274-.515zM114.565 163.458a.794.794 0 00-.582-.161.807.807 0 00-.536.264.699.699 0 00-.146.262.702.702 0 00-.026.299.723.723 0 00.274.515.757.757 0 00.582.172.798.798 0 00.536-.275.705.705 0 00.172-.561.712.712 0 00-.274-.515zM117.096 163.214a.8.8 0 00-.581-.16.83.83 0 00-.537.263.808.808 0 00-.171.562.732.732 0 00.285.515.728.728 0 00.571.172.766.766 0 00.536-.275.771.771 0 00-.103-1.077zM135.903 162.438a5.305 5.305 0 00-1.917-3.607 5.182 5.182 0 00-3.309-1.226 5.136 5.136 0 00-.582 0 5.305 5.305 0 00-3.597 1.913 5.34 5.34 0 00-1.195 3.905c.057.594.211 1.175.456 1.718l-.456 1.386-.651 1.947 1.974-.527 1.369-.366a5.373 5.373 0 002.545.687h.559a5.33 5.33 0 003.601-1.919 5.374 5.374 0 001.203-3.911zm-1.849 3.368a4.458 4.458 0 01-3.035 1.614h-.468a4.549 4.549 0 01-2.145-.584l-.296-.16-.331.08-1.37.367-.456.126.148-.447.457-1.386.114-.321-.148-.297a4.508 4.508 0 011.655-5.651 4.475 4.475 0 011.996-.694 3.34 3.34 0 01.49 0 4.382 4.382 0 012.785 1.031 4.489 4.489 0 011.607 3.035 4.507 4.507 0 01-1.003 3.287z"/>
  <path fill="#fff" d="M128.631 162.589a.845.845 0 00-1.141.103.715.715 0 00-.172.561.791.791 0 001.005.658.787.787 0 00.521-.508.737.737 0 00.026-.299.68.68 0 00-.239-.515zM131.162 162.346a.775.775 0 00-.582-.16.74.74 0 00-.536.263.72.72 0 00-.171.561.77.77 0 00.274.516.74.74 0 00.57.172.757.757 0 00.537-.275.73.73 0 00.171-.561.672.672 0 00-.263-.516zM133.697 162.105a.843.843 0 00-1.141.103.699.699 0 00-.171.561c.02.201.118.386.274.515a.8.8 0 00.896.1.826.826 0 00.245-.203.779.779 0 00.182-.561.71.71 0 00-.285-.515z"/>
  <defs>
    <linearGradient id="paint0_linear_415_1253" x1="85.216" x2="167.056" y1="54.315" y2="28.842" gradientUnits="userSpaceOnUse">
      <stop offset=".01" stop-color="#003F68"/>
      <stop offset=".18" stop-color="#044D77"/>
      <stop offset=".5" stop-color="#0F739D"/>
      <stop offset=".93" stop-color="#20B0DB"/>
      <stop offset="1" stop-color="#23BBE6"/>
    </linearGradient>
  </defs>
</svg>
