<svg xmlns="http://www.w3.org/2000/svg" width="270" height="203" fill="none" viewBox="0 0 270 203">
  <g opacity=".35">
    <path stroke="#CF122D" stroke-width="3" d="M10.413 87.436C4.685 81.806 1.82 74.202 1.82 64.523V32.819c0-9.58 2.865-17.087 8.593-22.519 5.728-5.53 13.63-8.296 23.605-8.296S51.895 4.769 57.722 10.3c5.827 5.531 8.79 13.037 8.79 22.519V64.62c0 9.68-2.864 17.285-8.691 22.914-5.828 5.63-13.729 8.395-23.704 8.395-10.074-.099-17.976-2.864-23.704-8.494zm31.506-13.234c1.976-2.074 2.963-4.84 2.963-8.395V32.029c0-3.556-.987-6.321-2.963-8.395-1.975-2.075-4.543-3.062-7.901-3.062-3.26 0-5.827.988-7.704 3.062-1.876 2.074-2.864 4.84-2.864 8.395v33.679c0 3.555.889 6.32 2.765 8.395 1.877 2.074 4.445 3.062 7.803 3.062 3.26.098 5.926-.988 7.901-2.963zM139.203 64.72c0 4.346-.79 8.494-2.37 12.543-2.272 5.432-6.025 9.68-11.259 12.938-5.235 3.26-11.358 4.939-18.173 4.939-6.914 0-12.938-1.58-18.074-4.741-5.235-3.16-8.988-7.506-11.358-12.938a33.61 33.61 0 01-2.075-7.803v-.296c0-.988.494-1.482 1.58-1.482h19.063c.79 0 1.382.395 1.777 1.284.1.494.395 1.186.89 2.074 1.678 3.556 4.345 5.334 7.999 5.334a9.545 9.545 0 004.939-1.383c1.481-.889 2.666-2.272 3.555-3.95.988-1.778 1.482-3.951 1.482-6.52 0-2.468-.395-4.542-1.284-6.221-.593-1.58-1.679-2.766-3.062-3.753-1.482-.89-3.062-1.383-4.938-1.383-1.976 0-3.852.494-5.63 1.481-1.778.988-2.963 2.173-3.556 3.655-.296.889-.79 1.284-1.679 1.284H77.573c-.394 0-.79-.198-1.086-.494-.296-.297-.494-.692-.494-1.087V4.571c0-.395.198-.79.494-1.086.296-.296.692-.494 1.087-.494h57.086c.395 0 .79.198 1.087.494.296.296.493.691.493 1.086V19.98c0 .395-.197.79-.493 1.086-.297.297-.692.494-1.087.494H98.314c-.395 0-.691.198-.691.692v15.21c0 .296.099.395.296.493.198.1.395 0 .494-.098 3.556-2.075 7.605-3.161 12.148-3.161 6.124 0 11.556 1.58 16.297 4.74 4.74 3.161 8.099 7.408 10.173 12.742a37.282 37.282 0 012.172 12.543z"/>
  </g>
  <path fill="#D6EBF8" d="M160.731 202.006c59.895 0 108.449-6.977 108.449-15.583s-48.554-15.583-108.449-15.583c-59.895 0-108.45 6.977-108.45 15.583s48.555 15.583 108.45 15.583z"/>
  <path fill="#DD1D3E" d="M197.74 175.599l49.138.217c5.52 0 9.957-4.437 9.957-9.848l.541-106.268c0-5.519-4.437-9.955-9.849-9.955l-49.138-.325c-5.52 0-9.957 4.437-9.957 9.847l-.541 106.268c0 5.519 4.329 10.064 9.849 10.064z"/>
  <path fill="#2F2F3B" d="M260.508 173.65c0-2.597-.865-108.107-.974-112.76-.108-7.035-5.844-12.77-12.988-12.77H197.3c-7.143 0-12.879 5.736-12.771 12.77l.974 112.76c.108 7.034 5.845 12.769 12.988 12.769h49.246c7.143 0 12.88-5.735 12.771-12.769zm-12.555-1.407h-49.787c-4.113 0-7.468-3.354-7.468-7.358l-.433-56.381-.541-47.94c0-4.111 3.247-7.358 7.36-7.358h49.787c4.113 0 7.468 3.355 7.468 7.359.217 25.322.866 101.939.866 104.32.108 4.112-3.139 7.358-7.252 7.358zM166.695 83.942l.325.325c.216.216.541.216.649 0l7.035-7.792c.217-.216.108-.54 0-.65l-.433-.324c-.216-.216-.541-.216-.649 0l-7.035 7.792c-.217.216-.108.433.108.649z"/>
  <path fill="#F7A491" d="M142.668 77.666c.974-.757 8.225 2.49 8.117 3.571-.108 1.082 5.087 11.904 5.087 11.904l8.983-7.142c.109-.217.974-3.03.974-3.571 0-.541 1.516-1.407 2.273-1.299.758.108-.649.974-.649 1.19-.217.433.649.65.649.65s2.598-1.407 2.598-2.273c.108-.866.541-2.597 1.191-2.272.324.216.324 1.406.216 2.056.216-.65.433-1.407.649-1.515.433-.109.65.433.542.649-.109.216-.758 3.138-.975 3.463-.216.325-4.437 3.68-4.978 4.437 0 0-11.581 13.31-12.447 13.635-.758.325-3.355-4.22-5.736-7.359-2.49-3.03-9.417-13.743-6.494-16.124z"/>
  <path fill="#F48C7F" d="M119.181 175.276s-1.624 1.515-1.624 2.164c0 .541-.108 6.71.541 7.251.65.541 2.598.974 1.949 1.623-.433.433-4.005.433-6.386.216-.65 0-1.515-5.519-1.84-6.384-.433-1.191-1.407-3.788-.974-4.654.216-.433.974-1.19 2.164-1.948 1.299-.757 2.49-2.597 2.49-2.597l3.68 4.329z"/>
  <path fill="#F7A491" d="M135.741 178.846l-1.407 4.004c-.108.65-.541 2.273-.541 2.814 0 2.164 9.849-1.84 7.685-2.814-.217-.108-.866-.757-.866-1.515-.109-1.19.866-2.597.866-2.597l-5.737.108z"/>
  <path fill="#272733" d="M151.221 103.746s.649 7.251.757 7.359c3.031 12.336 4.33 34.737 3.247 36.793l-12.771-.974-2.381-12.986-4.221-26.08 15.369-4.112z"/>
  <path fill="#2F2F3B" d="M130.223 110.13l-1.191 6.925-3.247 28.137 11.473 3.895 12.122-36.252-.433-8.008-18.724 5.303z"/>
  <path fill="#EFAB50" d="M166.48 93.141l-11.581 8.333-4.221-5.411-5.628-8.657s-.433-7.143-.433-10.497c0-4.112.325-9.415.866-9.307 1.407.325 3.247 1.082 4.438 2.597 2.814 3.788 3.571 10.497 3.788 13.96 0 .65 2.381 8.657 2.381 8.982 0 .325 2.706-3.68 4.221-5.41.974-1.191 6.169 5.41 6.169 5.41z"/>
  <path fill="#F8A492" d="M121.34 118.788c-1.298-2.164-1.623-1.839-1.731-2.164-.217-.325 0-5.411 0-5.411s.216-4.112.433-7.9c.216-2.921-5.845-5.194-5.52-1.082.324 5.195.757 11.255.866 12.878v.433c-.217.541-.65 2.272-.975 3.354-.432 1.407-.108 2.922-.216 3.247 0 .108-.108 1.407.216 3.138.217 1.082.542.541.65.108 0-.108.108-.216.108-.324 0-.65 0-2.706.217-2.597.216 0 .108 1.623.433 3.246.108.433.108.866.216 1.19.216.974.866 1.191.866.109 0-.433-.108-.974-.108-1.407-.109-.433 0-.974-.109-1.407 0-.866-.108-1.407 0-1.407 0 0 .109-.108.217.325.108.541.108 1.731.325 2.489.108.324.216.974.324 1.298 0 .109 0 .109.108.217.109.324.542 1.298.65 1.298.433 0 .325-.865.108-1.515 0-.108-.108-.216-.108-.324 0-.325-.108-.866-.217-1.191v-.216c0-.433 0-1.948.217-1.948.108 0 .325 1.299.757 2.489.325 1.082.866 2.164 1.191 2.164.325-.108.217-1.082.108-1.298v-.108c0-.109-.216-.866-.324-1.191-.109-.324-.217-1.407-.217-1.407s-.433-3.895-.216-3.895c.324 0 .974.324 1.082.541.108.216 0 .757.108.974.108.216.433.433.65.324.324-.108.216-1.407.216-1.407s.108-.973-.325-1.623z"/>
  <path fill="#FFC063" d="M149.481 76.15c-.758-5.302-1.407-7.575-1.407-7.575-3.247-2.272-11.257-1.298-13.205-1.082-2.273.217-4.329.758-6.061 1.299h-.108c-4.113 1.082-15.153 25.647-15.153 25.647l-.324 11.363 8.334 1.623-.217-9.848s3.788-7.467 6.927-12.77c0 .325.108.65.108.867.65 3.246.109 27.27.109 27.27s8.766 6.276 24.568-1.407c-.108 0-3.463-34.088-3.571-35.387z"/>
  <path fill="#1C96B7" d="M113.118 173.436s3.68 10.388 5.087 10.821c.433.108 2.165.433 2.598 1.299.108.216 0 1.082 0 1.082h-7.685s-.974-4.545-1.407-6.601c0 0-2.056-4.87-1.84-5.303.325-.433 3.247-1.298 3.247-1.298zM133.246 186.423l1.082-3.571s2.382.973 3.572.865c1.191-.216 3.464-.865 3.464-.865 4.762 1.515 8.55 2.272 7.901 3.571h-16.019z"/>
  <path fill="#F7A491" d="M137.038 60.46l-1.19 7.141s2.489 2.381 5.087 1.624c2.164-.65 2.597-1.732 2.597-1.732s-1.19-4.22-.866-6.276c.325-2.056-5.628-.758-5.628-.758z"/>
  <path fill="#F47458" d="M142.662 61.217c.325-2.056-5.628-.758-5.628-.758l-.108.65c.216.432.433.757.649.974 1.299 1.406 3.464 2.164 5.195 2.272-.216-1.082-.324-2.273-.108-3.138z"/>
  <path fill="#F7A491" d="M136.067 50.07c-.217-.108-1.407 8.442.866 10.714 2.273 2.38 6.602 3.138 8.225 1.299 1.732-2.056 1.624-11.146-1.839-13.527-3.572-2.381-7.252 1.515-7.252 1.515z"/>
  <path fill="#2F2F3B" d="M141.263 40.656c1.083 4.22-7.251 6.926-8.983 9.631-2.165 3.355-.541 7.143 1.948 8.982 2.49 1.84 2.381 3.896 2.381 3.896l.433-1.082c.325-.866.433-1.731.325-2.597-.108-.541-.216-1.082-.433-1.515-.541-1.19 1.299-2.056 1.84-3.03.433-.758.433-2.598 1.082-3.896l.758-.974s1.732-1.299 3.463-.974c1.624.433 2.598-6.601-2.814-8.44z"/>
  <path fill="#F7A491" d="M138.558 56.457c0 1.082-.433 1.84-1.082 1.84-.65 0-1.191-.866-1.191-1.84 0-1.082.433-1.84 1.082-1.84.65 0 1.191.758 1.191 1.84z"/>
  <path fill="#D64747" d="M155.225 105.801c-.217 0-.542-.108-.542-.432-.216-.974-.541-3.247-.649-5.628-.216-4.436.325-6.925 1.84-7.683 1.515-.757 3.788.325 7.252 3.138 1.84 1.515 3.463 3.247 4.112 3.896.217.217.217.541 0 .65-.216.216-.432.108-.649 0-3.03-3.247-8.334-7.792-10.282-6.926-1.948.974-1.407 7.899-.649 12.336 0 .325-.109.649-.433.649z"/>
  <path fill="#FF5353" d="M168.207 97.578l-15.91 7.575 7.576 30.733 26.734-13.527-18.4-24.78z"/>
  <g>
    <path fill="#EFAB50" d="M154.897 101.149s.217-.108.217-.217c-.325-3.354-.217-6.6.866-7.683 0 0-.217-.54-.542-1.082-1.19.974-1.84 3.463-1.515 7.467 0 .325.108.541.108.866.433.432.758.649.866.649z"/>
  </g>
  <path fill="#F48C7F" d="M115.5 170.947l11.689-25.215 8.551 2.814-16.56 26.729-3.68-4.328z"/>
  <path fill="#F7A491" d="M135.738 178.847l8.01-31.707 9.524.649-11.906 31.058h-5.628z"/>
  <path fill="#D64747" d="M188.663 118.246l-20.456-20.669 18.4 24.781.541-2.705 1.515-1.407z"/>
  <path fill="#F5FCFF" d="M146.235 58.078s-1.407 1.299-3.68 1.299c0 0 1.19.865 3.355.974 0 0 .325-1.19.325-2.273z"/>
  <g>
    <path fill="#4BD0E2" d="M167.559 20.852c-8.875 1.623-15.152 7.358-14.178 12.877.541 2.706 2.706 4.87 5.953 6.06l-2.706 9.74 7.035-8.658c2.381.325 4.87.217 7.576-.324 8.875-1.623 15.153-7.359 14.179-12.878-.974-5.41-8.984-8.44-17.859-6.817z"/>
    <path fill="#fff" d="M162.902 30.7c-.541-.54-.757-1.298-.757-2.272 0-.974.216-1.731.757-2.272.541-.541 1.191-.866 2.057-.866.865 0 1.515.325 1.948.866.541.54.757 1.298.757 2.272 0 .974-.216 1.732-.757 2.273-.541.54-1.191.866-1.948.866-.866-.109-1.516-.325-2.057-.866zm2.814-.973c.217-.325.325-.758.325-1.299 0-.54-.108-.974-.325-1.298-.216-.325-.541-.433-.866-.433-.324 0-.649.108-.866.433-.216.324-.324.757-.324 1.298s.108.974.324 1.299c.217.325.542.433.866.433.433 0 .65-.108.866-.433zm5.845-4.22h1.948l-7.685 11.146h-1.948l7.685-11.146zm-.541 10.93c-.433-.217-.758-.65-.974-1.083-.217-.433-.325-.974-.325-1.623 0-.65.108-1.19.325-1.623.216-.433.541-.866.974-1.082a2.996 2.996 0 011.407-.325c.866 0 1.515.325 2.056.866.541.54.758 1.298.758 2.272 0 .974-.217 1.732-.758 2.273-.541.54-1.19.865-2.056.865-.433-.216-.974-.324-1.407-.54zm2.273-1.408c.216-.324.324-.757.324-1.298s-.108-.974-.324-1.299c-.217-.324-.542-.433-.866-.433-.325 0-.65.109-.866.433-.217.325-.325.758-.325 1.299 0 .54.108 1.082.325 1.298.216.325.541.433.866.433.433 0 .757-.108.866-.433z"/>
  </g>
  <g>
    <path fill="#fff" d="M243.537 113.594c0-2.056-.108-4.004-.108-6.06 0-1.515-.108-3.03-.541-4.437-.325-1.082-.974-1.948-1.84-2.597-1.083-.757-2.273-1.082-3.464-1.19-.757-.108-1.515-.108-2.273-.217-1.19 0-2.381-.108-3.68-.108-1.19 0-2.272 0-3.463.108-.974.109-1.948 0-2.922.325-.974.325-1.84.866-2.381 1.623-.433.541-.758 1.191-1.083 1.732-.108-.325-.324-.65-.433-.974-.324-.758-.866-1.515-1.515-1.948-.649-.433-1.407-.758-2.165-.758-1.515-.108-3.03-.108-4.545-.216h-3.572c-.974 0-1.84 0-2.814.108-1.191.108-2.381.325-3.464.866-1.298.649-2.164 1.515-2.597 2.813-.433 1.191-.541 2.381-.65 3.572-.108 1.082 0 2.164-.108 3.246 0 1.623-.108 3.138 0 4.762.108 1.082.217 2.164.541 3.246.433 1.299 1.191 2.489 2.382 3.355 1.407 1.082 2.922 1.731 4.762 1.731h10.715c.325 0 .433.108.649.433.217.433.433.866.758 1.299.757 1.19 1.84 2.164 3.03 3.03.217.216.542.324.758.541-.108-.541-.216-1.082-.433-1.515-.108-.65-.108-1.191.108-1.732.433-1.19 1.407-1.839 2.598-2.056.649-.108 1.299-.108 1.948-.108h8.118c1.515 0 2.922-.325 4.221-1.19 1.84-1.191 2.922-2.922 3.247-5.087.216-.757.216-1.731.216-2.597z"/>
    <path fill="#fff" d="M231.415 126.039c-.109-1.082-.866-1.732-1.84-2.165-1.515-.649-2.923-.541-4.221.325-1.191.758-1.624 2.273-.758 3.463.649.974 1.732 1.407 2.814 1.515 1.299 0 2.381-.216 3.247-.974.541-.649.866-1.299.758-2.164zM233.252 128.095c-.866 0-1.624.216-2.165.757-.433.541-.541 1.407-.108 1.948.433.649 1.19.974 2.164.974.65.108 1.299-.108 1.949-.649.757-.65.757-1.623.108-2.273-.65-.541-1.191-.757-1.948-.757z"/>
    <g>
      <path fill="#CE132C" d="M239.853 110.024c-.325-.974-.866-1.623-1.84-1.948-.541-.216-1.083-.325-1.624-.433-1.19-.108-2.273 0-3.463.325-1.083.324-1.732 1.082-2.057 2.056a6.669 6.669 0 000 2.922c.217 1.082.866 1.731 1.84 2.164.65.216 1.299.325 1.949.433.865 0 1.731 0 2.597-.217 1.299-.324 2.165-1.082 2.598-2.489.324-.757.324-1.839 0-2.813zm-2.273 2.056c0 .216-.108.541-.217.757-.216.542-.649.866-1.19.974-.541.109-1.083.109-1.732 0-.649-.216-1.082-.541-1.19-1.19a5.218 5.218 0 010-1.84c.216-.649.541-1.082 1.19-1.19a4.11 4.11 0 011.624 0c.649.216 1.082.649 1.298 1.299.217.324.325.757.217 1.19zM223.289 108.4c-.542-.325-1.083-.433-1.732-.541a7.087 7.087 0 00-3.031.325c-.866.324-1.515.757-1.948 1.623-.216.541-.325 1.19-.325 1.515-.108.974 0 1.623.217 2.381.216.757.649 1.406 1.407 1.731 1.299.541 2.597.758 4.005.541a6.27 6.27 0 002.272-.757c.433-.217.542-.433.217-.866-.108-.217-.325-.433-.433-.649-.325-.325-.433-.325-.758-.109a3.205 3.205 0 01-.866.433 4.046 4.046 0 01-2.272 0c-.542-.108-.975-.433-1.191-1.082-.108-.325 0-.433.325-.433H224.371c.325 0 .433-.108.433-.324 0-.65 0-1.299-.108-1.948-.325-.65-.65-1.407-1.407-1.84zm-1.191 2.705c-.325.109-.758 0-1.082 0h-2.273c-.217 0-.217-.108-.217-.324.109-.541.433-.974 1.083-1.082.433-.109.865-.109 1.298-.109.325 0 .758.109 1.083.433.216.217.324.433.324.758.109.108 0 .216-.216.324zM211.604 115.217c-.758-1.082-1.515-2.165-2.381-3.247-.433-.541-.433-.866.108-1.298.758-.758 1.515-1.624 2.273-2.489.108-.109.108-.109.108-.217s-.108-.108-.216-.108h-.974c-.758-.108-1.299.108-1.732.649-.433.541-1.083.974-1.624 1.515v-.216-1.732c0-.324-.108-.432-.433-.432h-1.19c-.541 0-.758.108-.758.649v7.034c0 .433.108.541.541.541h1.191c.433 0 .649-.216.649-.649v-.109-2.056c0-.108 0-.108.109-.216.108 0 .108 0 .108.108.541.758 1.19 1.407 1.731 2.164.325.433.866.758 1.408.65h1.298c.217 0 .325-.217.217-.325-.217 0-.325-.108-.433-.216zM230.217 107.644c-.541 0-.974.108-1.515.216-.325.108-.65.325-.974.541v-.216c0-.325-.217-.541-.542-.541h-1.515c-.324 0-.433.108-.433.432v7.034c0 .325.109.542.541.542h1.299c.541 0 .65-.217.65-.65v-1.623-1.84c0-1.082.324-1.515 1.298-1.731h.109c.324-.108.649-.108 1.082-.217.325-.108.433-.216.433-.541v-1.082c0-.108-.108-.324-.433-.324zM215.283 108.184c0-.216-.108-.325-.324-.325h-1.624c-.324 0-.433.109-.433.433v7.034c0 .325.109.433.433.433h1.407c.541 0 .541-.108.541-.541v-.757-5.087c0-.432.109-.757 0-1.19z"/>
    </g>
    <path fill="#74C0D1" d="M214.638 102.232c.541 0 1.191.217 1.732.758.866.757.974 1.948.108 2.814-1.082.973-3.031 1.082-4.221.108-.974-.866-.866-2.273.108-3.03.649-.433 1.407-.65 2.273-.65z"/>
  </g>
  <g>
    <path fill="#F7A491" d="M73.385 173.545s-.65 4.329-1.732 5.735c-.325.433-1.082 1.082-1.515 1.948-.65 1.299-.325 3.247.216 4.437.217.541 0 .541.541.758 1.732.541 3.68-.325 4.33-2.057.433-.973.757-2.164.865-3.679.217-4.004 1.407-5.952 1.407-5.952l-4.112-1.19zM92.653 175.6s.433 4.869.108 6.493c-.216.865-1.082 2.597-.65 3.462.434.758.975.974.975.974l11.364.217c.65 0 .217-.433-.324-.758-.866-.541-1.516-.974-4.113-2.164-.217-.108-.758-.433-.974-.649-.541-.325-1.083-.866-1.624-1.407-.866-.866-.866-5.194-.866-5.194l-3.896-.974z"/>
    <path fill="#E5683C" d="M101.529 110.345s1.407 8.008.541 13.202c-.974 5.194-5.412 53.675-5.412 53.675l-4.978.325s-1.083-20.237-.866-23.05c.216-2.814 1.623-7.467 1.623-7.467l-.54-16.341 6.277-21.426 3.355 1.082z"/>
    <path fill="#FF7C48" d="M86.802 108.614s-3.897 5.844-4.87 10.605c-.975 4.87.649 19.587-1.083 25.972-.974 3.463-4.654 8.657-5.195 13.094-.541 4.437-2.814 16.016-2.814 16.016l4.979.974 11.689-28.894 9.091-26.188 2.381-13.419-14.178 1.84z"/>
    <path fill="#56CED7" d="M75.658 183.499c-2.706.541-4.546-1.082-5.52-2.272-.65 1.298-1.083 3.354-.541 4.436.433.974 1.731.974 2.814.974 1.082 0 1.948-.541 2.49-1.515.324-.433.54-.974.757-1.623zM98.93 183.067c-3.031.758-5.196.216-6.495-.216-.324.865-.757 2.056-.54 2.705.324.757.649.974.973.974 2.706.108 10.066.216 12.122.216.325 0 .433-.324.217-.541-.325-.649-6.061-2.922-6.278-3.138z"/>
    <path fill="#F7A491" d="M114.3 122.575c.541 0 .325-2.164.758-2.38.433-.217 1.19 2.597 1.515 2.597.758 0-.541-3.138-.216-3.138.324 0 1.948 3.138 2.489 2.705.541-.541-1.948-3.138-1.624-3.355.433-.216 2.057 2.597 2.923 2.381.433-.108-3.572-4.437-3.464-5.086.108-.649 2.598.108 2.814-.433.217-.541-4.654-.866-4.87-1.19-.217-.325-13.313-18.18-14.503-20.345.757-.433-.542 8.224-.758 8.982-.433 2.381 10.607 11.687 12.23 13.094 1.624 1.407 1.407 2.381 2.057 3.463.757.757.108 2.597.649 2.705z"/>
    <path fill="#1D3B4C" d="M99.579 70.523c.541-2.489 1.082-4.978-.325-7.791-1.19-2.273-3.247-3.463-5.736-3.788-6.819-.757-5.412 5.41-14.828 6.71-2.923.432-5.737.865-8.226 2.272-4.438 2.597-6.17 6.71-3.139 13.527 7.252 16.557 24.57 2.164 27.275-.758 2.49-2.813 4.654-8.549 4.979-10.172z"/>
    <path fill="#56CED7" d="M88.86 78.423s-3.464.433-5.52 2.597c-2.056 2.164 3.355 19.695 3.68 22.509.325 2.813-3.572 10.497-3.572 10.497s15.045 1.948 18.508-.325c0 0-1.299-20.885-1.623-22.833-.325-1.948-3.464-10.064-4.221-10.822-.758-.866-7.252-1.623-7.252-1.623z"/>
    <path fill="#F7A491" d="M90.596 71.713s0 .108-.109.433c-.216 1.19-1.082 5.302-1.731 6.384-.758 1.299 2.49 5.627 5.628 5.086.974-.108-.758-3.895-.65-4.328.109-.758.325-1.84.542-2.922.108-.65.216-1.19.324-1.84.325-1.623.65-2.921.65-2.921l-4.654.108z"/>
    <path fill="#F47458" d="M90.49 72.038c0-.216.108-.433.108-.433l4.654-.108s-.325 1.299-.65 2.922c-.108.541-.216 1.19-.324 1.731-.758-.108-1.515-.433-2.273-1.082-.866-.65-1.407-1.515-1.732-2.489.217-.108.217-.324.217-.54z" opacity=".5"/>
    <path fill="#F7A491" d="M93.41 60.892s-1.949.216-3.248 1.947c-1.407 1.732-2.814 7.034.542 9.956 3.463 2.922 6.818-.433 7.251-3.896.541-3.354.433-8.116-4.546-8.008z"/>
    <path fill="#F7A491" d="M98.93 68.143c-.217.865-.758 1.406-1.299 1.298-.433-.108-.65-.974-.433-1.731.217-.866.758-1.407 1.299-1.299.433.108.65.866.433 1.732z"/>
    <path fill="#1D3B4C" d="M95.468 60.892s-4.438 4.978-6.603 5.194c-2.056.217-2.38 2.922-2.38 2.922s.757-6.276 2.813-7.467c2.165-1.082 6.17-.649 6.17-.649z"/>
    <path fill="#F7A491" d="M89.624 67.385c.216.866-.216 1.731-.758 1.84-.54.108-1.19-.541-1.407-1.407-.216-.866.217-1.732.758-1.84.65-.216 1.299.433 1.407 1.407z"/>
    <path fill="#fff" d="M95.786 70.74H92.54s.108 1.19 1.515 1.298c1.732 0 1.732-1.299 1.732-1.299z"/>
    <path fill="#0A4366" d="M92.974 112.727c-4.546-.866-7.577-5.195-6.819-9.74l.866-4.545c.866-4.545 5.195-7.575 9.74-6.817 4.547.865 7.577 5.194 6.82 9.739l-.758 4.545c-.866 4.653-5.303 7.684-9.85 6.818z"/>
    <path fill="#fff" d="M96.087 102.188a.974.974 0 10-1.916-.35.974.974 0 001.916.35z"/>
    <path fill="#F7A491" d="M79.447 97.468l5.195.54s-.108 4.329 0 4.871c0 0 8.875 2.38 12.663 3.03 0 0 1.732-.974 2.381-1.191.65-.324 2.489-.649 2.922-.649.433 0 .217.433-.108.541-.325.108-1.299.541-1.515 1.082 0 0 .758.108 1.082-.108.433-.217.974-.541.974-.758 0-.216.109-.649.217-.649 0 0 .108.108.108.325 0 .108.108.324.108.433.109.216.109.649.217.865.108.433-.217 1.515-.217 1.84-.108.758-.324.974-.649 1.19-.65.217-1.299.325-2.273.433-1.732.217-3.355-.324-4.113-.433-.757-.108-12.122-1.19-12.122-1.19s-4.546-.649-4.87-1.407c-.109-.649 0-8.765 0-8.765z"/>
    <path fill="#4BBCBF" d="M83.988 80.37s-1.624.758-3.14 4.005c-1.406 3.138-1.73 18.721-1.73 18.721l5.41-.866 2.815-7.25c1.948-4.329 1.515-9.415-1.407-13.31-.758-.975-1.515-1.624-1.948-1.3z"/>
    <path fill="#0A4366" d="M92.001 90.759s-3.788-14.826-8.983-9.523l-.541.541s.649-1.948 2.489-2.38c1.732-.433 5.303-.975 8.442 11.578M86.697 100.174s-.433-.216-.974-.974l-.325.866s.217 1.84.975 2.056c.649.325.324-1.948.324-1.948z"/>
  </g>
</svg>
