<svg width="9" height="10" viewBox="0 0 9 10" fill="none" xmlns="http://www.w3.org/2000/svg">
<path d="M4.71176 1.02782L5.97446 3.63485L8.79828 4.05298C8.84179 4.05922 8.8827 4.07778 8.91634 4.10655C8.94999 4.13531 8.97501 4.17312 8.98857 4.21567C9.00212 4.25821 9.00366 4.30378 8.993 4.34717C8.98234 4.39057 8.95992 4.43004 8.9283 4.46108L6.88553 6.48955L7.36815 9.35929C7.37588 9.40335 7.37128 9.44874 7.35488 9.49027C7.33848 9.5318 7.31093 9.5678 7.27539 9.59415C7.23985 9.6205 7.19775 9.63615 7.15389 9.6393C7.11003 9.64245 7.06618 9.63298 7.02736 9.61197L4.5 8.25632L1.97461 9.60696C1.93616 9.62781 1.89276 9.63734 1.84928 9.63447C1.8058 9.63161 1.76397 9.61647 1.72847 9.59075C1.69298 9.56503 1.66523 9.52974 1.64833 9.48886C1.63144 9.44798 1.62607 9.40311 1.63284 9.35929L2.11546 6.49457L0.0717037 4.46008C0.0400765 4.42903 0.0176562 4.38956 0.00699979 4.34617C-0.00365658 4.30278 -0.00212004 4.25721 0.0114342 4.21467C0.0249884 4.17212 0.0500146 4.13431 0.0836587 4.10554C0.117303 4.07678 0.15821 4.05822 0.201716 4.05198L3.02653 3.63385L4.28922 1.02782C4.30835 0.987313 4.33833 0.953126 4.37571 0.929199C4.41309 0.905272 4.45634 0.892578 4.50049 0.892578C4.54464 0.892578 4.5879 0.905272 4.62528 0.929199C4.66265 0.953126 4.69263 0.987313 4.71176 1.02782V1.02782Z" fill="black"/>
</svg>
