<svg width="9" height="9" viewBox="0 0 9 9" fill="none" xmlns="http://www.w3.org/2000/svg">
<path d="M4.71176 0.135245L5.97446 2.74228L8.79828 3.1604C8.84179 3.16664 8.8827 3.1852 8.91634 3.21397C8.94999 3.24273 8.97501 3.28054 8.98857 3.32309C9.00212 3.36564 9.00366 3.4112 8.993 3.4546C8.98234 3.49799 8.95992 3.53746 8.9283 3.5685L6.88553 5.59697L7.36815 8.46671C7.37588 8.51078 7.37128 8.55617 7.35488 8.5977C7.33848 8.63923 7.31093 8.67522 7.27539 8.70157C7.23985 8.72793 7.19775 8.74357 7.15389 8.74672C7.11003 8.74987 7.06618 8.7404 7.02736 8.71939L4.5 7.36374L1.97461 8.71438C1.93616 8.73523 1.89276 8.74476 1.84928 8.7419C1.8058 8.73903 1.76397 8.72389 1.72847 8.69817C1.69298 8.67245 1.66523 8.63717 1.64833 8.59628C1.63144 8.5554 1.62607 8.51053 1.63284 8.46671L2.11546 5.60199L0.0717037 3.5675C0.0400765 3.53645 0.0176562 3.49698 0.00699979 3.45359C-0.00365658 3.4102 -0.00212004 3.36463 0.0114342 3.32209C0.0249884 3.27954 0.0500146 3.24173 0.0836587 3.21297C0.117303 3.1842 0.15821 3.16564 0.201716 3.1594L3.02653 2.74127L4.28922 0.135245C4.30835 0.0947344 4.33833 0.0605478 4.37571 0.036621C4.41309 0.0126942 4.45634 0 4.50049 0C4.54464 0 4.5879 0.0126942 4.62528 0.036621C4.66265 0.0605478 4.69263 0.0947344 4.71176 0.135245V0.135245Z" fill="black"/>
</svg>
