<svg width="9" height="9" viewBox="0 0 9 9" fill="none" xmlns="http://www.w3.org/2000/svg">
<path d="M4.71176 0.135244L5.97446 2.74226L8.79828 3.16038C8.84179 3.16662 8.8827 3.18518 8.91634 3.21395C8.94999 3.24271 8.97501 3.28052 8.98857 3.32307C9.00212 3.36561 9.00366 3.41118 8.993 3.45457C8.98234 3.49796 8.95992 3.53743 8.9283 3.56848L6.88553 5.59694L7.36815 8.46665C7.37588 8.51072 7.37128 8.55611 7.35488 8.59764C7.33848 8.63916 7.31093 8.67516 7.27539 8.70151C7.23985 8.72786 7.19775 8.74351 7.15389 8.74666C7.11003 8.74981 7.06618 8.74034 7.02736 8.71933L4.5 7.36369L1.97461 8.71432C1.93616 8.73517 1.89276 8.7447 1.84928 8.74184C1.8058 8.73897 1.76397 8.72383 1.72847 8.69811C1.69298 8.67239 1.66523 8.63711 1.64833 8.59622C1.63144 8.55534 1.62607 8.51047 1.63284 8.46665L2.11546 5.60195L0.0717037 3.56748C0.0400765 3.53643 0.0176562 3.49696 0.00699979 3.45357C-0.00365658 3.41018 -0.00212004 3.36461 0.0114342 3.32206C0.0249884 3.27952 0.0500146 3.24171 0.0836587 3.21294C0.117303 3.18418 0.15821 3.16562 0.201716 3.15938L3.02653 2.74125L4.28922 0.135244C4.30835 0.0947337 4.33833 0.0605474 4.37571 0.0366207C4.41309 0.0126941 4.45634 0 4.50049 0C4.54464 0 4.5879 0.0126941 4.62528 0.0366207C4.66265 0.0605474 4.69263 0.0947337 4.71176 0.135244V0.135244Z" fill="black"/>
</svg>
