<svg width="26" height="25" viewBox="0 0 26 25" fill="none" xmlns="http://www.w3.org/2000/svg">
<path fill-rule="evenodd" clip-rule="evenodd" d="M7.06243 18.9331H20.8434C21.6193 18.9306 22.3685 18.6499 22.9549 18.142C23.5414 17.634 23.9262 16.9326 24.0394 16.1651L25.2394 7.87906C25.3156 7.50373 25.3122 7.11662 25.2295 6.74268C25.1469 6.36874 24.9867 6.01629 24.7594 5.70806C24.5513 5.43551 24.2811 5.21656 23.9714 5.06942C23.6616 4.92228 23.3212 4.85119 22.9784 4.86206H5.91943C5.72571 4.86199 5.53908 4.78919 5.39648 4.65808C5.25389 4.52696 5.16572 4.34708 5.14943 4.15406L4.90843 1.32406C4.89 1.11504 4.80354 0.91784 4.66228 0.762682C4.52103 0.607523 4.3328 0.502971 4.12643 0.465055L1.11343 0.0100553C1.06606 0.00330537 1.01827 -3.65515e-05 0.970426 5.52962e-05C0.743179 -0.00238032 0.522406 0.0757148 0.347236 0.2205C0.172066 0.365286 0.0538099 0.567411 0.0134263 0.791055C-0.00754116 0.912706 -0.00391997 1.03733 0.024076 1.15755C0.052072 1.27778 0.103875 1.39118 0.176426 1.49106C0.247261 1.59264 0.337414 1.67928 0.441735 1.74603C0.546056 1.81277 0.662503 1.85832 0.784426 1.88006L2.69143 2.20906L3.85443 15.9781C3.92092 16.7833 4.28768 17.534 4.88193 18.0814C5.47618 18.6288 6.25449 18.9328 7.06243 18.9331ZM14.9601 9.60212C15.0758 9.55506 15.1996 9.53158 15.3244 9.53306H18.8244C18.9492 9.53158 19.0731 9.55506 19.1887 9.60212C19.3043 9.64918 19.4094 9.71886 19.4977 9.80708C19.586 9.8953 19.6558 10.0003 19.703 10.1158C19.7502 10.2314 19.7738 10.3552 19.7724 10.4801C19.7722 10.7314 19.6722 10.9724 19.4945 11.1501C19.3167 11.3278 19.0758 11.4278 18.8244 11.4281H15.3244C15.0731 11.4278 14.8321 11.3278 14.6544 11.1501C14.4767 10.9724 14.3767 10.7314 14.3764 10.4801C14.3751 10.3552 14.3987 10.2314 14.4459 10.1158C14.4931 10.0003 14.5629 9.8953 14.6512 9.80708C14.7395 9.71886 14.8445 9.64918 14.9601 9.60212ZM19.4717 21.7853C19.2623 22.1007 19.1512 22.4711 19.1524 22.8497C19.1556 23.3568 19.3593 23.8421 19.719 24.1996C20.0787 24.5571 20.5653 24.7577 21.0724 24.7577C21.451 24.7565 21.8207 24.6431 22.1348 24.4318C22.4489 24.2205 22.6932 23.9208 22.837 23.5706C22.9808 23.2204 23.0175 22.8354 22.9424 22.4644C22.8674 22.0934 22.6841 21.7529 22.4156 21.486C22.147 21.2192 21.8054 21.038 21.4339 20.9653C21.0624 20.8926 20.6777 20.9317 20.3284 21.0777C19.9791 21.2236 19.681 21.4699 19.4717 21.7853ZM5.26065 21.7853C5.05133 22.1007 4.94023 22.4711 4.94142 22.8497C4.94459 23.3568 5.14827 23.8421 5.508 24.1996C5.86772 24.5571 6.35427 24.7577 6.86142 24.7577C7.23997 24.7565 7.60966 24.6431 7.92376 24.4318C8.23785 24.2205 8.48223 23.9208 8.626 23.5706C8.76977 23.2204 8.80647 22.8354 8.73145 22.4644C8.65643 22.0934 8.47307 21.7529 8.20456 21.486C7.93604 21.2192 7.59443 21.038 7.22293 20.9653C6.85142 20.8926 6.4667 20.9317 6.11741 21.0777C5.76813 21.2236 5.46998 21.4699 5.26065 21.7853Z" fill="white"/>
</svg>
