<svg xmlns="http://www.w3.org/2000/svg" width="16" height="16" fill="none" viewBox="0 0 16 16">
  <path fill="#1FC2E6" d="M6.262 1.553a2.609 2.609 0 013.476 0c.44.394 1.002.626 1.592.66a2.609 2.609 0 012.458 2.457c.033.59.265 1.151.659 1.592.885.99.885 2.486 0 3.476a2.609 2.609 0 00-.66 1.592 2.609 2.609 0 01-2.457 2.458 2.609 2.609 0 00-1.592.659 2.609 2.609 0 01-3.476 0 2.609 2.609 0 00-1.592-.66 2.609 2.609 0 01-2.458-2.457 2.608 2.608 0 00-.659-1.592 2.609 2.609 0 010-3.476c.394-.44.626-1.002.66-1.592A2.609 2.609 0 014.67 2.212a2.609 2.609 0 001.592-.659z"/>
  <path fill="#fff" fill-rule="evenodd" d="M11.791 5.216a.753.753 0 010 1.04l-4.383 4.528a.696.696 0 01-1.008 0L4.21 8.52a.753.753 0 010-1.04.696.696 0 011.007 0l1.688 1.743 3.88-4.007a.696.696 0 011.007 0z" clip-rule="evenodd"/>
</svg>
