<svg width="32" height="33" viewBox="0 0 32 33" fill="none" xmlns="http://www.w3.org/2000/svg">
<path d="M22.5118 26.4786C22.5106 26.1 22.6217 25.7296 22.831 25.4142C23.0404 25.0988 23.3385 24.8526 23.6878 24.7066C24.0371 24.5606 24.4218 24.5215 24.7933 24.5942C25.1648 24.6669 25.5064 24.8481 25.7749 25.115C26.0434 25.3818 26.2268 25.7223 26.3018 26.0933C26.3768 26.4644 26.3401 26.8493 26.1964 27.1995C26.0526 27.5497 25.8082 27.8494 25.4941 28.0607C25.18 28.272 24.8103 28.3854 24.4318 28.3866C23.9246 28.3866 23.4381 28.186 23.0784 27.8285C22.7186 27.471 22.515 26.9857 22.5118 26.4786V26.4786ZM8.30079 26.4786C8.29961 26.1 8.4107 25.7296 8.62003 25.4142C8.82935 25.0988 9.12751 24.8526 9.47679 24.7066C9.82607 24.5606 10.2108 24.5215 10.5823 24.5942C10.9538 24.6669 11.2954 24.8481 11.5639 25.115C11.8324 25.3818 12.0158 25.7223 12.0908 26.0933C12.1658 26.4644 12.1291 26.8493 11.9854 27.1995C11.8416 27.5497 11.5972 27.8494 11.2831 28.0607C10.969 28.272 10.5993 28.3854 10.2208 28.3866C9.71365 28.3866 9.2271 28.186 8.86737 27.8285C8.50764 27.471 8.30396 26.9857 8.30079 26.4786V26.4786Z" fill="white"/>
<path d="M24.2028 22.562H10.4218C9.61386 22.5617 8.83555 22.2577 8.2413 21.7103C7.64705 21.1629 7.28029 20.4122 7.2138 19.607L6.0508 5.83796L4.1438 5.50896C4.02188 5.48722 3.90543 5.44168 3.80111 5.37494C3.69679 5.30819 3.60664 5.22155 3.5358 5.11996C3.46325 5.02009 3.41145 4.90669 3.38345 4.78646C3.35546 4.66623 3.35183 4.54161 3.3728 4.41996C3.41318 4.19632 3.53144 3.99419 3.70661 3.84941C3.88178 3.70462 4.10255 3.62653 4.3298 3.62896C4.37765 3.62887 4.42544 3.63221 4.4728 3.63896L7.4858 4.09396C7.69217 4.13188 7.88041 4.23643 8.02166 4.39159C8.16291 4.54675 8.24938 4.74395 8.2678 4.95296L8.5088 7.78296C8.52509 7.97599 8.61326 8.15587 8.75586 8.28698C8.89846 8.4181 9.08509 8.4909 9.2788 8.49096H26.3378C26.6806 8.48009 27.021 8.55119 27.3307 8.69833C27.6405 8.84547 27.9107 9.06441 28.1188 9.33696C28.3461 9.64519 28.5062 9.99765 28.5889 10.3716C28.6716 10.7455 28.675 11.1326 28.5988 11.508L27.3988 19.794C27.2856 20.5615 26.9008 21.2629 26.3143 21.7709C25.7278 22.2788 24.9786 22.5595 24.2028 22.562V22.562ZM18.6838 13.162C18.559 13.1605 18.4351 13.184 18.3195 13.231C18.2039 13.2781 18.0988 13.3478 18.0105 13.436C17.9222 13.5242 17.8524 13.6292 17.8053 13.7447C17.7581 13.8603 17.7345 13.9841 17.7358 14.109C17.7361 14.3603 17.836 14.6013 18.0138 14.779C18.1915 14.9567 18.4325 15.0567 18.6838 15.057H22.1838C22.4351 15.0567 22.6761 14.9567 22.8538 14.779C23.0316 14.6013 23.1315 14.3603 23.1318 14.109C23.1331 13.9841 23.1095 13.8603 23.0623 13.7447C23.0152 13.6292 22.9454 13.5242 22.8571 13.436C22.7688 13.3478 22.6637 13.2781 22.5481 13.231C22.4325 13.184 22.3086 13.1605 22.1838 13.162H18.6838Z" fill="white"/>
</svg>
