<svg width="53" height="42" viewBox="0 0 53 42" fill="none" xmlns="http://www.w3.org/2000/svg">
<path d="M48 0H5C2.23858 0 0 2.23858 0 5V37C0 39.7614 2.23858 42 5 42H48C50.7614 42 53 39.7614 53 37V5C53 2.23858 50.7614 0 48 0Z" fill="#CF0A2C"/>
<path d="M48 0.5H5C2.51472 0.5 0.5 2.51472 0.5 5V37C0.5 39.4853 2.51472 41.5 5 41.5H48C50.4853 41.5 52.5 39.4853 52.5 37V5C52.5 2.51472 50.4853 0.5 48 0.5Z" stroke="#CF0A2C"/>
<path d="M48 0H5C2.23858 0 0 2.23858 0 5V37C0 39.7614 2.23858 42 5 42H48C50.7614 42 53 39.7614 53 37V5C53 2.23858 50.7614 0 48 0Z" fill="#CF0A2C"/>
<path d="M48 0.5H5C2.51472 0.5 0.5 2.51472 0.5 5V37C0.5 39.4853 2.51472 41.5 5 41.5H48C50.4853 41.5 52.5 39.4853 52.5 37V5C52.5 2.51472 50.4853 0.5 48 0.5Z" stroke="#CF0A2C"/>
<path d="M34.4705 21.7037V21.7137V21.7227V21.7347C34.4346 21.8398 34.3755 21.9355 34.2975 22.0147V22.0147L28.4175 27.9537C28.3506 28.0221 28.2706 28.0765 28.1823 28.1137C28.0941 28.1508 27.9993 28.1699 27.9035 28.1699C27.8078 28.1699 27.713 28.1508 27.6247 28.1137C27.5364 28.0765 27.4565 28.0221 27.3895 27.9537C27.2663 27.8275 27.1917 27.6617 27.1791 27.4858C27.1664 27.3099 27.2166 27.1352 27.3205 26.9927L27.3905 26.9107L32.0085 22.2427H19.2255C19.0337 22.2493 18.8468 22.1811 18.7044 22.0524C18.562 21.9237 18.4753 21.7447 18.4626 21.5531C18.4498 21.3616 18.5121 21.1727 18.6362 21.0263C18.7603 20.8799 18.9365 20.7875 19.1275 20.7687L19.2275 20.7627H32.0095L27.3905 16.0957C27.254 15.9562 27.1775 15.7688 27.1775 15.5737C27.1775 15.3785 27.254 15.1911 27.3905 15.0517C27.5123 14.9266 27.6755 14.8501 27.8496 14.8365C28.0237 14.8228 28.1967 14.873 28.3365 14.9777L28.4185 15.0487L34.2845 20.9787C34.422 21.118 34.499 21.3059 34.4985 21.5017C34.4984 21.57 34.489 21.6379 34.4705 21.7037Z" fill="white" stroke="white"/>
<path d="M34.4705 21.7037V21.7137V21.7227V21.7347C34.4346 21.8398 34.3755 21.9355 34.2975 22.0147V22.0147L28.4175 27.9537C28.3506 28.0221 28.2706 28.0765 28.1823 28.1137C28.0941 28.1508 27.9993 28.1699 27.9035 28.1699C27.8078 28.1699 27.713 28.1508 27.6247 28.1137C27.5364 28.0765 27.4565 28.0221 27.3895 27.9537C27.2663 27.8275 27.1917 27.6617 27.1791 27.4858C27.1664 27.3099 27.2166 27.1352 27.3205 26.9927L27.3905 26.9107L32.0085 22.2427H19.2255C19.0337 22.2493 18.8468 22.1811 18.7044 22.0524C18.562 21.9237 18.4753 21.7447 18.4626 21.5531C18.4498 21.3616 18.5121 21.1727 18.6362 21.0263C18.7603 20.8799 18.9365 20.7875 19.1275 20.7687L19.2275 20.7627H32.0095L27.3905 16.0957C27.254 15.9562 27.1775 15.7688 27.1775 15.5737C27.1775 15.3785 27.254 15.1911 27.3905 15.0517C27.5123 14.9266 27.6755 14.8501 27.8496 14.8365C28.0237 14.8228 28.1967 14.873 28.3365 14.9777L28.4185 15.0487L34.2845 20.9787C34.422 21.118 34.499 21.3059 34.4985 21.5017C34.4984 21.57 34.489 21.6379 34.4705 21.7037Z" fill="white" stroke="white"/>
</svg>
