<svg width="48" height="49" viewBox="0 0 48 49" fill="none" xmlns="http://www.w3.org/2000/svg">
<path d="M42.4596 30.0714H41.141V22.4101L33.4772 14.8076H29.4043V12.3277C29.4043 11.9561 29.3295 11.5882 29.1841 11.2449C29.0388 10.9017 28.8258 10.5898 28.5573 10.3272C28.2888 10.0646 27.9701 9.85635 27.6193 9.71442C27.2686 9.57248 26.8927 9.49962 26.5132 9.5H7.88817C7.12218 9.5 6.38756 9.79792 5.84592 10.3282C5.30429 10.8585 5 11.5778 5 12.3277L5 30.8721C5 31.622 5.30429 32.3413 5.84592 32.8716C6.38756 33.4018 7.12218 33.6998 7.88817 33.6998H8.74527C8.7075 34.4477 8.82535 35.1953 9.09166 35.8973C9.35798 36.5993 9.76721 37.2409 10.2945 37.7834C10.8218 38.3258 11.4562 38.7577 12.1592 39.0527C12.8621 39.3478 13.619 39.5 14.3838 39.5C15.1487 39.5 15.9056 39.3478 16.6085 39.0527C17.3115 38.7577 17.9459 38.3258 18.4732 37.7834C19.0005 37.2409 19.4097 36.5993 19.676 35.8973C19.9423 35.1953 20.0602 34.4477 20.0224 33.6998H28.0817C28.0439 34.4477 28.1618 35.1953 28.4281 35.8973C28.6944 36.5993 29.1037 37.2409 29.631 37.7834C30.1583 38.3258 30.7927 38.7577 31.4956 39.0527C32.1986 39.3478 32.9554 39.5 33.7203 39.5C34.4851 39.5 35.242 39.3478 35.945 39.0527C36.6479 38.7577 37.2823 38.3258 37.8096 37.7834C38.3369 37.2409 38.7461 36.5993 39.0125 35.8973C39.2788 35.1953 39.3966 34.4477 39.3589 33.6998H42.4586C42.529 33.7016 42.5991 33.6895 42.6647 33.6644C42.7303 33.6393 42.79 33.6015 42.8405 33.5534C42.8909 33.5052 42.931 33.4477 42.9584 33.3841C42.9858 33.3206 42.9998 33.2523 42.9998 33.1834V30.5994C43.0017 30.5293 42.989 30.4596 42.9625 30.3944C42.936 30.3293 42.8962 30.2702 42.8455 30.2206C42.7949 30.171 42.7345 30.132 42.6679 30.1061C42.6014 30.0801 42.5302 30.0677 42.4586 30.0695L42.4596 30.0714ZM14.3917 36.6229C13.7964 36.6253 13.2137 36.4548 12.7175 36.1328C12.2213 35.8107 11.8339 35.3518 11.6043 34.814C11.3747 34.2762 11.3133 33.6838 11.4279 33.1119C11.5425 32.5399 11.8279 32.0141 12.248 31.6011C12.668 31.1881 13.2038 30.9064 13.7875 30.7918C14.3712 30.6772 14.9765 30.7348 15.5268 30.9572C16.077 31.1797 16.5474 31.5571 16.8784 32.0415C17.2094 32.526 17.3861 33.0957 17.3862 33.6786C17.3862 34.4573 17.0711 35.2043 16.5099 35.7561C15.9487 36.3079 15.1871 36.6195 14.3917 36.6229ZM29.4043 17.3906H32.3849L38.5451 23.4218V24.997H29.4043V17.3906ZM33.7341 36.619C33.1388 36.6215 32.5561 36.4509 32.0599 36.1289C31.5636 35.8069 31.1762 35.3479 30.9466 34.8102C30.7171 34.2724 30.6557 33.68 30.7703 33.108C30.8849 32.5361 31.1703 32.0103 31.5903 31.5973C32.0104 31.1842 32.5462 30.9026 33.1299 30.788C33.7136 30.6733 34.3189 30.7309 34.8691 30.9534C35.4194 31.1759 35.8898 31.5532 36.2208 32.0377C36.5518 32.5221 36.7285 33.0919 36.7285 33.6747C36.7285 34.4534 36.4134 35.2004 35.8522 35.7522C35.291 36.304 34.5294 36.6157 33.7341 36.619Z" fill="#CF0A2C"/>
</svg>
