<svg width="204" height="172" viewBox="0 0 204 172" fill="none" xmlns="http://www.w3.org/2000/svg">
<path d="M131.657 172C152.252 172 168.947 169.185 168.947 165.712C168.947 162.239 152.252 159.424 131.657 159.424C111.062 159.424 94.3672 162.239 94.3672 165.712C94.3672 169.185 111.062 172 131.657 172Z" fill="#D7ECF9"/>
<path d="M64.1177 162.332C89.81 162.332 110.638 158.818 110.638 154.484C110.638 150.15 89.81 146.637 64.1177 146.637C38.4254 146.637 17.5977 150.15 17.5977 154.484C17.5977 158.818 38.4254 162.332 64.1177 162.332Z" fill="#D7ECF9"/>
<path d="M172.128 162.172C189.553 162.172 203.678 159.787 203.678 156.844C203.678 153.901 189.553 151.516 172.128 151.516C154.704 151.516 140.578 153.901 140.578 156.844C140.578 159.787 154.704 162.172 172.128 162.172Z" fill="#D7ECF9"/>
<path d="M22.5966 161.183C33.7085 161.183 42.7166 159.827 42.7166 158.154C42.7166 156.481 33.7085 155.125 22.5966 155.125C11.4846 155.125 2.47656 156.481 2.47656 158.154C2.47656 159.827 11.4846 161.183 22.5966 161.183Z" fill="#D7ECF9"/>
<path d="M18.2356 130.013C16.5756 128.373 16.4256 125.754 17.1456 123.585C18.0355 121.447 19.1948 119.431 20.5956 117.587C21.8556 115.657 22.9956 113.518 22.9556 111.238C22.8956 107 18.9556 103.831 17.2556 99.9319C16.8244 98.952 16.5218 97.9204 16.3556 96.8628C14.9956 87.9256 19.6156 77.6787 28.5656 74.2197C29.6956 73.6799 31.2656 74.3497 31.3156 75.4494C31.5656 77.8886 29.2256 79.948 29.3156 82.5172C29.3443 82.8177 29.4474 83.1063 29.6156 83.357C34.3456 85.5963 35.4556 89.965 30.8656 93.104C30.5635 93.5143 30.3211 93.9653 30.1456 94.4436C29.8829 95.2344 29.8482 96.0832 30.0456 96.8928C30.2531 97.7268 30.5906 98.523 31.0456 99.2521C32.0049 100.648 32.8733 102.104 33.6456 103.611C35.4156 107.86 33.3056 112.608 30.7056 116.497C28.1056 120.386 24.8956 124.075 24.2056 128.603C24.1419 130.069 23.876 131.519 23.4156 132.912C22.7956 134.251 21.2056 135.361 19.7656 134.841L19.4256 133.672" fill="#63B78B"/>
<path d="M21.5063 116.439L21.4062 116.339C27.5763 110.97 25.3063 103.453 23.0963 96.1847C22.9063 95.5549 22.7163 94.9351 22.5363 94.3053C21.5983 90.8783 22.0323 87.2209 23.7463 84.1084C24.5356 82.5758 25.5464 81.1678 26.7463 79.9297L26.8463 80.0297C26.7863 80.0896 20.3663 86.4177 22.6863 94.2653C22.8663 94.8951 23.0563 95.5149 23.2463 96.1448C25.4563 103.453 27.7463 111.02 21.5063 116.439Z" fill="#1F264C"/>
<path d="M3.82683 105.02C1.34683 102.541 -0.393166 99.1618 0.0768345 95.7829C0.546834 92.4039 3.70683 89.2948 7.27683 89.5348C5.15683 86.6856 2.99683 83.6665 2.62683 80.1876C2.25683 76.7087 4.49683 72.7399 8.12683 72.34C8.8892 72.2785 9.65599 72.3775 10.3777 72.6306C11.0994 72.8837 11.76 73.2854 12.3168 73.8095C12.8787 74.3136 13.3283 74.93 13.6367 75.6189C13.9451 76.3077 14.1052 77.0536 14.1068 77.8083C13.2868 76.8686 14.2568 75.599 15.2668 75.3091C15.5722 75.2302 15.8907 75.2152 16.2021 75.2651C16.5136 75.315 16.8114 75.4287 17.0768 75.599C17.6083 75.9453 18.0353 76.4298 18.3119 77.0005C18.5885 77.5712 18.7043 78.2065 18.6468 78.838C18.0168 81.8371 15.9768 84.5863 17.6468 87.5754C20.3068 92.114 22.7068 96.5726 24.0468 101.571C24.3068 102.381 24.5468 103.191 24.7668 104.01C24.9868 104.83 25.1768 105.66 25.3368 106.49C25.9386 108.684 25.897 111.006 25.2168 113.178C24.2168 115.697 21.8168 117.596 21.1668 120.175C20.1668 124.324 23.8468 128.873 21.9368 132.732C20.5568 135.531 16.5268 136.201 13.8068 134.921C9.92684 133.092 9.59684 128.353 10.3868 124.764C11.1368 121.375 13.0068 118.396 12.2768 114.767C12.0242 113.575 11.5196 112.45 10.7968 111.468C8.99683 108.949 6.06683 107.199 3.82683 105.02Z" fill="#4FA87B"/>
<path d="M17.2386 128.724C17.2386 128.674 14.4086 123.445 18.0786 113.408C20.6986 106.23 16.4586 99.4125 13.3686 94.354C12.2538 92.7525 11.3403 91.02 10.6486 89.1956C9.40862 84.547 11.9986 78.7787 11.9986 78.7188L12.1386 78.7787C12.1386 78.7787 9.52862 84.557 10.7586 89.1656C11.4457 90.9758 12.3525 92.6948 13.4586 94.284C16.5686 99.2825 20.8286 106.22 18.1886 113.448C14.5386 123.445 17.3086 128.614 17.3386 128.664L17.2386 128.724Z" fill="#1F264C"/>
<path d="M18.2183 113.429H18.0783C18.4983 107.671 14.7183 103.562 11.4683 101.143C9.25316 99.5028 6.81962 98.1804 4.23828 97.2139V97.084C6.83466 98.075 9.28123 99.4207 11.5083 101.083C14.8283 103.462 18.6483 107.601 18.2183 113.429Z" fill="#1F264C"/>
<path d="M12.2869 92.5925C11.7272 91.1548 11.4942 89.6107 11.6049 88.0719C11.7156 86.5331 12.1672 85.0381 12.9269 83.6952C13.6296 82.4452 14.5509 81.3313 15.6469 80.4062L15.7369 80.5162C14.651 81.425 13.7425 82.5265 13.0569 83.7652C12.3022 85.0882 11.8539 86.5634 11.7449 88.0824C11.6359 89.6014 11.8689 91.1255 12.4269 92.5426L12.2869 92.5925Z" fill="#1F264C"/>
<path d="M17.6053 115.248H17.4553C17.5853 109.83 15.1953 107.111 13.1753 105.781C11.8267 104.905 10.2931 104.354 8.69531 104.171V104.021C10.3149 104.197 11.8702 104.752 13.2353 105.641C15.3053 107.021 17.7253 109.77 17.6053 115.248Z" fill="#1F264C"/>
<path d="M23.5055 97.0223H23.3555C23.5655 92.1338 25.3055 89.7745 26.7255 88.6449C27.5993 87.9171 28.6731 87.471 29.8055 87.3652V87.5052C28.7034 87.6213 27.66 88.0594 26.8055 88.7648C25.4155 89.8645 23.7055 92.1938 23.5055 97.0223Z" fill="#1F264C"/>
<path d="M3.0449 96.833C2.9652 96.8466 2.88352 96.8432 2.80527 96.8228C2.72703 96.8024 2.65402 96.7656 2.59108 96.7149C2.52814 96.6641 2.47673 96.6005 2.44024 96.5284C2.40376 96.4562 2.38304 96.3771 2.37946 96.2964C2.37589 96.2156 2.38954 96.135 2.41951 96.0599C2.44948 95.9848 2.49508 95.9169 2.55329 95.8608C2.6115 95.8047 2.68098 95.7616 2.75712 95.7344C2.83326 95.7072 2.91431 95.6965 2.9949 95.703C3.14985 95.692 3.30292 95.7425 3.42086 95.8436C3.53881 95.9447 3.61213 96.0882 3.6249 96.243C3.62623 96.32 3.61221 96.3965 3.58365 96.4681C3.5551 96.5396 3.51259 96.6047 3.4586 96.6596C3.40461 96.7146 3.34022 96.7582 3.26919 96.7879C3.19816 96.8177 3.12192 96.833 3.0449 96.833ZM3.0449 95.833C2.98711 95.8343 2.93015 95.847 2.87726 95.8703C2.82437 95.8936 2.7766 95.9272 2.73667 95.9689C2.69674 96.0107 2.66543 96.06 2.64454 96.1139C2.62364 96.1678 2.61357 96.2252 2.6149 96.283C2.6149 96.4024 2.66231 96.5168 2.7467 96.6012C2.83109 96.6856 2.94555 96.733 3.0649 96.733C3.18425 96.733 3.29871 96.6856 3.3831 96.6012C3.46749 96.5168 3.5149 96.4024 3.5149 96.283C3.5179 96.2173 3.50578 96.1517 3.47946 96.0914C3.45314 96.0311 3.41334 95.9777 3.3631 95.9352C3.31287 95.8926 3.25355 95.8622 3.18972 95.8463C3.12588 95.8303 3.05923 95.8292 2.9949 95.843L3.0449 95.833Z" fill="#1F264C"/>
<path d="M30.895 87.456C30.7719 87.4643 30.6504 87.4239 30.5569 87.3434C30.4633 87.263 30.4052 87.149 30.395 87.026C30.3923 86.9639 30.4022 86.902 30.4241 86.8438C30.446 86.7857 30.4794 86.7326 30.5224 86.6877C30.5654 86.6429 30.617 86.6072 30.6742 86.5828C30.7313 86.5585 30.7928 86.546 30.855 86.546C30.9204 86.5363 30.9871 86.5408 31.0506 86.5592C31.1141 86.5776 31.1729 86.6095 31.223 86.6527C31.2731 86.6958 31.3133 86.7493 31.3408 86.8094C31.3683 86.8695 31.3826 86.9349 31.3826 87.001C31.3826 87.0671 31.3683 87.1325 31.3408 87.1926C31.3133 87.2527 31.2731 87.3062 31.223 87.3494C31.1729 87.3926 31.1141 87.4244 31.0506 87.4428C30.9871 87.4613 30.9204 87.4657 30.855 87.456H30.895ZM30.895 86.686C30.8521 86.686 30.8096 86.6946 30.7702 86.7113C30.7307 86.728 30.6949 86.7525 30.6651 86.7833C30.6352 86.814 30.6119 86.8505 30.5964 86.8905C30.5809 86.9305 30.5736 86.9732 30.575 87.016C30.5826 87.1018 30.6235 87.1812 30.6889 87.2373C30.7543 87.2933 30.839 87.3216 30.925 87.316C30.971 87.3243 31.0183 87.3223 31.0636 87.3103C31.1088 87.2982 31.1508 87.2764 31.1867 87.2464C31.2226 87.2164 31.2514 87.1788 31.2712 87.1364C31.2911 87.094 31.3013 87.0478 31.3013 87.001C31.3013 86.9542 31.2911 86.908 31.2712 86.8656C31.2514 86.8232 31.2226 86.7857 31.1867 86.7556C31.1508 86.7256 31.1088 86.7038 31.0636 86.6918C31.0183 86.6797 30.971 86.6778 30.925 86.686H30.895Z" fill="#1F264C"/>
<path d="M7.28744 104.691C7.18348 104.691 7.08184 104.66 6.99517 104.603C6.9085 104.545 6.84062 104.464 6.79998 104.368C6.75935 104.272 6.74775 104.167 6.76663 104.065C6.78551 103.962 6.83404 103.868 6.90617 103.793C6.97831 103.718 7.07086 103.666 7.17232 103.644C7.27378 103.621 7.37966 103.629 7.47678 103.666C7.57391 103.703 7.65799 103.768 7.71856 103.852C7.77913 103.937 7.81351 104.037 7.81744 104.141C7.81876 104.212 7.8061 104.282 7.78018 104.348C7.75426 104.414 7.71559 104.475 7.66637 104.526C7.61715 104.577 7.55836 104.618 7.49334 104.646C7.42832 104.674 7.35835 104.69 7.28744 104.691V104.691ZM7.28744 103.771C7.23449 103.771 7.18209 103.782 7.13342 103.802C7.08475 103.823 7.04083 103.854 7.00434 103.892C6.96786 103.93 6.93956 103.976 6.92118 104.025C6.9028 104.075 6.89472 104.128 6.89744 104.181C6.89744 104.29 6.94063 104.394 7.01752 104.471C7.09441 104.548 7.1987 104.591 7.30744 104.591C7.41617 104.591 7.52046 104.548 7.59735 104.471C7.67424 104.394 7.71744 104.29 7.71744 104.181C7.71807 104.122 7.70585 104.063 7.6816 104.009C7.65735 103.955 7.62166 103.906 7.57698 103.867C7.5323 103.829 7.4797 103.8 7.42281 103.783C7.36592 103.766 7.30608 103.762 7.24744 103.771H7.28744Z" fill="#1F264C"/>
<path d="M12.3768 78.2696C12.2554 78.2752 12.1365 78.2335 12.0452 78.1533C11.9538 78.0732 11.897 77.9607 11.8868 77.8396C11.8855 77.7805 11.8958 77.7217 11.9172 77.6666C11.9386 77.6115 11.9707 77.5611 12.0115 77.5184C12.0524 77.4757 12.1013 77.4415 12.1554 77.4176C12.2095 77.3938 12.2677 77.3809 12.3268 77.3796C12.39 77.3671 12.455 77.3684 12.5176 77.3832C12.5802 77.3981 12.6389 77.4262 12.6897 77.4656C12.7405 77.5051 12.7823 77.555 12.8122 77.6119C12.8421 77.6689 12.8595 77.7316 12.8631 77.7959C12.8667 77.8601 12.8565 77.9244 12.8331 77.9843C12.8098 78.0443 12.7739 78.0985 12.7278 78.1434C12.6817 78.1883 12.6265 78.2228 12.566 78.2446C12.5055 78.2663 12.441 78.2749 12.3768 78.2696ZM12.3768 77.5196C12.3322 77.5115 12.2862 77.5132 12.2423 77.5248C12.1984 77.5364 12.1576 77.5575 12.1227 77.5866C12.0879 77.6157 12.0598 77.6521 12.0406 77.6932C12.0214 77.7343 12.0114 77.7792 12.0114 77.8246C12.0114 77.87 12.0214 77.9148 12.0406 77.956C12.0598 77.9971 12.0879 78.0335 12.1227 78.0626C12.1576 78.0917 12.1984 78.1128 12.2423 78.1243C12.2862 78.1359 12.3322 78.1377 12.3768 78.1296C12.418 78.1297 12.4587 78.1213 12.4965 78.105C12.5342 78.0887 12.5682 78.0648 12.5964 78.0348C12.6245 78.0047 12.6462 77.9693 12.66 77.9305C12.6738 77.8918 12.6796 77.8506 12.6768 77.8096C12.6758 77.7674 12.6659 77.726 12.6478 77.6879C12.6296 77.6498 12.6037 77.616 12.5716 77.5886C12.5395 77.5613 12.502 77.541 12.4616 77.5291C12.4211 77.5172 12.3786 77.5139 12.3368 77.5196H12.3768Z" fill="#1F264C"/>
<path d="M16.5178 80.3492C16.4558 80.3575 16.3927 80.3531 16.3325 80.3363C16.2722 80.3194 16.216 80.2905 16.1674 80.2511C16.1187 80.2118 16.0785 80.163 16.0494 80.1076C16.0202 80.0523 16.0027 79.9916 15.9978 79.9292C15.9899 79.8378 16.0096 79.7461 16.0542 79.666C16.0988 79.5858 16.1664 79.5208 16.2482 79.4793C16.33 79.4379 16.4224 79.4218 16.5134 79.4333C16.6044 79.4447 16.69 79.4831 16.759 79.5435C16.828 79.6039 16.8774 79.6836 16.9009 79.7723C16.9243 79.861 16.9206 79.9547 16.8904 80.0413C16.8602 80.1279 16.8047 80.2035 16.7312 80.2584C16.6577 80.3132 16.5694 80.3448 16.4778 80.3492H16.5178ZM16.5178 79.5992C16.4567 79.6032 16.3981 79.6253 16.3495 79.6627C16.301 79.7 16.2645 79.7508 16.2448 79.8088C16.2252 79.8669 16.2231 79.9294 16.2389 79.9886C16.2547 80.0477 16.2877 80.1009 16.3338 80.1414C16.3798 80.1818 16.4367 80.2077 16.4975 80.2158C16.5582 80.2239 16.6199 80.2138 16.6749 80.1868C16.7299 80.1598 16.7757 80.1172 16.8065 80.0642C16.8372 80.0112 16.8516 79.9503 16.8478 79.8892C16.8377 79.8033 16.7944 79.7248 16.7271 79.6706C16.6597 79.6164 16.5738 79.5907 16.4878 79.5992H16.5178Z" fill="#1F264C"/>
<path d="M27.5778 79.4591C27.4461 79.4609 27.3169 79.4239 27.2062 79.3528C27.0954 79.2816 27.0081 79.1794 26.9551 79.0589C26.9021 78.9384 26.8858 78.805 26.9082 78.6752C26.9306 78.5455 26.9907 78.4253 27.081 78.3295C27.1713 78.2337 27.2878 78.1667 27.4159 78.1367C27.5441 78.1068 27.6783 78.1152 27.8017 78.161C27.9251 78.2069 28.0322 78.288 28.1098 78.3944C28.1873 78.5007 28.2319 78.6276 28.2378 78.7591C28.2404 78.8484 28.2255 78.9373 28.1937 79.0209C28.162 79.1044 28.1141 79.1808 28.0528 79.2458C27.9915 79.3109 27.918 79.3631 27.8365 79.3997C27.755 79.4363 27.6671 79.4565 27.5778 79.4591V79.4591ZM27.5178 78.2691C27.3763 78.2743 27.2425 78.3349 27.1453 78.4377C27.048 78.5406 26.995 78.6775 26.9978 78.8191C27.0044 78.9649 27.0687 79.1022 27.1765 79.2007C27.2844 79.2991 27.4269 79.3507 27.5728 79.3441C27.7186 79.3374 27.8559 79.2731 27.9544 79.1653C28.0528 79.0575 28.1044 78.9149 28.0978 78.7691C28.0927 78.6981 28.0737 78.6288 28.0417 78.5652C28.0098 78.5016 27.9656 78.445 27.9117 78.3985C27.8578 78.352 27.7953 78.3167 27.7277 78.2945C27.66 78.2722 27.5887 78.2636 27.5178 78.2691V78.2691Z" fill="#1F264C"/>
<path d="M23.3372 137.72C22.2472 135.72 22.8872 133.141 24.2472 131.261C25.7388 129.456 27.4562 127.85 29.3572 126.483C31.1572 124.983 32.8872 123.244 33.5472 121.055C34.7672 116.986 31.9872 112.867 31.5472 108.658C31.4253 107.6 31.4488 106.531 31.6172 105.479C32.9972 96.542 40.5172 88.0246 50.1272 87.1649C51.3772 86.965 52.6772 88.0346 52.3972 89.1043C51.8972 91.5036 49.0272 92.8332 48.3972 95.3224C48.3205 95.614 48.3205 95.9205 48.3972 96.2121C52.2472 99.6611 51.9872 104.15 46.6372 105.889C46.2199 106.21 45.8525 106.59 45.5472 107.019C45.0584 107.7 44.7676 108.502 44.7072 109.338C44.6438 110.183 44.7113 111.033 44.9072 111.857C45.4027 113.461 45.7968 115.093 46.0872 116.746C46.4872 121.305 43.0072 125.313 39.3572 128.282C35.7072 131.251 31.4972 133.921 29.4672 138.069C28.9584 139.46 28.262 140.776 27.3972 141.978C26.3972 143.088 24.5372 143.708 23.3272 142.818V141.608" fill="#4FA87B"/>
<path d="M30.5756 125.624L30.5156 125.504C38.0456 122.075 38.1456 114.247 38.2456 106.68C38.2456 106.013 38.2456 105.347 38.2456 104.68C38.3944 101.108 39.9169 97.7309 42.4956 95.2533C43.718 94.007 45.108 92.937 46.6256 92.0742L46.6856 92.1942C46.6056 92.1942 38.5456 96.5329 38.3856 104.68V106.68C38.2856 114.287 38.1856 122.165 30.5756 125.624Z" fill="#1F264C"/>
<path d="M17.1252 109.801C15.4852 106.802 14.8452 103.053 16.3152 99.9437C17.7852 96.8346 21.7652 94.7353 25.1052 95.9449C23.9952 92.6459 22.7752 89.147 23.4852 85.728C24.1952 82.309 27.5352 79.11 31.1352 79.7298C31.8701 79.8859 32.5646 80.1928 33.1748 80.631C33.785 81.0693 34.2976 81.6294 34.6801 82.2758C35.0627 82.9223 35.3069 83.6411 35.3972 84.3867C35.4876 85.1324 35.4222 85.8887 35.2052 86.6077C34.7052 85.4781 36.0152 84.5284 37.0752 84.5284C37.3878 84.5367 37.6953 84.6104 37.9778 84.7447C38.2602 84.879 38.5114 85.0709 38.7152 85.3081C39.1194 85.791 39.3819 86.3763 39.4737 86.9992C39.5655 87.6221 39.4829 88.2582 39.2352 88.8371C37.7452 91.5063 34.9352 93.6056 35.6452 96.9346C36.8152 102.013 37.7652 106.932 37.5452 112.06C37.5452 112.9 37.5452 113.749 37.4852 114.599C37.4252 115.449 37.3752 116.279 37.2852 117.128C37.1827 119.41 36.4412 121.616 35.1452 123.497C33.4352 125.636 30.5452 126.786 29.1452 129.115C26.8952 132.794 29.0752 138.182 26.0852 141.351C23.9152 143.64 19.8452 143.171 17.6252 141.191C14.4752 138.372 15.6252 133.743 17.4452 130.534C19.1852 127.535 21.8752 125.156 22.2752 121.487C22.401 120.279 22.2611 119.057 21.8652 117.908C20.8752 115.019 18.5952 112.53 17.1252 109.801Z" fill="#63B78B"/>
<path d="M22.7663 136.219C22.7663 136.159 21.6563 130.381 28.2163 121.784C32.8963 115.636 30.9163 107.898 29.4763 102.24C28.8989 100.395 28.5628 98.4826 28.4763 96.5514C28.6863 91.7628 32.9263 86.9543 32.9663 86.9043L33.0763 86.9943C33.0763 86.9943 28.8263 91.8128 28.6163 96.5614C28.71 98.4787 29.046 100.377 29.6163 102.21C31.0663 107.888 33.0563 115.666 28.3263 121.864C21.8063 130.411 22.8963 136.129 22.9063 136.189L22.7663 136.219Z" fill="#1F264C"/>
<path d="M28.335 121.845H28.205C30.355 116.446 27.975 111.478 25.605 108.259C23.9756 106.079 22.0465 104.141 19.875 102.501L19.955 102.391C22.1434 104.036 24.0862 105.985 25.725 108.179C28.115 111.368 30.515 116.386 28.335 121.845Z" fill="#1F264C"/>
<path d="M28.997 100.262C28.9005 98.7154 29.1462 97.1664 29.7166 95.7254C30.287 94.2843 31.168 92.9866 32.297 91.9247C33.3449 90.9221 34.5598 90.1102 35.887 89.5254V89.6553C34.5923 90.2373 33.4082 91.0389 32.387 92.0246C31.272 93.0742 30.4018 94.3564 29.8384 95.7801C29.275 97.2037 29.0321 98.734 29.127 100.262H28.997Z" fill="#1F264C"/>
<path d="M27.2061 123.415H27.0661C28.8261 118.266 27.3661 114.997 25.8261 113.168C24.7912 111.94 23.4782 110.977 21.9961 110.358L22.0461 110.229C23.5444 110.839 24.8773 111.795 25.9361 113.018C27.4961 114.897 28.9961 118.206 27.2061 123.415Z" fill="#1F264C"/>
<path d="M38.3683 107.598H38.2383C39.9183 102.979 42.2983 101.19 43.9983 100.51C45.0475 100.062 46.205 99.9296 47.3283 100.13V100.26C46.2275 100.078 45.0976 100.209 44.0683 100.64C42.3783 101.27 39.9983 103.019 38.3683 107.598Z" fill="#1F264C"/>
<path d="M18.8466 101.77C18.772 101.755 18.7013 101.725 18.6389 101.681C18.5764 101.638 18.5234 101.582 18.4832 101.518C18.4429 101.453 18.4163 101.381 18.4048 101.306C18.3934 101.231 18.3974 101.154 18.4166 101.08C18.4586 100.931 18.5577 100.804 18.6925 100.728C18.8272 100.651 18.9867 100.63 19.1366 100.67C19.2104 100.687 19.2803 100.718 19.342 100.762C19.4038 100.805 19.4562 100.861 19.4962 100.925C19.5362 100.989 19.5631 101.061 19.5751 101.136C19.5872 101.21 19.5843 101.287 19.5666 101.36C19.5245 101.51 19.4254 101.636 19.2906 101.713C19.1559 101.79 18.9964 101.81 18.8466 101.77V101.77ZM19.1066 100.77C18.9913 100.743 18.8698 100.76 18.7673 100.82C18.6648 100.88 18.5893 100.976 18.5566 101.09C18.5418 101.146 18.5388 101.205 18.5477 101.262C18.5565 101.319 18.5771 101.374 18.6081 101.422C18.6391 101.471 18.6798 101.513 18.7277 101.545C18.7756 101.578 18.8297 101.6 18.8866 101.61C18.9424 101.625 19.0006 101.629 19.058 101.622C19.1153 101.615 19.1707 101.596 19.2208 101.567C19.271 101.538 19.315 101.5 19.3503 101.454C19.3856 101.408 19.4115 101.356 19.4266 101.3C19.4453 101.192 19.4228 101.081 19.3636 100.988C19.3044 100.896 19.2127 100.829 19.1066 100.8V100.77Z" fill="#1F264C"/>
<path d="M48.3459 100.481C48.287 100.468 48.2313 100.443 48.1821 100.408C48.1328 100.373 48.0911 100.329 48.0594 100.278C48.0277 100.226 48.0066 100.169 47.9974 100.11C47.9883 100.05 47.9911 99.9891 48.0059 99.9306C48.0388 99.8092 48.118 99.7057 48.2265 99.6421C48.3349 99.5785 48.464 99.56 48.5859 99.5906C48.6453 99.6046 48.7012 99.6303 48.7505 99.6662C48.7998 99.7021 48.8415 99.7474 48.8731 99.7995C48.9047 99.8516 48.9257 99.9094 48.9348 99.9697C48.9438 100.03 48.9408 100.091 48.9259 100.151C48.8909 100.27 48.8109 100.371 48.7027 100.433C48.5945 100.494 48.4665 100.512 48.3459 100.481ZM48.5459 99.7306C48.5052 99.7201 48.4629 99.7177 48.4212 99.7236C48.3796 99.7294 48.3395 99.7434 48.3033 99.7648C48.2671 99.7862 48.2354 99.8145 48.2102 99.848C48.1849 99.8816 48.1664 99.9199 48.1559 99.9606C48.1454 100.001 48.1431 100.044 48.1489 100.085C48.1548 100.127 48.1688 100.167 48.1902 100.203C48.2115 100.239 48.2398 100.271 48.2734 100.296C48.307 100.322 48.3452 100.34 48.3859 100.351C48.4708 100.372 48.5606 100.358 48.6356 100.313C48.7106 100.268 48.7647 100.195 48.7859 100.111C48.7978 100.07 48.8009 100.027 48.795 99.9849C48.789 99.9428 48.7742 99.9024 48.7516 99.8665C48.7289 99.8306 48.6988 99.7999 48.6634 99.7765C48.6279 99.753 48.5879 99.7374 48.5459 99.7306Z" fill="#1F264C"/>
<path d="M20.5277 110.458C20.4592 110.443 20.3944 110.414 20.337 110.374C20.2797 110.333 20.2311 110.281 20.1938 110.222C20.1566 110.162 20.1316 110.096 20.1203 110.027C20.1089 109.957 20.1114 109.887 20.1277 109.818C20.1696 109.681 20.2624 109.565 20.387 109.495C20.5116 109.424 20.6586 109.404 20.7977 109.438C20.8669 109.452 20.9325 109.48 20.9906 109.521C21.0486 109.561 21.0978 109.612 21.1353 109.672C21.1727 109.732 21.1975 109.799 21.2083 109.869C21.219 109.939 21.2154 110.01 21.1977 110.078C21.158 110.217 21.0656 110.334 20.9403 110.405C20.815 110.476 20.6669 110.495 20.5277 110.458ZM20.7677 109.568C20.6631 109.543 20.5529 109.56 20.4599 109.614C20.3668 109.668 20.2981 109.755 20.2677 109.858C20.2559 109.909 20.2544 109.961 20.2632 110.012C20.272 110.064 20.2909 110.113 20.3188 110.156C20.3468 110.2 20.3832 110.238 20.4259 110.267C20.4687 110.297 20.5169 110.318 20.5677 110.328C20.6697 110.353 20.7774 110.338 20.8685 110.286C20.9597 110.234 21.0274 110.149 21.0577 110.048C21.0711 109.998 21.0742 109.945 21.0667 109.893C21.0593 109.841 21.0416 109.792 21.0145 109.747C20.9874 109.702 20.9516 109.663 20.9092 109.632C20.8668 109.602 20.8187 109.58 20.7677 109.568Z" fill="#1F264C"/>
<path d="M33.406 86.5667C33.3485 86.5548 33.294 86.5316 33.2456 86.4984C33.1973 86.4652 33.156 86.4227 33.1243 86.3733C33.0927 86.3239 33.0712 86.2687 33.0612 86.2109C33.0511 86.1531 33.0528 86.0938 33.066 86.0367C33.1009 85.9198 33.1799 85.8211 33.2862 85.7613C33.3926 85.7016 33.518 85.6856 33.636 85.7167C33.6925 85.7296 33.746 85.7536 33.7932 85.7873C33.8405 85.821 33.8806 85.8637 33.9113 85.913C33.9419 85.9622 33.9626 86.0171 33.972 86.0744C33.9813 86.1316 33.9793 86.1902 33.966 86.2467C33.9332 86.3628 33.8562 86.4614 33.7515 86.5212C33.6467 86.5811 33.5226 86.5974 33.406 86.5667V86.5667ZM33.596 85.8467C33.5152 85.8276 33.4302 85.8396 33.358 85.8804C33.2857 85.9212 33.2314 85.9877 33.206 86.0667C33.1972 86.1067 33.1964 86.1481 33.2038 86.1885C33.2111 86.2289 33.2264 86.2674 33.2487 86.3018C33.271 86.3362 33.3 86.3658 33.3338 86.389C33.3677 86.4121 33.4058 86.4284 33.446 86.4367C33.4854 86.4472 33.5265 86.4499 33.5669 86.4446C33.6074 86.4392 33.6463 86.426 33.6816 86.4055C33.7169 86.3851 33.7479 86.3579 33.7726 86.3255C33.7974 86.2931 33.8155 86.2561 33.826 86.2167C33.8363 86.1772 33.8385 86.1361 33.8324 86.0958C33.8263 86.0555 33.8121 86.0168 33.7906 85.9822C33.7691 85.9476 33.7407 85.9177 33.7072 85.8944C33.6738 85.8711 33.6359 85.8548 33.596 85.8467V85.8467Z" fill="#1F264C"/>
<path d="M36.7458 89.705C36.6884 89.6932 36.6338 89.67 36.5855 89.6368C36.5371 89.6036 36.4959 89.561 36.4642 89.5117C36.4325 89.4623 36.411 89.4071 36.401 89.3492C36.391 89.2914 36.3926 89.2322 36.4058 89.175C36.4386 89.0589 36.5156 88.9603 36.6203 88.9005C36.7251 88.8406 36.8492 88.8243 36.9658 88.855C37.0233 88.8669 37.0778 88.8901 37.1262 88.9233C37.1745 88.9565 37.2158 88.999 37.2475 89.0484C37.2791 89.0978 37.3006 89.153 37.3106 89.2108C37.3207 89.2686 37.319 89.3279 37.3058 89.385C37.2731 89.5012 37.196 89.5998 37.0913 89.6596C36.9866 89.7195 36.8625 89.7358 36.7458 89.705V89.705ZM36.9358 88.985C36.8551 88.966 36.7701 88.978 36.6978 89.0188C36.6255 89.0595 36.5713 89.1261 36.5458 89.205C36.5278 89.2846 36.5418 89.368 36.5849 89.4373C36.6279 89.5065 36.6965 89.556 36.7758 89.575C36.8566 89.5941 36.9416 89.5821 37.0138 89.5413C37.0861 89.5005 37.1404 89.434 37.1658 89.355C37.173 89.2817 37.1538 89.2082 37.1116 89.1477C37.0695 89.0872 37.0071 89.0437 36.9358 89.025V88.985Z" fill="#1F264C"/>
<path d="M47.5967 91.9044C47.5108 91.8855 47.4296 91.8497 47.3578 91.7991C47.286 91.7485 47.225 91.684 47.1784 91.6095C47.1319 91.535 47.1007 91.4519 47.0866 91.3652C47.0726 91.2784 47.076 91.1898 47.0967 91.1044C47.1458 90.9302 47.2613 90.7823 47.4184 90.6925C47.5756 90.6027 47.7617 90.5782 47.9367 90.6244C48.0227 90.6433 48.1042 90.679 48.1765 90.7295C48.2487 90.78 48.3103 90.8442 48.3577 90.9185C48.405 90.9929 48.4373 91.0758 48.4525 91.1626C48.4678 91.2494 48.4658 91.3383 48.4467 91.4244C48.3932 91.5979 48.2753 91.7443 48.1172 91.8336C47.9591 91.9229 47.7729 91.9482 47.5967 91.9044V91.9044ZM47.9067 90.7544C47.7676 90.72 47.6206 90.7402 47.496 90.8109C47.3713 90.8816 47.2785 90.9973 47.2367 91.1344C47.2204 91.2027 47.2179 91.2735 47.2292 91.3428C47.2406 91.4121 47.2656 91.4785 47.3028 91.538C47.34 91.5976 47.3887 91.6491 47.446 91.6897C47.5033 91.7303 47.5681 91.759 47.6367 91.7744C47.7758 91.8088 47.9227 91.7885 48.0474 91.7178C48.172 91.6472 48.2648 91.5314 48.3067 91.3944C48.3229 91.326 48.3255 91.2552 48.3141 91.1859C48.3027 91.1166 48.2777 91.0502 48.2405 90.9907C48.2033 90.9312 48.1546 90.8796 48.0973 90.839C48.04 90.7985 47.9752 90.7697 47.9067 90.7544V90.7544Z" fill="#1F264C"/>
<path d="M15.2975 122.015C14.878 122.363 14.5372 122.796 14.2975 123.285C14.1006 123.731 14.0181 124.219 14.0575 124.705C13.7315 124.269 13.5278 123.755 13.4675 123.215C13.3538 122.404 13.566 121.581 14.0575 120.926C14.7375 120.156 15.7175 120.216 15.8375 120.646C15.9575 121.076 15.6375 121.565 15.2975 122.015Z" fill="#1D3B4C"/>
<path d="M18.5281 126.334C18.1087 126.682 17.7679 127.114 17.5281 127.604C17.3317 128.05 17.2492 128.537 17.2881 129.023C16.8853 128.476 16.668 127.814 16.668 127.134C16.668 126.454 16.8853 125.792 17.2881 125.244C17.9581 124.475 18.9381 124.535 19.0581 124.974C19.1781 125.414 18.8681 125.924 18.5281 126.334Z" fill="#1D3B4C"/>
<path d="M21.5565 131.153C21.1348 131.498 20.7936 131.931 20.5565 132.422C20.361 132.865 20.2818 133.35 20.3265 133.832C20.0006 133.397 19.7969 132.882 19.7365 132.342C19.624 131.531 19.836 130.709 20.3265 130.053C21.0065 129.283 21.9765 129.343 22.1065 129.783C22.2365 130.223 21.8965 130.743 21.5565 131.153Z" fill="#1D3B4C"/>
<path d="M11.3784 125.115C11.7838 124.812 12.2519 124.604 12.7484 124.505C13.1881 124.432 13.6393 124.473 14.0584 124.625C13.749 124.232 13.3373 123.931 12.8684 123.755C12.5233 123.61 12.1528 123.535 11.7784 123.535C11.404 123.535 11.0334 123.61 10.6884 123.755C9.8384 124.185 9.6884 125.075 10.0284 125.285C10.3684 125.495 10.9284 125.325 11.3784 125.115Z" fill="#1D3B4C"/>
<path d="M14.7474 129.634C15.1517 129.329 15.6203 129.12 16.1174 129.024C16.5597 128.951 17.0132 128.989 17.4374 129.134C17.1164 128.748 16.7038 128.449 16.2374 128.264C15.5394 127.975 14.7553 127.975 14.0574 128.264C13.2174 128.694 13.0574 129.584 13.3974 129.794C13.7374 130.004 14.2974 129.844 14.7474 129.634Z" fill="#1D3B4C"/>
<path d="M10.9985 119.507C10.8204 119.778 10.7044 120.085 10.6585 120.407C10.6241 120.691 10.6619 120.98 10.7685 121.247C10.5093 121.057 10.3056 120.801 10.1785 120.507C10.0738 120.29 10.0128 120.055 9.99907 119.815C9.98535 119.574 10.0191 119.334 10.0985 119.107C10.3485 118.557 10.9085 118.417 11.0985 118.637C11.1489 118.78 11.1661 118.932 11.1488 119.083C11.1315 119.234 11.0801 119.379 10.9985 119.507V119.507Z" fill="#1D3B4C"/>
<path d="M8.99536 121.016C9.29166 120.886 9.61163 120.817 9.93536 120.816C10.222 120.83 10.5004 120.916 10.7454 121.066C10.5995 120.779 10.3826 120.535 10.1154 120.356C9.91723 120.22 9.69395 120.126 9.45866 120.077C9.22338 120.029 8.98085 120.029 8.74536 120.076C8.15536 120.226 7.92536 120.766 8.12536 120.946C8.25565 121.023 8.40163 121.069 8.55232 121.081C8.70301 121.093 8.85449 121.071 8.99536 121.016V121.016Z" fill="#1D3B4C"/>
<path d="M31.3069 108.819C30.9494 119.717 28.7483 130.476 24.7969 140.639L25.3069 140.979C29.1502 130.801 31.2725 120.054 31.5869 109.179C31.6369 106.73 31.8169 103.91 30.2069 101.871C30.2069 101.871 30.1269 101.871 30.1569 101.921C31.5569 103.88 31.3469 106.53 31.3069 108.819Z" fill="#1D3B4C"/>
<path d="M23.8463 140.009C23.3618 128.756 21.2706 117.63 17.6363 106.969C17.6363 106.859 17.4063 106.969 17.4363 107.029C20.944 117.573 22.9306 128.564 23.3363 139.669L23.8463 140.009Z" fill="#1D3B4C"/>
<path d="M33.9357 103.941C33.3632 104.087 32.8281 104.353 32.3657 104.721C31.9702 105.067 31.6676 105.507 31.4857 106C31.378 105.424 31.4159 104.829 31.5957 104.271C31.7223 103.847 31.9314 103.452 32.2111 103.108C32.4909 102.765 32.8357 102.481 33.2257 102.271C34.2257 101.832 35.1657 102.341 35.0857 102.821C35.0057 103.301 34.4557 103.701 33.9357 103.941Z" fill="#1D3B4C"/>
<path d="M28.3987 109.8C28.9775 109.698 29.5716 109.725 30.1387 109.88C30.6405 110.033 31.0948 110.312 31.4587 110.69C31.3326 110.117 31.0604 109.586 30.6687 109.15C30.0882 108.486 29.2683 108.08 28.3887 108.02C27.2887 108.02 26.6387 108.87 26.9087 109.28C27.1787 109.69 27.8287 109.78 28.3987 109.8Z" fill="#1D3B4C"/>
<path d="M28.1649 113.83C28.7473 113.732 29.3439 113.759 29.9149 113.91C30.4146 114.061 30.8662 114.34 31.2249 114.72C31.1025 114.148 30.8298 113.62 30.4349 113.19C30.1548 112.849 29.808 112.57 29.4159 112.369C29.0238 112.168 28.5947 112.049 28.1549 112.02C27.0549 112.02 26.4149 112.86 26.6749 113.27C26.9349 113.68 27.5949 113.82 28.1649 113.83Z" fill="#1D3B4C"/>
<path d="M17.6057 116.487C18.1851 116.394 18.7773 116.422 19.3457 116.567C19.8461 116.723 20.2997 117.002 20.6657 117.377C20.5363 116.808 20.2645 116.282 19.8757 115.847C19.5921 115.513 19.2439 115.24 18.8521 115.044C18.4603 114.848 18.0329 114.734 17.5957 114.707C16.4957 114.707 15.8457 115.547 16.1157 115.957C16.3857 116.367 16.9957 116.477 17.6057 116.487Z" fill="#1D3B4C"/>
<path d="M16.3268 111.669C16.9092 111.571 17.5058 111.598 18.0768 111.749C18.5765 111.9 19.0281 112.18 19.3868 112.559C19.2231 111.845 18.8381 111.202 18.2867 110.721C17.7353 110.239 17.0458 109.945 16.3168 109.879C15.2168 109.879 14.5768 110.729 14.8468 111.139C15.1168 111.549 15.7568 111.659 16.3268 111.669Z" fill="#1D3B4C"/>
<path d="M34.1366 108.809C33.5482 108.863 32.9785 109.044 32.4666 109.339C32.0181 109.612 31.6491 109.998 31.3966 110.459C31.3762 109.872 31.507 109.291 31.7766 108.769C31.9695 108.375 32.2384 108.023 32.5679 107.733C32.8974 107.443 33.281 107.221 33.6966 107.08C34.7666 106.81 35.5966 107.45 35.4466 107.92C35.2966 108.389 34.6866 108.649 34.1366 108.809Z" fill="#1D3B4C"/>
<path d="M34.4466 113.768C33.8249 113.596 33.1682 113.596 32.5466 113.768C32.0133 113.956 31.5519 114.305 31.2266 114.768C31.2778 114.043 31.5006 113.34 31.8766 112.718C32.1078 112.3 32.4444 111.948 32.853 111.699C33.2617 111.45 33.7282 111.312 34.2066 111.299C35.4166 111.389 36.2066 112.578 36.0066 113.128C35.8066 113.678 35.0766 113.788 34.4466 113.768Z" fill="#1D3B4C"/>
<path d="M33.7658 120.507C33.1861 120.223 32.5378 120.108 31.8958 120.177C31.3347 120.272 30.8193 120.546 30.4258 120.957C30.5971 120.245 30.9405 119.586 31.4258 119.037C31.7265 118.667 32.1171 118.381 32.5601 118.206C33.0031 118.031 33.4837 117.973 33.9558 118.037C35.1358 118.327 35.7458 119.637 35.4258 120.147C35.1058 120.657 34.3858 120.627 33.7658 120.507Z" fill="#1D3B4C"/>
<path d="M23.6485 118.756C23.1355 118.651 22.6037 118.686 22.1085 118.856C21.6864 119.045 21.3359 119.364 21.1085 119.766C21.083 119.159 21.2175 118.555 21.4985 118.016C21.6616 117.663 21.9147 117.359 22.2323 117.134C22.55 116.91 22.9211 116.772 23.3085 116.736C24.3085 116.736 25.0385 117.656 24.8785 118.116C24.7185 118.576 24.1585 118.736 23.6485 118.756Z" fill="#1D3B4C"/>
<path d="M28.8177 102.212C29.1476 102.144 29.4878 102.144 29.8177 102.212C30.1216 102.281 30.4034 102.426 30.6377 102.632C30.5402 102.298 30.3535 101.997 30.0977 101.762C29.7276 101.395 29.2289 101.186 28.7077 101.182C28.0477 101.242 27.7077 101.762 27.8877 101.992C28.0677 102.222 28.4777 102.232 28.8177 102.212Z" fill="#1D3B4C"/>
<path d="M31.1771 100.731C30.9352 100.986 30.751 101.289 30.6371 101.621C30.5427 101.915 30.5255 102.229 30.5871 102.531C30.352 102.278 30.1867 101.968 30.1071 101.631C29.9717 101.126 30.04 100.587 30.2971 100.131C30.6671 99.5914 31.2971 99.5514 31.4071 99.8214C31.4397 99.9806 31.436 100.145 31.3962 100.303C31.3563 100.46 31.2815 100.607 31.1771 100.731V100.731Z" fill="#1D3B4C"/>
<path d="M15.9988 107.38C16.3288 107.314 16.6687 107.314 16.9988 107.38C17.3002 107.448 17.5791 107.593 17.8088 107.8C17.7102 107.469 17.5276 107.169 17.2788 106.93C16.9062 106.56 16.4034 106.352 15.8788 106.35C15.2288 106.41 14.8788 106.93 15.0588 107.16C15.2388 107.39 15.6188 107.4 15.9988 107.38Z" fill="#1D3B4C"/>
<path d="M18.527 106.021C18.2655 106.254 18.0574 106.54 17.917 106.861C17.8016 107.15 17.7603 107.462 17.797 107.771C17.5758 107.502 17.4339 107.176 17.387 106.831C17.3372 106.576 17.3399 106.313 17.3949 106.058C17.4499 105.804 17.5561 105.563 17.707 105.351C18.117 104.841 18.707 104.851 18.827 105.131C18.947 105.411 18.727 105.741 18.527 106.021Z" fill="#1D3B4C"/>
<path d="M9.9975 120.535C11.2719 121.573 12.4592 122.713 13.5475 123.944C15.4996 126.219 17.2717 128.642 18.8475 131.192C19.6475 132.432 20.4575 133.661 21.1975 134.931C21.5743 135.516 21.9085 136.127 22.1975 136.76C22.5206 137.611 22.7846 138.483 22.9875 139.369L22.3975 139.01C21.92 137.395 21.2484 135.844 20.3975 134.391C17.4675 129.392 14.3975 124.294 9.9375 120.545L9.9975 120.535Z" fill="#1D3B4C"/>
<path d="M9.99609 135.012H35.0961V145.658C35.0961 148.967 33.7812 152.141 31.4408 154.48C29.1003 156.82 25.926 158.135 22.6161 158.135H22.4861C19.1779 158.137 16.004 156.827 13.662 154.491C11.32 152.155 10.0014 148.986 9.99609 145.678V135.012Z" fill="#CA5B30"/>
<path d="M35.1469 139.49H10.0469V140.69H35.1469V139.49Z" fill="#DBB58A"/>
<path d="M35.1469 142.43H10.0469V143.63H35.1469V142.43Z" fill="#DBB58A"/>
<path d="M97.2685 162.373L43.5385 165.872C40.1885 166.092 33.8285 164.672 33.3885 159.994L24.8485 9.0496C24.2785 1.77182 29.3985 -0.377526 32.4085 0.0523427L81.6785 7.82998C83.0017 8.09711 84.209 8.76879 85.1335 9.75207C86.0579 10.7353 86.6538 11.9816 86.8385 13.3183L101.759 156.145C102.099 159.394 100.099 162.193 97.2685 162.373Z" fill="#926E75"/>
<path d="M100.559 162.163L43.7287 165.862C42.9062 165.885 42.0874 165.745 41.3191 165.45C40.5509 165.156 39.8484 164.713 39.2519 164.146C38.6554 163.579 38.1767 162.901 37.8433 162.149C37.5098 161.397 37.3281 160.586 37.3087 159.764L28.0987 4.44139C27.9287 1.61225 30.2287 -0.287174 33.2087 0.182683L84.6887 8.31021C86.0039 8.57698 87.2038 9.24538 88.1227 10.2231C89.0417 11.2009 89.6342 12.4397 89.8187 13.7685L104.999 156.005C105.339 159.194 103.359 162.003 100.559 162.163Z" fill="#2B0E0D"/>
<path d="M83.9163 12.908L70.8263 11.0486L70.3763 12.898C70.2289 13.4848 69.8607 13.9922 69.3484 14.3143C68.8361 14.6365 68.2193 14.7487 67.6263 14.6275L53.4163 12.6281C52.6989 12.5126 52.0232 12.2147 51.4541 11.7631C50.885 11.3114 50.4416 10.7212 50.1663 10.0489L49.3463 7.9595L36.3463 6.11007C35.8336 6.02987 35.3095 6.06564 34.8125 6.21475C34.3154 6.36385 33.8582 6.62251 33.4744 6.97165C33.0906 7.3208 32.79 7.75156 32.5948 8.23221C32.3996 8.71286 32.3146 9.23116 32.3463 9.74896L41.8063 155.555C41.8761 156.736 42.4084 157.842 43.2881 158.633C44.1679 159.425 45.324 159.838 46.5063 159.783L97.5563 157.444C97.9961 157.425 98.4273 157.315 98.8234 157.123C99.2195 156.931 99.5721 156.66 99.8596 156.327C100.147 155.994 100.363 155.605 100.495 155.185C100.627 154.765 100.672 154.323 100.626 153.885L86.5563 15.6572C86.4888 14.9692 86.1918 14.3239 85.7129 13.8252C85.234 13.3265 84.6012 13.0035 83.9163 12.908V12.908Z" fill="#CDE8F7"/>
<path d="M60.4558 10.4904C61.1627 10.4904 61.7358 9.85464 61.7358 9.07039C61.7358 8.28615 61.1627 7.65039 60.4558 7.65039C59.7489 7.65039 59.1758 8.28615 59.1758 9.07039C59.1758 9.85464 59.7489 10.4904 60.4558 10.4904Z" fill="#EAEDEF"/>
<path d="M89.7949 47.1313C88.7949 46.3615 88.6249 50.0804 88.6249 50.0804C88.6249 50.0804 88.7249 47.1713 87.9949 46.4115C87.4049 45.8117 86.8649 48.4109 86.6749 49.5505C86.7649 48.4609 86.9249 45.8117 86.1849 45.4218C85.4449 45.0319 84.9749 48.6608 84.9049 49.3206C84.9749 42.7626 83.2249 47.1713 82.9649 50.3203C81.8703 49.7862 80.643 49.5846 79.4349 49.7405C79.0649 50.0304 80.7749 51.47 81.1149 51.7999C81.4971 52.1867 81.7669 52.67 81.8955 53.1983C82.0241 53.7266 82.0066 54.2798 81.8449 54.7989C81.7249 55.2588 88.3349 55.5387 88.3349 55.5387C88.8655 54.4223 89.2648 53.2481 89.5249 52.0398C89.5713 51.9094 89.6081 51.7757 89.6349 51.6399C89.6349 51.46 89.7049 51.22 89.7549 50.9501C89.9949 49.6805 90.3349 47.5711 89.7949 47.1313Z" fill="#FCBDB6"/>
<path d="M86.1462 53.7892C86.1616 53.784 86.1753 53.7747 86.1858 53.7624C86.1964 53.7501 86.2034 53.7352 86.2062 53.7192C86.2383 53.4279 86.1832 53.1337 86.0479 52.8738C85.9126 52.6138 85.7032 52.3999 85.4462 52.2592C84.8402 51.9105 84.2878 51.476 83.8062 50.9692C83.7978 50.9604 83.7877 50.9534 83.7765 50.9486C83.7653 50.9439 83.7533 50.9414 83.7412 50.9414C83.729 50.9414 83.717 50.9439 83.7058 50.9486C83.6947 50.9534 83.6846 50.9604 83.6762 50.9692C83.6674 50.9776 83.6604 50.9877 83.6557 50.9988C83.6509 51.01 83.6484 51.022 83.6484 51.0342C83.6484 51.0463 83.6509 51.0583 83.6557 51.0695C83.6604 51.0807 83.6674 51.0908 83.6762 51.0992C84.1669 51.6277 84.7371 52.0765 85.3662 52.4292C85.582 52.5581 85.7561 52.7464 85.8678 52.9716C85.9795 53.1968 86.0241 53.4493 85.9962 53.6992C85.9948 53.711 85.9958 53.723 85.9991 53.7344C86.0023 53.7459 86.0079 53.7566 86.0153 53.7659C86.0227 53.7752 86.032 53.7829 86.0424 53.7886C86.0529 53.7943 86.0643 53.7979 86.0762 53.7992L86.1462 53.7892Z" fill="#F9A6A0"/>
<path d="M67.1361 51.7188C67.1361 51.7188 72.3761 58.4667 75.3861 59.3164C78.3961 60.1662 69.9161 69.8732 69.9161 69.8732C65.0761 66.8941 63.9961 60.0362 63.9961 60.0362L67.1361 51.7188Z" fill="#49ADB7"/>
<path d="M39.2149 88.826C39.2149 90.1356 44.0749 91.7151 53.8049 91.4152C63.5349 91.1153 66.3849 88.5461 66.3449 87.2365C66.3049 85.9269 65.9949 85.0271 56.2849 85.307C46.5749 85.587 39.1849 87.5264 39.2149 88.826Z" fill="#333333"/>
<path d="M38.5536 52.9794C38.5536 52.9794 40.2736 46.1515 52.9936 46.0415C71.3036 45.9415 64.6736 61.3368 66.3636 86.959C66.3636 86.959 63.4736 82.1905 39.4736 88.2686C39.4536 88.3086 34.5836 63.4262 38.5536 52.9794Z" fill="#49ADB7"/>
<path d="M33.875 52.0401L42.165 56.6387C42.165 56.6387 60.715 60.7374 65.535 59.9477C70.355 59.1579 71.275 57.1785 71.275 57.1785C71.275 57.1785 66.145 47.8313 57.425 46.4118C56.5826 46.2406 55.7313 46.1171 54.875 46.0419C53.402 45.9366 51.9225 45.9667 50.455 46.1319C39.405 47.4115 33.875 52.0401 33.875 52.0401Z" fill="#49ADB7"/>
<path d="M50.4859 44.4913L51.6959 40.5725L52.0559 39.4328L54.1259 32.7148L54.3959 39.3928L54.5659 43.3916V44.6612C54.5659 45.5209 60.9659 46.9605 61.5659 47.6603C61.9159 48.0402 59.7359 50.0396 56.9959 50.6394C51.4959 51.769 43.4959 50.0396 41.8359 48.0402C41.8559 47.9802 50.0959 45.7609 50.4859 44.4913Z" fill="#FCBDB6"/>
<path d="M59.4666 30.1953C59.7204 31.4051 59.7204 32.6544 59.4666 33.8642C59.0366 35.8636 56.9766 30.8651 56.9766 30.8651L59.4666 30.1953Z" fill="#5C305D"/>
<path d="M59.7038 34.4437C59.1938 30.5149 56.1338 27.6658 52.8738 28.0956C49.6138 28.5255 47.3938 32.0944 47.8738 36.0032C48.3538 39.912 51.4538 42.7812 54.7138 42.3513C57.9738 41.9214 60.2238 38.3825 59.7038 34.4437Z" fill="#FCBDB6"/>
<path d="M43.9961 34.1348C43.9961 34.1348 45.9961 38.4335 48.8061 38.7534C48.8061 38.7534 46.5261 35.4744 51.3361 33.475C51.2861 33.475 46.8661 32.7752 43.9961 34.1348Z" fill="#501506"/>
<path d="M47.9238 36.5036C48.0542 36.5981 48.2021 36.6659 48.3588 36.7031C48.5156 36.7402 48.6782 36.7459 48.8371 36.7199C48.9961 36.6938 49.1484 36.6366 49.2851 36.5514C49.4218 36.4662 49.5403 36.3548 49.6338 36.2236C49.792 35.9396 49.8314 35.6045 49.7434 35.2916C49.6553 34.9786 49.4469 34.7133 49.1638 34.5536C49.0325 34.4721 48.8864 34.4174 48.7339 34.3924C48.5814 34.3674 48.4255 34.3728 48.2751 34.408C48.1247 34.4433 47.9827 34.5079 47.8572 34.5981C47.7317 34.6882 47.6252 34.8022 47.5438 34.9336C47.4624 35.0649 47.4076 35.211 47.3826 35.3634C47.3577 35.5159 47.363 35.6718 47.3983 35.8223C47.4336 35.9727 47.4981 36.1147 47.5883 36.2402C47.6785 36.3657 47.7925 36.4721 47.9238 36.5536V36.5036Z" fill="#FCBDB6"/>
<path d="M51.2847 33.4746C51.2847 33.4746 50.8947 37.0835 51.6247 37.7633C52.3547 38.4431 57.2047 38.763 59.4647 37.8633C59.4647 40.1826 60.9947 45.1511 59.3547 46.8006C57.6246 47.8841 55.616 48.44 53.5747 48.4001C48.5147 47.5703 48.9547 44.6212 48.3047 43.1517C48.1047 42.7018 49.8847 37.0035 49.8847 37.0035C49.9456 36.5676 49.9129 36.1237 49.7887 35.7014C49.6646 35.279 49.4519 34.888 49.1647 34.5543C49.7631 34.0128 50.4948 33.6402 51.2847 33.4746V33.4746Z" fill="#501506"/>
<path d="M51.2663 33.6641C51.2086 33.4305 51.2061 33.1867 51.2591 32.952C51.312 32.7173 51.4189 32.4982 51.5712 32.312C51.7235 32.1257 51.9172 31.9775 52.1368 31.879C52.3563 31.7806 52.5958 31.7346 52.8363 31.7447C54.8363 31.6247 57.0263 31.3848 57.8363 31.7447C58.51 32.2233 59.0812 32.8317 59.5163 33.5341C59.5163 33.5341 61.6663 26.2763 59.7063 25.1267C57.7463 23.977 49.7063 23.2873 45.7063 25.2866C41.7063 27.286 43.9963 34.134 43.9963 34.134C46.3936 33.6996 48.8329 33.542 51.2663 33.6641V33.6641Z" fill="#501506"/>
<path d="M53.3758 152.509C54.0073 152.474 54.6357 152.618 55.1892 152.924C55.7427 153.23 56.199 153.685 56.5058 154.238C56.8012 154.806 57.2807 155.257 57.8658 155.518C59.8658 156.328 65.4358 157.067 63.3358 158.917C62.1258 159.976 56.4458 159.287 54.8358 159.287C53.2258 159.287 51.7258 159.986 50.5258 158.917C49.8158 158.267 49.8758 156.228 50.0858 154.498C50.1536 153.9 50.4561 153.354 50.9267 152.979C51.3974 152.604 51.9978 152.431 52.5958 152.499C52.7822 152.513 52.9694 152.513 53.1558 152.499L53.3758 152.509Z" fill="#333333"/>
<path d="M64.7844 86.5768C65.1553 86.6191 65.5012 86.7851 65.7661 87.0482C66.0311 87.3112 66.1995 87.6558 66.2444 88.0264C66.4344 89.5659 66.4644 92.7949 65.5444 99.5129C64.2044 109.38 56.3344 144.979 55.5444 149.778C55.2444 151.487 57.6744 152.957 55.1844 153.316L51.8944 153.247C49.2044 153.636 50.8344 151.077 50.8144 149.248L50.3144 93.4647L41.7344 89.286C46.2395 88.1386 50.8213 87.3167 55.4444 86.8267C58.5437 86.46 61.6699 86.3764 64.7844 86.5768V86.5768Z" fill="#440808"/>
<path d="M57.9361 90.6563L40.6461 137.872L37.9961 96.2846L38.3361 93.5454C38.4861 92.8656 38.8661 89.8565 39.5261 89.6666C42.9961 88.6469 58.2861 88.137 57.9361 90.6563Z" fill="#440808"/>
<path d="M48.5859 116.4L52.6459 104.024C53.5527 101.247 55.4595 98.9059 57.9959 97.4557L57.8359 97.1758C55.2544 98.6706 53.3168 101.067 52.3959 103.904L48.3359 116.3L48.5859 116.4Z" fill="#333333"/>
<path d="M58.2667 39.1738C56.9979 39.4816 55.6878 39.5829 54.3867 39.4738C54.4293 39.7337 54.5259 39.9818 54.6705 40.2019C54.815 40.422 55.0042 40.6094 55.2257 40.7517C55.4473 40.8941 55.6963 40.9883 55.9566 41.0283C56.2169 41.0683 56.4827 41.0531 56.7367 40.9838C57.9267 40.7638 58.2667 39.1738 58.2667 39.1738Z" fill="white"/>
<path d="M53.4961 59.9444C53.4961 59.8193 53.5333 59.6972 53.603 59.5933C53.6727 59.4895 53.7717 59.4088 53.8874 59.3614C54.0031 59.3141 54.1303 59.3022 54.2527 59.3273C54.3752 59.3524 54.4874 59.4134 54.5751 59.5026C54.6628 59.5917 54.722 59.7049 54.7452 59.8277C54.7683 59.9506 54.7544 60.0775 54.7052 60.1925C54.656 60.3074 54.5737 60.4051 54.4688 60.4731C54.3639 60.5411 54.2411 60.5764 54.1161 60.5744C53.9507 60.5717 53.7931 60.5042 53.6771 60.3864C53.5611 60.2685 53.4961 60.1097 53.4961 59.9444V59.9444Z" fill="#5C305D"/>
<path d="M54.7462 68.163C54.7462 68.0816 54.7622 68.001 54.7934 67.9258C54.8245 67.8506 54.8702 67.7822 54.9278 67.7246C54.9853 67.6671 55.0537 67.6214 55.1289 67.5902C55.2041 67.5591 55.2848 67.543 55.3662 67.543C55.4916 67.5411 55.6148 67.5766 55.7199 67.645C55.825 67.7135 55.9073 67.8118 55.9562 67.9273C56.0051 68.0428 56.0185 68.1703 55.9945 68.2934C55.9705 68.4166 55.9103 68.5297 55.8216 68.6184C55.7329 68.7071 55.6197 68.7673 55.4966 68.7913C55.3734 68.8153 55.2459 68.802 55.1304 68.7531C55.0149 68.7042 54.9166 68.6219 54.8482 68.5168C54.7797 68.4116 54.7442 68.2885 54.7462 68.163Z" fill="#5C305D"/>
<path d="M54.7462 77.0323C54.7448 76.9501 54.7599 76.8684 54.7905 76.792C54.821 76.7156 54.8665 76.6461 54.9242 76.5875C54.9819 76.5288 55.0507 76.4823 55.1266 76.4505C55.2025 76.4187 55.2839 76.4023 55.3662 76.4023C55.5333 76.4023 55.6935 76.4687 55.8116 76.5869C55.9298 76.705 55.9962 76.8653 55.9962 77.0323C55.9962 77.1977 55.9312 77.3565 55.8152 77.4743C55.6992 77.5922 55.5415 77.6597 55.3762 77.6623C55.2091 77.6623 55.0488 77.596 54.9307 77.4778C54.8126 77.3597 54.7462 77.1994 54.7462 77.0323Z" fill="#5C305D"/>
<path d="M65.9953 73.5105H66.1653C66.4553 68.512 65.8653 59.5147 65.8653 59.3848H65.6953C65.7153 59.4947 66.2953 68.512 65.9953 73.5105Z" fill="#5C305D"/>
<path d="M37.0662 68.9431C37.7953 66.3385 38.7351 63.7976 39.8763 61.3454L39.7262 61.2754C38.5791 63.74 37.6359 66.2944 36.9062 68.9131L37.0662 68.9431Z" fill="#5C305D"/>
<path d="M74.3361 64.3751C74.5366 63.9295 74.5824 63.4297 74.4661 62.9551L73.7461 63.7951L74.3361 64.3751Z" fill="#125A5E"/>
<path d="M72.6341 58.5657C73.3542 59.2126 74.207 59.6944 75.1328 59.9776C76.0586 60.2608 77.0351 60.3385 77.9941 60.2052C79.0941 60.0153 81.7741 54.7969 81.7741 54.7969L88.2641 55.5367C88.2641 55.5367 86.9941 63.9341 80.8041 68.0328C74.6141 72.1316 69.9141 68.2828 69.9141 68.2828" fill="#FCBDB6"/>
<path d="M57.8561 85.2686L54.8561 84.7588C57.1661 71.6628 52.9961 51.8988 52.9961 51.6989L55.9161 51.0391C56.0861 51.9088 60.2161 71.6128 57.8561 85.2686Z" fill="#24555E"/>
<path d="M99.7034 55.8281H57.2734V96.6757H99.7034V55.8281Z" fill="#FCB554"/>
<path d="M42.4534 96.6758H57.2734L57.2734 55.8282H42.4534L42.4534 96.6758Z" fill="#FF970D"/>
<path d="M92.8645 85.1875H90.5145C88.5153 85.1875 86.8945 86.8077 86.8945 88.8064V88.8364C86.8945 90.835 88.5153 92.4553 90.5145 92.4553H92.8645C94.8638 92.4553 96.4845 90.835 96.4845 88.8364V88.8064C96.4845 86.8077 94.8638 85.1875 92.8645 85.1875Z" fill="white"/>
<path d="M55.7653 96.666C51.3053 95.8063 44.9953 88.8984 43.8853 85.0295C41.8853 77.8817 42.0553 69.5842 41.8853 64.5158C41.8053 62.1665 41.3353 57.388 41.7553 56.0384C42.0953 54.9587 40.5853 53.1292 38.7553 52.5194C37.9025 52.2739 37.0016 52.2464 36.1353 52.4395C35.8653 52.4395 35.5353 52.8293 35.1953 53.3492C35.1953 53.3492 37.0853 88.3385 37.5753 89.1083C39.5753 92.4073 43.8953 97.5357 48.1353 97.7557L55.7653 96.666Z" fill="#FCBDB6"/>
<path d="M36.585 74.0315C36.585 74.0315 42.035 73.9716 42.245 73.3717C43.625 69.4829 42.245 59.8159 42.515 54.4475C42.675 51.1085 35.125 51.5884 35.125 51.5884L36.585 74.0315Z" fill="#49ADB7"/>
<path d="M62.9056 96.6646H67.1556C67.1556 96.6646 67.6456 98.2841 63.8056 98.9839C60.908 99.3985 57.9728 99.4857 55.0556 99.2438C51.8496 99.2087 48.686 98.5074 45.7656 97.1844L53.1256 96.6746H58.4056C58.4056 96.6746 60.7556 94.0254 61.6356 94.0254C62.5156 94.0254 62.3356 95.9348 61.5356 96.5246L62.9056 96.6646Z" fill="#FCBDB6"/>
<path d="M99.0953 55.8242H67.1953V96.2819H99.0953V55.8242Z" fill="#FCB554"/>
<path d="M95.357 85.9375H87.557C87.0876 85.9375 86.707 86.3179 86.707 86.7872V92.2856C86.707 92.7549 87.0876 93.1353 87.557 93.1353H95.357C95.8265 93.1353 96.207 92.7549 96.207 92.2856V86.7872C96.207 86.3179 95.8265 85.9375 95.357 85.9375Z" fill="white"/>
<path d="M63.2938 157.43L52.1172 157.977L52.2638 160.973L63.4404 160.427L63.2938 157.43Z" fill="#333333"/>
<path d="M135.217 160.463H176.477V112.208H135.217V160.463Z" fill="#FCB554"/>
<path d="M193.607 112.209H176.477V160.464H193.607V112.209Z" fill="#FF970D"/>
<path d="M150.787 111.979H139.887V133.772H150.787V111.979Z" fill="white"/>
<path d="M171.486 146.607H161.226C160.833 146.607 160.516 146.925 160.516 147.317V156.015C160.516 156.407 160.833 156.724 161.226 156.724H171.486C171.878 156.724 172.196 156.407 172.196 156.015V147.317C172.196 146.925 171.878 146.607 171.486 146.607Z" fill="white"/>
<path d="M181.826 112.308H142.116C140.046 112.308 138.416 111.138 138.586 109.788L142.246 80.7973C142.396 79.5877 143.936 78.668 145.776 78.668H178.166C180.006 78.668 181.536 79.5877 181.696 80.7973L185.356 109.788C185.526 111.138 183.896 112.308 181.826 112.308Z" fill="#C42014"/>
<path d="M154.026 84.9545C154.998 84.9545 155.786 84.1667 155.786 83.195C155.786 82.2233 154.998 81.4355 154.026 81.4355C153.054 81.4355 152.266 82.2233 152.266 83.195C152.266 84.1667 153.054 84.9545 154.026 84.9545Z" fill="#490707"/>
<path d="M169.916 84.9545C170.888 84.9545 171.676 84.1667 171.676 83.195C171.676 82.2233 170.888 81.4355 169.916 81.4355C168.944 81.4355 168.156 82.2233 168.156 83.195C168.156 84.1667 168.944 84.9545 169.916 84.9545Z" fill="#490707"/>
<path d="M161.997 98.5112C159.662 98.5086 157.422 97.5798 155.771 95.9287C154.119 94.2776 153.19 92.039 153.188 89.7039V83.1959C153.188 82.9652 153.279 82.744 153.442 82.5809C153.605 82.4178 153.827 82.3262 154.057 82.3262C154.288 82.3262 154.51 82.4178 154.673 82.5809C154.836 82.744 154.927 82.9652 154.927 83.1959V89.7039C154.996 91.5337 155.772 93.2657 157.091 94.5359C158.41 95.8062 160.171 96.5158 162.003 96.5158C163.834 96.5158 165.595 95.8062 166.914 94.5359C168.233 93.2657 169.009 91.5337 169.077 89.7039V83.1959C169.077 82.9652 169.169 82.744 169.332 82.5809C169.495 82.4178 169.717 82.3262 169.947 82.3262C170.178 82.3262 170.4 82.4178 170.563 82.5809C170.726 82.744 170.818 82.9652 170.818 83.1959V89.7039C170.815 92.0407 169.884 94.2808 168.231 95.9322C166.577 97.5837 164.335 98.5112 161.997 98.5112V98.5112Z" fill="#490707"/>
<path d="M190.548 112.308H178.638C178.491 112.309 178.345 112.279 178.21 112.22C178.076 112.161 177.955 112.075 177.855 111.967C177.755 111.859 177.679 111.731 177.631 111.592C177.584 111.453 177.566 111.305 177.578 111.159L178.678 97.9626C178.693 97.6921 178.812 97.4377 179.009 97.2518C179.206 97.0658 179.467 96.9625 179.738 96.9629H189.448C189.718 96.9648 189.978 97.069 190.175 97.2545C190.371 97.4399 190.49 97.6929 190.508 97.9626L191.598 111.159C191.612 111.305 191.595 111.452 191.549 111.591C191.502 111.73 191.427 111.858 191.328 111.966C191.229 112.075 191.109 112.161 190.974 112.22C190.84 112.279 190.695 112.309 190.548 112.308Z" fill="#473703"/>
<path d="M189.177 112.307H176.997C176.848 112.306 176.7 112.274 176.564 112.214C176.427 112.154 176.304 112.066 176.203 111.956C176.102 111.847 176.024 111.717 175.975 111.576C175.926 111.436 175.906 111.286 175.917 111.137L177.037 97.6813C177.059 97.4099 177.183 97.1568 177.383 96.9717C177.583 96.7867 177.845 96.6832 178.117 96.6816H188.017C188.289 96.6832 188.551 96.7867 188.751 96.9717C188.951 97.1568 189.075 97.4099 189.097 97.6813L190.217 111.137C190.228 111.283 190.209 111.429 190.163 111.567C190.116 111.706 190.042 111.833 189.945 111.942C189.848 112.051 189.73 112.14 189.598 112.202C189.466 112.265 189.323 112.301 189.177 112.307V112.307Z" fill="url(#paint0_linear_9_1770)"/>
<path d="M186.797 99.472C187.249 99.472 187.617 99.1049 187.617 98.652C187.617 98.1992 187.249 97.832 186.797 97.832C186.344 97.832 185.977 98.1992 185.977 98.652C185.977 99.1049 186.344 99.472 186.797 99.472Z" fill="#490707"/>
<path d="M179.418 99.472C179.871 99.472 180.238 99.1049 180.238 98.652C180.238 98.1992 179.871 97.832 179.418 97.832C178.965 97.832 178.598 98.1992 178.598 98.652C178.598 99.1049 178.965 99.472 179.418 99.472Z" fill="#490707"/>
<path d="M183.108 91.5332C184.193 91.5332 185.235 91.9637 186.003 92.7302C186.772 93.4967 187.205 94.5366 187.208 95.622V98.621C187.193 98.7175 187.143 98.8054 187.069 98.8688C186.995 98.9322 186.9 98.9671 186.803 98.9671C186.705 98.9671 186.611 98.9322 186.536 98.8688C186.462 98.8054 186.413 98.7175 186.398 98.621V95.622C186.398 94.7497 186.051 93.9131 185.434 93.2963C184.817 92.6795 183.98 92.333 183.108 92.333C182.235 92.333 181.398 92.6795 180.781 93.2963C180.164 93.9131 179.818 94.7497 179.818 95.622V98.621C179.818 98.7271 179.776 98.8288 179.701 98.9038C179.626 98.9788 179.524 99.0209 179.418 99.0209C179.311 99.021 179.208 98.9791 179.131 98.9044C179.055 98.8297 179.01 98.728 179.008 98.621V95.622C179.01 94.5366 179.444 93.4967 180.212 92.7302C180.981 91.9637 182.022 91.5332 183.108 91.5332Z" fill="#490707"/>
<path d="M149.256 156.595C149.61 158.426 149.415 160.321 148.696 162.043C147.981 163.757 147.513 165.565 147.306 167.411C147.255 167.818 147.351 168.229 147.576 168.571C147.935 168.919 148.416 169.113 148.916 169.111C150.634 169.291 152.364 169.321 154.086 169.201C154.582 169.2 155.07 169.076 155.506 168.841C155.817 168.597 156.06 168.278 156.214 167.914C156.368 167.551 156.427 167.154 156.386 166.761C156.386 165.222 155.496 163.852 154.926 162.423C154.159 160.481 153.894 158.376 154.156 156.305L149.256 156.595Z" fill="#FDAF89"/>
<path d="M132.858 155.005C132.917 155.83 132.695 156.651 132.228 157.335C131.942 157.636 131.603 157.884 131.228 158.064C129.421 159.034 127.509 159.792 125.528 160.324C124.429 160.522 123.379 160.933 122.438 161.533C121.978 161.851 121.643 162.32 121.494 162.859C121.344 163.398 121.388 163.973 121.618 164.482C126.41 164.772 131.216 164.772 136.008 164.482C137.028 164.462 138.039 164.29 139.008 163.973C139.498 160.774 138.398 157.554 138.858 154.355L132.858 155.005Z" fill="#FDAF89"/>
<path d="M138.998 165.263C133.248 165.603 127.438 165.623 121.678 165.473C121.461 165.468 121.255 165.381 121.1 165.228C120.946 165.076 120.856 164.87 120.848 164.653C120.844 164.535 120.864 164.418 120.907 164.308C120.951 164.198 121.016 164.098 121.1 164.015C121.183 163.931 121.283 163.866 121.393 163.823C121.503 163.779 121.62 163.759 121.738 163.763C127.434 164.005 133.14 163.821 138.808 163.213C139.032 163.191 139.255 163.257 139.431 163.397C139.607 163.537 139.721 163.74 139.748 163.963C139.748 164.083 139.748 164.203 139.748 164.323C139.771 164.547 139.705 164.771 139.565 164.946C139.425 165.122 139.221 165.236 138.998 165.263Z" fill="#026864"/>
<path d="M125.996 164.801C125.962 163.183 125.591 161.59 124.906 160.123L129.056 158.793C130.062 160.606 130.698 162.601 130.926 164.661L125.996 164.801Z" fill="#026864"/>
<path d="M131.628 46.2486C131.33 45.3729 131.369 44.4177 131.738 43.5694C132.583 41.1615 133.137 38.6611 133.388 36.1216C133.548 32.9426 132.698 29.8036 132.528 26.6245C132.393 25.4645 132.576 24.2895 133.058 23.2256C133.311 22.6987 133.729 22.2689 134.249 22.0018C134.769 21.7347 135.362 21.6449 135.938 21.746C136.288 21.6061 138.398 21.2362 138.668 21.5161C139.891 22.7326 140.726 24.2841 141.068 25.9747C141.648 29.9735 139.528 34.812 139.798 38.8408C139.91 39.9725 139.886 41.1136 139.728 42.2398C139.555 43.3738 138.989 44.4109 138.128 45.1689C137.374 45.7006 136.525 46.084 135.628 46.2985C134.89 46.5612 134.111 46.6931 133.328 46.6884C132.548 46.6384 131.998 46.9483 131.628 46.2486Z" fill="#2B0F0A"/>
<path d="M127.996 75.8496C128.826 80.9081 128.216 86.0865 128.206 91.2149C128.206 94.5039 128.446 97.7829 128.696 101.062C130.116 119.136 131.936 137.221 131.636 155.355C132.843 156.103 134.212 156.552 135.627 156.665C137.043 156.778 138.465 156.552 139.776 156.005C139.926 153.366 139.776 150.597 139.886 147.948C140.056 144.869 142.036 129.493 141.766 125.015C140.766 108.92 147.896 94.5739 145.766 78.5888L127.996 75.8496Z" fill="#B72929"/>
<path d="M137.857 96.6025C137.641 95.8403 137.303 95.1179 136.857 94.4631C136.354 93.9049 135.775 93.4203 135.137 93.0236C133.077 91.554 131.137 89.5446 130.867 87.0254C131.789 88.0632 132.89 88.9267 134.117 89.5746C135.117 90.0545 136.397 90.2244 137.277 90.9942C137.853 91.5608 138.302 92.242 138.597 92.9936L141.447 98.9918C141.828 99.6984 142.095 100.461 142.237 101.251C142.577 103.84 141.107 103.39 140.117 101.611C139.23 100.005 138.474 98.3302 137.857 96.6025Z" fill="#911616"/>
<path d="M138.207 85.4669L140.997 111.369C141.387 114.998 141.767 118.617 142.307 122.226C144.057 133.862 147.417 145.359 147.237 157.125C149.775 158.219 152.633 158.312 155.237 157.385C155.775 151.041 155.839 144.665 155.427 138.311C155.167 134.892 154.647 131.503 154.427 128.084C153.287 112.929 158.487 97.7931 155.737 82.8477L138.207 85.4669Z" fill="#F04A48"/>
<path d="M140.405 97.1313L137.885 92.7127C137.885 92.7127 134.465 90.8932 134.355 90.8533C134.245 90.8133 131.035 87.8542 131.035 87.8542L131.575 80.7363L135.285 81.4961C135.285 81.4961 142.015 81.6061 142.285 81.5661C143.513 82.1162 144.709 82.737 145.865 83.4255L146.795 86.3546L140.405 97.1313Z" fill="#F04A48"/>
<path d="M109.517 53.7948C109.837 53.4849 110.137 53.165 110.447 52.845C108.887 51.2522 107.363 49.636 105.877 47.9965C105.247 47.2967 105.337 46.0871 104.787 45.3273C104.548 44.9899 104.25 44.6986 103.907 44.4676C103.312 44.1773 102.658 44.0301 101.997 44.0377L98.3067 43.7178C98.1961 43.6826 98.0773 43.6826 97.9667 43.7178C97.9005 43.7747 97.849 43.8467 97.8167 43.9278C97.5732 44.4449 97.4178 44.999 97.3567 45.5673C97.2153 45.6868 97.1186 45.8507 97.0823 46.0322C97.046 46.2138 97.0722 46.4022 97.1567 46.567C97.3375 46.8562 97.58 47.1019 97.8667 47.2867C99.4455 48.5349 101.117 49.6611 102.867 50.6557C104.447 52.3152 105.867 53.9947 107.187 55.6542C108.078 55.1936 108.87 54.5617 109.517 53.7948Z" fill="#FDAF89"/>
<path d="M101.385 39.9102H91.4553C91.0356 39.9102 90.6953 40.2503 90.6953 40.6699V46.6881C90.6953 47.1077 91.0356 47.4479 91.4553 47.4479H101.385C101.805 47.4479 102.145 47.1077 102.145 46.6881V40.6699C102.145 40.2503 101.805 39.9102 101.385 39.9102Z" fill="#4B74DB"/>
<path d="M102.145 41.5801H90.6953V42.5801H102.145V41.5801Z" fill="#282F39"/>
<path d="M102.145 42.5684H90.6953V43.1684H102.145V42.5684Z" fill="#ECEAEB"/>
<path d="M94.8869 44.6387H91.5469V46.1287H94.8869V44.6387Z" fill="#92B1EF"/>
<path d="M104.349 46.7584C104.542 46.3641 104.631 45.9272 104.609 45.4888C104.523 45.1913 104.374 44.9158 104.172 44.6812C103.97 44.4465 103.72 44.2582 103.439 44.1292C102.049 43.9393 100.649 43.7693 99.2587 43.6094C99.0787 43.6094 98.8487 43.6094 98.7987 43.7793C98.7702 43.8533 98.7702 43.9353 98.7987 44.0093C98.9205 44.2709 99.1045 44.4987 99.3346 44.6729C99.5646 44.8472 99.8338 44.9625 100.119 45.009C100.658 44.9944 101.197 45.0312 101.729 45.1189C102.629 45.4588 102.879 46.7084 103.729 47.1183C103.999 47.1783 104.279 46.9384 104.349 46.7584Z" fill="#FDAF89"/>
<path d="M128.206 91.4944C128.496 92.494 129.736 92.774 130.696 93.2338C131.656 93.6937 137.436 96.3129 148.696 93.7837C148.086 88.3353 143.816 83.3568 143.636 77.8785C143.476 72.6901 145.726 68.2714 146.316 63.113C146.716 59.5641 147.776 46.3281 148.696 42.8791C149.756 38.8804 137.496 44.3387 139.176 40.5898C137.005 41.2494 134.785 41.7342 132.536 42.0394C131.291 42.0703 130.073 42.4141 128.996 43.0391C128.125 43.8171 127.468 44.8047 127.086 45.9082L120.206 61.4435C116.206 57.8246 112.333 54.0657 108.586 50.1669C107.465 51.5053 106.266 52.777 104.996 53.9758C106.996 56.625 114.806 66.7019 117.236 68.5313C117.818 69.0505 118.499 69.4465 119.238 69.6956C119.977 69.9447 120.759 70.0418 121.536 69.9809C122.608 69.7236 123.577 69.1487 124.316 68.3314C126.141 66.3628 127.655 64.1278 128.806 61.7034C129.066 63.153 129.256 64.4426 129.416 65.9121C130.336 74.4495 125.836 83.2369 128.206 91.4944Z" fill="#026864"/>
<path d="M148.866 38.5207C148.405 38.1912 147.861 37.9955 147.296 37.9551C146.73 37.9147 146.164 38.0312 145.661 38.2917C145.157 38.5522 144.735 38.9467 144.442 39.4316C144.148 39.9165 143.994 40.473 143.996 41.0399C143.956 45.5585 143.91 50.0738 143.856 54.5858C143.856 57.5849 143.796 60.5839 143.586 63.583C142.886 73.49 140.266 82.0974 140.666 91.7145C140.674 92.1461 140.773 92.5713 140.956 92.9623C141.139 93.3534 141.402 93.7016 141.728 93.9845C142.054 94.2673 142.436 94.4783 142.85 94.6039C143.263 94.7295 143.698 94.7669 144.126 94.7136C145.216 94.5736 146.296 94.3837 147.366 94.1537C150.196 93.5639 153.186 92.8941 155.496 91.2346C155.886 90.9548 156.205 90.5875 156.428 90.1622C156.65 89.7368 156.769 89.2652 156.776 88.7854C157.044 83.8893 156.267 78.9924 154.496 74.4197C153.756 72.5103 155.496 69.9711 155.356 67.9317C154.656 59.8542 153.956 51.7766 153.196 43.6991C153.13 43.0514 152.864 42.4402 152.436 41.9496C151.391 40.7255 150.221 39.6132 148.946 38.6306L148.866 38.5207Z" fill="#026864"/>
<path d="M152.577 64.8914C152.577 66.221 152.517 67.7105 151.577 68.6402C151.17 68.9892 150.711 69.2725 150.217 69.48L142.707 73.0289C143.857 74.2085 145.807 73.8287 147.387 73.3588L152.237 71.9192C153.452 71.7127 154.545 71.0559 155.297 70.0798C155.686 69.2155 155.814 68.2568 155.667 67.3206C155.427 63.2485 155.18 59.1831 154.927 55.1244C154.827 53.3649 154.827 51.2055 153.927 49.666C152.417 54.2546 152.617 60.1128 152.577 64.8914Z" fill="#004547"/>
<path d="M139.288 38.1418C139.53 39.7664 139.116 41.4204 138.138 42.7404C137.828 43.1502 137.438 43.6001 137.518 44.1099C137.583 44.3494 137.71 44.5677 137.885 44.7431C138.061 44.9185 138.279 45.0449 138.518 45.1096C139.394 45.4195 140.348 45.4275 141.229 45.1321C142.11 44.8368 142.867 44.2553 143.378 43.4801C143.933 42.4618 144.221 41.3204 144.218 40.1611C144.287 38.7474 144.21 37.3304 143.988 35.9324C143.949 35.574 143.821 35.2308 143.618 34.9327C143.506 34.7817 143.344 34.6755 143.161 34.6334C142.978 34.5912 142.785 34.6158 142.618 34.7028L139.288 38.1418Z" fill="#FDAF89"/>
<path d="M144.127 36.9126C144.127 36.5927 144.047 36.2628 143.997 35.9129C143.957 35.5545 143.83 35.2113 143.627 34.9132C143.515 34.7621 143.352 34.656 143.169 34.6138C142.986 34.5717 142.793 34.5963 142.627 34.6833L139.267 38.1522C139.45 39.3756 139.262 40.6259 138.727 41.7411C140.328 40.8982 141.773 39.7856 142.997 38.4521C143.468 38.0153 143.851 37.4928 144.127 36.9126V36.9126Z" fill="#D88666"/>
<path d="M128.298 55.5152C128.743 53.4838 129.413 51.5086 130.298 49.627C128.418 51.3164 127.858 53.9556 127.448 56.4349C127.218 57.8045 127.048 59.174 126.918 60.5536C126.872 61.7046 126.687 62.8457 126.368 63.9526C125.808 65.3539 124.968 66.6262 123.898 67.6915C123.097 68.6966 122.069 69.4982 120.898 70.0307C121.105 70.0501 121.312 70.0501 121.518 70.0307C122.59 69.7735 123.559 69.1985 124.298 68.3812C126.123 66.4126 127.637 64.1777 128.788 61.7533C127.808 59.8738 127.928 57.5545 128.298 55.5152Z" fill="#004547"/>
<path d="M139.065 74.5494C137.771 74.3939 136.505 74.0574 135.305 73.5497C133.688 73.0417 132 72.792 130.305 72.81C130.24 72.7899 130.17 72.7899 130.105 72.81C130.052 72.8515 130.016 72.9107 130.003 72.9769C129.99 73.043 130.001 73.1115 130.035 73.1698C130.112 73.2818 130.219 73.3687 130.345 73.4198C130.658 73.584 130.996 73.6955 131.345 73.7497C131.787 73.7778 132.224 73.8618 132.645 73.9996C133.086 74.2367 133.461 74.5803 133.735 74.9993C131.154 75.0988 128.579 74.6772 126.165 73.7597C126.103 73.7404 126.037 73.7404 125.975 73.7597C125.835 73.7597 125.845 74.0096 125.905 74.1396C126.042 74.4021 126.232 74.6335 126.462 74.8193C126.693 75.0051 126.959 75.1412 127.245 75.2192C127.813 75.378 128.371 75.5716 128.915 75.799C127.954 75.8856 126.987 75.713 126.115 75.2992C125.935 75.6391 126.185 76.039 126.455 76.2989C127.287 77.058 128.262 77.6428 129.323 78.0188C130.385 78.3948 131.511 78.5544 132.635 78.4882C134.877 78.3508 137.091 77.9103 139.215 77.1786L139.065 74.5494Z" fill="#FDAF89"/>
<path d="M149.735 39.4707C151.054 40.6106 152.564 41.5076 154.195 42.1199C154.945 42.3434 155.666 42.652 156.345 43.0396C157.613 44.0449 158.493 45.4579 158.835 47.0384C159.832 50.7023 160.433 54.4628 160.625 58.255C160.939 62.0538 161.169 65.8527 161.315 69.6515C161.324 70.992 160.889 72.2977 160.079 73.3659C159.269 74.4342 158.129 75.2054 156.835 75.5597H156.785C150.861 76.9489 144.809 77.7195 138.725 77.859C138.585 76.5994 138.425 75.1498 138.355 73.8602C143.763 72.5052 149.064 70.7543 154.215 68.6218C154.087 67.5671 154.023 66.5054 154.025 65.4428C153.745 61.0341 153.715 56.5955 153.205 52.2068C152.695 47.8182 151.875 43.3395 149.735 39.4707Z" fill="#026864"/>
<path d="M147.516 167.852C147.236 168.002 147.216 168.402 147.236 168.722C147.229 169.14 147.34 169.553 147.556 169.912C147.767 170.129 148.021 170.3 148.301 170.414C148.582 170.528 148.883 170.581 149.186 170.572C150.766 170.742 152.346 170.852 153.936 170.902C154.471 170.963 155.012 170.884 155.506 170.672C155.755 170.54 155.964 170.344 156.112 170.105C156.26 169.865 156.341 169.591 156.347 169.309C156.353 169.028 156.284 168.75 156.147 168.504C156.009 168.258 155.809 168.054 155.566 167.912L147.516 167.852Z" fill="#026864"/>
<path d="M155.265 162.104C155.605 163.153 155.905 164.353 156.265 165.413C154.319 164.372 152.078 164.02 149.905 164.413C149.049 164.48 148.239 164.832 147.605 165.413C147.687 164.385 147.851 163.365 148.095 162.364C150.419 161.635 152.895 161.545 155.265 162.104Z" fill="#026864"/>
<path d="M143.629 34.1417C142.727 35.9118 141.17 37.2604 139.289 37.9006C138.588 38.1768 137.817 38.2223 137.089 38.0305C135.859 37.6207 135.229 36.2611 134.929 35.0314C134.742 34.1333 134.605 33.2255 134.519 32.3123C134.349 30.7028 134.209 29.0832 134.109 27.4637C133.877 26.1739 134.145 24.8443 134.859 23.7449C134.996 23.5615 135.174 23.4126 135.379 23.3102C135.584 23.2078 135.809 23.1547 136.039 23.1551C136.439 23.1551 136.779 23.465 137.179 23.5049C137.807 22.9987 138.56 22.6707 139.359 22.5552C139.861 22.5456 140.358 22.6623 140.803 22.8946C141.249 23.127 141.629 23.4674 141.909 23.8848C142.455 24.7178 142.826 25.6532 142.999 26.634C143.499 29.2032 144.789 31.8024 143.629 34.1417Z" fill="#FDAF89"/>
<path d="M139.897 34.582C139.667 35.2554 139.182 35.8118 138.547 36.132C138.04 36.4168 137.449 36.5158 136.877 36.412C136.582 36.3504 136.32 36.1854 136.136 35.947C135.953 35.7086 135.861 35.4124 135.877 35.112C136.537 35.012 137.227 35.012 137.877 34.922C138.557 34.8549 139.232 34.7413 139.897 34.582Z" fill="white"/>
<path d="M137.858 23.8253C138.204 23.8583 138.535 23.9807 138.819 24.1805C139.103 24.3804 139.33 24.6507 139.478 24.9649C140.028 26.0846 141.388 26.4045 141.818 27.4942C142.342 28.4926 142.784 29.5325 143.138 30.6032C143.408 31.9028 142.928 33.1724 143.068 34.492C143.168 35.4917 143.828 36.4914 143.898 37.4911C143.998 38.8207 143.198 40.3203 143.248 41.6499C143.318 43.3094 144.188 44.549 144.248 45.9985C144.209 47.1204 144.259 48.2436 144.398 49.3575C144.458 49.6689 144.619 49.9519 144.856 50.1632C145.092 50.3745 145.392 50.5023 145.708 50.5272C146.511 50.5057 147.31 50.6592 148.048 50.977C148.571 51.3962 149.216 51.6329 149.886 51.6509C150.556 51.669 151.213 51.4674 151.758 51.077C151.898 50.997 152.018 50.9071 152.138 50.8271C152.423 50.6227 152.638 50.3356 152.754 50.0047C152.871 49.6739 152.882 49.3153 152.788 48.9776C151.788 45.2188 151.958 42.2797 151.538 38.7208C151.378 37.4212 150.378 36.0416 150.278 34.722C150.178 33.4024 150.598 31.9128 150.468 30.6532C150.462 29.6228 150.385 28.594 150.238 27.5742C149.877 26.6701 149.435 25.8002 148.918 24.9749C148.641 23.9415 148.213 22.9546 147.648 22.0458C146.838 21.2949 145.85 20.7618 144.778 20.4963C143.558 20.0364 143.148 19.1367 140.878 19.1367C139.016 19.3259 137.198 19.8225 135.498 20.6063C134.338 21.0861 135.168 21.516 134.668 22.6556C135.808 22.6756 136.728 23.7053 137.858 23.8253Z" fill="#2B0F0A"/>
<path d="M135.497 20.586C134.497 21.0259 132.857 20.3061 131.217 23.795C129.577 27.284 132.447 26.7941 132.117 28.9135C131.787 31.0328 130.627 31.0728 131.707 33.1122C132.787 35.1516 133.527 34.4118 132.147 36.7511C130.767 39.0904 130.507 38.6805 131.077 40.43L131.677 42.1694L133.677 41.8795L134.997 38.7905L133.597 31.7926L133.507 28.5436L133.567 24.4848L134.347 23.0153L138.637 20.436C137.593 20.236 136.517 20.2874 135.497 20.586V20.586Z" fill="#2B0F0A"/>
<path d="M92.2175 71.5006C92.2175 70.261 92.2175 69.0114 92.2175 67.7718C92.2395 66.8463 92.1215 65.9228 91.8675 65.0326C91.6834 64.3705 91.2774 63.7917 90.7175 63.3931C90.0675 62.9732 89.3273 62.7129 88.5575 62.6333C88.1075 62.5733 87.6475 62.5334 87.1875 62.5034C86.4375 62.5034 85.6875 62.4334 84.9375 62.4334C84.1875 62.4334 83.5275 62.4334 82.8275 62.4334C82.2181 62.433 81.6106 62.5034 81.0175 62.6433C80.4232 62.8131 79.8958 63.1622 79.5075 63.643C79.2475 63.9829 79.0375 64.3628 78.8075 64.7327C78.7275 64.5427 78.6375 64.3228 78.5375 64.1129C78.334 63.6297 78.0104 63.2064 77.5975 62.8832C77.1971 62.5994 76.7269 62.4301 76.2375 62.3934C75.3075 62.3334 74.3675 62.2934 73.4375 62.2734C72.7075 62.2734 71.9875 62.2734 71.2575 62.2734C70.6875 62.2734 70.1175 62.2734 69.5475 62.3434C68.8108 62.4002 68.0881 62.5757 67.4075 62.8633C67.0282 63.0278 66.6864 63.2678 66.4027 63.5685C66.1191 63.8693 65.8995 64.2245 65.7575 64.6127C65.5116 65.3247 65.3734 66.0693 65.3475 66.8221C65.3475 67.4819 65.3475 68.1516 65.2875 68.8214C65.2375 69.7972 65.2375 70.7748 65.2875 71.7506C65.3144 72.4281 65.4252 73.0997 65.6175 73.7499C65.8668 74.5872 66.3447 75.3385 66.9975 75.9193C67.8268 76.6456 68.895 77.0407 69.9975 77.0289C70.7275 77.0289 71.4675 77.0289 72.1975 77.0289H74.1975L76.6875 77.0789C76.769 77.0756 76.8495 77.0979 76.9177 77.1428C76.9859 77.1876 77.0383 77.2527 77.0675 77.3289C77.1944 77.6058 77.3415 77.8731 77.5075 78.1286C78.007 78.8629 78.6294 79.5054 79.3475 80.028C79.4975 80.138 79.6575 80.248 79.8175 80.3779C79.7375 80.038 79.6575 79.7281 79.5975 79.3782C79.5186 79.0149 79.5464 78.6365 79.6775 78.2886C79.8048 77.9495 80.0218 77.6514 80.3053 77.426C80.5889 77.2006 80.9284 77.0565 81.2875 77.009C81.664 76.9807 82.0423 76.9874 82.4175 77.0289C83.2175 77.0289 84.0175 77.0289 84.8175 77.0289H87.4575C88.3816 77.0699 89.2951 76.818 90.0675 76.3092C90.5953 75.9523 91.0449 75.4918 91.3887 74.9555C91.7326 74.4192 91.9635 73.8186 92.0675 73.1901C92.1701 72.6329 92.2203 72.0672 92.2175 71.5006V71.5006Z" fill="white"/>
<path d="M84.6575 79.138C84.6178 78.8319 84.494 78.5427 84.2998 78.3027C84.1056 78.0627 83.8486 77.8812 83.5575 77.7784C83.1417 77.571 82.6783 77.4775 82.2146 77.5074C81.7508 77.5372 81.3033 77.6894 80.9175 77.9483C80.737 78.0493 80.5796 78.187 80.4556 78.3525C80.3316 78.518 80.2437 78.7077 80.1975 78.9093C80.1513 79.1109 80.1479 79.3199 80.1875 79.5229C80.2272 79.7258 80.3089 79.9183 80.4275 80.0877C80.6252 80.358 80.88 80.5814 81.1738 80.7421C81.4676 80.9028 81.7932 80.9968 82.1275 81.0174C82.4856 81.0577 82.8482 81.0235 83.1924 80.9168C83.5366 80.8101 83.855 80.6334 84.1275 80.3976C84.3133 80.248 84.459 80.0545 84.5515 79.8347C84.644 79.6148 84.6804 79.3754 84.6575 79.138Z" fill="white"/>
<path d="M85.7884 80.3977C85.5418 80.3719 85.2926 80.4015 85.059 80.4846C84.8254 80.5677 84.6133 80.702 84.4384 80.8777C84.2983 81.0381 84.213 81.2391 84.195 81.4514C84.177 81.6636 84.2272 81.876 84.3384 82.0577C84.6442 82.4091 85.0736 82.629 85.5373 82.6719C86.0011 82.7147 86.4635 82.5771 86.8284 82.2877C86.9327 82.2061 87.0186 82.1033 87.0804 81.9861C87.1422 81.869 87.1785 81.7401 87.187 81.6079C87.1955 81.4757 87.176 81.3432 87.1297 81.2191C87.0834 81.095 87.0114 80.9821 86.9184 80.8877C86.7736 80.7332 86.5985 80.61 86.4042 80.5257C86.2098 80.4414 86.0003 80.3979 85.7884 80.3977V80.3977Z" fill="white"/>
<path d="M90.4286 69.3602C90.3498 69.0733 90.2046 68.809 90.0049 68.5885C89.8051 68.3679 89.5563 68.1974 89.2786 68.0906C88.935 67.9551 88.5754 67.8644 88.2086 67.8207C87.4655 67.7214 86.7096 67.7932 85.9986 68.0306C85.6814 68.1237 85.3934 68.2967 85.1622 68.533C84.9311 68.7693 84.7646 69.061 84.6786 69.3802C84.5186 70.01 84.5186 70.6698 84.6786 71.2996C84.7467 71.6203 84.8927 71.9194 85.1038 72.1705C85.3148 72.4215 85.5843 72.6168 85.8886 72.7392C86.2863 72.9 86.7097 72.988 87.1386 72.9991C87.7071 73.0459 88.2795 73.0123 88.8386 72.8991C89.2401 72.8298 89.6125 72.6441 89.9094 72.3651C90.2063 72.086 90.4146 71.726 90.5086 71.3296C90.6696 70.6789 90.6418 69.9957 90.4286 69.3602V69.3602ZM88.9986 70.6698C88.9878 70.8443 88.9507 71.0162 88.8886 71.1796C88.8301 71.3451 88.7291 71.4923 88.5957 71.6063C88.4623 71.7204 88.3012 71.7974 88.1286 71.8295C87.7715 71.9244 87.3957 71.9244 87.0386 71.8295C86.8457 71.7812 86.6703 71.6797 86.5323 71.5365C86.3944 71.3933 86.2995 71.2142 86.2586 71.0197C86.1587 70.6294 86.1587 70.2203 86.2586 69.8301C86.2914 69.6395 86.3787 69.4625 86.51 69.3206C86.6414 69.1786 86.8111 69.0778 86.9986 69.0303C87.3468 68.9455 87.7103 68.9455 88.0586 69.0303C88.2631 69.0673 88.451 69.1671 88.5962 69.3158C88.7414 69.4645 88.8366 69.6547 88.8686 69.86C88.9581 70.1205 89.0021 70.3944 88.9986 70.6698V70.6698Z" fill="#CE132C"/>
<path d="M79.7685 68.1401C79.4298 67.9526 79.0546 67.8401 78.6686 67.8102C77.9974 67.721 77.315 67.779 76.6686 67.9802C76.401 68.0483 76.1512 68.1727 75.9356 68.3451C75.72 68.5175 75.5438 68.7339 75.4185 68.9799C75.2758 69.2954 75.1911 69.634 75.1685 69.9796C75.1196 70.4892 75.1602 71.0035 75.2886 71.4991C75.3487 71.7478 75.4645 71.9796 75.6274 72.1771C75.7902 72.3745 75.9958 72.5324 76.2286 72.6388C77.0289 73.0043 77.9174 73.1327 78.7886 73.0086C79.2918 72.927 79.7803 72.772 80.2385 72.5488C80.5285 72.4088 80.5685 72.2689 80.3785 72.009C80.284 71.8691 80.1804 71.7355 80.0686 71.6091C79.8986 71.3991 79.7885 71.3891 79.5585 71.5291C79.3752 71.6482 79.1768 71.7423 78.9686 71.809C78.4825 71.9289 77.9746 71.9289 77.4885 71.809C77.3143 71.7727 77.153 71.6905 77.0211 71.571C76.8893 71.4515 76.7917 71.299 76.7385 71.1292C76.6685 70.9493 76.7385 70.8793 76.9186 70.8793H80.3785C80.5585 70.8793 80.6386 70.8793 80.6386 70.6694C80.6487 70.2586 80.6287 69.8476 80.5786 69.4397C80.5502 69.1761 80.4627 68.9223 80.3224 68.6972C80.1821 68.4722 79.9928 68.2817 79.7685 68.1401ZM78.9986 69.8696C78.7623 69.8896 78.5248 69.8896 78.2886 69.8696H76.8286C76.8058 69.8704 76.7833 69.8653 76.7632 69.8547C76.743 69.844 76.7261 69.8283 76.7139 69.8091C76.7018 69.7899 76.6949 69.7678 76.6939 69.7451C76.693 69.7224 76.698 69.6998 76.7086 69.6797C76.7467 69.5102 76.8316 69.3549 76.9535 69.2312C77.0755 69.1075 77.2296 69.0204 77.3986 68.9799C77.6794 68.9085 77.969 68.8782 78.2586 68.8899C78.5266 68.8921 78.7839 68.9956 78.9786 69.1798C79.0897 69.3108 79.1624 69.4699 79.1886 69.6397C79.1986 69.7796 79.1486 69.8396 78.9986 69.8696Z" fill="#CE132C"/>
<path d="M72.2056 72.4899C71.7056 71.7801 71.2056 71.0703 70.6756 70.3805C70.3956 70.0306 70.4156 69.8507 70.7356 69.5408C71.2556 69.0409 71.7356 68.4811 72.2256 67.9513C72.2443 67.9269 72.2544 67.897 72.2544 67.8663C72.2544 67.8356 72.2443 67.8057 72.2256 67.7813C72.2256 67.7113 72.1356 67.7113 72.0656 67.7113C71.9956 67.7113 71.6256 67.7113 71.4056 67.7113C71.193 67.6822 70.9764 67.7082 70.7767 67.787C70.577 67.8658 70.401 67.9947 70.2656 68.1612C69.9489 68.5107 69.6152 68.8443 69.2656 69.1609V67.8613C69.2656 67.6614 69.1956 67.5914 69.0056 67.5714C68.8156 67.5514 68.4856 67.5714 68.2356 67.5714C67.9856 67.5714 67.7756 67.6714 67.7656 68.0113V70.0306C67.7656 70.8804 67.7656 71.7301 67.7656 72.5799C67.7656 72.8398 67.8256 72.9098 68.0756 72.9198C68.3256 72.9298 68.5956 72.9198 68.8556 72.9198C69.1156 72.9198 69.2656 72.8198 69.2656 72.4999V71.1403C69.2656 71.1403 69.2656 71.0603 69.2656 71.0403C69.2656 71.0203 69.3456 71.0403 69.3656 71.0403C69.7356 71.5002 70.1056 71.97 70.4856 72.4299C70.5882 72.5744 70.725 72.6911 70.8839 72.7696C71.0427 72.8481 71.2185 72.886 71.3956 72.8798C71.6756 72.8798 71.9456 72.8798 72.2256 72.8798C72.2516 72.8807 72.2774 72.8744 72.3 72.8616C72.3227 72.8487 72.3412 72.8298 72.3537 72.8069C72.3662 72.7841 72.372 72.7582 72.3706 72.7322C72.3692 72.7062 72.3605 72.6812 72.3456 72.6598C72.3024 72.6004 72.2556 72.5437 72.2056 72.4899Z" fill="#CE132C"/>
<path d="M84.3962 67.6618C84.0578 67.6586 83.7208 67.7058 83.3962 67.8018C83.1688 67.8671 82.9575 67.9795 82.7762 68.1317C82.7819 68.0752 82.7819 68.0182 82.7762 67.9617C82.7813 67.9163 82.7758 67.8703 82.7604 67.8273C82.7449 67.7843 82.7198 67.7454 82.687 67.7136C82.6542 67.6818 82.6146 67.6579 82.5711 67.6437C82.5276 67.6295 82.4815 67.6255 82.4362 67.6318H81.4362C81.2462 67.6318 81.1562 67.7318 81.1562 67.9217C81.1562 68.1117 81.1562 68.1717 81.1562 68.3016C81.1562 68.9914 81.1562 69.6712 81.1562 70.361V72.5303C81.1562 72.7703 81.2462 72.8602 81.4862 72.8602H82.2962C82.6162 72.8602 82.7462 72.7603 82.7362 72.4304C82.7262 72.1005 82.7362 71.7406 82.7362 71.4307C82.7362 71.1208 82.7362 70.6209 82.7362 70.221C82.7362 69.5213 82.9662 69.2214 83.5662 69.1414C83.7862 69.1414 84.0162 69.0814 84.2462 69.0214C84.3277 69.0077 84.4019 68.9665 84.4565 68.9046C84.5111 68.8427 84.5428 68.764 84.5462 68.6815C84.5612 68.4452 84.5612 68.2081 84.5462 67.9717C84.6662 67.7518 84.5862 67.6618 84.3962 67.6618Z" fill="#CE132C"/>
<path d="M74.6152 68.0303C74.6152 67.8704 74.5352 67.8004 74.3752 67.7904C74.0188 67.7704 73.6615 67.7704 73.3052 67.7904C73.0952 67.7904 73.0352 67.8604 73.0352 68.0703C73.0352 68.2802 73.0352 68.7501 73.0352 69.07V72.6589C73.0352 72.8688 73.1052 72.9588 73.3252 72.9688C73.5452 72.9788 73.9452 72.9688 74.2552 72.9688C74.5652 72.9688 74.6152 72.9688 74.6252 72.5889C74.6252 72.439 74.6252 72.279 74.6252 72.1091C74.6252 71.0094 74.6252 69.9097 74.6252 68.8201C74.6361 68.5568 74.6327 68.2932 74.6152 68.0303Z" fill="#CE132C"/>
<path d="M73.9986 64.1637C74.4151 64.1984 74.8103 64.3628 75.1286 64.6337C75.2623 64.7425 75.3702 64.8797 75.4442 65.0354C75.5183 65.1911 75.5567 65.3613 75.5567 65.5337C75.5567 65.7061 75.5183 65.8763 75.4442 66.032C75.3702 66.1877 75.2623 66.3249 75.1286 66.4337C74.7439 66.7412 74.2661 66.9087 73.7736 66.9087C73.2811 66.9087 72.8033 66.7412 72.4186 66.4337C72.2574 66.3162 72.1283 66.16 72.0433 65.9795C71.9582 65.799 71.9199 65.6 71.9318 65.4009C71.9438 65.2017 72.0056 65.0088 72.1116 64.8398C72.2177 64.6708 72.3645 64.5311 72.5386 64.4337C72.9777 64.1732 73.4953 64.0775 73.9986 64.1637Z" fill="#74C0D1"/>
<defs>
<linearGradient id="paint0_linear_9_1770" x1="195.267" y1="118.695" x2="176.333" y2="97.5456" gradientUnits="userSpaceOnUse">
<stop stop-color="#FF8E00"/>
<stop offset="1" stop-color="#FFCF01"/>
</linearGradient>
</defs>
</svg>
