<svg width="46" height="46" viewBox="0 0 46 46" fill="none" xmlns="http://www.w3.org/2000/svg">
<path d="M24.2521 21.9726V17.4303C24.7302 17.5621 25.1811 17.7775 25.5841 18.0665C26.0285 18.4071 26.0285 18.5842 26.0285 19.3838C26.0866 19.6347 26.2279 19.8584 26.4294 20.0187C26.631 20.1789 26.8809 20.2661 27.1384 20.2661C27.3958 20.2661 27.6457 20.1789 27.8473 20.0187C28.0488 19.8584 28.1902 19.6347 28.2482 19.3838C28.3126 18.9005 28.243 18.4089 28.0471 17.9624C27.8513 17.5159 27.5366 17.1318 27.1374 16.8519C26.2809 16.1834 25.257 15.7635 24.1777 15.6383V15.2859C24.1376 15.0309 24.0022 14.8005 23.799 14.6412C23.5958 14.482 23.3398 14.4056 23.0825 14.4276C22.8237 14.4055 22.5661 14.4815 22.3607 14.6405C22.1553 14.7995 22.0171 15.0298 21.9736 15.2859V15.7303C20.1972 16.1276 17.9207 17.2081 17.9207 19.8712C17.9207 22.0019 20.1258 23.101 21.9756 23.4524V28.6944C21.3564 28.5349 20.8054 28.1792 20.4053 27.6804C20.0051 27.1816 19.7773 26.5667 19.7558 25.9276C19.7157 25.6725 19.5804 25.4422 19.3772 25.2829C19.1739 25.1236 18.9179 25.0473 18.6607 25.0692C18.0734 25.0692 17.5508 25.4098 17.5508 25.9276C17.6058 27.0986 18.0878 28.209 18.9058 29.0488C19.7238 29.8886 20.8211 30.3997 21.9903 30.4855V30.8408C22.0338 31.097 22.1721 31.3276 22.3777 31.4866C22.5833 31.6456 22.8412 31.7214 23.1001 31.6991C23.3574 31.7211 23.6134 31.6447 23.8166 31.4855C24.0199 31.3262 24.1552 31.0958 24.1953 30.8408V30.5295C26.4151 30.1889 28.9911 29.0497 28.9911 26.3269C29.0469 23.7626 26.1019 22.3278 24.2521 21.9726ZM20.1972 19.9006C20.2002 19.3636 20.3845 18.8433 20.7203 18.4242C21.0561 18.0052 21.5236 17.7118 22.047 17.5918V21.6476C21.1593 21.4108 20.1972 20.8783 20.1972 19.9016V19.9006ZM24.2521 28.6612V23.7675C25.2876 24.0612 26.8418 24.9215 26.8418 26.1948C26.8418 27.8664 25.4364 28.4458 24.2521 28.666V28.6612Z" fill="#D00A2D"/>
<path d="M22.8917 8.32851C26.0223 8.33935 29.0706 9.33207 31.6073 11.1668L27.5945 11.754C27.221 11.8032 26.8804 11.9931 26.6421 12.2849C26.4038 12.5767 26.2859 12.9484 26.3123 13.3242C26.3388 13.7 26.5077 14.0515 26.7845 14.307C27.0614 14.5625 27.4253 14.7027 27.802 14.699H27.9977L34.8341 13.6929C35.2223 13.6412 35.5741 13.4378 35.8126 13.1273C36.0511 12.8167 36.1568 12.4242 36.1065 12.0359L35.1444 5.17604C35.1201 4.98267 35.0579 4.79598 34.9615 4.62662C34.8651 4.45727 34.7362 4.30857 34.5823 4.18901C34.4284 4.06945 34.2524 3.98138 34.0645 3.92982C33.8765 3.87827 33.6803 3.86423 33.4869 3.88853C33.2935 3.91282 33.1068 3.97496 32.9375 4.0714C32.7681 4.16784 32.6194 4.2967 32.4999 4.45061C32.3803 4.60452 32.2923 4.78047 32.2407 4.96842C32.1891 5.15636 32.1751 5.35262 32.1994 5.54599L32.5987 8.32753C29.7341 6.38773 26.3513 5.35632 22.8917 5.36787C18.218 5.3951 13.7435 7.26386 10.4388 10.5688C7.13399 13.8738 5.26547 18.3484 5.2385 23.0221C5.22894 24.9176 5.52878 26.8019 6.12621 28.6008L8.47514 26.2519C8.22826 25.1924 8.0944 24.1098 8.07582 23.0221C8.10323 19.1124 9.67687 15.3724 12.453 12.6192C15.229 9.86607 18.9819 8.3235 22.8917 8.32851V8.32851Z" fill="#D00A2D"/>
<path d="M39.6567 17.4277L37.3078 19.7767C37.5429 20.8415 37.6717 21.927 37.6924 23.0172C37.6949 24.9487 37.3165 26.8617 36.5789 28.6468C35.8413 30.4319 34.7591 32.0541 33.394 33.4206C32.0289 34.787 30.4078 35.8709 28.6234 36.6103C26.839 37.3496 24.9264 37.7299 22.9949 37.7294C19.7719 37.7713 16.6342 36.6938 14.1169 34.6807L17.2537 34.1913C17.4511 34.1687 17.6419 34.1069 17.8151 34.0096C17.9882 33.9123 18.1402 33.7814 18.2622 33.6246C18.3842 33.4679 18.4737 33.2884 18.5254 33.0966C18.5771 32.9048 18.5901 32.7047 18.5636 32.5078C18.537 32.311 18.4714 32.1214 18.3707 31.9502C18.27 31.779 18.1362 31.6296 17.977 31.5108C17.8179 31.392 17.6366 31.3061 17.4438 31.2581C17.2511 31.2102 17.0507 31.2012 16.8544 31.2316L10.0034 32.2231C9.6152 32.2748 9.26335 32.4782 9.02486 32.7887C8.78638 33.0993 8.68072 33.4917 8.73101 33.8801L9.70974 40.7458C9.7036 40.9282 9.735 41.1099 9.80198 41.2796C9.86896 41.4493 9.97011 41.6035 10.0991 41.7325C10.2282 41.8615 10.3823 41.9627 10.552 42.0297C10.7218 42.0966 10.9035 42.128 11.0858 42.1219H11.2816C11.4809 42.1066 11.6751 42.051 11.8524 41.9586C12.0296 41.8662 12.1864 41.7388 12.313 41.5841C12.4397 41.4294 12.5338 41.2507 12.5895 41.0587C12.6451 40.8666 12.6614 40.6653 12.6371 40.4669L12.1477 36.9435C14.7513 38.9702 17.8719 40.2247 21.1538 40.564C24.4357 40.9033 27.7469 40.3137 30.71 38.8625C33.6731 37.4112 36.1689 35.1567 37.9129 32.3559C39.6569 29.555 40.5789 26.3205 40.5738 23.0211C40.568 21.1197 40.2584 19.2314 39.6567 17.4277V17.4277Z" fill="#D00A2D"/>
<path d="M24.2521 21.9726V17.4303C24.7302 17.5621 25.1811 17.7775 25.5841 18.0665C26.0285 18.4071 26.0285 18.5842 26.0285 19.3838C26.0866 19.6347 26.2279 19.8584 26.4294 20.0187C26.631 20.1789 26.8809 20.2661 27.1384 20.2661C27.3958 20.2661 27.6457 20.1789 27.8473 20.0187C28.0488 19.8584 28.1902 19.6347 28.2482 19.3838C28.3126 18.9005 28.243 18.4089 28.0471 17.9624C27.8513 17.5159 27.5366 17.1318 27.1374 16.8519C26.2809 16.1834 25.257 15.7635 24.1777 15.6383V15.2859C24.1376 15.0309 24.0022 14.8005 23.799 14.6412C23.5958 14.482 23.3398 14.4056 23.0825 14.4276C22.8237 14.4055 22.5661 14.4815 22.3607 14.6405C22.1553 14.7995 22.0171 15.0298 21.9736 15.2859V15.7303C20.1972 16.1276 17.9207 17.2081 17.9207 19.8712C17.9207 22.0019 20.1258 23.101 21.9756 23.4524V28.6944C21.3564 28.5349 20.8054 28.1792 20.4053 27.6804C20.0051 27.1816 19.7773 26.5667 19.7558 25.9276C19.7157 25.6725 19.5804 25.4422 19.3772 25.2829C19.1739 25.1236 18.9179 25.0473 18.6607 25.0692C18.0734 25.0692 17.5508 25.4098 17.5508 25.9276C17.6058 27.0986 18.0878 28.209 18.9058 29.0488C19.7238 29.8886 20.8211 30.3997 21.9903 30.4855V30.8408C22.0338 31.097 22.1721 31.3276 22.3777 31.4866C22.5833 31.6456 22.8412 31.7214 23.1001 31.6991C23.3574 31.7211 23.6134 31.6447 23.8166 31.4855C24.0199 31.3262 24.1552 31.0958 24.1953 30.8408V30.5295C26.4151 30.1889 28.9911 29.0497 28.9911 26.3269C29.0469 23.7626 26.1019 22.3278 24.2521 21.9726ZM20.1972 19.9006C20.2002 19.3636 20.3845 18.8433 20.7203 18.4242C21.0561 18.0052 21.5236 17.7118 22.047 17.5918V21.6476C21.1593 21.4108 20.1972 20.8783 20.1972 19.9016V19.9006ZM24.2521 28.6612V23.7675C25.2876 24.0612 26.8418 24.9215 26.8418 26.1948C26.8418 27.8664 25.4364 28.4458 24.2521 28.666V28.6612Z" fill="#D00A2D"/>
<path d="M22.8917 8.32851C26.0223 8.33935 29.0706 9.33207 31.6073 11.1668L27.5945 11.754C27.221 11.8032 26.8804 11.9931 26.6421 12.2849C26.4038 12.5767 26.2859 12.9484 26.3123 13.3242C26.3388 13.7 26.5077 14.0515 26.7845 14.307C27.0614 14.5625 27.4253 14.7027 27.802 14.699H27.9977L34.8341 13.6929C35.2223 13.6412 35.5741 13.4378 35.8126 13.1273C36.0511 12.8167 36.1568 12.4242 36.1065 12.0359L35.1444 5.17604C35.1201 4.98267 35.0579 4.79598 34.9615 4.62662C34.8651 4.45727 34.7362 4.30857 34.5823 4.18901C34.4284 4.06945 34.2524 3.98138 34.0645 3.92982C33.8765 3.87827 33.6803 3.86423 33.4869 3.88853C33.2935 3.91282 33.1068 3.97496 32.9375 4.0714C32.7681 4.16784 32.6194 4.2967 32.4999 4.45061C32.3803 4.60452 32.2923 4.78047 32.2407 4.96842C32.1891 5.15636 32.1751 5.35262 32.1994 5.54599L32.5987 8.32753C29.7341 6.38773 26.3513 5.35632 22.8917 5.36787C18.218 5.3951 13.7435 7.26386 10.4388 10.5688C7.13399 13.8738 5.26547 18.3484 5.2385 23.0221C5.22894 24.9176 5.52878 26.8019 6.12621 28.6008L8.47514 26.2519C8.22826 25.1924 8.0944 24.1098 8.07582 23.0221C8.10323 19.1124 9.67687 15.3724 12.453 12.6192C15.229 9.86607 18.9819 8.3235 22.8917 8.32851V8.32851Z" fill="#D00A2D"/>
<path d="M39.6567 17.4277L37.3078 19.7767C37.5429 20.8415 37.6717 21.927 37.6924 23.0172C37.6949 24.9487 37.3165 26.8617 36.5789 28.6468C35.8413 30.4319 34.7591 32.0541 33.394 33.4206C32.0289 34.787 30.4078 35.8709 28.6234 36.6103C26.839 37.3496 24.9264 37.7299 22.9949 37.7294C19.7719 37.7713 16.6342 36.6938 14.1169 34.6807L17.2537 34.1913C17.4511 34.1687 17.6419 34.1069 17.8151 34.0096C17.9882 33.9123 18.1402 33.7814 18.2622 33.6246C18.3842 33.4679 18.4737 33.2884 18.5254 33.0966C18.5771 32.9048 18.5901 32.7047 18.5636 32.5078C18.537 32.311 18.4714 32.1214 18.3707 31.9502C18.27 31.779 18.1362 31.6296 17.977 31.5108C17.8179 31.392 17.6366 31.3061 17.4438 31.2581C17.2511 31.2102 17.0507 31.2012 16.8544 31.2316L10.0034 32.2231C9.6152 32.2748 9.26335 32.4782 9.02486 32.7887C8.78638 33.0993 8.68072 33.4917 8.73101 33.8801L9.70974 40.7458C9.7036 40.9282 9.735 41.1099 9.80198 41.2796C9.86896 41.4493 9.97011 41.6035 10.0991 41.7325C10.2282 41.8615 10.3823 41.9627 10.552 42.0297C10.7218 42.0966 10.9035 42.128 11.0858 42.1219H11.2816C11.4809 42.1066 11.6751 42.051 11.8524 41.9586C12.0296 41.8662 12.1864 41.7388 12.313 41.5841C12.4397 41.4294 12.5338 41.2507 12.5895 41.0587C12.6451 40.8666 12.6614 40.6653 12.6371 40.4669L12.1477 36.9435C14.7513 38.9702 17.8719 40.2247 21.1538 40.564C24.4357 40.9033 27.7469 40.3137 30.71 38.8625C33.6731 37.4112 36.1689 35.1567 37.9129 32.3559C39.6569 29.555 40.5789 26.3205 40.5738 23.0211C40.568 21.1197 40.2584 19.2314 39.6567 17.4277V17.4277Z" fill="#D00A2D"/>
</svg>
