<svg width="46" height="46" viewBox="0 0 46 46" fill="none" xmlns="http://www.w3.org/2000/svg">
<path d="M39.3007 9.46119C38.7262 7.40489 35.9681 4.03906 22.956 4.03906C16.8351 4.03906 12.3633 4.72417 9.7765 6.01804C6.84719 7.48221 6.66025 9.46119 6.66025 10.069V21.5367C6.64949 25.038 7.57018 28.4792 9.3279 31.5074C11.0856 34.5356 13.6171 37.0418 16.6628 38.7691L21.6641 41.6201C22.0583 41.8442 22.504 41.962 22.9575 41.962C23.4109 41.962 23.8566 41.8442 24.2508 41.6201L29.2521 38.7691C32.2988 37.039 34.8333 34.5334 36.5982 31.5068C38.3631 28.4801 39.2955 25.0403 39.3007 21.5367V10.069C39.3446 9.86876 39.3446 9.6614 39.3007 9.46119V9.46119ZM33.5526 22.0476C33.5484 24.3054 32.946 26.5217 31.8067 28.471C30.6674 30.4202 29.0318 32.0327 27.0666 33.1443L23.7214 34.9667C23.4738 35.1214 23.1877 35.2034 22.8958 35.2034C22.6039 35.2034 22.3178 35.1214 22.0702 34.9667L18.907 33.1434C16.9374 32.0375 15.2983 30.4263 14.1589 28.4759C13.0195 26.5255 12.4209 24.3064 12.4249 22.0476V14.6778C12.4249 14.2863 12.5962 13.014 14.4802 12.0754C17.1852 11.0624 20.0727 10.6282 22.956 10.8011C31.3231 10.8011 33.0995 12.967 33.4283 14.2912C33.4585 14.4199 33.4585 14.5539 33.4283 14.6827L33.5526 22.0476Z" fill="#D00A2D"/>
<path d="M24.5012 16.582V28.082H21.8371V18.7323H19.5469V16.582H24.5012Z" fill="#D00A2D"/>
<path d="M39.3007 9.46119C38.7262 7.40489 35.9681 4.03906 22.956 4.03906C16.8351 4.03906 12.3633 4.72417 9.7765 6.01804C6.84719 7.48221 6.66025 9.46119 6.66025 10.069V21.5367C6.64949 25.038 7.57018 28.4792 9.3279 31.5074C11.0856 34.5356 13.6171 37.0418 16.6628 38.7691L21.6641 41.6201C22.0583 41.8442 22.504 41.962 22.9575 41.962C23.4109 41.962 23.8566 41.8442 24.2508 41.6201L29.2521 38.7691C32.2988 37.039 34.8333 34.5334 36.5982 31.5068C38.3631 28.4801 39.2955 25.0403 39.3007 21.5367V10.069C39.3446 9.86876 39.3446 9.6614 39.3007 9.46119V9.46119ZM33.5526 22.0476C33.5484 24.3054 32.946 26.5217 31.8067 28.471C30.6674 30.4202 29.0318 32.0327 27.0666 33.1443L23.7214 34.9667C23.4738 35.1214 23.1877 35.2034 22.8958 35.2034C22.6039 35.2034 22.3178 35.1214 22.0702 34.9667L18.907 33.1434C16.9374 32.0375 15.2983 30.4263 14.1589 28.4759C13.0195 26.5255 12.4209 24.3064 12.4249 22.0476V14.6778C12.4249 14.2863 12.5962 13.014 14.4802 12.0754C17.1852 11.0624 20.0727 10.6282 22.956 10.8011C31.3231 10.8011 33.0995 12.967 33.4283 14.2912C33.4585 14.4199 33.4585 14.5539 33.4283 14.6827L33.5526 22.0476Z" fill="#D00A2D"/>
<path d="M24.5012 16.582V28.082H21.8371V18.7323H19.5469V16.582H24.5012Z" fill="#D00A2D"/>
</svg>
