<svg width="46" height="46" viewBox="0 0 46 46" fill="none" xmlns="http://www.w3.org/2000/svg">
<path d="M41.2688 29.7512H39.9573V21.9684L32.335 14.2453H28.2841V11.7261C28.2841 11.3486 28.2097 10.9748 28.0651 10.6261C27.9206 10.2774 27.7087 9.96061 27.4417 9.69383C27.1746 9.42705 26.8576 9.21552 26.5088 9.07133C26.1599 8.92715 25.786 8.85313 25.4086 8.85352H6.88427C6.12242 8.85352 5.39178 9.15616 4.85307 9.69487C4.31436 10.2336 4.01172 10.9642 4.01172 11.7261L4.01172 30.5645C4.01172 31.3264 4.31436 32.057 4.85307 32.5957C5.39178 33.1344 6.12242 33.4371 6.88427 33.4371H7.73674C7.69917 34.1969 7.81638 34.9564 8.08126 35.6695C8.34614 36.3826 8.75316 37.0344 9.27761 37.5855C9.80206 38.1365 10.433 38.5752 11.1322 38.875C11.8313 39.1747 12.5841 39.3293 13.3448 39.3293C14.1055 39.3293 14.8583 39.1747 15.5575 38.875C16.2566 38.5752 16.8876 38.1365 17.412 37.5855C17.9365 37.0344 18.3435 36.3826 18.6084 35.6695C18.8733 34.9564 18.9905 34.1969 18.9529 33.4371H26.9687C26.9311 34.1969 27.0483 34.9564 27.3132 35.6695C27.5781 36.3826 27.9851 37.0344 28.5095 37.5855C29.034 38.1365 29.6649 38.5752 30.3641 38.875C31.0632 39.1747 31.816 39.3293 32.5767 39.3293C33.3375 39.3293 34.0902 39.1747 34.7894 38.875C35.4885 38.5752 36.1195 38.1365 36.644 37.5855C37.1684 37.0344 37.5754 36.3826 37.8403 35.6695C38.1052 34.9564 38.2224 34.1969 38.1848 33.4371H41.2678C41.3378 33.4389 41.4075 33.4267 41.4728 33.4012C41.538 33.3756 41.5975 33.3373 41.6476 33.2884C41.6978 33.2395 41.7377 33.181 41.7649 33.1165C41.7921 33.0519 41.8061 32.9826 41.8061 32.9125V30.2876C41.808 30.2164 41.7954 30.1455 41.769 30.0794C41.7426 30.0132 41.703 29.9531 41.6526 29.9027C41.6023 29.8524 41.5422 29.8128 41.476 29.7864C41.4098 29.76 41.339 29.7474 41.2678 29.7493L41.2688 29.7512ZM13.3527 36.4065C12.7606 36.4091 12.181 36.2358 11.6875 35.9087C11.194 35.5815 10.8086 35.1153 10.5803 34.569C10.352 34.0227 10.2909 33.4209 10.4049 32.8399C10.5188 32.2589 10.8027 31.7247 11.2205 31.3052C11.6383 30.8856 12.1712 30.5995 12.7517 30.483C13.3323 30.3666 13.9343 30.4251 14.4816 30.6511C15.0288 30.8771 15.4967 31.2604 15.8259 31.7525C16.1552 32.2447 16.3309 32.8235 16.3309 33.4156C16.3309 34.2066 16.0175 34.9655 15.4594 35.526C14.9012 36.0866 14.1437 36.4032 13.3527 36.4065V36.4065ZM28.2841 16.8693H31.2486L37.3754 22.9961V24.5963H28.2841V16.8693ZM32.5904 36.4026C31.9983 36.4051 31.4188 36.2319 30.9253 35.9048C30.4318 35.5776 30.0464 35.1114 29.8181 34.5651C29.5898 34.0188 29.5287 33.417 29.6427 32.836C29.7566 32.2549 30.0405 31.7208 30.4583 31.3012C30.8761 30.8817 31.409 30.5955 31.9895 30.4791C32.57 30.3627 33.1721 30.4211 33.7194 30.6471C34.2666 30.8731 34.7345 31.2565 35.0637 31.7486C35.3929 32.2408 35.5687 32.8195 35.5687 33.4116C35.5687 34.2027 35.2553 34.9615 34.6972 35.5221C34.139 36.0827 33.3815 36.3993 32.5904 36.4026V36.4026Z" fill="#D00A2D"/>
<path d="M41.2688 29.7512H39.9573V21.9684L32.335 14.2453H28.2841V11.7261C28.2841 11.3486 28.2097 10.9748 28.0651 10.6261C27.9206 10.2774 27.7087 9.96061 27.4417 9.69383C27.1746 9.42705 26.8576 9.21552 26.5088 9.07133C26.1599 8.92715 25.786 8.85313 25.4086 8.85352H6.88427C6.12242 8.85352 5.39178 9.15616 4.85307 9.69487C4.31436 10.2336 4.01172 10.9642 4.01172 11.7261L4.01172 30.5645C4.01172 31.3264 4.31436 32.057 4.85307 32.5957C5.39178 33.1344 6.12242 33.4371 6.88427 33.4371H7.73674C7.69917 34.1969 7.81638 34.9564 8.08126 35.6695C8.34614 36.3826 8.75316 37.0344 9.27761 37.5855C9.80206 38.1365 10.433 38.5752 11.1322 38.875C11.8313 39.1747 12.5841 39.3293 13.3448 39.3293C14.1055 39.3293 14.8583 39.1747 15.5575 38.875C16.2566 38.5752 16.8876 38.1365 17.412 37.5855C17.9365 37.0344 18.3435 36.3826 18.6084 35.6695C18.8733 34.9564 18.9905 34.1969 18.9529 33.4371H26.9687C26.9311 34.1969 27.0483 34.9564 27.3132 35.6695C27.5781 36.3826 27.9851 37.0344 28.5095 37.5855C29.034 38.1365 29.6649 38.5752 30.3641 38.875C31.0632 39.1747 31.816 39.3293 32.5767 39.3293C33.3375 39.3293 34.0902 39.1747 34.7894 38.875C35.4885 38.5752 36.1195 38.1365 36.644 37.5855C37.1684 37.0344 37.5754 36.3826 37.8403 35.6695C38.1052 34.9564 38.2224 34.1969 38.1848 33.4371H41.2678C41.3378 33.4389 41.4075 33.4267 41.4728 33.4012C41.538 33.3756 41.5975 33.3373 41.6476 33.2884C41.6978 33.2395 41.7377 33.181 41.7649 33.1165C41.7921 33.0519 41.8061 32.9826 41.8061 32.9125V30.2876C41.808 30.2164 41.7954 30.1455 41.769 30.0794C41.7426 30.0132 41.703 29.9531 41.6526 29.9027C41.6023 29.8524 41.5422 29.8128 41.476 29.7864C41.4098 29.76 41.339 29.7474 41.2678 29.7493L41.2688 29.7512ZM13.3527 36.4065C12.7606 36.4091 12.181 36.2358 11.6875 35.9087C11.194 35.5815 10.8086 35.1153 10.5803 34.569C10.352 34.0227 10.2909 33.4209 10.4049 32.8399C10.5188 32.2589 10.8027 31.7247 11.2205 31.3052C11.6383 30.8856 12.1712 30.5995 12.7517 30.483C13.3323 30.3666 13.9343 30.4251 14.4816 30.6511C15.0288 30.8771 15.4967 31.2604 15.8259 31.7525C16.1552 32.2447 16.3309 32.8235 16.3309 33.4156C16.3309 34.2066 16.0175 34.9655 15.4594 35.526C14.9012 36.0866 14.1437 36.4032 13.3527 36.4065V36.4065ZM28.2841 16.8693H31.2486L37.3754 22.9961V24.5963H28.2841V16.8693ZM32.5904 36.4026C31.9983 36.4051 31.4188 36.2319 30.9253 35.9048C30.4318 35.5776 30.0464 35.1114 29.8181 34.5651C29.5898 34.0188 29.5287 33.417 29.6427 32.836C29.7566 32.2549 30.0405 31.7208 30.4583 31.3012C30.8761 30.8817 31.409 30.5955 31.9895 30.4791C32.57 30.3627 33.1721 30.4211 33.7194 30.6471C34.2666 30.8731 34.7345 31.2565 35.0637 31.7486C35.3929 32.2408 35.5687 32.8195 35.5687 33.4116C35.5687 34.2027 35.2553 34.9615 34.6972 35.5221C34.139 36.0827 33.3815 36.3993 32.5904 36.4026V36.4026Z" fill="#D00A2D"/>
</svg>
