<svg width="6" height="8" viewBox="0 0 6 8" fill="none" xmlns="http://www.w3.org/2000/svg">
<path d="M0.873098 7.87887C0.80209 7.80989 0.758734 7.71734 0.751183 7.61863C0.743633 7.51992 0.772408 7.42185 0.832098 7.34287L0.873098 7.29987L4.2371 3.99987L0.873098 0.699872C0.80289 0.631052 0.760037 0.539095 0.752497 0.441072C0.744957 0.343049 0.773241 0.24562 0.832098 0.166872L0.873098 0.120872C0.944964 0.0508557 1.03924 0.00845252 1.1393 0.00113498C1.23937 -0.00618256 1.33881 0.0220552 1.4201 0.0808721L1.4671 0.120872L5.1271 3.70887C5.19811 3.77785 5.24146 3.8704 5.24901 3.96911C5.25656 4.06782 5.22779 4.16589 5.1681 4.24487L5.1271 4.29087L1.4671 7.87887C1.38758 7.95621 1.28102 7.99948 1.1701 7.99948C1.05917 7.99948 0.95262 7.95621 0.873098 7.87887Z" fill="white"/>
</svg>
