<svg xmlns="http://www.w3.org/2000/svg" width="16" height="16" fill="none" viewBox="0 0 16 16">
  <path fill="#D1D1D1" fill-rule="evenodd" d="M14.379 1.55l-.003-.004a.343.343 0 00-.3-.177l-3.892-.002-.05.004a.34.34 0 00-.29.338.345.345 0 00.343.343h3.064L9.013 6.29l-.03.035a.348.348 0 00-.08.248.341.341 0 00.36.314.348.348 0 00.236-.11l4.237-4.238.002 3.064.004.05a.344.344 0 00.469.267.339.339 0 00.21-.315v-3.9a.344.344 0 00-.035-.149l-.004-.004-.003-.003zM1.542 14.318l.003.003a.347.347 0 00.3.176l3.892.003.05-.004a.34.34 0 00.29-.338.345.345 0 00-.343-.343l-3.064-.001 4.238-4.237.03-.036a.348.348 0 00.08-.247.341.341 0 00-.36-.314.348.348 0 00-.236.11l-4.237 4.238-.002-3.064-.004-.05a.344.344 0 00-.469-.267.34.34 0 00-.21.315v3.9c0 .051.013.102.035.149l.004.004.003.003z" clip-rule="evenodd"/>
  <path fill="#D1D1D1" d="M14.376 1.546l-.219.122.017.03.025.025.177-.177zm.003.003l.177-.177-.177.177zm-.06-.079l-.178.177.178-.177zm-.243-.1v-.25.25zm-3.892-.003v-.25h-.019l.02.25zm-.05.004l-.02-.25-.008.001-.009.002.037.247zm-.29.338l.25-.001v-.001l-.25.002zm.101.242l-.177.177.177-.177zm.242.1l-.001.25h.001v-.25zm3.064.002l.177.177.426-.427h-.603v.25zM9.013 6.29l-.176-.177-.006.006-.005.005.187.166zm-.03.035l-.188-.166-.006.008.193.158zm.036.478l.165-.188-.165.188zm.244.084l-.013-.25.013.25zm.236-.11L9.322 6.6l-.006.006.183.17zm4.237-4.238h.25v-.603l-.426.426.176.177zm.002 3.064h-.25v.019l.25-.02zm.004.05l-.25.018.001.01.002.01.247-.038zm.115.209l.163-.19-.163.19zm.223.083l-.002.25.002-.25zm.13-.025l.096.231-.095-.231zm.186-.185l-.232-.095.232.095zm.025-.13h-.25v.001l.25-.001zm0-3.9h.25-.25zm-.035-.149l.225-.11-.019-.037-.03-.03-.176.177zm-.004-.004l-.177.177.177-.177zM1.545 14.322l.219-.122-.017-.03-.025-.025-.177.177zm-.003-.003l.177-.177-.177.177zm.06.079l.178-.177-.178.177zm.243.1v.25-.25zm3.892.003v.25h.01l.009-.001-.02-.25zm.05-.004l.02.249h.008l.009-.002-.037-.247zm.208-.115l.19.162-.19-.162zm.082-.223l-.25.001.25-.001zm-.101-.242l-.177.177.177-.177zm-.242-.101l.001-.25h-.001v.25zm-3.064-.001l-.177-.177-.426.427h.603v-.25zm4.238-4.237l.176.176.006-.005.005-.005-.187-.166zm.03-.036l.188.167.006-.008-.193-.159zm.08-.247l.248-.02-.249.02zm-.116-.23l-.165.188.165-.189zm-.244-.084l.013.25-.013-.25zm-.236.11l.177.177.006-.006-.183-.171zm-4.237 4.238h-.25v.603l.426-.427-.176-.176zm-.002-3.064h.25V10.247l-.25.018zm-.004-.05l.25-.018-.001-.01-.002-.01-.247.038zm-.115-.209l-.163.19.163-.19zm-.223-.084l.002-.25-.002.25zm-.13.026l.095.231-.096-.231zm-.112.074l.177.176-.177-.176zm-.074.11l.232.096-.232-.095zm-.025.131h.25v-.001l-.25.001zm0 3.9h-.25.25zm.035.149l-.225.11.019.037.03.03.176-.177zm.004.004l-.177.176.177-.176zM14.2 1.723l.003.003.354-.354-.004-.003-.353.354zm-.057-.076a.097.097 0 01.015.02l.437-.243a.598.598 0 00-.098-.13l-.354.353zm-.066-.028c.025 0 .048.01.065.028l.355-.353a.593.593 0 00-.42-.175v.5zm-3.892-.002l3.892.002v-.5l-3.892-.002v.5zm-.031.003l.05-.004-.038-.498-.05.004.038.498zm-.037.029a.09.09 0 01.055-.03l-.074-.495a.59.59 0 00-.36.2l.379.325zm-.021.058c0-.02.007-.042.02-.058l-.379-.325a.589.589 0 00-.142.387l.5-.004zm.027.067a.094.094 0 01-.027-.066l-.5.002c0 .157.063.307.173.418l.354-.354zm.067.028a.095.095 0 01-.067-.028l-.354.354c.111.11.261.173.418.174l.003-.5zm3.062 0h-3.064v.5h3.064v-.5zM9.19 6.468l4.237-4.237-.354-.354-4.237 4.237.353.354zm-.022.024l.031-.035-.374-.332-.03.035.373.332zm-.016.062a.098.098 0 01.022-.069l-.386-.317a.598.598 0 00-.134.425l.498-.039zm.03.062a.09.09 0 01-.03-.062l-.498.04a.591.591 0 00.2.399l.329-.377zm.067.022a.092.092 0 01-.066-.022l-.33.377a.592.592 0 00.423.145l-.027-.5zm.066-.03a.098.098 0 01-.066.03l.027.5a.598.598 0 00.404-.19l-.365-.34zm4.244-4.245L9.322 6.6l.353.354 4.238-4.238-.353-.354zm.428 3.24l-.002-3.063h-.5l.002 3.064h.5zm.003.032l-.004-.05-.498.037.003.05.5-.037zm.03.038a.094.094 0 01-.032-.057l-.494.075c.02.14.091.268.198.36l.327-.378zm.06.023a.095.095 0 01-.06-.023l-.328.379a.595.595 0 00.386.144l.003-.5zm.035-.006a.087.087 0 01-.034.006l-.003.5a.587.587 0 00.227-.044l-.19-.462zm.029-.02a.09.09 0 01-.03.02l.19.462a.59.59 0 00.193-.128l-.353-.354zm.02-.03a.09.09 0 01-.02.03l.353.354a.59.59 0 00.129-.193l-.463-.19zm.006-.033a.086.086 0 01-.007.034l.463.19a.586.586 0 00.044-.227l-.5.003zm0-3.9v3.899h.5v-3.9h-.5zm-.01-.04c.006.012.01.026.01.04l.5-.001c0-.09-.021-.178-.06-.258l-.45.219zm.044.063l.004.004.354-.354-.004-.004-.354.354zm-.003-.003l.003.003.354-.354-.003-.003-.354.354zm-12.48 12.42l-.003-.004-.354.353.004.004.353-.354zm.057.075a.094.094 0 01-.015-.02l-.437.243c.027.047.06.091.098.13l.354-.353zm.066.027a.093.093 0 01-.065-.027l-.355.353a.593.593 0 00.42.174v-.5zm3.892.003l-3.892-.003v.5l3.892.003v-.5zm.031-.004l-.05.004.038.499.05-.004-.038-.499zm.037-.028a.09.09 0 01-.054.03l.073.495a.59.59 0 00.36-.2l-.379-.325zm.022-.058c0 .02-.008.041-.022.058l.38.325a.588.588 0 00.142-.387l-.5.004zm-.028-.067a.095.095 0 01.028.066l.5-.003a.595.595 0 00-.174-.417l-.354.354zm-.067-.028c.026 0 .05.01.067.027l.354-.353a.595.595 0 00-.418-.174l-.003.5zm-3.062-.001l3.064.001v-.5l-3.064-.001v.5zm4.06-4.664l-4.237 4.237.354.354 4.237-4.238-.353-.353zm.022-.025l-.031.036.374.332.03-.036-.373-.332zm.016-.062a.098.098 0 01-.022.07l.386.317a.598.598 0 00.134-.425l-.498.038zm-.03-.061a.091.091 0 01.03.061l.498-.038a.591.591 0 00-.2-.4l-.329.377zM6.67 9.23a.092.092 0 01.066.023l.33-.377a.592.592 0 00-.423-.145l.027.5zm-.066.032a.098.098 0 01.066-.032l-.027-.499a.598.598 0 00-.404.19l.365.34zm-4.244 4.243L6.6 9.268l-.353-.354-4.238 4.238.353.354zm-.428-3.24l.002 3.064h.5l-.002-3.064h-.5zm-.003-.032l.004.05.498-.036-.003-.05-.5.037zm-.03-.038a.094.094 0 01.032.057l.494-.075a.594.594 0 00-.198-.36l-.327.378zm-.06-.023c.022 0 .044.009.06.023l.328-.378a.595.595 0 00-.385-.145l-.004.5zm-.034.007a.086.086 0 01.033-.007l.003-.5a.587.587 0 00-.227.045l.19.462zm-.03.02a.09.09 0 01.03-.02l-.19-.462a.59.59 0 00-.193.128l.353.353zm-.02.029a.09.09 0 01.02-.03l-.353-.353a.59.59 0 00-.129.192l.463.19zm-.006.034c0-.012.002-.023.007-.034l-.463-.19a.587.587 0 00-.044.227l.5-.003zm0 3.9v-3.899h-.5v3.9h.5zm.01.04a.093.093 0 01-.01-.04l-.5.001c0 .09.021.178.06.258l.45-.219zm-.044-.063l-.004-.004-.354.353.004.004.354-.353zm.003.003l-.003-.003-.354.353.003.003.354-.353z"/>
</svg>
