<svg xmlns="http://www.w3.org/2000/svg" width="32" height="32" fill="none" viewBox="0 0 32 32">
  <g class="Minimize Icon">
    <g class="Union">
      <path fill="#fff" fill-rule="evenodd" d="M17.883 13.419l.006.007a.693.693 0 00.6.352l7.783.005.1-.008a.68.68 0 00.58-.676.69.69 0 00-.686-.685l-6.127-.002 8.474-8.475.063-.07a.695.695 0 00.157-.495.682.682 0 00-.72-.629.697.697 0 00-.47.22l-8.476 8.476-.003-6.127-.007-.1a.688.688 0 00-.938-.535.68.68 0 00-.42.631v7.799c0 .103.024.205.07.298l.008.008.006.006zm-3.923 4.898l-.007-.007a.69.69 0 00-.6-.353l-7.782-.004-.101.007a.679.679 0 00-.579.676.69.69 0 00.686.686l6.127.002-8.475 8.475-.063.07a.695.695 0 00-.156.495.682.682 0 00.719.628.697.697 0 00.47-.22l8.476-8.476.003 6.127.008.1a.688.688 0 00.938.535.681.681 0 00.42-.63l-.001-7.8a.685.685 0 00-.07-.298l-.007-.008-.006-.005z" clip-rule="evenodd"/>
      <path fill="#fff" d="M17.89 13.426l.217-.122-.017-.03-.024-.025-.177.177zm.113.15l.177-.176-.177.177zm.485.202v.25-.25zm7.784.005v.25h.019l-.02-.25zm.1-.008l.02.25.009-.001.009-.001-.037-.248zm.416-.23l.19.163-.19-.163zm.163-.446l-.25.002.25-.002zm-.685-.685l.001-.25h-.001v.25zm-6.127-.002l-.177-.177-.427.427h.604v-.25zm8.474-8.475l.177.177.006-.006.005-.005-.188-.166zm.063-.07l.187.166.006-.008-.193-.158zm-.074-.956l-.165.188.165-.188zm-.489-.168l.014.25-.014-.25zm-.47.22l.177.178.006-.007-.183-.17zm-8.476 8.476h-.25v.604l.427-.427-.177-.177zm-.003-6.127h.25V5.294l-.25.018zm-.007-.1l.249-.019v-.01l-.002-.009-.247.038zm-.23-.418l-.164.19.164-.19zm-.447-.167l.002-.25-.002.25zm-.63.42l-.232-.095.231.095zm-.052.261h.25v-.001l-.25.001zm.002 7.799h-.25.25zm.069.298l-.225.11.018.037.03.03.177-.177zm-3.916 4.905l-.218.122.017.03.024.025.177-.177zm.007.007l.177-.177-.177.177zm-.12-.158l-.178.176.177-.176zm-.486-.202v-.25.25zm-7.783-.004v-.25h-.02l.02.25zm-.101.007l-.02-.249h-.008l-.01.002.038.247zm-.416.23l-.19-.162.19.163zm-.163.446l.25-.001v-.001l-.25.002zm.202.484l-.177.177.176-.177zm.484.202l-.002.25h.001v-.25zm6.127.002l.176.176.427-.426h-.603v.25zm-8.475 8.475l-.177-.177-.005.005-.005.006.187.166zm-.063.07l-.187-.166-.006.007.193.159zm-.156.495l.25-.02-.25.02zm.23.46l.165-.187-.164.188zm.489.168l-.014-.25.014.25zm.47-.22l-.177-.177-.005.006.182.17zm8.476-8.476h.25v-.603l-.427.426.177.177zm.003 6.127h-.25v.019l.25-.019zm.008.1l-.25.02.001.009.002.01.247-.038zm.23.418l-.164.19.164-.19zm.447.168l-.002.25.002-.25zm.26-.05l-.095-.232.095.231zm.222-.149l.177.177-.177-.177zm.148-.222l.231.096-.23-.096zm.051-.26h-.25.25zm-.001-7.8h.25-.25zm-.07-.298l.225-.11-.018-.037-.03-.03-.176.177zm-.007-.008l.177-.176-.177.176zm4.1-5.073l-.007-.007-.353.354.006.006.354-.353zm.114.151a.44.44 0 01-.073-.096l-.436.243a.943.943 0 00.155.206l.354-.353zm.309.128a.435.435 0 01-.309-.128l-.354.353a.935.935 0 00.662.275v-.5zm7.783.005l-7.783-.005v.5l7.783.005v-.5zm.082-.007l-.101.008.038.498.1-.008-.037-.498zm.244-.143a.429.429 0 01-.262.145l.074.495a.929.929 0 00.568-.315l-.38-.325zm.103-.281a.428.428 0 01-.103.28l.38.326a.927.927 0 00.223-.61l-.5.003zm-.128-.31a.44.44 0 01.128.309l.5-.003a.94.94 0 00-.274-.66l-.354.354zm-.309-.128a.44.44 0 01.31.128l.353-.353a.939.939 0 00-.66-.275l-.003.5zm-6.125-.002l6.127.002v-.5l-6.127-.002v.5zm8.298-8.902l-8.475 8.475.354.354 8.474-8.475-.353-.354zm.052-.06l-.062.071.373.332.063-.07-.374-.332zm.094-.309a.445.445 0 01-.1.317l.386.317a.945.945 0 00.213-.673l-.499.04zm-.146-.292a.432.432 0 01.146.292l.499-.039a.932.932 0 00-.316-.63l-.329.377zm-.31-.106a.434.434 0 01.31.106l.33-.377a.934.934 0 00-.667-.228l.027.499zm-.301.141a.447.447 0 01.301-.141l-.027-.5a.947.947 0 00-.64.3l.366.341zm-8.482 8.482l8.476-8.475-.354-.354-8.475 8.475.353.354zm-.43-6.304l.003 6.127h.5l-.003-6.127h-.5zm-.007-.082l.008.1.498-.036-.007-.1-.499.036zm-.144-.247c.079.068.13.163.146.266l.495-.075a.938.938 0 00-.314-.569l-.327.378zm-.285-.106a.44.44 0 01.285.106l.327-.378a.94.94 0 00-.608-.228l-.004.5zm-.164.032a.425.425 0 01.164-.032l.003-.5a.925.925 0 00-.357.07l.19.462zm-.14.093a.43.43 0 01.14-.093l-.19-.463a.93.93 0 00-.304.203l.354.353zm-.094.14a.43.43 0 01.094-.14l-.354-.353a.93.93 0 00-.202.303l.462.19zm-.032.165c0-.056.01-.112.032-.165l-.462-.19a.924.924 0 00-.07.358l.5-.003zm.002 7.8l-.002-7.799h-.5l.002 7.799h.5zm.043.189a.435.435 0 01-.043-.19l-.5.001c0 .142.032.28.094.408l.45-.22zm-.04-.06l-.008-.008-.353.354.008.008.353-.354zm.006.006l-.006-.006-.353.354.006.006.353-.354zm-4.283 5.245l.007.006.354-.353-.007-.007-.354.354zm-.114-.152a.445.445 0 01.073.097l.437-.244a.938.938 0 00-.156-.206l-.354.353zm-.309-.128c.117 0 .228.047.309.128l.354-.353a.936.936 0 00-.662-.275v.5zm-7.783-.004l7.784.004v-.5l-7.783-.004v.5zm-.081.007l.1-.008-.038-.499-.1.008.038.499zm-.245.143a.43.43 0 01.262-.145l-.073-.495a.929.929 0 00-.569.315l.38.325zm-.103.281c0-.102.036-.202.103-.281l-.38-.325a.927.927 0 00-.223.61l.5-.004zm.128.31a.44.44 0 01-.128-.31l-.5.003a.94.94 0 00.275.66l.353-.354zm.309.128a.44.44 0 01-.309-.129l-.353.354a.94.94 0 00.66.275l.002-.5zm6.126.002l-6.127-.002v.5l6.127.002v-.5zm-8.298 8.901L11.88 19.5l-.353-.353-8.475 8.475.354.353zm-.053.06l.063-.07-.374-.332-.062.07.373.332zm-.094.31a.445.445 0 01.1-.317l-.386-.318a.945.945 0 00-.212.673l.498-.039zm.146.292a.432.432 0 01-.146-.293l-.498.04c.019.242.132.468.315.63l.33-.377zm.31.106a.434.434 0 01-.31-.106l-.329.376c.184.16.423.242.667.229l-.028-.5zm.302-.142a.447.447 0 01-.302.142l.028.499a.947.947 0 00.64-.3l-.366-.34zm8.481-8.482l-8.475 8.476.353.354 8.476-8.476-.354-.354zm.43 6.304l-.003-6.127h-.5l.003 6.128h.5zm.007.082l-.007-.1-.5.037.008.1.499-.037zm.144.247a.438.438 0 01-.146-.266l-.495.075a.938.938 0 00.314.57l.327-.379zm.285.107a.44.44 0 01-.285-.107l-.327.378a.94.94 0 00.609.229l.003-.5zm.164-.032a.425.425 0 01-.164.032l-.003.5a.922.922 0 00.358-.07l-.19-.462zm.14-.094a.43.43 0 01-.14.094l.19.462a.93.93 0 00.304-.202l-.354-.354zm.094-.14a.429.429 0 01-.094.14l.354.354a.931.931 0 00.202-.303l-.462-.19zm.032-.164c0 .056-.01.112-.032.164l.462.19a.926.926 0 00.07-.357l-.5.003zm-.001-7.8l.001 7.798h.5l-.001-7.798h-.5zm-.044-.19a.437.437 0 01.044.19h.5a.937.937 0 00-.095-.408l-.45.219zm.04.06l.008.008.353-.354-.007-.007-.354.353zm-.006-.006l.006.006.354-.353-.006-.006-.354.353z"/>
    </g>
  </g>
</svg>
