<svg width="36" height="36" viewBox="0 0 36 36" fill="none" xmlns="http://www.w3.org/2000/svg">
<path d="M36 0H0V36H36V0Z" fill="white"/>
<path d="M36 0H0V36H36V0Z" fill="white"/>
<path d="M16.7507 7.00178C18.8905 6.7267 21.0644 7.07053 23.0149 7.99249C24.9655 8.91444 26.6109 10.3759 27.7566 12.204C28.9024 14.0321 29.5004 16.1503 29.4798 18.3076C29.4592 20.465 28.821 22.5711 27.6406 24.377L29.106 29.2391L24.1909 27.7665C22.7605 28.6635 21.1474 29.2285 19.4698 29.4196C17.7923 29.6107 16.0933 29.4231 14.4978 28.8708C12.9023 28.3184 11.4509 27.4153 10.2506 26.2279C9.05034 25.0404 8.13173 23.5991 7.56221 22.0096C6.99268 20.4202 6.78688 18.7233 6.9599 17.0438C7.13292 15.3643 7.68023 13.7449 8.56183 12.3049C9.44344 10.865 10.6368 9.64104 12.0539 8.72327C13.4711 7.8055 15.0761 7.21725 16.7507 7.00178V7.00178ZM16.5082 5.11071C14.5887 5.3584 12.7471 6.02531 11.114 7.06408C9.48097 8.10284 8.09638 9.48811 7.05839 11.1217C6.0204 12.7552 5.35451 14.5971 5.10773 16.5167C4.86095 18.4363 5.03936 20.3866 5.63042 22.2296C6.22148 24.0726 7.21076 25.7632 8.52797 27.1812C9.84518 28.5993 11.4582 29.7101 13.2526 30.4352C15.0471 31.1604 16.9789 31.482 18.9115 31.3772C20.8441 31.2724 22.7301 30.7439 24.4357 29.829L28.5585 31.0647L30.6761 31.6998C30.8005 31.7371 30.9329 31.7402 31.0587 31.7084C31.1846 31.6765 31.2994 31.6112 31.3912 31.5194C31.4829 31.4275 31.548 31.3123 31.5796 31.1864C31.6113 31.0605 31.6085 30.9284 31.5711 30.8041L30.9357 28.6865L29.7148 24.6344C30.9069 22.501 31.4831 20.0783 31.3793 17.6365C31.2755 15.1948 30.4958 12.8298 29.1269 10.8052C27.7581 8.78064 25.8538 7.17593 23.6265 6.16992C21.3993 5.1639 18.9363 4.79617 16.5123 5.1076L16.5082 5.11071Z" fill="#233AD4"/>
<path d="M17.4361 19.5154C17.7759 18.9386 18.1755 18.3991 18.6283 17.9059C18.9407 17.569 19.2238 17.2064 19.4751 16.8218C19.6568 16.5212 19.7499 16.1756 19.744 15.8245C19.7552 15.5904 19.7156 15.3566 19.6271 15.1397C19.5386 14.9228 19.4034 14.728 19.2316 14.5687C18.8508 14.2474 18.3623 14.0824 17.8647 14.107C17.349 14.099 16.8425 14.2446 16.4098 14.5252C15.9667 14.8262 15.6006 15.2269 15.3406 15.6952L13.2344 14.1726C13.6848 13.2957 14.3687 12.5599 15.2104 12.0465C16.1056 11.5281 17.1273 11.2683 18.1614 11.2958C19.3249 11.2384 20.4682 11.6128 21.3725 12.3471C21.7793 12.7125 22.0994 13.1645 22.3088 13.6696C22.5182 14.1747 22.6118 14.7203 22.5828 15.2664C22.5928 15.7913 22.5131 16.314 22.3476 16.8122C22.2133 17.2141 22.0199 17.5938 21.7737 17.9388C21.5471 18.2465 21.2543 18.5995 20.8943 18.9976C20.5468 19.3662 20.2323 19.7648 19.9549 20.1888C19.749 20.5438 19.6468 20.9495 19.6597 21.3598H17.0302C17.0059 20.7204 17.1459 20.0856 17.4361 19.5154V19.5154ZM17.1574 25.6641C17.002 25.5132 16.8792 25.332 16.797 25.1316C16.7149 24.9312 16.6754 24.7158 16.6802 24.4993C16.6747 24.2866 16.7135 24.0751 16.7945 23.8783C16.8754 23.6816 16.9966 23.5039 17.1502 23.3567C17.4803 23.0611 17.9076 22.8979 18.3506 22.8979C18.7937 22.8979 19.2215 23.0611 19.5516 23.3567C19.7052 23.504 19.8262 23.6816 19.9073 23.8783C19.9885 24.075 20.0277 24.2866 20.0226 24.4993C20.027 24.7158 19.9866 24.9309 19.9042 25.1313C19.8219 25.3317 19.6993 25.5131 19.5439 25.6641C19.2217 25.9693 18.7949 26.1392 18.3512 26.1392C17.9074 26.1392 17.4806 25.9693 17.1584 25.6641H17.1574Z" fill="#233AD4"/>
<path d="M16.7507 7.00178C18.8905 6.7267 21.0644 7.07053 23.0149 7.99249C24.9655 8.91444 26.6109 10.3759 27.7566 12.204C28.9024 14.0321 29.5004 16.1503 29.4798 18.3076C29.4592 20.465 28.821 22.5711 27.6406 24.377L29.106 29.2391L24.1909 27.7665C22.7605 28.6635 21.1474 29.2285 19.4698 29.4196C17.7923 29.6107 16.0933 29.4231 14.4978 28.8708C12.9023 28.3184 11.4509 27.4153 10.2506 26.2279C9.05034 25.0404 8.13173 23.5991 7.56221 22.0096C6.99268 20.4202 6.78688 18.7233 6.9599 17.0438C7.13292 15.3643 7.68023 13.7449 8.56183 12.3049C9.44344 10.865 10.6368 9.64104 12.0539 8.72327C13.4711 7.8055 15.0761 7.21725 16.7507 7.00178V7.00178ZM16.5082 5.11071C14.5887 5.3584 12.7471 6.02531 11.114 7.06408C9.48097 8.10284 8.09638 9.48811 7.05839 11.1217C6.0204 12.7552 5.35451 14.5971 5.10773 16.5167C4.86095 18.4363 5.03936 20.3866 5.63042 22.2296C6.22148 24.0726 7.21076 25.7632 8.52797 27.1812C9.84518 28.5993 11.4582 29.7101 13.2526 30.4352C15.0471 31.1604 16.9789 31.482 18.9115 31.3772C20.8441 31.2724 22.7301 30.7439 24.4357 29.829L28.5585 31.0647L30.6761 31.6998C30.8005 31.7371 30.9329 31.7402 31.0587 31.7084C31.1846 31.6765 31.2994 31.6112 31.3912 31.5194C31.4829 31.4275 31.548 31.3123 31.5796 31.1864C31.6113 31.0605 31.6085 30.9284 31.5711 30.8041L30.9357 28.6865L29.7148 24.6344C30.9069 22.501 31.4831 20.0783 31.3793 17.6365C31.2755 15.1948 30.4958 12.8298 29.1269 10.8052C27.7581 8.78064 25.8538 7.17593 23.6265 6.16992C21.3993 5.1639 18.9363 4.79617 16.5123 5.1076L16.5082 5.11071Z" fill="#233AD4"/>
<path d="M17.4361 19.5154C17.7759 18.9386 18.1755 18.3991 18.6283 17.9059C18.9407 17.569 19.2238 17.2064 19.4751 16.8218C19.6568 16.5212 19.7499 16.1756 19.744 15.8245C19.7552 15.5904 19.7156 15.3566 19.6271 15.1397C19.5386 14.9228 19.4034 14.728 19.2316 14.5687C18.8508 14.2474 18.3623 14.0824 17.8647 14.107C17.349 14.099 16.8425 14.2446 16.4098 14.5252C15.9667 14.8262 15.6006 15.2269 15.3406 15.6952L13.2344 14.1726C13.6848 13.2957 14.3687 12.5599 15.2104 12.0465C16.1056 11.5281 17.1273 11.2683 18.1614 11.2958C19.3249 11.2384 20.4682 11.6128 21.3725 12.3471C21.7793 12.7125 22.0994 13.1645 22.3088 13.6696C22.5182 14.1747 22.6118 14.7203 22.5828 15.2664C22.5928 15.7913 22.5131 16.314 22.3476 16.8122C22.2133 17.2141 22.0199 17.5938 21.7737 17.9388C21.5471 18.2465 21.2543 18.5995 20.8943 18.9976C20.5468 19.3662 20.2323 19.7648 19.9549 20.1888C19.749 20.5438 19.6468 20.9495 19.6597 21.3598H17.0302C17.0059 20.7204 17.1459 20.0856 17.4361 19.5154V19.5154ZM17.1574 25.6641C17.002 25.5132 16.8792 25.332 16.797 25.1316C16.7149 24.9312 16.6754 24.7158 16.6802 24.4993C16.6747 24.2866 16.7135 24.0751 16.7945 23.8783C16.8754 23.6816 16.9966 23.5039 17.1502 23.3567C17.4803 23.0611 17.9076 22.8979 18.3506 22.8979C18.7937 22.8979 19.2215 23.0611 19.5516 23.3567C19.7052 23.504 19.8262 23.6816 19.9073 23.8783C19.9885 24.075 20.0277 24.2866 20.0226 24.4993C20.027 24.7158 19.9866 24.9309 19.9042 25.1313C19.8219 25.3317 19.6993 25.5131 19.5439 25.6641C19.2217 25.9693 18.7949 26.1392 18.3512 26.1392C17.9074 26.1392 17.4806 25.9693 17.1584 25.6641H17.1574Z" fill="#233AD4"/>
</svg>
