<svg width="239" height="173" viewBox="0 0 239 173" fill="none" xmlns="http://www.w3.org/2000/svg">
<path d="M64.001 133.349C47.801 133.649 5.49104 138.429 1.26104 150.349C-3.99896 165.179 62.001 171.659 103.571 171.999C145.141 172.339 215.351 168.999 237.141 149.999C252.001 137.079 133.281 132.099 64.001 133.349Z" fill="#D6EBF8"/>
<path d="M121.89 119.349C122.42 115.349 125.89 112.349 129.61 110.879C133.33 109.409 137.46 109.299 141.44 108.879C145.42 108.459 149.57 107.569 152.67 105.029C158.43 100.299 158.72 91.6895 162.27 85.1495C163.169 83.5046 164.271 81.9793 165.55 80.6095C176.41 68.9995 195.37 63.8594 209.49 71.8194C211.41 72.7094 212.14 75.4995 210.68 76.8195C207.58 79.8195 202.3 79.0095 198.89 81.9795C198.502 82.3426 198.21 82.7961 198.04 83.2995C199.91 91.9695 195.04 98.2095 185.93 95.6095C185.044 95.6691 184.169 95.8474 183.33 96.1395C181.964 96.6649 180.765 97.5493 179.86 98.6994C178.926 99.8624 178.168 101.156 177.61 102.539C176.47 105.249 175.81 108.179 174.34 110.739C170.34 117.739 161.53 120.199 153.52 120.999C145.51 121.799 137.01 121.669 130.06 125.719C127.83 127.019 125.78 128.719 123.29 129.409C120.8 130.099 117.61 129.189 116.82 126.739C117.23 126.159 117.65 125.589 118.07 125.009" fill="#63B78B"/>
<path d="M144 108.77V108.53C157.84 110.76 165.81 99.5298 173.51 88.6698L175.51 85.8698C179.239 80.8824 184.695 77.4661 190.81 76.2898C193.724 75.6519 196.714 75.4297 199.69 75.6298V75.8698C199.53 75.8698 184.11 74.3698 175.69 86.0198C175.03 86.9398 174.36 87.8698 173.69 88.8098C166 99.7298 158 111 144 108.77Z" fill="#1F264C"/>
<path d="M141.26 73.0001C142.03 67.0001 144.87 61.0601 150.01 58.0001C155.15 54.9401 162.74 55.6701 166.14 60.6201C167.85 54.7201 169.73 48.5401 174.14 44.2601C178.55 39.9801 186.36 38.5501 190.7 42.9001C191.587 43.8395 192.258 44.9622 192.664 46.189C193.07 47.4158 193.201 48.7167 193.05 50.0001C192.943 51.3097 192.567 52.5833 191.946 53.7412C191.325 54.8991 190.472 55.9166 189.44 56.7301C189.88 54.6201 192.64 54.5001 194.1 55.5101C194.525 55.8276 194.879 56.2313 195.137 56.6949C195.396 57.1585 195.553 57.6714 195.6 58.2001C195.662 59.3002 195.435 60.3975 194.94 61.3821C194.445 62.3667 193.7 63.2039 192.78 63.8101C188.04 66.2401 182.06 66.6101 179.71 72.1001C176.25 80.5601 172.66 88.5601 167.2 95.8001C166.353 97.0201 165.48 98.2267 164.58 99.4201C163.67 100.6 162.74 101.76 161.77 102.89C159.18 105.89 156.21 108.83 152.44 110.06C147.94 111.54 142.79 110.44 138.51 112.45C131.71 115.64 129.33 125.51 122.03 127.23C116.74 128.49 111.59 123.92 110.51 118.94C108.98 111.84 115.16 106.22 120.92 103.33C126.37 100.6 132.42 99.7901 136.65 94.8501C138.028 93.2237 139.05 91.3261 139.65 89.2801C141.22 84.1401 140.56 78.3701 141.26 73.0001Z" fill="#4FA87B"/>
<path d="M122.609 116.65C122.609 116.55 126.919 107.13 144.609 100.95C157.229 96.53 162.239 83.44 165.899 73.88C167.389 69.99 168.679 66.63 170.169 64.66C175.239 57.92 185.899 55 185.999 55L186.069 55.23C185.959 55.23 175.379 58.15 170.329 64.81C168.859 66.81 167.579 70.1 166.099 73.97C162.419 83.58 157.379 96.73 144.659 101.19C127.099 107.34 122.869 116.66 122.829 116.75L122.609 116.65Z" fill="#1F264C"/>
<path d="M144.691 101.16L144.551 100.96C152.931 95.1999 154.621 85.7399 154.551 78.8099C154.49 74.1289 153.77 69.4798 152.411 64.9999L152.631 64.9199C154.009 69.4204 154.743 74.0935 154.811 78.7999C154.861 85.7899 153.161 95.3399 144.691 101.16Z" fill="#1F264C"/>
<path d="M167.172 70.5397C168.567 68.22 170.441 66.225 172.669 64.6884C174.897 63.1517 177.428 62.1089 180.092 61.6297C182.525 61.1846 185.019 61.1846 187.452 61.6297V61.8697C185.048 61.4312 182.585 61.4312 180.182 61.8697C177.553 62.3423 175.056 63.371 172.857 64.8869C170.658 66.4028 168.808 68.371 167.432 70.6597L167.172 70.5397Z" fill="#1F264C"/>
<path d="M141.552 102.35L141.402 102.16C148.982 96.3797 150.232 90.2697 149.952 86.1597C149.757 83.4541 148.91 80.8361 147.482 78.5296L147.682 78.3896C149.129 80.7303 149.99 83.3853 150.192 86.1296C150.482 90.2996 149.222 96.5096 141.552 102.35Z" fill="#1F264C"/>
<path d="M172.8 90.1296L172.66 89.9296C179.6 84.8496 184.66 84.5396 187.66 85.1696C189.561 85.5087 191.308 86.4315 192.66 87.8096L192.47 87.9696C191.148 86.6418 189.453 85.7487 187.61 85.4096C184.66 84.7896 179.66 85.1096 172.8 90.1296Z" fill="#1F264C"/>
<path d="M151.671 62.9994C151.541 62.8501 151.459 62.6656 151.434 62.4693C151.409 62.2731 151.443 62.0738 151.531 61.8969C151.62 61.7199 151.758 61.5731 151.93 61.4751C152.102 61.3771 152.299 61.3323 152.497 61.3463C152.694 61.3603 152.883 61.4325 153.039 61.5537C153.195 61.675 153.312 61.8399 153.374 62.0276C153.437 62.2153 153.442 62.4173 153.39 62.6081C153.338 62.7989 153.23 62.9699 153.081 63.0994C152.88 63.273 152.619 63.36 152.355 63.3412C152.091 63.3225 151.845 63.1995 151.671 62.9994V62.9994ZM153.001 61.8894C152.868 61.7382 152.681 61.6459 152.48 61.6328C152.28 61.6197 152.082 61.6868 151.931 61.8194C151.78 61.952 151.687 62.1393 151.674 62.3399C151.661 62.5406 151.728 62.7382 151.861 62.8894C151.992 63.0416 152.179 63.1355 152.379 63.1505C152.58 63.1655 152.778 63.1004 152.931 62.9694C153.082 62.8348 153.174 62.646 153.187 62.4438C153.201 62.2416 153.133 62.0424 153.001 61.8894V61.8894Z" fill="#1F264C"/>
<path d="M193.712 89.3497C193.607 89.2311 193.54 89.0841 193.519 88.9274C193.498 88.7706 193.524 88.6111 193.593 88.469C193.663 88.3269 193.773 88.2086 193.909 88.1291C194.046 88.0495 194.203 88.0123 194.361 88.022C194.519 88.0318 194.67 88.0882 194.796 88.184C194.922 88.2798 195.017 88.4108 195.068 88.5604C195.12 88.71 195.126 88.8714 195.085 89.0244C195.045 89.1773 194.96 89.3149 194.842 89.4197C194.763 89.4894 194.671 89.5428 194.572 89.577C194.472 89.6112 194.367 89.6255 194.262 89.619C194.157 89.6125 194.055 89.5853 193.96 89.5391C193.866 89.4929 193.781 89.4286 193.712 89.3497ZM194.712 88.4497C194.607 88.3453 194.465 88.2867 194.317 88.2867C194.169 88.2867 194.027 88.3453 193.922 88.4497C193.816 88.5492 193.752 88.6862 193.745 88.8315C193.738 88.9769 193.788 89.1193 193.885 89.2284C193.981 89.3376 194.116 89.4051 194.261 89.4165C194.406 89.428 194.55 89.3825 194.662 89.2897C194.726 89.2423 194.779 89.1817 194.818 89.1121C194.857 89.0424 194.881 88.9651 194.887 88.8856C194.894 88.806 194.884 88.726 194.857 88.6508C194.83 88.5757 194.787 88.5071 194.732 88.4497H194.712Z" fill="#1F264C"/>
<path d="M145.301 77.2294C145.179 77.0918 145.1 76.921 145.075 76.7386C145.05 76.5562 145.08 76.3705 145.16 76.2049C145.241 76.0394 145.368 75.9014 145.527 75.8086C145.686 75.7157 145.869 75.6721 146.053 75.6834C146.237 75.6946 146.413 75.7601 146.56 75.8716C146.706 75.9831 146.816 76.1356 146.876 76.3097C146.936 76.4838 146.943 76.6718 146.895 76.8498C146.848 77.0277 146.749 77.1877 146.611 77.3094C146.427 77.472 146.185 77.5549 145.94 77.5399C145.694 77.5249 145.465 77.4133 145.301 77.2294V77.2294ZM146.511 76.1594C146.419 76.0609 146.3 75.9917 146.169 75.9601C146.038 75.9286 145.9 75.9362 145.773 75.9819C145.646 76.0277 145.536 76.1097 145.455 76.2177C145.374 76.3257 145.327 76.455 145.319 76.5897C145.311 76.7243 145.342 76.8584 145.41 76.9753C145.477 77.0922 145.577 77.1868 145.697 77.2474C145.818 77.308 145.954 77.332 146.088 77.3163C146.221 77.3007 146.348 77.2461 146.451 77.1594C146.523 77.0991 146.582 77.0248 146.624 76.9411C146.666 76.8574 146.691 76.7659 146.696 76.6723C146.702 76.5787 146.688 76.485 146.657 76.3968C146.625 76.3086 146.575 76.2279 146.511 76.1594V76.1594Z" fill="#1F264C"/>
<path d="M187.003 54.9395C186.869 54.7832 186.801 54.5807 186.814 54.3753C186.827 54.1698 186.92 53.9776 187.073 53.8395C187.188 53.7374 187.332 53.672 187.485 53.6515C187.638 53.6309 187.793 53.6562 187.932 53.7242C188.07 53.7921 188.186 53.8996 188.263 54.0331C188.341 54.1666 188.377 54.3201 188.367 54.4741C188.357 54.6281 188.302 54.7757 188.208 54.8983C188.114 55.0209 187.986 55.1129 187.84 55.1628C187.694 55.2126 187.537 55.218 187.388 55.1782C187.238 55.1385 187.105 55.0554 187.003 54.9395V54.9395ZM188.003 54.0795C187.953 54.0287 187.894 53.9883 187.829 53.9607C187.764 53.9331 187.693 53.9189 187.623 53.9189C187.552 53.9189 187.482 53.9331 187.416 53.9607C187.351 53.9883 187.292 54.0287 187.243 54.0795C187.17 54.1542 187.121 54.2486 187.102 54.351C187.083 54.4534 187.094 54.5592 187.134 54.6552C187.175 54.7512 187.243 54.8331 187.33 54.8906C187.417 54.9482 187.518 54.9789 187.623 54.9789C187.727 54.9789 187.829 54.9482 187.916 54.8906C188.002 54.8331 188.07 54.7512 188.111 54.6552C188.151 54.5592 188.163 54.4534 188.144 54.351C188.124 54.2486 188.075 54.1542 188.003 54.0795V54.0795Z" fill="#1F264C"/>
<path d="M188.461 62.6699C188.359 62.5541 188.293 62.4107 188.273 62.2578C188.252 62.1048 188.277 61.9492 188.345 61.8106C188.413 61.6721 188.521 61.5568 188.654 61.4793C188.788 61.4019 188.941 61.3658 189.095 61.3756C189.249 61.3854 189.397 61.4407 189.519 61.5344C189.642 61.6281 189.734 61.7561 189.784 61.9022C189.834 62.0482 189.839 62.2058 189.799 62.3549C189.76 62.504 189.676 62.638 189.561 62.7399C189.404 62.8738 189.202 62.9415 188.996 62.9284C188.791 62.9153 188.599 62.8226 188.461 62.6699V62.6699ZM189.461 61.7999C189.385 61.7238 189.289 61.6719 189.184 61.6506C189.079 61.6294 188.97 61.6398 188.871 61.6805C188.772 61.7212 188.688 61.7904 188.628 61.8793C188.569 61.9683 188.537 62.0729 188.537 62.1799C188.537 62.2869 188.569 62.3915 188.628 62.4804C188.688 62.5693 188.772 62.6386 188.871 62.6793C188.97 62.72 189.079 62.7304 189.184 62.7091C189.289 62.6879 189.385 62.6359 189.461 62.5599C189.557 62.4563 189.61 62.3194 189.608 62.1779C189.606 62.0363 189.55 61.9009 189.451 61.7999H189.461Z" fill="#1F264C"/>
<path d="M201.263 76.2202C201.139 76.1103 201.041 75.9754 200.973 75.8245C200.906 75.6736 200.871 75.5101 200.871 75.3448C200.871 75.1795 200.907 75.0161 200.975 74.8654C201.043 74.7147 201.142 74.5802 201.266 74.4706C201.389 74.3611 201.535 74.279 201.693 74.2298C201.851 74.1806 202.017 74.1654 202.181 74.1852C202.345 74.205 202.503 74.2594 202.645 74.3447C202.787 74.43 202.909 74.5444 203.003 74.6802C203.12 74.7922 203.213 74.9274 203.275 75.0772C203.338 75.227 203.368 75.3881 203.365 75.5503C203.361 75.7125 203.324 75.8722 203.256 76.0194C203.188 76.1665 203.09 76.2979 202.968 76.405C202.846 76.5122 202.703 76.5929 202.549 76.6419C202.394 76.691 202.231 76.7074 202.07 76.69C201.908 76.6726 201.752 76.6219 201.612 76.541C201.471 76.4601 201.349 76.3509 201.253 76.2202H201.263ZM202.833 74.8402C202.671 74.6559 202.443 74.5434 202.198 74.5275C201.953 74.5115 201.712 74.5935 201.528 74.7552C201.343 74.917 201.231 75.1454 201.215 75.3901C201.199 75.6349 201.281 75.8759 201.443 76.0602C201.604 76.2426 201.831 76.3542 202.074 76.371C202.317 76.3878 202.557 76.3086 202.743 76.1503C202.926 75.9868 203.038 75.7583 203.054 75.5136C203.071 75.2688 202.992 75.0272 202.833 74.8402V74.8402Z" fill="#1F264C"/>
<path d="M117.111 138.59C118.771 134.93 122.951 133 126.961 132.71C130.971 132.42 134.961 133.47 138.871 134.19C142.781 134.91 147.031 135.28 150.741 133.74C157.611 130.89 160.381 122.74 165.671 117.49C167.006 116.171 168.505 115.028 170.131 114.09C183.881 106.09 203.521 106.68 214.731 118.39C216.311 119.8 216.201 122.68 214.441 123.48C210.601 125.48 205.781 123.15 201.661 125.01C201.183 125.237 200.77 125.581 200.461 126.01C199.741 134.85 193.301 139.42 185.311 134.29C184.446 134.089 183.557 134.008 182.671 134.05C181.209 134.154 179.803 134.652 178.601 135.49C177.374 136.327 176.276 137.337 175.341 138.49C173.461 140.77 171.981 143.38 169.841 145.4C163.991 150.92 154.841 150.75 146.941 149.2C139.041 147.65 130.941 145.06 123.111 146.93C120.601 147.53 118.111 148.59 115.571 148.5C113.031 148.41 110.191 146.66 110.141 144.08L111.851 142.79" fill="#4FA87B"/>
<path d="M141.332 134.85L141.432 134.64C154.042 140.78 164.922 132.33 175.432 124.16C176.342 123.46 177.242 122.75 178.152 122.06C183.167 118.359 189.383 116.665 195.582 117.31C198.555 117.545 201.481 118.198 204.272 119.25L204.172 119.47C204.032 119.41 189.692 113.53 178.302 122.25C177.392 122.94 176.492 123.65 175.582 124.35C165.002 132.56 154.072 141.06 141.332 134.85Z" fill="#1F264C"/>
<path d="M149.052 99.8401C151.512 94.3601 156.002 89.4501 161.782 88.0001C167.562 86.5501 174.642 89.4501 176.472 95.1701C179.812 90.0101 183.402 84.6401 188.862 81.8201C194.322 79.0001 202.202 79.8901 205.102 85.3101C205.679 86.4666 205.997 87.7357 206.031 89.0279C206.066 90.3202 205.817 91.6044 205.302 92.7901C204.819 94.0121 204.089 95.1214 203.158 96.0488C202.227 96.9762 201.116 97.7017 199.892 98.1801C200.892 96.2901 203.602 96.9701 204.712 98.3601C205.025 98.7863 205.245 99.2738 205.357 99.7908C205.469 100.308 205.471 100.842 205.362 101.36C205.105 102.431 204.57 103.416 203.812 104.214C203.053 105.013 202.098 105.598 201.042 105.91C195.802 106.91 189.982 105.49 186.142 110.06C180.382 117.16 174.632 123.78 167.302 129.13C166.142 130.06 164.952 130.96 163.752 131.84C162.552 132.72 161.312 133.55 160.062 134.35C156.712 136.49 153.062 138.43 149.062 138.52C144.322 138.62 139.722 136.09 135.062 136.77C127.632 137.86 122.512 146.62 115.012 146.16C109.582 145.83 106.012 139.97 106.382 134.89C106.972 127.64 114.512 124.05 120.872 122.95C126.872 121.95 132.872 122.89 138.382 119.38C140.17 118.223 141.697 116.704 142.862 114.92C145.802 110.48 146.842 104.76 149.052 99.8401Z" fill="#63B78B"/>
<path d="M118.582 136.21C118.652 136.13 125.462 128.35 144.152 127.54C157.512 126.96 166.102 115.87 172.372 107.78C174.922 104.49 177.122 101.64 179.122 100.19C185.952 95.1901 196.992 95.5201 197.122 95.5201V95.7601C197.012 95.7601 186.042 95.4601 179.282 100.38C177.282 101.82 175.122 104.65 172.582 107.93C166.282 116.06 157.652 127.19 144.182 127.78C125.602 128.58 118.852 136.29 118.792 136.37L118.582 136.21Z" fill="#1F264C"/>
<path d="M144.201 127.769L144.121 127.539C153.811 124.449 158.121 115.879 160.121 109.229C161.394 104.731 162.027 100.075 162.001 95.3994H162.241C162.26 100.104 161.61 104.788 160.311 109.309C158.391 115.999 154.001 124.649 144.201 127.769Z" fill="#1F264C"/>
<path d="M174.582 105C176.589 103.183 178.961 101.815 181.539 100.989C184.118 100.163 186.843 99.8974 189.532 100.21C191.99 100.472 194.379 101.18 196.582 102.3L196.462 102.51C194.273 101.404 191.901 100.706 189.462 100.45C186.808 100.142 184.12 100.405 181.576 101.221C179.032 102.037 176.692 103.387 174.712 105.18L174.582 105Z" fill="#1F264C"/>
<path d="M140.852 128L140.762 127.77C149.692 124.44 152.662 118.95 153.572 114.92C154.168 112.28 154.116 109.535 153.422 106.92L153.652 106.85C154.364 109.51 154.418 112.303 153.812 114.99C152.892 119.05 149.892 124.63 140.852 128Z" fill="#1F264C"/>
<path d="M174.303 125.34L174.223 125.11C182.343 122.26 187.283 123.43 190.003 124.91C191.72 125.794 193.119 127.192 194.003 128.91L193.773 129C192.891 127.346 191.528 126 189.863 125.14C187.193 123.66 182.323 122.52 174.303 125.34Z" fill="#1F264C"/>
<path d="M161.9 93.2998C161.792 93.0584 161.784 92.7839 161.877 92.5365C161.971 92.2891 162.159 92.0889 162.4 91.9798C162.641 91.8697 162.917 91.8601 163.165 91.9529C163.414 92.0457 163.615 92.2335 163.725 92.4748C163.835 92.7162 163.845 92.9913 163.752 93.2398C163.659 93.4883 163.471 93.6897 163.23 93.7998C163.11 93.855 162.98 93.8857 162.848 93.8904C162.716 93.8951 162.584 93.8736 162.461 93.8271C162.337 93.7806 162.224 93.7101 162.128 93.6196C162.031 93.5291 161.954 93.4204 161.9 93.2998V93.2998ZM163.5 92.5798C163.406 92.4158 163.255 92.2926 163.075 92.2342C162.896 92.1757 162.701 92.1862 162.529 92.2636C162.356 92.341 162.219 92.4797 162.144 92.6528C162.068 92.8259 162.06 93.0209 162.12 93.1998C162.205 93.3804 162.357 93.5209 162.543 93.5918C162.73 93.6627 162.937 93.6584 163.12 93.5798C163.211 93.5398 163.293 93.482 163.362 93.4098C163.431 93.3377 163.484 93.2526 163.52 93.1595C163.555 93.0664 163.571 92.9672 163.568 92.8677C163.565 92.7681 163.542 92.6703 163.5 92.5798V92.5798Z" fill="#1F264C"/>
<path d="M194.543 130.64C194.49 130.542 194.458 130.435 194.448 130.325C194.439 130.214 194.452 130.103 194.488 129.998C194.524 129.893 194.581 129.797 194.656 129.716C194.731 129.634 194.823 129.569 194.924 129.524C195.026 129.48 195.135 129.457 195.246 129.457C195.357 129.457 195.467 129.48 195.568 129.525C195.669 129.57 195.76 129.635 195.835 129.717C195.91 129.798 195.967 129.895 196.003 130C196.048 130.095 196.073 130.199 196.077 130.305C196.081 130.41 196.064 130.515 196.027 130.614C195.99 130.713 195.933 130.804 195.86 130.88C195.787 130.957 195.7 131.018 195.603 131.06C195.406 131.144 195.185 131.147 194.986 131.068C194.788 130.989 194.628 130.835 194.543 130.64V130.64ZM195.783 130.08C195.737 129.979 195.663 129.893 195.569 129.835C195.475 129.776 195.366 129.746 195.255 129.75C195.144 129.753 195.037 129.789 194.947 129.854C194.857 129.918 194.788 130.008 194.748 130.111C194.709 130.215 194.702 130.328 194.727 130.436C194.752 130.544 194.808 130.642 194.889 130.718C194.97 130.794 195.071 130.844 195.18 130.862C195.29 130.88 195.402 130.865 195.503 130.82C195.638 130.759 195.743 130.646 195.796 130.508C195.848 130.369 195.844 130.215 195.783 130.08V130.08Z" fill="#1F264C"/>
<path d="M151.701 105C151.625 104.832 151.6 104.646 151.629 104.464C151.659 104.282 151.741 104.114 151.867 103.979C151.992 103.844 152.155 103.75 152.334 103.707C152.513 103.665 152.701 103.677 152.873 103.742C153.045 103.806 153.195 103.92 153.302 104.07C153.41 104.219 153.47 104.397 153.477 104.581C153.483 104.765 153.434 104.947 153.337 105.103C153.24 105.259 153.099 105.383 152.931 105.46C152.707 105.561 152.452 105.57 152.221 105.484C151.991 105.397 151.804 105.223 151.701 105V105ZM153.171 104.33C153.136 104.247 153.084 104.173 153.019 104.111C152.954 104.049 152.877 104.001 152.793 103.969C152.71 103.937 152.62 103.923 152.53 103.926C152.441 103.93 152.353 103.951 152.271 103.99C152.105 104.064 151.974 104.201 151.908 104.372C151.843 104.543 151.847 104.732 151.921 104.9C152 105.063 152.138 105.19 152.308 105.253C152.478 105.316 152.665 105.312 152.831 105.24C152.989 105.165 153.111 105.034 153.175 104.872C153.238 104.71 153.237 104.531 153.171 104.37V104.33Z" fill="#1F264C"/>
<path d="M198.06 95.7595C197.988 95.5735 197.991 95.3671 198.066 95.1827C198.142 94.9984 198.286 94.85 198.467 94.7681C198.649 94.6862 198.855 94.677 199.044 94.7423C199.232 94.8077 199.388 94.9426 199.48 95.1195C199.529 95.2136 199.558 95.3168 199.566 95.4226C199.573 95.5284 199.559 95.6347 199.525 95.7349C199.49 95.8352 199.435 95.9272 199.363 96.0056C199.292 96.0839 199.205 96.1467 199.108 96.1903C199.012 96.2339 198.907 96.2573 198.801 96.2591C198.695 96.2609 198.589 96.241 198.491 96.2007C198.393 96.1603 198.304 96.1004 198.23 96.0246C198.156 95.9487 198.098 95.8585 198.06 95.7595V95.7595ZM199.26 95.2195C199.217 95.1216 199.145 95.0388 199.055 94.9816C198.964 94.9244 198.859 94.8954 198.752 94.8982C198.645 94.9011 198.541 94.9357 198.454 94.9976C198.366 95.0595 198.299 95.146 198.261 95.2461C198.223 95.3461 198.216 95.4553 198.24 95.5596C198.264 95.6639 198.319 95.7586 198.397 95.8319C198.475 95.9051 198.573 95.9535 198.678 95.9709C198.784 95.9883 198.892 95.9738 198.99 95.9295C199.119 95.8705 199.22 95.7629 199.271 95.63C199.321 95.497 199.317 95.3495 199.26 95.2195V95.2195Z" fill="#1F264C"/>
<path d="M197.232 103.58C197.16 103.394 197.162 103.187 197.238 103.003C197.314 102.819 197.457 102.67 197.639 102.588C197.821 102.507 198.027 102.497 198.215 102.563C198.404 102.628 198.56 102.763 198.652 102.94C198.701 103.034 198.73 103.137 198.738 103.243C198.745 103.349 198.731 103.455 198.697 103.555C198.662 103.655 198.607 103.748 198.535 103.826C198.464 103.904 198.377 103.967 198.28 104.011C198.183 104.054 198.079 104.078 197.973 104.079C197.867 104.081 197.761 104.061 197.663 104.021C197.565 103.981 197.476 103.921 197.402 103.845C197.328 103.769 197.27 103.679 197.232 103.58V103.58ZM198.432 103.04C198.373 102.907 198.265 102.803 198.13 102.751C197.995 102.698 197.844 102.701 197.712 102.76C197.579 102.818 197.475 102.927 197.423 103.062C197.37 103.197 197.373 103.347 197.432 103.48C197.49 103.612 197.599 103.716 197.734 103.769C197.869 103.821 198.019 103.818 198.152 103.76C198.284 103.701 198.388 103.593 198.441 103.458C198.493 103.323 198.49 103.172 198.432 103.04V103.04Z" fill="#1F264C"/>
<path d="M205.562 120.26C205.466 120.05 205.435 119.815 205.472 119.587C205.51 119.359 205.614 119.146 205.772 118.977C205.93 118.808 206.134 118.689 206.359 118.637C206.584 118.584 206.82 118.599 207.037 118.68C207.254 118.761 207.442 118.904 207.577 119.092C207.712 119.28 207.788 119.504 207.796 119.735C207.804 119.966 207.744 120.195 207.622 120.391C207.5 120.588 207.323 120.744 207.112 120.84C206.829 120.966 206.508 120.976 206.218 120.867C205.928 120.759 205.693 120.541 205.562 120.26V120.26ZM207.472 119.39C207.396 119.223 207.272 119.081 207.116 118.984C206.959 118.887 206.778 118.839 206.594 118.845C206.41 118.851 206.232 118.912 206.082 119.019C205.933 119.127 205.819 119.276 205.754 119.449C205.69 119.621 205.678 119.809 205.72 119.988C205.762 120.167 205.857 120.33 205.991 120.455C206.126 120.58 206.295 120.663 206.477 120.693C206.658 120.722 206.845 120.697 207.012 120.62C207.236 120.518 207.41 120.331 207.496 120.1C207.583 119.87 207.574 119.614 207.472 119.39V119.39Z" fill="#1F264C"/>
<path d="M46.902 138.649C46.7092 139.298 46.6547 139.979 46.742 140.649C46.8434 141.257 47.0981 141.828 47.482 142.309C46.8383 142.072 46.2666 141.672 45.822 141.149C45.4775 140.767 45.212 140.32 45.0404 139.834C44.8688 139.348 44.7946 138.834 44.822 138.319C44.992 137.039 46.062 136.409 46.502 136.789C46.942 137.169 47.002 137.999 46.902 138.649Z" fill="#1D3B4C"/>
<path d="M53.3703 141C53.1721 141.647 53.1142 142.329 53.2003 143C53.3091 143.605 53.563 144.175 53.9403 144.66C53.2966 144.422 52.725 144.023 52.2803 143.5C51.9331 143.119 51.6657 142.672 51.494 142.186C51.3222 141.7 51.2496 141.185 51.2803 140.67C51.4503 139.39 52.5103 138.76 52.9503 139.14C53.1607 139.396 53.3083 139.697 53.3812 140.02C53.4542 140.343 53.4504 140.679 53.3703 141V141Z" fill="#1D3B4C"/>
<path d="M59.9406 143.92C59.7424 144.567 59.6845 145.249 59.7706 145.92C59.8794 146.525 60.1333 147.095 60.5106 147.58C59.8669 147.342 59.2953 146.943 58.8506 146.42C58.5034 146.039 58.236 145.592 58.0643 145.106C57.8925 144.62 57.8199 144.105 57.8506 143.59C58.0206 142.31 59.0806 141.68 59.5206 142.06C59.731 142.316 59.8786 142.617 59.9515 142.94C60.0245 143.263 60.0207 143.599 59.9406 143.92V143.92Z" fill="#1D3B4C"/>
<path d="M45.0011 144.719C45.2152 144.117 45.5562 143.568 46.0011 143.109C46.4147 142.722 46.9208 142.446 47.4711 142.309C46.8655 142.12 46.2207 142.092 45.6011 142.229C45.1353 142.319 44.692 142.5 44.2971 142.763C43.9022 143.026 43.5636 143.364 43.3011 143.759C42.7111 144.809 43.1511 145.859 43.6811 145.829C44.2111 145.799 44.6511 145.249 45.0011 144.719Z" fill="#1D3B4C"/>
<path d="M51.701 147.11C51.9134 146.507 52.2547 145.957 52.701 145.5C53.1147 145.112 53.6207 144.837 54.171 144.7C53.4119 144.469 52.5993 144.486 51.85 144.746C51.1007 145.007 50.4534 145.498 50.001 146.15C49.421 147.15 49.861 148.25 50.391 148.22C50.921 148.19 51.381 147.64 51.701 147.11Z" fill="#1D3B4C"/>
<path d="M40.6314 139.08C40.6279 139.492 40.7204 139.9 40.9014 140.27C41.0665 140.595 41.3107 140.874 41.6114 141.08C41.2048 141.054 40.8104 140.93 40.4613 140.72C39.9334 140.402 39.5525 139.888 39.4014 139.29C39.2814 138.54 39.7714 137.99 40.0814 138.13C40.3914 138.27 40.5514 138.69 40.6314 139.08Z" fill="#1D3B4C"/>
<path d="M39.5693 142.12C39.7877 141.773 40.0775 141.477 40.4193 141.25C40.7226 141.066 41.0653 140.956 41.4193 140.93C41.0627 140.739 40.664 140.639 40.2593 140.64C39.9549 140.634 39.6524 140.688 39.3691 140.8C39.0859 140.911 38.8276 141.078 38.6093 141.29C38.1093 141.87 38.2393 142.59 38.6093 142.65C38.9793 142.71 39.2993 142.41 39.5693 142.12Z" fill="#1D3B4C"/>
<path d="M54.5107 113.56C61.794 125.284 67.0319 138.161 70.0007 151.64H70.7807C67.6706 138.222 62.3514 125.414 55.0407 113.74C53.4007 111.12 51.6007 108 48.4707 107C48.4107 107 48.3907 107.07 48.4707 107.09C51.3007 108.17 53.0007 111.11 54.5107 113.56Z" fill="#1D3B4C"/>
<path d="M68.572 151.64C60.155 140.122 50.1296 129.871 38.802 121.2C38.692 121.11 38.532 121.31 38.652 121.4C49.754 130.042 59.5662 140.225 67.792 151.64H68.572Z" fill="#1D3B4C"/>
<path d="M53.8628 106.57C53.3537 107.119 52.9744 107.775 52.7528 108.49C52.5834 109.146 52.5834 109.834 52.7528 110.49C52.2293 109.963 51.8534 109.308 51.6628 108.59C51.5001 108.06 51.4455 107.503 51.5022 106.952C51.5589 106.4 51.7257 105.866 51.9928 105.38C52.7528 104.2 54.0728 104.08 54.3328 104.65C54.4021 104.985 54.3959 105.331 54.3146 105.663C54.2333 105.995 54.0789 106.305 53.8628 106.57Z" fill="#1D3B4C"/>
<path d="M52.1406 116.63C52.6665 116.112 53.3022 115.719 54.0006 115.48C54.6335 115.287 55.3056 115.263 55.9506 115.41C55.2787 114.773 54.4217 114.366 53.5032 114.247C52.5848 114.128 51.6524 114.305 50.8406 114.75C49.6906 115.53 49.5906 116.86 50.1706 117.11C50.7506 117.36 51.5206 117 52.1406 116.63Z" fill="#1D3B4C"/>
<path d="M54.7297 121C55.2717 120.49 55.916 120.101 56.6197 119.86C57.2686 119.661 57.9586 119.636 58.6197 119.79C58.0824 119.276 57.4208 118.911 56.6997 118.73C56.1685 118.578 55.6121 118.535 55.0639 118.604C54.5157 118.673 53.9871 118.852 53.5097 119.13C52.3497 119.91 52.2598 121.24 52.8298 121.49C53.1629 121.556 53.5068 121.547 53.8357 121.462C54.1646 121.377 54.4702 121.219 54.7297 121V121Z" fill="#1D3B4C"/>
<path d="M45.4825 131.26C46.0187 130.74 46.6645 130.347 47.3725 130.11C48.023 129.921 48.7104 129.897 49.3725 130.04C48.7006 129.403 47.8436 128.995 46.9251 128.877C46.0067 128.758 45.0743 128.934 44.2625 129.38C43.1125 130.16 43.0125 131.5 43.5925 131.74C44.1725 131.98 44.8625 131.64 45.4825 131.26Z" fill="#1D3B4C"/>
<path d="M40.752 127.079C41.2866 126.558 41.9329 126.164 42.642 125.929C43.2905 125.728 43.9811 125.704 44.642 125.859C43.9701 125.222 43.1131 124.815 42.1946 124.696C41.2762 124.578 40.3438 124.754 39.532 125.199C38.382 125.979 38.282 127.309 38.862 127.559C39.442 127.809 40.132 127.459 40.752 127.079Z" fill="#1D3B4C"/>
<path d="M57.4914 111.56C56.9055 112.022 56.4306 112.61 56.1014 113.28C55.8296 113.885 55.7094 114.548 55.7514 115.21C55.3292 114.618 55.0611 113.931 54.9714 113.21C54.8969 112.66 54.9327 112.101 55.077 111.565C55.2212 111.029 55.4709 110.528 55.8114 110.09C56.7414 109.09 58.0714 109.09 58.2314 109.74C58.3914 110.39 58.0014 111 57.4914 111.56Z" fill="#1D3B4C"/>
<path d="M61.2998 116.549C60.526 116.806 59.8353 117.265 59.2998 117.879C58.869 118.458 58.6311 119.158 58.6198 119.879C58.154 119.082 57.8929 118.182 57.8598 117.259C57.8094 116.658 57.9166 116.054 58.1709 115.507C58.4252 114.96 58.8177 114.489 59.3098 114.139C60.6498 113.379 62.3098 114.059 62.4898 114.799C62.6698 115.539 61.9998 116.139 61.2998 116.549Z" fill="#1D3B4C"/>
<path d="M65.3223 124.13C64.5105 124.253 63.7488 124.599 63.1223 125.13C62.6004 125.632 62.2504 126.287 62.1223 127C61.8007 126.131 61.6944 125.198 61.8123 124.28C61.8684 123.674 62.0827 123.094 62.4337 122.597C62.7848 122.1 63.2602 121.705 63.8123 121.45C65.2623 120.93 66.8123 121.88 66.8123 122.64C66.8123 123.4 66.0523 123.83 65.3223 124.13Z" fill="#1D3B4C"/>
<path d="M53.4294 129.4C52.8134 129.647 52.2772 130.059 51.8794 130.59C51.5617 131.087 51.4078 131.671 51.4394 132.26C51.0164 131.636 50.7521 130.919 50.6694 130.17C50.595 129.684 50.6481 129.187 50.8234 128.728C50.9987 128.269 51.2902 127.863 51.6694 127.55C52.6694 126.86 54.1394 127.31 54.2894 127.9C54.4394 128.49 53.9994 129 53.4294 129.4Z" fill="#1D3B4C"/>
<path d="M47.2503 108.34C47.5496 108.014 47.9142 107.755 48.3203 107.58C48.688 107.446 49.0821 107.402 49.4703 107.45C49.1285 107.173 48.7227 106.988 48.2903 106.91C47.969 106.844 47.6379 106.844 47.3166 106.909C46.9953 106.975 46.6905 107.104 46.4203 107.29C45.7703 107.8 45.7703 108.59 46.1203 108.71C46.3244 108.74 46.5328 108.722 46.7289 108.658C46.9251 108.594 47.1036 108.485 47.2503 108.34V108.34Z" fill="#1D3B4C"/>
<path d="M48.6898 105.12C48.6082 105.558 48.6253 106.009 48.7398 106.44C48.8518 106.819 49.0583 107.163 49.3398 107.44C48.8038 107.315 48.3213 107.023 47.9619 106.606C47.6025 106.189 47.3847 105.669 47.3398 105.12C47.3398 104.29 47.9798 103.81 48.2798 104.01C48.5798 104.21 48.6798 104.69 48.6898 105.12Z" fill="#1D3B4C"/>
<path d="M37.3398 122.82C37.6337 122.488 37.9998 122.228 38.4098 122.06C38.7749 121.915 39.1717 121.87 39.5598 121.93C39.1337 121.584 38.6098 121.382 38.0623 121.352C37.5148 121.321 36.9716 121.464 36.5098 121.76C35.8598 122.28 35.8698 123.07 36.2098 123.19C36.5498 123.31 36.9998 123.07 37.3398 122.82Z" fill="#1D3B4C"/>
<path d="M39.0812 119.57C38.9866 120.001 38.9866 120.448 39.0812 120.88C39.1622 121.266 39.3374 121.627 39.5912 121.93C39.1775 121.786 38.8038 121.546 38.5012 121.23C38.0411 120.752 37.7893 120.112 37.8012 119.45C37.8712 118.62 38.5412 118.19 38.8012 118.45C39.0612 118.71 39.1012 119.14 39.0812 119.57Z" fill="#1D3B4C"/>
<path d="M40.29 140.88C42.361 141.082 44.4115 141.456 46.42 142C50.0748 143.028 53.6452 144.335 57.1 145.91C58.8 146.65 60.52 147.39 62.2 148.2C62.9925 148.565 63.7579 148.986 64.49 149.46C65.4262 150.128 66.3181 150.856 67.16 151.64H66.37C64.7291 150.267 62.9255 149.102 61 148.17C54.42 145 47.59 141.74 40.25 140.94C40.25 140.93 40.26 140.87 40.29 140.88Z" fill="#1D3B4C"/>
<path d="M124.811 142.18C123.331 138.44 119.251 136.31 115.261 135.84C111.271 135.37 107.261 136.21 103.261 136.75C99.2611 137.29 95.0611 137.45 91.4311 135.75C84.6911 132.57 82.3211 124.29 77.2811 118.81C76.0117 117.429 74.5738 116.213 73.0011 115.19C59.6411 106.58 40.0011 106.19 28.2411 117.37C26.5911 118.71 26.5711 121.59 28.2411 122.48C31.9811 124.63 36.9111 122.55 40.9411 124.61C41.4058 124.864 41.7981 125.233 42.0811 125.68C42.3911 134.54 48.6011 139.41 56.8311 134.68C57.7048 134.52 58.5964 134.479 59.4811 134.56C60.9361 134.736 62.3174 135.299 63.4811 136.19C64.6696 137.094 65.7205 138.165 66.6011 139.37C68.3611 141.73 69.7211 144.37 71.7611 146.53C77.3511 152.33 86.5011 152.59 94.4611 151.41C102.421 150.23 110.631 148.03 118.371 150.28C120.841 150.99 123.251 152.16 125.821 152.2C128.391 152.24 131.291 150.61 131.461 148.04L129.811 146.67" fill="#63B78B"/>
<path d="M100.802 137.3L100.712 137.07C87.8319 142.61 77.3619 133.66 67.2419 125L64.6319 122.77C59.7979 118.841 53.6712 116.858 47.4519 117.21C44.4683 117.301 41.5125 117.813 38.6719 118.73L38.7619 118.96C38.9019 118.96 53.5019 113.7 64.4719 122.96C65.3419 123.69 66.2119 124.44 67.0819 125.18C77.2619 133.89 87.7819 142.89 100.802 137.3Z" fill="#1F264C"/>
<path d="M94.7392 102C92.5492 96.4201 88.3292 91.3001 82.5892 89.5501C76.8492 87.8001 69.6692 90.3901 67.5892 96.0201C64.4992 90.7201 61.1692 85.1801 55.8492 82.1101C50.5292 79.0401 42.5992 79.4901 39.4492 84.7701C38.8165 85.8973 38.4392 87.1498 38.3442 88.4389C38.2491 89.7281 38.4386 91.0224 38.8992 92.2301C39.3172 93.4697 39.9856 94.61 40.863 95.5802C41.7403 96.5505 42.8079 97.3299 43.9992 97.8701C43.0492 95.9401 40.3492 96.4901 39.1792 97.8701C38.8382 98.2832 38.591 98.7654 38.4546 99.2833C38.3182 99.8013 38.2959 100.343 38.3892 100.87C38.5936 101.953 39.0791 102.962 39.797 103.798C40.5149 104.633 41.4399 105.265 42.4792 105.63C47.6692 106.83 53.5592 105.73 57.1692 110.48C62.5992 117.85 68.0192 124.73 75.0892 130.42C76.2092 131.4 77.3492 132.357 78.5092 133.29C79.6692 134.223 80.8592 135.117 82.0792 135.97C85.3192 138.27 88.9092 140.38 92.8792 140.66C97.5992 140.99 102.319 138.66 106.969 139.58C114.339 141.01 119.049 150.01 126.549 149.9C131.989 149.83 135.879 144.15 135.709 139.05C135.459 131.79 128.099 127.85 121.799 126.45C115.799 125.13 109.799 125.82 104.479 122.05C102.747 120.811 101.293 119.223 100.209 117.39C97.4892 112.74 96.7192 107 94.7392 102Z" fill="#4FA87B"/>
<path d="M123.46 139.73C123.39 139.65 116.96 131.55 98.33 129.85C85 128.64 77 117.16 71.08 108.78C68.69 105.37 66.62 102.43 64.69 100.88C58.11 95.5901 47.06 95.3701 47 95.3701V95.6101C47.11 95.6101 58.07 95.8301 64.59 101.07C66.49 102.59 68.59 105.53 70.93 108.92C76.84 117.34 84.93 128.92 98.36 130.09C116.88 131.78 123.25 139.79 123.36 139.87L123.46 139.73Z" fill="#1F264C"/>
<path d="M98.2716 130.089L98.3616 129.859C88.8216 126.309 84.8816 117.539 83.2516 110.809C82.1795 106.255 81.7586 101.572 82.0016 96.8994H81.7616C81.5182 101.603 81.9459 106.317 83.0316 110.899C84.6616 117.659 88.6416 126.499 98.2716 130.089Z" fill="#1F264C"/>
<path d="M69.0023 105.859C67.0844 103.95 64.7807 102.473 62.2456 101.526C59.7104 100.579 57.0022 100.185 54.3023 100.369C51.8339 100.523 49.4125 101.115 47.1523 102.119L47.2623 102.339C49.4937 101.336 51.8899 100.75 54.3323 100.609C56.9935 100.425 59.6634 100.811 62.1638 101.74C64.6642 102.67 66.9376 104.122 68.8323 105.999L69.0023 105.859Z" fill="#1F264C"/>
<path d="M101.609 130.469L101.699 130.249C92.9393 126.499 90.2393 120.869 89.5093 116.809C89.0398 114.138 89.2251 111.393 90.0493 108.809L89.8193 108.729C88.9859 111.353 88.7973 114.138 89.2693 116.849C89.9993 120.999 92.7393 126.679 101.609 130.469Z" fill="#1F264C"/>
<path d="M68.3227 126.23L68.4127 126.01C60.4127 122.77 55.4127 123.7 52.6627 125.01C50.9071 125.799 49.4421 127.117 48.4727 128.78L48.6827 128.89C49.6483 127.282 51.0774 126.002 52.7827 125.22C55.5227 123.94 60.4427 123 68.3227 126.23Z" fill="#1F264C"/>
<path d="M80.8702 95.2496C80.6422 95.1244 80.472 94.9153 80.3956 94.6667C80.3193 94.418 80.3428 94.1494 80.4612 93.9178C80.5796 93.6863 80.7835 93.5099 81.0298 93.4262C81.2761 93.3425 81.5452 93.3581 81.7802 93.4696C81.9011 93.5269 82.0093 93.608 82.0983 93.7079C82.1873 93.8078 82.2553 93.9246 82.2984 94.0513C82.3414 94.178 82.3586 94.312 82.3489 94.4455C82.3392 94.5789 82.3029 94.7091 82.242 94.8283C82.181 94.9474 82.0968 95.0531 81.9943 95.1391C81.8918 95.2251 81.7731 95.2897 81.6452 95.329C81.5173 95.3683 81.3828 95.3815 81.2497 95.3678C81.1165 95.3542 80.9875 95.314 80.8702 95.2496ZM81.0002 94.9996C81.1342 95.0705 81.2864 95.0997 81.4371 95.0835C81.5879 95.0672 81.7303 95.0062 81.8461 94.9084C81.9619 94.8106 82.0458 94.6803 82.0871 94.5344C82.1283 94.3885 82.1249 94.2336 82.0774 94.0897C82.0299 93.9457 81.9404 93.8192 81.8204 93.7265C81.7005 93.6338 81.5555 93.5791 81.4042 93.5694C81.2529 93.5597 81.1022 93.5955 80.9714 93.6722C80.8406 93.7488 80.7357 93.8628 80.6702 93.9996C80.5854 94.1766 80.5725 94.3796 80.634 94.566C80.6955 94.7524 80.8267 94.9078 81.0002 94.9996Z" fill="#1F264C"/>
<path d="M46.7697 130.919C46.6293 130.847 46.5134 130.735 46.4366 130.597C46.3599 130.459 46.3258 130.301 46.3386 130.143C46.3514 129.986 46.4105 129.836 46.5085 129.712C46.6065 129.588 46.739 129.496 46.8893 129.447C47.0396 129.398 47.2009 129.395 47.353 129.438C47.5051 129.481 47.641 129.568 47.7438 129.688C47.8465 129.808 47.9114 129.956 47.9302 130.113C47.9491 130.27 47.9211 130.429 47.8497 130.569C47.7515 130.758 47.5833 130.9 47.3813 130.965C47.1793 131.031 46.9597 131.014 46.7697 130.919V130.919ZM46.8797 130.699C47.0112 130.766 47.1636 130.778 47.304 130.734C47.4444 130.689 47.5615 130.59 47.6297 130.459C47.6632 130.394 47.6834 130.322 47.6893 130.249C47.6951 130.175 47.6863 130.101 47.6636 130.031C47.6408 129.961 47.6045 129.896 47.5567 129.84C47.5088 129.784 47.4504 129.738 47.3847 129.704C47.3191 129.671 47.2475 129.651 47.174 129.645C47.1005 129.639 47.0266 129.648 46.9565 129.671C46.8864 129.693 46.8214 129.73 46.7654 129.778C46.7093 129.825 46.6632 129.884 46.6297 129.949C46.5637 130.082 46.5529 130.236 46.5998 130.376C46.6466 130.517 46.7473 130.633 46.8797 130.699V130.699Z" fill="#1F264C"/>
<path d="M90.5996 107.42C90.4905 107.365 90.3935 107.289 90.3141 107.196C90.2348 107.103 90.1748 106.995 90.1375 106.879C90.1003 106.763 90.0866 106.64 90.0973 106.518C90.1079 106.397 90.1427 106.278 90.1996 106.17C90.2504 106.053 90.3246 105.948 90.4176 105.862C90.5106 105.775 90.6204 105.708 90.7402 105.665C90.8601 105.623 90.9874 105.605 91.1143 105.613C91.2412 105.622 91.3651 105.656 91.4782 105.715C91.5913 105.773 91.6912 105.854 91.7718 105.952C91.8524 106.051 91.912 106.164 91.9468 106.287C91.9816 106.409 91.9909 106.537 91.9742 106.664C91.9575 106.79 91.9151 106.911 91.8496 107.02C91.7946 107.129 91.7185 107.226 91.6255 107.306C91.5326 107.385 91.4249 107.445 91.3085 107.482C91.1921 107.519 91.0695 107.533 90.9478 107.522C90.8261 107.512 90.7077 107.477 90.5996 107.42V107.42ZM90.7096 107.21C90.8687 107.273 91.0454 107.274 91.2056 107.214C91.3657 107.154 91.4978 107.037 91.5763 106.885C91.6548 106.733 91.674 106.557 91.6303 106.392C91.5865 106.227 91.483 106.083 91.3396 105.99C91.2588 105.937 91.1678 105.902 91.0726 105.887C90.9774 105.872 90.88 105.877 90.7868 105.901C90.6936 105.926 90.6065 105.97 90.5313 106.03C90.4561 106.091 90.3944 106.166 90.3501 106.252C90.3059 106.337 90.2801 106.431 90.2744 106.528C90.2687 106.624 90.2833 106.72 90.3172 106.811C90.351 106.901 90.4035 106.983 90.4711 107.052C90.5387 107.121 90.6199 107.175 90.7096 107.21Z" fill="#1F264C"/>
<path d="M44.9393 95.9002C44.8487 95.8543 44.768 95.7909 44.7019 95.7138C44.6358 95.6366 44.5855 95.5472 44.5539 95.4506C44.5224 95.3541 44.5101 95.2522 44.5179 95.1509C44.5257 95.0496 44.5534 94.9508 44.5993 94.8602C44.6453 94.7696 44.7086 94.6889 44.7858 94.6228C44.8629 94.5567 44.9523 94.5064 45.0489 94.4748C45.1455 94.4433 45.2473 94.431 45.3486 94.4388C45.4499 94.4466 45.5487 94.4743 45.6393 94.5202C45.8146 94.6103 45.948 94.7649 46.0114 94.9515C46.0749 95.1381 46.0633 95.342 45.9793 95.5202C45.9374 95.6146 45.8768 95.6996 45.8014 95.7702C45.7259 95.8407 45.637 95.8953 45.5399 95.9308C45.4429 95.9662 45.3397 95.9818 45.2365 95.9766C45.1333 95.9713 45.0323 95.9453 44.9393 95.9002ZM45.0493 95.6902C45.1448 95.7387 45.2525 95.7577 45.3588 95.7448C45.4652 95.7319 45.5652 95.6877 45.6463 95.6178C45.7275 95.5478 45.7859 95.4554 45.8144 95.3522C45.8428 95.2489 45.8399 95.1395 45.8061 95.038C45.7722 94.9364 45.7089 94.8471 45.6242 94.7816C45.5395 94.7161 45.4372 94.6772 45.3304 94.67C45.2236 94.6627 45.117 94.6874 45.0242 94.7408C44.9314 94.7943 44.8566 94.8741 44.8093 94.9702C44.7466 95.0977 44.7366 95.2447 44.7815 95.3795C44.8264 95.5143 44.9226 95.6259 45.0493 95.6902V95.6902Z" fill="#1F264C"/>
<path d="M45.3906 103.749C45.2469 103.686 45.1258 103.581 45.043 103.447C44.9602 103.314 44.9196 103.158 44.9265 103.001C44.9335 102.845 44.9876 102.693 45.0818 102.568C45.1761 102.442 45.306 102.348 45.4547 102.297C45.6034 102.247 45.7638 102.242 45.9151 102.284C46.0664 102.327 46.2014 102.413 46.3025 102.534C46.4037 102.654 46.4662 102.802 46.4819 102.958C46.4976 103.114 46.4658 103.271 46.3906 103.409C46.3005 103.585 46.1458 103.718 45.9593 103.781C45.7727 103.845 45.5688 103.833 45.3906 103.749V103.749ZM45.5106 103.539C45.606 103.588 45.7138 103.607 45.8201 103.594C45.9264 103.581 46.0265 103.537 46.1076 103.467C46.1887 103.397 46.2472 103.305 46.2756 103.201C46.3041 103.098 46.3012 102.989 46.2673 102.887C46.2335 102.785 46.1702 102.696 46.0855 102.631C46.0008 102.565 45.8985 102.526 45.7916 102.519C45.6848 102.512 45.5782 102.536 45.4854 102.59C45.3927 102.643 45.3179 102.723 45.2706 102.819C45.2078 102.947 45.1978 103.094 45.2427 103.229C45.2877 103.363 45.3839 103.475 45.5106 103.539V103.539Z" fill="#1F264C"/>
<path d="M35.7596 120.179C35.5564 120.074 35.3889 119.911 35.278 119.711C35.1672 119.511 35.118 119.283 35.1367 119.055C35.1554 118.826 35.2411 118.609 35.383 118.43C35.525 118.25 35.7168 118.117 35.9344 118.046C36.152 117.975 36.3857 117.971 36.606 118.032C36.8263 118.094 37.0234 118.22 37.1726 118.393C37.3217 118.567 37.4162 118.78 37.4441 119.008C37.4721 119.235 37.4322 119.465 37.3296 119.669C37.2608 119.807 37.1653 119.929 37.0489 120.029C36.9324 120.129 36.7972 120.205 36.6512 120.253C36.5051 120.3 36.3511 120.318 36.1981 120.305C36.045 120.293 35.896 120.25 35.7596 120.179V120.179ZM35.8696 119.969C35.9786 120.025 36.0974 120.058 36.2192 120.067C36.341 120.076 36.4635 120.062 36.5796 120.023C36.6957 119.985 36.8031 119.925 36.8958 119.845C36.9884 119.766 37.0645 119.668 37.1196 119.559C37.2044 119.344 37.206 119.105 37.124 118.889C37.042 118.673 36.8824 118.495 36.6763 118.39C36.4702 118.285 36.2324 118.26 36.0092 118.321C35.7861 118.382 35.5938 118.524 35.4696 118.719C35.4107 118.83 35.3743 118.95 35.3626 119.075C35.3509 119.199 35.364 119.324 35.4012 119.443C35.4385 119.562 35.4991 119.673 35.5795 119.769C35.6599 119.864 35.7585 119.943 35.8696 119.999V119.969Z" fill="#1F264C"/>
<path d="M153.33 0.529805L152.79 0.359805L152.6 0.299805H152.4H152.2H152.01H151.79H151.6H151.37H151.19H150.92H84.5703C84.2703 0.299805 83.9703 0.299805 83.6803 0.389805L83.2503 0.469805C81.2613 0.8796 79.4761 1.96696 78.1995 3.54631C76.9229 5.12566 76.234 7.09909 76.2503 9.1298V143.13C76.3086 144.882 76.8864 146.577 77.9102 147.999C78.9341 149.422 80.3577 150.508 82.0003 151.12V151.12L82.5103 151.29H82.7003L82.9003 151.34H83.1003H83.2903H83.5103H83.7003H83.9403H84.1103H84.3803H150.26C150.56 151.34 150.86 151.34 151.16 151.34C153.177 151.126 155.058 150.225 156.489 148.788C157.92 147.352 158.814 145.467 159.02 143.45C159.035 143.147 159.035 142.843 159.02 142.54V8.8398C159.031 7.04014 158.491 5.28022 157.474 3.79526C156.458 2.31031 155.012 1.17107 153.33 0.529805V0.529805Z" fill="#1D3B4C"/>
<path d="M150.222 145.21H85.3922C84.0926 145.21 82.8463 144.694 81.9274 143.775C81.0084 142.856 80.4922 141.609 80.4922 140.31V11.7499C80.4922 10.8004 80.8694 9.88986 81.5407 9.21848C82.2121 8.5471 83.1227 8.16992 84.0722 8.16992H151.542C152.492 8.16992 153.402 8.5471 154.074 9.21848C154.745 9.88986 155.122 10.8004 155.122 11.7499V140.31C155.122 141.609 154.606 142.856 153.687 143.775C152.768 144.694 151.522 145.21 150.222 145.21Z" fill="#F7F7F7"/>
<path d="M118.02 5.74965C118.81 5.74965 119.45 5.10942 119.45 4.31965C119.45 3.52988 118.81 2.88965 118.02 2.88965C117.23 2.88965 116.59 3.52988 116.59 4.31965C116.59 5.10942 117.23 5.74965 118.02 5.74965Z" fill="white"/>
<path d="M225.392 151.94L227.882 151.73L227.252 120.54L220.582 126.44L225.392 151.94Z" fill="#406E82"/>
<path d="M175.531 151.929H172.551L177.541 126.109L184.221 128.679L175.531 151.929Z" fill="#406E82"/>
<path d="M214.35 152.299L212.25 152.579L209.84 132.219L217.7 126.319L214.35 152.299Z" fill="#406E82"/>
<path d="M186.08 151.929L187.16 151.939L182.38 126.229L181.27 126.439L186.08 151.929Z" fill="#1D3B4C"/>
<path d="M205.331 70.1499C211.261 70.7899 218.951 71.4599 226.661 84.5499C235.091 98.8599 230.661 120.24 224.001 126.18C217.341 132.12 195.611 139.46 177.341 128.47C177.341 128.47 166.341 121.82 171.971 110.78C180.681 93.7799 179.451 90.2398 183.351 83.5698C187.251 76.8998 192.721 68.7999 205.331 70.1499Z" fill="#F7F7F7"/>
<path d="M226.661 84.5502C221.401 75.6102 216.141 72.4602 211.451 71.1602C213.57 73.4084 215.417 75.8989 216.951 78.5802C225.381 92.8902 220.951 114.27 214.291 120.21C208.391 125.48 190.631 131.84 173.941 125.56C174.941 126.677 176.084 127.655 177.341 128.47C195.611 139.47 217.341 132.12 224.001 126.18C230.661 120.24 235.091 98.8602 226.661 84.5502Z" fill="#DFF7F6"/>
<path d="M186.262 91.8994L184.742 96.4794L189.392 94.6494L186.262 91.8994Z" fill="#F79C8D"/>
<path d="M191.06 78.2695C190.75 78.2695 189.9 78.5695 188.66 80.9095C187.07 83.9095 184.75 92.9095 184.75 92.9095L191.67 95.4795L192.56 93.5895L194 79.0995C194 79.0995 191.14 78.2695 191.06 78.2695Z" fill="#326600"/>
<path d="M200.211 77C197.122 77.099 194.054 77.535 191.061 78.3C191.061 78.3 189.391 92.61 192.561 103.48C193.271 105.92 191.971 113.57 191.971 113.57L212.481 113.3C212.481 113.3 210.051 94.8 210.971 91.81C211.891 88.82 211.911 78.4 211.911 78.4L207.301 77.61C204.956 77.2274 202.586 77.0235 200.211 77Z" fill="#99CC66"/>
<path d="M203.191 140.59C203.191 140.59 202.731 145.81 201.901 147.26C201.071 148.71 201.901 151.16 201.991 151.5C202.081 151.84 203.741 152.32 206.471 152.03C209.201 151.74 209.141 151.11 208.921 150.1C208.701 149.09 207.261 147.79 207.171 146.83C207.313 145.328 207.59 143.842 208.001 142.39L203.191 140.59Z" fill="#F7A491"/>
<path d="M194.29 109.23C194.29 109.23 180.13 108.45 176.97 110.36C173.81 112.27 177.54 116.19 177.54 116.19C177.54 116.19 189.07 121.19 208.36 122.29C212.93 122.56 213.36 110.42 212.47 109.41C211.58 108.4 194.29 109.23 194.29 109.23Z" fill="#3F1919"/>
<path d="M206.811 152.439C209.611 152.139 209.261 150.769 209.041 149.719C208.663 148.942 208.182 148.219 207.611 147.569C207.064 148.009 206.425 148.32 205.741 148.479C204.471 148.849 202.741 148.119 201.631 147.659C201.346 148.837 201.221 150.048 201.261 151.259C201.301 151.609 204.001 152.729 206.811 152.439Z" fill="#198444"/>
<path d="M204.671 119.33C204.101 123.6 201.301 144.84 201.301 144.84L207.801 145.65C207.801 145.65 215.801 117.92 215.381 113.65C214.961 109.38 211.981 109.05 211.981 109.05C211.981 109.05 206.171 108 204.671 119.33Z" fill="#4C2222"/>
<path d="M183.592 144.569C183.746 145.071 183.787 145.6 183.711 146.119C183.635 146.638 183.444 147.134 183.152 147.569C182.152 148.769 177.912 149.939 177.362 150.569C177.045 150.89 176.863 151.319 176.852 151.769L188.692 151.449L188.562 147.879L188.012 145.319L183.592 144.569Z" fill="#F7A491"/>
<path d="M182.411 148.169C182.411 148.169 185.411 149.399 186.921 148.679C188.431 147.959 188.351 147.749 188.771 148.019C189.191 148.289 189.351 151.929 189.351 151.929L176.001 151.999C175.081 151.999 174.611 151.299 175.361 150.719C175.82 150.395 176.305 150.107 176.811 149.859C178.635 149.166 180.507 148.601 182.411 148.169Z" fill="#198444"/>
<path d="M184 112.58C183.09 110.66 181 108.16 177.34 109.67C173.85 111.1 172.91 114.67 174.01 118.24C175.11 121.81 182.37 143.1 182.63 146.03H188.42C188.42 146.03 187.37 129.21 187.11 125.15C186.778 120.816 185.727 116.568 184 112.58Z" fill="#4C2222"/>
<path d="M175.35 86.8896H191.51C191.94 86.8896 192.32 87.2796 192.51 87.8896L197.23 106.74C197.42 107.49 197.05 108.29 196.53 108.28L181 108C180.3 108 179.67 107.37 179.39 106.39L174.39 89.2096C174.07 88.0996 174.58 86.8896 175.35 86.8896Z" fill="#603A8C"/>
<path d="M184.152 97.9294C184.492 98.7294 185.212 99.1894 185.762 98.9294C186.312 98.6694 186.472 97.8494 186.142 97.0494C185.812 96.2494 185.082 95.7894 184.532 96.0494C183.982 96.3094 183.812 97.1294 184.152 97.9294Z" fill="white"/>
<path d="M202.561 70.84L203.511 77.09C203.511 77.09 200.741 80.88 198.671 80.24C196.941 79.7 197.321 76.76 197.321 76.76C197.321 76.76 198.261 73.22 197.981 71.45C197.701 69.68 202.561 70.84 202.561 70.84Z" fill="#F7A491"/>
<path opacity="0.2" d="M198.003 71.45C197.713 69.68 202.583 70.84 202.583 70.84L202.663 71.36C202.537 71.6781 202.358 71.9724 202.133 72.23C201.009 73.3834 199.491 74.0693 197.883 74.15C198.043 73.2594 198.083 72.3514 198.003 71.45Z" fill="#F47458"/>
<path d="M203.36 61.9999C203.5 61.9999 204.46 69.1199 202.63 71.0899C200.8 73.0599 197.23 73.6999 195.95 72.1499C194.54 70.4299 194.61 62.7299 197.45 60.6999C200.29 58.6699 203.36 61.9999 203.36 61.9999Z" fill="#F7A491"/>
<path d="M197.221 54.5902C199.921 59.1302 202.161 58.6702 202.691 59.2402C203.691 59.3602 205.051 59.9102 206.451 62.2402C207.165 63.4753 207.401 64.9297 207.113 66.3271C206.826 67.7245 206.035 68.9676 204.891 69.8202C204.329 70.1922 203.858 70.6854 203.512 71.2633C203.166 71.8413 202.954 72.4895 202.891 73.1602L202.571 72.2402C202.334 71.5361 202.249 70.7897 202.321 70.0502C202.358 69.5985 202.47 69.1559 202.651 68.7402C203.131 67.7402 201.651 67.0102 201.181 66.1502C200.861 65.4802 200.841 63.9602 200.321 62.8702L199.711 62.0302C198.906 61.4163 197.898 61.1305 196.891 61.2302C195.511 61.5302 195.751 52.1102 197.221 54.5902Z" fill="#1D3B4C"/>
<path d="M201.301 67.4096C201.301 68.2896 201.681 68.9996 202.191 69.0096C202.701 69.0196 203.111 68.3196 203.131 67.4396C203.151 66.5596 202.741 65.8496 202.241 65.8496C201.741 65.8496 201.311 66.5396 201.301 67.4096Z" fill="#F7A491"/>
<path d="M198.83 69.8394L196.07 69.6895C196.081 70.0033 196.215 70.3004 196.443 70.5158C196.672 70.7312 196.976 70.8475 197.29 70.8394C198.76 70.9994 198.83 69.8394 198.83 69.8394Z" fill="white"/>
<path d="M178.209 88.9649L176.289 89.5049L180.841 105.69L182.761 105.15L178.209 88.9649Z" fill="#D0BEEA"/>
<path d="M189.283 88.9571L187.363 89.4971L191.915 105.683L193.835 105.143L189.283 88.9571Z" fill="#D0BEEA"/>
<path d="M212.131 79.9994C210.211 79.2794 209.271 96.5094 209.021 103.599C205.425 103.792 201.821 103.755 198.231 103.489C197.531 103.489 195.641 100.729 194.951 100.639C194.261 100.549 195.401 101.759 195.061 101.819C194.931 101.819 191.311 102.259 190.881 102.339C190.011 102.499 187.781 102.749 187.951 103.179C188.121 103.609 190.691 103.319 190.691 103.319L193.491 103.259C191.581 103.749 188.211 104.529 188.491 105.029C188.771 105.529 191.851 104.869 193.721 104.459C192.581 105.459 189.721 105.799 189.931 106.169C190.281 106.719 192.431 106.429 194.151 105.809C194.791 105.589 191.941 107.279 192.441 107.359C193.277 107.356 194.109 107.231 194.911 106.989L198.131 106.359C198.771 106.419 198.781 106.789 199.421 106.929C200.061 107.069 201.421 107.249 202.341 107.479C207.791 108.809 209.621 109.479 211.291 109.479C216.371 109.389 216.661 81.6594 212.131 79.9994Z" fill="#F7A491"/>
<path d="M215.401 102.49C215.761 95.2297 216.081 79.9197 211.991 78.3897C210.381 77.7897 205.991 78.9897 207.681 102.64C210.251 102.913 212.845 102.863 215.401 102.49V102.49Z" fill="#326600"/>
<path d="M52.8508 88.5502C53.2608 88.5502 53.1308 86.7302 53.4908 86.5502C53.8508 86.3702 54.4908 88.7202 54.8008 88.7302C55.4608 88.7302 54.3208 86.1102 54.6208 86.1002C54.9208 86.0902 56.2408 88.7402 56.6208 88.3302C57.0008 87.9202 55.0008 85.7102 55.3208 85.5602C55.6408 85.4102 57.0708 87.7802 57.8008 87.5602C58.1908 87.4502 54.8008 83.8102 54.9308 83.2802C55.0608 82.7502 57.1208 83.2802 57.3108 82.8802C57.5008 82.4802 53.4308 82.1302 53.2308 81.8802C53.0308 81.6302 42.1008 66.7202 41.1008 64.8402C41.7308 64.4402 40.6408 71.6802 40.5008 72.3302C40.1008 74.3302 49.3908 82.0902 50.7208 83.2402C52.0508 84.3902 51.9108 85.2402 52.4508 86.1102C52.9908 86.9802 52.4408 88.5102 52.8508 88.5502Z" fill="#F7A491"/>
<path d="M41.7123 45C41.8958 42.0519 41.3244 39.1058 40.0523 36.44C38.8923 34.09 36.0523 32.76 33.4123 32.75C25.1123 32.75 24.0523 43.43 18.7723 47.55C17.1923 48.79 15.4223 49.8 13.9123 51.12C13.8911 51.9937 14.0266 52.8641 14.3123 53.69C15.9423 58.01 20.1023 60.46 24.1023 62.69C27.6203 64.5197 31.5084 65.5251 35.4723 65.63C36.8409 62.6104 38.046 59.5192 39.0823 56.37C40.543 52.7392 41.4303 48.9034 41.7123 45V45Z" fill="#FF5353"/>
<path d="M15.7712 139.34C15.7712 139.34 15.1812 143.29 14.1812 144.56C13.665 145.088 13.2089 145.671 12.8212 146.3C12.574 146.943 12.4624 147.63 12.4933 148.319C12.5243 149.007 12.6972 149.682 13.0012 150.3C13.2412 150.8 13.0012 150.8 13.5312 150.96C14.3065 151.189 15.1385 151.13 15.8737 150.793C16.6088 150.457 17.1975 149.866 17.5312 149.13C18.0108 148.072 18.2792 146.931 18.3212 145.77C18.3268 143.891 18.7793 142.04 19.6412 140.37L15.7712 139.37V139.34Z" fill="#F7A491"/>
<path d="M33.372 141.149C33.5541 143.108 33.5775 145.077 33.442 147.039C33.282 147.809 32.442 149.409 32.812 150.139C32.9941 150.524 33.2911 150.842 33.662 151.049L44.052 151.209C44.622 151.209 44.252 150.859 43.792 150.539C42.6174 149.746 41.3641 149.076 40.052 148.539C39.902 148.469 39.332 148.119 39.132 147.989C38.5783 147.638 38.0767 147.21 37.642 146.719C36.902 145.909 36.832 141.989 36.832 141.989L33.372 141.159V141.149Z" fill="#F7A491"/>
<path d="M41.4893 81.9995C41.4893 81.9995 42.7993 89.2194 41.9393 93.9494C41.0793 98.6794 36.9393 142.559 36.9393 142.559L33.4693 142.749C33.4693 142.749 31.4093 124.519 31.5893 121.999C31.8917 119.684 32.4038 117.402 33.1193 115.179L32.6593 100.379L38.4393 80.9395L41.4893 81.9995Z" fill="#F7A491"/>
<path d="M27.9994 80.5199C27.9994 80.5199 24.3994 85.7999 23.5394 90.1699C22.6794 94.5399 24.1694 107.96 22.5394 113.69C21.6494 116.79 18.2594 121.58 17.7394 125.58C17.2194 129.58 15.6094 140.33 15.6094 140.33L19.3394 140.88L30.4294 114.76L38.7794 91.0799L40.9194 78.8799L27.9994 80.5199Z" fill="#F7A491"/>
<path d="M41.3729 82.4393C41.3729 82.4393 42.6829 89.6593 41.8229 94.4393C41.3229 97.2193 39.6929 113.439 38.4329 126.439L31.6529 126.209C31.5283 124.953 31.4682 123.692 31.4729 122.429C31.7726 120.098 32.2847 117.798 33.0029 115.559L32.5429 100.759L38.3329 81.3193L41.3329 82.4393H41.3729Z" fill="#2F5160"/>
<path d="M27.9106 80.9203C27.9106 80.9203 24.3006 86.2003 23.4406 90.5703C22.5806 94.9403 24.0706 108.36 22.4406 114.09C21.5406 117.19 18.1506 121.98 17.6406 125.98L25.1806 127.28L30.3206 115.16L38.6706 91.4803L40.8106 79.2803L27.9106 80.9203Z" fill="#1D3B4C"/>
<path d="M30.9414 50.4797C30.9414 50.4797 26.1714 50.1797 24.2814 52.1897C22.3914 54.1997 28.4714 69.9997 28.8114 72.5797C29.1514 75.1597 27.0614 81.8997 27.0614 81.8997C27.0614 81.8997 38.2814 84.0997 41.4914 82.0397C41.4914 82.0397 42.0814 63.5297 41.7314 61.7097C41.3814 59.8897 38.2814 52.6597 37.5914 51.9397C36.9014 51.2197 30.9414 50.4797 30.9414 50.4797V50.4797Z" fill="#369AD8"/>
<path d="M32.5311 44.2694C32.5311 44.2694 32.5311 44.4094 32.4611 44.6394C32.1064 46.6286 31.5777 48.5828 30.8811 50.4794C30.2111 51.7094 33.1711 55.6394 36.0211 55.1594C36.8711 55.0194 35.3011 51.5494 35.3811 51.1594C35.5211 50.4594 35.7211 49.4994 35.9211 48.5194C36.0311 47.9694 36.1411 47.4094 36.2511 46.8794C36.5611 45.3794 36.8011 44.1494 36.8011 44.1494L32.5311 44.2494V44.2694Z" fill="#F7A491"/>
<path d="M32.4611 44.6399C32.5111 44.4099 32.5311 44.2699 32.5311 44.2699L36.8011 44.1699C36.8011 44.1699 36.5611 45.3999 36.2511 46.8999C36.1411 47.4199 36.0311 47.9799 35.9211 48.5299C35.1729 48.3935 34.4791 48.0466 33.9211 47.5299C33.2167 46.9323 32.6821 46.1597 32.3711 45.2899C32.4311 45.0299 32.4711 44.8099 32.5011 44.6299L32.4611 44.6399Z" fill="#F47458"/>
<path d="M35.4111 34.83C34.7961 34.7842 34.1789 34.8834 33.6092 35.1196C33.0396 35.3558 32.5333 35.7225 32.1311 36.19C30.8711 37.78 29.5111 42.69 32.6511 45.36C35.7911 48.03 38.8811 45 39.3411 41.8C39.8011 38.6 39.9711 34.72 35.4111 34.8V34.83Z" fill="#F7A491"/>
<path d="M40.2622 41.7501C39.8922 42.4601 39.2622 42.8501 38.8622 42.6301C38.4622 42.4101 38.4422 41.6301 38.8622 40.9401C39.2822 40.2501 39.8622 39.8401 40.2722 40.0701C40.6822 40.3001 40.6922 41.0701 40.2722 41.7501H40.2622Z" fill="#F7A491"/>
<path d="M35.6303 34.3101C35.6303 34.3101 32.9403 39.0001 31.0003 39.1901C29.0603 39.3801 28.8203 41.8901 28.8203 41.8901C28.8203 41.8901 29.5103 36.1701 31.4203 35.0701C32.7092 34.4024 34.169 34.1376 35.6103 34.3101H35.6303Z" fill="#FF5353"/>
<path d="M17.8497 148.33C16.913 148.487 15.9512 148.384 15.0693 148.031C14.1875 147.678 13.4196 147.09 12.8497 146.33C12.5066 146.931 12.2873 147.594 12.2049 148.281C12.1224 148.969 12.1785 149.665 12.3697 150.33C12.7797 151.2 13.9797 151.17 14.9297 151.21C15.3961 151.218 15.8556 151.096 16.2566 150.858C16.6576 150.619 16.9841 150.274 17.1997 149.86C17.4709 149.39 17.6953 148.894 17.8697 148.38L17.8497 148.33Z" fill="#2F2F3B"/>
<path d="M39.1318 148C37.1839 148.547 35.1138 148.47 33.2118 147.78C32.8361 148.521 32.6734 149.352 32.7418 150.18C32.9918 150.9 33.3518 151.06 33.6618 151.07C36.1718 151.13 42.8618 151.22 44.7718 151.24C44.8311 151.244 44.8901 151.229 44.9412 151.199C44.9924 151.169 45.0334 151.124 45.0591 151.071C45.0848 151.017 45.094 150.957 45.0856 150.898C45.0772 150.839 45.0515 150.784 45.0118 150.74C44.5418 150.19 39.3318 148.12 39.1318 148Z" fill="#2F2F3B"/>
<path d="M31.5191 40.3603C31.6791 41.1903 31.3691 41.9503 30.8191 42.0603C30.2691 42.1703 29.7091 41.5903 29.5491 40.7603C29.3891 39.9303 29.7091 39.1703 30.2491 39.0603C30.7891 38.9503 31.3691 39.5303 31.5191 40.3603Z" fill="#F7A491"/>
<path d="M42.6095 84.2698L41.8295 81.6298C41.4095 80.4698 40.4895 78.4698 39.1295 78.6298C38.5695 78.6298 37.7095 79.6298 37.1295 81.5398L36.6395 84.2398L35.7695 84.0798L36.2695 81.3398C36.8695 79.1998 37.9195 77.8398 39.0295 77.7498C40.5095 77.6498 41.7495 78.8798 42.6395 81.3798L43.4595 83.9998L42.6095 84.2698Z" fill="#E0F0FF"/>
<path d="M37.2108 84.3197C37.1757 84.5146 37.0835 84.6948 36.9459 84.8373C36.8083 84.9798 36.6314 85.0782 36.4378 85.12C36.2442 85.1619 36.0425 85.1453 35.8583 85.0723C35.6742 84.9994 35.5158 84.8734 35.4034 84.7103C35.2909 84.5472 35.2294 84.3544 35.2267 84.1564C35.2239 83.9583 35.2801 83.7639 35.388 83.5978C35.4959 83.4317 35.6507 83.3014 35.8328 83.2234C36.0149 83.1454 36.2161 83.1232 36.4108 83.1597C36.6702 83.2083 36.8999 83.3575 37.0498 83.5748C37.1996 83.7921 37.2575 84.0599 37.2108 84.3197Z" fill="#E0F0FF"/>
<path d="M42.0799 84.4302C42.1359 84.6202 42.247 84.7893 42.3992 84.916C42.5515 85.0427 42.7379 85.1214 42.9349 85.142C43.1319 85.1627 43.3306 85.1243 43.5057 85.0319C43.6809 84.9395 43.8247 84.7971 43.9189 84.6228C44.013 84.4486 44.0533 84.2503 44.0346 84.0531C44.0159 83.8559 43.9391 83.6687 43.8139 83.5153C43.6886 83.3618 43.5207 83.249 43.3312 83.1911C43.1418 83.1332 42.9395 83.1329 42.7499 83.1902C42.4971 83.2666 42.2848 83.4398 42.1593 83.6721C42.0338 83.9044 42.0052 84.1769 42.0799 84.4302Z" fill="#E0F0FF"/>
<path d="M47.8325 101.42H31.3125L33.1525 83.2598H44.4525L47.8325 101.42Z" fill="#C60519"/>
<path d="M45.75 101.42H28.25L31.53 83.4098L42.9 83.2598L45.75 101.42Z" fill="#EA576C"/>
<path d="M34.2194 84.3698L33.3594 84.1598L33.9994 81.4098C34.6394 79.0398 36.2194 77.5098 37.9994 77.5098C40.2694 77.5098 40.4694 79.3398 40.6794 81.2898L40.9794 84.2198L40.0994 84.3098L39.7994 81.4098C39.5794 79.3098 39.4194 78.4098 37.9994 78.4098C36.6394 78.4098 35.3694 79.7098 34.8394 81.6498L34.2194 84.3698Z" fill="white"/>
<path d="M34.7599 84.4997C34.7158 84.6921 34.6158 84.8672 34.4723 85.0028C34.3289 85.1385 34.1486 85.2287 33.954 85.262C33.7594 85.2953 33.5594 85.2703 33.379 85.1902C33.1986 85.11 33.046 84.9782 32.9403 84.8114C32.8347 84.6446 32.7808 84.4503 32.7854 84.253C32.79 84.0556 32.853 83.8641 32.9663 83.7024C33.0796 83.5408 33.2382 83.4163 33.4221 83.3446C33.6061 83.2729 33.8071 83.2573 33.9999 83.2997C34.1289 83.3281 34.251 83.3817 34.3591 83.4575C34.4673 83.5333 34.5593 83.6297 34.63 83.7413C34.7006 83.8529 34.7485 83.9773 34.7708 84.1075C34.7931 84.2377 34.7894 84.371 34.7599 84.4997Z" fill="white"/>
<path d="M39.5993 84.3701C39.6202 84.5668 39.6989 84.7528 39.8254 84.9047C39.952 85.0566 40.1208 85.1676 40.3104 85.2237C40.5 85.2797 40.702 85.2783 40.8908 85.2195C41.0796 85.1608 41.2468 85.0474 41.3712 84.8936C41.4955 84.7399 41.5715 84.5528 41.5896 84.3559C41.6076 84.159 41.5669 83.9611 41.4725 83.7874C41.3781 83.6136 41.2343 83.4717 41.0593 83.3797C40.8843 83.2876 40.686 83.2495 40.4893 83.2701C40.3586 83.2838 40.2319 83.3232 40.1165 83.3859C40.001 83.4486 39.899 83.5335 39.8163 83.6357C39.7337 83.7378 39.672 83.8553 39.6347 83.9813C39.5975 84.1073 39.5855 84.2394 39.5993 84.3701Z" fill="white"/>
<path d="M24.31 67.6897L22 75.8997C25.07 75.6897 32.36 76.4597 34.21 76.5397C37.03 76.1997 37.9 76.4397 38.59 76.7897C38.96 76.9697 40.46 77.7897 40.46 77.7897C40.46 77.7897 41.63 79.4696 41.51 79.5596C41.12 79.8396 40.05 78.2297 40.05 78.2297C40.05 78.2297 39.05 77.7496 38.87 77.6996C38.48 77.5696 38.63 77.6996 38.63 77.6996C38.95 77.8496 40.23 78.6996 40.23 78.6996C40.8295 79.2487 41.3815 79.8475 41.88 80.4896C41.4494 80.3892 41.0508 80.1829 40.72 79.8897C40.32 79.5997 39.72 79.0397 39.36 78.7997C38.7 78.3997 38.19 78.3497 38.36 78.5297C38.53 78.7097 38.82 78.6697 39.22 78.9097C40.22 79.4997 41.41 80.6696 41.22 80.7396C40.4797 80.424 39.7644 80.0529 39.08 79.6296C38.4844 79.4409 37.8646 79.3399 37.24 79.3297C37.3345 79.4809 37.4489 79.6188 37.58 79.7396C37.72 79.8696 39 80.4596 38.78 80.7396C38.56 81.0196 35.65 79.8396 35.65 79.8396L34.25 78.9997H34.16C34.16 78.9997 20 82.2596 17.08 79.0596C14.59 76.3296 19.35 64.7497 19.38 64.8197L24.31 67.6897V67.6897Z" fill="#F8A492"/>
<path d="M24.48 68.7703C24.48 68.7703 29.88 60.6903 30.36 57.7703C30.84 54.8503 28.18 51.1303 25.45 51.4203C22.72 51.7103 19 65.1703 19 65.1703L24.5 68.7703H24.48Z" fill="#75B6F2"/>
<path d="M143.632 118.409H91.632C88.292 118.409 85.582 116.279 85.582 113.659V39.5693C85.582 36.9493 88.292 34.8193 91.632 34.8193H143.632C146.972 34.8193 149.682 36.9493 149.682 39.5693V113.659C149.682 116.279 147.002 118.409 143.632 118.409Z" fill="#5AC5DA"/>
<path d="M119.811 68.4795V84.7295H116.051V71.4995H112.801V68.4995L119.811 68.4795Z" fill="white"/>
<path d="M140.64 58.42C139.91 55.5 136.01 50.75 117.64 50.75C109 50.75 102.64 51.75 99.01 53.55C94.87 55.62 94.5 58.42 94.5 59.28V75.47C94.4973 80.4302 95.816 85.3016 98.3205 89.583C100.825 93.8645 104.425 97.4014 108.75 99.83L115.82 103.83C116.375 104.151 117.004 104.321 117.645 104.321C118.286 104.321 118.915 104.151 119.47 103.83L126.53 99.83C130.849 97.395 134.445 93.8566 136.949 89.5766C139.452 85.2966 140.774 80.4285 140.78 75.47V59.28C140.793 58.9868 140.745 58.694 140.64 58.42V58.42ZM132.51 76.21C132.502 79.3992 131.649 82.5294 130.039 85.2819C128.428 88.0344 126.117 90.311 123.34 91.88L118.8 94.46C118.444 94.6692 118.038 94.7796 117.625 94.7796C117.212 94.7796 116.806 94.6692 116.45 94.46L111.91 91.88C109.13 90.315 106.816 88.0393 105.205 85.2859C103.593 82.5324 102.743 79.4002 102.74 76.21V65.79C102.74 65.24 102.97 63.44 105.64 62.11C107.99 60.94 112.06 60.31 117.64 60.31C129.47 60.31 131.98 63.31 132.45 65.24C132.515 65.4157 132.542 65.6031 132.53 65.79L132.51 76.21Z" fill="white"/>
</svg>
