<svg width="243" height="172" viewBox="0 0 243 172" fill="none" xmlns="http://www.w3.org/2000/svg">
<path d="M164.459 171.88C179.649 171.66 219.339 167.3 223.339 156.17C228.339 142.25 166.459 135.97 127.509 135.54C88.5591 135.11 22.6891 138.06 2.19914 155.74C-11.7909 167.81 99.5391 172.85 164.459 171.88Z" fill="#D6EBF8"/>
<path d="M159.689 160.4C174.258 160.4 186.069 159.715 186.069 158.87C186.069 158.025 174.258 157.34 159.689 157.34C145.119 157.34 133.309 158.025 133.309 158.87C133.309 159.715 145.119 160.4 159.689 160.4Z" fill="#D1D3D4"/>
<path d="M161.228 131.52C161.688 128.05 164.688 125.38 167.948 124.14C171.208 122.9 174.778 122.76 178.248 122.37C181.718 121.98 185.328 121.23 188.028 119.01C193.028 114.9 193.288 107.4 196.378 101.7C197.16 100.252 198.12 98.908 199.238 97.7C208.698 87.59 225.238 83.11 237.498 90.05C239.168 90.82 239.808 93.26 238.498 94.37C235.798 96.98 231.198 96.27 228.228 98.86C227.888 99.1749 227.634 99.5705 227.488 100.01C229.108 107.56 224.898 113.01 216.948 110.73C216.177 110.779 215.416 110.934 214.688 111.19C213.51 111.653 212.475 112.419 211.688 113.41C210.863 114.424 210.19 115.553 209.688 116.76C208.688 119.12 208.118 121.67 206.848 123.9C203.358 129.98 195.688 132.14 188.718 132.84C181.748 133.54 174.338 133.41 168.288 136.95C166.348 138.08 164.568 139.58 162.398 140.15C160.228 140.72 157.448 139.97 156.758 137.83L157.858 136.33" fill="#33CC99"/>
<path d="M180.469 122.31V122.1C192.519 124.04 199.469 114.26 206.169 104.8L207.909 102.37C211.162 98.0163 215.922 95.0319 221.259 94.0003C223.799 93.4464 226.405 93.2545 228.999 93.4303V93.6403C228.869 93.6403 215.439 92.3303 208.139 102.47L206.399 104.91C199.629 114.44 192.649 124.27 180.469 122.31Z" fill="#1F264C"/>
<path d="M178.091 91.1803C178.761 85.9903 181.241 80.7803 185.711 78.0803C190.181 75.3803 196.801 76.0803 199.711 80.3603C201.201 75.2303 202.831 69.8403 206.711 66.1203C210.591 62.4003 217.351 61.1203 221.131 64.9303C221.904 65.7496 222.488 66.7284 222.842 67.7979C223.196 68.8673 223.312 70.0014 223.181 71.1203C223.085 72.2668 222.754 73.3812 222.206 74.3932C221.659 75.4052 220.908 76.2929 220.001 77.0003C220.391 75.1703 222.791 75.0603 224.061 76.0003C224.432 76.2747 224.74 76.6256 224.964 77.0292C225.189 77.4329 225.324 77.88 225.361 78.3403C225.411 79.2768 225.22 80.2107 224.807 81.0527C224.394 81.8947 223.772 82.6169 223.001 83.1503C218.871 85.2603 213.671 85.5803 211.621 90.3603C208.621 97.7303 205.491 104.69 200.731 111C199.991 112.06 199.231 113.11 198.451 114.14C197.671 115.17 196.841 116.14 196.001 117.14C193.751 119.77 191.161 122.31 187.871 123.38C183.961 124.67 179.481 123.72 175.751 125.46C169.831 128.24 167.751 136.83 161.401 138.33C156.791 139.42 152.311 135.45 151.401 131.11C150.061 124.93 155.401 120.04 160.471 117.52C165.211 115.14 170.471 114.44 174.161 110.13C175.363 108.718 176.255 107.069 176.781 105.29C178.061 100.86 177.491 95.8403 178.091 91.1803Z" fill="#33CC99"/>
<path d="M161.848 129.16C161.848 129.08 165.608 120.88 180.978 115.5C191.978 111.65 196.328 100.25 199.518 91.92C200.818 88.54 201.938 85.61 203.238 83.92C207.678 78.05 216.958 75.52 217.048 75.5L217.108 75.7C217.008 75.7 207.798 78.24 203.408 84.04C202.128 85.73 201.008 88.65 199.718 92.04C196.518 100.4 192.128 111.86 181.048 115.73C165.758 121.09 162.048 129.21 162.048 129.29L161.848 129.16Z" fill="#1F264C"/>
<path d="M181.081 115.68L180.961 115.51C188.261 110.51 189.731 102.25 189.681 96.2202C189.618 92.152 188.985 88.1127 187.801 84.2202L188.001 84.1602C189.196 88.078 189.832 92.1447 189.891 96.2402C189.941 102.3 188.451 110.61 181.081 115.68Z" fill="#1F264C"/>
<path d="M200.66 89.0001C201.871 86.9792 203.501 85.241 205.439 83.9025C207.378 82.564 209.581 81.6562 211.9 81.2401C214.019 80.8522 216.191 80.8522 218.31 81.2401V81.4401C216.214 81.0616 214.067 81.0616 211.97 81.4401C209.682 81.8553 207.509 82.7531 205.595 84.0739C203.681 85.3947 202.07 87.1082 200.87 89.1001L200.66 89.0001Z" fill="#1F264C"/>
<path d="M178.341 116.71L178.211 116.55C184.821 111.55 185.911 106.19 185.661 102.61C185.484 100.266 184.746 97.9993 183.511 95.9999L183.681 95.8799C184.943 97.921 185.694 100.236 185.871 102.63C186.121 106.22 185.001 111.63 178.341 116.71Z" fill="#1F264C"/>
<path d="M205.55 106.07L205.43 105.9C211.43 101.48 215.89 101.21 218.53 101.76C220.18 102.056 221.698 102.86 222.87 104.06L222.71 104.19C221.554 103.035 220.076 102.257 218.47 101.96C215.88 101.42 211.53 101.7 205.55 106.07Z" fill="#1F264C"/>
<path d="M187.15 82.4897C187.001 82.3138 186.927 82.0864 186.944 81.8563C186.961 81.6263 187.067 81.4121 187.24 81.2598C187.415 81.1112 187.64 81.0373 187.869 81.0541C188.097 81.071 188.31 81.1772 188.46 81.3497C188.536 81.4348 188.593 81.534 188.63 81.6416C188.667 81.7492 188.682 81.863 188.675 81.9764C188.667 82.0899 188.638 82.2008 188.587 82.3026C188.536 82.4044 188.466 82.4952 188.38 82.5697C188.294 82.6455 188.194 82.7034 188.086 82.7404C187.978 82.7774 187.863 82.7926 187.749 82.7851C187.634 82.7777 187.523 82.7478 187.42 82.6971C187.317 82.6464 187.226 82.5759 187.15 82.4897ZM188.3 81.4897C188.245 81.423 188.176 81.3681 188.099 81.3283C188.021 81.2885 187.937 81.2647 187.85 81.2581C187.763 81.2516 187.676 81.2625 187.594 81.2903C187.511 81.3181 187.435 81.3621 187.37 81.4197C187.239 81.5353 187.159 81.698 187.148 81.8724C187.137 82.0467 187.195 82.2184 187.31 82.3497C187.365 82.4194 187.434 82.4772 187.512 82.5197C187.59 82.5621 187.676 82.5884 187.765 82.5968C187.853 82.6053 187.943 82.5958 188.027 82.5688C188.112 82.5419 188.19 82.4982 188.258 82.4402C188.325 82.3822 188.38 82.3113 188.42 82.2315C188.459 82.1518 188.482 82.0649 188.487 81.9761C188.491 81.8874 188.478 81.7985 188.448 81.715C188.418 81.6314 188.371 81.5548 188.31 81.4897H188.3Z" fill="#1F264C"/>
<path d="M223.757 105.39C223.651 105.249 223.603 105.073 223.621 104.897C223.639 104.722 223.723 104.559 223.856 104.443C223.989 104.327 224.16 104.265 224.337 104.27C224.513 104.275 224.681 104.346 224.807 104.47C224.876 104.537 224.93 104.618 224.966 104.708C225.002 104.797 225.02 104.893 225.017 104.989C225.014 105.086 224.992 105.18 224.951 105.268C224.91 105.355 224.851 105.433 224.779 105.496C224.706 105.56 224.621 105.607 224.529 105.637C224.438 105.666 224.341 105.676 224.245 105.666C224.149 105.656 224.056 105.626 223.972 105.579C223.889 105.531 223.815 105.467 223.757 105.39V105.39ZM224.647 104.61C224.579 104.541 224.492 104.494 224.397 104.475C224.301 104.455 224.203 104.465 224.113 104.502C224.023 104.539 223.946 104.602 223.892 104.682C223.838 104.763 223.81 104.858 223.81 104.955C223.81 105.052 223.838 105.147 223.892 105.228C223.946 105.308 224.023 105.371 224.113 105.408C224.203 105.445 224.301 105.454 224.397 105.435C224.492 105.416 224.579 105.369 224.647 105.3C224.738 105.208 224.79 105.084 224.79 104.955C224.79 104.826 224.738 104.702 224.647 104.61V104.61Z" fill="#1F264C"/>
<path d="M181.609 94.84C181.507 94.7201 181.442 94.5726 181.424 94.4162C181.405 94.2598 181.433 94.1013 181.504 93.9607C181.575 93.8201 181.686 93.7036 181.823 93.6258C181.96 93.548 182.117 93.5124 182.274 93.5234C182.431 93.5345 182.582 93.5917 182.706 93.6878C182.831 93.784 182.925 93.9148 182.975 94.064C183.026 94.2131 183.032 94.3739 182.991 94.5262C182.951 94.6785 182.867 94.8155 182.749 94.92C182.587 95.0601 182.376 95.1303 182.162 95.1153C181.949 95.1003 181.75 95.0014 181.609 94.84ZM182.669 93.91C182.555 93.7995 182.402 93.7376 182.244 93.7376C182.085 93.7376 181.933 93.7995 181.819 93.91C181.711 94.0177 181.648 94.1625 181.643 94.3149C181.638 94.4673 181.691 94.6159 181.792 94.7305C181.892 94.8451 182.033 94.9171 182.185 94.9319C182.336 94.9466 182.488 94.9031 182.609 94.81C182.675 94.7572 182.73 94.691 182.769 94.6158C182.809 94.5406 182.832 94.458 182.838 94.3733C182.843 94.2886 182.831 94.2036 182.802 94.1238C182.773 94.0441 182.728 93.9712 182.669 93.91Z" fill="#1F264C"/>
<path d="M217.908 75.4401C217.83 75.3787 217.766 75.3008 217.721 75.212C217.677 75.1232 217.652 75.0257 217.649 74.9263C217.646 74.8269 217.665 74.728 217.704 74.6367C217.743 74.5454 217.802 74.4637 217.876 74.3976C217.951 74.3315 218.039 74.2825 218.134 74.254C218.229 74.2256 218.33 74.2184 218.428 74.2329C218.526 74.2474 218.62 74.2834 218.703 74.3382C218.786 74.393 218.856 74.4654 218.908 74.5501C218.975 74.6171 219.027 74.6975 219.06 74.786C219.094 74.8745 219.108 74.9691 219.103 75.0636C219.097 75.1581 219.071 75.2503 219.028 75.3342C218.984 75.418 218.923 75.4916 218.848 75.5501C218.708 75.6575 218.531 75.706 218.356 75.6855C218.18 75.665 218.02 75.577 217.908 75.4401V75.4401ZM218.768 74.6801C218.703 74.6138 218.619 74.5683 218.528 74.5497C218.436 74.531 218.341 74.5399 218.255 74.5753C218.169 74.6107 218.095 74.6709 218.043 74.7483C217.991 74.8258 217.963 74.9169 217.963 75.0101C217.963 75.1034 217.991 75.1945 218.043 75.272C218.095 75.3494 218.169 75.4096 218.255 75.445C218.341 75.4804 218.436 75.4893 218.528 75.4706C218.619 75.452 218.703 75.4065 218.768 75.3401C218.855 75.2522 218.903 75.1337 218.903 75.0101C218.903 74.8866 218.855 74.7681 218.768 74.6801V74.6801Z" fill="#1F264C"/>
<path d="M219.188 82.1698C219.113 82.1075 219.052 82.0297 219.009 81.9417C218.967 81.8538 218.944 81.7577 218.942 81.66C218.94 81.5623 218.959 81.4653 218.997 81.3757C219.036 81.286 219.094 81.2057 219.167 81.1404C219.239 81.075 219.325 81.0261 219.418 80.9969C219.511 80.9677 219.61 80.9589 219.707 80.9712C219.804 80.9835 219.897 81.0165 219.98 81.068C220.063 81.1196 220.134 81.1884 220.188 81.2698C220.251 81.3389 220.3 81.4202 220.331 81.5087C220.362 81.5973 220.375 81.6912 220.368 81.7848C220.362 81.8784 220.336 81.9697 220.293 82.0531C220.25 82.1365 220.19 82.2102 220.118 82.2698C219.981 82.3777 219.806 82.4276 219.633 82.4089C219.459 82.3902 219.299 82.3044 219.188 82.1698ZM220.048 81.4098C220.01 81.3564 219.96 81.3116 219.904 81.2783C219.847 81.2451 219.784 81.2241 219.719 81.2168C219.653 81.2095 219.587 81.2159 219.524 81.2358C219.462 81.2556 219.404 81.2884 219.355 81.332C219.305 81.3756 219.266 81.4291 219.239 81.4889C219.211 81.5488 219.197 81.6137 219.196 81.6794C219.196 81.7452 219.209 81.8104 219.235 81.8707C219.261 81.9311 219.3 81.9852 219.348 82.0298C219.434 82.1085 219.545 82.1528 219.662 82.1539C219.778 82.1549 219.891 82.1129 219.978 82.0357C220.065 81.9586 220.12 81.8519 220.133 81.7362C220.146 81.6206 220.116 81.5043 220.048 81.4098Z" fill="#1F264C"/>
<path d="M230.33 94.0001C230.203 93.85 230.123 93.6658 230.1 93.4705C230.078 93.2752 230.113 93.0775 230.202 92.9022C230.291 92.7268 230.429 92.5816 230.601 92.4846C230.772 92.3876 230.967 92.3432 231.164 92.3569C231.36 92.3706 231.547 92.4419 231.703 92.5617C231.859 92.6815 231.976 92.8447 232.04 93.0307C232.104 93.2167 232.111 93.4174 232.061 93.6076C232.011 93.7978 231.907 93.9691 231.76 94.1001C231.66 94.1892 231.544 94.2573 231.418 94.3006C231.291 94.3439 231.157 94.3614 231.024 94.3521C230.891 94.3427 230.761 94.3068 230.641 94.2463C230.522 94.1859 230.416 94.1022 230.33 94.0001ZM231.7 92.8101C231.644 92.7062 231.565 92.616 231.47 92.546C231.375 92.4761 231.265 92.4281 231.149 92.4055C231.033 92.3829 230.914 92.3863 230.799 92.4155C230.685 92.4447 230.578 92.4988 230.487 92.5741C230.396 92.6494 230.322 92.7439 230.272 92.8509C230.222 92.9579 230.196 93.0747 230.196 93.1929C230.197 93.3111 230.223 93.4277 230.274 93.5344C230.325 93.6412 230.399 93.7353 230.49 93.8101C230.546 93.9141 230.625 94.0043 230.72 94.0742C230.815 94.1442 230.925 94.1922 231.041 94.2148C231.157 94.2373 231.277 94.2339 231.391 94.2048C231.506 94.1756 231.612 94.1214 231.703 94.0461C231.794 93.9708 231.868 93.8763 231.918 93.7693C231.968 93.6623 231.994 93.5455 231.994 93.4274C231.993 93.3092 231.967 93.1925 231.916 93.0858C231.865 92.9791 231.792 92.8849 231.7 92.8101V92.8101Z" fill="#1F264C"/>
<path d="M156.628 144.71C158.068 141.53 161.708 139.84 165.198 139.59C168.688 139.34 172.128 140.25 175.568 140.87C179.008 141.49 182.668 141.87 185.898 140.49C191.898 138 194.298 130.9 198.898 126.33C200.062 125.173 201.365 124.165 202.778 123.33C214.778 116.39 231.858 116.88 241.618 127.07C242.998 128.29 242.898 130.81 241.358 131.5C238.028 133.22 233.818 131.21 230.238 132.84C229.834 133.043 229.49 133.346 229.238 133.72C228.608 141.42 222.998 145.4 216.038 140.93C215.284 140.754 214.51 140.683 213.738 140.72C212.468 140.816 211.246 141.248 210.198 141.97C209.128 142.708 208.172 143.597 207.358 144.61C205.728 146.61 204.438 148.86 202.568 150.61C197.478 155.42 189.508 155.27 182.628 153.92C175.748 152.57 168.698 150.32 161.888 151.92C159.708 152.44 157.568 153.36 155.318 153.29C153.068 153.22 150.638 151.68 150.598 149.43L151.998 148.4" fill="#33CC99"/>
<path d="M177.711 141.46L177.801 141.27C188.801 146.61 198.251 139.27 207.401 132.14L209.771 130.32C214.136 127.1 219.545 125.624 224.941 126.18C227.531 126.384 230.08 126.953 232.511 127.87L232.431 128.06C232.301 128.01 219.821 122.89 209.901 130.48L207.531 132.31C198.321 139.46 188.801 146.86 177.711 141.46Z" fill="#1F264C"/>
<path d="M184.429 111C186.579 106.23 190.429 102 195.519 100.67C200.609 99.3403 206.719 101.93 208.299 106.91C211.219 102.43 214.299 97.7504 219.089 95.3004C223.879 92.8504 230.709 93.6104 233.239 98.3004C233.74 99.3076 234.015 100.412 234.044 101.537C234.074 102.661 233.857 103.778 233.409 104.81C232.989 105.875 232.354 106.842 231.543 107.65C230.733 108.459 229.765 109.092 228.699 109.51C229.599 107.86 231.929 108.45 232.889 109.67C233.166 110.041 233.36 110.467 233.458 110.919C233.556 111.371 233.557 111.838 233.459 112.29C233.238 113.228 232.774 114.091 232.114 114.793C231.454 115.495 230.622 116.011 229.699 116.29C225.139 117.12 220.069 115.92 216.699 119.9C211.699 126.08 206.699 131.85 200.289 136.5C199.289 137.31 198.289 138.1 197.199 138.86C196.109 139.62 195.079 140.35 193.989 141.05C191.069 142.91 187.859 144.6 184.399 144.67C180.279 144.77 176.269 142.56 172.189 143.16C165.719 144.1 161.259 151.73 154.729 151.33C150.009 151.04 146.859 145.94 147.219 141.51C147.729 135.21 154.299 132.08 159.829 131.12C165.059 130.22 170.309 131.07 175.069 128.01C176.64 126.998 177.979 125.666 178.999 124.1C181.599 120.23 182.509 115.26 184.429 111Z" fill="#33CC99"/>
<path d="M157.91 142.64C157.96 142.57 163.91 135.79 180.17 135.08C191.8 134.58 199.28 124.93 204.74 117.88C206.96 115.02 208.88 112.54 210.61 111.27C216.56 106.95 226.18 107.21 226.27 107.21V107.42C226.17 107.42 216.62 107.16 210.74 111.42C209.02 112.67 207.11 115.14 204.9 117.99C199.42 125.07 191.9 134.77 180.18 135.27C164 135.98 158.12 142.68 158.07 142.75L157.91 142.64Z" fill="#1F264C"/>
<path d="M180.211 135.29L180.141 135.09C188.581 132.39 192.371 124.93 194.071 119.15C195.199 115.233 195.761 111.175 195.741 107.1H196.001C196.008 111.199 195.439 115.279 194.311 119.22C192.561 125 188.731 132.57 180.211 135.29Z" fill="#1F264C"/>
<path d="M206.66 115.43C208.404 113.847 210.466 112.656 212.709 111.937C214.951 111.218 217.321 110.987 219.66 111.26C221.804 111.487 223.888 112.103 225.81 113.08L225.7 113.26C223.802 112.299 221.745 111.689 219.63 111.46C217.319 111.194 214.978 111.426 212.764 112.138C210.55 112.85 208.513 114.027 206.79 115.59L206.66 115.43Z" fill="#1F264C"/>
<path d="M177.289 135.49L177.219 135.29C184.989 132.39 187.579 127.6 188.369 124.1C188.895 121.791 188.85 119.388 188.239 117.1L188.439 117.03C189.051 119.348 189.099 121.78 188.579 124.12C187.769 127.7 185.159 132.55 177.289 135.49Z" fill="#1F264C"/>
<path d="M206.418 133.17L206.348 132.97C213.418 130.49 217.718 131.5 220.088 132.8C221.579 133.562 222.798 134.767 223.578 136.25L223.378 136.33C222.61 134.906 221.433 133.746 219.998 133C217.638 131.71 213.398 130.72 206.418 133.17Z" fill="#1F264C"/>
<path d="M195.62 105.28C195.55 105.124 195.527 104.95 195.554 104.781C195.582 104.611 195.66 104.454 195.777 104.328C195.894 104.203 196.045 104.115 196.212 104.075C196.379 104.036 196.554 104.046 196.715 104.106C196.876 104.166 197.016 104.272 197.117 104.411C197.218 104.549 197.275 104.715 197.282 104.887C197.289 105.058 197.245 105.228 197.156 105.374C197.067 105.521 196.936 105.638 196.78 105.71C196.569 105.806 196.329 105.814 196.112 105.734C195.895 105.653 195.718 105.49 195.62 105.28ZM197.02 104.65C196.967 104.531 196.88 104.43 196.769 104.361C196.658 104.291 196.529 104.256 196.399 104.26C196.268 104.263 196.141 104.306 196.035 104.382C195.928 104.457 195.847 104.563 195.801 104.685C195.754 104.808 195.745 104.941 195.775 105.068C195.804 105.195 195.871 105.311 195.966 105.401C196.061 105.49 196.181 105.549 196.31 105.571C196.439 105.592 196.571 105.574 196.69 105.52C196.846 105.445 196.965 105.311 197.023 105.149C197.081 104.986 197.073 104.807 197 104.65H197.02Z" fill="#1F264C"/>
<path d="M223.998 137.79C223.923 137.62 223.918 137.427 223.983 137.253C224.048 137.079 224.179 136.938 224.348 136.86C224.516 136.785 224.707 136.78 224.88 136.846C225.052 136.911 225.191 137.042 225.268 137.21C225.307 137.293 225.329 137.383 225.332 137.475C225.336 137.567 225.322 137.659 225.29 137.745C225.259 137.831 225.211 137.911 225.148 137.978C225.086 138.046 225.011 138.101 224.928 138.14C224.758 138.214 224.565 138.22 224.391 138.154C224.218 138.089 224.076 137.958 223.998 137.79ZM225.078 137.3C225.053 137.241 225.016 137.187 224.97 137.143C224.924 137.098 224.87 137.063 224.81 137.04C224.751 137.016 224.687 137.005 224.623 137.007C224.559 137.009 224.496 137.023 224.438 137.05C224.32 137.104 224.228 137.203 224.181 137.324C224.134 137.445 224.137 137.58 224.188 137.7C224.248 137.806 224.346 137.886 224.462 137.924C224.578 137.962 224.704 137.955 224.815 137.905C224.926 137.855 225.015 137.765 225.064 137.653C225.112 137.541 225.117 137.415 225.078 137.3Z" fill="#1F264C"/>
<path d="M186.738 115.49C186.673 115.344 186.653 115.182 186.68 115.024C186.707 114.866 186.78 114.72 186.89 114.603C187 114.487 187.143 114.406 187.299 114.371C187.455 114.335 187.618 114.347 187.768 114.404C187.917 114.462 188.047 114.562 188.139 114.693C188.232 114.823 188.283 114.979 188.288 115.139C188.292 115.299 188.249 115.457 188.163 115.592C188.078 115.728 187.954 115.835 187.808 115.9C187.612 115.985 187.39 115.99 187.19 115.913C186.99 115.837 186.828 115.685 186.738 115.49V115.49ZM188.018 114.91C187.969 114.802 187.889 114.71 187.787 114.648C187.686 114.585 187.569 114.554 187.449 114.558C187.33 114.563 187.215 114.602 187.119 114.672C187.023 114.742 186.949 114.839 186.908 114.951C186.867 115.063 186.86 115.184 186.889 115.3C186.917 115.416 186.979 115.52 187.067 115.601C187.155 115.681 187.265 115.733 187.382 115.751C187.5 115.769 187.62 115.751 187.728 115.7C187.798 115.666 187.86 115.619 187.911 115.56C187.962 115.502 188.002 115.435 188.027 115.361C188.052 115.288 188.062 115.21 188.057 115.133C188.052 115.056 188.032 114.98 187.998 114.91H188.018Z" fill="#1F264C"/>
<path d="M227.109 107.42C227.034 107.257 227.027 107.071 227.088 106.902C227.15 106.734 227.276 106.596 227.439 106.52C227.52 106.483 227.608 106.463 227.698 106.46C227.787 106.457 227.876 106.472 227.959 106.504C228.043 106.535 228.12 106.583 228.185 106.644C228.25 106.705 228.302 106.779 228.339 106.86C228.376 106.942 228.396 107.03 228.399 107.119C228.402 107.208 228.387 107.297 228.355 107.381C228.324 107.464 228.276 107.541 228.215 107.606C228.154 107.671 228.08 107.723 227.999 107.76C227.918 107.797 227.831 107.817 227.743 107.82C227.654 107.823 227.566 107.808 227.483 107.776C227.4 107.744 227.325 107.697 227.26 107.636C227.196 107.575 227.145 107.501 227.109 107.42V107.42ZM228.109 106.95C228.084 106.894 228.048 106.843 228.003 106.8C227.959 106.758 227.906 106.725 227.848 106.704C227.79 106.682 227.728 106.673 227.667 106.676C227.605 106.678 227.545 106.694 227.489 106.72C227.434 106.746 227.384 106.782 227.343 106.827C227.302 106.872 227.27 106.924 227.249 106.981C227.228 107.038 227.219 107.099 227.221 107.16C227.224 107.22 227.238 107.28 227.264 107.335C227.29 107.39 227.326 107.44 227.371 107.481C227.415 107.522 227.468 107.554 227.525 107.575C227.582 107.596 227.643 107.605 227.703 107.603C227.764 107.6 227.824 107.586 227.879 107.56C227.984 107.516 228.07 107.434 228.12 107.331C228.17 107.228 228.18 107.11 228.149 107L228.109 106.95Z" fill="#1F264C"/>
<path d="M226.38 114.23C226.325 114.108 226.307 113.971 226.33 113.839C226.352 113.706 226.413 113.583 226.505 113.485C226.597 113.387 226.716 113.318 226.847 113.288C226.978 113.258 227.115 113.267 227.241 113.314C227.366 113.362 227.475 113.446 227.554 113.555C227.632 113.664 227.676 113.795 227.68 113.929C227.684 114.063 227.649 114.196 227.577 114.31C227.506 114.424 227.403 114.515 227.28 114.57C227.116 114.642 226.93 114.646 226.761 114.583C226.593 114.519 226.457 114.393 226.38 114.23ZM227.43 113.76C227.406 113.704 227.37 113.653 227.325 113.61C227.28 113.568 227.227 113.535 227.169 113.514C227.111 113.492 227.05 113.483 226.988 113.485C226.927 113.488 226.866 113.503 226.81 113.53C226.755 113.555 226.706 113.591 226.664 113.635C226.623 113.679 226.59 113.731 226.569 113.787C226.548 113.844 226.538 113.904 226.54 113.965C226.542 114.025 226.556 114.085 226.58 114.14C226.605 114.195 226.641 114.245 226.685 114.286C226.729 114.328 226.781 114.36 226.838 114.381C226.894 114.403 226.955 114.413 227.015 114.411C227.076 114.409 227.135 114.395 227.19 114.37C227.247 114.346 227.297 114.311 227.34 114.268C227.382 114.224 227.416 114.172 227.438 114.115C227.461 114.059 227.471 113.998 227.47 113.937C227.469 113.876 227.455 113.816 227.43 113.76Z" fill="#1F264C"/>
<path d="M233.64 128.75C233.561 128.57 233.536 128.37 233.569 128.176C233.602 127.982 233.692 127.802 233.827 127.659C233.962 127.516 234.136 127.416 234.328 127.371C234.519 127.326 234.72 127.339 234.904 127.408C235.089 127.477 235.249 127.598 235.364 127.758C235.48 127.917 235.546 128.107 235.554 128.303C235.562 128.5 235.512 128.695 235.41 128.863C235.308 129.031 235.158 129.166 234.98 129.25C234.86 129.306 234.729 129.338 234.596 129.344C234.463 129.349 234.33 129.328 234.205 129.282C234.08 129.235 233.966 129.164 233.869 129.073C233.772 128.981 233.694 128.871 233.64 128.75V128.75ZM235.29 127.99C235.201 127.798 235.04 127.648 234.842 127.573C234.644 127.499 234.424 127.504 234.23 127.59C234.038 127.681 233.888 127.844 233.813 128.044C233.739 128.243 233.745 128.464 233.83 128.66C233.92 128.852 234.081 129.001 234.279 129.076C234.477 129.151 234.696 129.145 234.89 129.06C234.986 129.016 235.073 128.955 235.145 128.878C235.217 128.801 235.273 128.711 235.31 128.613C235.347 128.514 235.365 128.409 235.361 128.304C235.358 128.199 235.334 128.095 235.29 128V127.99Z" fill="#1F264C"/>
<path d="M18.8891 138.19C18.6521 138.746 18.5394 139.346 18.5591 139.95C18.6002 140.484 18.7719 140.999 19.0591 141.45C18.3871 141.119 17.8368 140.583 17.4867 139.921C17.1366 139.258 17.0044 138.502 17.1091 137.76C17.3791 136.66 18.3491 136.22 18.6991 136.58C18.8496 136.817 18.9448 137.085 18.9777 137.364C19.0106 137.642 18.9803 137.925 18.8891 138.19Z" fill="#1D3B4C"/>
<path d="M24.2804 140.77C24.0527 141.328 23.9437 141.928 23.9604 142.53C24 143.063 24.1681 143.577 24.4504 144.03C23.9169 143.766 23.4593 143.37 23.1204 142.88C22.589 142.148 22.3696 141.234 22.5104 140.34C22.7804 139.24 23.7504 138.8 24.1004 139.16C24.252 139.397 24.347 139.665 24.3782 139.944C24.4095 140.223 24.376 140.506 24.2804 140.77V140.77Z" fill="#1D3B4C"/>
<path d="M29.7173 143.89C29.4802 144.446 29.3676 145.046 29.3873 145.65C29.4258 146.184 29.5978 146.7 29.8873 147.15C29.2152 146.819 28.6649 146.283 28.3148 145.621C27.9647 144.958 27.8326 144.202 27.9373 143.46C28.2073 142.37 29.1773 141.92 29.5273 142.28C29.6777 142.517 29.7729 142.785 29.8058 143.063C29.8387 143.342 29.8084 143.625 29.7173 143.89V143.89Z" fill="#1D3B4C"/>
<path d="M16.6776 143.27C16.916 142.771 17.2568 142.328 17.6776 141.97C18.0663 141.678 18.5187 141.482 18.9976 141.4C18.4907 141.182 17.9352 141.103 17.3876 141.17C16.9765 141.206 16.5771 141.325 16.2129 141.519C15.8487 141.714 15.5272 141.979 15.2676 142.3C14.6676 143.15 14.9476 144.1 15.4176 144.12C15.8876 144.14 16.3576 143.7 16.6776 143.27Z" fill="#1D3B4C"/>
<path d="M22.2975 145.93C22.5359 145.432 22.8767 144.989 23.2975 144.63C23.6906 144.333 24.1508 144.137 24.6375 144.06C23.999 143.796 23.2931 143.741 22.6211 143.902C21.9492 144.064 21.3458 144.434 20.8975 144.96C20.2975 145.81 20.5875 146.76 21.0475 146.78C21.5075 146.8 21.9975 146.36 22.2975 145.93Z" fill="#1D3B4C"/>
<path d="M13.4091 138C13.3757 138.355 13.4201 138.713 13.5391 139.05C13.6532 139.347 13.8428 139.609 14.0891 139.81C13.7236 139.771 13.3768 139.628 13.0891 139.4C12.8749 139.244 12.6939 139.047 12.5566 138.82C12.4193 138.594 12.3283 138.342 12.2891 138.08C12.2891 137.41 12.7191 136.98 12.9791 137.08C13.2391 137.18 13.3791 137.67 13.4091 138Z" fill="#1D3B4C"/>
<path d="M12.2281 140.55C12.4461 140.268 12.7223 140.036 13.0381 139.87C13.3233 139.73 13.6409 139.668 13.9581 139.69C13.6653 139.479 13.3187 139.354 12.9581 139.33C12.6959 139.299 12.4301 139.32 12.1761 139.392C11.9221 139.464 11.6848 139.586 11.4781 139.75C10.9881 140.21 11.0381 140.85 11.3281 140.92C11.6181 140.99 11.9981 140.77 12.2281 140.55Z" fill="#1D3B4C"/>
<path d="M27.6781 117.12C32.959 127.918 36.3739 139.533 37.7781 151.47L38.4481 151.53C36.9279 139.635 33.4439 128.075 28.1381 117.32C26.9281 114.91 25.6381 112.06 23.0181 110.9C22.9681 110.9 22.9381 110.96 23.0181 110.98C25.3681 112.17 26.5381 114.86 27.6781 117.12Z" fill="#1D3B4C"/>
<path d="M36.5104 151.34C30.2352 140.617 22.4524 130.851 13.4004 122.34C13.3104 122.25 13.1604 122.41 13.2504 122.5C22.1072 130.962 29.7136 140.643 35.8404 151.25L36.5104 151.34Z" fill="#1D3B4C"/>
<path d="M27.7196 111C27.2376 111.433 26.8555 111.965 26.5996 112.56C26.3882 113.1 26.3193 113.685 26.3996 114.26C25.992 113.758 25.7231 113.158 25.6196 112.52C25.5258 112.045 25.5279 111.556 25.6258 111.082C25.7237 110.608 25.9154 110.159 26.1896 109.76C26.9496 108.76 28.1096 108.82 28.2796 109.34C28.4496 109.86 28.0996 110.5 27.7196 111Z" fill="#1D3B4C"/>
<path d="M25.3491 119.57C25.8612 119.169 26.4552 118.885 27.0891 118.74C27.656 118.632 28.2409 118.67 28.7891 118.85C28.364 118.362 27.8246 117.987 27.2191 117.76C26.7712 117.585 26.2928 117.501 25.8121 117.513C25.3313 117.525 24.8578 117.633 24.4191 117.83C23.3491 118.41 23.1491 119.55 23.6291 119.83C23.9169 119.919 24.2211 119.941 24.5189 119.896C24.8167 119.851 25.1005 119.74 25.3491 119.57V119.57Z" fill="#1D3B4C"/>
<path d="M27.2085 123.61C27.7216 123.212 28.3156 122.933 28.9485 122.79C29.5154 122.682 30.1003 122.72 30.6485 122.9C30.1202 122.291 29.4122 121.866 28.6267 121.687C27.8412 121.507 27.0189 121.581 26.2785 121.9C25.2085 122.48 25.0085 123.63 25.4885 123.9C25.9685 124.17 26.6485 123.89 27.2085 123.61Z" fill="#1D3B4C"/>
<path d="M18.2974 131.66C18.8106 131.26 19.4042 130.977 20.0374 130.83C20.6009 130.721 21.1827 130.759 21.7274 130.94C21.311 130.449 20.7731 130.077 20.1674 129.86C19.7206 129.681 19.2424 129.594 18.7613 129.604C18.2802 129.615 17.8061 129.722 17.3674 129.92C16.2974 130.5 16.0974 131.64 16.5674 131.92C17.0374 132.2 17.7274 131.94 18.2974 131.66Z" fill="#1D3B4C"/>
<path d="M14.5708 127.62C15.0827 127.221 15.6771 126.941 16.3108 126.8C16.8736 126.691 17.4548 126.726 18.0008 126.9C17.5845 126.409 17.0465 126.037 16.4408 125.82C15.9935 125.643 15.5155 125.558 15.0348 125.568C14.554 125.579 14.0802 125.684 13.6408 125.88C12.5708 126.46 12.3708 127.61 12.8408 127.88C13.3108 128.15 14.0008 127.9 14.5708 127.62Z" fill="#1D3B4C"/>
<path d="M30.4273 115.64C29.882 115.988 29.4209 116.453 29.0773 117C28.7813 117.497 28.6194 118.062 28.6073 118.64C28.2849 118.08 28.1127 117.447 28.1073 116.8C28.092 116.316 28.1725 115.834 28.3441 115.381C28.5157 114.928 28.7751 114.513 29.1073 114.16C30.0073 113.34 31.1073 113.54 31.2373 114.08C31.3673 114.62 30.8773 115.2 30.4273 115.64Z" fill="#1D3B4C"/>
<path d="M33.3001 120.31C32.599 120.464 31.9548 120.81 31.4401 121.31C31.0167 121.776 30.7508 122.364 30.6801 122.99C30.3525 122.255 30.205 121.453 30.2501 120.65C30.2449 120.111 30.3851 119.58 30.6562 119.114C30.9272 118.647 31.3189 118.263 31.7901 118C33.0101 117.46 34.4301 118.2 34.4801 118.85C34.5301 119.5 33.9101 120 33.3001 120.31Z" fill="#1D3B4C"/>
<path d="M36.1085 127.22C35.3961 127.248 34.7048 127.469 34.1085 127.86C33.6242 128.253 33.2746 128.788 33.1085 129.39C32.917 128.608 32.917 127.791 33.1085 127.01C33.215 126.489 33.4555 126.004 33.8062 125.604C34.1569 125.205 34.6058 124.903 35.1085 124.73C36.4085 124.4 37.6785 125.37 37.6285 126.03C37.5785 126.69 36.7685 127 36.1085 127.22Z" fill="#1D3B4C"/>
<path d="M25.3488 130.75C24.7932 130.908 24.2917 131.216 23.8988 131.64C23.5758 132.04 23.3931 132.535 23.3788 133.05C23.0634 132.473 22.8951 131.827 22.8888 131.17C22.8713 130.743 22.9643 130.319 23.1588 129.939C23.3533 129.559 23.6426 129.235 23.9988 129C24.9988 128.49 26.1588 129 26.2388 129.54C26.3188 130.08 25.8388 130.46 25.3488 130.75Z" fill="#1D3B4C"/>
<path d="M21.8377 112C22.1257 111.742 22.4672 111.55 22.8377 111.44C23.1652 111.351 23.5103 111.351 23.8377 111.44C23.5688 111.152 23.2209 110.95 22.8377 110.86C22.2881 110.694 21.6952 110.751 21.1877 111.02C20.5777 111.41 20.5077 112.1 20.7977 112.24C21.0877 112.38 21.5177 112.15 21.8377 112Z" fill="#1D3B4C"/>
<path d="M23.3685 109.3C23.2682 109.671 23.2444 110.059 23.2985 110.44C23.3689 110.778 23.5198 111.093 23.7385 111.36C23.3756 111.236 23.0515 111.018 22.7985 110.73C22.6012 110.523 22.4474 110.278 22.3461 110.01C22.2447 109.742 22.198 109.456 22.2085 109.17C22.2985 108.45 22.8785 108.09 23.1285 108.29C23.3785 108.49 23.3985 108.93 23.3685 109.3Z" fill="#1D3B4C"/>
<path d="M11.9984 123.63C12.2867 123.372 12.6281 123.181 12.9984 123.07C13.3264 122.985 13.6705 122.985 13.9984 123.07C13.7259 122.786 13.3794 122.585 12.9984 122.49C12.4453 122.325 11.8499 122.382 11.3384 122.65C10.7384 123.04 10.6684 123.73 10.9584 123.87C11.2484 124.01 11.6684 123.82 11.9984 123.63Z" fill="#1D3B4C"/>
<path d="M13.7799 121C13.643 121.363 13.5884 121.753 13.6199 122.14C13.6551 122.479 13.7793 122.804 13.9799 123.08C13.626 122.93 13.3187 122.688 13.0899 122.38C12.7345 121.927 12.5727 121.352 12.6399 120.78C12.7799 120.07 13.3899 119.78 13.6399 119.98C13.7395 120.128 13.8039 120.297 13.8281 120.474C13.8524 120.65 13.8359 120.83 13.7799 121Z" fill="#1D3B4C"/>
<path d="M13.0009 139.54C14.7648 139.884 16.4973 140.372 18.1809 141C21.2545 142.209 24.23 143.653 27.0809 145.32C28.4909 146.12 29.9209 146.9 31.3009 147.76C31.9518 148.145 32.5765 148.573 33.1709 149.04C33.9269 149.703 34.6385 150.414 35.3009 151.17L34.6109 151.12C33.3167 149.797 31.8699 148.632 30.3009 147.65C24.8809 144.33 19.2409 140.91 12.9609 139.57C12.9209 139.58 12.9309 139.53 13.0009 139.54Z" fill="#1D3B4C"/>
<path d="M86.0581 148.08C85.0581 144.71 81.7581 142.5 78.3481 141.74C74.9381 140.98 71.3481 141.37 67.8981 141.48C64.4481 141.59 60.7281 141.38 57.7381 139.57C52.1781 136.23 50.8481 128.85 46.9681 123.65C45.9834 122.35 44.8413 121.178 43.5681 120.16C32.7481 111.52 15.7581 109.48 4.56807 118.16C3.01807 119.16 2.73807 121.67 4.15807 122.59C7.20807 124.78 11.6581 123.41 14.9681 125.59C15.3457 125.844 15.6548 126.187 15.8681 126.59C15.3481 134.29 20.3081 139.05 27.8681 135.67C28.6403 135.604 29.4181 135.648 30.1781 135.8C31.4209 136.075 32.5653 136.683 33.4881 137.56C34.438 138.435 35.2535 139.446 35.9081 140.56C37.2381 142.75 38.1781 145.19 39.7581 147.21C44.1081 152.7 51.9981 153.73 58.9981 153.41C65.9981 153.09 73.2981 151.9 79.7981 154.52C81.8781 155.36 83.8581 156.59 86.0881 156.84C88.3181 157.09 90.9581 155.94 91.3381 153.73L90.0381 152.4" fill="#66C698"/>
<path d="M65.69 141.74L65.63 141.54C53.99 145.21 45.71 136.54 37.7 128.15L35.63 126C31.7892 122.171 26.6577 119.914 21.24 119.67C18.647 119.487 16.0412 119.672 13.5 120.22L13.56 120.43C13.69 120.43 26.79 117.17 35.48 126.14L37.55 128.3C45.6 136.73 53.93 145.45 65.69 141.74Z" fill="#1F264C"/>
<path d="M63.5474 110.6C62.1274 105.6 58.9274 100.76 54.1074 98.7402C49.2874 96.7202 42.8474 98.3402 40.5374 103.03C38.3274 98.1602 35.9274 93.0302 31.5874 89.9502C27.2474 86.8702 20.3474 86.5702 17.1474 90.8602C16.4984 91.7795 16.0591 92.8299 15.8604 93.9375C15.6617 95.045 15.7084 96.1827 15.9974 97.2702C16.2601 98.3879 16.7511 99.4392 17.4394 100.358C18.1278 101.277 18.9986 102.044 19.9974 102.61C19.3474 100.85 16.9974 101.09 15.8274 102.15C15.4925 102.474 15.2302 102.865 15.0579 103.298C14.8855 103.731 14.8069 104.195 14.8274 104.66C14.9153 105.62 15.2546 106.539 15.8112 107.326C16.3677 108.112 17.1218 108.738 17.9974 109.14C22.3874 110.63 27.5774 110.2 30.2874 114.63C34.3474 121.49 38.4374 127.93 44.0574 133.47C44.9474 134.42 45.8474 135.35 46.7774 136.26C47.7074 137.17 48.6574 138.05 49.6274 138.9C52.2374 141.17 55.1674 143.31 58.5774 143.9C62.6374 144.6 66.9274 143.02 70.8774 144.21C77.1374 146.09 80.4174 154.3 86.9374 154.87C91.6474 155.28 95.5174 150.7 95.8174 146.27C96.2374 139.96 90.2074 135.9 84.8774 134.13C79.8774 132.46 74.5274 132.53 70.2574 128.8C68.8762 127.573 67.7659 126.071 66.9974 124.39C64.9974 120.18 64.8174 115.12 63.5474 110.6Z" fill="#66C698"/>
<path d="M85.1087 145.83C85.1087 145.76 80.1888 138.18 64.1988 135.08C52.7688 132.86 46.8088 122.21 42.4488 114.44C40.6688 111.27 39.1388 108.54 37.6088 107.03C32.3688 101.87 22.8188 100.71 22.7188 100.7V100.91C22.8088 100.91 32.2887 102.07 37.4788 107.18C38.9888 108.67 40.4788 111.39 42.2787 114.54C46.6587 122.35 52.6587 133.05 64.1787 135.28C80.0788 138.37 84.8987 145.87 84.9487 145.95L85.1087 145.83Z" fill="#1F264C"/>
<path d="M64.1407 135.28L64.2307 135.09C56.2807 131.17 53.6307 123.23 52.8107 117.26C52.2801 113.221 52.3205 109.127 52.9307 105.1H52.7207C52.1048 109.15 52.0644 113.268 52.6007 117.33C53.4307 123.31 56.1007 131.32 64.1407 135.28Z" fill="#1F264C"/>
<path d="M40.8986 111.72C39.4008 109.906 37.5333 108.433 35.4209 107.398C33.3085 106.363 30.9997 105.791 28.6486 105.72C26.4981 105.632 24.3497 105.937 22.3086 106.62L22.3786 106.81C24.3986 106.142 26.5231 105.847 28.6486 105.94C30.9754 106.018 33.2583 106.595 35.3438 107.63C37.4292 108.665 39.2688 110.134 40.7386 111.94L40.8986 111.72Z" fill="#1F264C"/>
<path d="M66.9983 135.9L67.0983 135.72C59.8383 131.72 57.9883 126.59 57.7183 123C57.5444 120.645 57.946 118.284 58.8883 116.12L58.6983 116.02C57.7415 118.222 57.3331 120.624 57.5083 123.02C57.7683 126.65 59.6383 131.83 66.9983 135.9Z" fill="#1F264C"/>
<path d="M38.5286 129.31L38.6186 129.12C31.9986 125.62 27.6186 125.99 25.0586 126.92C23.4552 127.446 22.0564 128.46 21.0586 129.82L21.2386 129.93C22.2136 128.621 23.563 127.637 25.1086 127.11C27.6386 126.2 31.9986 125.85 38.5286 129.31Z" fill="#1F264C"/>
<path d="M52.1193 103.57C51.9743 103.477 51.8601 103.343 51.7913 103.186C51.7224 103.028 51.702 102.853 51.7325 102.683C51.7631 102.514 51.8433 102.357 51.9629 102.233C52.0825 102.11 52.2362 102.024 52.4045 101.988C52.5728 101.951 52.7482 101.965 52.9084 102.029C53.0685 102.092 53.2063 102.201 53.3043 102.343C53.4023 102.485 53.456 102.652 53.4586 102.824C53.4613 102.997 53.4128 103.166 53.3193 103.31C53.2583 103.407 53.1787 103.491 53.085 103.556C52.9914 103.622 52.8856 103.668 52.7739 103.692C52.6621 103.716 52.5467 103.718 52.4343 103.697C52.3219 103.676 52.2148 103.633 52.1193 103.57ZM52.2293 103.4C52.3773 103.491 52.5549 103.522 52.7247 103.484C52.8945 103.447 53.0432 103.345 53.1393 103.2C53.1962 103.128 53.2374 103.045 53.2605 102.957C53.2835 102.868 53.2878 102.775 53.2732 102.685C53.2585 102.594 53.2251 102.508 53.1752 102.431C53.1252 102.354 53.0598 102.289 52.9831 102.239C52.9064 102.188 52.8201 102.155 52.7297 102.14C52.6393 102.125 52.5467 102.129 52.4579 102.151C52.3691 102.174 52.2861 102.215 52.214 102.272C52.1419 102.328 52.0824 102.399 52.0393 102.48C51.944 102.628 51.9105 102.807 51.946 102.979C51.9816 103.151 52.0833 103.302 52.2293 103.4V103.4Z" fill="#1F264C"/>
<path d="M19.4507 131.48C19.3389 131.402 19.2524 131.293 19.202 131.166C19.1515 131.039 19.1392 130.9 19.1666 130.767C19.194 130.633 19.2599 130.51 19.3562 130.413C19.4524 130.317 19.5749 130.25 19.7085 130.222C19.8421 130.194 19.9809 130.206 20.108 130.255C20.2351 130.305 20.3448 130.391 20.4237 130.503C20.5025 130.614 20.5471 130.746 20.5519 130.882C20.5567 131.019 20.5215 131.154 20.4507 131.27C20.401 131.352 20.335 131.423 20.2568 131.478C20.1786 131.534 20.0899 131.572 19.9962 131.592C19.9025 131.612 19.8057 131.612 19.7119 131.593C19.618 131.574 19.5291 131.535 19.4507 131.48ZM19.5607 131.3C19.6143 131.342 19.676 131.372 19.7419 131.388C19.8078 131.405 19.8763 131.408 19.9433 131.396C20.0102 131.385 20.074 131.36 20.1307 131.322C20.1874 131.285 20.2357 131.236 20.2726 131.179C20.3095 131.122 20.3341 131.058 20.3448 130.991C20.3556 130.924 20.3524 130.855 20.3353 130.79C20.3182 130.724 20.2876 130.663 20.2455 130.609C20.2034 130.556 20.1507 130.512 20.0907 130.48C20.0371 130.445 19.977 130.422 19.9141 130.41C19.8511 130.399 19.7865 130.4 19.7241 130.414C19.6617 130.428 19.6027 130.455 19.5506 130.492C19.4985 130.529 19.4543 130.576 19.4207 130.63C19.352 130.738 19.3282 130.869 19.3543 130.994C19.3805 131.119 19.4545 131.229 19.5607 131.3Z" fill="#1F264C"/>
<path d="M59.4786 115C59.3427 114.915 59.2355 114.79 59.1706 114.643C59.1056 114.496 59.0859 114.333 59.114 114.174C59.1421 114.016 59.2166 113.87 59.3282 113.754C59.4397 113.638 59.5832 113.558 59.7404 113.524C59.8975 113.49 60.0613 113.504 60.2107 113.563C60.3601 113.622 60.4885 113.725 60.5795 113.858C60.6704 113.99 60.7199 114.147 60.7215 114.308C60.7232 114.468 60.6769 114.626 60.5886 114.76C60.472 114.938 60.2904 115.063 60.0827 115.108C59.8751 115.152 59.6582 115.114 59.4786 115V115ZM59.5886 114.82C59.7221 114.905 59.8831 114.935 60.038 114.903C60.1928 114.871 60.3293 114.781 60.4186 114.65C60.4842 114.551 60.5189 114.435 60.5184 114.316C60.5178 114.198 60.4821 114.082 60.4156 113.983C60.3492 113.885 60.255 113.809 60.145 113.764C60.0351 113.719 59.9143 113.708 59.798 113.731C59.6817 113.755 59.575 113.813 59.4916 113.897C59.4081 113.982 59.3516 114.089 59.3292 114.206C59.3068 114.323 59.3194 114.443 59.3656 114.553C59.4118 114.662 59.4894 114.755 59.5886 114.82V114.82Z" fill="#1F264C"/>
<path d="M20.9299 101C20.7816 100.902 20.6776 100.75 20.6402 100.576C20.6028 100.402 20.635 100.221 20.7299 100.07C20.7776 99.9943 20.84 99.9288 20.9135 99.8775C20.987 99.8262 21.07 99.7902 21.1576 99.7715C21.2453 99.7529 21.3358 99.752 21.4237 99.7689C21.5117 99.7859 21.5954 99.8203 21.6699 99.8702C21.7558 99.913 21.8316 99.9736 21.8924 100.048C21.9532 100.122 21.9976 100.208 22.0226 100.301C22.0476 100.394 22.0528 100.491 22.0377 100.585C22.0226 100.68 21.9876 100.771 21.935 100.851C21.8824 100.931 21.8135 101 21.7326 101.051C21.6517 101.103 21.5609 101.137 21.4659 101.151C21.371 101.165 21.2741 101.159 21.1817 101.133C21.0893 101.107 21.0035 101.062 20.9299 101ZM21.0499 100.83C21.128 100.881 21.2193 100.907 21.3122 100.905C21.4051 100.904 21.4955 100.875 21.572 100.822C21.6484 100.769 21.7075 100.695 21.7417 100.608C21.7759 100.522 21.7837 100.427 21.7641 100.336C21.7446 100.245 21.6985 100.162 21.6317 100.098C21.565 100.033 21.4806 99.9896 21.3891 99.9729C21.2977 99.9561 21.2034 99.9669 21.1181 100.004C21.0328 100.041 20.9603 100.102 20.9099 100.18C20.8484 100.283 20.8286 100.406 20.8547 100.523C20.8807 100.64 20.9505 100.743 21.0499 100.81V100.83Z" fill="#1F264C"/>
<path d="M20.6377 107.83C20.4887 107.73 20.3845 107.576 20.3471 107.4C20.3098 107.225 20.3423 107.042 20.4377 106.89C20.5421 106.757 20.6923 106.668 20.8589 106.639C21.0256 106.611 21.1968 106.646 21.3391 106.737C21.4815 106.828 21.5848 106.969 21.6289 107.132C21.673 107.296 21.6547 107.469 21.5777 107.62C21.5299 107.695 21.4676 107.761 21.3944 107.812C21.3212 107.864 21.2386 107.9 21.1513 107.92C21.064 107.939 20.9736 107.942 20.8855 107.926C20.7974 107.911 20.7132 107.878 20.6377 107.83V107.83ZM20.7477 107.65C20.8525 107.717 20.9798 107.741 21.1017 107.714C21.2236 107.688 21.3301 107.615 21.3977 107.51C21.4653 107.405 21.4886 107.278 21.4623 107.156C21.4361 107.034 21.3625 106.927 21.2577 106.86C21.2058 106.826 21.1479 106.803 21.0871 106.792C21.0264 106.781 20.9641 106.782 20.9037 106.795C20.8433 106.808 20.7861 106.833 20.7354 106.868C20.6846 106.903 20.6412 106.948 20.6077 107C20.5742 107.052 20.5513 107.11 20.5402 107.17C20.5291 107.231 20.5301 107.293 20.5431 107.354C20.5561 107.414 20.5808 107.471 20.6159 107.522C20.6511 107.573 20.6958 107.616 20.7477 107.65V107.65Z" fill="#1F264C"/>
<path d="M10.8604 121.21C10.6965 121.101 10.5685 120.946 10.4923 120.765C10.416 120.583 10.3949 120.383 10.4317 120.19C10.4684 119.997 10.5613 119.819 10.6988 119.678C10.8363 119.537 11.0122 119.44 11.2045 119.399C11.3969 119.358 11.5971 119.374 11.7802 119.446C11.9632 119.518 12.121 119.643 12.2337 119.804C12.3464 119.965 12.409 120.156 12.4138 120.353C12.4185 120.549 12.3652 120.743 12.2604 120.91C12.1893 121.023 12.0963 121.12 11.987 121.197C11.8776 121.273 11.7541 121.327 11.6236 121.355C11.4931 121.383 11.3584 121.384 11.2273 121.359C11.0962 121.334 10.9715 121.284 10.8604 121.21ZM11.0004 121C11.0889 121.057 11.1879 121.097 11.2917 121.116C11.3956 121.135 11.5021 121.133 11.6053 121.111C11.7085 121.088 11.8063 121.046 11.8929 120.986C11.9796 120.925 12.0535 120.849 12.1104 120.76C12.1954 120.627 12.2392 120.471 12.2361 120.313C12.233 120.155 12.1833 120.002 12.0931 119.872C12.0029 119.742 11.8764 119.642 11.7294 119.584C11.5824 119.527 11.4216 119.514 11.2672 119.547C11.1128 119.58 10.9717 119.659 10.8618 119.772C10.7519 119.886 10.678 120.029 10.6494 120.184C10.6209 120.34 10.639 120.5 10.7014 120.645C10.7639 120.79 10.8679 120.914 11.0004 121Z" fill="#1F264C"/>
<path d="M195.03 35.7695H45.6195C40.4557 35.7695 36.2695 39.9557 36.2695 45.1195V148.18C36.2695 153.343 40.4557 157.53 45.6195 157.53H195.03C200.193 157.53 204.38 153.343 204.38 148.18V45.1195C204.38 39.9557 200.193 35.7695 195.03 35.7695Z" fill="#081330"/>
<path d="M188.049 44.5996H51.1089C48.3585 44.5996 46.1289 46.8292 46.1289 49.5796V143.73C46.1289 146.48 48.3585 148.71 51.1089 148.71H188.049C190.799 148.71 193.029 146.48 193.029 143.73V49.5796C193.029 46.8292 190.799 44.5996 188.049 44.5996Z" fill="white"/>
<path d="M197.29 98.1904C198.141 98.1904 198.83 97.5009 198.83 96.6504C198.83 95.7998 198.141 95.1104 197.29 95.1104C196.439 95.1104 195.75 95.7998 195.75 96.6504C195.75 97.5009 196.439 98.1904 197.29 98.1904Z" fill="#657AC7"/>
<path d="M197.29 93.4898C197.688 93.4898 198.01 93.1674 198.01 92.7698C198.01 92.3722 197.688 92.0498 197.29 92.0498C196.893 92.0498 196.57 92.3722 196.57 92.7698C196.57 93.1674 196.893 93.4898 197.29 93.4898Z" fill="#657AC7"/>
<path d="M192.999 49.5801V54.3801H46.1289V49.5801C46.1289 48.254 46.6557 46.9822 47.5934 46.0445C48.5311 45.1069 49.8028 44.5801 51.1289 44.5801H188.049C189.366 44.5933 190.625 45.1258 191.552 46.0621C192.479 46.9984 192.999 48.2626 192.999 49.5801V49.5801Z" fill="#5AC5DA"/>
<path d="M115.24 48H54.69C53.8947 48 53.25 48.6447 53.25 49.44C53.25 50.2353 53.8947 50.88 54.69 50.88H115.24C116.035 50.88 116.68 50.2353 116.68 49.44C116.68 48.6447 116.035 48 115.24 48Z" fill="#D6EBF8"/>
<path opacity="0.3" d="M108.659 34.7697L115.929 47.3597C115.867 47.5439 115.787 47.7215 115.689 47.8897C116.459 48.7797 117.909 50.1497 119.609 50.1497C120.082 49.909 120.6 49.7726 121.129 49.7497C121.217 49.7638 121.302 49.7959 121.377 49.8441C121.452 49.8922 121.517 49.9552 121.566 50.0294C121.616 50.1035 121.65 50.187 121.666 50.2748C121.682 50.3626 121.68 50.4528 121.659 50.5397C121.289 52.1797 118.089 51.8997 118.089 51.8997C117.483 51.8685 116.878 51.9888 116.329 52.2497C115.657 52.484 114.932 52.5221 114.239 52.3597C114.085 52.1053 113.998 51.816 113.985 51.5187C113.973 51.2214 114.036 50.9259 114.169 50.6597C114.126 50.1538 114.015 49.656 113.839 49.1797H113.609C110.069 46.7409 107.017 43.6612 104.609 40.0997L100.789 50.2097C100.613 50.221 100.436 50.221 100.259 50.2097C99.7226 51.3964 99.3847 52.6633 99.2594 53.9597C99.1792 54.8951 99.288 55.8372 99.5794 56.7297C99.9868 57.13 100.259 57.6473 100.359 58.2097C100.361 58.3194 100.338 58.428 100.291 58.5272C100.244 58.6263 100.175 58.7132 100.088 58.781C100.002 58.8488 99.9014 58.8957 99.794 58.9181C99.6866 58.9404 99.5755 58.9375 99.4694 58.9097C98.4266 58.5909 97.5528 57.8716 97.0394 56.9097C96.5155 56.011 95.8988 55.1697 95.1994 54.3997C94.9839 54.1655 94.8659 53.8579 94.8694 53.5397C94.8694 52.4797 96.2494 52.1397 96.2494 52.1397C96.3087 52.0965 96.3724 52.0597 96.4394 52.0297C96.776 51.8742 97.0657 51.6328 97.2794 51.3297C97.6494 50.7739 97.9107 50.1529 98.0494 49.4997C97.9066 49.3907 97.7728 49.2703 97.6494 49.1397C97.6494 49.1397 98.8394 39.5197 100.759 34.8197C96.8736 36.5111 92.7272 37.5257 88.4994 37.8197C85.4994 38.0297 84.1694 36.5197 83.6094 34.6797L108.659 34.7697Z" fill="#2F3C6A"/>
<path d="M87.3603 28.0801H93.3203V22.9701H87.3603V28.0801Z" fill="#FFA935"/>
<path d="M97.3003 17.8202L96.0003 14.9102C95.1642 13.3871 93.758 12.2578 92.0903 11.7702L90.2803 11.2102L86.6003 10.4902L83.8503 11.0602C83.8503 11.0602 82.1503 11.1802 80.6703 14.2402C80.6252 14.3231 80.5884 14.4102 80.5603 14.5002L77.5603 23.3902C77.5603 23.3902 76.3603 26.1002 79.5603 26.7602L83.8103 27.0002L88.8803 27.1002C89.069 26.7302 89.1674 26.3207 89.1674 25.9052C89.1674 25.4898 89.069 25.0803 88.8803 24.7102L92.9903 24.6302L97.2403 20.1802L97.3003 17.8202Z" fill="#FFA935"/>
<path d="M87.0586 7.36035L90.4786 10.2204C90.3729 10.4332 90.3179 10.6677 90.3179 10.9054C90.3179 11.143 90.3729 11.3775 90.4786 11.5904C89.7679 11.7969 89.018 11.8293 88.2922 11.6848C87.5664 11.5403 86.886 11.2233 86.3086 10.7604C86.8247 9.70254 87.0818 8.53713 87.0586 7.36035Z" fill="#FCBDB6"/>
<path d="M101.508 33.3301C102.402 35.2813 103.452 37.1574 104.648 38.9401L100.788 49.0001C100.226 49.0841 99.6523 49.0377 99.1113 48.8642C98.5702 48.6908 98.0763 48.3951 97.668 48.0001C97.668 48.0001 98.858 38.3801 100.778 33.6801L101.508 33.3301Z" fill="#B73030"/>
<path d="M116.329 51.0498C115.656 51.2835 114.93 51.3183 114.239 51.1498C114.085 50.897 113.998 50.6094 113.986 50.3138C113.974 50.0183 114.037 49.7245 114.169 49.4598C114.786 49.4194 115.405 49.4871 115.999 49.6598C118.999 50.3498 119.609 48.9398 119.609 48.9398C120.083 48.706 120.6 48.5732 121.129 48.5498C121.217 48.5639 121.301 48.5961 121.376 48.6442C121.451 48.6923 121.516 48.7554 121.566 48.8295C121.615 48.9036 121.649 48.9872 121.665 49.075C121.681 49.1628 121.679 49.2529 121.659 49.3398C121.289 50.9798 118.089 50.6898 118.089 50.6898C117.481 50.6642 116.877 50.7878 116.329 51.0498Z" fill="#303A60"/>
<path d="M115.458 46.4199C116.138 47.2599 117.718 48.9499 119.608 48.9399C119.608 48.9399 119.008 50.3499 115.998 49.6599C115.399 49.5186 114.782 49.4647 114.168 49.4999C114.119 48.9091 113.981 48.3292 113.758 47.7799C114.121 47.686 114.46 47.5162 114.753 47.2818C115.046 47.0474 115.286 46.7537 115.458 46.4199Z" fill="#FCBDB6"/>
<path d="M83.6291 27.6404C83.6291 27.6404 81.3091 37.2104 88.5191 36.7104C93.023 36.3901 97.4296 35.2444 101.519 33.3304C104.146 39.2253 108.325 44.2959 113.609 48.0004C114.138 47.969 114.644 47.7755 115.059 47.4463C115.474 47.1171 115.778 46.6681 115.929 46.1604L106.399 29.6404C105.89 28.782 105.154 28.0811 104.271 27.6152C103.389 27.1493 102.395 26.9365 101.399 27.0004H83.8691L83.6291 27.6404Z" fill="#E25454"/>
<path d="M96.4586 50.8896C96.7953 50.7341 97.085 50.4927 97.2986 50.1896C97.6703 49.631 97.9316 49.0064 98.0686 48.3496C98.7037 48.8125 99.4729 49.0548 100.259 49.0396C99.7204 50.2258 99.3825 51.493 99.2586 52.7896C99.1784 53.7251 99.2873 54.6671 99.5786 55.5596C99.5786 55.5596 98.7486 56.0396 97.4286 54.1696L95.9986 51.9996C95.9986 51.9996 95.5786 51.3196 96.4586 50.8896Z" fill="#FCBDB6"/>
<path d="M96.2707 51C96.1791 51.0393 96.0976 51.0988 96.0322 51.174C95.9669 51.2493 95.9195 51.3384 95.8935 51.4346C95.8675 51.5308 95.8637 51.6317 95.8822 51.7296C95.9008 51.8275 95.9413 51.92 96.0007 52L97.4107 54.22C98.7307 56.09 99.5607 55.61 99.5607 55.61C99.9664 55.9813 100.252 56.4653 100.381 57C100.384 57.1105 100.362 57.2204 100.316 57.3208C100.269 57.4212 100.2 57.5094 100.114 57.5783C100.027 57.6473 99.9261 57.6951 99.8179 57.718C99.7097 57.7408 99.5976 57.7381 99.4907 57.71C98.448 57.3912 97.5741 56.672 97.0607 55.71C96.5368 54.8113 95.9201 53.97 95.2207 53.2C95.0052 52.9658 94.8872 52.6582 94.8907 52.34C94.9107 51.34 96.2707 51 96.2707 51Z" fill="#303A60"/>
<path d="M88.118 27.4297L103.668 27.4297V26.7497L88.118 26.7497V27.4297Z" fill="#06112D"/>
<path d="M105.579 17.8203H92.7986L90.8086 26.7603H103.589L105.579 17.8203Z" fill="#0F1D4C"/>
<path d="M89.1094 26.7004L90.1694 26.3204C90.2662 26.2886 90.3674 26.2717 90.4694 26.2704H90.9194L91.2294 24.8604H90.5594C90.48 24.846 90.3987 24.846 90.3194 24.8604L89.1094 25.1904C89.2381 25.6855 89.2381 26.2053 89.1094 26.7004V26.7004Z" fill="#FFB37F"/>
<path d="M83.8903 16.6201L80.8203 23.6201C83.5452 23.8563 86.2557 24.2369 88.9403 24.7601C89.1987 25.412 89.251 26.1275 89.0903 26.8101C89.2981 26.4717 89.4081 26.0823 89.4081 25.6851C89.4081 25.288 89.2981 24.8986 89.0903 24.5601C89.0903 24.5601 87.9403 23.8501 81.8903 23.2901L83.8903 16.6201Z" fill="#FF8415"/>
<path d="M83.2672 12.2695C83.2672 12.2695 84.7672 12.7795 82.6172 19.4995L82.9472 19.7595C82.9472 19.7595 85.5272 12.7895 83.2672 12.2695Z" fill="#FF8415"/>
<path d="M93.3203 14C94.0607 15.1688 94.5195 16.4936 94.6603 17.87H93.7503C93.9646 16.565 93.8159 15.2261 93.3203 14V14Z" fill="#FF8415"/>
<path d="M93.2975 5.77998C93.3638 6.66951 93.2128 7.56182 92.8575 8.37998C92.6943 8.77038 92.4366 9.11404 92.1075 9.37998C91.615 9.73107 91.0317 9.93248 90.4275 9.95998C90.2683 10.4466 90.2238 10.9634 90.2975 11.47L92.9775 12.24C93.4844 12.4387 93.9674 12.6936 94.4175 13C94.0945 12.2833 93.9275 11.5061 93.9275 10.72C93.9275 9.93386 94.0945 9.15671 94.4175 8.43998C94.4175 8.43998 96.7875 2.72998 92.6875 0.609983C92.6875 0.609983 86.3775 -2.79002 84.4775 6.48998V6.59998C83.7475 9.28998 81.9075 11.48 81.1875 13.41C81.7431 12.6207 82.4178 11.9224 83.1875 11.34C83.3185 11.249 83.4694 11.1908 83.6275 11.17L86.5175 10.7C87.0003 9.50583 87.1656 8.20701 86.9975 6.92998C86.1175 6.59998 86.1975 5.48998 86.1975 5.48998C86.3175 4.48998 87.1175 4.80998 87.1175 4.80998C89.0703 4.96253 91.0328 4.68607 92.8675 3.99998C93.1154 4.56307 93.261 5.16582 93.2975 5.77998V5.77998Z" fill="#2F3C6A"/>
<path d="M94.1791 4.15961C94.1791 4.15961 94.7091 8.87961 90.6791 10.4596C90.3891 10.5695 90.069 10.5695 89.7791 10.4596C89.1144 10.2739 88.509 9.91937 88.0219 9.43048C87.5347 8.94159 87.1824 8.33498 86.9991 7.66961L86.8191 6.81961C86.6399 6.69595 86.4941 6.52988 86.3946 6.33621C86.2952 6.14255 86.2452 5.92729 86.2491 5.70961C86.2191 5.54429 86.2191 5.37493 86.2491 5.20961C86.2623 5.09964 86.3027 4.99467 86.3665 4.90411C86.4303 4.81355 86.5155 4.74022 86.6146 4.69068C86.7137 4.64114 86.8235 4.61694 86.9342 4.62024C87.0449 4.62354 87.1531 4.65425 87.2491 4.70961L87.1491 3.34961L94.1791 4.15961Z" fill="#FCBDB6"/>
<path d="M87.0903 2.7102L89.1503 2.4502L92.7403 2.6302L94.6303 4.0002L94.2003 8.0802L91.7703 10.7002L90.5103 10.5402C91.1102 10.2679 91.6531 9.88445 92.1103 9.4102C92.4394 9.14425 92.6971 8.80059 92.8603 8.4102C93.2156 7.59203 93.3667 6.69972 93.3003 5.8102C93.2674 5.18586 93.1217 4.57263 92.8703 4.0002C91.0387 4.69987 89.0761 4.99 87.1203 4.8502C87.1203 4.8502 86.3203 4.4902 86.2003 5.5302L85.8203 4.9002L87.0903 2.7102Z" fill="#2F3C6A"/>
<path d="M54.1509 161.36C77.0376 161.36 95.5909 160.415 95.5909 159.25C95.5909 158.084 77.0376 157.14 54.1509 157.14C31.2643 157.14 12.7109 158.084 12.7109 159.25C12.7109 160.415 31.2643 161.36 54.1509 161.36Z" fill="#D1D3D4"/>
<path d="M46.1386 141.67H21.8086V159.25H46.1386V141.67Z" fill="#FF970D"/>
<path d="M62.3508 121.84H33.5508V159.25H62.3508V121.84Z" fill="#CE7300"/>
<path d="M68.3808 121.84H43.8008V159.25H68.3808V121.84Z" fill="#E48800"/>
<path d="M86.6075 133.81H60.1875V159.25H86.6075V133.81Z" fill="#FCB554"/>
<path d="M50.9692 159.25H60.1992V133.81H50.9692V159.25Z" fill="#FF970D"/>
<path d="M82.9806 152.1H80.2706C79.3704 152.1 78.6406 152.829 78.6406 153.73V155C78.6406 155.9 79.3704 156.63 80.2706 156.63H82.9806C83.8809 156.63 84.6106 155.9 84.6106 155V153.73C84.6106 152.829 83.8809 152.1 82.9806 152.1Z" fill="white"/>
<path d="M70.7881 133.81H63.8281V144.05H70.7881V133.81Z" fill="white"/>
<path d="M65.2872 121.84H58.8672V130.31H65.2872V121.84Z" fill="white"/>
<path d="M46.1402 141.67H27.1602V159.25H46.1402V141.67Z" fill="#FCB554"/>
<path d="M33.9988 141.76H29.4688V148.43H33.9988V141.76Z" fill="white"/>
<path d="M184.748 129.72H160.168V158.48H184.748V129.72Z" fill="#FCB554"/>
<path d="M149.968 158.48H160.168V129.72H149.968V158.48Z" fill="#FF970D"/>
<path d="M181.97 129.58H175.48V142.57H181.97V129.58Z" fill="white"/>
<path d="M167.499 150.23H164.899C163.695 150.23 162.719 151.206 162.719 152.41V154.08C162.719 155.284 163.695 156.26 164.899 156.26H167.499C168.703 156.26 169.679 155.284 169.679 154.08V152.41C169.679 151.206 168.703 150.23 167.499 150.23Z" fill="white"/>
<path d="M204.418 155.67L203.698 139.6L197.848 140.1L201.448 155.59C201.872 155.912 202.387 156.092 202.92 156.107C203.453 156.121 203.976 155.968 204.418 155.67Z" fill="#FCBDB6"/>
<path d="M193.348 140.65L194.138 155.42C194.138 155.42 191.898 156.26 191.138 155.34C190.378 154.42 187.758 140.65 187.758 140.65H193.348Z" fill="#FCBDB6"/>
<path d="M183.768 96.1197C181.048 97.2997 178.098 103.12 178.098 103.12C178.098 103.12 181.448 104.66 181.618 104.71C181.788 104.76 188.308 98.4597 188.308 98.4597C188.308 98.4597 184.998 95.6097 183.768 96.1197Z" fill="#FCBDB6"/>
<path d="M195.22 133.3H195.36C195.36 133.25 194.56 127.88 193.96 125.95C193.36 124.02 190.59 122.33 190.56 122.31L190.48 122.42C190.48 122.42 193.24 124.09 193.83 125.99C194.42 127.89 195.22 133.24 195.22 133.3Z" fill="#333333"/>
<path d="M215.608 107C213.588 103.035 211.027 99.3701 207.998 96.1104C207.193 96.5031 206.361 96.8373 205.508 97.1104C202.178 98.2704 201.508 99.1104 201.508 99.1104C201.508 99.1104 209.378 108.32 210.178 109.5C210.698 110.3 216.378 108.66 215.608 107Z" fill="#B21D39"/>
<path d="M209.209 108.39C210.125 107.625 211.276 107.198 212.469 107.18C212.478 107.185 212.488 107.188 212.499 107.188C212.509 107.188 212.52 107.185 212.529 107.18C212.527 107.166 212.519 107.153 212.508 107.144C212.497 107.135 212.483 107.13 212.469 107.13C211.246 107.149 210.067 107.586 209.129 108.37V108.44L209.209 108.39Z" fill="#F9A6A0"/>
<path d="M205.449 110.73C207.568 109.729 209.465 108.315 211.029 106.57C212.399 104.98 215.609 107.02 215.609 107.02C216.06 107.79 216.272 108.677 216.216 109.567C216.161 110.458 215.842 111.312 215.299 112.02C213.519 114.13 208.019 115.02 208.019 115.02L205.449 110.73Z" fill="#FCBDB6"/>
<path d="M177.449 102.87C177.449 102.87 180.239 97.8701 183.209 95.8701L185.999 98.4801L184.919 102.48L177.449 102.87Z" fill="#B21D39"/>
<path d="M191.16 155.34C191.16 155.34 191.08 156.79 189.98 157.18C188.88 157.57 185.73 157.85 186.87 158.82C187.53 159.37 190.72 159.1 191.62 159.12C192.52 159.14 193.35 159.52 194.03 158.99C194.71 158.46 194.14 155.42 194.14 155.42C193.671 155.616 193.168 155.722 192.66 155.73C192.135 155.729 191.619 155.594 191.16 155.34Z" fill="#333333"/>
<path d="M183.719 111.69C183.719 111.69 182.719 117.85 184.629 130.48C186.019 139.59 185.099 136.58 185.939 140.99C186.239 142.56 195.219 142.44 195.129 140.71L194.809 123.37L194.529 113.59L183.719 111.69Z" fill="#332428"/>
<path d="M201.448 155.59C201.448 155.59 201.368 157.05 200.268 157.43C199.168 157.81 196.008 158.1 197.158 159.07C197.818 159.62 201.008 159.35 201.908 159.37C202.808 159.39 203.638 159.77 204.318 159.24C204.998 158.71 204.418 155.67 204.418 155.67C203.949 155.866 203.447 155.972 202.938 155.98C202.416 155.982 201.902 155.847 201.448 155.59Z" fill="#333333"/>
<path d="M193.39 111.56C193.39 111.56 192.97 118.1 194.91 130.73C196.31 139.84 195.59 135.91 196.42 140.32C196.72 141.9 205.53 141.61 205.42 139.88L205.07 123.62L204.78 113.84L193.39 111.56Z" fill="#332428"/>
<path d="M204.998 119C204.948 119.79 200.418 120 193.888 119.69C187.358 119.38 182.988 118.37 183.028 117.58C183.068 116.79 187.528 116.48 194.028 116.83C200.528 117.18 205.068 118.2 204.998 119Z" fill="#333333"/>
<path d="M202.739 96.9004C202.739 96.9004 203.829 92.4604 195.299 92.2104C183.009 91.8504 184.669 102.07 183.059 117.57C190.412 116.873 197.828 117.285 205.059 118.79C205.059 118.79 205.219 103.29 202.739 96.9004Z" fill="#B21D39"/>
<path d="M207.999 96.1105L202.349 98.7605C202.349 98.7605 190.129 99.4705 186.909 98.9105C183.689 98.3505 182.859 96.1705 182.859 96.1705C185.582 94.0316 188.848 92.6948 192.289 92.3105C192.839 92.2405 193.419 92.2005 194.009 92.1805C195.011 92.138 196.014 92.1781 197.009 92.3005C204.389 93.2405 207.999 96.1105 207.999 96.1105Z" fill="#B21D39"/>
<path d="M196.79 91.3699L196.56 88.3699L195.79 88.1299L194.48 83.8799L193.66 88.3699L193.46 90.5899L193.32 91.7399C193.32 92.2799 190.82 92.1699 190.37 92.6299C190.18 92.8199 190.98 95.8699 194.26 95.8699C196.53 95.8699 199.13 94.1099 200.57 92.8699C198.44 92.1799 197 92.1699 196.79 91.3699Z" fill="#FCBDB6"/>
<path d="M183.211 117.77C183.211 117.77 190.391 116.55 204.981 119.5L205.031 121.41L183.621 121.57L183.211 117.77Z" fill="#8BC0CC"/>
<path d="M198.275 87.6528C199.7 85.5496 199.351 82.825 197.494 81.5673C195.638 80.3095 192.978 80.9949 191.553 83.0981C190.128 85.2013 190.477 87.9259 192.334 89.1836C194.19 90.4414 196.85 89.756 198.275 87.6528Z" fill="#FCBDB6"/>
<path d="M200.589 84.3299C200.589 84.3299 201.589 88.2599 197.859 88.1799C197.859 88.1799 199.859 86.4499 196.859 84.6099C196.869 84.6099 198.489 78.6299 200.589 84.3299Z" fill="#352C23"/>
<path d="M198.741 86.9004C198.538 86.9872 198.309 86.9954 198.101 86.9233C197.892 86.8512 197.717 86.704 197.611 86.5104C197.574 86.4081 197.56 86.2992 197.569 86.191C197.578 86.0827 197.61 85.9777 197.663 85.8829C197.716 85.7882 197.789 85.7059 197.877 85.6416C197.964 85.5773 198.065 85.5326 198.171 85.5104C198.374 85.4258 198.602 85.4188 198.81 85.4907C199.018 85.5625 199.193 85.7083 199.301 85.9004C199.336 86.0027 199.349 86.1112 199.339 86.2189C199.329 86.3266 199.297 86.431 199.244 86.5253C199.191 86.6196 199.119 86.7018 199.032 86.7664C198.946 86.831 198.846 86.8767 198.741 86.9004Z" fill="#FCBDB6"/>
<path d="M194 87.7198C193.152 87.7652 192.305 87.6218 191.52 87.2998C191.52 87.2998 192.21 89.4898 194 87.7198Z" fill="white"/>
<path d="M200.268 83.4397C200.268 83.4397 199.608 80.4997 197.448 79.2597C195.648 78.2597 192.368 78.8297 191.738 79.0097C191.108 79.1897 188.128 80.3497 189.148 81.3897C190.728 82.9897 196.868 84.6097 196.868 84.6097L200.268 83.4397Z" fill="#352C23"/>
<path d="M183.539 102.35H183.289C183.746 100.451 184.727 98.7188 186.119 97.3496L186.289 97.5296C184.946 98.8522 183.994 100.52 183.539 102.35Z" fill="#560A1A"/>
<path d="M166.558 127.79L204.488 122.79C204.577 122.78 204.662 122.752 204.74 122.709C204.817 122.666 204.885 122.608 204.94 122.538C204.995 122.468 205.036 122.388 205.059 122.303C205.083 122.217 205.09 122.128 205.078 122.04L201.998 100.09C201.969 99.9133 201.872 99.7554 201.728 99.6491C201.585 99.5428 201.406 99.4963 201.228 99.5195L163.298 104.52C163.21 104.529 163.125 104.557 163.047 104.6C162.97 104.643 162.901 104.701 162.847 104.771C162.792 104.841 162.751 104.921 162.727 105.006C162.704 105.092 162.697 105.181 162.708 105.27L165.778 127.2C165.791 127.29 165.821 127.376 165.867 127.455C165.912 127.533 165.973 127.602 166.046 127.657C166.118 127.711 166.201 127.751 166.289 127.774C166.377 127.797 166.468 127.802 166.558 127.79Z" fill="#62CCE0"/>
<path d="M163.767 112.79L203.057 107.59L202.407 102.96L163.117 108.16L163.767 112.79Z" fill="#1F7B87"/>
<path d="M181.219 115.84L200.219 113.33C200.253 113.326 200.286 113.316 200.316 113.299C200.346 113.283 200.373 113.26 200.394 113.233C200.416 113.206 200.432 113.175 200.441 113.142C200.45 113.109 200.453 113.074 200.449 113.04L200.289 111.91C200.284 111.876 200.272 111.843 200.254 111.813C200.237 111.783 200.213 111.757 200.185 111.737C200.157 111.716 200.125 111.702 200.092 111.694C200.058 111.686 200.023 111.684 199.989 111.69L180.989 114.2C180.921 114.21 180.859 114.246 180.816 114.299C180.774 114.353 180.753 114.421 180.759 114.49L180.919 115.62C180.924 115.654 180.935 115.687 180.953 115.717C180.971 115.747 180.995 115.773 181.022 115.793C181.05 115.814 181.082 115.828 181.116 115.836C181.15 115.844 181.185 115.846 181.219 115.84V115.84Z" fill="#A2E9F2"/>
<path d="M181.609 119.13L200.609 116.62C200.644 116.616 200.677 116.606 200.707 116.589C200.737 116.573 200.764 116.55 200.785 116.523C200.806 116.496 200.822 116.465 200.832 116.432C200.841 116.399 200.844 116.364 200.839 116.33L200.679 115.2C200.675 115.166 200.663 115.133 200.645 115.103C200.627 115.073 200.604 115.047 200.576 115.027C200.548 115.006 200.516 114.992 200.482 114.984C200.449 114.976 200.414 114.974 200.379 114.98L181.379 117.49C181.311 117.5 181.25 117.536 181.207 117.589C181.164 117.643 181.144 117.712 181.149 117.78L181.309 118.91C181.322 118.978 181.36 119.039 181.415 119.08C181.471 119.121 181.541 119.139 181.609 119.13V119.13Z" fill="#A2E9F2"/>
<path d="M169 125.17L201.33 120.9C201.413 120.885 201.488 120.84 201.54 120.774C201.591 120.707 201.617 120.624 201.61 120.54L201.41 119.16C201.398 119.076 201.353 119.001 201.286 118.951C201.218 118.9 201.134 118.878 201.05 118.89L168.72 123.17C168.678 123.175 168.637 123.188 168.6 123.209C168.563 123.23 168.531 123.258 168.505 123.291C168.479 123.325 168.46 123.363 168.449 123.404C168.438 123.445 168.435 123.488 168.44 123.53L168.64 124.9C168.645 124.942 168.658 124.982 168.679 125.018C168.7 125.055 168.729 125.087 168.762 125.112C168.796 125.137 168.834 125.155 168.875 125.165C168.916 125.175 168.959 125.177 169 125.17V125.17Z" fill="#A2E9F2"/>
<path d="M168.637 120.66L172.197 120.19C172.235 120.187 172.272 120.175 172.305 120.157C172.338 120.139 172.368 120.114 172.391 120.084C172.414 120.054 172.431 120.02 172.441 119.983C172.451 119.946 172.453 119.908 172.447 119.87L171.967 116.41C171.953 116.334 171.909 116.267 171.846 116.222C171.782 116.177 171.704 116.159 171.627 116.17L168.077 116.64C168.039 116.644 168.003 116.655 167.969 116.674C167.936 116.692 167.907 116.717 167.884 116.747C167.86 116.777 167.843 116.811 167.833 116.848C167.824 116.885 167.822 116.923 167.827 116.96L168.307 120.42C168.312 120.458 168.325 120.495 168.344 120.528C168.363 120.561 168.389 120.589 168.42 120.612C168.451 120.634 168.486 120.65 168.524 120.659C168.561 120.667 168.6 120.668 168.637 120.66V120.66Z" fill="#A2E9F2"/>
<path d="M207.999 115.1C207.999 115.1 206.709 110.1 206.379 110.25C205.435 110.661 204.385 110.763 203.379 110.54C203.019 110.46 201.819 110.27 201.679 110.54C201.539 110.81 202.449 111.37 202.899 111.6C200.659 112.38 197.689 114.05 202.609 113.1C202.139 113.27 199.139 114.25 199.359 114.88C199.529 115.36 202.359 114.53 203.159 114.25C202.389 114.6 200.019 115.35 200.279 115.89C200.539 116.43 203.789 115.36 203.789 115.36C203.789 115.36 201.159 116.36 201.789 116.73C202.419 117.1 204.849 116.1 205.609 115.83C206.369 115.56 207.999 115.1 207.999 115.1Z" fill="#FCBDB6"/>
<path d="M172.857 102.74C172.857 102.74 171.477 102.92 171.647 103.86C171.867 105.07 173.027 105.79 173.157 105.25C173.127 104.831 173.073 104.414 172.997 104C172.997 104 174.217 106.35 174.787 106C175.357 105.65 174.267 103.62 174.267 103.62C174.267 103.62 175.747 105.81 176.137 105.33C176.527 104.85 175.547 103.02 175.547 103.02C175.547 103.02 176.837 105.23 177.277 104.66C177.717 104.09 176.737 103.06 176.457 102.55C176.177 102.04 175.687 102.05 175.077 102.29C174.693 102.274 174.31 102.345 173.957 102.5C173.817 102.59 173.607 102.5 173.487 102.56C173.273 102.605 173.063 102.665 172.857 102.74Z" fill="#FCBDB6"/>
<path d="M204.108 104.45C204.108 104.45 203.908 100.45 202.238 98.5203L202.428 98.3604C204.148 100.36 204.348 104.28 204.358 104.44L204.108 104.45Z" fill="#5B0D1E"/>
<path d="M120.449 97.5397V88.8397C121.358 89.1048 122.219 89.5133 122.999 90.0497C123.839 90.7097 123.839 91.0497 123.839 92.5797C123.957 93.0514 124.229 93.4702 124.612 93.7695C124.996 94.0688 125.468 94.2313 125.954 94.2313C126.44 94.2313 126.913 94.0688 127.296 93.7695C127.679 93.4702 127.951 93.0514 128.069 92.5797C128.069 90.9297 128.069 89.3897 125.949 87.7397C124.362 86.4865 122.465 85.6881 120.459 85.4297V84.7697C120.345 84.2958 120.075 83.874 119.692 83.5723C119.31 83.2705 118.836 83.1064 118.349 83.1064C117.862 83.1064 117.388 83.2705 117.006 83.5723C116.623 83.874 116.353 84.2958 116.239 84.7697V85.6497C112.859 86.4197 108.499 88.5097 108.499 93.5697C108.499 97.6497 112.719 99.7397 116.239 100.4V110.4C115.063 110.084 114.019 109.401 113.259 108.449C112.5 107.497 112.065 106.327 112.019 105.11C111.934 104.622 111.671 104.184 111.281 103.879C110.891 103.575 110.403 103.425 109.909 103.46C108.779 103.46 107.789 104.12 107.789 105.11C107.789 109.52 111.449 113.26 116.239 113.81V114.47C116.353 114.944 116.623 115.365 117.006 115.667C117.388 115.969 117.862 116.133 118.349 116.133C118.836 116.133 119.31 115.969 119.692 115.667C120.075 115.365 120.345 114.944 120.459 114.47V113.7C124.689 113.04 129.609 110.95 129.609 105.7C129.599 101 123.999 98.1997 120.449 97.5397ZM112.709 93.5397C112.707 92.5139 113.054 91.5179 113.694 90.7162C114.334 89.9145 115.228 89.3549 116.229 89.1297V96.9997C114.539 96.4397 112.709 95.4497 112.709 93.5797V93.5397ZM120.449 110.27V101C122.449 101.55 125.379 103.2 125.379 105.62C125.379 108.76 122.709 109.87 120.449 110.31V110.27Z" fill="#5AC5DA"/>
<path d="M117.827 71.4499C123.812 71.4709 129.639 73.3702 134.487 76.8799L126.817 77.9999C126.081 78.1163 125.417 78.5111 124.962 79.1028C124.508 79.6946 124.299 80.4381 124.377 81.1799C124.474 81.8558 124.811 82.474 125.328 82.9205C125.844 83.3671 126.505 83.6119 127.187 83.6099H127.557L140.667 81.7399C141.403 81.6236 142.066 81.2284 142.519 80.6363C142.971 80.0442 143.178 79.3007 143.097 78.5599L141.227 65.4599C141.178 65.0909 141.057 64.7352 140.87 64.4131C140.683 64.091 140.435 63.8089 140.139 63.5828C139.843 63.3567 139.506 63.191 139.146 63.0953C138.786 62.9996 138.411 62.9757 138.042 63.0249C137.673 63.0742 137.318 63.1956 136.995 63.3823C136.673 63.569 136.391 63.8174 136.165 64.1131C135.939 64.4089 135.773 64.7463 135.678 65.106C135.582 65.4658 135.558 65.8409 135.607 66.2099L136.357 71.4499C130.887 67.7534 124.429 65.7946 117.827 65.8299C108.9 65.8563 100.346 69.4142 94.034 75.7266C87.7216 82.039 84.1637 90.5929 84.1373 99.5199C84.1163 103.145 84.6871 106.749 85.8273 110.19L90.3173 105.7C89.8576 103.671 89.6063 101.6 89.5673 99.5199C89.6331 92.0628 92.6376 84.9325 97.9286 79.6772C103.22 74.4218 110.37 71.4654 117.827 71.4499Z" fill="#5AC5DA"/>
<path d="M149.84 88.8501L145.35 93.3501C145.8 95.3771 146.048 97.444 146.09 99.5201C146.1 103.211 145.381 106.868 143.973 110.281C142.565 113.693 140.496 116.793 137.885 119.403C135.275 122.012 132.174 124.08 128.761 125.487C125.348 126.894 121.691 127.612 118 127.6C111.884 127.655 105.936 125.607 101.15 121.8L107.15 120.86C107.52 120.813 107.877 120.693 108.2 120.507C108.523 120.321 108.807 120.073 109.034 119.778C109.262 119.482 109.428 119.144 109.524 118.784C109.621 118.423 109.645 118.048 109.596 117.678C109.546 117.308 109.424 116.952 109.236 116.63C109.049 116.307 108.799 116.025 108.502 115.8C108.205 115.574 107.867 115.409 107.506 115.315C107.145 115.221 106.769 115.199 106.4 115.25L93.2998 117.12C92.5627 117.234 91.8981 117.629 91.4453 118.221C90.9924 118.814 90.7862 119.559 90.8698 120.3L92.7398 133.4C92.7328 133.746 92.7963 134.09 92.9264 134.41C93.0565 134.731 93.2505 135.022 93.4965 135.265C93.7426 135.508 94.0355 135.699 94.3575 135.825C94.6796 135.951 95.024 136.011 95.3698 136H95.7498C96.4847 135.881 97.1462 135.486 97.5982 134.894C98.0502 134.303 98.2584 133.56 98.1798 132.82L97.2398 126.08C102.955 130.47 109.926 132.914 117.132 133.053C124.337 133.193 131.398 131.021 137.279 126.856C143.161 122.691 147.553 116.752 149.814 109.909C152.074 103.066 152.083 95.6788 149.84 88.8301V88.8501Z" fill="#5AC5DA"/>
</svg>
