<svg width="36" height="36" viewBox="0 0 36 36" fill="none" xmlns="http://www.w3.org/2000/svg">
<path d="M36 0H0V36H36V0Z" fill="white"/>
<path d="M18.9085 17.2529V13.9409C19.257 14.0371 19.5858 14.1941 19.8795 14.4049C20.2035 14.6529 20.2035 14.7829 20.2035 15.3649C20.2464 15.5473 20.3496 15.7099 20.4964 15.8263C20.6433 15.9426 20.8252 16.0059 21.0125 16.0059C21.1999 16.0059 21.3818 15.9426 21.5286 15.8263C21.6755 15.7099 21.7787 15.5473 21.8215 15.3649C21.8683 15.0128 21.8176 14.6546 21.675 14.3293C21.5323 14.004 21.3032 13.724 21.0125 13.5199C20.3885 13.0309 19.6419 12.7234 18.8545 12.6309V12.3769C18.8253 12.1906 18.7265 12.0223 18.578 11.9061C18.4295 11.7899 18.2424 11.7344 18.0545 11.7509C17.8657 11.7347 17.6777 11.79 17.5279 11.906C17.378 12.022 17.2772 12.1901 17.2455 12.3769V12.7009C15.9525 12.9919 14.2915 13.7789 14.2915 15.7209C14.2915 17.2749 15.8985 18.0729 17.2475 18.3319V22.1509C16.7955 22.0346 16.3934 21.7748 16.1015 21.4106C15.8096 21.0464 15.6436 20.5974 15.6285 20.1309C15.5993 19.9446 15.5005 19.7763 15.352 19.6601C15.2035 19.5439 15.0164 19.4884 14.8285 19.5049C14.3965 19.5049 14.0195 19.7529 14.0195 20.1309C14.0604 20.9845 14.4121 21.7936 15.0084 22.4057C15.6047 23.0178 16.4043 23.3907 17.2565 23.4539V23.7129C17.2882 23.8997 17.389 24.0678 17.5389 24.1838C17.6887 24.2997 17.8767 24.3551 18.0655 24.3389C18.2534 24.3554 18.4405 24.2999 18.589 24.1837C18.7375 24.0675 18.8363 23.8992 18.8655 23.7129V23.4859C20.4835 23.2379 22.3655 22.4069 22.3655 20.4219C22.4015 18.5589 20.2575 17.5119 18.9085 17.2529ZM15.9525 15.7429C15.9548 15.3514 16.0893 14.9721 16.3342 14.6666C16.579 14.3611 16.9199 14.1473 17.3015 14.0599V17.0159C16.6545 16.8429 15.9525 16.4549 15.9525 15.7429V15.7429ZM18.9085 22.1309V18.5589C19.6635 18.7749 20.7965 19.3999 20.7965 20.3279C20.7965 21.5469 19.7715 21.9679 18.9085 22.1279V22.1309Z" fill="#233AD4"/>
<path d="M17.9113 7.33855C20.1882 7.34721 22.4048 8.07172 24.2473 9.40955L21.3323 9.84155C21.0601 9.8769 20.8116 10.0148 20.6376 10.227C20.4635 10.4392 20.377 10.7099 20.3956 10.9837C20.4142 11.2576 20.5366 11.514 20.7378 11.7007C20.939 11.8874 21.2038 11.9904 21.4783 11.9886H21.6183L26.5883 11.2546C26.8709 11.2165 27.1269 11.068 27.3003 10.8416C27.4736 10.6152 27.5502 10.3293 27.5133 10.0466L26.8133 5.04055C26.7964 4.8993 26.7517 4.76278 26.6818 4.63886C26.6119 4.51494 26.5182 4.40606 26.4061 4.31849C26.294 4.23092 26.1657 4.16638 26.0285 4.1286C25.8914 4.09081 25.7481 4.08052 25.6069 4.09832C25.4658 4.11612 25.3296 4.16166 25.2061 4.23231C25.0826 4.30297 24.9743 4.39734 24.8874 4.51001C24.8006 4.62267 24.7368 4.75141 24.6999 4.8888C24.663 5.02619 24.6536 5.16952 24.6723 5.31055L24.9623 7.33855C22.8827 5.92602 20.4252 5.17422 17.9113 5.18155C14.509 5.20626 11.2536 6.57131 8.85125 8.98061C6.44887 11.3899 5.09321 14.6492 5.07829 18.0516C5.07119 19.4332 5.28904 20.8069 5.72329 22.1186L7.43429 20.4016C7.2551 19.6299 7.15789 18.8416 7.14429 18.0496C7.16041 15.2041 8.30173 12.4806 10.3191 10.4738C12.3364 8.46694 15.0658 7.33983 17.9113 7.33855V7.33855Z" fill="#233AD4"/>
<path d="M30.1093 13.9082L28.3993 15.6232C28.5703 16.3997 28.6641 17.1912 28.6793 17.9862C28.6824 19.3919 28.4086 20.7845 27.8733 22.0844C27.3381 23.3842 26.5519 24.5658 25.5598 25.5618C24.5677 26.5577 23.3891 27.3483 22.0913 27.8885C20.7935 28.4288 19.402 28.708 17.9963 28.7102C15.6519 28.7412 13.3698 27.9556 11.5413 26.4882L13.8223 26.1322C14.1032 26.0877 14.3555 25.9351 14.5254 25.707C14.6952 25.4789 14.7691 25.1934 14.7312 24.9116C14.6933 24.6297 14.5467 24.3739 14.3227 24.1987C14.0986 24.0235 13.8149 23.943 13.5323 23.9742L8.55128 24.6972C8.26867 24.7353 8.01266 24.8838 7.8393 25.1102C7.66593 25.3366 7.58933 25.6224 7.62628 25.9052L8.33628 30.9112C8.33211 31.0437 8.35513 31.1755 8.40391 31.2988C8.45269 31.422 8.5262 31.5339 8.6199 31.6276C8.7136 31.7213 8.82551 31.7948 8.94872 31.8436C9.07193 31.8923 9.20383 31.9154 9.33628 31.9112H9.47628C9.62194 31.9004 9.76389 31.8601 9.8935 31.7928C10.0231 31.7254 10.1377 31.6324 10.2303 31.5195C10.3229 31.4065 10.3915 31.2759 10.4321 31.1356C10.4727 30.9952 10.4843 30.8482 10.4663 30.7032L10.1113 28.1382C12.0059 29.6138 14.2774 30.5267 16.6662 30.7725C19.0551 31.0183 21.4649 30.5871 23.6203 29.5282C25.7757 28.4693 27.5898 26.8255 28.8552 24.7845C30.1206 22.7435 30.7863 20.3876 30.7763 17.9862C30.772 16.6001 30.5469 15.2235 30.1093 13.9082V13.9082Z" fill="#233AD4"/>
<path d="M36 0H0V36H36V0Z" fill="white"/>
<path d="M18.9085 17.2529V13.9409C19.257 14.0371 19.5858 14.1941 19.8795 14.4049C20.2035 14.6529 20.2035 14.7829 20.2035 15.3649C20.2464 15.5473 20.3496 15.7099 20.4964 15.8263C20.6433 15.9426 20.8252 16.0059 21.0125 16.0059C21.1999 16.0059 21.3818 15.9426 21.5286 15.8263C21.6755 15.7099 21.7787 15.5473 21.8215 15.3649C21.8683 15.0128 21.8176 14.6546 21.675 14.3293C21.5323 14.004 21.3032 13.724 21.0125 13.5199C20.3885 13.0309 19.6419 12.7234 18.8545 12.6309V12.3769C18.8253 12.1906 18.7265 12.0223 18.578 11.9061C18.4295 11.7899 18.2424 11.7344 18.0545 11.7509C17.8657 11.7347 17.6777 11.79 17.5279 11.906C17.378 12.022 17.2772 12.1901 17.2455 12.3769V12.7009C15.9525 12.9919 14.2915 13.7789 14.2915 15.7209C14.2915 17.2749 15.8985 18.0729 17.2475 18.3319V22.1509C16.7955 22.0346 16.3934 21.7748 16.1015 21.4106C15.8096 21.0464 15.6436 20.5974 15.6285 20.1309C15.5993 19.9446 15.5005 19.7763 15.352 19.6601C15.2035 19.5439 15.0164 19.4884 14.8285 19.5049C14.3965 19.5049 14.0195 19.7529 14.0195 20.1309C14.0604 20.9845 14.4121 21.7936 15.0084 22.4057C15.6047 23.0178 16.4043 23.3907 17.2565 23.4539V23.7129C17.2882 23.8997 17.389 24.0678 17.5389 24.1838C17.6887 24.2997 17.8767 24.3551 18.0655 24.3389C18.2534 24.3554 18.4405 24.2999 18.589 24.1837C18.7375 24.0675 18.8363 23.8992 18.8655 23.7129V23.4859C20.4835 23.2379 22.3655 22.4069 22.3655 20.4219C22.4015 18.5589 20.2575 17.5119 18.9085 17.2529ZM15.9525 15.7429C15.9548 15.3514 16.0893 14.9721 16.3342 14.6666C16.579 14.3611 16.9199 14.1473 17.3015 14.0599V17.0159C16.6545 16.8429 15.9525 16.4549 15.9525 15.7429V15.7429ZM18.9085 22.1309V18.5589C19.6635 18.7749 20.7965 19.3999 20.7965 20.3279C20.7965 21.5469 19.7715 21.9679 18.9085 22.1279V22.1309Z" fill="#233AD4"/>
<path d="M17.9113 7.33855C20.1882 7.34721 22.4048 8.07172 24.2473 9.40955L21.3323 9.84155C21.0601 9.8769 20.8116 10.0148 20.6376 10.227C20.4635 10.4392 20.377 10.7099 20.3956 10.9837C20.4142 11.2576 20.5366 11.514 20.7378 11.7007C20.939 11.8874 21.2038 11.9904 21.4783 11.9886H21.6183L26.5883 11.2546C26.8709 11.2165 27.1269 11.068 27.3003 10.8416C27.4736 10.6152 27.5502 10.3293 27.5133 10.0466L26.8133 5.04055C26.7964 4.8993 26.7517 4.76278 26.6818 4.63886C26.6119 4.51494 26.5182 4.40606 26.4061 4.31849C26.294 4.23092 26.1657 4.16638 26.0285 4.1286C25.8914 4.09081 25.7481 4.08052 25.6069 4.09832C25.4658 4.11612 25.3296 4.16166 25.2061 4.23231C25.0826 4.30297 24.9743 4.39734 24.8874 4.51001C24.8006 4.62267 24.7368 4.75141 24.6999 4.8888C24.663 5.02619 24.6536 5.16952 24.6723 5.31055L24.9623 7.33855C22.8827 5.92602 20.4252 5.17422 17.9113 5.18155C14.509 5.20626 11.2536 6.57131 8.85125 8.98061C6.44887 11.3899 5.09321 14.6492 5.07829 18.0516C5.07119 19.4332 5.28904 20.8069 5.72329 22.1186L7.43429 20.4016C7.2551 19.6299 7.15789 18.8416 7.14429 18.0496C7.16041 15.2041 8.30173 12.4806 10.3191 10.4738C12.3364 8.46694 15.0658 7.33983 17.9113 7.33855V7.33855Z" fill="#233AD4"/>
<path d="M30.1093 13.9082L28.3993 15.6232C28.5703 16.3997 28.6641 17.1912 28.6793 17.9862C28.6824 19.3919 28.4086 20.7845 27.8733 22.0844C27.3381 23.3842 26.5519 24.5658 25.5598 25.5618C24.5677 26.5577 23.3891 27.3483 22.0913 27.8885C20.7935 28.4288 19.402 28.708 17.9963 28.7102C15.6519 28.7412 13.3698 27.9556 11.5413 26.4882L13.8223 26.1322C14.1032 26.0877 14.3555 25.9351 14.5254 25.707C14.6952 25.4789 14.7691 25.1934 14.7312 24.9116C14.6933 24.6297 14.5467 24.3739 14.3227 24.1987C14.0986 24.0235 13.8149 23.943 13.5323 23.9742L8.55128 24.6972C8.26867 24.7353 8.01266 24.8838 7.8393 25.1102C7.66593 25.3366 7.58933 25.6224 7.62628 25.9052L8.33628 30.9112C8.33211 31.0437 8.35513 31.1755 8.40391 31.2988C8.45269 31.422 8.5262 31.5339 8.6199 31.6276C8.7136 31.7213 8.82551 31.7948 8.94872 31.8436C9.07193 31.8923 9.20383 31.9154 9.33628 31.9112H9.47628C9.62194 31.9004 9.76389 31.8601 9.8935 31.7928C10.0231 31.7254 10.1377 31.6324 10.2303 31.5195C10.3229 31.4065 10.3915 31.2759 10.4321 31.1356C10.4727 30.9952 10.4843 30.8482 10.4663 30.7032L10.1113 28.1382C12.0059 29.6138 14.2774 30.5267 16.6662 30.7725C19.0551 31.0183 21.4649 30.5871 23.6203 29.5282C25.7757 28.4693 27.5898 26.8255 28.8552 24.7845C30.1206 22.7435 30.7863 20.3876 30.7763 17.9862C30.772 16.6001 30.5469 15.2235 30.1093 13.9082V13.9082Z" fill="#233AD4"/>
</svg>
