<svg width="32" height="32" viewBox="0 0 32 32" fill="none" xmlns="http://www.w3.org/2000/svg">
<path d="M24.9703 16.2116V16.2221V16.2316V16.2442C24.9322 16.3545 24.8696 16.455 24.7869 16.5381L18.5541 22.773C18.4831 22.8449 18.3983 22.902 18.3048 22.9409C18.2112 22.9799 18.1107 23 18.0092 23C17.9077 23 17.8072 22.9799 17.7137 22.9409C17.6201 22.902 17.5354 22.8449 17.4644 22.773C17.3337 22.6405 17.2547 22.4665 17.2413 22.2818C17.2279 22.0971 17.281 21.9137 17.3912 21.7641L17.4654 21.678L22.3606 16.7775H8.81046C8.60714 16.7844 8.40905 16.7128 8.25811 16.5777C8.10717 16.4426 8.01522 16.2546 8.00173 16.0536C7.98823 15.8525 8.05424 15.6542 8.18579 15.5005C8.31734 15.3468 8.50411 15.2498 8.70658 15.23L8.81258 15.2237H22.3616L17.4654 10.3242C17.3207 10.1779 17.2396 9.98113 17.2396 9.77624C17.2396 9.57135 17.3207 9.37461 17.4654 9.22823C17.5946 9.0969 17.7675 9.01659 17.9521 9.0023C18.1366 8.988 18.32 9.0407 18.4682 9.15055L18.5551 9.22508L24.7732 15.4505C24.9189 15.5967 25.0005 15.7941 25 15.9996C24.9999 16.0713 24.9899 16.1426 24.9703 16.2116Z" fill="white" stroke="white"/>
</svg>
