<svg width="16" height="16" viewBox="0 0 16 16" fill="none" xmlns="http://www.w3.org/2000/svg">
<path d="M5.49616 13.1712C5.40149 13.0792 5.34368 12.9558 5.33361 12.8242C5.32354 12.6926 5.36191 12.5618 5.4415 12.4565L5.49616 12.3992L9.9815 7.99918L5.49616 3.59918C5.40255 3.50742 5.34541 3.38481 5.33536 3.25411C5.32531 3.12341 5.36302 2.99351 5.4415 2.88851L5.49616 2.82718C5.59198 2.73382 5.71768 2.67729 5.8511 2.66753C5.98453 2.65777 6.11711 2.69542 6.2255 2.77385L6.28816 2.82718L11.1682 7.61118C11.2628 7.70316 11.3206 7.82655 11.3307 7.95817C11.3408 8.08978 11.3024 8.22054 11.2228 8.32584L11.1682 8.38718L6.28816 13.1712C6.18213 13.2743 6.04006 13.332 5.89216 13.332C5.74426 13.332 5.60219 13.2743 5.49616 13.1712Z" fill="white"/>
</svg>
