<svg width="35" height="39" viewBox="0 0 35 39" fill="none" xmlns="http://www.w3.org/2000/svg">
<path fill-rule="evenodd" clip-rule="evenodd" d="M17.4858 4.92295C20.5867 4.93373 23.6061 5.92007 26.1186 7.74302L22.1439 8.32648C21.774 8.37534 21.4366 8.56398 21.2006 8.85389C20.9646 9.14381 20.8477 9.51315 20.874 9.88653C20.9002 10.2599 21.0675 10.6092 21.3417 10.863C21.6159 11.1169 21.9763 11.2562 22.3495 11.2525H22.5434L29.3148 10.2529C29.6993 10.2015 30.0478 9.99946 30.284 9.69088C30.5202 9.38229 30.6249 8.99238 30.5751 8.60654L29.6221 1.79074C29.5981 1.59861 29.5365 1.41312 29.441 1.24485C29.3455 1.07658 29.2178 0.928839 29.0654 0.810051C28.9129 0.691263 28.7387 0.603758 28.5525 0.552532C28.3663 0.501306 28.1719 0.487363 27.9804 0.511499C27.7889 0.535635 27.6039 0.597376 27.4362 0.693199C27.2685 0.789022 27.1212 0.917049 27.0027 1.06997C26.8843 1.22289 26.7971 1.39771 26.746 1.58445C26.695 1.77119 26.6811 1.96619 26.7051 2.15832L27.1006 4.92198C24.2632 2.99464 20.9126 1.96987 17.4858 1.98134C12.8565 2.00839 8.42449 3.86515 5.1511 7.14887C1.87771 10.4326 0.0269331 14.8785 0.000219664 19.5221C-0.00925357 21.4054 0.287741 23.2777 0.879493 25.065L3.20613 22.7312C2.96158 21.6785 2.829 20.6028 2.8106 19.5221C2.83775 15.6375 4.39645 11.9216 7.14617 9.18612C9.8959 6.45064 13.6132 4.91798 17.4858 4.92295ZM18.833 18.4794V13.9663C19.3065 14.0972 19.7532 14.3112 20.1524 14.5984C20.5925 14.9368 20.5925 15.1128 20.5925 15.9073C20.65 16.1565 20.79 16.3788 20.9897 16.538C21.1893 16.6972 21.4368 16.7838 21.6919 16.7838C21.9469 16.7838 22.1944 16.6972 22.394 16.538C22.5937 16.3788 22.7337 16.1565 22.7912 15.9073C22.8549 15.4271 22.786 14.9386 22.592 14.495C22.398 14.0513 22.0863 13.6697 21.6909 13.3916C20.8425 12.7274 19.8283 12.3102 18.7593 12.1857V11.8357C18.7195 11.5823 18.5855 11.3534 18.3842 11.1951C18.1829 11.0369 17.9293 10.961 17.6745 10.9828C17.4182 10.9609 17.163 11.0364 16.9595 11.1944C16.7561 11.3523 16.6193 11.5812 16.5762 11.8357V12.2772C14.8167 12.672 12.5618 13.7455 12.5618 16.3915C12.5618 18.5085 14.7459 19.6006 16.5781 19.9497V25.158C15.9648 24.9996 15.4191 24.6461 15.0227 24.1505C14.6264 23.6549 14.4007 23.0439 14.3794 22.409C14.3397 22.1556 14.2056 21.9267 14.0043 21.7684C13.8031 21.6102 13.5495 21.5343 13.2946 21.5561C12.713 21.5561 12.1953 21.8945 12.1953 22.409C12.2498 23.5725 12.7272 24.6757 13.5375 25.5101C14.3477 26.3445 15.4346 26.8524 16.5926 26.9376V27.2906C16.6357 27.5452 16.7727 27.7742 16.9764 27.9322C17.18 28.0902 17.4355 28.1656 17.692 28.1434C17.9468 28.1652 18.2004 28.0894 18.4017 27.9311C18.603 27.7729 18.737 27.544 18.7768 27.2906V26.9814C20.9754 26.643 23.527 25.511 23.527 22.8057C23.5822 20.2579 20.6652 18.8323 18.833 18.4794ZM14.8167 16.4207C14.8196 15.8871 15.0022 15.3702 15.3347 14.9538C15.6673 14.5374 16.1304 14.246 16.6489 14.1267V18.1565C15.7696 17.9212 14.8167 17.3922 14.8167 16.4217V16.4207ZM18.833 25.125V20.2628C19.8587 20.5545 21.3981 21.4093 21.3981 22.6744C21.3981 24.3354 20.006 24.911 18.833 25.1298V25.125ZM31.7668 16.2976L34.0934 13.9637C34.6894 15.7558 34.9961 17.632 35.0018 19.5212C35.0068 22.7994 34.0936 26.0131 32.3662 28.7959C30.6387 31.5788 28.1667 33.8188 25.2317 35.2608C22.2967 36.7027 19.0169 37.2885 15.7662 36.9514C12.5154 36.6143 9.42447 35.3678 6.84565 33.3541L7.33036 36.8549C7.35439 37.052 7.33833 37.2521 7.28317 37.4428C7.228 37.6336 7.13486 37.8112 7.00938 37.9649C6.8839 38.1186 6.72868 38.2452 6.55308 38.337C6.37748 38.4288 6.18515 38.484 5.9877 38.4993H5.79382C5.61318 38.5053 5.43322 38.4742 5.26511 38.4076C5.09699 38.341 4.94429 38.2406 4.81649 38.1124C4.68869 37.9842 4.58851 37.831 4.52216 37.6624C4.45582 37.4937 4.42472 37.3132 4.4308 37.132L3.46137 30.3104C3.41155 29.9245 3.51621 29.5346 3.75243 29.226C3.98864 28.9175 4.33716 28.7154 4.72163 28.664L11.5076 27.679C11.7021 27.6487 11.9005 27.6576 12.0915 27.7053C12.2824 27.7529 12.4619 27.8382 12.6196 27.9563C12.7772 28.0744 12.9098 28.2228 13.0095 28.3929C13.1093 28.563 13.1742 28.7514 13.2005 28.9469C13.2269 29.1425 13.214 29.3414 13.1628 29.5319C13.1115 29.7225 13.0229 29.9008 12.9021 30.0566C12.7812 30.2123 12.6307 30.3424 12.4592 30.439C12.2876 30.5357 12.0986 30.5971 11.9032 30.6196L8.79614 31.1058C11.2895 33.1061 14.3974 34.1766 17.5898 34.135C19.503 34.1355 21.3975 33.7576 23.1649 33.023C24.9323 32.2884 26.538 31.2115 27.8901 29.8538C29.2423 28.4961 30.3143 26.8844 31.0448 25.1107C31.7754 23.3371 32.1502 21.4364 32.1478 19.5173C32.1273 18.4341 31.9996 17.3555 31.7668 16.2976Z" fill="#D00A2D"/>
</svg>
