<svg width="32" height="38" viewBox="0 0 32 38" fill="none" xmlns="http://www.w3.org/2000/svg">
<path fill-rule="evenodd" clip-rule="evenodd" d="M15.96 0C28.7039 0 31.4051 3.37267 31.9677 5.43314C32.0108 5.63376 32.0108 5.84154 31.9677 6.04216V17.5332C31.9627 21.0439 31.0495 24.4907 29.321 27.5235C27.5925 30.5563 25.1102 33.067 22.1263 34.8006L17.2281 37.6574C16.842 37.8819 16.4055 38 15.9614 38C15.5173 38 15.0808 37.8819 14.6947 37.6574L9.79647 34.8006C6.81356 33.0698 4.33424 30.5585 2.61275 27.5242C0.891266 24.4898 -0.0104435 21.0416 9.12606e-05 17.5332V6.04216C9.12606e-05 5.43314 0.183174 3.45014 3.05211 1.983C5.58556 0.686498 9.96518 0 15.96 0ZM24.6282 24.4815C25.744 22.5283 26.3341 20.3075 26.3382 18.0451L26.2164 10.6652C26.246 10.5362 26.246 10.402 26.2164 10.273C25.8944 8.94605 24.1546 6.77574 15.96 6.77574C13.1361 6.60256 10.3081 7.03756 7.65891 8.05262C5.8137 8.99313 5.64595 10.2681 5.64595 10.6603V18.0451C5.642 20.3085 6.22822 22.5321 7.34416 24.4865C8.4601 26.4409 10.0654 28.0553 11.9944 29.1634L15.0925 30.9905C15.3349 31.1455 15.6151 31.2277 15.901 31.2277C16.1869 31.2277 16.4671 31.1455 16.7095 30.9905L19.9859 29.1644C21.9105 28.0506 23.5124 26.4348 24.6282 24.4815ZM17.4733 24.0917V12.5684H12.6211V14.723H14.8641V24.0917H17.4733Z" fill="#D00A2D"/>
</svg>
