<svg width="12" height="13" viewBox="0 0 12 13" fill="none" xmlns="http://www.w3.org/2000/svg">
<path fill-rule="evenodd" clip-rule="evenodd" d="M7.00004 1C7.00004 0.447715 6.55233 0 6.00004 0C5.44776 0 5.00004 0.447715 5.00004 1V5H1C0.447715 5 0 5.44772 0 6C0 6.55228 0.447715 7 1 7H5.00004V11.0013C5.00004 11.5536 5.44776 12.0013 6.00004 12.0013C6.55233 12.0013 7.00004 11.5536 7.00004 11.0013V7H11.0013C11.5536 7 12.0013 6.55228 12.0013 6C12.0013 5.44772 11.5536 5 11.0013 5H7.00004V1Z" fill="#CF0A2C"/>
</svg>
