<svg width="32" height="32" viewBox="0 0 32 32" fill="none" xmlns="http://www.w3.org/2000/svg">
<path d="M26.3463 21.0077C26.1623 21.197 25.9155 21.3126 25.6523 21.3328C25.3891 21.3529 25.1275 21.2762 24.9169 21.117L24.8023 21.0077L16.0023 12.037L7.20226 21.0077C7.01874 21.1949 6.77352 21.3092 6.51213 21.3293C6.25074 21.3494 5.99092 21.274 5.78093 21.117L5.65826 21.0077C5.47155 20.816 5.35848 20.5646 5.33896 20.2978C5.31945 20.0309 5.39475 19.7658 5.5516 19.549L5.65826 19.4237L15.2263 9.66367C15.4102 9.47432 15.657 9.3587 15.9202 9.33857C16.1835 9.31843 16.445 9.39517 16.6556 9.55434L16.7783 9.66367L26.3463 19.4237C26.5525 19.6357 26.6679 19.9199 26.6679 20.2157C26.6679 20.5115 26.5525 20.7956 26.3463 21.0077Z" fill="#CF0A2C"/>
</svg>
