<svg xmlns="http://www.w3.org/2000/svg" width="32" height="32" fill="none" viewBox="0 0 32 32">
  <path fill="#fff" fill-rule="evenodd" d="M17.344 4.945a10.591 10.591 0 00-5.502 1.065 10.524 10.524 0 00-4.176 3.72 10.448 10.448 0 00-.36 10.744l.21.377-1.582 4.408 5.028-.952.31.18a10.48 10.48 0 0010.917-.233 10.927 10.927 0 002.684-2.436 10.437 10.437 0 001.298-10.67 10.5 10.5 0 00-3.553-4.312 10.579 10.579 0 00-5.274-1.89zm-6.356-.644a12.519 12.519 0 0112.737.976 12.41 12.41 0 014.2 5.097 12.335 12.335 0 01-1.536 12.614l-.003.005a12.846 12.846 0 01-3.158 2.865 12.405 12.405 0 01-12.605.456L3 27.756l2.422-6.745a12.34 12.34 0 01.63-12.313 12.44 12.44 0 014.936-4.397z" clip-rule="evenodd"/>
  <path fill="#fff" d="M17.9 17.697a8.557 8.557 0 01-3.976-3.458.416.416 0 01.062-.485l.795-.859a.407.407 0 00.077-.444L13.61 10.08s-.555-.841-1.688-.117c0 0-2.98 2.317-1.077 5.5a11.467 11.467 0 005.304 5.04c1.4.679 4.432 1.583 6.263-1.73 0 0 .64-1.02 0-1.28-.288-.117-1.888-.902-2.565-1.23a.422.422 0 00-.513.113l-.955 1.2a.416.416 0 01-.48.127v-.005z"/>
</svg>
