<?xml version="1.0" encoding="utf-8"?>
<!-- Generator: Adobe Illustrator 23.0.3, SVG Export Plug-In . SVG Version: 6.00 Build 0)  -->
<svg version="1.1" id="Capa_1" focusable="false" xmlns="http://www.w3.org/2000/svg" xmlns:xlink="http://www.w3.org/1999/xlink"
	 x="0px" y="0px" viewBox="0 0 512 512" style="enable-background:new 0 0 512 512;" xml:space="preserve">
<style type="text/css">
	.st0{fill:#C60A2C;}
</style>
<path class="st0" d="M144.8,17c-11.3-17.8-37.2-22.8-54-9.4C35.3,51.9,0,118,0,192h256L144.8,17z M496,96h-48c-35.3,0-64,28.7-64,64
	v64H0c0,50.6,23,96.4,60.3,130.7C25.7,363.6,0,394.7,0,432c0,44.2,35.8,80,80,80s80-35.8,80-80c0-8.9-1.8-17.2-4.4-25.2
	c21.6,5.9,44.6,9.2,68.4,9.2s46.9-3.3,68.4-9.2c-2.7,8-4.4,16.3-4.4,25.2c0,44.2,35.8,80,80,80s80-35.8,80-80
	c0-37.3-25.7-68.4-60.3-77.3C425,320.4,448,274.6,448,224v-64h48c8.8,0,16-7.2,16-16v-32C512,103.2,504.8,96,496,96z M80,464
	c-17.6,0-32-14.4-32-32s14.4-32,32-32s32,14.4,32,32S97.6,464,80,464z M400,432c0,17.6-14.4,32-32,32s-32-14.4-32-32s14.4-32,32-32
	S400,414.4,400,432z"/>
</svg>
