<svg id="_39" data-name="39" xmlns="http://www.w3.org/2000/svg" viewBox="0 0 99.4 99.4"><defs><style>.cls-1{fill:#cf0a2c;}.cls-2{fill:#fff;}</style></defs><path class="cls-1" d="M3.72,32.26a309.46,309.46,0,0,0,75.36,0,.43.43,0,0,0,.35-.12.78.78,0,0,0,.12-1.07c-4.14-4.25-10.28-10.15-17.13-13.93s-14.29-5.32-21-1.42c-5.08-3.31-10.87-2.84-16.54-.59-8.62,3.43-16.77,11-21.5,15.94a.65.65,0,0,0-.23.48A.66.66,0,0,0,3.72,32.26Z"/><path class="cls-1" d="M80,35.21a.88.88,0,0,0-.47-.12c-12.76.95-25.4,1.42-38.15,1.42S16,36,3.36,35.09a.66.66,0,0,0-.7.59c-.12.24,0,.36.11.59C7.85,43.24,15.53,48.08,24,50.8A58.69,58.69,0,0,0,53,52.34c.48-.12.71-.48.59-.83,0-.12,0-.24-.11-.24l-1.54-2.48c-.24-.23-.12-.71.12-1.06l.23-.47,3-8.15.11.11a1.54,1.54,0,0,1,.83.59l6,9.22a.75.75,0,0,0,.83.24,46.16,46.16,0,0,0,9.69-5.56,37.54,37.54,0,0,0,7.44-7.56C80.38,35.92,80.26,35.44,80,35.21Z"/><path class="cls-1" d="M66.44,53.64a1.64,1.64,0,0,0-1.07.23c-1.18.71-8.15,5.44-8.62,5.67a1.88,1.88,0,0,0-.71,1,1.72,1.72,0,0,0,.24,1.06C58,64,59.68,66.82,61.43,69.4l11-7.16-5.07-7.9A1.83,1.83,0,0,0,66.44,53.64Z"/><path class="cls-1" d="M61.59,71.12a.64.64,0,0,1-.26.1l-.56.37a.62.62,0,0,0-.24.47.51.51,0,0,0,.12.59L75.3,95.21a.59.59,0,0,0,.47.24.53.53,0,0,0,.59,0L90.3,86.36a1,1,0,0,0,.23-.48.52.52,0,0,0-.12-.59L75.77,62.73a1.73,1.73,0,0,0-.47-.35,1,1,0,0,0-.59.12l-.68.43a.75.75,0,0,1-.15.16Zm14.18-2.25a.74.74,0,0,1,.94.12L85.1,81.87a.76.76,0,0,1-.24,1.06c-.35.12-.82.12-.94-.24L75.53,69.82A.62.62,0,0,1,75.77,68.87Z"/><path class="cls-1" d="M63.72,53.17l-7.56-11.7a2,2,0,0,0-.83-.59h-.11l-3,8-.23.47c-.12.36-.36.83-.12,1.07l4.72,7.32C59,56.24,61.48,54.7,63.72,53.17Z"/><path class="cls-2" d="M61.59,71.12l12.29-8a.75.75,0,0,0,.15-.16l-12.7,8.29A.64.64,0,0,0,61.59,71.12Z"/><path class="cls-2" d="M56.28,61.55A1.72,1.72,0,0,1,56,60.49a1.88,1.88,0,0,1,.71-1c.47-.23,7.44-5,8.62-5.67a1.64,1.64,0,0,1,1.07-.23,1.83,1.83,0,0,1,.94.7l5.07,7.9,1.27-.82-5.16-7.9a2.83,2.83,0,0,0-1.77-1.3,3.13,3.13,0,0,0-1.75.2l.33.51A.76.76,0,0,1,65.14,54l-8.27,5.44a.78.78,0,0,1-1.06-.24l-.36-.56a2.74,2.74,0,0,0-.82,1.5A3.3,3.3,0,0,0,55,62.26l5.14,8,1.31-.85C59.68,66.82,58,64,56.28,61.55Z"/><path class="cls-2" d="M61.48,69.46l11-7.2v0l-11,7.16Z"/><path class="cls-2" d="M91.71,84.47,77.07,61.91A2.76,2.76,0,0,0,75.65,61a2.44,2.44,0,0,0-1.77.35l-.16.11.39.6a.74.74,0,0,1-.08.91l.68-.43a1,1,0,0,1,.59-.12,1.73,1.73,0,0,1,.47.35L90.41,85.29a.52.52,0,0,1,.12.59,1,1,0,0,1-.23.48L76.36,95.45a.53.53,0,0,1-.59,0,.59.59,0,0,1-.47-.24L60.65,72.65a.51.51,0,0,1-.12-.59.62.62,0,0,1,.24-.47l.56-.37a.78.78,0,0,1-.8-.34l-.41-.63-.06,0-.12.12A2.32,2.32,0,0,0,59,71.83a1.87,1.87,0,0,0,.35,1.53C64.07,80.92,69.15,88.6,74.11,96a2.54,2.54,0,0,0,1.3.95,2.07,2.07,0,0,0,1.66-.36L91,87.54a2.13,2.13,0,0,0,1.06-1.42A2,2,0,0,0,91.71,84.47Z"/><path class="cls-2" d="M61.33,71.22,74,62.93a.74.74,0,0,0,.08-.91l-.39-.6-1.27.82v0l-11,7.2,0-.06-1.31.85.41.63A.78.78,0,0,0,61.33,71.22Z"/><path class="cls-2" d="M64.55,52.69a4,4,0,0,1,.49-.27l-7.7-11.66a3.26,3.26,0,0,0-1.53-1.3.88.88,0,0,0-.59-.12,1.46,1.46,0,0,0-.71.12l-.12.12a2.76,2.76,0,0,0-.47.59l-3.08,8.27-.11.35c-.36.83-.71,1.54,0,2.49l4.72,7.35a3.14,3.14,0,0,1,.48-.39ZM52,49.38l.23-.47,3-8h.11a2,2,0,0,1,.83.59l7.56,11.7c-2.24,1.53-4.72,3.07-7.09,4.6l-4.72-7.32C51.67,50.21,51.91,49.74,52,49.38Z"/><path class="cls-2" d="M56.87,59.43,65.14,54a.76.76,0,0,0,.23-1.06L65,52.42a4,4,0,0,0-.49.27l-8.62,5.55a3.14,3.14,0,0,0-.48.39l.36.56A.78.78,0,0,0,56.87,59.43Z"/><path class="cls-2" d="M83.92,82.69c.12.36.59.36.94.24a.76.76,0,0,0,.24-1.06L76.71,69a.74.74,0,0,0-.94-.12.62.62,0,0,0-.24.95Z"/></svg>