<?xml version="1.0" encoding="utf-8"?>
<!-- Generator: Adobe Illustrator 23.0.3, SVG Export Plug-In . SVG Version: 6.00 Build 0)  -->
<svg version="1.1" id="Capa_1" focusable="false" xmlns="http://www.w3.org/2000/svg" xmlns:xlink="http://www.w3.org/1999/xlink"
	 x="0px" y="0px" viewBox="0 0 512 512" style="enable-background:new 0 0 512 512;" xml:space="preserve">
<style type="text/css">
	.st0{fill:#C60A2C;}
</style>
<path class="st0" d="M416,384H160c-35.3,0-64,28.6-64,64v32c0,17.7,14.3,32,32,32h320c17.7,0,32-14.3,32-32v-32
	C480,412.6,451.4,384,416,384z M288,480c-17.7,0-32-14.3-32-32s14.3-32,32-32s32,14.3,32,32S305.7,480,288,480z M328,64h166.5L512,0
	H48C21.5,0,0,21.5,0,48v160c0,26.5,21.5,48,48,48h103.3l8.7,96h256l17.5-64H328c-4.4,0-8-3.6-8-8v-16c0-4.4,3.6-8,8-8h114.2l17.5-64
	H328c-4.4,0-8-3.6-8-8v-16c0-4.4,3.6-8,8-8h140.4l17.5-64H328c-4.4,0-8-3.6-8-8V72C320,67.6,323.6,64,328,64z M64,192V64h69.8
	l11.6,128H64z"/>
</svg>
