<?xml version="1.0" encoding="utf-8"?>
<!-- Generator: Adobe Illustrator 23.0.3, SVG Export Plug-In . SVG Version: 6.00 Build 0)  -->
<svg version="1.1" id="Capa_1" focusable="false" xmlns="http://www.w3.org/2000/svg" xmlns:xlink="http://www.w3.org/1999/xlink"
	 x="0px" y="0px" viewBox="0 0 448 512" style="enable-background:new 0 0 448 512;" xml:space="preserve">
<style type="text/css">
	.st0{fill:#C60A2C;}
</style>
<path class="st0" d="M112,128c0-29.5,16.2-55,40-68.9V256h48V48h48v208h48V59.1c23.8,13.9,40,39.4,40,68.9v128h48V128
	C384,57.3,326.7,0,256,0h-64C121.3,0,64,57.3,64,128v128h48V128z M446.3,341.9l-10.7-32c-4.4-13.1-16.6-21.9-30.4-21.9H42.7
	c-13.8,0-26,8.8-30.4,21.9l-10.7,32C-5.2,362.6,10.2,384,32,384v112c0,8.8,7.2,16,16,16h32c8.8,0,16-7.2,16-16V384h256v112
	c0,8.8,7.2,16,16,16h32c8.8,0,16-7.2,16-16V384C437.8,384,453.2,362.6,446.3,341.9z"/>
</svg>
