<?xml version="1.0" encoding="utf-8"?>
<!-- Generator: Adobe Illustrator 23.0.3, SVG Export Plug-In . SVG Version: 6.00 Build 0)  -->
<svg version="1.1" id="Capa_1" focusable="false" xmlns="http://www.w3.org/2000/svg" xmlns:xlink="http://www.w3.org/1999/xlink"
	 x="0px" y="0px" viewBox="0 0 512 512" style="enable-background:new 0 0 512 512;" xml:space="preserve">
<style type="text/css">
	.st0{fill:#C60A2C;}
</style>
<path class="st0" d="M436,512H76c-6.6,0-12-5.4-12-12v-24c0-6.6,5.4-12,12-12h360c6.6,0,12,5.4,12,12v24
	C448,506.6,442.6,512,436,512z M255.6,0c-30.9,0-56,25.1-56,56s25.1,56,56,56s56-25.1,56-56S286.5,0,255.6,0L255.6,0z M460.1,154.6
	c-5.8-3-12.9-0.9-16.1,4.8c-8.6,15.5-22.7,37.8-44.1,37.8c-28.7,0-30.6-19.8-31.7-57.5c-0.2-6.5-5.5-11.7-12-11.7h-41
	c-5.2,0-9.8,3.3-11.4,8.2c-8.9,26.7-26.1,41-47.9,41s-39-14.3-47.9-41c-1.6-4.9-6.2-8.2-11.4-8.2h-41c-6.5,0-11.8,5.2-12,11.7
	c-1.1,37.6-2.9,57.5-31.7,57.5c-20.7,0-33.8-20.2-44.4-38c-3.3-5.5-10.3-7.4-15.9-4.5l-39.2,20.7c-5.5,2.9-7.8,9.4-5.5,15.1L112,448
	h288l105-257.4c2.3-5.7-0.1-12.3-5.5-15.1L460.1,154.6L460.1,154.6z"/>
</svg>
