<?xml version="1.0" encoding="utf-8"?>
<!-- Generator: Adobe Illustrator 23.0.3, SVG Export Plug-In . SVG Version: 6.00 Build 0)  -->
<svg version="1.1" id="Capa_1" focusable="false" xmlns="http://www.w3.org/2000/svg" xmlns:xlink="http://www.w3.org/1999/xlink"
	 x="0px" y="0px" viewBox="0 0 512 512" style="enable-background:new 0 0 512 512;" xml:space="preserve">
<style type="text/css">
	.st0{fill:#C60A2C;}
</style>
<g>
	<path class="st0" d="M318.6,288.2l-44.1-32.1v-93.5c0-4.4-3.6-7.9-7.9-7.9h-21.1c-4.4,0-7.9,3.6-7.9,7.9V271c0,2.5,1.2,4.9,3.2,6.4
		l56,40.7c3.6,2.6,8.5,1.8,11.1-1.7l12.4-17.1C322.9,295.8,322.1,290.8,318.6,288.2z"/>
	<path class="st0" d="M419.7,255c0-60.3-32.6-113-81.2-141.4V16.7h-165v96.9C124.9,142,92.3,194.7,92.3,255
		c0,62.9,35.4,117.4,87.4,144.8v95.4h165V392.7C389.8,363.6,419.7,312.8,419.7,255z M203.5,41.7h103v57.6
		c-15.9-5.2-32.9-7.9-50.5-7.9c-18.4,0-36,3-52.5,8.6V41.7z M314.6,470.3h-103v-57.7c14.1,4,29,6.1,44.4,6.1
		c20.7,0,40.4-3.8,58.6-10.8V470.3z M256,387.1c-72.9,0-132-59.1-132-132s59.1-132,132-132s132,59.1,132,132S328.9,387.1,256,387.1z
		"/>
</g>
</svg>
