<?xml version="1.0" encoding="utf-8"?>
<!-- Generator: Adobe Illustrator 23.0.3, SVG Export Plug-In . SVG Version: 6.00 Build 0)  -->
<svg version="1.1" id="Capa_1" focusable="false" xmlns="http://www.w3.org/2000/svg" xmlns:xlink="http://www.w3.org/1999/xlink"
	 x="0px" y="0px" viewBox="0 0 576 512" style="enable-background:new 0 0 576 512;" xml:space="preserve">
<style type="text/css">
	.st0{fill:#C60A2C;}
</style>
<path class="st0" d="M458.1,120.9l102.4-61.4c15.2-9.1,20.1-28.8,11-43.9c-9.1-15.1-28.7-20.1-43.9-11L366.8,101
	c-26.1-3.3-52.5-5-78.8-5C128.9,96,0,153.3,0,224v160.8c0,30.5,24,58.4,64,80.4v-96.4c0-17.6,14.4-32,32-32s32,14.4,32,32v122.4
	c37.4,11.1,81,18.4,128,20.8V400.8c0-17.6,14.4-32,32-32s32,14.4,32,32V512c47-2.3,90.6-9.6,128-20.8V368.8c0-17.6,14.4-32,32-32
	s32,14.4,32,32v96.4c40-22,64-49.9,64-80.4V224C576,181.6,529.5,144.2,458.1,120.9L458.1,120.9z M288,304c-132.6,0-240-35.8-240-80
	s107.4-80,240-80c2.3,0,4.6,0.1,6.9,0.1l-87.4,52.4c-15.2,9.1-20.1,28.8-11,43.9c9.6,15.9,29.5,19.6,43.9,11l162.7-97.6
	C477.5,167.4,528,193.7,528,224C528,268.2,420.5,304,288,304z"/>
</svg>
