<?xml version="1.0" encoding="utf-8"?>
<!-- Generator: Adobe Illustrator 23.0.3, SVG Export Plug-In . SVG Version: 6.00 Build 0)  -->
<svg version="1.1" id="Capa_1" focusable="false" xmlns="http://www.w3.org/2000/svg" xmlns:xlink="http://www.w3.org/1999/xlink"
	 x="0px" y="0px" viewBox="0 0 256 512" style="enable-background:new 0 0 256 512;" xml:space="preserve">
<style type="text/css">
	.st0{fill:#C60A2C;}
</style>
<path class="st0" d="M128,0c35.3,0,64,28.7,64,64s-28.7,64-64,64S64,99.3,64,64S92.7,0,128,0 M247.3,354.2l-48-192
	C196.6,151.5,187,144,176,144h-11.4c-22.7,10.4-49.6,10.9-73.3,0H80c-11,0-20.6,7.5-23.3,18.2l-48,192C4.9,369.3,16.4,384,32,384h56
	v104c0,13.3,10.7,24,24,24h32c13.3,0,24-10.7,24-24V384h56C239.6,384,251.1,369.3,247.3,354.2L247.3,354.2z"/>
</svg>
