<svg id="eUizKlAbXg11" xmlns="http://www.w3.org/2000/svg" xmlns:xlink="http://www.w3.org/1999/xlink" viewBox="0 0 1920 1080" shape-rendering="geometricPrecision" text-rendering="geometricPrecision"><g id="eUizKlAbXg12" transform="matrix(1 0 0 1 345.318778 278.211786)"><g id="eUizKlAbXg13" transform="matrix(0.472139 0 0 0.472139 304.466245 147.187788)" opacity="0"><g id="eUizKlAbXg14" clip-path="url(#eUizKlAbXg18)"><g id="eUizKlAbXg15"><path id="eUizKlAbXg16" d="M818,298.82C817.47,322.24,812.76,344.82,801.92,365.82C787.37,394,767,416.62,738,430.61C723.540348,437.720029,707.863254,442.022747,691.8,443.29C678.31,444.29,664.74,444.58,651.2,444.6C609.8,444.67,568.39,444.45,526.98,444.37C517.98,444.37,508.98,443.97,499.98,444.54C480.59,445.77,463.27,452.41,449.24,466.23C439.35,475.98,434.6,488.15,433.66,501.89C432.66,516.71,436.52,530.68,441.19,544.5C441.72942,545.903458,442.030238,547.387272,442.08,548.89C436.08,544.39,429.99,539.96,424.08,535.36C408.38,523.17,393.56,510.04,380.92,494.59C371.712172,483.544109,364.070303,471.282123,358.21,458.15C355.44,451.8,351.29,449.15,344.33,449.15C313.22,448.93,282.11,448.15,250.99,447.91C215.99,447.65,180.93,447.97,145.9,447.66C106.9,447.31,73.46,433.03,45.83,405.58C23.51,383.42,10.26,356.41,5.19,325.48C3.3166,314.296255,2.084587,303.014488,1.5,291.69Q0.06,262,0,232.25C0,211.88,0.68,191.5,1.05,171.13C1.17,164.4,1.17,157.67,1.35,150.95C1.803165,129.140195,4.561843,107.439486,9.58,86.21C18.4,50.08,41.05,26.37,76,14.27C90.11,9.39,104.74,6.57,119.46,4.27C136.31,1.62,153.28,1.1,170.29,1C195.76,0.85,221.23,0.22,246.69,0.41C271.6,0.6,296.52,1.29,321.41,2.28C334.792107,2.674923,347.973981,5.635159,360.24,11C378.24,19,390.24,33,398.93,50.16C401.98,56.23,404.41,62.61,407.17,68.83C408.04,70.83,409.06,72.67,410.17,74.97C412.02,70.97,413.6,67.27,415.32,63.7C424.27,45.22,436.73,29.79,454.42,18.91C467.149127,11.048675,481.523418,6.23671,496.42,4.85C507.71,3.77,519.06,3.17,530.42,2.67C552.58,1.67,574.74,0.61,596.91,0.17C614.19,-0.16,631.5,-0.06,648.76,0.72C665.7,1.49,682.6,3.31,699.51,4.77C716.543021,6.298526,733.267615,10.269186,749.17,16.56C779.72,28.5,798.37,51.03,807.17,82.18C810.784175,95.056292,813.072735,108.268286,814,121.61C815.12,137.09,815.72,152.61,816.18,168.14C816.78,188.24,817.02,208.34,817.41,228.43C817.56,236.07,817.75,243.71,817.82,251.35C817.94,267.17,818.4,283,818,298.82ZM589.18,501.05C585.58,487.53,576.7,478.05,565.25,470.72C551.06,461.64,535.11,459.16,515.72,458.6C500,460,483,465.43,469.19,478.51C456.49,490.59,451.03,505.42,455.46,522.84C458.88,536.31,467.63,546.08,479.16,553.31C497.59,564.86,517.73,567.73,538.85,563.72C555.09,560.63,569.36,553.58,580.05,540.58C589.57,529,593.1,515.79,589.18,501.05ZM654.46,555.35C646.15,548.93,636.46,545.92,626.15,545.35C611.49,544.49,597.93,547.71,586.76,557.8C578.98,564.8,574.91,573.62,576.54,584.35C577.95,593.63,583.39,600.35,590.8,605.73C599.531866,612.004784,610.104938,615.192538,620.85,614.79C635.13,615.09,646.85,611.63,656.76,602.85C664.76,595.74,669.19,587.02,667.54,576.03C666.23,567.23,661.28,560.62,654.46,555.35Z" transform="matrix(1 0 0 1 215.580002 0)" fill="rgb(239,239,239)" stroke="none" stroke-width="1"/><path id="eUizKlAbXg17" d="M1080.42,520.25C1080.42,520.25,1057.78,537.98,1037.52,522.47C1016.58,506.42,1001.27,512.94,992.59,520.08C984.59,526.67,966.29,534.59,950.71,521.96C933.88,508.3,917.71,509.96,904.59,519.4C890.66,529.4,875.31,534.55,858.46,522.81C841.61,511.07,828.8,515.81,820.16,521.28C811.16,527.01,790.98,536.5,777.44,523.28C762.8,509.04,745.1,511.87,733.52,522.09C724.83,529.75,705.52,539.09,690.63,526.09C667.48,506,654.2,514.97,644.5,521.87C634.8,528.77,617.27,541.78,597.86,527.06C572.73,507.99,552.64,516.99,542.2,524.36C530.72,532.46,514.01,549.15,488.71,527C466.63,507.66,450.71,515.66,437.9,527.38C426.9,537.38,409.78,544.98,389.52,529.47C368.58,513.47,353.27,519.93,344.59,527.08C336.59,533.67,318.29,541.59,302.71,528.95C285.88,515.3,269.71,516.95,256.59,526.4C242.66,536.4,227.31,541.55,210.46,529.81C193.61,518.07,180.8,522.81,172.16,528.27C163.16,534.01,142.98,543.5,129.44,530.27C114.8,516.16,97.1,519,85.52,529.21C76.83,536.88,57.52,546.21,42.63,533.27C19.48,513.18,6.2,522.15,-3.5,529C-13.2,535.85,-30.73,548.92,-50.14,534.2C-75.27,515.13,-90.77,525.04,-101.2,532.41C-112.68,540.51,-130.56,554.75,-157.37,534.41C-188.48,510.86,-215.58,534.41,-215.58,534.41L-215.58,761.73L1080.42,761.73Z" transform="matrix(4.167207 0 0 4.167241 1181.26736 -1557.148221)" fill="rgb(207,19,44)" stroke="none" stroke-width="1"/></g><clipPath id="eUizKlAbXg18" transform="matrix(1 0 0 1 215.580002 0)"><path id="eUizKlAbXg19" d="M818,298.82C817.47,322.24,812.76,344.82,801.92,365.82C787.37,394,767,416.62,738,430.61C723.540348,437.720029,707.863254,442.022747,691.8,443.29C678.31,444.29,664.74,444.58,651.2,444.6C609.8,444.67,568.39,444.45,526.98,444.37C517.98,444.37,508.98,443.97,499.98,444.54C480.59,445.77,463.27,452.41,449.24,466.23C439.35,475.98,434.6,488.15,433.66,501.89C432.66,516.71,436.52,530.68,441.19,544.5C441.72942,545.903458,442.030238,547.387272,442.08,548.89C436.08,544.39,429.99,539.96,424.08,535.36C408.38,523.17,393.56,510.04,380.92,494.59C371.712172,483.544109,364.070303,471.282123,358.21,458.15C355.44,451.8,351.29,449.15,344.33,449.15C313.22,448.93,282.11,448.15,250.99,447.91C215.99,447.65,180.93,447.97,145.9,447.66C106.9,447.31,73.46,433.03,45.83,405.58C23.51,383.42,10.26,356.41,5.19,325.48C3.3166,314.296255,2.084587,303.014488,1.5,291.69Q0.06,262,0,232.25C0,211.88,0.68,191.5,1.05,171.13C1.17,164.4,1.17,157.67,1.35,150.95C1.803165,129.140195,4.561843,107.439486,9.58,86.21C18.4,50.08,41.05,26.37,76,14.27C90.11,9.39,104.74,6.57,119.46,4.27C136.31,1.62,153.28,1.1,170.29,1C195.76,0.85,221.23,0.22,246.69,0.41C271.6,0.6,296.52,1.29,321.41,2.28C334.792107,2.674923,347.973981,5.635159,360.24,11C378.24,19,390.24,33,398.93,50.16C401.98,56.23,404.41,62.61,407.17,68.83C408.04,70.83,409.06,72.67,410.17,74.97C412.02,70.97,413.6,67.27,415.32,63.7C424.27,45.22,436.73,29.79,454.42,18.91C467.149127,11.048675,481.523418,6.23671,496.42,4.85C507.71,3.77,519.06,3.17,530.42,2.67C552.58,1.67,574.74,0.61,596.91,0.17C614.19,-0.16,631.5,-0.06,648.76,0.72C665.7,1.49,682.6,3.31,699.51,4.77C716.543021,6.298526,733.267615,10.269186,749.17,16.56C779.72,28.5,798.37,51.03,807.17,82.18C810.784175,95.056292,813.072735,108.268286,814,121.61C815.12,137.09,815.72,152.61,816.18,168.14C816.78,188.24,817.02,208.34,817.41,228.43C817.56,236.07,817.75,243.71,817.82,251.35C817.94,267.17,818.4,283,818,298.82ZM589.18,501.05C585.58,487.53,576.7,478.05,565.25,470.72C551.06,461.64,535.11,459.16,515.72,458.6C500,460,483,465.43,469.19,478.51C456.49,490.59,451.03,505.42,455.46,522.84C458.88,536.31,467.63,546.08,479.16,553.31C497.59,564.86,517.73,567.73,538.85,563.72C555.09,560.63,569.36,553.58,580.05,540.58C589.57,529,593.1,515.79,589.18,501.05ZM654.46,555.35C646.15,548.93,636.46,545.92,626.15,545.35C611.49,544.49,597.93,547.71,586.76,557.8C578.98,564.8,574.91,573.62,576.54,584.35C577.95,593.63,583.39,600.35,590.8,605.73C599.531866,612.004784,610.104938,615.192538,620.85,614.79C635.13,615.09,646.85,611.63,656.76,602.85C664.76,595.74,669.19,587.02,667.54,576.03C666.23,567.23,661.28,560.62,654.46,555.35Z" transform="matrix(1 0 0 1 0.000001 0)" fill="none" stroke="none" stroke-width="1"/></clipPath></g><path id="eUizKlAbXg110" d="M267.43,142.11C252.86,142.02,240.36,138.76,229.55,130.45C222.37,124.93,216.55,118.18,214.97,108.96C212.57,95.3,216.59,83.76,227.32,74.73C237.4,66.24,249.1,62.14,262.18,61.5C277.74,60.74,292,64.29,304.26,74.21C312.75,81.09,318,90,318.19,101.07C318.38,112.14,313.44,121.19,305.24,128.41C294.15,138.17,280.86,141.92,267.43,142.11Z" transform="matrix(1 0 0 1 215.580002 0)" fill="rgb(116,192,209)" stroke="none" stroke-width="1"/><path id="eUizKlAbXg111" d="M664,322.48C647.93,322.37,634.34,321.73,621.16,317.68C606,313,593.1,305.27,584.5,291.5C579.06,282.8,576.36,273.21,575.06,263.13C573.798638,253.56685,573.63089,243.891127,574.56,234.29C576.29,216.78,581.48,200.87,595.46,189.01C603.71,182.01,613.46,178.06,623.75,175.32C639.126212,171.216262,655.069017,169.649003,670.95,170.68C685.19,171.6,699.2,174.09,712.42,179.68C731.96,187.95,743.2,203.09,747.19,223.68C748.672613,230.809724,749.502709,238.059676,749.67,245.34C749.84,263.23,746.81,280.44,736.01,295.39C726.94,307.95,714.21,314.93,699.52,318.72C687.06,321.91,674.31,322.32,664,322.48ZM662.38,205.57C657.31,206.12,652.96,206.32,648.71,207.12C635.76,209.53,626.71,216.66,623.1,229.65C619.78004,241.498497,619.78004,254.031503,623.1,265.88C626.35,277.83,634.24,285.29,646.1,288.29C655.98825,290.810684,666.339777,290.899891,676.27,288.55C688.67,285.66,696.84,278.19,700.4,265.92C703.709295,254.430376,703.840623,242.258351,700.78,230.7C697.7,218.54,689.78,210.76,677.63,207.81C672.4,206.56,667,206.22,662.34,205.57Z" transform="matrix(1 0 0 1 215.580002 0)" fill="rgb(255,255,255)" stroke="none" stroke-width="1"/><path id="eUizKlAbXg112" d="M397.85,260.8L346.71,260.8C341.71,260.93,339.94,263.37,341.6,268.08C345.37,278.79,352.51,285.73,363.9,288.08C377.5,290.86,391.04,291.74,404.63,288.08C411.578133,286.16405,418.184405,283.174695,424.21,279.22C430.52,275.13,434.1,275.57,438.84,281.35C442.577821,285.803257,446.079305,290.449649,449.33,295.27C452.79,300.56,451.81,304.22,446.24,307.33C435.19,313.48,423.31,317.5,411.02,320.33C397.455783,323.461801,383.466722,324.326825,369.62,322.89C354.08,321.3,339.02,317.62,325.03,310.6C311.85,303.99,304.03,292.69,300.12,278.75C294.375056,258.503439,294.216105,237.079575,299.66,216.75C304.91,196.56,318.35,183.92,337.73,177.36C354.718148,171.625982,372.704153,169.447511,390.57,170.96C401.06,171.8,411.43,173.3,421.32,177.03C438.41,183.48,448.21,196.27,452.37,213.71C454.274277,222.273104,455.176998,231.028493,455.06,239.8C455.06,244.15,455.13,248.5,455.21,252.8C455.32,259.35,453.85,260.87,447.43,260.87Q422.63,260.87,397.85,260.87ZM374.74,232.15L374.74,232.15C383.6,232.15,392.47,232.15,401.33,232.15C403.496813,232.133729,405.659426,231.956575,407.8,231.62C412.21,230.93,414.19,228.43,413.17,224.14C410.92,214.66,405.86,207.5,395.83,205.04C384.03,202.16,372.32,202.81,360.64,206.04C350.64,208.77,344.45,215.27,341.33,224.97C339.69,230.07,341.22,232.21,346.58,232.22Q360.67,232.17,374.74,232.15Z" transform="matrix(1 0 0 1 215.580002 0)" fill="rgb(255,255,255)" stroke="none" stroke-width="1"/><path id="eUizKlAbXg113" d="M134.51,212.26C137.27,209.75,139.51,207.77,141.71,205.69C150.71,197.03,159.89,188.47,168.77,179.69C175.71,172.79,183.77,169.48,193.6,169.92C201.6,170.28,209.6,170.09,217.6,170.08C219.6,170.08,221.41,170.26,222.39,172.38C223.37,174.5,222.13,175.93,220.89,177.25C206.13,193.08,191.28,208.83,176.59,224.73C174.187429,227.210816,172.228942,230.085971,170.8,233.23C169.12,237.23,170.85,241.14,173.28,244.45C178.94,252.14,184.9,259.61,190.54,267.32C200.94,281.55,211.19,295.89,221.54,310.17C222.66,311.71,223.96,313.12,225.09,314.67C226.22,316.22,227,317.96,225.93,319.98C224.86,322,223.15,322.05,221.25,322.04C213.51,322.04,205.77,321.85,198.04,322.04C186.96,322.3,178.51,317.41,171.75,309.09Q155,288.49,138.44,267.9C138.12,267.5,137.79,267.1,137.44,266.64C135.35,267.05,134.44,268.02,134.44,270.32C134.58,283.71,134.55,297.1,134.57,310.5C134.603446,311.890965,134.566733,313.282732,134.46,314.67C134.05,318.83,131.46,322.19,127.54,322.26C117.32,322.42,107.07,322.26,96.86,321.84C92.86,321.66,91.27,319.45,91.22,315.39C91.13,306.95,91.22,298.51,91.22,290.08Q91.22,234.9,91.12,179.71C91.12,168.71,94.12,165.71,105.01,165.87C112.31,165.94,119.62,165.96,126.9,166.36C132.63,166.68,134.41,168.81,134.45,174.74C134.54,185.26,134.45,195.74,134.45,206.31C134.52,208,134.51,209.76,134.51,212.26Z" transform="matrix(1 0 0 1 215.580002 0)" fill="rgb(255,255,255)" stroke="none" stroke-width="1"/><path id="eUizKlAbXg114" d="M510.59,185C514.59,182.58,518.37,180,522.43,177.93C530.62,173.83,539.57,172.56,548.56,171.67C551.41,171.38,554.27,171.14,557.12,171.13C561.29,171.13,564.33,173.57,564.49,177.64C564.78,185.09,564.76,192.56,564.63,200.02C564.54,205.32,561.5,208.59,556.43,209.69C550.77,210.92,545.02,211.69,539.34,212.86C535.166823,213.612786,531.045301,214.628137,527,215.9C517.21,219.25,512.19,226.66,511.44,236.63C510.69,246.6,510.54,256.75,510.49,266.81C510.42,281.49,510.69,296.18,510.8,310.86C510.855245,311.990656,510.825159,313.123868,510.71,314.25C509.79,320.76,506.9,323.31,500.25,323.25Q486.57,323.19,472.88,322.93C467.62,322.84,464.94,320.05,464.94,314.73Q464.94,247.19,464.94,179.64C464.94,173.64,467.87,170.82,474.26,170.64C477.64,170.57,481.03,170.9,484.42,170.88C489.2,170.88,493.97,170.61,498.75,170.54C508.11,170.4,511.75,174.49,510.66,183.76C510.64,184.22,510.62,184.61,510.59,185Z" transform="matrix(1 0 0 1 215.580002 0)" fill="rgb(255,255,255)" stroke="none" stroke-width="1"/><path id="eUizKlAbXg115" d="M240.51,246.83Q240.51,214.36,240.51,181.89C240.51,172.39,242.27,170.64,251.75,170.6C259.4,170.6,267.05,170.6,274.7,170.6C276.607771,170.63356,278.511536,170.787197,280.4,171.06C284.24,171.59,286.09,173.46,286.4,177.39C286.71,181.32,286.8,185.19,286.8,189.09Q286.8,245.43,286.8,301.75C286.8,306.09,286.63,310.44,286.44,314.75C286.22,319.93,284.44,321.8,279.23,321.86C268.97,321.97,258.71,322.02,248.45,321.86C242.65,321.77,240.55,319.49,240.54,313.57C240.48,291.32,240.54,269.06,240.54,246.81Z" transform="matrix(1 0 0 1 215.580002 0)" fill="rgb(255,255,255)" stroke="none" stroke-width="1"/></g></g><ellipse id="eUizKlAbXg116" rx="424.412734" ry="424.412734" transform="matrix(0.066351 0 0 0.066351 -58.18122 557.431786)" fill="rgb(231,231,231)" stroke="none" stroke-width="0"/><ellipse id="eUizKlAbXg117" rx="424.412734" ry="424.412734" transform="matrix(0.066351 0 0 0.066351 941.81878 557.431786)" opacity="0" fill="rgb(207,19,44)" stroke="none" stroke-width="0"/><script><![CDATA[!function(t,n){"object"==typeof exports&&"undefined"!=typeof module?module.exports=n():"function"==typeof define&&define.amd?define(n):((t="undefined"!=typeof globalThis?globalThis:t||self).__SVGATOR_PLAYER__=t.__SVGATOR_PLAYER__||{},t.__SVGATOR_PLAYER__["5c7f360c"]=n())}(this,(function(){"use strict";function t(t,n){var r=Object.keys(t);if(Object.getOwnPropertySymbols){var e=Object.getOwnPropertySymbols(t);n&&(e=e.filter((function(n){return Object.getOwnPropertyDescriptor(t,n).enumerable}))),r.push.apply(r,e)}return r}function n(n){for(var r=1;r<arguments.length;r++){var e=null!=arguments[r]?arguments[r]:{};r%2?t(Object(e),!0).forEach((function(t){u(n,t,e[t])})):Object.getOwnPropertyDescriptors?Object.defineProperties(n,Object.getOwnPropertyDescriptors(e)):t(Object(e)).forEach((function(t){Object.defineProperty(n,t,Object.getOwnPropertyDescriptor(e,t))}))}return n}function r(t){return(r="function"==typeof Symbol&&"symbol"==typeof Symbol.iterator?function(t){return typeof t}:function(t){return t&&"function"==typeof Symbol&&t.constructor===Symbol&&t!==Symbol.prototype?"symbol":typeof t})(t)}function e(t,n){if(!(t instanceof n))throw new TypeError("Cannot call a class as a function")}function i(t,n){for(var r=0;r<n.length;r++){var e=n[r];e.enumerable=e.enumerable||!1,e.configurable=!0,"value"in e&&(e.writable=!0),Object.defineProperty(t,e.key,e)}}function o(t,n,r){return n&&i(t.prototype,n),r&&i(t,r),t}function u(t,n,r){return n in t?Object.defineProperty(t,n,{value:r,enumerable:!0,configurable:!0,writable:!0}):t[n]=r,t}function a(t){return(a=Object.setPrototypeOf?Object.getPrototypeOf:function(t){return t.__proto__||Object.getPrototypeOf(t)})(t)}function l(t,n){return(l=Object.setPrototypeOf||function(t,n){return t.__proto__=n,t})(t,n)}function f(){if("undefined"==typeof Reflect||!Reflect.construct)return!1;if(Reflect.construct.sham)return!1;if("function"==typeof Proxy)return!0;try{return Boolean.prototype.valueOf.call(Reflect.construct(Boolean,[],(function(){}))),!0}catch(t){return!1}}function s(t,n,r){return(s=f()?Reflect.construct:function(t,n,r){var e=[null];e.push.apply(e,n);var i=new(Function.bind.apply(t,e));return r&&l(i,r.prototype),i}).apply(null,arguments)}function c(t,n){if(n&&("object"==typeof n||"function"==typeof n))return n;if(void 0!==n)throw new TypeError("Derived constructors may only return object or undefined");return function(t){if(void 0===t)throw new ReferenceError("this hasn't been initialised - super() hasn't been called");return t}(t)}function h(t,n,r){return(h="undefined"!=typeof Reflect&&Reflect.get?Reflect.get:function(t,n,r){var e=function(t,n){for(;!Object.prototype.hasOwnProperty.call(t,n)&&null!==(t=a(t)););return t}(t,n);if(e){var i=Object.getOwnPropertyDescriptor(e,n);return i.get?i.get.call(r):i.value}})(t,n,r||t)}function v(t){return function(t){if(Array.isArray(t))return y(t)}(t)||function(t){if("undefined"!=typeof Symbol&&null!=t[Symbol.iterator]||null!=t["@@iterator"])return Array.from(t)}(t)||function(t,n){if(!t)return;if("string"==typeof t)return y(t,n);var r=Object.prototype.toString.call(t).slice(8,-1);"Object"===r&&t.constructor&&(r=t.constructor.name);if("Map"===r||"Set"===r)return Array.from(t);if("Arguments"===r||/^(?:Ui|I)nt(?:8|16|32)(?:Clamped)?Array$/.test(r))return y(t,n)}(t)||function(){throw new TypeError("Invalid attempt to spread non-iterable instance.\nIn order to be iterable, non-array objects must have a [Symbol.iterator]() method.")}()}function y(t,n){(null==n||n>t.length)&&(n=t.length);for(var r=0,e=new Array(n);r<n;r++)e[r]=t[r];return e}var g=d(Math.pow(10,-6));function d(t){var n=arguments.length>1&&void 0!==arguments[1]?arguments[1]:6;if(Number.isInteger(t))return t;var r=Math.pow(10,n);return Math.round((+t+Number.EPSILON)*r)/r}function p(t,n){var r=arguments.length>2&&void 0!==arguments[2]?arguments[2]:g;return Math.abs(t-n)<r}var m=Math.PI/180;function b(t){return t}function w(t,n,r){var e=1-r;return 3*r*e*(t*e+n*r)+r*r*r}function x(){var t=arguments.length>0&&void 0!==arguments[0]?arguments[0]:0,n=arguments.length>1&&void 0!==arguments[1]?arguments[1]:0,r=arguments.length>2&&void 0!==arguments[2]?arguments[2]:1,e=arguments.length>3&&void 0!==arguments[3]?arguments[3]:1;return t<0||t>1||r<0||r>1?null:p(t,n)&&p(r,e)?b:function(i){if(i<=0)return t>0?i*n/t:0===n&&r>0?i*e/r:0;if(i>=1)return r<1?1+(i-1)*(e-1)/(r-1):1===r&&t<1?1+(i-1)*(n-1)/(t-1):1;for(var o,u=0,a=1;u<a;){var l=w(t,r,o=(u+a)/2);if(p(i,l))break;l<i?u=o:a=o}return w(n,e,o)}}function A(){return 1}function k(t){return 1===t?1:0}function S(){var t=arguments.length>0&&void 0!==arguments[0]?arguments[0]:1,n=arguments.length>1&&void 0!==arguments[1]?arguments[1]:0;if(1===t){if(0===n)return k;if(1===n)return A}var r=1/t;return function(t){return t>=1?1:(t+=n*r)-t%r}}var _=Math.sin,O=Math.cos,j=Math.acos,M=Math.asin,P=Math.tan,E=Math.atan2,I=Math.PI/180,R=180/Math.PI,F=Math.sqrt,N=function(){function t(){var n=arguments.length>0&&void 0!==arguments[0]?arguments[0]:1,r=arguments.length>1&&void 0!==arguments[1]?arguments[1]:0,i=arguments.length>2&&void 0!==arguments[2]?arguments[2]:0,o=arguments.length>3&&void 0!==arguments[3]?arguments[3]:1,u=arguments.length>4&&void 0!==arguments[4]?arguments[4]:0,a=arguments.length>5&&void 0!==arguments[5]?arguments[5]:0;e(this,t),this.m=[n,r,i,o,u,a],this.i=null,this.w=null,this.s=null}return o(t,[{key:"determinant",get:function(){var t=this.m;return t[0]*t[3]-t[1]*t[2]}},{key:"isIdentity",get:function(){if(null===this.i){var t=this.m;this.i=1===t[0]&&0===t[1]&&0===t[2]&&1===t[3]&&0===t[4]&&0===t[5]}return this.i}},{key:"point",value:function(t,n){var r=this.m;return{x:r[0]*t+r[2]*n+r[4],y:r[1]*t+r[3]*n+r[5]}}},{key:"translateSelf",value:function(){var t=arguments.length>0&&void 0!==arguments[0]?arguments[0]:0,n=arguments.length>1&&void 0!==arguments[1]?arguments[1]:0;if(!t&&!n)return this;var r=this.m;return r[4]+=r[0]*t+r[2]*n,r[5]+=r[1]*t+r[3]*n,this.w=this.s=this.i=null,this}},{key:"rotateSelf",value:function(){var t=arguments.length>0&&void 0!==arguments[0]?arguments[0]:0;if(t%=360){var n=_(t*=I),r=O(t),e=this.m,i=e[0],o=e[1];e[0]=i*r+e[2]*n,e[1]=o*r+e[3]*n,e[2]=e[2]*r-i*n,e[3]=e[3]*r-o*n,this.w=this.s=this.i=null}return this}},{key:"scaleSelf",value:function(){var t=arguments.length>0&&void 0!==arguments[0]?arguments[0]:1,n=arguments.length>1&&void 0!==arguments[1]?arguments[1]:1;if(1!==t||1!==n){var r=this.m;r[0]*=t,r[1]*=t,r[2]*=n,r[3]*=n,this.w=this.s=this.i=null}return this}},{key:"skewSelf",value:function(t,n){if(n%=360,(t%=360)||n){var r=this.m,e=r[0],i=r[1],o=r[2],u=r[3];t&&(t=P(t*I),r[2]+=e*t,r[3]+=i*t),n&&(n=P(n*I),r[0]+=o*n,r[1]+=u*n),this.w=this.s=this.i=null}return this}},{key:"resetSelf",value:function(){var t=arguments.length>0&&void 0!==arguments[0]?arguments[0]:1,n=arguments.length>1&&void 0!==arguments[1]?arguments[1]:0,r=arguments.length>2&&void 0!==arguments[2]?arguments[2]:0,e=arguments.length>3&&void 0!==arguments[3]?arguments[3]:1,i=arguments.length>4&&void 0!==arguments[4]?arguments[4]:0,o=arguments.length>5&&void 0!==arguments[5]?arguments[5]:0,u=this.m;return u[0]=t,u[1]=n,u[2]=r,u[3]=e,u[4]=i,u[5]=o,this.w=this.s=this.i=null,this}},{key:"recomposeSelf",value:function(){var t=arguments.length>0&&void 0!==arguments[0]?arguments[0]:null,n=arguments.length>1&&void 0!==arguments[1]?arguments[1]:null,r=arguments.length>2&&void 0!==arguments[2]?arguments[2]:null,e=arguments.length>3&&void 0!==arguments[3]?arguments[3]:null,i=arguments.length>4&&void 0!==arguments[4]?arguments[4]:null;return this.isIdentity||this.resetSelf(),t&&(t.x||t.y)&&this.translateSelf(t.x,t.y),n&&this.rotateSelf(n),r&&(r.x&&this.skewSelf(r.x,0),r.y&&this.skewSelf(0,r.y)),!e||1===e.x&&1===e.y||this.scaleSelf(e.x,e.y),i&&(i.x||i.y)&&this.translateSelf(i.x,i.y),this}},{key:"decompose",value:function(){var t=arguments.length>0&&void 0!==arguments[0]?arguments[0]:0,n=arguments.length>1&&void 0!==arguments[1]?arguments[1]:0,r=this.m,e=r[0]*r[0]+r[1]*r[1],i=[[r[0],r[1]],[r[2],r[3]]],o=F(e);if(0===o)return{origin:{x:d(r[4]),y:d(r[5])},translate:{x:d(t),y:d(n)},scale:{x:0,y:0},skew:{x:0,y:0},rotate:0};i[0][0]/=o,i[0][1]/=o;var u=r[0]*r[3]-r[1]*r[2]<0;u&&(o=-o);var a=i[0][0]*i[1][0]+i[0][1]*i[1][1];i[1][0]-=i[0][0]*a,i[1][1]-=i[0][1]*a;var l=F(i[1][0]*i[1][0]+i[1][1]*i[1][1]);if(0===l)return{origin:{x:d(r[4]),y:d(r[5])},translate:{x:d(t),y:d(n)},scale:{x:d(o),y:0},skew:{x:0,y:0},rotate:0};i[1][0]/=l,i[1][1]/=l,a/=l;var f=0;return i[1][1]<0?(f=j(i[1][1])*R,i[0][1]<0&&(f=360-f)):f=M(i[0][1])*R,u&&(f=-f),a=E(a,F(i[0][0]*i[0][0]+i[0][1]*i[0][1]))*R,u&&(a=-a),{origin:{x:d(r[4]),y:d(r[5])},translate:{x:d(t),y:d(n)},scale:{x:d(o),y:d(l)},skew:{x:d(a),y:0},rotate:d(f)}}},{key:"clone",value:function(){var t=this.m;return new this.constructor(t[0],t[1],t[2],t[3],t[4],t[5])}},{key:"toString",value:function(){var t=arguments.length>0&&void 0!==arguments[0]?arguments[0]:" ";return null===this.s&&(this.s="matrix("+this.m.map((function(t){return d(t)})).join(t)+")"),this.s}}],[{key:"create",value:function(t){return t?Array.isArray(t)?s(this,v(t)):t instanceof this?t.clone():(new this).recomposeSelf(t.origin,t.rotate,t.skew,t.scale,t.translate):new this}}]),t}();function T(t,n,r){return t>=.5?r:n}function B(t,n,r){return 0===t||n===r?n:t*(r-n)+n}function q(t,n,r){var e=B(t,n,r);return e<=0?0:e}function L(t,n,r){var e=B(t,n,r);return e<=0?0:e>=1?1:e}function C(t,n,r){return 0===t?n:1===t?r:{x:B(t,n.x,r.x),y:B(t,n.y,r.y)}}function D(t,n,r){var e=function(t,n,r){return Math.round(B(t,n,r))}(t,n,r);return e<=0?0:e>=255?255:e}function z(t,n,r){return 0===t?n:1===t?r:{r:D(t,n.r,r.r),g:D(t,n.g,r.g),b:D(t,n.b,r.b),a:B(t,null==n.a?1:n.a,null==r.a?1:r.a)}}function V(t,n){for(var r=[],e=0;e<t;e++)r.push(n);return r}function G(t,n){if(--n<=0)return t;var r=(t=Object.assign([],t)).length;do{for(var e=0;e<r;e++)t.push(t[e])}while(--n>0);return t}var Y,$=function(){function t(n){e(this,t),this.list=n,this.length=n.length}return o(t,[{key:"setAttribute",value:function(t,n){for(var r=this.list,e=0;e<this.length;e++)r[e].setAttribute(t,n)}},{key:"removeAttribute",value:function(t){for(var n=this.list,r=0;r<this.length;r++)n[r].removeAttribute(t)}},{key:"style",value:function(t,n){for(var r=this.list,e=0;e<this.length;e++)r[e].style[t]=n}}]),t}(),U=/-./g,Q=function(t,n){return n.toUpperCase()};function H(t){return"function"==typeof t?t:T}function J(t){return t?"function"==typeof t?t:Array.isArray(t)?function(t){var n=arguments.length>1&&void 0!==arguments[1]?arguments[1]:b;if(!Array.isArray(t))return n;switch(t.length){case 1:return S(t[0])||n;case 2:return S(t[0],t[1])||n;case 4:return x(t[0],t[1],t[2],t[3])||n}return n}(t,null):function(t,n){var r=arguments.length>2&&void 0!==arguments[2]?arguments[2]:b;switch(t){case"linear":return b;case"steps":return S(n.steps||1,n.jump||0)||r;case"bezier":case"cubic-bezier":return x(n.x1||0,n.y1||0,n.x2||0,n.y2||0)||r}return r}(t.type,t.value,null):null}function Z(t,n,r){var e=arguments.length>3&&void 0!==arguments[3]&&arguments[3],i=n.length-1;if(t<=n[0].t)return e?[0,0,n[0].v]:n[0].v;if(t>=n[i].t)return e?[i,1,n[i].v]:n[i].v;var o,u=n[0],a=null;for(o=1;o<=i;o++){if(!(t>n[o].t)){a=n[o];break}u=n[o]}return null==a?e?[i,1,n[i].v]:n[i].v:u.t===a.t?e?[o,1,a.v]:a.v:(t=(t-u.t)/(a.t-u.t),u.e&&(t=u.e(t)),e?[o,t,r(t,u.v,a.v)]:r(t,u.v,a.v))}function K(t,n){var r=arguments.length>2&&void 0!==arguments[2]?arguments[2]:null;return t&&t.length?"function"!=typeof n?null:("function"!=typeof r&&(r=null),function(e){var i=Z(e,t,n);return null!=i&&r&&(i=r(i)),i}):null}function W(t,n){return t.t-n.t}function X(t,n,e,i,o){var u,a="@"===e[0],l="#"===e[0],f=Y[e],s=T;switch(a?(u=e.substr(1),e=u.replace(U,Q)):l&&(e=e.substr(1)),r(f)){case"function":if(s=f(i,o,Z,J,e,a,n,t),l)return s;break;case"string":s=K(i,H(f));break;case"object":if((s=K(i,H(f.i),f.f))&&"function"==typeof f.u)return f.u(n,s,e,a,t)}return s?function(t,n,r){if(arguments.length>3&&void 0!==arguments[3]&&arguments[3])return t instanceof $?function(e){return t.style(n,r(e))}:function(e){return t.style[n]=r(e)};if(Array.isArray(n)){var e=n.length;return function(i){var o=r(i);if(null==o)for(var u=0;u<e;u++)t[u].removeAttribute(n);else for(var a=0;a<e;a++)t[a].setAttribute(n,o)}}return function(e){var i=r(e);null==i?t.removeAttribute(n):t.setAttribute(n,i)}}(n,e,s,a):null}function tt(t,n,e,i){if(!i||"object"!==r(i))return null;var o=null,u=null;return Array.isArray(i)?u=function(t){if(!t||!t.length)return null;for(var n=0;n<t.length;n++)t[n].e&&(t[n].e=J(t[n].e));return t.sort(W)}(i):(u=i.keys,o=i.data||null),u?X(t,n,e,u,o):null}function nt(t,n,r){if(!r)return null;var e=[];for(var i in r)if(r.hasOwnProperty(i)){var o=tt(t,n,i,r[i]);o&&e.push(o)}return e.length?e:null}function rt(t,n){if(!n.duration||n.duration<0)return null;var r=function(t,n){if(!n)return null;var r=[];if(Array.isArray(n))for(var e=n.length,i=0;i<e;i++){var o=n[i];if(2===o.length){var u=null;if("string"==typeof o[0])u=t.getElementById(o[0]);else if(Array.isArray(o[0])){u=[];for(var a=0;a<o[0].length;a++)if("string"==typeof o[0][a]){var l=t.getElementById(o[0][a]);l&&u.push(l)}u=u.length?1===u.length?u[0]:new $(u):null}if(u){var f=nt(t,u,o[1]);f&&(r=r.concat(f))}}}else for(var s in n)if(n.hasOwnProperty(s)){var c=t.getElementById(s);if(c){var h=nt(t,c,n[s]);h&&(r=r.concat(h))}}return r.length?r:null}(t,n.elements);return r?function(t,n){var r=arguments.length>2&&void 0!==arguments[2]?arguments[2]:1/0,e=arguments.length>3&&void 0!==arguments[3]?arguments[3]:1,i=arguments.length>4&&void 0!==arguments[4]&&arguments[4],o=arguments.length>5&&void 0!==arguments[5]?arguments[5]:1,u=t.length,a=e>0?n:0;i&&r%2==0&&(a=n-a);var l=null;return function(f,s){var c=f%n,h=1+(f-c)/n;s*=e,i&&h%2==0&&(s=-s);var v=!1;if(h>r)c=a,v=!0,-1===o&&(c=e>0?0:n);else if(s<0&&(c=n-c),c===l)return!1;l=c;for(var y=0;y<u;y++)t[y](c);return v}}(r,n.duration,n.iterations||1/0,n.direction||1,!!n.alternate,n.fill||1):null}function et(t){return+("0x"+(t.replace(/[^0-9a-fA-F]+/g,"")||27))}function it(t,n,r){return!t||!r||n>t.length?t:t.substring(0,n)+it(t.substring(n+1),r,r)}function ot(t){var n=arguments.length>1&&void 0!==arguments[1]?arguments[1]:27;return!t||t%n?t%n:ot(t/n,n)}function ut(t,n,r){if(t&&t.length){var e=et(r),i=et(n),o=ot(e)+5,u=it(t,ot(e,5),o);return u=u.replace(/\x7c$/g,"==").replace(/\x2f$/g,"="),u=function(t,n,r){var e=+("0x"+t.substring(0,4));t=t.substring(4);for(var i=n%e+r%27,o=[],u=0;u<t.length;u+=2)if("|"!==t[u]){var a=+("0x"+t[u]+t[u+1])-i;o.push(a)}else{var l=+("0x"+t.substring(u+1,u+1+4))-i;u+=3,o.push(l)}return String.fromCharCode.apply(String,o)}(u=(u=atob(u)).replace(/[\x41-\x5A]/g,""),i,e),u=JSON.parse(u)}}Number.isInteger||(Number.isInteger=function(t){return"number"==typeof t&&isFinite(t)&&Math.floor(t)===t}),Number.EPSILON||(Number.EPSILON=2220446049250313e-31);var at=function(){function t(n,r){var i=arguments.length>2&&void 0!==arguments[2]?arguments[2]:{};e(this,t),this._id=0,this._running=!1,this._rollingBack=!1,this._animations=n,this.duration=r.duration,this.alternate=r.alternate,this.fill=r.fill,this.iterations=r.iterations,this.direction=i.direction||1,this.speed=i.speed||1,this.fps=i.fps||100,this.offset=i.offset||0,this.rollbackStartOffset=0}return o(t,[{key:"_rollback",value:function(){var t=this,n=1/0,r=null;this.rollbackStartOffset=this.offset,this._rollingBack||(this._rollingBack=!0,this._running=!0);this._id=window.requestAnimationFrame((function e(i){if(t._rollingBack){null==r&&(r=i);var o=i-r,u=t.rollbackStartOffset-o,a=Math.round(u*t.speed);if(a>t.duration&&n!=1/0){var l=!!t.alternate&&a/t.duration%2>1,f=a%t.duration;a=(f+=l?t.duration:0)||t.duration}var s=t.fps?1e3/t.fps:0,c=Math.max(0,a);if(c<n-s){t.offset=c,n=c;for(var h=t._animations,v=h.length,y=0;y<v;y++)h[y](c,t.direction)}var g=!1;if(t.iterations>0&&-1===t.fill){var d=t.iterations*t.duration,p=d==a;a=p?0:a,t.offset=p?0:t.offset,g=a>d}a>0&&t.offset>=a&&!g?t._id=window.requestAnimationFrame(e):t.stop()}}))}},{key:"_start",value:function(){var t=this,n=arguments.length>0&&void 0!==arguments[0]?arguments[0]:0,r=-1/0,e=null,i={},o=function o(u){t._running=!0,null==e&&(e=u);var a=Math.round((u-e+n)*t.speed),l=t.fps?1e3/t.fps:0;if(a>r+l&&!t._rollingBack){t.offset=a,r=a;for(var f=t._animations,s=f.length,c=0,h=0;h<s;h++)i[h]?c++:(i[h]=f[h](a,t.direction),i[h]&&c++);if(c===s)return void t._stop()}t._id=window.requestAnimationFrame(o)};this._id=window.requestAnimationFrame(o)}},{key:"_stop",value:function(){this._id&&window.cancelAnimationFrame(this._id),this._running=!1,this._rollingBack=!1}},{key:"play",value:function(){!this._rollingBack&&this._running||(this._rollingBack=!1,this.rollbackStartOffset>this.duration&&(this.offset=this.rollbackStartOffset-(this.rollbackStartOffset-this.offset)%this.duration,this.rollbackStartOffset=0),this._start(this.offset))}},{key:"stop",value:function(){this._stop(),this.offset=0,this.rollbackStartOffset=0;var t=this.direction,n=this._animations;window.requestAnimationFrame((function(){for(var r=0;r<n.length;r++)n[r](0,t)}))}},{key:"reachedToEnd",value:function(){return this.iterations>0&&this.offset>=this.iterations*this.duration}},{key:"restart",value:function(){this._stop(),this.offset=0,this._start()}},{key:"pause",value:function(){this._stop()}},{key:"reverse",value:function(){this.direction=-this.direction}}],[{key:"build",value:function(r,e){return delete r.animationSettings,r.options=ut(r.options,r.root,"5c7f360c"),r.animations.map((function(t){var e=ut(t.s,r.root,"5c7f360c");for(var i in delete t.s,r.animationSettings||(r.animationSettings=n({},e)),e)e.hasOwnProperty(i)&&(t[i]=e[i])})),(r=function(t,n){if(Y=n,!t||!t.root||!Array.isArray(t.animations))return null;for(var r=document.getElementsByTagName("svg"),e=!1,i=0;i<r.length;i++)if(r[i].id===t.root&&!r[i].svgatorAnimation){(e=r[i]).svgatorAnimation=!0;break}if(!e)return null;var o=t.animations.map((function(t){return rt(e,t)})).filter((function(t){return!!t}));return o.length?{element:e,animations:o,animationSettings:t.animationSettings,options:t.options||void 0}:null}(r,e))?{el:r.element,options:r.options||{},player:new t(r.animations,r.animationSettings,r.options)}:null}},{key:"push",value:function(t){return this.build(t)}},{key:"init",value:function(){var t=this,n=window.__SVGATOR_PLAYER__&&window.__SVGATOR_PLAYER__["5c7f360c"];Array.isArray(n)&&n.splice(0).forEach((function(n){return t.build(n)}))}}]),t}();function lt(t){return d(t)+""}function ft(t){var n=arguments.length>1&&void 0!==arguments[1]?arguments[1]:" ";return t&&t.length?t.map(lt).join(n):""}function st(t){return t?null==t.a||t.a>=1?"rgb("+t.r+","+t.g+","+t.b+")":"rgba("+t.r+","+t.g+","+t.b+","+t.a+")":"transparent"}function ct(t){return t?"url(#"+t+")":"none"}!function(){for(var t=0,n=["ms","moz","webkit","o"],r=0;r<n.length&&!window.requestAnimationFrame;++r)window.requestAnimationFrame=window[n[r]+"RequestAnimationFrame"],window.cancelAnimationFrame=window[n[r]+"CancelAnimationFrame"]||window[n[r]+"CancelRequestAnimationFrame"];window.requestAnimationFrame||(window.requestAnimationFrame=function(n){var r=Date.now(),e=Math.max(0,16-(r-t)),i=window.setTimeout((function(){n(r+e)}),e);return t=r+e,i},window.cancelAnimationFrame=window.clearTimeout)}();var ht={f:null,i:function(t,n,r){return 0===t?n:1===t?r:{x:q(t,n.x,r.x),y:q(t,n.y,r.y)}},u:function(t,n){return function(r){var e=n(r);t.setAttribute("rx",lt(e.x)),t.setAttribute("ry",lt(e.y))}}},vt={f:null,i:function(t,n,r){return 0===t?n:1===t?r:{width:q(t,n.width,r.width),height:q(t,n.height,r.height)}},u:function(t,n){return function(r){var e=n(r);t.setAttribute("width",lt(e.width)),t.setAttribute("height",lt(e.height))}}};Object.freeze({M:2,L:2,Z:0,H:1,V:1,C:6,Q:4,T:2,S:4,A:7});var yt={},gt=null;function dt(t){var n=function(){if(gt)return gt;if("object"!==("undefined"==typeof document?"undefined":r(document))||!document.createElementNS)return{};var t=document.createElementNS("http://www.w3.org/2000/svg","svg");return t&&t.style?(t.style.position="absolute",t.style.opacity="0.01",t.style.zIndex="-9999",t.style.left="-9999px",t.style.width="1px",t.style.height="1px",gt={svg:t}):{}}().svg;if(!n)return function(t){return null};var e=document.createElementNS(n.namespaceURI,"path");e.setAttributeNS(null,"d",t),e.setAttributeNS(null,"fill","none"),e.setAttributeNS(null,"stroke","none"),n.appendChild(e);var i=e.getTotalLength();return function(t){var n=e.getPointAtLength(i*t);return{x:n.x,y:n.y}}}function pt(t){return yt[t]?yt[t]:yt[t]=dt(t)}function mt(t,n,r,e){if(!t||!e)return!1;var i=["M",t.x,t.y];if(n&&r&&(i.push("C"),i.push(n.x),i.push(n.y),i.push(r.x),i.push(r.y)),n?!r:r){var o=n||r;i.push("Q"),i.push(o.x),i.push(o.y)}return n||r||i.push("L"),i.push(e.x),i.push(e.y),i.join(" ")}function bt(t,n,r,e){var i=arguments.length>4&&void 0!==arguments[4]?arguments[4]:1,o=mt(t,n,r,e),u=pt(o);try{return u(i)}catch(t){return null}}function wt(t,n,r,e){var i=1-e;return i*i*t+2*i*e*n+e*e*r}function xt(t,n,r,e){return 2*(1-e)*(n-t)+2*e*(r-n)}function At(t,n,r,e){var i=arguments.length>4&&void 0!==arguments[4]&&arguments[4],o=bt(t,n,null,r,e);return o||(o={x:wt(t.x,n.x,r.x,e),y:wt(t.y,n.y,r.y,e)}),i&&(o.a=kt(t,n,r,e)),o}function kt(t,n,r,e){return Math.atan2(xt(t.y,n.y,r.y,e),xt(t.x,n.x,r.x,e))}function St(t,n,r,e,i){var o=i*i;return i*o*(e-t+3*(n-r))+3*o*(t+r-2*n)+3*i*(n-t)+t}function _t(t,n,r,e,i){var o=1-i;return 3*(o*o*(n-t)+2*o*i*(r-n)+i*i*(e-r))}function Ot(t,n,r,e,i){var o=arguments.length>5&&void 0!==arguments[5]&&arguments[5],u=bt(t,n,r,e,i);return u||(u={x:St(t.x,n.x,r.x,e.x,i),y:St(t.y,n.y,r.y,e.y,i)}),o&&(u.a=jt(t,n,r,e,i)),u}function jt(t,n,r,e,i){return Math.atan2(_t(t.y,n.y,r.y,e.y,i),_t(t.x,n.x,r.x,e.x,i))}function Mt(t,n,r){return t+(n-t)*r}function Pt(t,n,r){var e=arguments.length>3&&void 0!==arguments[3]&&arguments[3],i={x:Mt(t.x,n.x,r),y:Mt(t.y,n.y,r)};return e&&(i.a=Et(t,n)),i}function Et(t,n){return Math.atan2(n.y-t.y,n.x-t.x)}function It(t,n,r){var e=arguments.length>3&&void 0!==arguments[3]&&arguments[3];if(Ft(n)){if(Nt(r))return At(n,r.start,r,t,e)}else if(Ft(r)){if(n.end)return At(n,n.end,r,t,e)}else{if(n.end)return r.start?Ot(n,n.end,r.start,r,t,e):At(n,n.end,r,t,e);if(r.start)return At(n,r.start,r,t,e)}return Pt(n,r,t,e)}function Rt(t,n,r){var e=It(t,n,r,!0);return e.a=function(t){return arguments.length>1&&void 0!==arguments[1]&&arguments[1]?t+Math.PI:t}(e.a)/m,e}function Ft(t){return!t.type||"corner"===t.type}function Nt(t){return null!=t.start&&!Ft(t)}var Tt=new N;var Bt={f:lt,i:B},qt={f:lt,i:L};function Lt(t,n,r){return t.map((function(t){return function(t,n,r){var e=t.v;if(!e||"g"!==e.t||e.s||!e.v||!e.r)return t;var i=r.getElementById(e.r),o=i&&i.querySelectorAll("stop")||[];return e.s=e.v.map((function(t,n){var r=o[n]&&o[n].getAttribute("offset");return{c:t,o:r=d(parseInt(r)/100)}})),delete e.v,t}(t,0,r)}))}var Ct={gt:"gradientTransform",c:{x:"cx",y:"cy"},rd:"r",f:{x:"x1",y:"y1"},to:{x:"x2",y:"y2"}};function Dt(t,n,e,i,o,u,a,l){return Lt(t,0,l),n=function(t,n,r){for(var e,i,o,u=t.length-1,a={},l=0;l<=u;l++)(e=t[l]).e&&(e.e=n(e.e)),e.v&&"g"===(i=e.v).t&&i.r&&(o=r.getElementById(i.r))&&(a[i.r]={e:o,s:o.querySelectorAll("stop")});return a}(t,i,l),function(i){var o=e(i,t,zt);if(!o)return"none";if("c"===o.t)return st(o.v);if("g"===o.t){if(!n[o.r])return ct(o.r);var u=n[o.r];return function(t,n){for(var r=t.s,e=r.length;e<n.length;e++){var i=r[r.length-1].cloneNode();i.id=Yt(i.id),t.e.appendChild(i),r=t.s=t.e.querySelectorAll("stop")}for(var o=0,u=r.length,a=n.length-1;o<u;o++)r[o].setAttribute("stop-color",st(n[Math.min(o,a)].c)),r[o].setAttribute("offset",n[Math.min(o,a)].o)}(u,o.s),Object.keys(Ct).forEach((function(t){if(void 0!==o[t])if("object"!==r(Ct[t])){var n,e="gt"===t?(n=o[t],Array.isArray(n)?"matrix("+n.join(" ")+")":""):o[t],i=Ct[t];u.e.setAttribute(i,e)}else Object.keys(Ct[t]).forEach((function(n){if(void 0!==o[t][n]){var r=o[t][n],e=Ct[t][n];u.e.setAttribute(e,r)}}))})),ct(o.r)}return"none"}}function zt(t,r,e){if(0===t)return r;if(1===t)return e;if(r&&e){var i=r.t;if(i===e.t)switch(r.t){case"c":return{t:i,v:z(t,r.v,e.v)};case"g":if(r.r===e.r){var o={t:i,s:Vt(t,r.s,e.s),r:r.r};return r.gt&&e.gt&&(o.gt=function(t,n,r){var e=n.length;if(e!==r.length)return T(t,n,r);for(var i=new Array(e),o=0;o<e;o++)i[o]=B(t,n[o],r[o]);return i}(t,r.gt,e.gt)),r.c?(o.c=C(t,r.c,e.c),o.rd=q(t,r.rd,e.rd)):r.f&&(o.f=C(t,r.f,e.f),o.to=C(t,r.to,e.to)),o}}if("c"===r.t&&"g"===e.t||"c"===e.t&&"g"===r.t){var u="c"===r.t?r:e,a="g"===r.t?n({},r):n({},e),l=a.s.map((function(t){return{c:u.v,o:t.o}}));return a.s="c"===r.t?Vt(t,l,a.s):Vt(t,a.s,l),a}}return T(t,r,e)}function Vt(t,n,r){if(n.length===r.length)return n.map((function(n,e){return Gt(t,n,r[e])}));for(var e=Math.max(n.length,r.length),i=[],o=0;o<e;o++){var u=Gt(t,n[Math.min(o,n.length-1)],r[Math.min(o,r.length-1)]);i.push(u)}return i}function Gt(t,n,r){return{o:L(t,n.o,r.o||0),c:z(t,n.c,r.c||{})}}function Yt(t){return t.replace(/-fill-([0-9]+)$/,(function(t,n){return"-fill-"+(+n+1)}))}var $t={fill:Dt,"fill-opacity":qt,stroke:Dt,"stroke-opacity":qt,"stroke-width":Bt,"stroke-dashoffset":{f:lt,i:B},"stroke-dasharray":{f:function(t){var n=arguments.length>1&&void 0!==arguments[1]?arguments[1]:" ";return t&&t.length>0&&(t=t.map((function(t){return d(t,4)}))),ft(t,n)},i:function(t,n,r){var e,i,o,u=n.length,a=r.length;if(u!==a)if(0===u)n=V(u=a,0);else if(0===a)a=u,r=V(u,0);else{var l=(o=(e=u)*(i=a)/function(t,n){for(var r;n;)r=n,n=t%n,t=r;return t||1}(e,i))<0?-o:o;n=G(n,Math.floor(l/u)),r=G(r,Math.floor(l/a)),u=a=l}for(var f=[],s=0;s<u;s++)f.push(d(q(t,n[s],r[s])));return f}},opacity:qt,transform:function(t,n,e,i){if(!(t=function(t,n){if(!t||"object"!==r(t))return null;var e=!1;for(var i in t)t.hasOwnProperty(i)&&(t[i]&&t[i].length?(t[i].forEach((function(t){t.e&&(t.e=n(t.e))})),e=!0):delete t[i]);return e?t:null}(t,i)))return null;var o=function(r,i,o){var u=arguments.length>3&&void 0!==arguments[3]?arguments[3]:null;return t[r]?e(i,t[r],o):n&&n[r]?n[r]:u};return n&&n.a&&t.o?function(n){var r=e(n,t.o,Rt);return Tt.recomposeSelf(r,o("r",n,B,0)+r.a,o("k",n,C),o("s",n,C),o("t",n,C)).toString()}:function(t){return Tt.recomposeSelf(o("o",t,It,null),o("r",t,B,0),o("k",t,C),o("s",t,C),o("t",t,C)).toString()}},r:Bt,"#size":vt,"#radius":ht,_:function(t,n){if(Array.isArray(t))for(var r=0;r<t.length;r++)this[t[r]]=n;else this[t]=n}},Ut=function(t){!function(t,n){if("function"!=typeof n&&null!==n)throw new TypeError("Super expression must either be null or a function");t.prototype=Object.create(n&&n.prototype,{constructor:{value:t,writable:!0,configurable:!0}}),n&&l(t,n)}(u,t);var n,r,i=(n=u,r=f(),function(){var t,e=a(n);if(r){var i=a(this).constructor;t=Reflect.construct(e,arguments,i)}else t=e.apply(this,arguments);return c(this,t)});function u(){return e(this,u),i.apply(this,arguments)}return o(u,null,[{key:"build",value:function(t){var n=h(a(u),"build",this).call(this,t,$t);if(!n)return null;n.el,n.options,function(t,n,r){t.play()}(n.player)}}]),u}(at);return Ut.init(),Ut}));
(function(s,i,o,w){w[o]=w[o]||{};w[o][s]=w[o][s]||[];w[o][s].push(i);})('5c7f360c',{"root":"eUizKlAbXg11","animations":[{"elements":{"eUizKlAbXg13":{"opacity":[{"t":0,"v":0},{"t":1700,"v":0},{"t":1800,"v":1},{"t":6500,"v":1},{"t":6600,"v":0}]},"eUizKlAbXg17":{"transform":{"data":{"t":{"x":-432.42,"y":-512.063837}},"keys":{"o":[{"t":2000,"v":{"x":2983.251011,"y":576.745195,"type":"corner"}},{"t":6000,"v":{"x":-1611.325747,"y":-67.091195,"type":"corner"}}],"s":[{"t":3800,"v":{"x":4.167207,"y":4.167241}},{"t":6000,"v":{"x":4.167207,"y":2.731308},"e":[0.42,0,0.58,1]}]}}},"eUizKlAbXg116":{"transform":{"keys":{"o":[{"t":0,"v":{"x":-58.18122,"y":557.431786,"type":"corner"},"e":[0.49,0.465,0,1.42]},{"t":900,"v":{"x":941.81878,"y":557.431786,"type":"corner"}}],"s":[{"t":900,"v":{"x":0.066351,"y":0.066351},"e":[0.55,0.455,0.27,1.425]},{"t":1700,"v":{"x":0.5,"y":0.5},"e":[0.42,0,0.685,0.77]},{"t":2000,"v":{"x":0.066351,"y":0.066351},"e":[0,1.17,1,0.99]}]}},"opacity":[{"t":0,"v":1},{"t":2000,"v":1},{"t":2100,"v":0}]},"eUizKlAbXg117":{"transform":{"keys":{"o":[{"t":7300,"v":{"x":941.81878,"y":557.431786,"type":"corner"},"e":[0.645,-0.285,0.395,0.5]},{"t":8000,"v":{"x":1981.81878,"y":557.431786,"type":"corner"},"e":[0.49,0.465,0,1.42]}],"s":[{"t":6100,"v":{"x":0.066351,"y":0.066351},"e":[0.455,0.44,0.515,1.015]},{"t":6700,"v":{"x":0.5,"y":0.5},"e":[0.57,-0.065,0.685,0.77]},{"t":7100,"v":{"x":0.066351,"y":0.066351},"e":[0,1.17,1,0.99]}]}},"opacity":[{"t":6000,"v":0},{"t":6100,"v":1}]}},"s":"MBDA1M2QxNzhiYWNiYzXhDYjdjYWJmYzVjNDcR4OTA4ZTg2ODY4NjgySNzhiYWJmYzhiYmI5YW2FiZkljNWM0Nzg5MFOE4N1M4Mjc4YmZjYWJYiYzhiN1BjYWJmYzVjTNGM5Nzg5MDg2ODI3OKGJjYmZjMmMySDc4OTJA4NzgyTzc4YjdjMlRYjYWJiYzhjNGI3Y2FiEYjc4OTBiY2I3YzJjORWJiRjgyNzhjOWM2YmLJiYmJhNzg5MDg3T2QXz"}],"options":"MTDAxMDg4MmY4MDgxNmUU3ZjgxMmY0NzJmNzkI3YzZlNzFSMmY4YUQ/I"},'__SVGATOR_PLAYER__',window)]]></script></svg>