<svg width="325" height="280" viewBox="0 0 325 280" fill="none" xmlns="http://www.w3.org/2000/svg">
<g clip-path="url(#clip0_24_1216)">
<path d="M162.569 251C228.882 251 282.639 245.334 282.639 238.345C282.639 231.356 228.882 225.69 162.569 225.69C96.2569 225.69 42.5 231.356 42.5 238.345C42.5 245.334 96.2569 251 162.569 251Z" fill="#D6EBF8"/>
<path d="M166.174 158.939C166.59 158.105 167.977 160.747 167.977 160.747C167.977 160.747 167.006 158.661 167.283 157.826C167.561 157.131 168.808 158.939 169.224 159.773C168.808 158.939 167.838 157.131 168.254 156.575C168.808 156.019 170.195 158.661 170.472 159.078C168.393 154.211 171.027 156.992 172.275 159.217C172.413 158.661 174.493 157.548 174.77 157.687C175.186 157.826 174.354 159.356 174.077 159.773C173.661 160.608 173.938 161.442 174.493 162.276C174.77 162.555 169.779 164.78 169.779 164.78C169.779 164.78 168.808 164.084 167.838 162.555C167.699 162.416 167.699 162.416 167.561 162.276C167.422 162.137 167.422 161.998 167.283 161.859C166.729 160.886 165.897 159.356 166.174 158.939Z" fill="#FCBDB6"/>
<path d="M170.888 162.694C170.888 162.694 170.472 161.859 170.888 161.303C171.304 160.747 171.72 159.912 171.72 159.773C171.72 159.773 171.72 159.773 171.859 159.773C171.859 159.773 171.859 159.773 171.859 159.912C171.859 159.912 171.443 160.886 171.027 161.442C170.611 161.998 171.027 162.694 170.888 162.694C171.027 162.694 171.027 162.694 170.888 162.694C171.027 162.694 171.027 162.694 170.888 162.694Z" fill="#F9A6A0"/>
<path d="M222.881 186.752C222.327 184.666 221.495 183.414 221.495 183.414C221.495 183.414 216.919 183.414 216.642 183.832C216.088 184.805 215.533 186.891 214.978 187.864C214.701 188.282 214.146 189.672 214.562 189.95C214.84 190.228 215.949 189.255 216.365 188.838C216.781 191.897 218.722 196.208 218.306 189.672C218.445 190.368 218.861 193.983 219.692 193.427C220.386 193.01 220.108 190.368 219.97 189.394C220.247 190.507 220.802 193.01 221.356 192.454C222.049 191.619 221.772 188.838 221.772 188.838C221.772 188.838 222.188 192.454 223.02 191.758C223.713 191.202 222.881 188.282 222.604 187.308C222.881 187.03 222.881 186.891 222.881 186.752Z" fill="#FCBDB6"/>
<path d="M210.819 182.441C210.819 183.554 206.937 184.805 199.034 184.527C191.131 184.249 188.774 182.163 188.913 181.189C188.913 180.077 189.19 179.382 197.093 179.66C204.857 179.938 210.819 181.468 210.819 182.441Z" fill="#333333"/>
<path d="M216.226 184.805C215.672 177.991 214.146 168.256 210.958 160.608C210.264 158.8 209.848 158.104 209.294 157.131C208.878 156.297 209.71 154.628 210.958 153.793C212.205 152.959 214.146 153.098 214.424 153.515C214.978 154.211 215.533 155.462 216.365 157.409C219.415 164.223 221.218 173.124 221.911 184.527L216.226 184.805Z" fill="#FCBDB6"/>
<path d="M195.29 137.662C195.29 137.662 195.013 138.635 195.29 140.026C195.568 141.278 196.954 138.079 196.954 138.079L195.29 137.662Z" fill="#5C305D"/>
<path d="M199.311 234.034C198.341 234.034 197.509 234.451 197.093 235.286C196.815 235.703 196.538 235.981 196.122 236.12C194.736 236.676 190.715 237.233 192.24 238.484C193.072 239.18 197.093 238.762 198.341 238.762C199.45 238.762 200.559 239.319 201.391 238.484C201.945 238.067 201.807 236.537 201.668 235.425C201.529 234.59 200.698 233.895 199.866 234.034C199.727 234.034 199.588 234.034 199.45 234.034H199.311Z" fill="#333333"/>
<path d="M213.453 233.617C213.453 233.617 213.453 235.703 212.067 236.259C210.68 236.815 206.659 237.372 208.185 238.623C209.016 239.319 213.037 238.901 214.285 238.901C215.394 238.901 216.503 239.458 217.335 238.623C218.306 237.789 217.335 233.617 217.335 233.617C217.335 233.617 216.365 234.173 215.533 234.173C214.008 234.034 213.453 233.617 213.453 233.617Z" fill="#333333"/>
<path d="M216.642 231.67L211.512 186.335C211.374 185.778 211.096 183.414 210.542 183.275C210.126 183.136 209.571 182.997 208.739 182.997C208.739 182.997 203.887 181.746 197.509 181.05C194.181 180.772 191.408 180.633 189.883 180.911C189.328 180.911 188.774 181.467 188.635 182.024C188.497 183.275 188.497 185.917 189.19 191.341C190.299 199.268 196.677 228.054 197.37 231.948C197.647 233.339 195.706 234.451 197.647 234.868H200.282C202.5 235.147 201.114 233.061 201.114 231.67L201.391 201.076L212.899 232.226C213.592 234.312 212.067 235.147 214.285 235.286L216.365 235.425C218.722 235.007 217.058 233.756 216.642 231.67Z" fill="#24555E"/>
<path d="M203.193 204.691L199.866 194.679C199.172 192.454 197.647 190.507 195.568 189.394L195.706 189.116C197.786 190.368 199.311 192.176 200.143 194.54L203.471 204.552L203.193 204.691Z" fill="#333333"/>
<path d="M222.188 182.858C222.188 182.858 218.167 183.275 216.087 182.858C216.087 182.858 215.81 183.971 216.226 184.388C216.226 184.388 221.079 184.805 222.188 184.388C222.188 184.388 223.02 183.553 222.188 182.858Z" fill="#333333"/>
<path d="M219.831 164.641C217.335 154.628 215.394 152.681 214.701 152.403C213.453 151.568 209.848 149.343 203.886 148.37C203.748 148.37 203.609 148.37 203.471 148.37C203.332 148.37 203.332 148.37 203.193 148.37C202.777 148.37 202.5 148.231 202.084 148.231C201.945 148.231 201.807 148.231 201.529 148.231C200.42 148.092 199.172 148.092 197.925 148.092C197.231 148.092 196.538 148.231 195.845 148.37C188.774 149.482 184.614 156.992 184.614 156.992C184.614 156.992 183.367 159.217 182.119 161.303C180.732 163.389 187.526 168.534 187.526 168.534C188.081 167.561 188.497 166.587 188.774 165.614C188.912 170.064 189.051 175.21 188.635 181.05C188.635 181.05 190.992 177.156 210.542 182.163C210.542 182.163 212.067 174.375 212.483 166.448C215.394 168.813 219.831 164.641 219.831 164.641Z" fill="#49ADB7"/>
<path d="M199.173 159.217C199.173 158.939 198.895 158.661 198.618 158.661C198.341 158.661 198.063 158.939 198.063 159.217C198.063 159.495 198.341 159.773 198.618 159.773C198.895 159.773 199.173 159.495 199.173 159.217Z" fill="#5C305D"/>
<path d="M198.202 165.753C198.202 165.475 197.925 165.197 197.647 165.197C197.37 165.197 197.093 165.475 197.093 165.753C197.093 166.031 197.37 166.309 197.647 166.309C197.925 166.309 198.202 166.031 198.202 165.753Z" fill="#5C305D"/>
<path d="M198.202 172.984C198.202 172.706 197.925 172.428 197.647 172.428C197.37 172.428 197.093 172.706 197.093 172.984C197.093 173.263 197.37 173.541 197.647 173.541C197.925 173.541 198.202 173.263 198.202 172.984Z" fill="#5C305D"/>
<path d="M189.051 170.064C188.635 166.031 189.19 158.8 189.19 158.661H189.328C189.19 158.8 188.774 166.031 189.051 170.064Z" fill="#5C305D"/>
<path d="M212.483 166.448C211.928 163.945 210.264 160.33 210.264 160.33H210.403C210.403 160.33 212.067 163.945 212.483 166.448Z" fill="#5C305D"/>
<path d="M174.909 133.351C174.909 133.351 179.762 131.682 181.148 132.099C182.673 132.517 188.081 135.993 189.883 141.695C190.992 144.893 189.051 148.787 187.387 149.483L184.892 150.317L174.909 133.351Z" fill="#24555E"/>
<path d="M174.909 132.795C174.632 132.795 173.384 133.212 171.997 133.629C169.224 134.603 166.174 133.907 164.233 131.96C161.737 129.457 159.519 126.676 157.717 128.066C155.221 130.013 160.767 139.47 161.183 140.026C160.628 140.304 154.389 144.476 152.032 146.145C148.15 148.787 153.696 152.959 156.053 149.761C156.053 149.761 154.944 150.317 154.666 150.873C153.696 152.82 155.637 156.158 157.855 155.184C157.855 155.184 158.133 154.628 157.855 155.184C157.301 156.436 158.964 159.773 161.46 159.217C161.737 159.217 161.46 159.634 161.321 160.191C161.183 161.025 162.015 162.694 163.817 163.111C164.094 163.111 164.788 162.694 165.204 162.555C169.086 161.303 184.06 152.125 184.753 150.456C186.555 146.562 178.375 132.934 174.909 132.795Z" fill="#D31528"/>
<path d="M161.099 146.576L154.761 150.573L154.908 150.808L161.247 146.811L161.099 146.576Z" fill="black"/>
<path d="M163.554 151.58L157.842 155.005L157.984 155.244L163.696 151.818L163.554 151.58Z" fill="black"/>
<path d="M166.691 156.064L161.394 159.099L161.531 159.341L166.828 156.306L166.691 156.064Z" fill="black"/>
<path d="M165.383 137.373L161.248 139.921L161.393 140.158L165.528 137.61L165.383 137.373Z" fill="black"/>
<path d="M182.257 162.694C181.98 162.276 182.119 161.581 182.119 161.581L182.673 162.276L182.257 162.694Z" fill="#125A5E"/>
<path d="M182.535 162.137C182.535 162.137 181.564 164.502 178.93 165.058C178.098 165.197 174.493 162.137 174.493 162.137L169.779 164.641C169.779 164.641 173.384 170.481 179.207 171.594C185.03 172.706 187.526 168.395 187.526 168.395" fill="#FCBDB6"/>
<path d="M196.677 179.382C194.597 168.117 198.341 151.151 198.479 150.873L198.895 151.012C198.895 151.151 195.013 168.117 197.093 179.243L196.677 179.382Z" fill="#24555E"/>
<path d="M200.975 146.701L200.143 144.198L199.866 143.503L198.479 139.192L198.341 143.503L198.202 146.006V146.84C198.202 147.396 194.042 148.37 193.627 148.787C193.488 148.926 194.874 150.317 196.677 150.595C200.143 151.29 205.273 150.178 206.382 148.926C206.521 148.926 201.252 147.536 200.975 146.701Z" fill="#FCBDB6"/>
<path d="M195.013 140.304C195.29 137.801 197.37 135.993 199.45 136.271C201.529 136.55 202.916 138.775 202.639 141.278C202.361 143.781 200.282 145.589 198.202 145.311C196.122 145.033 194.736 142.807 195.013 140.304Z" fill="#FCBDB6"/>
<path d="M205.273 140.165C205.273 140.165 204.025 142.947 202.223 143.086C202.223 143.086 203.748 141 200.559 139.748C200.559 139.748 203.332 139.331 205.273 140.165Z" fill="#501506"/>
<path d="M202.639 141.695C202.223 141.973 201.807 141.834 201.529 141.556C201.252 141.278 201.391 140.721 201.807 140.443C202.223 140.165 202.639 140.304 202.916 140.582C203.193 140.861 203.055 141.417 202.639 141.695Z" fill="#FCBDB6"/>
<path d="M200.559 139.748C200.559 139.748 200.836 142.112 200.282 142.529C199.866 142.947 196.677 143.086 195.29 142.529C195.29 144.059 194.32 147.119 195.29 148.231C195.845 148.787 198.063 149.344 199.034 149.204C202.223 148.648 201.945 146.84 202.361 145.867C202.5 145.589 201.391 141.973 201.391 141.973C201.391 141.973 201.252 141 201.807 140.443C201.807 140.443 201.114 139.748 200.559 139.748Z" fill="#501506"/>
<path d="M200.559 139.748C200.559 139.748 200.836 138.079 199.588 138.079C198.341 137.94 196.815 137.801 196.4 138.079C195.845 138.357 195.29 139.748 195.29 139.748C195.29 139.748 192.517 132.377 193.765 131.265C195.013 130.292 204.302 127.093 206.937 128.901C209.571 130.709 205.273 140.304 205.273 140.304C205.273 140.304 203.332 139.609 200.559 139.748Z" fill="#501506"/>
<path d="M195.984 143.364C195.984 143.364 197.231 143.642 198.479 143.503C198.479 143.503 198.341 144.754 196.954 144.476C196.261 144.337 195.984 143.364 195.984 143.364Z" fill="white"/>
<path d="M62.3267 231.531L63.1585 210.254L70.091 210.949L65.7929 231.531C65.9315 231.392 64.6837 232.782 62.3267 231.531Z" fill="#FCBDB6"/>
<path d="M75.6369 211.645L74.6664 231.253C74.6664 231.253 77.3007 232.365 78.2712 231.114C79.1031 229.862 82.292 211.645 82.292 211.645H75.6369Z" fill="#FCBDB6"/>
<path d="M87.0061 152.542C90.195 154.072 93.7999 161.859 93.7999 161.859C93.7999 161.859 89.7791 163.945 89.6404 163.945C89.5018 163.945 81.5988 155.601 81.5988 155.601C81.5988 155.601 85.6196 151.847 87.0061 152.542Z" fill="#FCBDB6"/>
<path d="M78.2713 231.114C78.2713 231.114 78.4099 233.061 79.6578 233.478C80.9056 234.034 84.7877 234.312 83.4013 235.703C82.5694 236.398 78.8259 236.12 77.7167 236.12C76.6075 236.12 75.637 236.676 74.8051 235.981C73.9732 235.147 74.6664 231.253 74.6664 231.253C74.6664 231.253 75.637 231.67 76.4689 231.67C77.578 231.531 78.2713 231.114 78.2713 231.114Z" fill="#333333"/>
<path d="M65.9316 231.392C65.9316 231.392 66.0702 233.339 67.318 233.756C68.5659 234.312 72.448 234.59 71.0615 235.981C70.2297 236.676 66.4862 236.398 65.377 236.398C64.2678 236.398 63.2972 236.954 62.4654 236.259C61.6335 235.425 62.3267 231.531 62.3267 231.531C62.3267 231.531 63.2972 231.948 64.1291 231.948C65.377 231.948 65.9316 231.392 65.9316 231.392Z" fill="#333333"/>
<path d="M60.663 182.997C60.663 184.11 67.0408 184.249 74.8051 183.832C82.5694 183.414 88.8086 182.163 88.8086 181.05C88.8086 179.938 82.4307 179.521 74.6664 180.077C66.9021 180.494 60.663 181.885 60.663 182.997Z" fill="#333333"/>
<path d="M61.7722 153.237C61.7722 153.237 63.02 147.675 73.1413 147.397C87.838 146.979 86.8675 160.469 88.8086 181.05C88.8086 181.05 74.2505 179.382 60.663 182.719C60.663 182.719 58.8605 161.72 61.7722 153.237Z" fill="#49ADB7"/>
<path d="M58.0286 152.542L64.8224 156.019C64.8224 156.019 79.3804 156.992 83.2626 156.158C87.1447 155.462 88.1153 152.542 88.1153 152.542C88.1153 152.542 83.8172 148.37 76.8848 147.397C76.1915 147.258 75.4983 147.258 74.8051 147.258C73.5572 147.258 72.448 147.258 71.2002 147.397C62.3267 148.787 58.0286 152.542 58.0286 152.542Z" fill="#49ADB7"/>
<path d="M71.7548 146.145L72.448 143.642L72.5867 142.946L73.8345 138.635L74.1118 142.807L74.2504 145.31V146.145C74.2504 146.701 78.9645 147.535 79.3804 147.953C79.5191 148.092 80.7669 152.82 74.6664 152.959C69.3977 153.237 67.1794 149.76 66.0702 148.509C66.2088 148.648 71.6161 146.979 71.7548 146.145Z" fill="#FCBDB6"/>
<path d="M87.6993 181.885C87.6993 181.885 83.2626 180.772 74.2505 181.468C70.7843 181.746 66.6248 182.441 61.7721 183.415V185.918L61.6335 189.812L61.2175 211.367C61.0789 213.592 71.6162 214.009 72.0321 211.923C73.0026 206.221 72.1707 211.089 73.6959 199.963L73.5572 211.506C73.4186 213.731 84.2331 214.009 84.5104 211.923C85.481 206.082 84.3718 210.115 86.0356 198.016C86.5902 193.705 87.0061 189.951 87.2834 186.752C87.2834 186.613 87.2834 186.474 87.2834 186.196L87.6993 181.885Z" fill="#8BC0CC"/>
<path d="M75.0383 144.358C76.9921 143.68 77.9059 141.188 77.0793 138.793C76.2528 136.398 73.9989 135.006 72.0451 135.684C70.0913 136.363 69.1776 138.854 70.0041 141.249C70.8307 143.644 73.0846 145.036 75.0383 144.358Z" fill="#FCBDB6"/>
<path d="M68.2886 139.053C68.2886 139.053 67.318 143.085 70.7842 142.946C70.7842 142.946 68.9818 141.138 71.6161 139.331C71.7548 139.331 70.2297 133.212 68.2886 139.053Z" fill="#1D3B4C"/>
<path d="M70.091 141.695C70.507 141.834 70.9229 141.695 71.0616 141.278C71.2002 140.86 70.9229 140.443 70.507 140.304C70.091 140.165 69.6751 140.304 69.5364 140.721C69.3978 140.999 69.6751 141.417 70.091 141.695Z" fill="#FCBDB6"/>
<path d="M74.3891 142.529C74.3891 142.529 75.7756 142.668 76.6075 142.112C76.6075 141.973 76.0529 144.198 74.3891 142.529Z" fill="white"/>
<path d="M68.7045 138.079C68.7045 138.079 69.2591 135.159 71.3388 133.907C73.0026 132.795 75.9142 133.49 76.6075 133.629C77.1621 133.768 79.935 135.02 78.9645 135.993C77.578 137.662 71.8934 139.192 71.8934 139.192L68.7045 138.079Z" fill="#1D3B4C"/>
<path d="M85.6196 155.74C85.2037 154.211 83.6785 152.403 83.6785 152.264L83.8172 152.125C83.8172 152.125 85.3423 154.072 85.7583 155.601L85.6196 155.74Z" fill="#333333"/>
<path d="M73.2799 201.91H73.1412C73.1412 201.771 74.1118 194.679 74.805 192.175C75.4983 189.533 78.8258 187.308 78.8258 187.308L78.9645 187.447C78.9645 187.447 75.6369 189.672 74.9437 192.175C74.2504 194.679 73.4185 201.771 73.2799 201.91Z" fill="#333333"/>
<path d="M49.0164 167.005C52.344 159.356 58.0286 152.681 58.0286 152.542C58.0286 152.542 59.1378 152.403 61.0788 153.933C64.545 156.575 64.4064 158.244 64.4064 158.244C64.4064 158.244 56.5034 168.812 55.5329 170.342C54.8397 171.316 48.0459 169.23 49.0164 167.005Z" fill="#49ADB7"/>
<path d="M56.6421 168.813C55.117 167.144 52.7599 167.144 52.7599 167.144C52.7599 167.144 55.117 167.144 56.6421 168.813Z" fill="#F9A6A0"/>
<path d="M71.8934 158.8C71.8934 158.8 65.2383 159.217 63.7132 160.469C62.0494 161.72 57.3354 168.673 58.0286 176.461C58.4446 180.911 62.604 184.666 65.0997 184.666L68.5659 184.527L71.8934 158.8Z" fill="#24555E"/>
<path d="M71.6161 158.104C72.0321 157.965 73.6958 157.687 75.4983 157.548C79.3804 157.27 82.5693 154.906 83.9558 151.568C85.7582 147.257 87.0061 142.807 89.779 143.503C93.7998 144.476 91.8587 158.8 91.7201 159.773C92.552 159.912 102.119 161.72 105.862 162.555C111.824 163.806 107.249 171.455 102.812 168.812C102.812 168.812 104.337 168.952 105.03 169.508C107.11 171.316 106.555 176.322 103.367 176.322C103.367 176.322 102.812 175.766 103.367 176.322C104.753 177.574 104.337 182.441 101.148 182.858C100.871 182.858 101.425 183.414 101.703 183.971C102.257 184.944 102.119 187.308 100.178 188.838C99.9003 189.116 98.7911 188.838 98.2366 188.977C92.9679 189.533 70.3683 185.918 68.5658 184.388C64.545 180.633 67.5953 160.051 71.6161 158.104Z" fill="#D31528"/>
<path d="M95.1223 167.746L95.0775 168.021L104.793 169.616L104.837 169.342L95.1223 167.746Z" fill="black"/>
<path d="M94.679 175.071L94.6401 175.347L103.288 176.575L103.327 176.3L94.679 175.071Z" fill="black"/>
<path d="M93.148 181.979L93.1147 182.256L101.098 183.224L101.132 182.948L93.148 181.979Z" fill="black"/>
<path d="M85.3615 158.68L85.3196 158.955L91.6241 159.921L91.666 159.646L85.3615 158.68Z" fill="black"/>
<path d="M100.039 161.303C100.039 161.303 101.703 161.581 101.425 162.833C101.148 164.502 99.7617 165.336 99.623 164.641C99.623 164.502 99.9003 162.972 99.9003 162.972C99.9003 162.972 98.3752 166.031 97.8206 165.614C97.1274 165.058 98.3752 162.416 98.3752 162.416C98.3752 162.416 96.5728 165.336 96.1568 164.641C95.7409 163.945 96.8501 161.581 96.8501 161.581C96.8501 161.581 95.3249 164.502 94.7704 163.806C94.2158 163.111 95.4636 161.72 95.7409 161.025C96.0182 160.33 96.7114 160.33 97.4047 160.747C97.4047 160.747 98.3752 160.747 98.7911 161.025C98.9298 161.164 99.2071 161.025 99.3457 161.164C99.623 161.164 100.039 161.303 100.039 161.303Z" fill="#FCBDB6"/>
<path d="M58.0286 177.713C58.0286 177.713 59.1378 172.428 59.5538 172.289C60.5243 172.011 62.604 172.011 63.5746 171.733C63.9905 171.594 65.377 171.316 65.6543 171.733C65.7929 172.15 64.6837 172.845 64.1291 173.123C66.7635 174.097 70.3683 176.322 64.5451 175.07C65.0997 175.348 68.7045 176.6 68.4272 177.434C68.2886 178.13 64.8224 177.017 63.8518 176.6C64.8224 177.017 67.5953 178.13 67.3181 178.825C67.0408 179.381 63.1586 178.13 63.1586 178.13C63.1586 178.13 66.3475 179.52 65.5156 179.938C64.8224 180.355 61.9108 179.103 60.9402 178.686C59.9697 178.408 58.0286 177.713 58.0286 177.713Z" fill="#FCBDB6"/>
<path d="M61.0789 171.872C61.0789 171.872 57.1967 170.064 54.4237 166.309C52.76 164.223 49.0165 166.866 49.0165 166.866C49.0165 166.866 47.0754 170.481 49.4324 173.541C51.5121 176.322 58.1672 177.574 58.1672 177.574L61.0789 171.872Z" fill="#49ADB7"/>
<path d="M138.583 143.781C140.524 145.867 139.138 147.814 139.692 149.622C140.386 151.429 141.218 151.429 140.663 153.793C140.247 156.158 138.86 152.542 138.999 154.072C139.138 155.601 140.108 156.853 138.445 157.27C136.781 157.548 136.226 157.548 135.256 159.634C134.285 161.72 131.373 159.912 129.016 160.747C126.798 161.581 120.836 161.303 120.559 160.051C120.282 158.8 115.568 157.965 117.786 154.35C119.034 152.264 117.093 152.82 116.815 150.178C116.538 147.953 119.45 148.37 118.341 146.423C117.786 145.589 120.282 144.059 122.639 143.781C125.134 143.503 123.748 139.887 126.937 140.443C130.126 140.999 129.571 141.139 131.512 140.582C133.592 139.748 136.642 141.695 138.583 143.781Z" fill="#501506"/>
<path d="M138.167 160.747L135.256 154.906L133.453 154.35C133.453 154.35 148.15 153.237 145.238 134.324L144.545 133.073L147.457 131.126L147.595 132.239C154.25 153.794 138.583 160.608 138.167 160.747Z" fill="#FCBDB6"/>
<path d="M130.958 234.173C130.958 234.173 130.958 236.12 132.344 236.676C133.592 237.233 137.335 237.789 135.949 239.04C135.117 239.736 131.373 239.319 130.403 239.319C129.294 239.319 128.323 239.875 127.63 239.04C126.798 238.206 127.63 234.173 127.63 234.173C127.63 234.173 128.601 234.729 129.294 234.59C130.264 234.59 130.958 234.173 130.958 234.173Z" fill="#333333"/>
<path d="M114.458 232.226C114.458 232.226 113.765 234.034 114.736 235.147C115.706 236.12 118.895 238.206 117.231 238.762C116.261 239.18 112.933 237.094 111.963 236.676C110.992 236.259 109.883 236.259 109.467 235.286C108.912 234.173 111.269 230.697 111.269 230.697C111.269 230.697 111.963 231.531 112.656 231.809C113.765 232.365 114.458 232.226 114.458 232.226Z" fill="#333333"/>
<path d="M117.231 186.474C117.231 187.447 122.639 187.864 129.294 187.725C135.949 187.447 141.218 186.474 141.218 185.5C141.218 184.527 135.81 183.832 129.155 184.11C122.5 184.11 117.231 185.361 117.231 186.474Z" fill="#333333"/>
<path d="M118.757 160.19C118.757 160.19 124.164 152.959 130.68 154.767C149.952 159.912 129.294 165.614 141.356 185.361C141.356 185.361 130.68 181.746 117.231 186.335C117.231 186.335 127.214 176.461 118.757 160.19Z" fill="#49ADB7"/>
<path d="M121.668 152.959L120.836 161.581C120.836 161.581 136.781 167.005 138.444 164.084C142.327 157.27 136.087 152.959 136.087 152.959C136.087 152.959 133.453 154.35 130.542 154.211C129.571 154.211 127.769 153.932 126.659 153.932C124.302 153.932 121.668 152.959 121.668 152.959Z" fill="#49ADB7"/>
<path d="M126.659 154.072C127.353 153.932 127.907 153.376 128.046 152.681L128.6 150.595L128.739 150.039L129.848 146.284L129.987 149.9L130.126 152.125V152.681C130.126 153.237 130.264 154.211 130.542 154.35C130.542 154.35 131.789 154.906 130.819 155.462C129.571 156.018 127.491 155.184 126.659 154.072Z" fill="#FCBDB6"/>
<path d="M128.601 150.456C128.601 150.456 128.601 150.595 128.601 150.456C128.878 151.707 129.987 152.125 129.987 152.125L129.848 149.899C129.432 149.76 129.016 149.76 128.601 149.899C128.601 150.039 128.601 150.178 128.601 150.456Z" fill="#333333"/>
<path d="M130.351 151.008C132.105 150.855 133.367 148.87 133.168 146.575C132.97 144.279 131.386 142.542 129.631 142.695C127.877 142.848 126.615 144.832 126.814 147.128C127.013 149.424 128.596 151.161 130.351 151.008Z" fill="#FCBDB6"/>
<path d="M132.067 149.343C132.067 149.343 130.958 149.482 129.848 149.204C129.848 149.204 129.848 150.317 131.096 150.317C131.789 150.317 132.067 149.343 132.067 149.343Z" fill="white"/>
<path d="M121.668 153.098C120.42 152.959 119.866 154.35 119.172 157.131C118.479 159.912 118.341 161.025 119.588 161.303C120.836 161.442 121.945 160.33 122.639 157.548C123.193 155.462 122.916 153.237 121.668 153.098Z" fill="#333333"/>
<path d="M126.937 147.814C127.353 148.092 127.907 148.092 128.046 147.814C128.323 147.396 128.185 146.979 127.769 146.562C127.353 146.284 126.798 146.284 126.659 146.562C126.382 146.979 126.521 147.536 126.937 147.814Z" fill="#FCBDB6"/>
<path d="M131.235 143.781C131.235 143.781 131.235 145.032 129.987 145.032C129.987 145.032 130.126 146.006 128.878 145.867C128.878 145.867 129.016 146.562 128.185 146.701C128.185 146.701 127.907 147.397 126.937 147.118C125.966 146.84 125.273 144.893 126.244 143.781C127.214 142.668 129.571 141.556 131.235 142.251C132.76 142.946 134.008 146.145 133.592 146.423C133.176 146.701 132.344 146.562 132.205 145.728C132.205 145.728 131.373 145.45 131.512 144.615C131.512 144.476 131.235 144.059 131.235 143.781Z" fill="#501506"/>
<path d="M127.075 150.595C126.382 150.595 125.966 150.178 125.828 149.76C125.689 148.926 126.382 148.092 126.382 148.092H126.521V148.231C126.521 148.231 125.828 148.926 125.966 149.76C125.966 150.178 126.521 150.456 126.937 150.456C127.491 150.456 127.907 150.039 128.046 149.482C128.185 148.926 128.185 148.509 127.907 148.231C127.769 147.675 127.075 147.535 127.075 147.535C127.075 147.535 126.937 147.535 126.937 147.396C126.937 147.396 126.937 147.257 127.075 147.257C127.075 147.257 127.769 147.396 128.185 147.953C128.462 148.37 128.462 148.787 128.323 149.343C128.185 150.456 127.491 150.595 127.075 150.595Z" fill="#FF7B69"/>
<path d="M132.344 151.012C132.067 151.012 131.789 150.873 131.789 150.873V150.734H131.928C131.928 150.734 132.899 151.151 133.453 150.317C134.146 149.482 133.453 148.648 133.453 148.648V148.509H133.592C133.592 148.509 134.285 149.482 133.592 150.456C133.176 151.012 132.76 151.012 132.344 151.012Z" fill="#FF7B69"/>
<path d="M117.231 154.35C117.093 154.35 117.093 154.211 117.231 154.211C118.202 153.376 117.509 152.403 117.37 152.403V152.264H117.509C117.509 152.403 118.341 153.376 117.231 154.35Z" fill="#764678"/>
<path d="M137.751 149.622C137.613 149.622 137.613 149.622 137.751 149.622C137.613 149.622 137.613 149.622 137.751 149.622C137.751 148.787 137.474 148.648 136.781 148.37C136.503 148.231 136.226 148.092 135.949 147.953C135.672 147.814 135.672 147.675 135.672 147.536C135.672 147.396 135.81 147.118 136.087 146.979C136.365 146.701 136.781 146.423 136.642 146.006C136.642 145.45 136.365 145.45 135.949 145.311C135.672 145.311 135.394 145.171 134.978 145.032C134.562 144.754 134.562 144.337 134.562 144.059C134.562 143.781 134.562 143.642 134.285 143.503C133.592 143.364 133.315 142.529 133.315 142.529V142.39H133.453C133.453 142.39 133.592 143.225 134.285 143.225C134.701 143.225 134.701 143.642 134.701 143.92C134.701 144.198 134.701 144.476 134.978 144.754C135.256 144.893 135.533 145.032 135.81 145.032C136.226 145.032 136.642 145.171 136.642 145.867C136.642 146.423 136.226 146.701 135.949 146.979C135.81 147.118 135.672 147.257 135.672 147.396C135.672 147.536 135.81 147.536 135.949 147.675C136.226 147.814 136.503 147.953 136.781 148.092C137.474 148.509 137.89 148.648 137.751 149.622Z" fill="white"/>
<path d="M122.084 152.82C121.945 152.125 121.529 151.568 120.975 151.151C120.559 150.873 120.282 150.595 120.282 150.178C120.282 149.9 120.42 149.761 120.698 149.621C121.114 149.343 121.391 148.926 121.529 148.509C121.668 147.953 121.252 147.396 121.252 147.396V147.257H121.391C121.391 147.257 121.807 147.814 121.668 148.509C121.529 148.926 121.252 149.343 120.836 149.761C120.559 149.9 120.42 150.039 120.42 150.317C120.42 150.595 120.698 150.873 121.114 151.151C121.668 151.568 122.223 151.986 122.084 152.82C122.223 152.82 122.223 152.82 122.084 152.82Z" fill="white"/>
<path d="M110.438 141.417C111.269 138.357 112.795 134.881 112.933 134.741L114.874 135.576L115.706 136.827C113.904 138.635 112.379 146.145 115.29 149.9C116.399 151.29 118.618 152.264 120.836 152.82C121.113 152.959 121.391 153.098 121.529 153.515C121.807 154.072 122.361 155.879 121.807 157.965C121.252 159.912 120.143 159.912 120.143 159.912C116.122 159.078 107.11 153.515 110.438 141.417Z" fill="#FCBDB6"/>
<path d="M146.209 127.788C145.654 127.649 146.486 129.318 146.486 129.318C146.486 129.318 145.793 128.066 145.238 127.927C144.822 127.788 145.238 129.04 145.516 129.596C145.238 129.04 144.684 127.927 144.268 127.927C143.852 127.927 144.545 129.596 144.684 130.013C143.02 127.093 143.436 129.457 144.129 130.987C143.713 130.848 142.327 131.404 142.327 131.543C142.188 131.821 143.297 131.96 143.574 131.96C144.129 132.099 144.545 132.516 144.684 133.073C144.684 133.351 147.734 131.682 147.734 131.682C147.734 131.682 147.734 130.987 147.457 129.874V129.735C147.457 129.596 147.318 129.596 147.318 129.457C146.902 128.901 146.486 127.927 146.209 127.788Z" fill="#FCBDB6"/>
<path d="M114.874 130.152C115.706 130.013 114.597 132.238 114.597 132.238C114.597 132.238 115.429 130.569 116.122 130.43C116.677 130.291 116.122 131.96 115.845 132.655C116.122 131.96 116.954 130.43 117.509 130.569C118.063 130.569 117.093 132.794 116.954 133.212C119.034 129.596 118.618 132.516 117.647 134.324C118.063 134.185 118.895 134.046 119.034 134.324C119.172 134.602 118.341 135.159 118.063 135.298C117.509 135.576 116.399 136.549 115.706 136.966C115.429 137.106 112.933 135.437 112.933 135.437C112.933 135.437 112.933 134.463 113.349 133.073C113.349 132.934 113.349 132.934 113.349 132.794C113.349 132.655 113.488 132.516 113.488 132.377C113.904 131.543 114.458 130.291 114.874 130.152Z" fill="#FCBDB6"/>
<path d="M138.306 185.917V185.639C129.987 182.719 119.866 186.335 119.866 186.335L118.757 206.638C118.757 207.333 118.618 208.029 118.341 208.724L111.131 230.696L111.27 230.836C112.101 232.504 114.458 232.226 114.458 232.226L125.966 210.949C126.659 209.559 127.214 208.168 127.63 206.638L129.155 201.076L130.126 209.837C130.264 211.505 130.264 213.035 130.126 214.704L127.491 234.034C127.491 234.034 128.185 234.59 129.155 234.59C129.432 234.59 130.958 234.312 130.958 234.034L137.197 214.843C137.751 212.896 138.167 210.949 138.445 209.002L139.415 185.639L138.306 185.917Z" fill="#FF7B69"/>
<path d="M131.586 191.204L128.951 201.15L129.219 201.222L131.854 191.276L131.586 191.204Z" fill="black"/>
<path d="M136.772 189.754L130.722 191.282L130.789 191.552L136.839 190.024L136.772 189.754Z" fill="black"/>
<path d="M114.736 110.822C114.736 110.822 109.328 112.908 108.497 114.438C107.526 116.107 105.585 123.338 108.497 130.152C110.16 134.046 114.597 136.271 116.677 135.576L119.45 134.463L114.736 110.822Z" fill="#24555E"/>
<path d="M114.32 110.405C114.597 110.127 115.845 109.571 117.37 109.014C120.42 107.763 122.5 104.843 122.639 101.505C122.777 97.194 122.639 93.022 125.134 92.8829C128.739 92.7439 131.235 105.955 131.373 106.789C132.067 106.65 140.524 105.816 143.852 105.538C149.12 105.121 147.595 113.186 143.159 111.935C143.159 111.935 144.406 111.657 145.1 111.935C147.457 113.047 148.289 117.637 145.793 118.471C145.793 118.471 145.238 118.193 145.793 118.471C147.318 119.166 148.289 123.616 145.793 124.868C145.516 125.007 146.07 125.285 146.625 125.702C147.457 126.398 148.011 128.623 146.763 130.431C146.625 130.709 145.654 130.848 145.238 130.987C141.079 132.795 121.252 135.576 119.45 134.602C114.874 132.238 111.408 113.047 114.32 110.405Z" fill="#D31528"/>
<path d="M144.91 111.643L136.388 112.777L136.425 113.053L144.946 111.919L144.91 111.643Z" fill="black"/>
<path d="M145.721 118.157L138.186 119.332L138.229 119.607L145.764 118.432L145.721 118.157Z" fill="black"/>
<path d="M145.718 124.686L138.894 125.908L138.943 126.182L145.767 124.96L145.718 124.686Z" fill="black"/>
<path d="M131.329 106.528L125.84 107.325L125.879 107.6L131.368 106.803L131.329 106.528Z" fill="black"/>
<path d="M243.817 149.482C243.263 146.979 242.708 144.476 244.233 141.695C245.481 139.47 247.561 138.218 249.918 137.94C256.711 137.106 255.325 143.364 264.753 144.754C267.665 145.171 270.438 145.589 272.933 146.979C277.37 149.622 279.034 153.793 276.122 160.608C268.912 177.295 251.581 162.833 248.947 159.912C246.174 156.853 244.094 151.151 243.817 149.482Z" fill="#1D3B4C"/>
<path d="M261.703 234.034C261.703 234.034 262.951 234.451 265.308 233.06L263.228 212.479L256.018 213.452L261.703 234.034Z" fill="#FCBDB6"/>
<path d="M247.838 233.756C247.838 233.756 247.838 235.842 246.451 236.398C245.065 236.954 241.044 237.511 242.569 238.762C243.401 239.458 247.422 239.04 248.67 239.04C249.779 239.04 250.888 239.597 251.72 238.762C252.691 237.928 251.72 233.756 251.72 233.756C251.72 233.756 250.75 234.312 249.779 234.312C248.393 234.312 247.838 233.756 247.838 233.756Z" fill="#333333"/>
<path d="M247.838 234.034L244.372 212.479L251.997 213.174L251.581 234.034C251.581 234.034 250.195 235.564 247.838 234.034Z" fill="#FCBDB6"/>
<path d="M245.342 161.998L244.372 154.071L245.62 152.681C245.62 152.681 241.321 154.071 237.717 152.403C232.864 150.178 228.843 146.006 227.179 139.748L222.049 141.278C227.595 161.025 244.926 161.998 245.342 161.998Z" fill="#FCBDB6"/>
<path d="M220.94 135.159C221.633 134.463 221.911 137.523 221.911 137.523C221.911 137.523 221.772 135.159 222.327 134.602C222.743 134.046 223.297 136.271 223.436 137.106C223.297 136.271 223.159 134.046 223.713 133.768C224.406 133.351 224.822 136.41 224.822 136.966C224.684 131.682 226.209 135.159 226.347 137.662C226.763 137.245 228.982 136.966 229.259 137.106C229.536 137.384 228.15 138.496 227.873 138.774C227.179 139.47 227.041 140.304 227.318 141.277C227.457 141.695 222.049 141.973 222.049 141.973C222.049 141.973 221.495 140.999 220.94 139.191C220.94 139.052 220.802 139.052 220.802 138.913C220.802 138.774 220.802 138.635 220.663 138.357C220.802 137.245 220.524 135.576 220.94 135.159Z" fill="#FCBDB6"/>
<path d="M224.129 140.443C223.99 140.443 223.99 140.443 224.129 140.443C223.99 140.304 223.99 139.609 224.684 139.191C225.377 138.913 225.932 138.079 225.932 138.079H226.07V138.218C226.07 138.218 225.377 138.913 224.684 139.33C223.99 139.748 224.129 140.443 224.129 140.443Z" fill="#F9A6A0"/>
<path d="M261.564 233.895C261.564 233.895 261.98 235.842 260.732 236.815C259.484 237.65 255.741 239.179 257.543 240.014C258.514 240.57 262.396 239.179 263.505 238.901C264.614 238.623 265.724 238.901 266.417 237.928C267.11 236.954 265.308 233.061 265.308 233.061C265.308 233.061 264.476 233.756 263.644 234.034C262.257 234.173 261.564 233.895 261.564 233.895Z" fill="#333333"/>
<path d="M262.535 185.361C262.396 186.334 256.573 186.334 249.224 185.361C242.015 184.388 236.33 182.858 236.469 181.884C236.607 180.911 242.431 180.772 249.64 181.606C256.989 182.58 262.673 184.388 262.535 185.361Z" fill="#333333"/>
<path d="M264.06 213.174L261.564 186.196C261.425 185.639 261.009 185.222 260.455 185.083C258.791 184.666 253.938 183.553 250.195 183.275C248.254 182.997 243.263 182.441 237.439 182.997C237.717 187.169 238.271 193.844 239.796 203.022C241.737 214.843 245.481 215.121 247.422 215.121H248.531C250.75 215.26 252.552 213.313 252.413 211.088L252.136 205.247L254.909 214.009C255.602 216.095 257.405 217.485 259.484 217.485H260.455C262.812 217.485 264.476 215.399 264.06 213.174Z" fill="#24555E"/>
<path d="M263.505 181.885L260.039 177.852C260.039 177.852 266.971 173.541 266.278 167.422C266.001 164.223 264.06 161.581 260.594 159.773C257.821 158.243 255.186 157.826 255.048 157.826L255.88 152.542C256.018 152.542 259.484 153.098 262.951 155.045C267.942 157.826 270.854 161.859 271.408 166.865C271.824 170.898 270.438 174.931 267.387 178.408C265.169 180.911 265.308 181.05 263.505 181.885Z" fill="#FCBDB6"/>
<path d="M260.178 156.992C260.178 156.992 258.098 151.29 250.75 151.568C243.401 151.846 237.855 161.442 236.607 181.884C236.607 181.884 248.531 179.242 262.673 185.361C262.535 185.361 263.367 165.336 260.178 156.992Z" fill="#8BC0CC"/>
<path d="M265.862 155.74L260.039 159.912C260.039 159.912 244.649 165.475 241.876 163.25C237.162 159.634 239.796 152.681 239.796 152.681C239.796 152.681 242.292 152.959 248.808 151.707C249.363 151.568 250.056 151.568 250.611 151.429C251.72 151.29 252.829 151.429 253.8 151.568C260.316 152.264 265.862 155.74 265.862 155.74Z" fill="#8BC0CC"/>
<path d="M265.862 155.74C266.14 156.158 265.169 157.548 263.505 158.661C261.841 159.773 260.316 160.329 260.039 159.912C259.762 159.495 260.732 158.104 262.396 156.992C263.921 155.879 265.585 155.323 265.862 155.74Z" fill="#333333"/>
<path d="M269.744 168.812C269.19 168.812 268.774 168.256 268.774 167.422C268.774 166.726 269.19 166.031 269.744 166.031C270.299 166.031 270.715 166.587 270.715 167.422C270.715 168.256 270.299 168.812 269.744 168.812ZM269.744 166.309C269.328 166.309 269.051 166.865 269.051 167.422C269.051 167.978 269.328 168.534 269.744 168.534C270.16 168.534 270.438 167.978 270.438 167.422C270.438 166.865 270.16 166.309 269.744 166.309Z" fill="#F9A6A0"/>
<path d="M253.938 151.568C253.107 151.429 252.413 151.012 252.136 150.317L251.166 148.092L250.888 147.396L249.224 143.502L249.502 147.535L249.64 149.899V150.595C249.64 151.151 249.224 151.707 248.67 151.707C248.393 152.124 247.977 153.098 249.224 153.515C250.888 154.071 253.107 152.959 253.938 151.568Z" fill="#FCBDB6"/>
<path d="M262.812 176.044C262.812 176.044 260.594 174.097 258.93 174.236C257.266 174.375 255.186 175.905 256.295 176.044C257.405 176.183 258.791 175.905 258.791 175.905C258.791 175.905 255.741 176.6 256.157 177.156C256.573 177.852 259.207 177.156 259.207 177.156C259.207 177.156 255.741 178.269 256.295 178.686C256.989 179.103 259.623 178.269 259.623 178.269C259.623 178.269 256.434 179.381 257.127 179.938C257.821 180.494 259.762 178.964 260.316 179.659C260.732 180.355 261.564 182.858 263.505 181.745L262.812 176.044Z" fill="#FCBDB6"/>
<path d="M252.691 206.082L249.363 196.069C248.67 193.844 247.145 191.897 245.065 190.785L245.204 190.507C247.283 191.758 248.808 193.705 249.64 195.93L252.968 205.943L252.691 206.082Z" fill="#333333"/>
<path d="M261.148 160.051C261.148 160.051 260.871 159.078 262.257 157.965C263.644 156.853 265.585 156.714 265.585 156.714L266.001 158.521L263.921 159.356L261.148 160.051Z" fill="#FCBDB6"/>
<path d="M253.8 142.946C253.8 142.946 253.661 143.642 254.077 144.893C254.632 146.84 252.413 147.675 251.859 147.118C251.72 147.118 251.859 143.781 251.859 143.781L252.552 143.363L253.8 142.946Z" fill="#1D3B4C"/>
<path d="M251.165 147.953C251.165 147.953 251.165 148.092 251.165 147.953C251.027 149.343 249.64 149.9 249.64 149.9L249.502 147.536C249.918 147.396 250.472 147.257 250.888 147.396C251.165 147.536 251.165 147.675 251.165 147.953Z" fill="#333333"/>
<path d="M249.086 148.787C251.153 148.787 252.829 146.732 252.829 144.198C252.829 141.663 251.153 139.609 249.086 139.609C247.018 139.609 245.342 141.663 245.342 144.198C245.342 146.732 247.018 148.787 249.086 148.787Z" fill="#FCBDB6"/>
<path d="M247.561 140.582C247.699 140.721 247.006 143.085 251.443 143.642C255.88 144.198 253.245 138.913 249.918 138.774C245.204 138.635 244.51 141.695 244.926 142.946C245.481 144.059 247.561 140.582 247.561 140.582Z" fill="#1D3B4C"/>
<path d="M251.027 142.946C251.027 142.946 252.829 144.893 252.275 146.84C252.275 146.84 253.384 145.728 253.384 145.31C253.384 144.893 253.107 143.363 253.107 143.363L251.027 142.946Z" fill="#1D3B4C"/>
<path d="M252.413 144.893C251.997 145.31 251.443 145.31 251.027 145.032C250.75 144.615 250.75 144.059 251.304 143.641C251.72 143.224 252.275 143.224 252.691 143.502C252.829 143.92 252.829 144.476 252.413 144.893Z" fill="#FCBDB6"/>
<path d="M251.581 142.39C249.918 142.39 249.086 140.999 248.947 140.999V140.86H249.086C249.086 140.86 249.918 142.112 251.581 142.251C251.581 142.112 251.72 142.251 251.581 142.39C251.72 142.251 251.581 142.39 251.581 142.39Z" fill="white"/>
<path d="M258.791 176.044C258.791 175.905 259.623 175.627 260.039 175.905L259.9 176.044C259.623 175.766 258.791 176.044 258.791 176.044Z" fill="#F9A6A0"/>
<path d="M259.346 177.434C259.346 177.295 260.178 177.017 260.871 177.295V177.434C260.039 177.017 259.346 177.434 259.346 177.434Z" fill="#F9A6A0"/>
<path d="M259.762 178.547C259.762 178.408 260.732 177.991 261.148 178.408L261.01 178.547C260.732 178.269 259.762 178.547 259.762 178.547Z" fill="#F9A6A0"/>
<path d="M237.578 182.858C237.578 182.858 240.906 182.441 246.036 182.719C253.8 183.275 260.455 185.083 260.455 185.083L257.959 185.5L242.431 186.056L239.242 183.553L237.578 182.858Z" fill="#24555E"/>
<path d="M247.006 147.118C247.006 147.118 248.254 147.118 249.64 146.701C249.64 146.701 249.779 147.953 248.393 148.092C247.422 148.092 247.006 147.118 247.006 147.118Z" fill="#E9633E"/>
<path d="M247.006 147.118C247.006 147.118 247.283 147.396 247.977 147.396C248.67 147.396 249.502 146.701 249.502 146.701C249.502 146.701 247.977 147.257 247.006 147.118Z" fill="white"/>
<path d="M240.212 161.859C240.212 161.859 240.212 161.72 240.212 161.859C240.074 161.72 240.767 160.051 242.153 157.548H242.292V157.687C241.044 160.19 240.351 161.72 240.212 161.859C240.351 161.859 240.351 161.859 240.212 161.859Z" fill="#333333"/>
<path d="M274.181 155.74C274.181 155.74 274.043 155.74 274.181 155.74C274.458 154.072 274.181 152.82 273.349 151.568C270.576 147.675 262.119 146.84 261.98 146.84C261.98 146.84 261.98 146.84 261.98 146.701C261.98 146.701 261.98 146.701 262.119 146.701C262.257 146.701 270.715 147.536 273.488 151.429C274.32 152.681 274.597 154.072 274.181 155.74Z" fill="white"/>
<path d="M266.001 153.654C256.157 151.012 255.88 147.953 255.88 147.814C255.88 147.814 255.88 147.675 256.018 147.675H256.157C256.157 147.675 256.434 150.734 266.14 153.376C266.001 153.515 266.001 153.515 266.001 153.654C266.001 153.515 266.001 153.654 266.001 153.654Z" fill="white"/>
<path d="M242.431 104.982C242.431 104.982 248.947 104.982 250.472 106.233C252.275 107.485 257.127 114.438 256.989 122.782C256.85 127.51 253.107 131.682 250.611 131.821H247.145L242.431 104.982Z" fill="#24555E"/>
<path d="M242.708 104.286C242.292 104.147 240.628 104.008 238.964 104.008C235.221 103.869 231.893 101.644 230.368 98.1674C228.427 93.7173 226.902 89.1281 224.268 90.1016C220.386 91.4922 223.159 106.372 223.297 107.346C222.465 107.485 213.315 110.127 209.71 111.24C203.887 113.047 208.878 120.835 213.037 117.776C213.037 117.776 211.512 117.915 210.958 118.61C209.016 120.696 209.848 125.841 212.899 125.702C212.899 125.702 213.453 125.146 212.899 125.702C211.651 127.093 212.344 132.099 215.533 132.516C215.81 132.516 215.394 133.073 214.978 133.768C214.424 134.742 214.701 137.384 216.781 138.774C217.058 139.053 218.029 138.774 218.722 138.774C223.852 139.053 245.897 133.768 247.422 131.96C251.027 127.51 246.729 105.955 242.708 104.286Z" fill="#D31528"/>
<path d="M220.339 115.927L210.913 118.246L210.979 118.516L220.405 116.197L220.339 115.927Z" fill="black"/>
<path d="M221.099 123.68L212.706 125.543L212.766 125.815L221.159 123.952L221.099 123.68Z" fill="black"/>
<path d="M223.071 130.918L215.319 132.465L215.374 132.738L223.125 131.191L223.071 130.918Z" fill="black"/>
<path d="M229.282 105.793L223.207 107.219L223.271 107.49L229.346 106.064L229.282 105.793Z" fill="black"/>
<path d="M64.2412 158.237L60.171 163.693L60.393 163.86L64.4632 158.404L64.2412 158.237Z" fill="#24555E"/>
<path d="M257.682 50.6071C256.157 45.7398 253.107 42.4022 248.393 40.4553C245.62 39.3428 242.708 38.6475 239.796 38.3693C233.696 37.674 227.734 38.2303 221.911 40.1772C216.503 41.985 212.899 45.6007 211.373 51.1633C209.987 56.3087 209.987 61.4541 211.235 66.5996C212.483 72.0231 215.81 75.9169 221.079 78.142C224.268 79.5326 227.595 80.0889 231.062 80.2279C235.637 80.367 240.212 80.367 244.649 79.2545C251.581 77.5857 256.157 73.5528 257.959 66.4605C259.484 61.0369 259.346 55.7525 257.682 50.6071ZM245.897 61.176C245.897 62.4276 245.62 63.9573 245.065 65.348C243.956 68.1293 241.876 69.9371 239.103 70.6324C236.192 71.3278 233.28 71.3278 230.368 70.6324C227.041 69.659 224.961 67.573 224.129 64.2355C223.297 61.037 223.297 57.8384 224.129 54.6399C224.961 51.3024 227.179 49.2164 230.507 48.382C233.28 47.6867 236.192 47.6867 239.103 48.382C242.708 49.2164 244.788 51.5805 245.62 55.0571C246.036 57.0041 246.036 58.951 245.897 61.176Z" fill="#CE132C"/>
<path d="M171.304 41.9851C168.531 40.3163 165.481 39.76 162.431 39.3428C157.023 38.6475 151.616 39.2038 146.347 40.8725C141.911 42.2632 138.306 44.9054 136.365 49.2164C134.978 52.1368 134.562 55.3353 134.562 57.0041C134.285 62.1495 134.562 65.7652 135.672 69.2418C136.919 73.4138 139.276 76.6123 143.297 78.4201C149.814 81.3405 156.746 82.314 163.817 81.2014C167.838 80.5061 171.72 79.2545 175.464 77.4467C177.821 76.3342 178.098 75.2216 176.573 72.9966C175.741 71.8841 174.909 70.9106 174.077 69.7981C172.691 68.1293 171.72 67.9902 169.918 69.2418C168.393 70.2153 166.867 71.0497 165.204 71.4669C161.183 72.7185 157.301 72.5794 153.28 71.745C150.23 71.0497 148.289 69.2418 147.179 66.3215C146.625 64.9308 147.179 64.2355 148.704 64.2355C150.507 64.2355 152.309 64.2355 154.112 64.2355C159.519 64.2355 164.788 64.0964 170.195 64.0964C172.275 64.0964 174.493 64.0964 176.573 64.0964C177.959 64.0964 178.652 63.6792 178.652 62.2886C178.652 58.951 178.652 55.6134 178.098 52.4149C177.127 47.9649 175.186 44.3492 171.304 41.9851ZM165.342 55.8916C163.401 56.3088 161.599 56.0306 159.658 56.1697C156.053 56.1697 152.448 56.1697 148.843 56.3088C148.566 56.3088 148.15 56.3088 147.873 56.3088C147.041 56.1697 146.763 55.6134 146.902 54.7791C147.595 51.8587 149.398 49.9118 152.309 49.0774C154.528 48.5211 156.607 48.243 159.242 48.3821C161.183 48.6602 163.401 48.7993 165.065 50.6071C166.035 51.7196 166.59 52.8321 166.729 54.2228C166.867 55.1962 166.451 55.6134 165.342 55.8916Z" fill="#CE132C"/>
<path d="M110.715 77.3076C106.555 71.6059 102.535 65.9042 98.2366 60.4807C96.0182 57.6994 96.1568 56.1697 98.6525 53.6665C102.812 49.6336 106.555 45.0445 110.576 40.7334C110.992 40.3162 111.131 39.899 110.854 39.3428C110.576 38.7865 110.022 38.7865 109.467 38.7865C107.665 38.7865 106.001 39.0647 104.198 38.7865C100.455 38.3693 97.5433 39.6209 95.0476 42.4022C92.552 45.3226 89.5017 47.6867 86.5901 50.468C86.5901 49.9117 86.5901 49.6336 86.5901 49.3555C86.5901 46.296 86.5901 43.2366 86.5901 40.1772C86.5901 38.5084 86.0355 37.9521 84.5104 37.8131C82.4307 37.5349 80.3509 37.8131 78.2712 37.8131C75.4982 37.8131 74.5277 38.6475 74.5277 41.4288C74.5277 46.8523 74.5277 52.4149 74.6664 57.8385C74.6664 64.6526 74.805 71.6059 74.805 78.4201C74.805 80.5061 75.3596 81.0623 77.3007 81.2014C79.3804 81.3405 81.4601 81.3405 83.5398 81.2014C86.0355 81.2014 86.8674 80.367 86.7287 77.8638C86.7287 77.7248 86.7287 77.4466 86.7287 77.3076C86.7287 73.831 86.7287 70.2153 86.5901 66.7386C86.5901 66.3214 86.5901 66.0433 87.006 65.9042C87.5606 65.6261 87.5606 66.1824 87.8379 66.3214C90.8882 69.9371 93.7998 73.6919 96.8501 77.3076C98.7911 79.6717 101.148 81.0623 104.198 80.9233C106.417 80.9233 108.635 80.9233 110.854 80.9233C111.824 80.9233 112.379 79.9498 111.824 79.1154C111.685 78.5592 111.131 78.0029 110.715 77.3076Z" fill="#CE132C"/>
<path d="M207.63 38.2301C204.996 38.2301 202.5 38.6473 200.004 39.4817C198.202 40.038 196.677 41.0115 195.152 42.124C195.152 41.5677 195.152 41.1505 195.152 40.8724C195.013 39.0645 194.181 38.0911 192.379 38.2301C189.883 38.3692 187.249 38.2301 184.753 38.3692C183.228 38.3692 182.535 39.2036 182.535 40.7333C182.535 41.7068 182.535 42.8193 182.535 43.7928C182.535 49.3554 182.535 54.7789 182.535 60.3415C182.535 66.1823 182.673 72.023 182.673 77.8637C182.673 79.8107 183.505 80.506 185.308 80.506C187.526 80.506 189.744 80.506 191.824 80.506C194.32 80.645 195.429 79.6716 195.29 77.0294C195.152 74.248 195.152 71.4667 195.152 68.6854C195.152 65.4869 195.152 62.1494 195.152 58.9509C195.152 53.3883 196.954 51.3023 201.807 50.1898C201.945 50.1898 202.084 50.1898 202.223 50.1898C204.025 49.7726 205.828 49.6335 207.63 49.2163C209.016 48.7991 209.848 47.9647 209.987 46.435C210.126 44.4881 209.987 42.6802 209.987 40.7333C209.848 38.9255 209.155 38.2301 207.63 38.2301Z" fill="#CE132C"/>
<path d="M129.848 40.7333C129.71 39.4818 129.155 38.9255 127.907 38.7864C124.996 38.6474 122.223 38.6474 119.311 38.7864C117.647 38.9255 117.231 39.3427 117.093 41.0115C117.093 43.7928 117.093 46.435 117.093 49.2163C117.093 58.8118 117.231 68.5464 117.231 78.1419C117.231 79.8107 117.925 80.506 119.588 80.6451C122.084 80.6451 124.58 80.6451 127.075 80.6451C129.571 80.6451 129.987 80.3669 129.987 77.5856C129.987 76.334 129.987 75.0824 129.987 73.6918C129.987 64.7916 129.848 56.0305 129.848 47.1303C129.987 45.0444 130.126 42.9584 129.848 40.7333Z" fill="#CE132C"/>
<path d="M126.382 10.0001C129.432 10.2782 132.621 11.3907 135.394 13.7548C140.108 17.7877 140.247 24.0456 135.81 28.2176C130.264 33.5021 119.866 33.6411 114.042 28.7739C108.774 24.3238 109.328 16.9533 114.874 13.0595C118.202 10.6954 121.807 9.86099 126.382 10.0001Z" fill="#74C0D1"/>
</g>
<defs>
<clipPath id="clip0_24_1216">
<rect width="240" height="241" fill="white" transform="translate(42.5 10)"/>
</clipPath>
</defs>
</svg>
