<svg width="325" height="280" viewBox="0 0 325 280" fill="none" xmlns="http://www.w3.org/2000/svg">
<path d="M155.737 255.012C211.653 255.012 256.982 249.178 256.982 241.982C256.982 234.786 211.653 228.952 155.737 228.952C99.8203 228.952 54.4911 234.786 54.4911 241.982C54.4911 249.178 99.8203 255.012 155.737 255.012Z" fill="#D6EBF8"/>
<path d="M209.772 238.259L97.1508 245.418C94.1646 245.991 88.6188 245.418 88.4766 241.123L89.8986 63.8603C89.7564 57.2738 94.449 54.6965 97.1508 54.6965L206.928 66.724C209.203 66.8672 211.052 68.8718 211.194 71.1627L214.323 231.673C214.323 234.966 212.332 237.686 209.772 238.259Z" fill="#22226D"/>
<path d="M215.887 237.83L98.1462 245.561C95.16 246.134 92.7426 243.986 92.8848 240.693L93.8802 59.4217C93.8802 56.8444 96.0132 54.8398 98.715 54.983L212.758 65.7218C215.034 65.865 216.882 67.7264 217.024 70.1605L220.295 231.673C220.295 234.536 218.446 237.257 215.887 237.83Z" fill="#080833"/>
<path d="M208.492 71.3059L168.392 67.1536L167.824 69.7309C167.539 70.8763 166.402 71.5923 165.264 71.5923L152.893 70.59C151.613 70.59 150.618 69.7309 150.191 68.5854L149.48 66.1513L102.697 61.4262C100.848 61.4262 98.9994 63.2876 98.9994 65.2922L98.715 225.945C98.715 228.236 100.421 229.668 102.697 229.238L210.483 223.368C212.19 223.081 213.469 221.363 213.469 219.788L210.768 73.5969C210.625 72.3082 209.772 71.3059 208.492 71.3059Z" fill="#F4F7FA"/>
<path d="M160.367 66.9069C160.709 66.1951 160.528 65.3946 159.962 65.119C159.397 64.8434 158.661 65.1969 158.319 65.9087C157.976 66.6205 158.158 67.421 158.723 67.6966C159.289 67.9722 160.024 67.6187 160.367 66.9069Z" fill="#EAEDEF"/>
<path d="M190.433 141.323C200.672 146.335 211.763 170.676 211.763 170.676C211.763 170.676 199.25 177.119 198.539 177.406C197.97 177.692 173.369 151.203 173.369 151.203C173.369 151.203 186.025 139.175 190.433 141.323Z" fill="#FCBDB6"/>
<path d="M111.228 143.328C111.228 143.328 115.068 125.859 147.063 124.714C191.571 123.282 190.291 162.944 195.41 224.084C186.025 224.8 132.985 227.95 106.963 228.952C105.967 210.481 103.976 164.519 111.228 143.328Z" fill="#BA1E3F"/>
<path d="M99.426 141.18L120.614 152.348C120.614 152.348 166.544 155.355 178.631 152.921C190.718 150.63 193.846 141.466 193.846 141.466C193.846 141.466 180.479 128.293 158.438 125.286C156.305 125 154.173 124.857 152.04 124.714C148.342 124.571 144.503 124.714 140.948 125.286C113.077 129.152 99.426 141.18 99.426 141.18Z" fill="#BA1E3F"/>
<path d="M142.654 120.991L144.93 112.973L145.641 110.682L149.48 97.0792L150.333 110.538L150.902 118.557L151.044 121.134C151.186 122.852 165.691 125.573 166.97 127.005C167.539 127.577 171.094 142.182 151.897 143.041C135.402 143.757 128.292 132.732 124.88 128.723C124.88 128.723 141.943 123.568 142.654 120.991Z" fill="#FCBDB6"/>
<path d="M152.631 115.365C158.882 113.243 161.895 105.387 159.361 97.8187C156.827 90.2502 149.705 85.8353 143.454 87.9576C137.202 90.0799 134.189 97.9358 136.723 105.504C139.258 113.073 146.38 117.488 152.631 115.365Z" fill="#FCBDB6"/>
<path d="M137.109 106.672C138.388 107.245 139.953 106.672 140.379 105.384C140.806 104.238 140.095 102.806 138.815 102.234C137.535 101.661 135.971 102.234 135.544 103.522C134.976 104.668 135.687 106.1 137.109 106.672Z" fill="#FCBDB6"/>
<path d="M150.618 109.25C150.618 109.25 155.168 109.536 157.728 107.961C157.728 107.961 155.737 114.977 150.618 109.25Z" fill="white"/>
<path d="M141.232 101.947C140.806 102.234 139.099 99.7996 138.246 100.229C137.393 100.659 137.251 103.093 138.246 104.668C139.099 106.1 140.095 105.957 140.379 107.102C140.948 108.963 138.673 111.684 137.82 111.398C137.251 111.254 137.677 109.823 137.251 108.391C136.255 105.527 132.843 105.813 129.999 103.522C125.591 99.9428 124.453 91.3517 127.013 88.2017C128.008 86.913 129.146 87.0562 130.425 85.0516C131.847 82.9039 131.279 81.9016 132.416 80.4697C134.265 78.1788 138.531 78.322 141.09 79.1811C144.361 80.3266 144.645 76.8901 146.92 76.7469C149.48 76.6038 149.907 79.1811 153.035 78.7515C153.177 78.7515 156.163 78.322 158.296 80.3266C161.14 83.0471 160.429 87.629 160.287 88.3449C159.718 92.4972 156.448 96.3632 153.035 97.2223C152.324 97.3655 152.466 97.2223 145.072 97.0791C142.654 97.0791 141.09 96.9359 140.664 97.9382C139.953 99.2269 141.659 101.661 141.232 101.947Z" fill="#091542"/>
<path d="M98.8572 141.753C99.1416 141.466 99.2838 141.18 99.2838 141.18C99.2838 141.18 102.554 140.607 108.669 145.332C119.76 153.923 119.049 159.078 119.049 159.078C119.049 159.078 107.105 175.401 98.715 186.999L98.8572 141.753Z" fill="#BA1E3F"/>
<path d="M119.618 212.772C138.104 216.781 126.87 209.622 118.481 206.472C120.187 205.47 123.458 203.179 123.031 202.033C122.462 200.745 118.054 201.604 116.632 201.89C114.783 202.32 111.655 202.606 108.811 203.036L108.953 202.749C108.953 202.749 104.403 200.458 98.715 196.02C98.715 196.02 98.715 215.922 98.715 220.79L99.2838 221.077C99.2838 221.077 105.398 223.225 108.384 224.37C111.228 225.516 120.614 229.381 122.747 228.236C125.022 226.947 115.21 222.509 115.21 222.509C115.21 222.509 127.581 226.661 128.435 224.8C129.43 222.509 120.471 219.359 117.627 217.927C117.627 217.927 117.627 217.927 117.627 217.784C120.614 218.929 131.278 222.509 131.847 220.504C132.7 217.64 121.325 213.488 119.618 212.772Z" fill="#FCBDB6"/>
<path d="M212.758 188.001C190.291 175.974 171.521 157.503 171.094 157.217C171.094 157.217 170.81 153.923 175.787 148.053C184.887 137.457 190.007 138.316 190.007 138.316C190.007 138.316 201.951 148.626 212.19 157.36L212.758 188.001Z" fill="#BA1E3F"/>
<path d="M213.043 188.145C189.864 176.26 170.241 156.93 169.814 156.644C169.814 156.644 169.53 153.351 174.507 147.48C183.608 136.885 188.727 137.887 188.727 137.887C188.727 137.887 219.868 164.949 224.561 168.385C227.689 170.533 219.584 191.581 213.043 188.145Z" fill="#BA1E3F"/>
<path d="M256.698 138.603C255.56 136.169 250.583 145.905 250.583 145.905C250.583 145.905 255.418 133.734 253.569 132.732C251.436 131.587 247.739 140.321 246.033 143.185C246.033 143.185 246.033 143.185 245.891 143.185C247.171 140.321 251.294 129.725 249.446 129.009C246.886 128.007 242.194 139.032 241.34 140.75C246.459 122.423 238.781 133.162 235.084 141.466C234.23 139.748 232.097 136.169 230.96 136.598C229.68 137.028 230.107 141.61 230.391 143.041C230.675 144.903 230.818 148.053 230.96 150.917L230.675 150.773C230.675 150.773 224.134 162.515 212.19 170.819C205.364 175.544 212.901 188.288 212.901 188.288C212.901 188.288 223.708 195.161 233.519 188.431C242.62 182.274 247.739 161.799 247.739 161.799L247.597 161.655C247.881 161.799 248.024 161.799 248.024 161.799C248.024 161.799 250.441 155.785 251.863 152.921C253.427 150.057 257.835 140.75 256.698 138.603Z" fill="#FCBDB6"/>
<path d="M261.675 48.8261L192.851 7.58898C187.163 4.15255 180.195 6.01395 177.209 11.5981L157.016 50.6875C154.03 56.2717 156.448 63.5741 162.136 66.7241L185.03 79.4676L189.153 98.0815C189.438 99.227 190.433 99.9429 191.571 99.7997L208.492 92.7837L232.097 105.957C237.359 108.964 244.042 106.959 246.744 101.518L266.083 64.29C268.927 58.849 266.936 51.9761 261.675 48.8261Z" fill="url(#paint0_linear_28_1456)"/>
<path d="M264.803 47.9669L195.979 6.72981C190.291 3.29339 183.323 5.15479 180.337 10.739L160.145 49.8283C157.159 55.4125 159.576 62.7149 165.264 65.865L188.158 78.6084L192.14 96.6496C192.424 97.9383 193.846 98.6542 194.984 98.2247L211.621 91.7814L235.226 104.954C240.487 107.961 247.17 105.957 249.872 100.516L269.211 63.2877C272.055 57.9898 270.065 50.9738 264.803 47.9669Z" fill="#4BD0E2"/>
<path d="M124.737 128.723C124.737 128.723 123.315 127.434 123.031 129.296C122.747 131.014 131.989 144.473 147.774 145.046C163.558 145.619 166.544 139.605 166.544 139.605C166.544 139.605 170.525 135.882 169.388 127.864C169.388 127.864 168.25 124.427 166.828 127.148C166.828 127.148 172.09 142.612 151.186 142.755C142.512 142.898 136.54 140.178 132.7 137.171C127.439 132.875 124.737 128.58 124.737 128.723Z" fill="#770C26"/>
<path d="M163.131 160.796L164.411 173.969L173.085 178.838L179.199 172.251L177.777 158.792L163.131 160.796Z" fill="#770C26"/>
<path d="M158.438 224.37C157.159 223.654 156.163 222.079 156.163 220.218V204.324C156.163 201.461 158.154 199.027 160.571 198.883L180.906 197.738L207.355 195.876L208.777 195.733L211.052 195.59L222.428 194.731H222.997H223.423H223.566C223.566 194.731 227.12 194.588 227.263 194.588C228.116 194.588 228.827 195.017 229.396 195.59C228.969 195.447 228.542 195.304 228.116 195.304C228.116 195.304 227.974 195.304 227.831 195.304L161.14 199.456C158.723 199.599 156.732 202.033 156.732 204.897V220.791C157.016 222.222 157.585 223.511 158.438 224.37Z" fill="#0E626B"/>
<path d="M161.282 225.229C160.287 225.229 159.292 224.8 158.581 224.084C157.727 223.225 157.159 221.936 157.159 220.504V204.611C157.159 201.747 159.149 199.313 161.567 199.17L228.258 195.017C228.4 195.017 228.4 195.017 228.543 195.017C228.969 195.017 229.396 195.161 229.822 195.304C231.102 195.876 232.097 197.452 232.097 199.456V203.322V204.038V207.045V207.618V213.918C232.097 216.495 230.391 218.786 228.4 218.929L224.561 219.359L223.423 219.502L218.02 219.931H217.451L211.336 220.504L209.061 220.791L207.639 220.934L179.342 223.511C179.2 223.654 161.282 225.229 161.282 225.229Z" fill="#4BD0E2"/>
<path d="M233.662 56.558C233.519 56.1285 230.818 54.983 229.538 53.8375C226.552 51.5466 225.272 47.6806 226.125 43.9578C227.263 39.2327 228.827 34.6508 226.125 33.7917C222.143 32.5031 215.46 46.1056 215.034 46.9647C214.323 46.5351 205.364 43.0987 201.951 41.81C197.543 40.235 196.121 45.2465 198.112 47.6806L205.222 50.5443L204.795 51.5466L197.685 48.6829C195.552 49.6852 193.988 52.8352 195.268 54.6966L202.378 57.5603L201.951 58.5626L194.984 55.8421C193.562 56.9876 192.14 59.9945 193.419 61.999L201.809 65.2923L201.382 66.2946L193.135 63.0013C192.993 63.0013 192.851 63.1445 192.708 63.1445C191.713 63.5741 190.291 65.865 191.144 68.156C191.286 68.5855 192.14 68.8719 192.566 69.3014C196.548 72.5947 220.864 82.188 223.139 81.7585C228.685 80.3266 235.795 60.424 233.662 56.558Z" fill="white"/>
<path d="M181.19 210.768C181.048 209.049 180.195 207.331 178.773 206.186C177.635 205.183 176.213 204.611 174.649 204.611C174.365 204.611 174.222 204.611 173.938 204.611C172.232 204.754 170.525 205.613 169.388 207.045C168.25 208.477 167.681 210.195 167.966 211.913C167.966 212.629 168.25 213.345 168.535 214.061L167.966 215.779L167.113 218.213L169.53 217.497L171.236 217.068C172.232 217.641 173.227 217.927 174.365 217.927C174.649 217.927 174.791 217.927 175.076 217.927C176.782 217.784 178.488 216.925 179.626 215.493C180.764 214.347 181.332 212.629 181.19 210.768ZM178.915 215.063C177.92 216.209 176.64 216.925 175.076 217.068C174.933 217.068 174.649 217.068 174.507 217.068C173.512 217.068 172.658 216.781 171.805 216.352L171.379 216.209L170.952 216.352L169.246 216.781L168.677 216.925L168.819 216.352L169.388 214.634L169.53 214.204L169.388 213.775C169.103 213.202 168.961 212.629 168.961 211.913C168.819 210.481 169.246 208.906 170.241 207.761C171.236 206.615 172.516 205.899 174.08 205.756C174.222 205.756 174.507 205.756 174.649 205.756C175.929 205.756 177.066 206.186 178.062 207.045C179.199 208.047 179.91 209.336 180.053 210.911C180.195 212.486 179.768 213.918 178.915 215.063Z" fill="white"/>
<path d="M172.09 211.054C171.947 210.911 171.663 210.768 171.379 210.911C171.094 210.911 170.81 211.054 170.668 211.197C170.525 211.34 170.383 211.627 170.525 211.913C170.525 212.2 170.668 212.343 170.81 212.629C170.952 212.772 171.236 212.915 171.521 212.772C171.805 212.772 172.09 212.629 172.232 212.486C172.374 212.343 172.516 212.056 172.516 211.77C172.374 211.34 172.232 211.197 172.09 211.054Z" fill="white"/>
<path d="M175.218 210.768C175.076 210.625 174.791 210.481 174.507 210.625C174.222 210.625 173.938 210.768 173.796 210.911C173.654 211.054 173.511 211.34 173.654 211.627C173.654 211.913 173.796 212.056 173.938 212.343C174.08 212.486 174.365 212.629 174.649 212.486C174.933 212.486 175.218 212.343 175.36 212.2C175.502 212.056 175.644 211.77 175.644 211.484C175.502 211.054 175.502 210.911 175.218 210.768Z" fill="white"/>
<path d="M178.346 210.338C178.204 210.195 177.92 210.052 177.635 210.195C177.351 210.195 177.066 210.338 176.924 210.481C176.782 210.624 176.64 210.911 176.782 211.197C176.782 211.484 176.924 211.627 177.066 211.913C177.209 212.056 177.493 212.2 177.777 212.056C178.062 212.056 178.346 211.913 178.488 211.77C178.631 211.627 178.773 211.34 178.773 211.054C178.773 210.768 178.631 210.624 178.346 210.338Z" fill="white"/>
<path d="M202.804 209.479C202.662 207.761 201.809 206.043 200.387 204.897C199.25 203.895 197.828 203.322 196.263 203.322C195.979 203.322 195.837 203.322 195.552 203.322C193.846 203.465 192.14 204.324 191.002 205.756C189.864 207.188 189.296 208.906 189.58 210.624C189.58 211.34 189.864 212.056 190.149 212.772L189.58 214.49L188.727 216.925L191.144 216.209L192.851 215.779C193.846 216.352 194.841 216.638 195.979 216.638C196.263 216.638 196.406 216.638 196.69 216.638C198.396 216.495 200.103 215.636 201.24 214.204C202.378 212.915 202.947 211.197 202.804 209.479ZM200.387 213.631C199.392 214.777 198.112 215.493 196.548 215.636C196.406 215.636 196.121 215.636 195.979 215.636C194.984 215.636 194.13 215.349 193.277 214.92L192.851 214.777L192.424 214.92L190.718 215.349L190.149 215.493L190.291 214.92L190.86 213.202L191.002 212.772L190.86 212.343C190.575 211.77 190.433 211.197 190.433 210.481C190.291 209.049 190.718 207.474 191.713 206.329C192.708 205.183 193.988 204.467 195.552 204.324C195.695 204.324 195.979 204.324 196.121 204.324C197.401 204.324 198.539 204.754 199.534 205.613C200.671 206.615 201.382 207.904 201.525 209.479C201.809 211.054 201.382 212.486 200.387 213.631Z" fill="white"/>
<path d="M193.704 209.622C193.562 209.479 193.277 209.336 192.993 209.479C192.708 209.479 192.424 209.622 192.282 209.765C192.14 209.908 191.997 210.195 192.14 210.481C192.14 210.768 192.282 210.911 192.424 211.197C192.566 211.34 192.851 211.484 193.135 211.34C193.419 211.34 193.704 211.197 193.846 211.054C193.988 210.911 194.13 210.624 194.13 210.338C193.988 210.052 193.846 209.765 193.704 209.622Z" fill="white"/>
<path d="M196.832 209.336C196.69 209.193 196.406 209.049 196.121 209.193C195.837 209.193 195.552 209.336 195.41 209.479C195.268 209.622 195.126 209.908 195.268 210.195C195.268 210.481 195.41 210.624 195.552 210.911C195.695 211.054 195.979 211.197 196.263 211.054C196.548 211.054 196.832 210.911 196.974 210.768C197.117 210.624 197.259 210.338 197.259 210.052C197.117 209.622 196.974 209.479 196.832 209.336Z" fill="white"/>
<path d="M199.96 209.049C199.818 208.906 199.534 208.763 199.249 208.906C198.965 208.906 198.681 209.049 198.538 209.193C198.396 209.336 198.254 209.622 198.396 209.909C198.396 210.195 198.538 210.338 198.681 210.624C198.823 210.768 199.107 210.911 199.392 210.768C199.676 210.768 199.96 210.624 200.103 210.481C200.245 210.338 200.387 210.052 200.387 209.765C200.245 209.336 200.245 209.193 199.96 209.049Z" fill="white"/>
<path d="M223.423 208.047C223.281 206.329 222.428 204.611 221.006 203.465C219.868 202.463 218.446 201.89 216.882 201.89C216.598 201.89 216.456 201.89 216.171 201.89C214.465 202.033 212.758 202.892 211.621 204.324C210.483 205.756 209.914 207.474 210.199 209.193C210.199 209.909 210.483 210.624 210.768 211.34L210.199 213.059L209.346 215.493L211.763 214.777L213.469 214.347C214.465 214.92 215.46 215.206 216.598 215.206C216.882 215.206 217.024 215.206 217.309 215.206C219.015 215.063 220.721 214.204 221.859 212.772C222.997 211.484 223.565 209.765 223.423 208.047ZM221.148 212.199C220.153 213.345 218.873 214.061 217.309 214.204C217.167 214.204 216.882 214.204 216.74 214.204C215.745 214.204 214.891 213.918 214.038 213.488L213.612 213.345L213.185 213.488L211.479 213.918L210.91 214.061L211.052 213.488L211.621 211.77L211.763 211.34L211.621 210.911C211.336 210.338 211.194 209.765 211.194 209.049C211.052 207.618 211.479 206.043 212.474 204.897C213.469 203.752 214.749 203.036 216.313 202.892C216.456 202.892 216.74 202.892 216.882 202.892C218.162 202.892 219.299 203.322 220.295 204.181C221.432 205.183 222.143 206.472 222.286 208.047C222.57 209.622 222.001 211.054 221.148 212.199Z" fill="white"/>
<path d="M214.323 208.19C214.18 208.047 213.896 207.904 213.612 208.047C213.327 208.047 213.043 208.19 212.901 208.333C212.758 208.477 212.616 208.763 212.758 209.049C212.758 209.336 212.901 209.479 213.043 209.765C213.185 209.908 213.469 210.052 213.754 209.908C214.038 209.908 214.323 209.765 214.465 209.622C214.607 209.479 214.749 209.193 214.749 208.906C214.607 208.62 214.607 208.333 214.323 208.19Z" fill="white"/>
<path d="M217.451 207.904C217.309 207.761 217.024 207.618 216.74 207.761C216.456 207.761 216.171 207.904 216.029 208.047C215.887 208.19 215.745 208.477 215.887 208.763C215.887 209.049 216.029 209.193 216.171 209.479C216.313 209.622 216.598 209.765 216.882 209.622C217.167 209.622 217.451 209.479 217.593 209.336C217.735 209.193 217.878 208.906 217.878 208.62C217.878 208.333 217.735 208.047 217.451 207.904Z" fill="white"/>
<path d="M220.721 207.618C220.579 207.474 220.295 207.331 220.011 207.474C219.726 207.474 219.442 207.618 219.3 207.761C219.157 207.904 219.015 208.19 219.157 208.477C219.157 208.763 219.3 208.906 219.442 209.193C219.584 209.336 219.868 209.479 220.153 209.336C220.437 209.336 220.721 209.193 220.864 209.049C221.006 208.906 221.148 208.62 221.148 208.333C221.006 208.047 220.864 207.761 220.721 207.618Z" fill="white"/>
<defs>
<linearGradient id="paint0_linear_28_1456" x1="160.365" y1="72.7989" x2="262.419" y2="41.1274" gradientUnits="userSpaceOnUse">
<stop offset="0.0134083" stop-color="#003F68"/>
<stop offset="0.1788" stop-color="#044D77"/>
<stop offset="0.4952" stop-color="#0F739D"/>
<stop offset="0.9267" stop-color="#20B0DB"/>
<stop offset="1" stop-color="#23BBE6"/>
</linearGradient>
</defs>
</svg>
