<svg width="329" height="280" viewBox="0 0 329 280" fill="none" xmlns="http://www.w3.org/2000/svg">
<path d="M222.43 256.867C243.066 256.595 296.964 250.609 302.394 235.507C309.182 216.597 225.146 208.026 172.334 207.482C119.387 206.938 30.0563 210.883 2.22519 234.963C-16.9172 251.289 134.185 258.091 222.43 256.867Z" fill="#D6EBF8"/>
<path d="M215.914 241.221C235.708 241.221 251.755 240.308 251.755 239.181C251.755 238.054 235.708 237.14 215.914 237.14C196.119 237.14 180.073 238.054 180.073 239.181C180.073 240.308 196.119 241.221 215.914 241.221Z" fill="#D1D3D4"/>
<path d="M217.95 201.904C218.629 197.142 222.702 193.605 227.046 191.836C231.526 190.204 236.278 189.932 241.03 189.388C245.781 188.843 250.669 187.891 254.334 184.762C261.123 179.184 261.53 168.981 265.738 161.226C266.824 159.321 268.046 157.417 269.675 155.784C282.573 142.043 304.974 135.921 321.672 145.308C323.98 146.397 324.795 149.662 323.03 151.158C319.364 154.696 313.119 153.743 309.046 157.281C308.639 157.553 308.096 158.505 308.096 158.777C310.268 168.981 304.566 176.463 293.841 173.334C292.755 173.198 291.805 173.742 290.719 174.014C289.089 174.558 287.732 175.647 286.646 177.007C285.56 178.368 284.609 180 283.93 181.497C282.573 184.762 281.758 188.163 280.129 191.156C275.377 199.455 264.924 202.312 255.556 203.264C246.053 204.217 236.007 204.081 227.861 208.842C225.281 210.339 222.838 212.379 219.851 213.196C216.864 214.012 213.063 212.924 212.248 210.067C212.791 209.386 213.199 208.706 213.742 208.026" fill="#33CC99"/>
<path d="M244.152 189.388V189.116C260.579 191.7 269.947 178.504 279.043 165.579C279.858 164.491 280.672 163.403 281.351 162.314C286.646 154.968 294.113 152.111 299.407 151.023C305.245 149.798 309.861 150.206 309.861 150.206V150.478C309.725 150.478 291.397 148.71 281.487 162.45C280.672 163.539 279.858 164.627 279.179 165.716C270.083 178.64 260.715 192.109 244.152 189.388Z" fill="#1F264C"/>
<path d="M240.894 147.077C241.844 140.003 245.103 132.928 251.212 129.255C257.321 125.582 266.281 126.534 270.219 132.384C272.255 125.446 274.427 118.099 279.722 113.065C284.881 108.032 294.113 106.263 299.272 111.433C301.444 113.61 302.394 116.739 301.987 119.868C301.579 122.997 300.222 125.99 297.778 127.895C298.321 125.446 301.579 125.31 303.344 126.398C304.43 127.214 304.974 128.303 305.109 129.527C305.109 132.248 304.023 134.833 301.715 136.193C296.149 139.05 289.089 139.459 286.238 145.989C282.166 156.056 277.957 165.443 271.44 174.014C270.49 175.511 269.404 176.871 268.318 178.232C267.232 179.592 266.146 180.953 265.06 182.313C261.937 185.85 258.543 189.388 254.063 190.748C248.768 192.517 242.659 191.156 237.636 193.605C229.626 197.414 226.775 209.114 218.222 211.155C211.977 212.652 205.868 207.21 204.646 201.36C202.881 192.925 210.076 186.259 217 182.857C223.381 179.592 230.576 178.64 235.599 172.79C237.364 170.749 238.45 168.572 239.129 166.26C240.894 160.274 240.079 153.335 240.894 147.077Z" fill="#33CC99"/>
<path d="M218.901 198.775C218.901 198.639 224.06 187.483 244.831 180.136C259.765 174.967 265.738 159.457 269.947 148.029C271.712 143.404 273.205 139.458 274.97 137.146C280.944 129.119 293.57 125.718 293.705 125.718L293.841 125.99C293.705 125.99 281.215 129.391 275.242 137.282C273.477 139.595 271.983 143.54 270.219 148.165C265.874 159.593 259.901 175.103 244.831 180.408C224.06 187.755 219.036 198.775 219.036 198.911L218.901 198.775Z" fill="#1F264C"/>
<path d="M244.967 180.409L244.831 180.136C254.742 173.334 256.778 162.042 256.642 153.879C256.507 145.036 254.063 137.554 254.063 137.554L254.334 137.418C254.334 137.554 256.778 144.9 256.914 153.879C256.914 162.178 255.013 173.47 244.967 180.409Z" fill="#1F264C"/>
<path d="M271.576 144.084C276.056 136.874 282.437 134.289 286.781 133.472C291.669 132.52 295.47 133.472 295.47 133.472V133.745C295.47 133.745 291.669 132.928 286.917 133.745C282.573 134.561 276.328 137.01 271.848 144.22L271.576 144.084Z" fill="#1F264C"/>
<path d="M241.166 181.769L241.03 181.497C249.99 174.695 251.483 167.348 251.076 162.586C250.669 157.281 248.225 153.607 248.225 153.607L248.497 153.471C248.497 153.471 251.076 157.281 251.483 162.586C251.755 167.484 250.262 174.831 241.166 181.769Z" fill="#1F264C"/>
<path d="M278.229 167.348L278.093 167.076C286.238 161.09 292.348 160.682 295.878 161.498C299.815 162.314 301.715 164.491 301.715 164.627L301.444 164.763C301.444 164.763 299.543 162.586 295.742 161.77C292.212 160.954 286.238 161.362 278.229 167.348Z" fill="#1F264C"/>
<path d="M253.248 135.241C252.841 134.697 252.841 134.017 253.384 133.608C253.927 133.2 254.606 133.2 255.013 133.745C255.421 134.289 255.421 134.969 254.878 135.377C254.334 135.785 253.656 135.785 253.248 135.241ZM254.742 133.881C254.47 133.472 253.791 133.472 253.52 133.745C253.113 134.017 253.113 134.697 253.384 134.969C253.656 135.377 254.334 135.377 254.606 135.105C255.013 134.833 255.013 134.289 254.742 133.881Z" fill="#1F264C"/>
<path d="M302.937 166.396C302.53 165.988 302.666 165.443 303.073 165.035C303.48 164.627 304.023 164.763 304.43 165.171C304.838 165.579 304.702 166.124 304.295 166.532C303.887 166.94 303.209 166.804 302.937 166.396ZM304.159 165.307C303.887 165.035 303.48 165.035 303.209 165.307C302.937 165.579 302.937 165.988 303.209 166.26C303.48 166.532 303.887 166.532 304.159 166.26C304.295 165.988 304.295 165.579 304.159 165.307Z" fill="#1F264C"/>
<path d="M245.646 151.975C245.238 151.567 245.238 150.886 245.781 150.478C246.189 150.07 246.868 150.07 247.275 150.614C247.682 151.022 247.682 151.703 247.139 152.111C246.732 152.519 246.053 152.519 245.646 151.975ZM247.139 150.75C246.868 150.478 246.325 150.342 246.053 150.614C245.781 150.886 245.646 151.431 245.917 151.703C246.189 151.975 246.732 152.111 247.003 151.839C247.411 151.567 247.411 151.159 247.139 150.75Z" fill="#1F264C"/>
<path d="M294.927 125.582C294.656 125.174 294.656 124.63 295.063 124.221C295.47 123.949 296.013 123.949 296.421 124.357C296.692 124.766 296.692 125.31 296.285 125.718C295.878 125.99 295.334 125.99 294.927 125.582ZM296.149 124.63C295.878 124.357 295.47 124.357 295.199 124.63C294.927 124.902 294.927 125.31 295.199 125.582C295.47 125.854 295.878 125.854 296.149 125.582C296.285 125.31 296.285 124.902 296.149 124.63Z" fill="#1F264C"/>
<path d="M296.692 134.833C296.421 134.425 296.421 133.881 296.828 133.473C297.235 133.2 297.778 133.2 298.185 133.609C298.593 134.017 298.457 134.561 298.05 134.969C297.642 135.241 296.964 135.105 296.692 134.833ZM297.778 133.745C297.507 133.473 297.099 133.473 296.828 133.745C296.556 134.017 296.556 134.425 296.828 134.697C297.099 134.969 297.507 134.969 297.778 134.697C298.05 134.425 298.05 134.017 297.778 133.745Z" fill="#1F264C"/>
<path d="M311.762 150.886C311.219 150.342 311.354 149.39 311.897 148.982C312.44 148.438 313.391 148.574 313.798 149.118C314.341 149.662 314.205 150.614 313.662 151.022C313.119 151.431 312.305 151.431 311.762 150.886ZM313.662 149.254C313.255 148.846 312.576 148.71 312.169 149.118C311.762 149.526 311.626 150.206 312.033 150.614C312.44 151.023 313.119 151.159 313.527 150.75C314.07 150.342 314.07 149.662 313.662 149.254Z" fill="#1F264C"/>
<path d="M211.705 219.862C213.606 215.508 218.629 213.196 223.381 212.924C228.132 212.652 232.748 213.876 237.5 214.692C242.116 215.508 247.139 216.053 251.483 214.148C259.629 210.747 262.887 201.088 269.132 194.829C270.762 193.197 272.527 191.972 274.427 190.748C290.719 181.361 313.934 181.905 327.103 195.782C329.003 197.414 328.868 200.815 326.695 201.768C322.215 204.081 316.513 201.36 311.626 203.536C311.219 203.808 310.404 204.353 310.268 204.761C309.454 215.236 301.851 220.678 292.348 214.556C291.397 214.148 290.311 214.42 289.225 214.284C287.46 214.42 285.831 214.964 284.474 216.053C282.98 217.005 281.758 218.229 280.672 219.59C278.5 222.311 276.735 225.44 274.156 227.753C267.232 234.283 256.371 234.147 247.139 232.242C237.772 230.338 228.268 227.345 219.036 229.521C216.05 230.202 213.199 231.426 210.076 231.426C207.089 231.29 203.695 229.249 203.695 226.12C204.374 225.576 205.053 225.168 205.732 224.624" fill="#33CC99"/>
<path d="M240.351 215.509L240.487 215.236C255.421 222.447 268.182 212.516 280.672 202.856C281.758 202.04 282.844 201.224 283.93 200.407C290.99 194.966 299 194.285 304.566 194.83C310.54 195.374 314.748 197.142 314.884 197.142L314.748 197.414C314.613 197.278 297.642 190.34 284.202 200.68C283.116 201.496 282.03 202.312 280.944 203.128C268.318 212.788 255.421 222.855 240.351 215.509Z" fill="#1F264C"/>
<path d="M249.447 174.014C252.298 167.484 257.593 161.77 264.517 160.002C271.44 158.233 279.722 161.77 281.894 168.436C285.831 162.314 290.04 155.92 296.556 152.655C303.073 149.254 312.305 150.342 315.699 156.736C317.192 159.457 317.056 162.722 315.97 165.579C314.748 168.572 312.44 170.885 309.589 171.974C310.811 169.797 313.934 170.477 315.291 172.246C316.106 173.334 316.377 174.559 316.106 175.783C315.291 178.368 313.526 180.545 310.947 181.225C304.702 182.313 297.914 180.681 293.298 186.122C286.51 194.557 279.722 202.312 271.033 208.706C269.675 209.795 268.318 210.883 266.824 211.971C265.331 213.06 263.974 214.012 262.48 214.964C258.543 217.549 254.199 219.862 249.447 219.862C243.881 219.998 238.45 217.005 232.884 217.821C224.06 219.046 218.086 229.521 209.126 228.977C202.745 228.569 198.401 221.631 198.944 215.645C199.623 207.074 208.583 202.856 216.05 201.496C223.109 200.271 230.305 201.36 236.685 197.278C238.993 195.782 240.623 194.013 241.98 191.972C245.646 186.531 246.868 179.864 249.447 174.014Z" fill="#33CC99"/>
<path d="M213.47 217.005C213.606 216.869 221.616 207.754 243.745 206.665C259.493 205.985 269.676 192.789 277.142 183.265C280.129 179.32 282.709 176.055 285.152 174.286C293.162 168.436 306.331 168.709 306.467 168.709V168.981C306.331 168.981 293.434 168.572 285.424 174.422C283.116 176.055 280.536 179.456 277.55 183.402C270.083 193.061 259.901 206.257 244.017 206.938C222.023 207.89 214.013 217.005 214.013 217.141L213.47 217.005Z" fill="#1F264C"/>
<path d="M243.745 207.074L243.609 206.801C255.013 203.128 260.172 192.925 262.48 185.17C264.924 176.599 264.788 168.844 264.788 168.844H265.06C265.06 168.981 265.331 176.735 262.752 185.306C260.579 193.061 255.285 203.4 243.745 207.074Z" fill="#1F264C"/>
<path d="M279.722 180C286.103 174.422 292.891 173.878 297.371 174.286C302.258 174.831 305.652 176.735 305.652 176.735L305.517 177.007C305.517 177.007 302.123 175.103 297.235 174.559C292.755 174.014 286.103 174.559 279.858 180.136L279.722 180Z" fill="#1F264C"/>
<path d="M239.808 207.346L239.672 207.074C250.262 203.128 253.791 196.598 254.877 191.836C256.099 186.667 254.742 182.313 254.742 182.313L255.013 182.177C255.013 182.177 256.371 186.531 255.149 191.836C254.063 196.734 250.533 203.4 239.808 207.346Z" fill="#1F264C"/>
<path d="M279.315 204.217L279.179 203.945C288.818 200.543 294.656 201.904 297.778 203.673C301.308 205.577 302.53 208.298 302.53 208.434L302.258 208.57C302.258 208.57 301.036 205.849 297.642 203.945C294.52 202.176 288.818 200.816 279.315 204.217Z" fill="#1F264C"/>
<path d="M264.652 166.26C264.381 165.715 264.652 164.899 265.195 164.627C265.738 164.355 266.553 164.627 266.825 165.171C267.096 165.715 266.825 166.532 266.281 166.804C265.603 167.076 264.924 166.804 264.652 166.26ZM266.553 165.307C266.417 164.899 265.874 164.627 265.331 164.899C264.924 165.035 264.652 165.579 264.924 166.124C265.195 166.668 265.603 166.804 266.146 166.532C266.553 166.396 266.825 165.851 266.553 165.307Z" fill="#1F264C"/>
<path d="M303.209 210.475C302.937 209.931 303.209 209.386 303.616 209.25C304.159 208.978 304.702 209.25 304.838 209.659C305.109 210.203 304.838 210.747 304.43 210.883C304.023 211.155 303.48 210.883 303.209 210.475ZM304.702 209.795C304.566 209.523 304.159 209.25 303.887 209.523C303.616 209.659 303.344 210.067 303.616 210.339C303.752 210.611 304.159 210.883 304.43 210.611C304.702 210.475 304.838 210.067 304.702 209.795Z" fill="#1F264C"/>
<path d="M252.57 180.136C252.298 179.592 252.57 178.912 253.113 178.64C253.656 178.368 254.334 178.64 254.606 179.184C254.877 179.728 254.606 180.408 254.063 180.681C253.52 180.953 252.841 180.681 252.57 180.136ZM254.334 179.32C254.199 178.912 253.656 178.776 253.248 178.912C252.841 179.048 252.705 179.592 252.841 180C252.977 180.408 253.52 180.545 253.927 180.408C254.334 180.272 254.606 179.728 254.334 179.32Z" fill="#1F264C"/>
<path d="M307.417 169.117C307.146 168.709 307.417 168.164 307.824 167.892C308.232 167.62 308.775 167.892 309.046 168.3C309.318 168.709 309.046 169.253 308.639 169.525C308.232 169.797 307.689 169.661 307.417 169.117ZM308.775 168.436C308.639 168.164 308.232 168.028 307.96 168.164C307.689 168.3 307.553 168.709 307.689 168.981C307.824 169.253 308.232 169.389 308.503 169.253C308.775 169.253 309.046 168.845 308.775 168.436Z" fill="#1F264C"/>
<path d="M306.467 178.368C306.195 177.96 306.467 177.415 306.874 177.143C307.281 176.871 307.825 177.143 308.096 177.551C308.368 177.96 308.096 178.504 307.689 178.776C307.281 179.048 306.603 178.912 306.467 178.368ZM307.824 177.824C307.689 177.551 307.281 177.415 307.01 177.551C306.738 177.688 306.603 178.096 306.738 178.368C306.874 178.64 307.281 178.776 307.553 178.64C307.824 178.504 307.96 178.096 307.824 177.824Z" fill="#1F264C"/>
<path d="M316.242 198.095C315.97 197.414 316.242 196.598 316.921 196.326C317.599 196.054 318.414 196.326 318.685 197.006C318.957 197.686 318.685 198.503 318.007 198.775C317.464 199.183 316.649 198.911 316.242 198.095ZM318.55 197.142C318.278 196.598 317.599 196.326 317.056 196.598C316.513 196.87 316.242 197.55 316.513 198.095C316.785 198.639 317.464 198.911 318.007 198.639C318.55 198.367 318.821 197.686 318.55 197.142Z" fill="#1F264C"/>
<path d="M24.7616 211.019C24.6259 211.427 24.2186 212.38 24.3544 213.468C24.3544 214.556 25.0332 215.509 25.0332 215.509C25.0332 215.509 23.9471 215.1 23.2683 214.012C22.4537 212.924 22.1822 211.291 22.4537 210.611C22.861 209.114 24.0828 208.57 24.6259 208.978C25.0332 209.25 24.8974 210.203 24.7616 211.019Z" fill="#1D3B4C"/>
<path d="M32.0928 214.556C31.957 214.964 31.5497 215.917 31.6855 217.005C31.6855 218.094 32.3643 219.046 32.3643 219.046C32.3643 219.046 31.2782 218.638 30.5994 217.549C29.7848 216.461 29.5133 214.828 29.7848 214.148C30.1921 212.652 31.4139 212.107 31.957 212.516C32.3643 212.788 32.2285 213.74 32.0928 214.556Z" fill="#1D3B4C"/>
<path d="M39.4239 218.774C39.2881 219.182 38.8808 220.134 39.0166 221.223C39.0166 222.311 39.6954 223.263 39.6954 223.263C39.6954 223.263 38.6093 222.855 37.9305 221.767C37.1159 220.678 36.8444 219.046 37.1159 218.366C37.5232 216.869 38.7451 216.325 39.2881 216.733C39.6954 217.005 39.5596 217.957 39.4239 218.774Z" fill="#1D3B4C"/>
<path d="M21.7749 217.957C21.9106 217.685 22.3179 216.733 23.1325 216.189C23.8113 215.645 25.0332 215.373 24.8974 215.373C24.8974 215.373 23.9471 214.828 22.7252 215.1C21.5034 215.237 20.1457 216.053 19.8742 216.597C19.0597 217.821 19.4669 219.046 20.1457 219.046C20.6888 219.182 21.3676 218.502 21.7749 217.957Z" fill="#1D3B4C"/>
<path d="M29.3775 221.495C29.5132 221.223 29.9205 220.27 30.7351 219.726C31.4139 219.182 32.6358 218.91 32.5 218.91C32.5 218.91 31.5497 218.366 30.3278 218.638C29.106 218.774 27.7483 219.59 27.4768 220.134C26.6623 221.359 27.0695 222.583 27.7483 222.583C28.2914 222.719 28.9702 222.175 29.3775 221.495Z" fill="#1D3B4C"/>
<path d="M17.2947 210.747C17.2947 211.019 17.159 211.563 17.4305 212.244C17.5662 212.788 18.1093 213.332 18.1093 213.332C18.1093 213.332 17.4305 213.332 16.7517 212.788C16.0729 212.38 15.6656 211.427 15.6656 211.019C15.6656 210.067 16.2086 209.523 16.6159 209.659C17.159 209.795 17.2947 210.339 17.2947 210.747Z" fill="#1D3B4C"/>
<path d="M15.6656 214.148C15.8013 214.012 16.2086 213.468 16.7517 213.196C17.2947 212.924 17.9735 212.924 17.9735 212.924C17.9735 212.924 17.4305 212.516 16.6159 212.38C15.8013 212.244 14.851 212.652 14.5795 212.924C13.9007 213.604 14.0364 214.42 14.4437 214.556C14.851 214.828 15.394 214.556 15.6656 214.148Z" fill="#1D3B4C"/>
<path d="M36.7086 182.313C43.7682 196.462 48.5199 213.06 50.4205 228.977L51.3709 229.113C49.4702 213.468 44.447 196.734 37.3874 182.585C35.7583 179.32 33.9934 175.375 30.4636 173.878C30.3278 173.878 30.3278 174.014 30.4636 174.014C33.5861 175.647 35.0795 179.32 36.7086 182.313Z" fill="#1D3B4C"/>
<path d="M48.6556 228.841C40.5099 214.964 29.9205 201.224 17.2947 189.388C17.159 189.252 17.0232 189.524 17.0232 189.66C28.9702 200.952 39.4239 214.42 47.7053 228.705L48.6556 228.841Z" fill="#1D3B4C"/>
<path d="M36.7086 174.014C36.4371 174.287 35.4868 175.103 35.2152 176.191C34.808 177.143 34.9437 178.504 34.9437 178.504C34.9437 178.504 34.1292 177.552 33.8576 176.191C33.5861 174.831 33.9934 173.062 34.6722 172.382C35.7583 171.021 37.2517 171.157 37.5232 171.838C37.7947 172.518 37.2517 173.334 36.7086 174.014Z" fill="#1D3B4C"/>
<path d="M33.5861 185.714C33.8577 185.578 34.808 184.762 35.8941 184.626C36.9802 184.354 38.202 184.762 38.202 184.762C38.202 184.762 37.3874 183.674 36.0298 183.266C34.6722 182.721 32.9073 182.857 32.2285 183.402C30.7351 184.218 30.4636 185.714 31.1424 186.123C31.8212 186.395 32.7716 185.987 33.5861 185.714Z" fill="#1D3B4C"/>
<path d="M36.0298 191.156C36.3013 191.02 37.2516 190.204 38.3377 190.068C39.4238 189.796 40.6457 190.204 40.6457 190.204C40.6457 190.204 39.8311 189.116 38.4735 188.708C37.1159 188.163 35.351 188.299 34.6722 188.844C33.1788 189.66 32.9073 191.156 33.5861 191.564C34.4007 191.837 35.2152 191.564 36.0298 191.156Z" fill="#1D3B4C"/>
<path d="M23.947 202.176C24.2186 202.04 25.1689 201.224 26.255 201.088C27.3411 200.816 28.5629 201.224 28.5629 201.224C28.5629 201.224 27.7484 200.135 26.3907 199.727C25.0331 199.183 23.2682 199.319 22.5894 199.863C21.096 200.68 20.8245 202.176 21.5033 202.584C22.1821 202.856 23.1325 202.448 23.947 202.176Z" fill="#1D3B4C"/>
<path d="M18.9238 196.598C19.1954 196.462 20.1457 195.646 21.2318 195.51C22.3179 195.238 23.5397 195.646 23.5397 195.646C23.5397 195.646 22.7252 194.557 21.3675 194.149C20.0099 193.605 18.245 193.741 17.5662 194.285C16.0728 195.102 15.8013 196.598 16.4801 197.006C17.1589 197.278 18.1093 197.006 18.9238 196.598Z" fill="#1D3B4C"/>
<path d="M40.3742 180.272C40.1027 180.545 39.0166 181.089 38.4735 182.177C37.9305 183.129 37.7947 184.49 37.7947 184.354C37.7947 184.354 37.1159 183.266 37.1159 181.905C37.1159 180.545 37.7947 178.776 38.4735 178.368C39.6954 177.279 41.1888 177.552 41.3245 178.232C41.596 178.912 41.053 179.728 40.3742 180.272Z" fill="#1D3B4C"/>
<path d="M44.3113 186.667C43.904 186.803 42.5464 187.075 41.7318 188.027C40.9172 188.844 40.6457 190.34 40.6457 190.34C40.6457 190.476 39.8311 188.844 40.1027 187.211C40.2384 185.578 41.3245 183.946 42.1391 183.674C43.7682 182.994 45.6689 183.946 45.8046 184.898C46.0762 185.714 45.1258 186.259 44.3113 186.667Z" fill="#1D3B4C"/>
<path d="M48.1126 196.054C47.7053 196.19 46.3477 196.19 45.3974 196.87C44.447 197.55 43.904 198.911 44.0398 198.911C44.0398 199.047 43.4967 197.278 44.0398 195.646C44.447 194.013 45.8047 192.653 46.6192 192.517C48.3841 192.109 50.149 193.333 50.0133 194.285C50.0133 195.374 49.0629 195.782 48.1126 196.054Z" fill="#1D3B4C"/>
<path d="M33.5861 200.816C33.3146 200.952 32.2285 201.224 31.5497 202.04C30.8709 202.72 30.7351 203.945 30.8709 203.945C30.8709 203.945 30.1921 202.72 30.1921 201.36C30.1921 199.999 31.0066 198.639 31.6855 198.367C33.0431 197.687 34.6722 198.367 34.6722 199.047C34.808 199.999 34.1292 200.544 33.5861 200.816Z" fill="#1D3B4C"/>
<path d="M28.6987 175.375C28.8344 175.239 29.3775 174.695 30.0563 174.559C30.7351 174.423 31.4139 174.559 31.4139 174.559C31.4139 174.559 30.8709 174.014 30.0563 173.742C29.2417 173.47 28.1556 173.606 27.7484 174.014C26.9338 174.559 26.798 175.511 27.2053 175.647C27.7484 175.783 28.2914 175.647 28.6987 175.375Z" fill="#1D3B4C"/>
<path d="M30.8709 171.702C30.8709 171.974 30.5994 172.654 30.7351 173.198C30.8709 173.878 31.2782 174.423 31.2782 174.423C31.2782 174.423 30.5994 174.287 30.0563 173.606C29.5133 173.062 29.106 171.974 29.2418 171.43C29.3775 170.477 30.1921 169.933 30.4636 170.205C30.8709 170.613 30.8709 171.157 30.8709 171.702Z" fill="#1D3B4C"/>
<path d="M15.3941 191.156C15.5298 191.02 16.0729 190.476 16.7517 190.34C17.4305 190.204 18.1093 190.34 18.1093 190.34C18.1093 190.34 17.5662 189.796 16.7517 189.524C15.9371 189.252 14.851 189.388 14.4437 189.796C13.6292 190.34 13.4934 191.292 13.9007 191.428C14.4437 191.701 14.9868 191.428 15.3941 191.156Z" fill="#1D3B4C"/>
<path d="M17.8377 187.619C17.8377 187.891 17.5662 188.435 17.5662 189.116C17.5662 189.796 18.1093 190.476 18.1093 190.34C18.1093 190.34 17.4305 190.068 16.8874 189.388C16.3444 188.707 16.0728 187.619 16.2086 187.211C16.3444 186.259 17.2947 185.85 17.5662 186.123C17.9735 186.531 17.8377 187.075 17.8377 187.619Z" fill="#1D3B4C"/>
<path d="M16.7517 212.788C19.1954 213.196 21.5033 214.012 23.8113 214.828C28.0199 216.461 31.957 218.502 35.894 220.678C37.7947 221.767 39.6954 222.855 41.596 223.944C42.4106 224.488 43.3609 225.032 44.1755 225.712C45.2616 226.664 46.8907 228.297 47.0265 228.569H46.0762C45.5331 228.025 43.3609 225.712 40.2384 223.807C32.9073 219.318 25.1689 214.692 16.7517 212.788C16.6159 212.924 16.6159 212.788 16.7517 212.788Z" fill="#1D3B4C"/>
<path d="M115.993 224.488C114.636 219.862 110.156 216.869 105.54 215.917C100.924 214.964 96.0365 215.373 91.4206 215.509C86.6689 215.645 81.6457 215.373 77.5729 212.924C69.9702 208.434 68.2053 198.367 62.9106 191.292C61.553 189.524 60.0596 187.891 58.2947 186.531C43.6325 174.831 20.553 171.974 5.34772 183.81C3.3113 185.17 2.90401 188.571 4.80467 189.796C8.87752 192.789 14.9868 190.884 19.4669 193.877C19.8742 194.149 20.553 194.966 20.6888 195.238C20.01 205.713 26.6623 212.243 36.9802 207.618C38.0663 207.346 39.0166 207.754 40.1027 207.754C41.8676 208.162 43.361 208.978 44.5828 210.203C45.9404 211.427 47.0265 212.788 47.8411 214.284C49.606 217.277 50.9636 220.542 53 223.399C58.8378 230.882 69.563 232.242 79.0663 231.834C88.5696 231.426 98.4802 229.793 107.305 233.331C110.156 234.419 112.871 236.188 115.858 236.46C118.844 236.868 122.51 235.235 122.917 232.242C122.374 231.698 121.695 231.018 121.152 230.474" fill="#66C698"/>
<path d="M88.298 215.781L88.1623 215.509C72.4139 220.542 61.1457 208.706 50.2848 197.278C49.3345 196.326 48.3841 195.374 47.4338 194.285C41.1888 187.891 33.3146 185.986 27.8841 185.714C21.9106 185.306 17.4305 186.395 17.4305 186.531L17.5662 186.803C17.702 186.803 35.4868 182.313 47.298 194.557C48.2484 195.51 49.1987 196.462 50.149 197.55C61.01 208.978 72.2782 220.814 88.298 215.781Z" fill="#1F264C"/>
<path d="M85.3113 173.47C83.4106 166.668 79.0662 160.138 72.5497 157.281C66.0331 154.56 57.2086 156.736 54.0861 163.131C51.0993 156.464 47.8411 149.526 41.8676 145.309C36.0298 141.091 26.6623 140.683 22.3179 146.533C20.4172 148.982 20.0099 152.247 20.8245 155.24C21.6391 158.369 23.5397 161.09 26.255 162.45C25.4404 160.002 22.1821 160.41 20.553 161.77C19.6027 162.723 19.1954 163.947 19.1954 165.171C19.6027 167.892 21.096 170.341 23.404 171.293C29.3775 173.334 36.4371 172.79 40.1027 178.776C45.6689 188.163 51.0993 196.87 58.8378 204.353C60.0596 205.577 61.2815 206.938 62.5033 208.162C63.7252 209.386 65.0828 210.611 66.4404 211.699C69.9702 214.828 73.9073 217.685 78.5232 218.502C84.0894 219.454 89.9272 217.277 95.2219 218.91C103.775 221.495 108.119 232.65 117.079 233.467C123.46 234.011 128.755 227.753 129.162 221.767C129.705 213.196 121.56 207.618 114.364 205.305C107.576 202.992 100.245 203.128 94.5431 198.095C92.5066 196.326 91.149 194.285 90.0629 192.109C87.3477 186.531 87.0762 179.592 85.3113 173.47Z" fill="#66C698"/>
<path d="M114.636 221.359C114.636 221.223 107.984 210.883 86.2617 206.666C70.7848 203.673 62.6391 189.116 56.6656 178.64C54.2219 174.287 52.1855 170.613 50.1491 168.573C43.0895 161.498 30.0564 160.002 29.9206 160.002V160.274C30.0564 160.274 42.9537 161.906 50.0133 168.845C52.0497 170.885 54.0862 174.559 56.5299 178.912C62.5034 189.524 70.6491 204.081 86.2617 207.074C107.848 211.291 114.364 221.495 114.5 221.631L114.636 221.359Z" fill="#1F264C"/>
<path d="M86.1258 207.074L86.2616 206.802C75.5364 201.496 71.8709 190.612 70.7848 182.585C69.5629 173.742 70.9205 166.124 70.9205 165.988H70.649C70.649 166.124 69.2914 173.742 70.5132 182.585C71.5993 190.748 75.2649 201.632 86.1258 207.074Z" fill="#1F264C"/>
<path d="M54.6292 174.967C49.0629 168.436 42.5464 166.94 37.9305 166.804C33.0431 166.668 29.3775 168.028 29.3775 168.028L29.5133 168.3C29.5133 168.3 33.1788 166.94 38.0662 167.076C42.5464 167.212 49.0629 168.845 54.4934 175.239L54.6292 174.967Z" fill="#1F264C"/>
<path d="M90.063 207.89L90.1987 207.618C80.2881 202.176 77.8444 195.238 77.4371 190.34C77.0299 185.034 78.9305 180.953 79.0663 180.953L78.7948 180.817C78.7948 180.817 76.7583 184.898 77.1656 190.34C77.5729 195.238 80.0166 202.312 90.063 207.89Z" fill="#1F264C"/>
<path d="M51.3709 198.911L51.5066 198.639C42.5464 193.877 36.5729 194.421 33.0431 195.646C29.2417 197.006 27.7484 199.455 27.6126 199.591L27.8841 199.727C27.8841 199.727 29.5133 197.278 33.1788 195.918C36.5729 194.693 42.5464 194.149 51.3709 198.911Z" fill="#1F264C"/>
<path d="M69.8345 163.947C69.2914 163.539 69.1557 162.859 69.4272 162.314C69.8345 161.77 70.5133 161.634 71.0563 161.906C71.5994 162.314 71.7351 162.995 71.4636 163.539C71.1921 164.083 70.3775 164.219 69.8345 163.947ZM69.9703 163.675C70.3775 163.947 70.9206 163.811 71.1921 163.403C71.4636 162.995 71.3279 162.451 70.9206 162.178C70.5133 161.906 69.9703 162.042 69.6987 162.451C69.4272 162.859 69.563 163.403 69.9703 163.675Z" fill="#1F264C"/>
<path d="M25.4404 201.904C25.0331 201.632 24.8974 201.088 25.1689 200.543C25.4404 200.135 25.9835 199.999 26.5265 200.271C26.9338 200.543 27.0696 201.088 26.798 201.632C26.5265 202.04 25.9835 202.176 25.4404 201.904ZM25.712 201.632C25.9835 201.768 26.3908 201.768 26.6623 201.496C26.798 201.224 26.7981 200.816 26.5265 200.543C26.255 200.407 25.8477 200.407 25.5762 200.68C25.3047 201.088 25.3047 201.496 25.712 201.632Z" fill="#1F264C"/>
<path d="M79.8808 179.456C79.3378 179.184 79.202 178.504 79.6093 177.96C79.8808 177.416 80.5596 177.279 81.1027 177.688C81.6457 177.96 81.7815 178.64 81.3742 179.184C81.1027 179.592 80.4239 179.728 79.8808 179.456ZM80.0166 179.184C80.4239 179.456 80.8312 179.32 81.1027 178.912C81.3742 178.504 81.2385 178.096 80.8312 177.824C80.4239 177.552 80.0166 177.688 79.7451 178.096C79.4736 178.504 79.6093 178.912 80.0166 179.184Z" fill="#1F264C"/>
<path d="M27.4769 160.41C27.0696 160.138 26.9338 159.594 27.2053 159.185C27.4769 158.777 28.0199 158.641 28.4272 158.913C28.8345 159.185 28.9702 159.73 28.6987 160.138C28.563 160.546 27.8842 160.682 27.4769 160.41ZM27.6126 160.138C27.8842 160.274 28.2914 160.274 28.4272 160.002C28.563 159.73 28.563 159.321 28.2914 159.185C28.0199 159.049 27.6126 159.049 27.4769 159.321C27.3411 159.594 27.3411 160.002 27.6126 160.138Z" fill="#1F264C"/>
<path d="M27.0696 169.661C26.6623 169.389 26.5265 168.845 26.7981 168.437C27.0696 168.028 27.6126 167.892 28.0199 168.164C28.4272 168.437 28.563 168.981 28.2914 169.389C28.1557 169.797 27.6126 169.933 27.0696 169.661ZM27.3411 169.389C27.6126 169.525 28.0199 169.525 28.1557 169.253C28.2914 168.981 28.2914 168.573 28.0199 168.437C27.7484 168.3 27.3411 168.3 27.2053 168.573C26.9338 168.845 26.9338 169.253 27.3411 169.389Z" fill="#1F264C"/>
<path d="M13.9007 187.891C13.2219 187.483 13.0862 186.667 13.4934 185.986C13.9007 185.306 14.7153 185.17 15.3941 185.578C16.0729 185.986 16.2087 186.803 15.8014 187.483C15.3941 188.163 14.4438 188.299 13.9007 187.891ZM14.0365 187.619C14.5795 187.891 15.2583 187.755 15.5299 187.347C15.8014 186.803 15.6656 186.123 15.2583 185.85C14.7153 185.578 14.0365 185.714 13.765 186.123C13.3577 186.667 13.4934 187.347 14.0365 187.619Z" fill="#1F264C"/>
<path d="M276.599 84.3598V224.624C276.599 231.698 270.897 237.412 263.838 237.412H61.0099C53.9503 237.412 48.2484 231.698 48.2484 224.624V84.3598C48.2484 77.2854 53.9503 71.5714 61.0099 71.5714H263.838C270.897 71.7075 276.599 77.4214 276.599 84.3598Z" fill="#081330"/>
<path d="M261.122 90.4818V218.502C261.122 222.311 258.136 225.304 254.334 225.304H68.4768C64.6755 225.304 61.6887 222.311 61.6887 218.502V90.4818C61.6887 86.6725 64.6755 83.6795 68.4768 83.6795H254.334C258.136 83.6795 261.122 86.6725 261.122 90.4818Z" fill="white"/>
<path d="M266.96 156.6C268.085 156.6 268.997 155.687 268.997 154.56C268.997 153.433 268.085 152.519 266.96 152.519C265.836 152.519 264.924 153.433 264.924 154.56C264.924 155.687 265.836 156.6 266.96 156.6Z" fill="#657AC7"/>
<path d="M266.96 150.206C267.485 150.206 267.911 149.78 267.911 149.254C267.911 148.728 267.485 148.302 266.96 148.302C266.435 148.302 266.01 148.728 266.01 149.254C266.01 149.78 266.435 150.206 266.96 150.206Z" fill="#657AC7"/>
<path d="M261.122 90.4818V97.0121H61.6887V90.4818C61.6887 86.6725 64.6755 83.6795 68.4768 83.6795H254.334C258.136 83.6795 261.122 86.6725 261.122 90.4818Z" fill="#5AC5DA"/>
<path d="M155.5 92.2505H73.3642C72.2781 92.2505 71.4636 91.4342 71.4636 90.3458C71.4636 89.2574 72.2781 88.4412 73.3642 88.4412H155.636C156.722 88.4412 157.536 89.2574 157.536 90.3458C157.536 91.2981 156.586 92.2505 155.5 92.2505Z" fill="#D6EBF8"/>
<path d="M209.805 156.6C209.805 151.975 209.669 147.213 209.533 142.588C209.533 139.051 209.262 135.649 208.175 132.248C207.361 129.663 206.003 127.623 203.831 126.126C201.387 124.494 198.672 123.677 195.685 123.405C193.921 123.133 192.291 122.997 190.526 122.997C187.675 122.861 184.96 122.725 182.109 122.725C179.53 122.725 176.815 122.861 174.235 122.997C171.927 123.133 169.619 123.133 167.447 123.813C165.139 124.494 163.238 125.718 161.745 127.623C160.795 128.847 159.98 130.344 159.166 131.704C158.894 131.024 158.487 130.207 158.215 129.391C157.401 127.623 156.315 125.99 154.685 124.766C153.192 123.677 151.427 123.133 149.662 122.997C146.132 122.725 142.603 122.725 139.073 122.589C136.358 122.589 133.642 122.589 130.927 122.589C128.755 122.589 126.583 122.725 124.546 122.861C121.831 123.133 119.116 123.677 116.536 124.902C113.55 126.262 111.513 128.439 110.427 131.568C109.477 134.289 109.07 137.01 108.934 139.867C108.798 142.316 108.798 144.901 108.798 147.349C108.662 151.023 108.526 154.696 108.798 158.369C108.934 160.954 109.205 163.539 110.156 165.988C111.242 169.117 113.007 171.702 115.586 173.878C118.709 176.463 122.374 177.96 126.583 177.96C129.298 177.96 132.149 177.96 134.864 177.96C137.308 177.96 139.752 178.096 142.195 178.096C145.318 178.096 148.44 178.232 151.563 178.232C152.242 178.232 152.649 178.504 153.056 179.184C153.599 180.273 154.142 181.225 154.685 182.177C156.586 185.034 159.03 187.211 161.609 189.252C162.152 189.66 162.695 190.068 163.374 190.612C163.103 189.388 162.695 188.163 162.56 186.939C162.288 185.578 162.424 184.218 162.831 182.857C163.781 180.001 166.089 178.64 168.805 177.96C170.298 177.688 171.791 177.688 173.421 177.552C176.407 177.552 179.394 177.552 182.381 177.552C185.639 177.552 189.033 177.552 192.291 177.552C195.821 177.552 199.079 176.735 202.066 174.695C206.275 171.838 208.719 167.892 209.669 162.859C209.805 160.954 209.805 158.777 209.805 156.6Z" fill="#CE132C"/>
<path d="M181.702 185.578C181.43 182.994 179.801 181.497 177.629 180.545C174.235 179.048 170.841 179.184 167.719 181.225C165.003 182.994 163.917 186.395 165.954 189.252C167.583 191.564 169.891 192.381 172.334 192.653C175.321 192.789 177.765 192.245 179.801 190.34C181.159 188.98 181.838 187.483 181.702 185.578Z" fill="#CE132C"/>
<path d="M185.911 190.204C184.01 190.068 182.245 190.612 180.887 192.109C179.801 193.333 179.666 195.238 180.616 196.462C181.702 197.959 183.195 198.639 185.503 198.775C186.861 198.911 188.49 198.503 189.983 197.278C191.613 195.782 191.748 193.605 190.255 191.973C189.033 190.748 187.54 190.34 185.911 190.204Z" fill="#CE132C"/>
<path d="M197.722 148.166C197.179 146.261 195.821 144.901 193.921 144.084C192.834 143.676 191.613 143.404 190.391 143.268C187.947 142.996 185.503 143.132 183.195 143.948C181.023 144.628 179.53 146.125 178.987 148.438C178.444 150.478 178.444 152.655 178.851 154.696C179.394 156.873 180.752 158.505 182.788 159.321C184.146 159.866 185.503 160.138 186.861 160.138C188.762 160.138 190.526 160.138 192.427 159.73C195.278 159.049 197.043 157.417 197.858 154.56C198.536 152.519 198.401 150.342 197.722 148.166ZM192.97 152.519C192.97 153.063 192.834 153.608 192.563 154.152C192.156 155.24 191.341 156.056 190.119 156.328C188.897 156.601 187.811 156.601 186.589 156.328C185.232 155.92 184.417 155.104 184.01 153.744C183.738 152.519 183.738 151.159 184.01 149.798C184.417 148.438 185.232 147.621 186.589 147.349C187.676 147.077 188.897 147.077 190.119 147.349C191.613 147.758 192.427 148.574 192.834 150.07C192.97 150.751 192.97 151.567 192.97 152.519Z" fill="white"/>
<path d="M162.695 144.628C161.609 143.948 160.387 143.676 159.03 143.54C156.858 143.268 154.685 143.404 152.513 144.084C150.748 144.628 149.255 145.717 148.44 147.485C147.897 148.71 147.762 149.934 147.626 150.614C147.49 152.655 147.626 154.152 148.033 155.512C148.576 157.145 149.526 158.505 151.156 159.185C153.871 160.41 156.586 160.818 159.573 160.274C161.202 160.002 162.831 159.457 164.324 158.777C165.275 158.369 165.411 157.825 164.732 157.009C164.46 156.6 164.053 156.192 163.781 155.784C163.238 155.104 162.831 155.104 162.152 155.512C161.609 155.92 160.93 156.192 160.252 156.464C158.622 157.009 156.993 156.873 155.364 156.6C154.142 156.328 153.328 155.648 152.921 154.424C152.649 153.88 152.921 153.607 153.464 153.607C154.142 153.607 154.957 153.607 155.636 153.607C157.808 153.607 159.98 153.607 162.152 153.607C162.967 153.607 163.917 153.607 164.732 153.607C165.275 153.607 165.546 153.471 165.546 152.927C165.546 151.567 165.546 150.206 165.275 148.846C165.003 147.213 164.189 145.581 162.695 144.628ZM160.252 150.342C159.437 150.478 158.758 150.478 157.944 150.478C156.45 150.478 154.957 150.478 153.464 150.478C153.328 150.478 153.192 150.478 153.056 150.478C152.649 150.478 152.649 150.206 152.649 149.934C152.921 148.71 153.735 147.894 154.821 147.621C155.636 147.349 156.586 147.349 157.672 147.349C158.487 147.485 159.301 147.485 159.98 148.302C160.387 148.71 160.659 149.254 160.659 149.798C160.795 150.07 160.659 150.206 160.252 150.342Z" fill="white"/>
<path d="M137.987 159.049C136.358 156.737 134.728 154.424 132.964 152.247C132.013 151.159 132.149 150.478 133.099 149.526C134.864 147.894 136.358 145.989 137.987 144.22C138.123 144.084 138.258 143.948 138.123 143.676C137.987 143.404 137.851 143.404 137.579 143.404C136.901 143.404 136.222 143.54 135.407 143.404C133.914 143.268 132.692 143.676 131.742 144.901C130.791 146.125 129.57 147.077 128.348 148.166C128.348 147.894 128.348 147.894 128.348 147.758C128.348 146.533 128.348 145.309 128.348 144.084C128.348 143.404 128.076 143.132 127.533 143.132C126.719 142.996 125.904 143.132 125.089 143.132C124.003 143.132 123.596 143.404 123.596 144.628C123.596 146.805 123.596 149.118 123.596 151.295C123.596 154.016 123.596 156.873 123.596 159.594C123.596 160.41 123.732 160.682 124.682 160.682C125.497 160.682 126.447 160.682 127.262 160.682C128.348 160.682 128.619 160.274 128.619 159.321C128.619 159.185 128.619 159.185 128.619 159.049C128.619 157.553 128.619 156.192 128.619 154.696C128.619 154.56 128.619 154.424 128.755 154.288C129.026 154.152 129.026 154.424 129.026 154.424C130.248 155.92 131.47 157.417 132.692 158.913C133.507 159.866 134.457 160.41 135.679 160.41C136.629 160.41 137.444 160.41 138.394 160.41C138.801 160.41 138.937 160.002 138.801 159.73C138.394 159.594 138.258 159.321 137.987 159.049Z" fill="white"/>
<path d="M177.493 143.132C176.407 143.132 175.457 143.268 174.371 143.676C173.692 143.948 173.013 144.356 172.334 144.765C172.334 144.492 172.334 144.356 172.334 144.22C172.334 143.54 171.927 143.132 171.248 143.132C170.162 143.132 169.212 143.132 168.126 143.132C167.583 143.132 167.175 143.404 167.175 144.084C167.175 144.492 167.175 144.901 167.175 145.309C167.175 147.485 167.175 149.798 167.175 151.975C167.175 154.288 167.175 156.737 167.175 159.049C167.175 159.866 167.447 160.138 168.262 160.138C169.212 160.138 170.026 160.138 170.977 160.138C172.063 160.138 172.47 159.73 172.334 158.777C172.334 157.689 172.334 156.465 172.334 155.376C172.334 154.016 172.334 152.791 172.334 151.431C172.334 149.118 173.013 148.302 175.05 147.894H175.185C175.864 147.758 176.679 147.621 177.358 147.485C177.901 147.349 178.308 146.941 178.308 146.397C178.444 145.581 178.308 144.901 178.308 144.084C178.308 143.54 178.036 143.132 177.493 143.132Z" fill="white"/>
<path d="M145.861 144.22C145.725 143.676 145.589 143.54 145.046 143.404C143.824 143.268 142.738 143.404 141.517 143.404C140.838 143.404 140.702 143.676 140.702 144.356C140.702 145.445 140.702 146.533 140.702 147.621C140.702 151.567 140.702 155.512 140.838 159.321C140.838 160.002 141.109 160.274 141.788 160.274C142.738 160.274 143.824 160.274 144.775 160.274C145.861 160.274 145.997 160.138 145.997 159.049C145.997 158.505 145.997 157.961 145.997 157.417C145.997 153.88 145.997 150.206 145.861 146.669C145.861 145.989 145.997 145.037 145.861 144.22Z" fill="white"/>
<path d="M144.368 131.704C145.589 131.84 146.947 132.248 148.033 133.2C149.934 134.833 149.934 137.418 148.169 139.05C145.861 141.227 141.652 141.227 139.344 139.187C137.172 137.418 137.444 134.425 139.616 132.792C141.109 131.976 142.603 131.704 144.368 131.704Z" fill="#74C0D1"/>
<path opacity="0.3" d="M146.676 70.3469L156.586 87.4888C156.45 87.7609 156.45 88.033 156.315 88.169C157.401 89.3934 159.301 91.2981 161.609 91.2981C162.424 90.89 163.238 90.7539 163.646 90.7539C164.189 90.8899 164.46 91.2981 164.325 91.8423C163.781 94.019 159.437 93.7469 159.437 93.7469C159.437 93.7469 157.944 93.6109 156.993 94.2911C155.636 94.8353 154.142 94.4272 154.142 94.4272C153.464 93.0667 154.007 92.1144 154.007 92.1144C154.007 91.8423 153.871 91.026 153.599 90.0737C153.464 90.0737 153.328 90.0737 153.328 90.0737C147.762 86.2644 143.825 81.6388 141.109 77.6934L135.815 91.4341C135.815 91.4341 135.543 91.4341 135.136 91.4341C134.729 92.3865 133.914 94.4272 133.778 96.4679C133.778 96.4679 133.642 98.9167 134.185 100.277C135 101.229 135.272 101.774 135.272 102.318C135.272 102.998 134.729 103.406 134.05 103.27C131.878 102.726 130.791 100.549 130.791 100.549C130.113 99.3248 128.891 97.8283 128.348 97.1481C128.076 96.876 127.94 96.4679 127.94 95.9237C127.94 94.4272 129.841 94.019 129.841 94.019C129.977 94.019 129.977 93.883 130.113 93.883C130.52 93.6109 130.927 93.3388 131.199 92.9307C131.606 92.3865 132.013 91.5702 132.285 90.4818C132.149 90.3458 131.878 90.2097 131.742 89.9376C131.742 89.9376 133.371 76.8772 135.95 70.483C127.94 74.1562 119.252 74.5644 119.252 74.5644C115.179 74.8365 113.414 72.7958 112.599 70.3469H146.676Z" fill="#2F3C6A"/>
<path d="M117.589 61.1613L125.735 61.1613L125.735 54.2229L117.589 54.2229L117.589 61.1613Z" fill="#FFA935"/>
<path d="M131.199 47.2191L129.434 43.2737C127.669 39.8725 124.139 39.0563 124.139 39.0563L121.695 38.24L116.672 37.2877L113.007 38.1039C113.007 38.1039 110.699 38.24 108.662 42.4574C108.662 42.5935 108.526 42.7295 108.526 42.8656L104.454 54.9737C104.454 54.9737 102.825 58.647 107.169 59.5993L112.871 59.8714L119.795 60.0074C119.795 60.0074 120.609 58.783 119.795 56.7423L125.361 56.6063L131.063 50.6202V47.2191H131.199Z" fill="#FFA935"/>
<path d="M117.351 33.0702L121.967 37.0155C121.967 37.0155 121.424 37.8318 121.967 38.9202C121.967 38.9202 118.709 40.0086 116.265 37.8318C116.265 37.6958 117.487 35.1109 117.351 33.0702Z" fill="#FCBDB6"/>
<path d="M136.901 68.3062C136.901 68.3062 138.394 71.8434 141.109 75.9248L135.95 89.6655C135.95 89.6655 133.507 90.0737 131.742 88.3051C131.742 88.3051 133.371 75.2446 135.95 68.8504C136.222 68.7144 136.629 68.5783 136.901 68.3062Z" fill="#B73030"/>
<path d="M156.993 92.3865C155.636 92.9307 154.142 92.5226 154.142 92.5226C153.464 91.1621 154.007 90.2098 154.007 90.2098C155.364 90.0737 156.45 90.4819 156.45 90.4819C160.523 91.4342 161.338 89.5295 161.338 89.5295C162.152 89.1214 162.967 88.9854 163.374 88.9854C163.917 89.1214 164.189 89.5295 164.053 90.0737C163.51 92.2505 159.166 91.9784 159.166 91.9784C159.166 91.9784 157.944 91.8423 156.993 92.3865Z" fill="#303A60"/>
<path d="M155.907 86.1284C156.858 87.2167 159.03 89.5295 161.474 89.5295C161.474 89.5295 160.659 91.4342 156.586 90.4818C156.586 90.4818 155.5 90.2098 154.142 90.2098C154.142 90.2098 154.142 89.1214 153.599 87.897C154.278 87.7609 155.229 87.3528 155.907 86.1284Z" fill="#FCBDB6"/>
<path d="M112.599 60.5516C112.599 60.5516 109.477 73.612 119.252 72.9318C119.252 72.9318 128.619 72.5237 136.901 68.3062C136.901 68.3062 141.652 80.2783 153.328 88.3051C153.328 88.3051 155.636 88.3051 156.45 85.8562L143.553 63.4085C143.553 63.4085 141.788 59.8713 136.765 59.8713H113.007L112.599 60.5516Z" fill="#E25454"/>
<path d="M130.113 92.2504C130.52 91.9783 130.927 91.7062 131.199 91.2981C131.606 90.7539 132.013 89.9376 132.285 88.8492C133.371 89.6655 134.457 89.8016 135.272 89.8016C134.864 90.7539 134.05 92.7946 133.914 94.8353C133.914 94.8353 133.778 97.2841 134.321 98.6446C134.321 98.6446 133.235 99.3248 131.334 96.7399L129.434 93.7469C129.434 93.7469 128.891 92.7946 130.113 92.2504Z" fill="#FCBDB6"/>
<path d="M129.841 92.3865C129.026 92.9307 129.57 93.7469 129.57 93.7469L131.47 96.74C133.235 99.3248 134.457 98.6446 134.457 98.6446C135.272 99.5969 135.543 100.141 135.543 100.685C135.543 101.366 135 101.774 134.321 101.638C132.149 101.093 131.063 98.9167 131.063 98.9167C130.384 97.6923 129.162 96.1958 128.619 95.5155C128.348 95.2435 128.212 94.8353 128.212 94.2911C127.94 92.7946 129.841 92.3865 129.841 92.3865Z" fill="#303A60"/>
<path d="M118.699 60.2725L139.878 60.2725L139.878 59.3201L118.699 59.3201L118.699 60.2725Z" fill="#06112D"/>
<path d="M142.467 47.219H125.089L122.374 59.4632H139.752L142.467 47.219Z" fill="#0F1D4C"/>
<path d="M120.066 59.3271L121.56 58.7829C121.695 58.7829 121.831 58.6469 121.967 58.6469H122.51L122.917 56.7422H121.967C121.831 56.7422 121.695 56.7422 121.695 56.7422L120.066 57.1504C120.066 57.2864 120.338 58.3748 120.066 59.3271Z" fill="#FFB37F"/>
<path d="M113.007 45.5864L108.798 55.1097C113.142 55.3818 119.795 56.6062 119.795 56.6062C119.795 56.6062 120.202 57.4225 120.066 59.3271C120.066 59.3271 121.152 57.6946 120.066 56.3341C120.066 56.3341 118.573 55.3818 110.291 54.5655L113.007 45.5864Z" fill="#FF8415"/>
<path d="M112.192 39.7365C112.192 39.7365 114.228 40.4167 111.242 49.5318L111.649 49.9399C111.649 49.9399 115.179 40.4167 112.192 39.7365Z" fill="#FF8415"/>
<path d="M125.768 41.9132C125.768 41.9132 126.99 43.5458 127.533 47.219H126.311C126.447 47.219 126.854 45.4504 125.768 41.9132Z" fill="#FF8415"/>
<path d="M125.768 30.8935C125.904 32.1179 125.632 33.3423 125.225 34.4307C124.954 34.9749 124.682 35.383 124.139 35.7911C124.139 35.7911 123.053 36.6074 121.831 36.6074C121.831 36.6074 121.424 37.9679 121.695 38.6481L125.361 39.7365C125.361 39.7365 126.583 40.2807 127.262 40.8249C127.262 40.8249 125.768 37.6958 127.262 34.5667C127.262 34.5667 130.52 26.8121 124.954 23.819C124.954 23.819 116.401 19.1935 113.821 31.8458V31.9818C112.871 35.6551 110.291 38.6481 109.341 41.233C110.563 39.6004 111.649 38.7842 112.056 38.376C112.192 38.24 112.464 38.1039 112.599 38.1039L116.536 37.4237C117.623 35.519 117.215 32.39 117.215 32.39C115.993 31.9818 116.129 30.4853 116.129 30.4853C116.265 29.1249 117.351 29.533 117.351 29.533C121.288 29.9411 125.225 28.4446 125.225 28.4446C125.225 28.4446 125.632 29.2609 125.768 30.8935Z" fill="#2F3C6A"/>
<path d="M126.99 28.7168C126.99 28.7168 127.669 35.111 122.238 37.2877C121.831 37.4238 121.424 37.4238 121.017 37.2877C119.93 36.8796 117.623 35.9273 117.215 33.4784L116.944 32.254C116.944 32.254 116.265 31.8459 116.129 30.7575C116.129 30.4854 116.129 30.3493 116.265 30.0773C116.401 29.6691 116.808 28.9889 117.623 29.397L117.487 27.4924L126.99 28.7168Z" fill="#FCBDB6"/>
<path d="M117.351 26.676L120.202 26.2679L125.089 26.54L127.533 28.4446L126.99 34.0225L123.732 37.5597L121.967 37.2877C123.46 36.6074 124.139 35.7911 124.139 35.7911C124.682 35.383 124.954 34.8388 125.225 34.4307C125.768 33.3423 125.904 32.1179 125.768 30.8935C125.632 29.2609 125.225 28.4446 125.225 28.4446C125.225 28.4446 121.288 29.9411 117.351 29.533C117.351 29.533 116.265 28.9888 116.129 30.4853L115.586 29.669L117.351 26.676Z" fill="#2F3C6A"/>
<path d="M72.5497 242.582C103.591 242.582 128.755 241.303 128.755 239.725C128.755 238.147 103.591 236.868 72.5497 236.868C41.5084 236.868 16.3444 238.147 16.3444 239.725C16.3444 241.303 41.5084 242.582 72.5497 242.582Z" fill="#D1D3D4"/>
<path d="M61.6888 215.781H28.6987V239.725H61.6888V215.781Z" fill="#FF970D"/>
<path d="M83.6822 188.707H44.5828V239.589H83.6822V188.707Z" fill="#CE7300"/>
<path d="M91.9636 188.707H58.5663V239.589H91.9636V188.707Z" fill="#E48800"/>
<path d="M116.672 205.033H80.8312V239.589H116.672V205.033Z" fill="#FCB554"/>
<path d="M68.2834 239.676H80.7735V205.121H68.2834V239.676Z" fill="#FF970D"/>
<path d="M111.785 236.052H108.119C106.897 236.052 105.947 235.099 105.947 233.875V232.106C105.947 230.882 106.897 229.93 108.119 229.93H111.785C113.007 229.93 113.957 230.882 113.957 232.106V233.875C113.957 235.099 113.007 236.052 111.785 236.052Z" fill="white"/>
<path d="M95.2219 205.033H85.7186V218.91H95.2219V205.033Z" fill="white"/>
<path d="M87.755 188.707H79.0663V200.271H87.755V188.707Z" fill="white"/>
<path d="M61.8246 215.781H36.0298V239.725H61.8246V215.781Z" fill="#FCB554"/>
<path d="M45.2616 215.917H39.1523V225.032H45.2616V215.917Z" fill="white"/>
<path d="M249.99 199.455H216.593V238.637H249.99V199.455Z" fill="#FCB554"/>
<path d="M202.668 238.638H216.515V199.457H202.668V238.638Z" fill="#FF970D"/>
<path d="M246.189 199.319H237.364V217.005H246.189V199.319Z" fill="white"/>
<path d="M226.503 235.643H222.974C221.344 235.643 219.987 234.283 219.987 232.65V230.338C219.987 228.705 221.344 227.345 222.974 227.345H226.503C228.132 227.345 229.49 228.705 229.49 230.338V232.65C229.49 234.283 228.132 235.643 226.503 235.643Z" fill="white"/>
<path d="M276.599 234.827L275.649 212.924L267.775 213.604L272.662 234.691C272.527 234.691 274.02 236.052 276.599 234.827Z" fill="#FCBDB6"/>
<path d="M261.53 214.42L262.616 234.555C262.616 234.555 259.629 235.643 258.543 234.419C257.593 233.195 253.927 214.42 253.927 214.42H261.53Z" fill="#FCBDB6"/>
<path d="M248.632 153.743C244.967 155.376 240.894 163.267 240.894 163.267C240.894 163.267 245.374 165.307 245.646 165.443C245.917 165.579 254.742 157.009 254.742 157.009C254.742 157.009 250.126 153.063 248.632 153.743Z" fill="#FCBDB6"/>
<path d="M264.109 204.353H264.245C264.245 204.217 263.159 197.006 262.344 194.421C261.53 191.836 257.729 189.524 257.729 189.524L257.593 189.66C257.593 189.66 261.394 191.973 262.073 194.557C263.023 197.006 264.109 204.217 264.109 204.353Z" fill="#333333"/>
<path d="M291.805 168.573C288.139 160.682 281.623 153.88 281.487 153.744C281.487 153.744 280.672 154.288 278.093 155.104C273.613 156.737 272.662 157.825 272.662 157.825C272.662 157.825 283.387 170.341 284.474 171.974C285.152 173.062 292.891 170.885 291.805 168.573Z" fill="#B21D39"/>
<path d="M283.116 170.477C284.881 168.845 287.596 168.845 287.596 168.845C287.596 168.845 287.732 168.845 287.732 168.709C287.732 168.709 287.732 168.573 287.596 168.573C287.596 168.709 284.881 168.709 283.116 170.477C282.98 170.341 283.116 170.477 283.116 170.477Z" fill="#F9A6A0"/>
<path d="M277.957 173.606C277.957 173.606 282.301 171.702 285.56 167.892C287.46 165.716 291.805 168.437 291.805 168.437C291.805 168.437 293.977 172.11 291.397 175.239C288.954 178.096 281.487 179.32 281.487 179.32L277.957 173.606Z" fill="#FCBDB6"/>
<path d="M240.079 162.995C240.079 162.995 243.881 156.192 247.954 153.471L251.619 157.009L250.126 162.45L240.079 162.995Z" fill="#B21D39"/>
<path d="M258.679 234.283C258.679 234.283 258.543 236.324 257.05 236.732C255.556 237.276 251.212 237.684 252.841 238.909C253.791 239.725 258 239.317 259.222 239.317C260.444 239.317 261.53 239.861 262.48 239.181C263.566 238.364 262.616 234.283 262.616 234.283C262.616 234.283 261.53 234.691 260.579 234.691C259.358 234.827 258.679 234.283 258.679 234.283Z" fill="#333333"/>
<path d="M248.497 174.967C248.497 174.967 247.139 183.402 249.719 200.543C251.619 212.924 250.397 208.842 251.483 214.828C251.891 217.005 264.109 216.733 263.974 214.42L263.566 190.884L263.159 177.552L248.497 174.967Z" fill="#332428"/>
<path d="M272.527 234.691C272.527 234.691 272.391 236.732 270.897 237.14C269.404 237.684 265.06 238.092 266.689 239.317C267.639 240.133 271.848 239.725 273.07 239.725C274.291 239.725 275.378 240.269 276.328 239.589C277.414 238.773 276.464 234.691 276.464 234.691C276.464 234.691 275.378 235.099 274.427 235.099C273.205 235.099 272.527 234.691 272.527 234.691Z" fill="#333333"/>
<path d="M261.666 174.831C261.666 174.831 261.123 183.674 263.702 200.952C265.603 213.332 264.652 208.026 265.738 214.012C266.146 216.189 278.093 215.781 277.957 213.468L277.414 191.292L277.007 177.96L261.666 174.831Z" fill="#332428"/>
<path d="M277.414 184.898C277.414 185.987 271.169 186.259 262.344 185.85C253.52 185.442 247.546 184.082 247.546 182.993C247.546 181.905 253.656 181.497 262.48 181.905C271.44 182.449 277.55 183.81 277.414 184.898Z" fill="#333333"/>
<path d="M274.291 154.832C274.291 154.832 275.785 148.846 264.245 148.438C247.546 147.893 249.854 161.906 247.682 182.993C247.682 182.993 262.073 181.225 277.55 184.626C277.414 184.626 277.685 163.539 274.291 154.832Z" fill="#B21D39"/>
<path d="M281.487 153.743L273.748 157.417C273.748 157.417 257.185 158.369 252.841 157.553C248.497 156.736 247.411 153.879 247.411 153.879C247.411 153.879 252.162 149.662 260.172 148.574C260.987 148.438 261.666 148.438 262.48 148.438C263.838 148.438 265.195 148.438 266.553 148.574C276.599 149.798 281.487 153.743 281.487 153.743Z" fill="#B21D39"/>
<path d="M266.281 147.349L266.01 143.268L264.924 142.996L263.159 137.282L262.073 143.404L261.801 146.397L261.666 147.893C261.666 148.574 258.272 148.438 257.593 149.118C257.321 149.39 258.407 153.471 262.887 153.471C266.01 153.471 269.54 151.023 271.44 149.39C268.454 148.438 266.553 148.438 266.281 147.349Z" fill="#FCBDB6"/>
<path d="M247.818 183.266C247.818 183.266 257.593 181.633 277.414 185.578L277.55 188.163L248.497 188.435L247.818 183.266Z" fill="#8BC0CC"/>
<path d="M268.353 142.302C270.288 139.441 269.793 135.72 267.248 133.992C264.703 132.265 261.071 133.183 259.137 136.045C257.202 138.906 257.697 142.627 260.242 144.355C262.787 146.083 266.419 145.164 268.353 142.302Z" fill="#FCBDB6"/>
<path d="M271.44 137.69C271.44 137.69 272.798 142.996 267.775 142.86C267.775 142.86 270.49 140.547 266.417 137.962C266.417 138.098 268.589 129.935 271.44 137.69Z" fill="#352C23"/>
<path d="M268.861 141.227C268.182 141.499 267.503 141.227 267.368 140.683C267.096 140.139 267.503 139.595 268.182 139.323C268.861 139.05 269.54 139.323 269.676 139.867C269.947 140.411 269.54 140.955 268.861 141.227Z" fill="#FCBDB6"/>
<path d="M262.48 142.316C262.48 142.316 260.308 142.452 259.086 141.771C259.086 141.771 260.036 144.764 262.48 142.316Z" fill="white"/>
<path d="M271.033 136.466C271.033 136.466 270.083 132.52 267.232 130.752C264.788 129.391 260.308 130.207 259.493 130.343C258.815 130.616 254.606 132.112 255.964 133.609C258.136 135.785 266.417 137.962 266.417 137.962L271.033 136.466Z" fill="#352C23"/>
<path d="M248.225 162.178H247.954C248.768 158.233 251.755 155.376 251.755 155.376L252.027 155.648C252.027 155.648 249.04 158.369 248.225 162.178Z" fill="#560A1A"/>
<path d="M225.281 196.87L276.735 190.068C277.278 190.068 277.55 189.524 277.55 188.98L273.341 159.185C273.205 158.641 272.798 158.369 272.255 158.369L220.801 165.171C220.258 165.171 219.987 165.716 219.987 166.26L224.195 196.054C224.195 196.598 224.738 196.87 225.281 196.87Z" fill="#62CCE0"/>
<path d="M221.48 176.463L274.834 169.389L273.884 163.131L220.53 170.205L221.48 176.463Z" fill="#1F7B87"/>
<path d="M245.103 180.545L270.897 177.143C271.033 177.143 271.169 177.007 271.169 176.735L270.897 175.239C270.897 175.103 270.626 174.967 270.49 174.967L244.695 178.368C244.56 178.368 244.424 178.504 244.424 178.776L244.695 180.273C244.695 180.545 244.967 180.681 245.103 180.545Z" fill="#A2E9F2"/>
<path d="M245.646 185.034L271.44 181.633C271.576 181.633 271.712 181.497 271.712 181.225L271.44 179.728C271.44 179.592 271.169 179.456 271.033 179.456L245.238 182.857C245.103 182.857 244.967 182.994 244.967 183.266L245.238 184.762C245.238 185.034 245.51 185.17 245.646 185.034Z" fill="#A2E9F2"/>
<path d="M228.54 193.333L272.391 187.483C272.662 187.483 272.798 187.211 272.798 186.939L272.526 185.034C272.526 184.762 272.255 184.626 271.983 184.626L228.132 190.476C227.861 190.476 227.725 190.748 227.725 191.02L227.997 192.925C228.132 193.197 228.404 193.333 228.54 193.333Z" fill="#A2E9F2"/>
<path d="M227.997 187.211L232.884 186.531C233.156 186.531 233.291 186.259 233.291 186.123L232.613 181.361C232.613 181.089 232.341 180.953 232.205 181.089L227.318 181.769C227.046 181.769 226.911 182.041 226.911 182.177L227.589 186.939C227.589 187.075 227.861 187.211 227.997 187.211Z" fill="#A2E9F2"/>
<path d="M281.487 179.592C281.487 179.592 279.722 172.79 279.315 172.926C277.821 173.606 276.328 173.606 275.242 173.334C274.699 173.198 273.07 172.926 272.934 173.334C272.798 173.742 274.02 174.423 274.563 174.831C271.576 175.919 267.503 178.232 274.156 176.871C273.477 177.143 269.404 178.368 269.811 179.32C270.083 180 273.884 178.776 274.97 178.504C273.884 178.912 270.762 180 271.033 180.681C271.305 181.361 275.785 180 275.785 180C275.785 180 272.255 181.497 273.07 181.905C273.884 182.313 277.278 181.089 278.229 180.681C279.315 180.273 281.487 179.592 281.487 179.592Z" fill="#FCBDB6"/>
<path d="M233.834 162.723C233.834 162.723 231.934 162.995 232.205 164.219C232.477 165.852 234.106 166.804 234.242 166.124C234.242 165.988 233.97 164.491 233.97 164.491C233.97 164.491 235.599 167.62 236.414 167.212C237.229 166.668 235.735 163.947 235.735 163.947C235.735 163.947 237.772 166.94 238.315 166.26C238.858 165.58 237.5 163.131 237.5 163.131C237.5 163.131 239.265 166.124 239.808 165.307C240.351 164.491 239.129 163.131 238.722 162.45C238.315 161.77 237.636 161.77 236.821 162.042C236.821 162.042 235.735 162.042 235.328 162.314C235.192 162.45 234.921 162.314 234.649 162.45C234.242 162.586 233.834 162.723 233.834 162.723Z" fill="#FCBDB6"/>
<path d="M276.192 165.171C276.192 165.171 275.921 159.73 273.613 157.145L273.884 156.873C276.192 159.593 276.464 164.899 276.464 165.171H276.192Z" fill="#5B0D1E"/>
</svg>
