<svg width="325" height="280" viewBox="0 0 325 280" fill="none" xmlns="http://www.w3.org/2000/svg">
<path d="M162.5 254C238.715 254 300.5 245.718 300.5 235.501C300.5 225.284 238.715 217.002 162.5 217.002C86.2847 217.002 24.5 225.284 24.5 235.501C24.5 245.718 86.2847 254 162.5 254Z" fill="#D7ECF9"/>
<path d="M111.767 236.148C144.919 236.148 171.795 231.572 171.795 225.928C171.795 220.284 144.919 215.708 111.767 215.708C78.6141 215.708 51.7386 220.284 51.7386 225.928C51.7386 231.572 78.6141 236.148 111.767 236.148Z" fill="#D7ECF9"/>
<path d="M251.187 235.759C273.716 235.759 291.98 232.69 291.98 228.903C291.98 225.117 273.716 222.047 251.187 222.047C228.657 222.047 210.393 225.117 210.393 228.903C210.393 232.69 228.657 235.759 251.187 235.759Z" fill="#D7ECF9"/>
<path d="M58.1932 234.595C72.5237 234.595 84.1408 232.858 84.1408 230.714C84.1408 228.571 72.5237 226.833 58.1932 226.833C43.8627 226.833 32.2456 228.571 32.2456 230.714C32.2456 232.858 43.8627 234.595 58.1932 234.595Z" fill="#D7ECF9"/>
<path d="M52.5131 194.234C50.3185 192.164 50.1894 188.671 51.0931 185.955C51.9967 183.109 53.9331 180.78 55.4822 178.193C57.1604 175.735 58.5804 172.889 58.5804 169.913C58.4513 164.48 53.4167 160.34 51.2222 155.295C50.7058 154.002 50.3185 152.708 50.0603 151.285C48.253 139.772 54.3204 126.447 65.8096 121.919C67.2296 121.272 69.2951 122.049 69.4242 123.472C69.6824 126.576 66.7133 129.293 66.8424 132.657C66.8424 132.915 67.1005 133.562 67.2296 133.691C73.297 136.537 74.717 142.229 68.7788 146.24C68.2624 146.757 68.1333 147.404 67.8751 147.921C67.4878 148.956 67.4878 149.991 67.746 151.026C68.0042 152.061 68.3915 153.096 69.0369 154.131C70.0697 156.071 71.6188 157.753 72.3933 159.823C74.717 165.386 72.0061 171.595 68.6497 176.511C65.2933 181.427 61.1623 186.343 60.2586 192.164C60.0005 194.104 60.0005 196.045 59.2259 197.727C58.4513 199.408 56.3859 200.961 54.5786 200.185C54.4495 199.667 54.3204 199.15 54.1913 198.632" fill="#63B78B"/>
<path d="M56.7731 176.64L56.644 176.511C64.6478 169.525 61.6787 159.823 58.8386 150.379C58.5804 149.603 58.3222 148.697 58.0641 147.921C56.515 142.617 58.0641 137.831 59.6132 134.726C61.2914 131.363 63.486 129.293 63.486 129.293L63.615 129.422C63.4859 129.551 55.224 137.701 58.1932 147.792C58.4513 148.568 58.7095 149.344 58.9677 150.25C61.8077 159.823 64.7769 169.654 56.7731 176.64Z" fill="#1F264C"/>
<path d="M33.9237 161.893C30.6964 158.659 28.5018 154.39 29.0182 149.991C29.6637 145.593 33.6656 141.583 38.3129 141.971C35.6019 138.219 32.7619 134.338 32.2455 129.94C31.7292 125.412 34.6983 120.237 39.3456 119.849C41.282 119.591 43.3475 120.367 44.7675 121.79C46.1875 123.213 47.0912 125.024 47.0912 126.964C46.0584 125.8 47.2203 124.118 48.6403 123.73C49.4148 123.472 50.3185 123.601 50.964 124.118C52.384 125.153 53.2876 126.706 53.0294 128.258C52.2549 132.139 49.5439 135.761 51.7385 139.513C55.224 145.334 58.3222 151.155 60.0004 157.624C60.3877 158.659 60.6459 159.693 60.9041 160.728C61.1623 161.763 61.4205 162.798 61.6786 163.963C62.195 166.809 62.5823 169.913 61.5495 172.63C60.2586 175.864 57.1604 178.322 56.2568 181.685C54.9658 187.119 59.7423 192.94 57.2895 197.985C55.4822 201.607 50.3185 202.513 46.833 200.831C41.7984 198.503 41.4111 192.293 42.4438 187.636C43.3475 183.238 45.8003 179.357 44.8966 174.7C44.5093 173.018 43.8639 171.724 42.9602 170.431C40.6366 166.938 36.8929 164.739 33.9237 161.893Z" fill="#4FA87B"/>
<path d="M51.2221 192.552C51.2221 192.423 47.6076 185.696 52.2549 172.759C55.6113 163.445 50.1894 154.648 46.1875 148.051C44.5093 145.464 43.2184 143.135 42.702 141.324C41.1529 135.244 44.5093 127.87 44.5093 127.741L44.6384 127.87C44.6384 127.999 41.282 135.373 42.8311 141.324C43.3475 143.006 44.6384 145.334 46.3166 147.922C50.3185 154.39 55.8695 163.316 52.384 172.759C47.7366 185.696 51.2221 192.423 51.3512 192.423L51.2221 192.552Z" fill="#1F264C"/>
<path d="M52.513 172.759H52.3839C52.9003 165.256 47.9948 159.952 43.8638 156.847C39.3456 153.484 34.5692 151.802 34.5692 151.802V151.673C34.5692 151.673 39.3456 153.355 43.9929 156.718C48.1239 159.823 53.0294 165.256 52.513 172.759Z" fill="#1F264C"/>
<path d="M44.8966 145.851C43.0893 140.806 44.3802 136.796 45.6712 134.338C47.2203 131.621 49.1567 130.069 49.1567 130.069L49.2857 130.198C49.2857 130.198 47.3494 131.751 45.8002 134.338C44.3802 136.796 43.2184 140.806 45.0257 145.722L44.8966 145.851Z" fill="#1F264C"/>
<path d="M51.7386 175.088H51.6095C51.7386 168.102 48.6403 164.609 46.0585 162.798C43.2185 160.987 40.2493 160.728 40.2493 160.728V160.599C40.2493 160.599 43.2185 160.858 46.0585 162.669C48.7694 164.48 51.8677 167.973 51.7386 175.088Z" fill="#1F264C"/>
<path d="M59.355 151.544H59.2259C59.4841 145.205 61.6786 142.1 63.615 140.677C65.5514 139.125 67.4878 138.995 67.6169 138.995V139.125C67.6169 139.125 65.6805 139.254 63.7441 140.806C61.8077 142.229 59.6132 145.334 59.355 151.544Z" fill="#1F264C"/>
<path d="M32.891 151.285C32.5037 151.285 32.1165 151.026 32.1165 150.638C32.1165 150.25 32.3746 149.862 32.891 149.862C33.2783 149.862 33.6656 150.121 33.6656 150.509C33.6656 150.897 33.4074 151.285 32.891 151.285ZM32.891 149.991C32.6328 149.991 32.3746 150.25 32.3746 150.509C32.3746 150.767 32.6328 151.026 33.0201 151.026C33.2783 151.026 33.5365 150.767 33.5365 150.509C33.5365 150.25 33.1492 149.991 32.891 149.991Z" fill="#1F264C"/>
<path d="M68.9079 139.125C68.5206 139.125 68.2624 138.866 68.2624 138.607C68.2624 138.219 68.5206 137.96 68.9079 137.96C69.2951 137.96 69.5533 138.219 69.5533 138.478C69.5533 138.866 69.2951 139.125 68.9079 139.125ZM68.9079 138.219C68.6497 138.219 68.5206 138.478 68.5206 138.607C68.5206 138.866 68.7788 138.995 68.9079 138.995C69.166 138.995 69.2951 138.737 69.2951 138.607C69.2951 138.349 69.0369 138.09 68.9079 138.219Z" fill="#1F264C"/>
<path d="M38.442 161.505C38.0548 161.505 37.6675 161.246 37.6675 160.858C37.6675 160.47 37.9257 160.211 38.3129 160.082C38.7002 160.082 39.0875 160.341 39.0875 160.729C39.0875 161.117 38.8293 161.505 38.442 161.505ZM38.3129 160.341C38.0548 160.341 37.7966 160.599 37.7966 160.858C37.7966 161.117 38.0548 161.375 38.3129 161.375C38.5711 161.375 38.8293 161.117 38.8293 160.858C38.9584 160.47 38.7002 160.211 38.3129 160.341Z" fill="#1F264C"/>
<path d="M45.0257 127.223C44.6384 127.223 44.3802 126.964 44.3802 126.706C44.3802 126.447 44.6384 126.059 44.8966 126.059C45.2839 126.059 45.5421 126.318 45.5421 126.576C45.5421 126.964 45.2839 127.223 45.0257 127.223ZM44.8966 126.318C44.6384 126.318 44.5093 126.576 44.5093 126.706C44.5093 126.964 44.7675 127.094 44.8966 127.094C45.1548 127.094 45.2839 126.835 45.2839 126.706C45.413 126.447 45.1548 126.318 44.8966 126.318Z" fill="#1F264C"/>
<path d="M50.3186 129.94C49.9313 129.94 49.6731 129.681 49.6731 129.422C49.6731 129.163 49.9313 128.775 50.1895 128.775C50.5767 128.775 50.8349 129.034 50.8349 129.293C50.964 129.681 50.7058 129.94 50.3186 129.94ZM50.3186 129.034C50.0604 129.034 49.9313 129.293 49.9313 129.422C49.9313 129.681 50.1895 129.81 50.3186 129.81C50.4477 129.81 50.7058 129.552 50.7058 129.422C50.7058 129.163 50.5767 129.034 50.3186 129.034Z" fill="#1F264C"/>
<path d="M64.6478 128.776C64.1314 128.776 63.7441 128.388 63.7441 128C63.7441 127.611 64.1314 127.094 64.6478 127.094C65.1642 127.094 65.5514 127.482 65.5514 127.87C65.5514 128.388 65.1642 128.776 64.6478 128.776ZM64.5187 127.223C64.1314 127.223 63.8732 127.611 63.8732 127.87C63.8732 128.258 64.2605 128.517 64.6478 128.517C65.0351 128.517 65.2933 128.129 65.2933 127.87C65.2933 127.611 64.906 127.223 64.5187 127.223Z" fill="#1F264C"/>
<path d="M59.0968 204.195C57.6768 201.607 58.5804 198.244 60.2586 195.786C62.0659 193.328 64.5187 191.517 66.8424 189.577C69.166 187.636 71.3606 185.437 72.2642 182.591C73.8134 177.287 70.1988 171.983 69.6824 166.55C69.5533 165.127 69.5533 163.833 69.8115 162.41C71.6188 150.897 81.3007 139.901 93.6936 138.737C95.2427 138.478 96.9209 139.901 96.6627 141.194C96.0173 144.299 92.2736 145.981 91.499 149.215C91.3699 149.474 91.3699 150.121 91.499 150.379C96.4046 154.907 96.1464 160.599 89.1754 162.928C88.5299 163.316 88.2717 163.833 87.7554 164.351C87.1099 165.256 86.7226 166.291 86.7226 167.326C86.5935 168.361 86.7226 169.525 86.9808 170.56C87.4972 172.63 88.2717 174.7 88.5299 176.899C89.0463 182.85 84.528 188.024 79.8807 191.776C75.1043 195.657 69.6824 199.02 67.1005 204.453C66.1969 206.135 65.6805 208.076 64.3896 209.499C63.0987 210.922 60.6459 211.698 59.0968 210.534C59.0968 210.016 59.0968 209.499 59.0968 208.981" fill="#4FA87B"/>
<path d="M68.5206 188.542L68.3915 188.412C78.0734 184.014 78.2025 173.794 78.3316 164.092C78.3316 163.186 78.3316 162.41 78.3316 161.505C78.4607 155.942 81.4298 151.802 83.8826 149.344C86.4644 146.628 89.1754 145.205 89.1754 145.205L89.3045 145.334C89.1754 145.334 78.848 150.897 78.5898 161.505C78.5898 162.281 78.5898 163.186 78.5898 164.092C78.4607 173.924 78.3316 184.014 68.5206 188.542Z" fill="#1F264C"/>
<path d="M51.0931 168.103C49.0276 164.222 48.1239 159.306 50.0603 155.295C51.9967 151.285 57.0313 148.569 61.4205 150.121C59.8713 145.852 58.4513 141.324 59.355 136.926C60.2586 132.527 64.6478 128.388 69.166 129.164C71.1024 129.552 72.7806 130.846 73.8133 132.527C74.8461 134.209 75.1043 136.279 74.4588 138.09C73.8133 136.667 75.4915 135.373 76.9116 135.373C77.8152 135.373 78.4607 135.762 78.9771 136.408C80.0098 137.831 80.3971 139.513 79.6225 140.936C77.6861 144.429 74.0715 147.146 74.9752 151.415C76.5243 158.012 77.6861 164.351 77.4279 170.949C77.4279 171.983 77.4279 173.148 77.2988 174.183C77.2988 175.218 77.1698 176.382 77.0407 177.417C76.7825 180.263 76.137 183.367 74.3297 185.696C72.1351 188.413 68.3915 189.965 66.5842 192.94C63.615 197.727 66.4551 204.713 62.5823 208.723C59.7423 211.698 54.5786 211.051 51.6094 208.464C47.4785 204.842 49.0276 198.891 51.3512 194.622C53.5458 190.741 57.0313 187.637 57.5477 182.979C57.6768 181.298 57.5477 179.745 57.0313 178.322C55.9986 174.829 53.0294 171.595 51.0931 168.103Z" fill="#63B78B"/>
<path d="M58.4513 202.255C58.4513 202.125 57.0313 194.751 65.4223 183.626C71.4897 175.735 68.9078 165.645 67.1005 158.4C66.326 155.425 65.6805 152.837 65.8096 151.026C66.0678 144.817 71.6188 138.607 71.6188 138.607L71.7479 138.737C71.7479 138.737 66.326 144.946 65.9387 151.156C65.8096 152.967 66.4551 155.554 67.2296 158.529C69.166 165.903 71.6188 175.994 65.5514 184.014C57.1604 195.14 58.5804 202.513 58.5804 202.513L58.4513 202.255Z" fill="#1F264C"/>
<path d="M65.5515 183.626H65.4224C68.2624 176.64 65.1642 170.172 62.066 166.032C58.7096 161.505 54.7077 158.659 54.7077 158.529L54.8368 158.4C54.8368 158.4 58.9678 161.375 62.3242 165.903C65.2933 170.172 68.3915 176.64 65.5515 183.626Z" fill="#1F264C"/>
<path d="M66.4551 155.684C66.1969 150.38 68.6496 146.887 70.7151 144.947C73.0388 142.747 75.3625 141.842 75.3625 141.842L75.4916 141.971C75.4916 141.971 73.1679 142.877 70.9733 145.076C68.9078 147.016 66.4551 150.509 66.7133 155.684H66.4551Z" fill="#1F264C"/>
<path d="M64.1315 185.696H64.0024C66.326 178.969 64.3896 174.829 62.4532 172.501C60.2587 169.913 57.5477 168.878 57.5477 168.878L57.6768 168.749C57.6768 168.749 60.5169 169.784 62.7114 172.371C64.5187 174.7 66.4551 178.969 64.1315 185.696Z" fill="#1F264C"/>
<path d="M78.5898 165.256H78.4607C80.6553 159.306 83.7535 156.977 85.9481 156.072C88.2717 155.166 90.2081 155.554 90.2081 155.554V155.683C90.2081 155.683 88.4008 155.166 85.9481 156.201C83.7535 157.106 80.6553 159.306 78.5898 165.256Z" fill="#1F264C"/>
<path d="M53.2877 157.753C52.9004 157.624 52.6422 157.236 52.7713 156.848C52.9004 156.46 53.2877 156.201 53.675 156.33C54.0622 156.46 54.3204 156.848 54.1913 157.236C54.1913 157.495 53.8041 157.753 53.2877 157.753ZM53.675 156.46C53.4168 156.33 53.0295 156.589 53.0295 156.848C52.9004 157.106 53.1586 157.495 53.4168 157.495C53.675 157.624 54.0622 157.365 54.0622 157.106C54.1913 156.848 53.9331 156.46 53.675 156.46Z" fill="#1F264C"/>
<path d="M91.37 156.071C90.9827 155.942 90.8536 155.683 90.9827 155.295C91.1118 155.037 91.37 154.778 91.7572 154.907C92.1445 155.037 92.2736 155.295 92.1445 155.683C92.1445 155.942 91.7572 156.071 91.37 156.071ZM91.6281 155.037C91.37 155.037 91.1118 155.166 91.1118 155.295C91.1118 155.554 91.2409 155.683 91.37 155.813C91.6281 155.813 91.8863 155.683 91.8863 155.554C92.0154 155.295 91.8863 155.166 91.6281 155.037Z" fill="#1F264C"/>
<path d="M55.4822 168.878C55.0949 168.749 54.8367 168.361 54.9658 168.102C55.0949 167.714 55.4822 167.455 55.8695 167.585C56.2568 167.714 56.5149 168.102 56.3859 168.361C56.2568 168.749 55.8695 169.008 55.4822 168.878ZM55.8695 167.843C55.6113 167.714 55.3531 167.973 55.224 168.231C55.0949 168.49 55.3531 168.749 55.6113 168.878C55.8695 169.008 56.1277 168.749 56.2568 168.49C56.2568 168.102 56.1277 167.843 55.8695 167.843Z" fill="#1F264C"/>
<path d="M72.1352 137.96C71.877 137.831 71.6188 137.572 71.7479 137.314C71.877 137.055 72.1352 136.796 72.5225 136.926C72.7806 137.055 73.0388 137.314 72.9097 137.572C72.7806 137.96 72.3934 138.09 72.1352 137.96ZM72.3934 137.055C72.1352 137.055 72.0061 137.184 71.877 137.314C71.877 137.572 72.0061 137.702 72.1352 137.831C72.3934 137.831 72.5225 137.702 72.6515 137.572C72.7806 137.314 72.6515 137.184 72.3934 137.055Z" fill="#1F264C"/>
<path d="M76.3952 142.1C76.137 141.971 75.8788 141.712 76.0079 141.453C76.137 141.195 76.3952 140.936 76.7825 141.065C77.0406 141.195 77.2988 141.453 77.1697 141.712C77.0406 141.971 76.7825 142.1 76.3952 142.1ZM76.6534 141.195C76.3952 141.195 76.2661 141.324 76.137 141.453C76.137 141.712 76.2661 141.841 76.3952 141.971C76.5243 142.1 76.7825 141.841 76.9116 141.712C77.0406 141.453 76.9116 141.195 76.6534 141.195Z" fill="#1F264C"/>
<path d="M90.4663 144.946C89.9499 144.817 89.6917 144.3 89.8208 143.911C89.9499 143.394 90.4663 143.135 90.8535 143.265C91.2408 143.394 91.6281 143.911 91.499 144.3C91.3699 144.817 90.9826 145.076 90.4663 144.946ZM90.8535 143.394C90.4663 143.265 90.079 143.523 89.9499 143.911C89.8208 144.3 90.079 144.688 90.4663 144.688C90.8535 144.817 91.2408 144.558 91.3699 144.17C91.499 143.911 91.2408 143.523 90.8535 143.394Z" fill="#1F264C"/>
<path d="M48.7694 183.884C48.5112 184.143 47.7367 184.661 47.4785 185.566C47.0912 186.342 47.0912 187.377 47.2203 187.377C47.2203 187.377 46.5748 186.601 46.4457 185.437C46.3166 184.273 46.7039 182.85 47.2203 182.461C48.1239 181.427 49.4149 181.556 49.544 182.073C49.673 182.591 49.1567 183.367 48.7694 183.884Z" fill="#1D3B4C"/>
<path d="M52.9003 189.447C52.6421 189.706 51.8676 190.224 51.6094 191.129C51.2221 191.905 51.2221 192.94 51.3512 192.94C51.3512 192.94 50.7057 192.164 50.5767 191C50.4476 189.836 50.8348 188.413 51.3512 188.024C52.2549 186.99 53.5458 187.119 53.6749 187.636C53.804 188.283 53.4167 188.93 52.9003 189.447Z" fill="#1D3B4C"/>
<path d="M56.9022 195.657C56.644 195.916 55.8695 196.433 55.6113 197.339C55.224 198.115 55.224 199.15 55.3531 199.15C55.3531 199.15 54.7076 198.374 54.5785 197.209C54.4495 196.045 54.8367 194.622 55.3531 194.234C56.2568 193.199 57.5477 193.328 57.6768 193.846C57.6768 194.493 57.2895 195.139 56.9022 195.657Z" fill="#1D3B4C"/>
<path d="M43.7348 187.895C43.9929 187.766 44.6384 187.248 45.5421 187.119C46.3166 186.989 47.2203 187.248 47.2203 187.248C47.2203 187.248 46.7039 186.472 45.6712 186.084C44.7675 185.696 43.3475 185.696 42.8311 186.084C41.7984 186.601 41.5402 187.766 41.9275 188.024C42.4438 188.412 43.0893 188.154 43.7348 187.895Z" fill="#1D3B4C"/>
<path d="M47.9948 193.716C48.253 193.587 48.8984 193.07 49.8021 192.94C50.5766 192.811 51.4803 193.07 51.4803 193.07C51.4803 193.07 50.9639 192.293 49.9312 191.905C49.0275 191.517 47.6075 191.517 47.0911 191.905C46.0584 192.423 45.8002 193.587 46.1875 193.846C46.8329 194.234 47.4784 193.975 47.9948 193.716Z" fill="#1D3B4C"/>
<path d="M43.2184 180.651C43.0893 180.78 42.8311 181.298 42.8311 181.815C42.702 182.333 42.9602 182.979 42.9602 182.85C42.9602 182.85 42.4438 182.462 42.1856 181.944C41.9274 181.298 41.9274 180.521 42.0565 180.133C42.3147 179.357 43.0893 179.228 43.3475 179.487C43.4766 179.745 43.3475 180.263 43.2184 180.651Z" fill="#1D3B4C"/>
<path d="M40.6366 182.591C40.7657 182.591 41.282 182.332 41.7984 182.332C42.3148 182.332 42.8312 182.591 42.8312 182.591C42.8312 182.591 42.573 182.074 42.0566 181.686C41.5402 181.297 40.6366 181.168 40.2493 181.297C39.4747 181.556 39.2166 182.203 39.4747 182.462C39.7329 182.72 40.2493 182.72 40.6366 182.591Z" fill="#1D3B4C"/>
<path d="M69.4242 166.809C69.166 180.522 66.0678 195.01 61.0331 207.947L61.6786 208.335C66.455 195.528 69.5533 180.78 69.8114 167.197C69.9405 163.963 70.0696 160.341 68.0041 157.753C68.0041 157.753 67.875 157.753 67.875 157.883C69.6823 160.47 69.4242 163.834 69.4242 166.809Z" fill="#1D3B4C"/>
<path d="M59.7422 207.17C59.0967 193.328 56.644 178.451 51.7385 164.351C51.7385 164.221 51.4803 164.351 51.4803 164.48C55.9985 177.934 58.5804 192.423 59.0967 206.653L59.7422 207.17Z" fill="#1D3B4C"/>
<path d="M72.7806 160.47C72.5224 160.599 71.4896 160.858 70.7151 161.505C69.9405 162.152 69.5532 163.187 69.5532 163.187C69.5532 163.187 69.2951 162.152 69.6823 160.987C70.0696 159.823 71.1023 158.659 71.7478 158.4C73.0387 157.883 74.2006 158.53 74.2006 159.176C74.2006 159.694 73.426 160.211 72.7806 160.47Z" fill="#1D3B4C"/>
<path d="M65.6805 168.102C66.0678 168.102 66.9715 167.844 67.8751 168.232C68.7788 168.49 69.6824 169.267 69.5533 169.267C69.5533 169.267 69.4242 168.102 68.5206 167.326C67.746 166.421 66.326 165.774 65.5514 165.903C64.1314 165.903 63.3569 166.938 63.6151 167.585C64.1314 167.973 64.906 168.102 65.6805 168.102Z" fill="#1D3B4C"/>
<path d="M65.4224 173.277C65.8096 173.277 66.7133 173.018 67.6169 173.406C68.5206 173.665 69.4242 174.441 69.2951 174.441C69.2951 174.441 69.166 173.277 68.2624 172.501C67.4878 171.595 66.0678 170.948 65.2933 171.078C63.8732 171.078 63.0987 172.113 63.3569 172.759C63.7441 173.148 64.6478 173.277 65.4224 173.277Z" fill="#1D3B4C"/>
<path d="M51.7385 176.77C52.1258 176.77 53.0294 176.511 53.9331 176.899C54.8367 177.158 55.7404 177.934 55.6113 177.934C55.6113 177.934 55.4822 176.77 54.5786 175.994C53.804 175.088 52.384 174.441 51.6094 174.571C50.1894 174.571 49.4148 175.606 49.673 176.252C50.1894 176.641 50.964 176.77 51.7385 176.77Z" fill="#1D3B4C"/>
<path d="M50.0603 170.56C50.4476 170.56 51.3512 170.302 52.2549 170.69C53.1585 170.948 54.0622 171.725 53.9331 171.725C53.9331 171.725 53.804 170.56 52.9003 169.784C52.1258 168.879 50.7058 168.232 49.9312 168.361C48.5112 168.361 47.7366 169.396 47.9948 170.043C48.5112 170.302 49.4148 170.431 50.0603 170.56Z" fill="#1D3B4C"/>
<path d="M73.0388 166.809C72.6515 166.938 71.7478 166.938 70.8442 167.456C70.0696 167.973 69.4242 168.879 69.4242 168.879C69.4242 168.879 69.2951 167.715 69.9405 166.68C70.4569 165.645 71.7478 164.61 72.3933 164.481C73.8133 164.092 74.8461 164.998 74.5879 165.515C74.5879 166.292 73.8133 166.55 73.0388 166.809Z" fill="#1D3B4C"/>
<path d="M73.426 173.277C73.0388 173.277 71.8769 172.889 70.9733 173.277C70.0696 173.536 69.166 174.57 69.2951 174.57C69.2951 174.7 69.2951 173.018 70.0696 171.854C70.8442 170.69 72.2642 169.784 73.0388 170.043C74.5879 170.172 75.6206 171.724 75.3624 172.371C75.2333 173.147 74.3297 173.277 73.426 173.277Z" fill="#1D3B4C"/>
<path d="M72.6515 181.944C72.2642 181.815 71.2315 181.298 70.1987 181.556C69.166 181.686 68.2623 182.591 68.2623 182.591C68.2623 182.721 68.5205 181.168 69.5533 180.133C70.4569 179.098 72.1351 178.581 72.7806 178.84C74.3297 179.228 75.1042 180.909 74.717 181.556C74.3297 182.074 73.426 182.074 72.6515 181.944Z" fill="#1D3B4C"/>
<path d="M59.4841 179.616C59.2259 179.616 58.1932 179.357 57.5477 179.745C56.7731 180.004 56.1277 180.909 56.2568 180.909C56.2568 180.909 56.1277 179.745 56.7731 178.71C57.2895 177.675 58.4513 176.899 59.0968 177.029C60.3877 177.029 61.2914 178.193 61.1623 178.84C60.9041 179.486 60.2586 179.616 59.4841 179.616Z" fill="#1D3B4C"/>
<path d="M66.1969 158.271C66.4551 158.271 66.9715 158.012 67.4878 158.271C68.0042 158.4 68.5206 158.788 68.5206 158.788C68.5206 158.788 68.3915 158.141 67.8751 157.624C67.3587 157.106 66.4551 156.848 66.0678 156.848C65.1642 156.977 64.7769 157.624 65.0351 157.883C65.2932 158.271 65.8096 158.271 66.1969 158.271Z" fill="#1D3B4C"/>
<path d="M69.2951 156.33C69.166 156.46 68.7787 156.977 68.6496 157.495C68.5205 158.012 68.5205 158.659 68.6496 158.659C68.6496 158.659 68.1333 158.271 68.0042 157.495C67.746 156.848 68.0042 155.813 68.2623 155.554C68.7787 154.907 69.5533 154.778 69.6824 155.166C69.6824 155.554 69.4242 155.942 69.2951 156.33Z" fill="#1D3B4C"/>
<path d="M49.673 164.998C49.9312 164.998 50.4476 164.739 50.964 164.998C51.4803 165.127 51.9967 165.515 51.9967 165.515C51.9967 165.515 51.8676 164.868 51.3512 164.351C50.8349 163.833 49.9312 163.575 49.5439 163.575C48.6403 163.704 48.253 164.351 48.5112 164.61C48.6403 164.998 49.1567 164.998 49.673 164.998Z" fill="#1D3B4C"/>
<path d="M52.9003 163.186C52.7712 163.316 52.2549 163.704 52.1258 164.221C51.8676 164.739 51.9967 165.386 51.9967 165.386C51.9967 165.386 51.6094 164.868 51.4803 164.221C51.3512 163.575 51.6094 162.54 51.8676 162.281C52.384 161.634 53.1585 161.634 53.2876 162.022C53.4167 162.41 53.1585 162.798 52.9003 163.186Z" fill="#1D3B4C"/>
<path d="M41.9274 181.944C43.6056 183.238 45.1547 184.79 46.4457 186.342C49.0275 189.188 51.2221 192.423 53.2876 195.657C54.3203 197.209 55.3531 198.891 56.2567 200.443C56.644 201.219 57.1604 201.996 57.5476 202.772C58.064 203.936 58.5804 205.876 58.5804 206.135L57.9349 205.747C57.6767 205.1 57.0313 202.513 55.3531 199.796C51.6094 193.458 47.6075 186.86 41.9274 181.944C41.7983 181.944 41.9274 181.944 41.9274 181.944Z" fill="#1D3B4C"/>
<path d="M58.3223 230.714H58.0641C49.1567 230.714 41.9275 223.47 41.9275 214.544V200.702H74.3297V214.415C74.3297 223.47 67.1005 230.714 58.3223 230.714Z" fill="#CA5B30"/>
<path d="M74.3297 206.523H41.9275V208.076H74.3297V206.523Z" fill="#DBB58A"/>
<path d="M74.3297 210.275H41.9275V211.827H74.3297V210.275Z" fill="#DBB58A"/>
<path d="M154.625 236.148L85.1735 240.675C80.7844 240.934 72.6515 239.123 72.0061 233.043L61.0332 37.7032C60.2586 28.2596 66.8424 25.543 70.8442 26.0604L134.487 36.0214C137.843 36.5389 140.812 39.773 141.2 43.1365L160.435 227.998C160.822 232.267 158.24 235.889 154.625 236.148Z" fill="#926E75"/>
<path d="M158.885 235.889L85.5608 240.675C81.3007 240.934 77.557 237.441 77.2988 232.784L65.2932 31.7522C65.035 28.13 68.0042 25.6721 71.877 26.1896L138.36 36.6681C141.716 37.1855 144.685 40.2903 144.943 43.7831L164.565 227.868C164.953 232.008 162.5 235.63 158.885 235.889Z" fill="#2B0E0D"/>
<path d="M137.327 42.7484L120.416 40.2905L119.77 42.7484C119.383 44.3008 117.963 45.2063 116.285 44.9476L97.9537 42.4897C96.1464 42.231 94.4682 40.9373 93.8227 39.1262L92.79 36.4096L76.008 33.9517C73.1679 33.5636 70.7152 35.8921 70.9734 38.6088L83.2371 227.351C83.4953 230.585 86.0772 232.914 89.3045 232.784L155.271 229.809C157.724 229.68 159.531 227.61 159.273 225.152L140.812 46.2412C140.554 44.4301 139.134 43.0071 137.327 42.7484Z" fill="#CDE8F7"/>
<path d="M106.99 39.5143C107.917 39.5143 108.668 38.7034 108.668 37.7032C108.668 36.7029 107.917 35.8921 106.99 35.8921C106.063 35.8921 105.312 36.7029 105.312 37.7032C105.312 38.7034 106.063 39.5143 106.99 39.5143Z" fill="#EAEDEF"/>
<path d="M144.943 86.9911C143.653 85.9562 143.394 90.7427 143.394 90.7427C143.394 90.7427 143.523 86.9911 142.62 85.9562C141.845 85.18 141.2 88.5435 140.942 89.9665C141.071 88.5435 141.329 85.18 140.296 84.6626C139.263 84.1451 138.747 88.8022 138.618 89.7078C138.747 81.1697 136.423 86.9911 136.165 91.0014C135.52 90.3546 132.034 89.9665 131.647 90.2252C131.131 90.6133 133.325 92.4244 133.841 92.9419C134.874 93.9768 135.132 95.3998 134.745 96.9522C134.616 97.599 143.136 97.8577 143.136 97.8577C143.136 97.8577 144.04 96.176 144.685 93.33C144.685 93.2006 144.814 93.0712 144.814 92.8125C144.814 92.5538 144.943 92.295 144.943 91.907C145.202 90.2252 145.589 87.5086 144.943 86.9911Z" fill="#FCBDB6"/>
<path d="M140.167 95.6586C140.296 95.5292 140.296 95.5292 140.167 95.6586C140.296 95.5292 140.425 94.2356 139.263 93.7181C138.231 93.2007 137.198 92.0364 137.198 92.0364H137.069V92.1657C137.069 92.1657 138.231 93.33 139.263 93.8475C140.296 94.3649 140.167 95.5292 140.167 95.5292C140.038 95.5292 140.038 95.6586 140.167 95.6586Z" fill="#F9A6A0"/>
<path d="M115.639 92.9419C115.639 92.9419 122.352 101.609 126.354 102.774C130.227 103.808 119.254 116.486 119.254 116.486C113.058 112.605 111.638 103.679 111.638 103.679L115.639 92.9419Z" fill="#49ADB7"/>
<path d="M79.6226 140.936C79.6226 142.617 85.9481 144.687 98.4701 144.299C110.992 143.911 114.736 140.548 114.607 138.866C114.607 137.184 114.219 136.02 101.568 136.408C89.1754 136.796 79.6226 139.254 79.6226 140.936Z" fill="#333333"/>
<path d="M78.848 94.4944C78.848 94.4944 81.0426 85.6976 97.4373 85.5683C121.061 85.4389 112.412 105.361 114.607 138.608C114.607 138.608 110.863 132.398 79.8807 140.289C80.0098 140.289 73.6843 108.078 78.848 94.4944Z" fill="#49ADB7"/>
<path d="M72.7806 93.33L83.4953 99.2807C83.4953 99.2807 107.507 104.585 113.703 103.55C119.899 102.515 121.061 99.9275 121.061 99.9275C121.061 99.9275 114.478 87.8967 103.117 85.9562C102.085 85.8269 100.923 85.6975 99.761 85.5681C97.8246 85.4388 95.8882 85.4388 94.0809 85.6975C79.8807 87.3792 72.7806 93.33 72.7806 93.33Z" fill="#49ADB7"/>
<path d="M94.21 83.4984L95.7591 78.4532L96.2755 77.0302L98.9864 68.3628L99.3737 77.0302L99.6319 82.2048L99.761 83.8865C99.761 85.0508 108.023 86.8619 108.797 87.7674C109.185 88.1555 106.345 90.8721 102.73 91.519C95.5009 92.942 85.1735 90.7428 82.9789 88.0261C82.9789 88.0261 93.6936 85.1801 94.21 83.4984Z" fill="#FCBDB6"/>
<path d="M105.828 65.1284C105.828 65.1284 106.345 67.1982 105.828 69.9149C105.312 72.5022 102.601 66.034 102.601 66.034L105.828 65.1284Z" fill="#5C305D"/>
<path d="M106.087 70.5621C105.441 65.5169 101.439 61.7654 97.3083 62.2828C93.0482 62.8003 90.2082 67.4574 90.8536 72.5026C91.4991 77.5478 95.501 81.2994 99.6319 80.7819C103.892 80.2644 106.732 75.6073 106.087 70.5621Z" fill="#FCBDB6"/>
<path d="M85.6899 70.1734C85.6899 70.1734 88.2718 75.7361 91.8864 76.1242C91.8864 76.1242 88.9173 71.8552 95.1137 69.2679C95.2428 69.2679 89.5627 68.3623 85.6899 70.1734Z" fill="#501506"/>
<path d="M90.8536 73.2786C91.6282 73.7961 92.6609 73.6667 93.0482 72.8905C93.4355 72.2437 93.1773 71.2088 92.4027 70.6913C91.6282 70.1739 90.5954 70.3032 90.2081 71.0794C89.8209 71.7262 90.079 72.7612 90.8536 73.2786Z" fill="#FCBDB6"/>
<path d="M95.2428 69.2683C95.2428 69.2683 94.7264 73.9254 95.6301 74.831C96.5337 75.7365 102.859 76.1246 105.699 74.9603C105.699 77.9357 107.636 84.4039 105.57 86.4737C104.537 87.5086 100.019 88.8023 98.0828 88.5436C91.4991 87.5086 92.1446 83.6277 91.2409 81.8166C90.9827 81.2992 93.3064 73.9254 93.3064 73.9254C93.3064 73.9254 93.5646 71.8556 92.4027 70.6913C92.5318 70.6913 93.8228 69.3977 95.2428 69.2683Z" fill="#501506"/>
<path d="M95.2428 69.527C95.2428 69.527 94.7264 67.1985 97.3083 67.0691C99.8901 66.9397 102.73 66.5516 103.763 67.0691C104.796 67.5865 105.957 69.3976 105.957 69.3976C105.957 69.3976 108.797 59.9541 106.216 58.5311C103.634 57.1081 93.3064 56.2025 88.1427 58.7898C82.979 61.3771 85.9481 70.3032 85.9481 70.3032C85.9481 70.3032 89.5627 69.3976 95.2428 69.527Z" fill="#501506"/>
<path d="M97.9537 223.341C99.6319 223.212 101.181 224.117 101.956 225.54C102.343 226.187 102.859 226.834 103.763 227.222C106.216 228.257 113.574 229.163 110.863 231.621C109.314 233.044 101.956 232.138 99.8901 232.138C97.8246 232.138 95.8882 233.044 94.3391 231.621C93.4355 230.844 93.4355 228.128 93.8227 225.929C93.9518 224.376 95.5009 223.083 97.05 223.341C97.3082 223.341 97.5664 223.341 97.8246 223.341C97.6955 223.341 97.8246 223.341 97.9537 223.341Z" fill="#333333"/>
<path d="M112.67 138.09C113.703 138.219 114.478 138.996 114.607 140.031C114.865 141.971 114.865 146.24 113.703 154.907C112.025 167.714 101.827 213.768 100.665 219.978C100.277 222.177 103.376 224.117 100.148 224.505L95.8883 224.376C92.4028 224.893 94.4683 221.53 94.4683 219.201L93.8228 147.016L82.7208 141.583C82.7208 141.583 90.4664 139.513 100.536 138.478C105.828 137.831 110.347 137.831 112.67 138.09Z" fill="#440808"/>
<path d="M103.763 143.264L81.4298 204.324L77.9443 150.509L78.3316 147.016C78.5898 146.11 78.9771 142.229 79.8807 141.971C84.5281 140.677 104.279 140.03 103.763 143.264Z" fill="#440808"/>
<path d="M91.7573 176.64L97.0501 160.599C98.2119 156.977 100.665 154.002 103.892 152.191L103.634 151.802C100.277 153.743 97.8246 156.848 96.6628 160.47L91.37 176.511L91.7573 176.64Z" fill="#333333"/>
<path d="M104.279 76.6418C104.279 76.6418 101.826 77.2887 99.2446 77.0299C99.2446 77.0299 99.6319 79.4879 102.214 78.9704C103.763 78.7117 104.279 76.6418 104.279 76.6418Z" fill="white"/>
<path d="M98.0828 103.55C98.0828 103.162 98.4701 102.774 98.8574 102.774C99.2447 102.774 99.6319 103.162 99.6319 103.55C99.6319 103.938 99.2447 104.326 98.8574 104.326C98.4701 104.326 98.0828 104.068 98.0828 103.55Z" fill="#5C305D"/>
<path d="M99.6319 114.158C99.6319 113.769 100.019 113.381 100.406 113.381C100.794 113.381 101.181 113.769 101.181 114.158C101.181 114.546 100.794 114.934 100.406 114.934C100.019 114.934 99.6319 114.675 99.6319 114.158Z" fill="#5C305D"/>
<path d="M99.6319 125.671C99.6319 125.283 100.019 124.895 100.406 124.895C100.794 124.895 101.181 125.283 101.181 125.671C101.181 126.059 100.794 126.447 100.406 126.447C100.019 126.447 99.6319 126.059 99.6319 125.671Z" fill="#5C305D"/>
<path d="M114.219 121.143H114.478C114.865 114.675 114.09 103.032 114.09 102.903H113.832C113.832 103.032 114.607 114.675 114.219 121.143Z" fill="#5C305D"/>
<path d="M76.9116 115.192C77.8153 111.182 80.5262 105.361 80.5262 105.361L80.268 105.231C80.268 105.231 77.5571 111.182 76.6534 115.063L76.9116 115.192Z" fill="#5C305D"/>
<path d="M124.934 109.242C125.321 108.465 125.063 107.43 125.063 107.43L124.159 108.465L124.934 109.242Z" fill="#125A5E"/>
<path d="M122.739 101.739C122.739 101.739 125.58 104.585 129.71 103.808C131.13 103.55 134.616 96.8228 134.616 96.8228L143.007 97.7283C143.007 97.7283 141.329 108.595 133.325 113.899C125.321 119.203 119.254 114.158 119.254 114.158" fill="#FCBDB6"/>
<path d="M103.634 136.279L99.761 135.632C102.73 118.685 97.3082 93.0713 97.3082 92.8126L101.052 92.0364C101.439 93.2007 106.732 118.685 103.634 136.279Z" fill="#24555E"/>
<path d="M157.724 98.2461H102.988V151.156H157.724V98.2461Z" fill="#FCB554"/>
<path d="M83.9053 151.084H103.011V98.1743H83.9053V151.084Z" fill="#FF970D"/>
<path d="M148.945 145.593H145.847C143.265 145.593 141.2 143.523 141.2 140.936C141.2 138.349 143.265 136.279 145.847 136.279H148.945C151.527 136.279 153.593 138.349 153.593 140.936C153.593 143.523 151.527 145.593 148.945 145.593Z" fill="white"/>
<path d="M101.052 151.026C95.2428 149.862 87.1099 140.936 85.6899 136.02C83.1081 126.835 83.3663 116.098 83.1081 109.5C82.979 106.525 82.4626 100.316 82.979 98.5044C83.3662 97.0814 81.4299 94.7529 79.1062 93.9767C78.0735 93.5886 76.7825 93.5886 75.7498 93.8473C75.3625 93.9767 74.9752 94.3648 74.588 95.0116C74.588 95.0116 77.0407 140.289 77.6862 141.324C80.268 145.593 85.819 152.191 91.37 152.579L101.052 151.026Z" fill="#FCBDB6"/>
<path d="M76.2661 121.79C76.2661 121.79 83.3662 121.661 83.6244 120.884C85.4317 115.839 83.6244 103.291 84.0117 96.4346C84.2698 92.1656 74.4588 92.683 74.4588 92.683L76.2661 121.79Z" fill="#49ADB7"/>
<path d="M110.218 151.026H115.769C115.769 151.026 116.414 153.096 111.379 154.002C106.345 154.907 100.148 154.39 100.148 154.39C100.148 154.39 95.2428 154.649 88.1427 151.673L97.6956 151.026H104.537C104.537 151.026 107.636 147.663 108.668 147.663C109.701 147.663 109.572 150.121 108.539 150.897L110.218 151.026Z" fill="#FCBDB6"/>
<path d="M156.949 98.2456H115.768V150.638H156.949V98.2456Z" fill="#FCB554"/>
<path d="M152.173 146.498H141.974C141.329 146.498 140.942 145.981 140.942 145.463V138.348C140.942 137.702 141.458 137.313 141.974 137.313H152.043C152.689 137.313 153.076 137.831 153.076 138.348V145.463C153.205 145.981 152.689 146.498 152.173 146.498Z" fill="white"/>
<path d="M203.516 233.621L256.831 233.621L256.831 171.138L203.516 171.138L203.516 233.621Z" fill="#FCB554"/>
<path d="M278.942 171.207H256.867V233.689H278.942V171.207Z" fill="#FF970D"/>
<path d="M223.69 170.948H209.619V199.149H223.69V170.948Z" fill="white"/>
<path d="M237.116 228.774H250.412C250.928 228.774 251.316 228.386 251.316 227.868V216.614C251.316 216.096 250.928 215.708 250.412 215.708H237.116C236.599 215.708 236.212 216.096 236.212 216.614V227.868C236.212 228.386 236.599 228.774 237.116 228.774Z" fill="white"/>
<path d="M263.709 171.336H212.459C209.748 171.336 207.682 169.784 207.941 168.102L212.717 130.587C212.975 129.034 214.912 127.87 217.235 127.87H259.061C261.385 127.87 263.45 129.034 263.579 130.587L268.356 168.102C268.485 169.784 266.42 171.336 263.709 171.336Z" fill="#C42014"/>
<path d="M227.821 136.02C229.104 136.02 230.144 134.977 230.144 133.691C230.144 132.405 229.104 131.363 227.821 131.363C226.537 131.363 225.497 132.405 225.497 133.691C225.497 134.977 226.537 136.02 227.821 136.02Z" fill="#490707"/>
<path d="M248.347 136.02C249.63 136.02 250.67 134.977 250.67 133.691C250.67 132.405 249.63 131.363 248.347 131.363C247.063 131.363 246.023 132.405 246.023 133.691C246.023 134.977 247.063 136.02 248.347 136.02Z" fill="#490707"/>
<path d="M238.148 153.484C231.823 153.484 226.788 148.309 226.788 142.1V133.691C226.788 133.044 227.304 132.527 227.95 132.527C228.595 132.527 229.112 133.044 229.112 133.691V142.1C229.112 147.145 233.243 151.285 238.277 151.285C243.312 151.285 247.443 147.145 247.443 142.1V133.691C247.443 133.044 247.959 132.527 248.605 132.527C249.25 132.527 249.767 133.044 249.767 133.691V142.1C249.508 148.309 244.345 153.484 238.148 153.484Z" fill="#490707"/>
<path d="M274.94 171.336H259.578C258.803 171.336 258.158 170.689 258.158 169.784L259.578 152.708C259.578 151.932 260.223 151.414 260.998 151.414H273.52C274.294 151.414 274.811 151.932 274.94 152.708L276.36 169.784C276.36 170.689 275.843 171.336 274.94 171.336Z" fill="#473703"/>
<path d="M273.261 171.336H257.641C256.867 171.336 256.221 170.69 256.221 169.784L257.641 152.32C257.641 151.544 258.287 151.026 259.061 151.026H271.841C272.616 151.026 273.132 151.544 273.261 152.32L274.681 169.784C274.681 170.56 274.036 171.336 273.261 171.336Z" fill="url(#paint0_linear_28_1034)"/>
<path d="M270.163 154.648C270.734 154.648 271.196 154.185 271.196 153.614C271.196 153.042 270.734 152.579 270.163 152.579C269.593 152.579 269.13 153.042 269.13 153.614C269.13 154.185 269.593 154.648 270.163 154.648Z" fill="#490707"/>
<path d="M260.61 154.649C261.181 154.649 261.643 154.185 261.643 153.614C261.643 153.042 261.181 152.579 260.61 152.579C260.04 152.579 259.578 153.042 259.578 153.614C259.578 154.185 260.04 154.649 260.61 154.649Z" fill="#490707"/>
<path d="M265.386 144.429C268.355 144.429 270.679 146.757 270.679 149.733V153.614C270.679 153.872 270.421 154.131 270.162 154.131C269.904 154.131 269.646 153.872 269.646 153.614V149.733C269.646 147.404 267.71 145.464 265.386 145.464C263.062 145.464 261.126 147.404 261.126 149.733V153.614C261.126 153.872 260.868 154.131 260.61 154.131C260.351 154.131 260.093 153.872 260.093 153.614V149.733C260.093 146.757 262.417 144.429 265.386 144.429Z" fill="#490707"/>
<path d="M221.624 228.645C222.27 230.973 221.624 233.431 220.85 235.76C220.075 238.088 219.172 240.287 219.043 242.745C219.043 243.263 219.043 243.78 219.43 244.298C219.817 244.815 220.592 244.945 221.108 244.945C223.303 245.203 225.497 245.203 227.821 245.074C228.466 245.074 229.112 244.945 229.628 244.556C230.532 244.039 230.79 242.875 230.79 241.84C230.79 239.899 229.628 238.088 228.854 236.277C227.821 233.819 227.563 230.973 227.821 228.386L221.624 228.645Z" fill="#FDAF89"/>
<path d="M200.453 226.575C200.453 227.61 200.324 228.774 199.679 229.55C199.291 229.938 198.904 230.197 198.388 230.456C196.064 231.75 193.611 232.655 191.029 233.431C189.609 233.819 188.189 234.078 187.028 234.984C185.866 235.889 185.22 237.571 185.995 238.735C192.191 239.123 198.388 239.123 204.584 238.735C205.875 238.606 207.295 238.606 208.457 238.088C209.102 233.949 207.682 229.809 208.199 225.669L200.453 226.575Z" fill="#FDAF89"/>
<path d="M208.457 239.899C200.97 240.287 193.482 240.417 186.124 240.158C185.608 240.158 185.091 239.641 185.091 239.123C185.091 238.476 185.608 237.959 186.253 237.959C193.611 238.218 200.97 238.088 208.328 237.183C208.973 237.183 209.49 237.571 209.49 238.088C209.49 238.218 209.49 238.347 209.49 238.606C209.49 239.252 209.102 239.77 208.457 239.899Z" fill="#026864"/>
<path d="M191.675 239.253C191.675 237.183 191.159 235.113 190.255 233.173C192.062 232.655 193.87 232.008 195.677 231.491C196.968 233.82 197.871 236.407 198.13 239.123L191.675 239.253Z" fill="#026864"/>
<path d="M198.904 85.827C198.388 84.792 198.646 83.4984 199.033 82.3341C199.937 79.2294 200.97 75.9953 201.099 72.7612C201.357 68.6215 200.195 64.6112 199.937 60.4716C199.808 58.9192 199.937 57.3668 200.582 56.0732C201.357 54.7796 202.906 53.7446 204.326 54.1327C204.842 54.0034 207.553 53.4859 207.812 53.874C209.232 55.4264 210.652 57.6256 210.91 59.6954C211.684 64.87 208.973 71.0794 209.232 76.3834C209.361 77.8064 209.361 79.3587 209.102 80.7817C208.844 82.2048 208.199 83.6278 207.037 84.5333C206.133 85.3095 204.971 85.6976 203.81 85.9563C202.906 86.215 201.873 86.4738 200.841 86.4738C199.808 86.4738 199.421 86.7325 198.904 85.827Z" fill="#2B0F0A"/>
<path d="M194.257 124.119C195.289 130.716 194.515 137.314 194.515 144.041C194.515 148.31 194.773 152.579 195.16 156.718C196.968 180.133 199.291 203.548 198.904 226.963C202.002 228.904 206.004 229.292 209.361 227.869C209.49 224.505 209.361 220.883 209.49 217.39C209.748 213.38 212.33 193.458 211.942 187.766C210.651 166.938 219.817 148.31 217.106 127.741L194.257 124.119Z" fill="#B72929"/>
<path d="M206.908 151.026C206.521 150.121 206.262 149.086 205.617 148.31C204.971 147.534 204.197 147.016 203.422 146.499C200.711 144.558 198.259 141.971 197.871 138.737C199.162 140.03 200.453 141.324 202.002 141.971C203.422 142.618 204.971 142.876 206.133 143.782C206.908 144.429 207.424 145.464 207.811 146.369C208.973 148.957 210.264 151.544 211.426 154.131C211.813 155.037 212.33 156.072 212.459 157.107C212.846 160.47 211.039 159.823 209.748 157.624C208.715 155.425 207.811 153.226 206.908 151.026Z" fill="#911616"/>
<path d="M207.424 136.538C208.586 147.663 209.748 158.918 211.039 170.043C211.555 174.7 212.072 179.357 212.717 184.144C214.912 199.15 219.301 214.027 219.043 229.292C222.399 230.844 225.884 230.715 229.37 229.68C230.015 221.4 230.274 213.25 229.628 204.971C229.241 200.573 228.595 196.174 228.337 191.776C226.917 172.113 233.63 152.579 230.015 133.174L207.424 136.538Z" fill="#F04A48"/>
<path d="M210.264 151.673L207.037 145.981C207.037 145.981 202.648 143.652 202.519 143.523C202.39 143.523 198.259 139.642 198.259 139.642L198.904 130.457L203.681 131.492C203.681 131.492 212.33 131.622 212.717 131.622C213.104 131.622 217.364 134.079 217.364 134.079L218.526 137.831L210.264 151.673Z" fill="#F04A48"/>
<path d="M170.375 95.6588C170.762 95.2707 171.149 94.8826 171.536 94.4945C169.471 92.4247 167.535 90.3548 165.598 88.1556C164.824 87.2501 164.953 85.6977 164.178 84.6628C163.92 84.2747 163.533 83.8866 163.016 83.4985C162.242 83.1104 161.467 82.9811 160.564 82.8517C159.014 82.7224 157.336 82.593 155.787 82.4636C155.658 82.4636 155.529 82.4636 155.4 82.4636C155.271 82.4636 155.271 82.593 155.142 82.7224C154.883 83.3692 154.625 84.1454 154.496 84.7922C154.109 85.0509 154.109 85.5684 154.238 86.0858C154.496 86.4739 154.754 86.7326 155.142 86.9914C157.207 88.5437 159.273 90.0961 161.596 91.3897C163.662 93.5889 165.469 95.6588 167.147 97.858C168.567 97.4699 169.6 96.5643 170.375 95.6588Z" fill="#FDAF89"/>
<path d="M159.918 87.3793H147.138C146.622 87.3793 146.105 86.9912 146.105 86.3444V78.5825C146.105 78.0651 146.493 77.5476 147.138 77.5476H159.918C160.435 77.5476 160.951 77.9357 160.951 78.5825V86.3444C160.822 86.9912 160.435 87.3793 159.918 87.3793Z" fill="#4B74DB"/>
<path d="M160.951 79.7467H146.105V81.0403H160.951V79.7467Z" fill="#282F39"/>
<path d="M160.951 81.0404H146.105V81.8166H160.951V81.0404Z" fill="#ECEAEB"/>
<path d="M151.398 83.7571H147.138V85.6975H151.398V83.7571Z" fill="#92B1EF"/>
<path d="M163.662 86.4736C163.92 85.9562 164.049 85.4387 164.049 84.7919C163.92 84.2744 163.145 83.1102 162.5 82.9808C160.693 82.7221 158.885 82.4633 157.078 82.334C156.82 82.334 156.562 82.334 156.433 82.5927C156.433 82.7221 156.433 82.8514 156.433 82.8514C156.691 83.4983 157.465 84.0157 158.111 84.1451C158.756 84.2744 159.531 84.0157 160.176 84.2744C161.338 84.6625 161.596 86.3443 162.758 86.8617C163.275 86.9911 163.662 86.7324 163.662 86.4736Z" fill="#FDAF89"/>
<path d="M194.515 144.429C194.902 145.723 196.451 146.111 197.742 146.628C199.033 147.146 206.391 150.638 220.979 147.404C220.204 140.289 214.653 133.95 214.395 126.835C214.137 120.108 217.106 114.416 217.881 107.689C218.397 103.032 219.817 85.9563 220.979 81.5579C222.399 76.3833 206.521 83.4984 208.715 78.5825C205.875 79.4881 203.035 80.1349 200.195 80.523C198.646 80.7817 196.968 80.9111 195.677 81.8166C194.515 82.7222 193.869 84.1452 193.224 85.5682C190.255 92.2951 187.286 99.0221 184.317 105.62C179.153 100.963 174.118 96.0467 169.342 91.0015C167.922 92.6832 166.244 94.4943 164.695 95.9173C167.276 99.2808 177.346 112.347 180.444 114.804C181.993 115.969 184.058 117.004 185.995 116.616C187.415 116.357 188.577 115.451 189.609 114.546C192.062 112.088 193.74 108.983 195.419 106.008C195.806 107.819 195.935 109.501 196.193 111.441C197.226 122.308 191.417 133.692 194.515 144.429Z" fill="#026864"/>
<path d="M221.237 75.866C218.655 73.9255 214.912 75.866 214.912 79.1001C214.912 84.9215 214.782 90.7429 214.782 96.6936C214.782 100.575 214.653 104.455 214.395 108.336C213.492 121.143 210.135 132.269 210.652 144.688C210.781 147.016 212.846 148.827 215.17 148.439C216.59 148.31 218.01 148.051 219.301 147.663C222.915 146.887 226.788 145.981 229.757 143.912C230.79 143.135 231.435 141.971 231.435 140.807C231.565 134.597 231.177 129.035 228.466 122.178C227.563 119.72 229.757 116.486 229.628 113.77C228.724 103.291 227.821 92.8127 226.788 82.4636C226.659 81.6874 226.401 80.7818 225.755 80.135C224.335 78.5826 222.915 77.0303 221.237 75.866Z" fill="#026864"/>
<path d="M226.014 110.018C226.014 111.7 225.884 113.64 224.723 114.934C224.206 115.451 223.561 115.71 222.915 115.969C219.688 117.521 216.461 119.073 213.233 120.626C214.653 122.178 217.235 121.661 219.301 121.014C221.366 120.367 223.432 119.72 225.497 119.203C227.046 118.815 228.595 118.168 229.499 116.874C230.145 115.839 230.015 114.546 230.015 113.252C229.757 107.948 229.37 102.773 229.112 97.4695C228.983 95.141 228.983 92.4243 227.821 90.3545C225.755 96.1759 226.014 103.808 226.014 110.018Z" fill="#004547"/>
<path d="M208.844 75.3484C209.102 77.4183 208.586 79.6175 207.295 81.2992C206.908 81.8167 206.391 82.4635 206.521 83.1103C206.65 83.7571 207.166 84.1452 207.811 84.4039C210.006 85.3095 212.846 84.2746 214.137 82.3341C214.912 81.0405 215.17 79.4881 215.17 78.0651C215.299 76.254 215.17 74.4429 214.912 72.6318C214.782 72.1143 214.782 71.7263 214.395 71.3382C214.137 70.9501 213.492 70.8207 213.104 71.0794L208.844 75.3484Z" fill="#FDAF89"/>
<path d="M215.041 73.796C215.041 73.408 214.912 72.8905 214.912 72.5024C214.782 71.9849 214.782 71.5969 214.395 71.2088C214.137 70.8207 213.492 70.6913 213.104 70.95L208.715 75.4778C208.973 77.0301 208.715 78.7119 208.07 80.1349C210.135 79.2293 211.942 77.4182 213.621 75.8659C214.266 75.0897 214.782 74.4429 215.041 73.796Z" fill="#D88666"/>
<path d="M194.644 97.8578C195.16 95.2705 196.193 92.6833 197.226 90.2253C194.773 92.4245 194.128 95.788 193.611 99.0221C193.353 100.833 193.095 102.515 192.966 104.326C192.837 105.749 192.708 107.301 192.191 108.724C191.546 110.536 190.255 112.088 188.964 113.511C187.802 114.675 186.64 115.969 185.091 116.486C185.349 116.486 185.608 116.486 185.866 116.357C187.286 116.098 188.448 115.193 189.48 114.287C191.933 111.829 193.611 108.724 195.29 105.749C193.999 103.42 194.128 100.445 194.644 97.8578Z" fill="#004547"/>
<path d="M208.586 122.437C206.908 122.437 205.359 121.661 203.681 121.143C201.615 120.496 199.42 120.108 197.226 120.238C197.097 120.238 197.097 120.238 196.968 120.238C196.839 120.367 196.839 120.496 196.839 120.755C196.968 120.884 197.097 121.014 197.226 121.143C197.613 121.402 198 121.531 198.517 121.531C199.033 121.661 199.679 121.661 200.195 121.919C200.841 122.178 201.228 122.696 201.615 123.342C198.259 123.472 194.902 122.954 191.804 121.79C191.675 121.79 191.675 121.79 191.546 121.79C191.417 121.79 191.417 122.049 191.417 122.308C191.675 122.954 192.449 123.472 193.095 123.731C193.87 123.989 194.515 124.119 195.29 124.507C193.999 124.636 192.837 124.377 191.675 123.86C191.417 124.248 191.804 124.765 192.062 125.154C194.128 127.223 197.097 128 200.066 128C203.035 128 205.746 127.094 208.586 126.318V122.437Z" fill="#FDAF89"/>
<path d="M222.27 77.0298C223.948 78.4528 225.884 79.6171 228.079 80.3932C228.983 80.7813 230.015 81.0401 230.919 81.5575C232.597 82.7218 233.501 84.7916 234.146 86.7321C235.566 91.3892 236.083 96.305 236.47 101.221C236.857 106.137 237.116 111.053 237.374 115.968C237.503 119.332 234.921 122.825 231.565 123.601C231.565 123.601 231.565 123.601 231.435 123.601C223.819 125.412 215.944 126.447 208.07 126.576C207.941 124.895 207.682 123.083 207.553 121.402C214.524 119.72 221.366 117.262 228.079 114.675C227.821 113.381 227.95 111.958 227.821 110.535C227.434 104.843 227.434 99.151 226.788 93.459C226.143 87.8964 225.11 82.075 222.27 77.0298Z" fill="#026864"/>
<path d="M219.43 243.263C219.043 243.522 219.043 243.91 219.043 244.427C219.043 244.945 219.172 245.592 219.43 245.98C219.946 246.626 220.721 246.756 221.495 246.885C223.561 247.144 225.626 247.273 227.692 247.273C228.337 247.273 229.112 247.273 229.757 247.015C230.403 246.626 230.79 245.98 230.79 245.203C230.79 244.427 230.403 243.78 229.757 243.392L219.43 243.263Z" fill="#026864"/>
<path d="M229.499 235.76C229.886 237.183 230.274 238.735 230.79 240.029C228.337 238.606 225.368 238.218 222.528 238.735C221.495 238.864 220.334 239.253 219.559 240.029C219.688 238.735 219.817 237.312 220.204 236.018C222.915 235.242 226.659 234.854 229.499 235.76Z" fill="#026864"/>
<path d="M214.395 70.1739C213.233 72.5025 211.168 74.1842 208.844 75.0898C207.941 75.3485 206.908 75.6072 206.004 75.2191C204.455 74.7017 203.551 72.8906 203.164 71.3382C202.906 70.1739 202.777 69.0097 202.648 67.8454C202.39 65.7756 202.261 63.7057 202.131 61.6359C202.002 59.9542 202.002 58.1431 203.035 56.8494C203.422 56.4613 203.939 56.0732 204.584 56.0732C205.101 56.0732 205.488 56.4613 206.004 56.5907C206.908 55.9439 207.812 55.4264 208.844 55.2971C210.135 55.1677 211.426 55.9439 212.072 56.9788C212.846 58.0137 213.233 59.3074 213.492 60.601C214.266 63.8351 215.944 67.1986 214.395 70.1739Z" fill="#FDAF89"/>
<path d="M209.619 70.6912C209.619 70.9499 208.973 72.1142 207.941 72.761C207.295 73.1491 206.521 73.2784 205.746 73.1491C204.713 72.8904 204.455 71.8554 204.455 71.4673C205.359 71.338 206.133 71.338 207.037 71.2086C207.295 71.2086 209.619 70.8205 209.619 70.6912Z" fill="white"/>
<path d="M207.037 56.8491C207.941 56.9785 208.715 57.4959 209.102 58.2721C209.877 59.6951 211.555 60.0832 212.072 61.5062C212.588 62.7999 213.492 64.2229 213.75 65.5165C214.137 67.1983 213.492 68.88 213.621 70.5617C213.75 71.8554 214.653 73.149 214.653 74.4426C214.783 76.1244 213.75 78.0648 213.879 79.8759C214.008 82.0751 215.041 83.6275 215.17 85.4386C215.17 86.8616 215.041 88.2846 215.299 89.837C215.428 90.6132 216.203 91.26 216.977 91.3893C218.139 91.5187 219.43 91.5187 219.946 91.9068C221.883 93.3298 223.561 92.8123 224.723 92.0362C224.852 91.9068 225.11 91.7774 225.239 91.6481C226.014 91.1306 226.272 90.0957 226.014 89.3195C224.723 84.4037 224.981 80.6521 224.335 75.995C224.077 74.3133 222.786 72.5022 222.657 70.8204C222.528 69.1387 223.044 67.1983 222.915 65.5165C222.786 63.9642 222.915 63.0586 222.657 61.5062C222.399 60.342 221.495 59.307 220.979 58.1428C220.463 56.9785 220.204 55.2968 219.301 54.3912C218.268 53.2269 216.977 52.9682 215.557 52.4507C214.008 51.8039 213.492 50.6396 210.522 50.6396C208.328 50.6396 204.971 51.9333 203.551 52.5801C202.002 53.2269 203.164 53.7444 202.519 55.2968C204.326 55.2968 205.488 56.7198 207.037 56.8491Z" fill="#2B0F0A"/>
<path d="M203.939 52.5804C202.648 53.0979 200.582 52.1924 198.388 56.7201C196.322 61.2478 199.937 60.601 199.55 63.3177C199.162 66.0343 197.613 66.1637 199.033 68.751C200.453 71.3382 201.357 70.4327 199.55 73.4081C197.742 76.3834 197.484 75.866 198.13 78.1945L198.904 80.3937L201.486 80.0056L203.164 75.9953L201.357 66.9399L201.228 62.6708L201.357 57.3669L202.39 55.4265L207.941 52.063C207.941 52.4511 205.359 51.9336 203.939 52.5804Z" fill="#2B0F0A"/>
<path d="M148.042 118.556C148.042 117.003 148.042 115.322 148.042 113.769C148.042 112.605 147.913 111.311 147.654 110.147C147.396 109.242 146.88 108.595 146.105 108.077C145.331 107.431 144.298 107.172 143.265 107.042C142.62 106.913 142.103 106.913 141.458 106.913C140.425 106.913 139.522 106.784 138.489 106.784C137.585 106.784 136.681 106.784 135.778 106.913C135.003 106.913 134.229 106.913 133.454 107.172C132.68 107.431 132.034 107.819 131.518 108.465C131.131 108.854 130.872 109.371 130.614 109.888C130.485 109.63 130.356 109.371 130.227 109.112C129.969 108.465 129.581 107.948 129.065 107.56C128.549 107.172 127.903 106.913 127.258 106.913C126.096 106.784 124.805 106.784 123.643 106.784C122.74 106.784 121.707 106.784 120.803 106.784C120.029 106.784 119.383 106.784 118.609 106.913C117.705 107.042 116.672 107.172 115.898 107.56C114.865 108.077 114.219 108.724 113.832 109.759C113.445 110.665 113.316 111.7 113.316 112.605C113.316 113.511 113.316 114.287 113.187 115.192C113.187 116.486 113.058 117.78 113.187 118.944C113.187 119.849 113.316 120.755 113.574 121.531C113.961 122.566 114.607 123.472 115.381 124.248C116.414 125.153 117.705 125.671 119.125 125.671C120.029 125.671 121.061 125.671 121.965 125.671C122.869 125.671 123.643 125.671 124.547 125.671C125.58 125.671 126.741 125.671 127.774 125.8C128.032 125.8 128.161 125.93 128.29 126.188C128.42 126.576 128.678 126.835 128.807 127.223C129.452 128.258 130.227 128.905 131.131 129.681C131.26 129.81 131.518 129.94 131.776 130.199C131.647 129.811 131.518 129.293 131.518 128.905C131.389 128.387 131.518 127.999 131.647 127.482C132.034 126.447 132.809 126.059 133.712 125.8C134.229 125.671 134.745 125.671 135.261 125.671C136.294 125.671 137.327 125.671 138.36 125.671C139.522 125.671 140.683 125.671 141.716 125.671C142.878 125.671 144.04 125.412 145.073 124.765C146.493 123.73 147.396 122.437 147.654 120.755C148.042 119.979 148.042 119.203 148.042 118.556Z" fill="white"/>
<path d="M138.231 128.388C138.101 127.482 137.585 126.965 136.811 126.576C135.649 126.059 134.487 126.059 133.454 126.835C132.55 127.482 132.163 128.646 132.809 129.552C133.325 130.328 134.229 130.587 135.003 130.716C136.036 130.716 136.94 130.587 137.585 129.94C138.101 129.552 138.36 129.034 138.231 128.388Z" fill="white"/>
<path d="M139.78 130.069C139.134 130.069 138.489 130.198 137.972 130.716C137.585 131.104 137.585 131.751 137.843 132.268C138.231 132.786 138.747 133.044 139.522 133.044C140.038 133.044 140.554 132.915 141.071 132.527C141.587 132.01 141.716 131.233 141.2 130.716C140.812 130.198 140.296 130.069 139.78 130.069Z" fill="white"/>
<path d="M145.718 115.71C145.46 114.934 144.943 114.416 144.169 114.028C143.782 113.899 143.265 113.769 142.749 113.64C141.716 113.511 140.812 113.64 139.909 113.899C139.005 114.158 138.489 114.804 138.231 115.71C137.972 116.486 137.972 117.392 138.231 118.168C138.489 119.073 139.005 119.72 139.78 119.979C140.296 120.238 140.812 120.238 141.329 120.367C142.103 120.367 142.749 120.367 143.523 120.238C144.685 119.979 145.331 119.332 145.718 118.168C145.976 117.392 145.976 116.615 145.718 115.71ZM143.782 117.392C143.782 117.65 143.782 117.78 143.653 118.038C143.523 118.427 143.136 118.815 142.62 118.815C142.103 118.944 141.716 118.944 141.2 118.815C140.683 118.685 140.296 118.297 140.167 117.78C140.038 117.262 140.038 116.745 140.167 116.227C140.296 115.71 140.683 115.322 141.2 115.192C141.716 115.063 142.103 115.063 142.62 115.192C143.136 115.322 143.523 115.71 143.653 116.227C143.782 116.745 143.911 117.133 143.782 117.392Z" fill="#CE132C"/>
<path d="M132.034 114.157C131.647 113.899 131.13 113.769 130.614 113.769C129.71 113.64 128.936 113.769 128.032 114.028C127.258 114.287 126.741 114.675 126.354 115.322C126.096 115.839 126.096 116.357 126.096 116.615C126.096 117.391 126.096 118.038 126.225 118.556C126.354 119.203 126.741 119.72 127.387 119.979C128.42 120.496 129.581 120.626 130.743 120.496C131.389 120.367 132.034 120.237 132.551 119.849C132.938 119.72 132.938 119.461 132.68 119.203C132.551 119.073 132.421 118.814 132.292 118.685C132.034 118.426 131.905 118.426 131.647 118.556C131.389 118.685 131.131 118.814 130.872 118.944C130.227 119.073 129.581 119.073 128.936 118.944C128.42 118.814 128.161 118.556 127.903 118.038C127.774 117.78 127.903 117.65 128.161 117.65C128.42 117.65 128.678 117.65 129.065 117.65C129.969 117.65 130.743 117.65 131.647 117.65C132.034 117.65 132.292 117.65 132.68 117.65C132.938 117.65 133.067 117.521 133.067 117.391C133.067 116.874 133.067 116.357 132.938 115.839C132.938 115.192 132.551 114.545 132.034 114.157ZM131.001 116.357C130.743 116.357 130.356 116.357 130.098 116.357C129.452 116.357 128.936 116.357 128.29 116.357H128.161C128.032 116.357 128.032 116.227 128.032 116.098C128.161 115.58 128.42 115.322 128.936 115.192C129.323 115.063 129.581 115.063 130.098 115.063C130.356 115.063 130.743 115.192 131.001 115.451C131.131 115.58 131.26 115.839 131.26 116.098C131.26 116.357 131.131 116.357 131.001 116.357Z" fill="#CE132C"/>
<path d="M122.223 119.849C121.578 118.944 120.932 118.038 120.287 117.133C119.899 116.615 119.899 116.486 120.416 116.098C121.061 115.451 121.707 114.675 122.352 114.028C122.352 114.028 122.481 113.898 122.352 113.769C122.352 113.64 122.223 113.64 122.094 113.64C121.836 113.64 121.578 113.64 121.19 113.64C120.545 113.51 120.158 113.769 119.77 114.157C119.383 114.675 118.867 115.063 118.35 115.451C118.35 115.321 118.35 115.321 118.35 115.321C118.35 114.804 118.35 114.287 118.35 113.898C118.35 113.64 118.221 113.51 117.963 113.51C117.576 113.51 117.318 113.51 116.93 113.51C116.543 113.51 116.285 113.64 116.285 114.028C116.285 114.933 116.285 115.839 116.285 116.615C116.285 117.779 116.285 118.814 116.285 119.979C116.285 120.367 116.414 120.367 116.672 120.367C117.059 120.367 117.318 120.367 117.705 120.367C118.092 120.367 118.221 120.237 118.221 119.849C118.221 119.849 118.221 119.849 118.221 119.72C118.221 119.202 118.221 118.556 118.221 118.038C118.221 118.038 118.221 117.909 118.35 117.909C118.479 117.909 118.479 117.909 118.479 118.038C118.996 118.685 119.383 119.202 119.899 119.849C120.158 120.237 120.545 120.496 121.061 120.496C121.449 120.496 121.836 120.496 122.094 120.496C122.223 120.496 122.352 120.367 122.223 120.237C122.352 119.979 122.352 119.849 122.223 119.849Z" fill="#CE132C"/>
<path d="M137.972 113.511C137.585 113.511 137.198 113.511 136.681 113.64C136.423 113.769 136.165 113.899 135.907 114.028C135.907 113.899 135.907 113.899 135.907 113.769C135.907 113.511 135.778 113.381 135.52 113.381C135.132 113.381 134.745 113.381 134.229 113.381C133.971 113.381 133.841 113.511 133.841 113.769C133.841 113.899 133.841 114.158 133.841 114.287C133.841 115.192 133.841 116.098 133.841 117.004C133.841 117.909 133.841 118.815 133.841 119.85C133.841 120.108 133.971 120.238 134.229 120.238C134.616 120.238 134.874 120.238 135.261 120.238C135.649 120.238 135.778 120.108 135.778 119.72C135.778 119.332 135.778 118.815 135.778 118.427C135.778 117.909 135.778 117.392 135.778 116.874C135.778 115.969 136.036 115.581 136.811 115.451C137.069 115.451 137.456 115.322 137.714 115.322C137.972 115.322 138.101 115.063 138.101 114.934C138.101 114.675 138.101 114.287 138.101 114.028C138.36 113.64 138.231 113.511 137.972 113.511Z" fill="#CE132C"/>
<path d="M125.321 114.028C125.321 113.77 125.192 113.77 125.063 113.77C124.547 113.77 124.16 113.77 123.643 113.77C123.385 113.77 123.256 113.899 123.256 114.158C123.256 114.546 123.256 115.063 123.256 115.451C123.256 117.004 123.256 118.556 123.256 120.108C123.256 120.367 123.385 120.496 123.643 120.496C124.03 120.496 124.418 120.496 124.805 120.496C125.192 120.496 125.321 120.496 125.321 119.979C125.321 119.85 125.321 119.591 125.321 119.332C125.321 117.909 125.321 116.486 125.321 115.063C125.321 114.675 125.321 114.287 125.321 114.028Z" fill="#CE132C"/>
<path d="M124.547 108.983C125.063 108.983 125.58 109.241 125.967 109.629C126.741 110.276 126.741 111.311 125.967 111.958C125.063 112.734 123.385 112.864 122.481 111.958C121.578 111.182 121.707 110.018 122.61 109.371C123.256 109.112 123.901 108.983 124.547 108.983Z" fill="#74C0D1"/>
<defs>
<linearGradient id="paint0_linear_28_1034" x1="281.091" y1="179.589" x2="256.573" y2="152.282" gradientUnits="userSpaceOnUse">
<stop stop-color="#FF8E00"/>
<stop offset="1" stop-color="#FFCF01"/>
</linearGradient>
</defs>
</svg>
