<svg id="Capa_1" data-name="Capa 1" xmlns="http://www.w3.org/2000/svg" viewBox="0 0 128 128"><defs><style>.cls-1{fill:#c21a30;}.cls-2{fill:#c21b31;}.cls-3{fill:#c92c3b;}.cls-4{fill:#fefdfd;}.cls-5{fill:#fefdfc;}.cls-6{fill:#92d0dd;}.cls-7{fill:#fbf0ec;}.cls-8{fill:#c31d31;}.cls-9{fill:#c9333f;}</style></defs><path class="cls-1" d="M60.9,25.5c.44-.91.71-1.54,1-2.14a14.61,14.61,0,0,1,12.46-8.27,175.44,175.44,0,0,1,27.22-.26A49,49,0,0,1,108.51,16c7.11,1.62,11.1,6.06,12.09,12.89A88.33,88.33,0,0,1,121.46,39q.29,9.15.24,18.31c0,6.38-1.92,12.13-6.82,16.69a20.34,20.34,0,0,1-14.23,5.56c-8.42,0-16.84,0-25.26,0a12.5,12.5,0,0,0-7.12,2c-3.51,2.32-4.58,6.15-3.16,11,.22.73.47,1.45.8,2.49-5.72-4.08-10.73-8.31-13.32-14.78H48.1q-13-.08-25.92-.18C12.89,80,6.43,75.66,2.47,67.79a22.47,22.47,0,0,1-2.34-10C.06,52.1-.07,46.37.05,40.66A78.89,78.89,0,0,1,1,28.86C2.37,21,6.67,17.12,15,15.55c6.76-1.28,13.6-1.1,20.44-1.05,3.86,0,7.73.27,11.6.25,8,0,11.76,4.56,13.58,9.73C60.65,24.71,60.72,25,60.9,25.5ZM84.78,49.79h.09c0,.6.06,1.2.1,1.81.28,4.87,3.14,8.09,8.14,9.1a25.11,25.11,0,0,0,10.18,0c4.08-.86,7-3,7.76-7.11a19.89,19.89,0,0,0,.29-5.76c-.52-5-3.1-7.71-7.91-8.74a24.83,24.83,0,0,0-10.44,0c-3.9.84-6.67,2.94-7.63,6.79C85,47.14,85,48.48,84.78,49.79ZM67.27,52c-.2-2.34-.26-4.57-.62-6.75-.55-3.43-2.78-5.46-6.3-6.21a22,22,0,0,0-9.89.16c-4.07,1-6.76,3.45-7.24,7.53a28.46,28.46,0,0,0,.15,6.9c.47,3.62,2.92,5.79,6.46,6.83a19.61,19.61,0,0,0,4.11.68c4.13.27,8.17.08,11.75-2.32.92-.61,1.29-1.11.4-2a18.2,18.2,0,0,1-1.59-1.92,1.33,1.33,0,0,0-2.07-.3c-2.71,1.85-5.76,2-8.9,1.47A4,4,0,0,1,49.9,52Zm-48-7.31-.54-.41c0-1.59,0-3.18,0-4.77,0-1.16-.55-1.74-1.81-1.69-1.08,0-2.16,0-3.24,0s-1.66.46-1.66,1.54q0,10.26,0,20.52c0,.94.44,1.34,1.37,1.34,1.31,0,2.61,0,3.92,0a1.23,1.23,0,0,0,1.43-1.33c0-.61,0-1.21,0-1.81V52.53c2.22,2.72,4.16,5.13,6.14,7.53.29.35.69.87,1.06.89,2.18.08,4.36,0,6.54,0l.32-.35L23.64,48.21l8.63-9.33-.3-.47c-1.83,0-3.66-.09-5.48,0a3.74,3.74,0,0,0-2.09.93C22.63,41.08,21,42.89,19.3,44.65Zm56.3-4.11c-.29-1.88-.41-2-2.3-2-1.12,0-2.25,0-3.37,0s-1.47.41-1.47,1.39q0,10.06,0,20.12c0,.83.39,1.18,1.23,1.17h3.78c1.84,0,2-.16,2-1.89,0-3.4,0-6.8,0-10.2,0-2.57,1.14-3.77,3.78-4.22a15.61,15.61,0,0,1,2.82-.19c1.05,0,1.47-.47,1.48-1.4,0-1.16,0-2.32,0-3.48s-.59-1.32-1.44-1.26C79.84,38.77,77.47,38.86,75.6,40.54Zm-34,9.19c0-3.17,0-6.35,0-9.53,0-1.16-.42-1.77-1.74-1.7s-2.52,0-3.78,0c-1.11,0-1.52.54-1.6,1.48,0,.26,0,.52,0,.77v18c0,2.19.11,2.29,2.46,2.3h2.69c1.77,0,1.95-.16,2-1.82ZM38.38,35.14a9.28,9.28,0,0,0,6.09-2,5,5,0,0,0,.73-7.27c-2.76-3.36-9.08-3.77-12.5-.8a5,5,0,0,0,.1,8.18A8.87,8.87,0,0,0,38.38,35.14Z"/><path class="cls-1" d="M78.67,81.61a11.08,11.08,0,0,1,6.66,2.63,6.48,6.48,0,0,1,.44,9.94c-4,4-11.83,4.08-15.93.22-3.4-3.2-3.13-7.69.64-10.52C72.43,82.41,74.93,81.62,78.67,81.61Z"/><path class="cls-2" d="M92.48,94.27a8.44,8.44,0,0,1,4.75,1.42c2.76,1.75,2.84,5,.36,7.14a8.41,8.41,0,0,1-10.39-.2,4.19,4.19,0,0,1,.08-6.58,7.51,7.51,0,0,1,5.18-1.82C92.51,94.11,92.43,94.39,92.48,94.27Z"/><path class="cls-3" d="M124.19,24.88a3.63,3.63,0,0,1-3.83-3.63,3.83,3.83,0,0,1,7.64.12A3.6,3.6,0,0,1,124.19,24.88ZM126,23.3a2.72,2.72,0,0,0,.08-4,2.89,2.89,0,0,0-3.79-.06,2.8,2.8,0,0,0-.18,4,2.72,2.72,0,0,0,3.91.09Z"/><path class="cls-4" d="M84.78,49.79c.19-1.31.26-2.65.58-3.94,1-3.85,3.73-6,7.63-6.79a24.83,24.83,0,0,1,10.44,0c4.81,1,7.39,3.79,7.91,8.74a19.89,19.89,0,0,1-.29,5.76c-.79,4.07-3.68,6.25-7.76,7.11a25.11,25.11,0,0,1-10.18,0c-5-1-7.86-4.23-8.14-9.1,0-.61-.07-1.21-.1-1.81Zm13.44-5.9c-3.32,0-5.37,1.19-5.89,3.62a13.84,13.84,0,0,0-.24,3.58c.13,2,.81,3.69,2.89,4.59,4.85,2.11,9.3-.5,9.41-5.54C104.48,45.93,102.47,43.9,98.22,43.89Z"/><path class="cls-5" d="M67.27,52H49.9A4,4,0,0,0,53.53,56c3.14.53,6.19.38,8.9-1.47a1.33,1.33,0,0,1,2.07.3,18.2,18.2,0,0,0,1.59,1.92c.89.89.52,1.39-.4,2-3.58,2.4-7.62,2.59-11.75,2.32a19.61,19.61,0,0,1-4.11-.68c-3.54-1-6-3.21-6.46-6.83a28.46,28.46,0,0,1-.15-6.9c.48-4.08,3.17-6.53,7.24-7.53A22,22,0,0,1,60.35,39c3.52.75,5.75,2.78,6.3,6.21C67,47.39,67.07,49.62,67.27,52Zm-6.64-4.41c-.17-3.19-1.72-4.28-5.68-4.13-3.21.13-5.11,1.68-5,4.13Z"/><path class="cls-4" d="M19.3,44.65c1.69-1.76,3.33-3.57,5.1-5.27a3.74,3.74,0,0,1,2.09-.93c1.82-.13,3.65,0,5.48,0l.3.47-8.63,9.33,9.18,12.43L32.5,61c-2.18,0-4.36,0-6.54,0-.37,0-.77-.54-1.06-.89-2-2.4-3.92-4.81-6.14-7.53v5.52c0,.6,0,1.2,0,1.81a1.23,1.23,0,0,1-1.43,1.33c-1.31,0-2.61,0-3.92,0-.93,0-1.37-.4-1.37-1.34q0-10.26,0-20.52c0-1.08.55-1.56,1.66-1.54s2.16,0,3.24,0c1.26-.05,1.82.53,1.81,1.69,0,1.59,0,3.18,0,4.77Z"/><path class="cls-5" d="M75.6,40.54c1.87-1.68,4.24-1.77,6.56-1.95.85-.06,1.48.24,1.44,1.26s0,2.32,0,3.48c0,.93-.43,1.41-1.48,1.4a15.61,15.61,0,0,0-2.82.19c-2.64.45-3.74,1.65-3.78,4.22,0,3.4,0,6.8,0,10.2,0,1.73-.17,1.89-2,1.89H69.69c-.84,0-1.23-.34-1.23-1.17q0-10.05,0-20.12c0-1,.43-1.42,1.47-1.39s2.25,0,3.37,0C75.19,38.56,75.31,38.66,75.6,40.54Z"/><path class="cls-4" d="M41.63,49.73v9.54c0,1.66-.19,1.82-2,1.82H37c-2.35,0-2.46-.11-2.46-2.3v-18c0-.25,0-.51,0-.77.08-.94.49-1.52,1.6-1.48,1.26,0,2.52.06,3.78,0s1.74.54,1.74,1.7C41.61,43.38,41.63,46.56,41.63,49.73Z"/><path class="cls-6" d="M38.38,35.14a8.87,8.87,0,0,1-5.58-1.92A5,5,0,0,1,32.7,25c3.42-3,9.74-2.56,12.5.8a5,5,0,0,1-.73,7.27A9.28,9.28,0,0,1,38.38,35.14Z"/><path class="cls-7" d="M126.05,23.28a2.72,2.72,0,0,1-3.91-.09,2.8,2.8,0,0,1,.18-4,2.89,2.89,0,0,1,3.79.06,2.72,2.72,0,0,1-.08,4c-.08-.9-1-1.72-.25-2.71.1-.14-.12-.73-.28-.76a8.06,8.06,0,0,0-2.33-.26c-.17,0-.31.83-.41,1.29a1.67,1.67,0,0,0,0,.77c.12.52.29,1,.44,1.54l.77-1.49c.24.2.68.4.72.66C124.83,23.15,125.43,23.19,126.05,23.28Z"/><path class="cls-2" d="M98.22,43.89c4.25,0,6.26,2,6.17,6.25-.11,5-4.56,7.65-9.41,5.54-2.08-.9-2.76-2.62-2.89-4.59a13.84,13.84,0,0,1,.24-3.58C92.85,45.08,94.9,43.88,98.22,43.89Z"/><path class="cls-8" d="M60.63,47.55H49.91c-.07-2.45,1.83-4,5-4.13C58.91,43.27,60.46,44.36,60.63,47.55Z"/><path class="cls-9" d="M126.05,23.28c-.62-.09-1.22-.13-1.36-.94,0-.26-.48-.46-.72-.66l-.77,1.49c-.15-.51-.32-1-.44-1.54a1.67,1.67,0,0,1,0-.77c.1-.46.24-1.28.41-1.29a8.06,8.06,0,0,1,2.33.26c.16,0,.38.62.28.76-.72,1,.17,1.81.25,2.71Z"/></svg>