<svg xmlns="http://www.w3.org/2000/svg" viewBox="0 0 882.73 401.99"><defs><style>.cls-1{fill:#fff;}.cls-2{fill:none;stroke:#000;stroke-miterlimit:10;stroke-width:3px;}</style></defs><g id="OBJECTS"><path class="cls-1" d="M128.35,119.13,178.4,57.81q7.41-9.16,14.1-9.87l11.63-1.06V18.33H121.66v30l19.74,1.06-71.9,87.4V59.21Q69.5,49,79.71,47.94l11.64-1.06V18.33H6.76v30l20.09,1.06V211.47q0,6.34-2.46,8.63c-1.65,1.53-4.23,2.53-7.76,3L5,224.16V252.7H89.59V222.75L69.5,221.69V188.91l31-37.36,34.89,60.27a13.61,13.61,0,0,1,1.77,5.64q0,4.93-7.06,5.64l-10.92,1.06V252.7h90.23V222.75l-18.68-1.06Z"/><path class="cls-1" d="M288.36,75.42H225.27v29.26l12.34.71c3.28,0,5.58.7,6.87,2.11s1.94,4.11,1.94,8.1v98q0,10.23-10.22,11.28l-11.64,1.06V252.7h83.89V224.51l-20.09-1.06Z"/><path class="cls-1" d="M263.34,52.17q12,0,19.56-7.23t7.57-18.51A25.61,25.61,0,0,0,282.9,7.58Q275.31,0,263.34,0T244,7.58a26,26,0,0,0-7.4,18.85q0,11.3,7.4,18.51T263.34,52.17Z"/><path class="cls-1" d="M418.4,224.51q-21.84,0-32.42-11.45t-11.63-30.14q29.61,0,53.22-7a87,87,0,0,0,24-10.93,54.09,54.09,0,0,0,16.56-18.5q6.69-11.81,6.7-27.31,0-23.26-15.51-36.13T417.35,70.14q-41.24,0-64.14,28.2t-22.92,69.78q0,41.58,20.1,65.37t63.08,23.79q21.5,0,38.24-6.69t23.79-13L462.11,209Q440.26,224.51,418.4,224.51ZM384.57,115.78q10.57-15.68,30.31-15.68,21.15,0,21.15,21.49,0,10.93-10.93,18.86a56.93,56.93,0,0,1-23.79,10.22,186.81,186.81,0,0,1-28.37,2.65Q374,131.47,384.57,115.78Z"/><path class="cls-1" d="M577,79.13a54.66,54.66,0,0,0-19.74,22.73V75.42H497.71V104l14.8,1c3.28.24,5.58,1.12,6.87,2.64s1.94,4.18,1.94,7.93v97.63c0,4.23-.83,7.11-2.47,8.64s-4.23,2.52-7.75,3l-11.63,1.06V252.7h94.45V224.86l-30.66-1.41V141.69q0-15.51,9-25.56t23.08-10a23.06,23.06,0,0,1,9.52,1.76q3.51,1.75,3.52,8.81v16.21l32.78-2.46V77.89a75,75,0,0,0-33.3-7.75Q590.39,70.14,577,79.13Z"/><path class="cls-1" d="M811.91,119q-5.8-17.08-14.1-26.08T774.91,77q-14.64-6.87-35.78-6.87-30.3,0-55.33,19Q670.77,99.4,663,118.6t-7.76,45.29q0,46.53,20.8,70.31T733.67,258q36.83,0,60.45-25t23.61-73.66Q817.73,136,811.91,119Zm-75.6,108q-12,0-20.08-5.64Q697.9,208.65,697.9,159q0-26.77,9.52-42.29t29.78-15.5q20.25,0,28.9,16.2t8.63,47.58Q774.73,227,736.31,227Z"/><path d="M105.64,289.44c-.1-3.18,1.35-4.93,4.34-5.23l4.93-.44V271.66H85.33L59.79,339.18h-.3l-25.4-67.52h-30v12.7l9.11.6-4,69.46c-.2,2.49-1.45,3.84-3.74,4L0,358.9V371H35.29V358.31l-9.71-.45,3-55.42h.3l22.7,59H65.76l23-59.6h.29l2.84,52.73c.1,2.39-1.19,3.69-3.88,3.88l-5.38.45V371h36V358.31l-9.26-.45Z"/><path d="M194.45,357.71a5,5,0,0,1-.82-3.29V298.85A75.55,75.55,0,0,0,167,293.63q-19.72,0-29.58,11.35t-9.86,31.66q0,16.89,7.32,26.59t22.56,9.71a23.61,23.61,0,0,0,20.46-10.75l.45.15V371h23.75V359.05l-4.78-.3A4.28,4.28,0,0,1,194.45,357.71ZM176.3,347.25a12.13,12.13,0,0,1-4.18,9,15,15,0,0,1-10.76,4q-15.54,0-15.53-24.2,0-13.29,4.48-21.36t14.49-8.07q7.32,0,11.5,1.94Z"/><path d="M244.12,297.43a23.19,23.19,0,0,0-8.37,9.64V295.86H210.51V308l6.27.44a4.1,4.1,0,0,1,2.91,1.12,5.26,5.26,0,0,1,.82,3.36v41.38c0,1.79-.35,3-1,3.66a5.9,5.9,0,0,1-3.29,1.27l-4.93.45V371h40V359.2l-13-.6V324a15.64,15.64,0,0,1,3.81-10.83,12.53,12.53,0,0,1,9.78-4.26,9.75,9.75,0,0,1,4,.75c1,.5,1.49,1.74,1.49,3.73v6.87l13.89-1V296.91a31.72,31.72,0,0,0-14.11-3.28A22.88,22.88,0,0,0,244.12,297.43Z"/><path d="M327.91,332.31q11.2-8.81,13.15-24.05l7.17-.29V295.86H317.31v11.66l5.68.29c1.89,0,2.83.85,2.83,2.54a9.18,9.18,0,0,1-.44,2.4A21.71,21.71,0,0,1,317,324.1a28.75,28.75,0,0,1-14.34,5.07V264.49H276.08v12.4l5.23.3a4.28,4.28,0,0,1,2.91,1.05,4.91,4.91,0,0,1,.82,3.28v72.75c0,1.79-.35,3-1,3.66a5.93,5.93,0,0,1-3.29,1.27l-4.93.45V371h35.55V359.05l-8.51-.45h-.15V342a81.61,81.61,0,0,0,10.16-2.09l17,31.07h21.81V359.05l-9.12-.45Z"/><path d="M396.78,359.05q-9.27,0-13.75-4.85c-3-3.24-4.63-7.5-4.92-12.78a78.84,78.84,0,0,0,22.55-3,37.16,37.16,0,0,0,10.16-4.63,23.19,23.19,0,0,0,9.86-19.42q0-9.87-6.57-15.31t-17.78-5.45q-17.47,0-27.19,11.95t-9.71,29.57q0,17.63,8.52,27.71t26.74,10.08a43.39,43.39,0,0,0,16.2-2.84q7.1-2.84,10.09-5.52l-5.68-12.1Q406,359.05,396.78,359.05ZM382.44,313a14.56,14.56,0,0,1,12.84-6.65q9,0,9,9.11,0,4.63-4.63,8a24.26,24.26,0,0,1-10.09,4.33,80,80,0,0,1-12,1.12A30.49,30.49,0,0,1,382.44,313Z"/><path d="M467.21,359.5q-5,0-7.39-2.62c-1.6-1.74-2.39-4.8-2.39-9.18V308.41H475.8l1.49-12.55H457.43V280h-9.71a44.31,44.31,0,0,1-6.58,12.47q-3.58,4.41-10.6,5l-1.5,10.9h10.61V348.3c0,3,.05,5.25.15,6.79a31.34,31.34,0,0,0,1.34,6.35,13.41,13.41,0,0,0,3.44,6.13,20.74,20.74,0,0,0,6.87,3.81,33,33,0,0,0,11.35,1.71q11.51,0,19-5.22l-4.49-11.51A19.09,19.09,0,0,1,467.21,359.5Z"/><path d="M534.65,293.63a28.65,28.65,0,0,0-14.93,3.73c-4.19,2.49-7.07,5.23-8.67,8.22v-9.72H485.81V308l6.27.44a3.66,3.66,0,0,1,2.91,1,5.57,5.57,0,0,1,.82,3.51v72.3c0,1.8-.34,3-1,3.66a5.9,5.9,0,0,1-3.29,1.27l-4.92.45v11.35h38.53v-11.8l-12.1-.6V368.91a29.8,29.8,0,0,0,16,4.33q15.09,0,23.9-10.75t8.81-30.93Q561.69,293.63,534.65,293.63Zm4.41,57.95q-4.11,7.47-12.25,7.47A24.6,24.6,0,0,1,513,355.32V321a11.59,11.59,0,0,1,4.41-9,15.78,15.78,0,0,1,10.68-3.81q15.09,0,15.09,24.95Q543.17,344.12,539.06,351.58Z"/><path d="M599,264.49H572.3v12.4l5.23.3c2.48.2,3.73,1.4,3.73,3.59v73.64c0,2.89-1.45,4.48-4.33,4.78l-4.93.45V371h35.55V359.05L599,358.6Z"/><path d="M684.7,357.71a5,5,0,0,1-.82-3.29V298.85a75.51,75.51,0,0,0-26.59-5.22q-19.71,0-29.57,11.35t-9.86,31.66q0,16.89,7.32,26.59t22.55,9.71a23.61,23.61,0,0,0,20.47-10.75l.45.15V371H692.4V359.05l-4.78-.3A4.28,4.28,0,0,1,684.7,357.71Zm-18.15-10.46a12.13,12.13,0,0,1-4.18,9,15,15,0,0,1-10.75,4q-15.54,0-15.54-24.2,0-13.29,4.48-21.36t14.49-8.07q7.32,0,11.5,1.94Z"/><path d="M738.18,359.35q-9,0-13.82-7t-4.78-19.72q0-25.55,18.08-25.54a18.87,18.87,0,0,1,6,1c1.95.65,2.92,2.31,2.92,5v7.17l13.74-1V299.75a51,51,0,0,0-24.57-6.12q-13.23,0-23.75,9.93t-10.53,29.65q0,19.71,9.18,29.8t25.17,10.08q16,0,26.59-8.66L756,352.93Q747.21,359.35,738.18,359.35Z"/><path d="M828.33,352.48q-9.27,6.57-18.53,6.57t-13.74-4.85q-4.48-4.86-4.93-12.78a78.91,78.91,0,0,0,22.56-3,37.16,37.16,0,0,0,10.16-4.63,23.19,23.19,0,0,0,9.86-19.42q0-9.87-6.58-15.31t-17.77-5.45q-17.49,0-27.19,11.95t-9.71,29.57q0,17.63,8.51,27.71t26.74,10.08a43.4,43.4,0,0,0,16.21-2.84q7.1-2.84,10.08-5.52ZM795.46,313a14.58,14.58,0,0,1,12.85-6.65q9,0,9,9.11,0,4.63-4.63,8a24.28,24.28,0,0,1-10.08,4.33,80.1,80.1,0,0,1-12,1.12A30.58,30.58,0,0,1,795.46,313Z"/><circle class="cls-2" cx="847.36" cy="44.84" r="34.69"/><path d="M829.6,65.65V60.48l2.11-.19c1.23-.13,1.85-.72,1.85-1.79V28.81l-3.64-.19V23.19h17.43q7.41,0,11.36,2.75t4,9a11,11,0,0,1-2.26,7.15,13.41,13.41,0,0,1-5.4,4.09,6.6,6.6,0,0,1,3.64,3.89l4.6,10,3.64.13v5.42H851.12V60.48l1.85-.19c1-.13,1.47-.51,1.47-1.15a2,2,0,0,0-.26-.89l-3-6.39a5.78,5.78,0,0,0-1.56-2.26,3.93,3.93,0,0,0-2.46-.68h-5.81V60l4.15.2v5.42Zm11.75-22.79h5.55q7.86,0,7.85-7c0-2.69-.69-4.43-2.07-5.24s-3.61-1.21-6.67-1.21h-4.66Z"/></g></svg>