<svg xmlns="http://www.w3.org/2000/svg" viewBox="0 0 2834 547"><defs><style>.cls-1{fill:#fff;}.cls-2{fill:none;stroke:#000;stroke-miterlimit:10;stroke-width:3px;}</style></defs><g id="OBJECTS"><path class="cls-1" d="M123.35,254.9l50.05-61.33q7.41-9.16,14.1-9.87l11.63-1V154.09H116.66v30l19.74,1.05L64.5,272.52V195q0-10.22,10.21-11.28l11.64-1V154.09H1.76v30l20.09,1.05V347.24c0,4.23-.82,7.1-2.46,8.63s-4.23,2.53-7.76,3L0,359.93v28.54H84.59v-30L64.5,357.46V324.68l31-37.36,34.89,60.27a13.61,13.61,0,0,1,1.77,5.64q0,4.93-7.06,5.64l-10.92,1.06v28.54h90.23v-30l-18.68-1.06Z"/><path class="cls-1" d="M283.36,211.19H220.27v29.25l12.34.71c3.28,0,5.58.7,6.87,2.11s1.94,4.12,1.94,8.11v98q0,10.23-10.22,11.28l-11.64,1.06v26.78h83.89V360.28l-20.09-1.06Z"/><path class="cls-1" d="M258.34,187.93q12,0,19.56-7.22t7.57-18.51a25.59,25.59,0,0,0-7.57-18.85q-7.59-7.57-19.56-7.58T239,143.35a25.93,25.93,0,0,0-7.4,18.85q0,11.3,7.4,18.51T258.34,187.93Z"/><path class="cls-1" d="M413.4,360.28q-21.84,0-32.42-11.46t-11.63-30.13q29.61,0,53.22-7.05a87,87,0,0,0,24-10.93,54.09,54.09,0,0,0,16.56-18.5q6.69-11.81,6.7-27.31,0-23.27-15.51-36.13t-41.94-12.86q-41.24,0-64.14,28.19t-22.92,69.79q0,41.58,20.1,65.37t63.08,23.79q21.5,0,38.24-6.7t23.79-13l-13.39-28.54Q435.26,360.28,413.4,360.28ZM379.57,251.55q10.57-15.68,30.31-15.69,21.15,0,21.15,21.5,0,10.93-10.93,18.86a56.93,56.93,0,0,1-23.79,10.22,185.6,185.6,0,0,1-28.37,2.64Q369,267.24,379.57,251.55Z"/><path class="cls-1" d="M572,214.89a54.68,54.68,0,0,0-19.74,22.74V211.19H492.71v28.55l14.8,1.06c3.28.23,5.58,1.12,6.87,2.64s1.94,4.18,1.94,7.93V349c0,4.23-.83,7.1-2.47,8.63s-4.23,2.53-7.75,3l-11.63,1.06v26.78h94.45V360.63l-30.66-1.41V277.45q0-15.49,9-25.55t23.08-10.05a23.06,23.06,0,0,1,9.52,1.76q3.51,1.77,3.52,8.82v16.21l32.78-2.46V213.66a75,75,0,0,0-33.3-7.75Q585.39,205.91,572,214.89Z"/><path class="cls-1" d="M806.91,254.72q-5.8-17.08-14.1-26.08t-22.9-15.86q-14.64-6.87-35.78-6.87-30.3,0-55.33,19-13,10.22-20.79,29.43t-7.76,45.29q0,46.51,20.8,70.31t57.62,23.79q36.83,0,60.45-25t23.61-73.67Q812.73,271.82,806.91,254.72Zm-75.6,108q-12,0-20.08-5.64-18.33-12.69-18.33-62.39,0-26.78,9.52-42.29t29.78-15.51q20.25,0,28.9,16.21t8.63,47.58Q769.73,362.75,731.31,362.75Z"/><path d="M1067.75,196.27q-.36-11.34,10.29-12.41l11.71-1.06V154.06h-70.24L958.85,314.4h-.71L897.83,154.06h-71.3v30.16l21.64,1.41-9.58,165q-.71,8.87-8.87,9.58L817,361.23V390h83.72V359.81l-23.06-1.06,7.1-131.61h.71l53.92,140.12H973l54.63-141.54h.71l6.74,125.22q.35,8.52-9.23,9.23l-12.77,1.06V390h85.5V359.81l-22-1.06Z"/><path d="M1278.65,358.4c-1.31-1.42-2-4-2-7.81v-132q-33-12.41-63.14-12.41-46.83,0-70.23,27t-23.42,75.2q0,40.1,17.38,63.15t53.57,23.05q30.86,0,48.6-25.54l1.06.36V390h56.41V361.59l-11.35-.72C1282.25,360.64,1280,359.81,1278.65,358.4Zm-43.11-24.84q0,12.06-9.93,21.46t-25.54,9.4q-36.9,0-36.89-57.47,0-31.56,10.64-50.72t34.41-19.16q17.38,0,27.31,4.61Z"/><path d="M1396.59,215.25a55.08,55.08,0,0,0-19.86,22.88v-26.6h-60v28.74l14.9,1q5,.36,6.92,2.67t1.94,8v98.26q0,6.39-2.48,8.69t-7.8,3L1318.55,363v27h95.07v-28l-30.86-1.42v-82.3q0-15.6,9-25.72T1415,242.39a23.18,23.18,0,0,1,9.58,1.77q3.54,1.78,3.54,8.88v16.31l33-2.48V214a75.59,75.59,0,0,0-33.53-7.8Q1410.07,206.21,1396.59,215.25Z"/><path d="M1595.59,298.09q26.61-20.94,31.22-57.12l17-.7V211.53h-73.43V239.2l13.48.71q6.73,0,6.74,6a21.35,21.35,0,0,1-1.06,5.68,51.45,51.45,0,0,1-19.87,27q-14.55,10.29-34,12.05V137H1472.5v29.45l12.42.71c3.3.24,5.61,1.06,6.92,2.48s2,4,2,7.8V350.23c0,4.26-.84,7.16-2.49,8.69s-4.26,2.55-7.8,3L1471.79,363v27h84.43V361.59L1536,360.52h-.35V321.14a197.73,197.73,0,0,0,24.12-5L1600.21,390H1652V361.59l-21.64-1.07Z"/><path d="M1759.13,361.59q-22,0-32.64-11.53t-11.7-30.34q29.81,0,53.57-7.09a87.52,87.52,0,0,0,24.12-11A54.51,54.51,0,0,0,1809.15,283q6.74-11.88,6.74-27.49,0-23.42-15.6-36.36t-42.22-12.95q-41.5,0-64.56,28.38t-23.07,70.24q0,41.85,20.23,65.8t63.5,23.94q21.63,0,38.48-6.74t23.95-13.12L1803.12,346Q1781.12,361.58,1759.13,361.59Zm-34.05-109.44q10.64-15.78,30.51-15.79,21.29,0,21.28,21.64,0,11-11,19a57.52,57.52,0,0,1-23.94,10.29,188,188,0,0,1-28.56,2.66Q1714.44,267.94,1725.08,252.15Z"/><path d="M1926.39,362.65q-11.9,0-17.55-6.21t-5.68-21.81V241.32h43.63l3.55-29.79h-47.18v-37.6H1880.1q-7.1,19.15-15.61,29.62t-25.19,11.88l-3.54,25.89H1861v94.73q0,10.63.35,16.13a73.24,73.24,0,0,0,3.19,15.08q2.84,9.57,8.16,14.54t16.32,9.05q11,4.06,27,4.08,27.32,0,45-12.41l-10.64-27.32Q1938.28,362.66,1926.39,362.65Z"/><path d="M2086.56,206.21q-20.58,0-35.47,8.87t-20.58,19.51V211.53h-60v28.74l14.9,1c3.31,0,5.62.78,6.91,2.31s2,4.32,2,8.34v171.7q0,6.38-2.47,8.69c-1.66,1.53-4.26,2.54-7.81,3l-11.71,1.07v26.95h91.53v-28L2035.12,434V385q16.68,10.31,38,10.3,35.82,0,56.76-25.54t20.93-73.44Q2150.77,206.21,2086.56,206.21ZM2097,343.85q-9.75,17.75-29.08,17.74t-32.82-8.87V271.13q0-12.42,10.47-21.47t25.36-9q35.82,0,35.83,59.24Q2106.78,326.13,2097,343.85Z"/><path d="M2239.45,137H2176v29.45l12.42.71q8.87.7,8.86,8.51V350.59q0,10.29-10.28,11.35L2175.24,363v27h84.43V361.59l-20.22-1.07Z"/><path d="M2442.9,358.4c-1.31-1.42-2-4-2-7.81v-132q-33-12.41-63.14-12.41-46.83,0-70.24,27t-23.41,75.2q0,40.1,17.38,63.15t53.56,23.05q30.87,0,48.61-25.54l1.06.36V390h56.41V361.59l-11.36-.72C2446.5,360.64,2444.2,359.81,2442.9,358.4Zm-43.11-24.84q0,12.06-9.93,21.46t-25.54,9.4q-36.9,0-36.89-57.47,0-31.56,10.64-50.72t34.41-19.16q17.37,0,27.31,4.61Z"/><path d="M2569.89,362.29q-21.46,0-32.82-16.66t-11.35-46.84q0-60.65,42.92-60.66a45.05,45.05,0,0,1,14.37,2.31q6.91,2.31,6.92,11.88v17l32.64-2.48V220.75a121.09,121.09,0,0,0-58.36-14.54q-31.39,0-56.4,23.59t-25,70.41q0,46.83,21.83,70.78t59.77,23.94q38,0,63.14-20.57L2612.28,347Q2591.34,362.29,2569.89,362.29Z"/><path d="M2784,346q-22,15.6-44,15.61t-32.64-11.53q-10.64-11.54-11.7-30.34,29.79,0,53.56-7.09a87.59,87.59,0,0,0,24.13-11A54.51,54.51,0,0,0,2790,283q6.73-11.88,6.74-27.49,0-23.42-15.61-36.36t-42.21-12.95q-41.51,0-64.56,28.38t-23.07,70.24q0,41.85,20.23,65.8t63.5,23.94q21.63,0,38.48-6.74t23.95-13.12Zm-78-93.83q10.65-15.78,30.51-15.79,21.29,0,21.29,21.64,0,11-11,19a57.51,57.51,0,0,1-23.95,10.29,187.7,187.7,0,0,1-28.55,2.66Q2695.29,267.94,2705.92,252.15Z"/><circle class="cls-2" cx="2799.31" cy="137.94" r="34.69"/><path d="M2781.54,158.75v-5.17l2.11-.19c1.24-.13,1.85-.72,1.85-1.79V121.91l-3.64-.19v-5.43h17.43q7.41,0,11.37,2.75t4,9a11,11,0,0,1-2.27,7.15,13.28,13.28,0,0,1-5.4,4.09,6.57,6.57,0,0,1,3.64,3.89l4.6,10,3.64.13v5.42h-15.77v-5.17l1.85-.19c1-.13,1.47-.51,1.47-1.15a2,2,0,0,0-.26-.89l-3-6.39a5.78,5.78,0,0,0-1.56-2.26,3.91,3.91,0,0,0-2.46-.68h-5.81v11.11l4.15.2v5.42ZM2793.29,136h5.56q7.84,0,7.85-7c0-2.69-.69-4.43-2.08-5.24s-3.6-1.21-6.67-1.21h-4.66Z"/></g></svg>