<svg xmlns="http://www.w3.org/2000/svg" xmlns:xlink="http://www.w3.org/1999/xlink" viewBox="0 0 379.38 617.47"><defs><style>.cls-1{fill:none;}.cls-2{fill:#fff;}.cls-3{fill:url(#Degradado_sin_nombre_10);}.cls-4{fill:#1f264c;}.cls-5{fill:url(#Degradado_sin_nombre_8);}.cls-6{fill:url(#Degradado_sin_nombre_10-2);}.cls-7{fill:url(#Degradado_sin_nombre_8-2);}.cls-8{fill:#1d3b4c;}.cls-9{fill:url(#Degradado_sin_nombre_10-3);}.cls-10{fill:url(#Degradado_sin_nombre_8-3);}.cls-11{fill:url(#Degradado_sin_nombre_10-4);}.cls-12{fill:url(#Degradado_sin_nombre_8-4);}.cls-13{fill:#333;}.cls-14{opacity:0.3;}.cls-15{fill:#daeef7;}.cls-16{fill:url(#Degradado_sin_nombre_88);}.cls-17{fill:url(#Degradado_sin_nombre_33);}.cls-18{fill:url(#Degradado_sin_nombre_88-2);}.cls-19{fill:url(#Degradado_sin_nombre_33-2);}.cls-20{fill:url(#Degradado_sin_nombre_88-3);}.cls-21{fill:url(#Degradado_sin_nombre_33-3);}.cls-22{fill:url(#Degradado_sin_nombre_88-4);}.cls-23{fill:url(#Degradado_sin_nombre_33-4);}.cls-24{clip-path:url(#clip-path);}.cls-25{fill:#fcbdb6;}.cls-26{fill:#8bc0cc;}.cls-27{fill:#ba1e3f;}.cls-28{fill:#770c26;}.cls-29{fill:#091542;}</style><linearGradient id="Degradado_sin_nombre_10" x1="709.82" y1="1391.58" x2="671.16" y2="1393.55" gradientTransform="translate(223.92 -1244.4) rotate(23.18)" gradientUnits="userSpaceOnUse"><stop offset="0" stop-color="#6c9"/><stop offset="0.21" stop-color="#62c895"/><stop offset="0.41" stop-color="#58bc89"/><stop offset="0.62" stop-color="#45a875"/><stop offset="0.82" stop-color="#2c8d5a"/><stop offset="1" stop-color="#0f6d3a"/></linearGradient><linearGradient id="Degradado_sin_nombre_8" x1="673.87" y1="1328.44" x2="663.26" y2="1447.98" gradientTransform="translate(223.92 -1244.4) rotate(23.18)" gradientUnits="userSpaceOnUse"><stop offset="0" stop-color="#6c9"/><stop offset="1" stop-color="#0f6d3a"/></linearGradient><linearGradient id="Degradado_sin_nombre_10-2" x1="1004.81" y1="520.2" x2="965.26" y2="522.21" gradientTransform="translate(-95.03 -694.35) rotate(39.99)" xlink:href="#Degradado_sin_nombre_10"/><linearGradient id="Degradado_sin_nombre_8-2" x1="968.7" y1="457.21" x2="958.06" y2="577.12" gradientTransform="translate(-95.03 -694.35) rotate(39.99)" xlink:href="#Degradado_sin_nombre_8"/><linearGradient id="Degradado_sin_nombre_10-3" x1="-3930.57" y1="4647.98" x2="-3969.23" y2="4649.96" gradientTransform="matrix(-0.65, 0.76, 0.76, 0.65, -6035.86, 263.62)" xlink:href="#Degradado_sin_nombre_10"/><linearGradient id="Degradado_sin_nombre_8-3" x1="-3966.52" y1="4584.85" x2="-3977.13" y2="4704.38" gradientTransform="matrix(-0.65, 0.76, 0.76, 0.65, -6035.86, 263.62)" xlink:href="#Degradado_sin_nombre_8"/><linearGradient id="Degradado_sin_nombre_10-4" x1="-2495.39" y1="4979.57" x2="-2534.94" y2="4981.59" gradientTransform="matrix(-0.41, 0.91, 0.91, 0.41, -5508.6, 618.98)" xlink:href="#Degradado_sin_nombre_10"/><linearGradient id="Degradado_sin_nombre_8-4" x1="-2531.5" y1="4916.59" x2="-2542.14" y2="5036.49" gradientTransform="matrix(-0.41, 0.91, 0.91, 0.41, -5508.6, 618.98)" xlink:href="#Degradado_sin_nombre_8"/><linearGradient id="Degradado_sin_nombre_88" x1="287.07" y1="-360.25" x2="385.83" y2="-459.01" gradientTransform="translate(-197.66 420.05) rotate(12.66)" gradientUnits="userSpaceOnUse"><stop offset="0.01" stop-color="#003f68"/><stop offset="0.18" stop-color="#044d77"/><stop offset="0.5" stop-color="#0f739d"/><stop offset="0.93" stop-color="#20b0db"/><stop offset="1" stop-color="#23bbe6"/></linearGradient><linearGradient id="Degradado_sin_nombre_33" x1="290.15" y1="-363.17" x2="388.9" y2="-461.93" gradientTransform="translate(-197.66 420.05) rotate(12.66)" gradientUnits="userSpaceOnUse"><stop offset="0" stop-color="#a0dbd2"/><stop offset="1" stop-color="#1bbcef"/></linearGradient><linearGradient id="Degradado_sin_nombre_88-2" x1="-1884.63" y1="2471.58" x2="-1822.41" y2="2409.36" gradientTransform="translate(346.58 -2891.28) rotate(-31.73)" xlink:href="#Degradado_sin_nombre_88"/><linearGradient id="Degradado_sin_nombre_33-2" x1="-1882.69" y1="2469.74" x2="-1820.48" y2="2407.52" gradientTransform="translate(346.58 -2891.28) rotate(-31.73)" xlink:href="#Degradado_sin_nombre_33"/><linearGradient id="Degradado_sin_nombre_88-3" x1="-6112.29" y1="-148.86" x2="-6066.12" y2="-195.03" gradientTransform="matrix(-0.85, -0.53, -0.53, 0.85, -4920.18, -2906.17)" xlink:href="#Degradado_sin_nombre_88"/><linearGradient id="Degradado_sin_nombre_33-3" x1="-6110.85" y1="-150.22" x2="-6064.68" y2="-196.4" gradientTransform="matrix(-0.85, -0.53, -0.53, 0.85, -4920.18, -2906.17)" xlink:href="#Degradado_sin_nombre_33"/><linearGradient id="Degradado_sin_nombre_88-4" x1="-1814.81" y1="3823.7" x2="-1779.16" y2="3788.05" gradientTransform="translate(96.08 -4135.76) rotate(-25.36)" xlink:href="#Degradado_sin_nombre_88"/><linearGradient id="Degradado_sin_nombre_33-4" x1="-1813.7" y1="3822.65" x2="-1778.05" y2="3787" gradientTransform="translate(96.08 -4135.76) rotate(-25.36)" xlink:href="#Degradado_sin_nombre_33"/><clipPath id="clip-path"><rect class="cls-1" x="80.44" y="240.37" width="179.47" height="129.24"/></clipPath></defs><g id="Capa_2" data-name="Capa 2"><g id="Capa_1-2" data-name="Capa 1"><path class="cls-2" d="M90.55,300.29S0,212.51,90.28,136c51.06-43.27,7-50.39,14.85-96.22,9.65-56,194.05-70.75,170.54,76.63-15.32,96,103.65,32.64,68.79,149.21C299.39,416.32,90.55,300.29,90.55,300.29Z"/><path class="cls-3" d="M277.72,350.25c-1.62-4.58.47-9.62,3.8-13s7.74-5.6,11.87-8.08,8.19-5.46,10.2-9.76c3.72-8-.72-17.47-.43-26.34a25,25,0,0,1,1.1-6.56c5.52-18,23.49-33,43.38-31.35,2.61,0,4.95,2.68,4.05,4.79-1.75,4.79-8,6.54-10.09,11.46a3.62,3.62,0,0,0-.21,1.85c6.83,8.48,4.95,17.66-6.51,19.38a11.46,11.46,0,0,0-2.56,1.86,9.27,9.27,0,0,0-2.4,4.5,17.32,17.32,0,0,0-.35,5.28c.25,3.52,1.13,7,.94,10.53-.55,9.56-8.85,16.64-17.2,21.48s-17.76,8.92-23.16,16.77c-1.72,2.52-3,5.4-5.39,7.36s-6.36,2.59-8.58.32c.14-.83.29-1.67.43-2.5"/><path class="cls-4" d="M296.14,327.79l-.09-.28c16.43-4.45,19-20.6,21.45-36.21.21-1.35.43-2.69.65-4,1.46-8.87,7.07-14.68,11.51-18a37.17,37.17,0,0,1,9.39-5.12l.11.27c-.18.06-17.94,6.11-20.72,22.91-.22,1.34-.43,2.68-.65,4C315.31,307.05,312.75,323.29,296.14,327.79Z"/><path class="cls-5" d="M273.42,290.34c-2.44-6.84-2.62-14.75,1.32-20.67s12.69-8.85,19.15-5.16c-1.37-7.26-2.72-14.9-.24-21.73s10.26-12.26,17.43-9.7a11.27,11.27,0,0,1,6.5,6.54,11.09,11.09,0,0,1-.26,9.09c-.67-2.51,2.28-4,4.44-3.63a4.8,4.8,0,0,1,3.13,2.18c1.27,2.49,1.49,5.36,0,7.49-3.87,5-10.22,8.35-9.78,15.47.87,10.91,1.35,21.38-.66,31.95-.26,1.75-.55,3.49-.89,5.22s-.72,3.46-1.16,5.17c-1.18,4.56-2.82,9.2-6.29,12.42-4.13,3.83-10.38,5.2-14,9.51-5.71,6.83-2.87,18.72-9.94,24.22-5.12,4-13.29,1.59-17.22-3.28-5.6-6.95-1.92-16.11,2.82-22.12,4.47-5.67,10.67-9.55,12.58-17a17.52,17.52,0,0,0,.23-7.54C279.52,302.44,275.61,296.5,273.42,290.34Z"/><path class="cls-4" d="M277,347c0-.12-.52-12.46,15.45-27.94,11.42-11.06,9.7-27.76,8.45-40-.51-5-.95-9.25-.4-12.12,1.88-9.84,12-18.29,12.08-18.38l.2.23c-.1.08-10.12,8.47-12,18.21-.54,2.84-.1,7.1.41,12,1.26,12.25,3,29-8.53,40.19-15.89,15.39-15.38,27.61-15.38,27.73Z"/><path class="cls-4" d="M292.71,319.19l-.26-.15c6-10.42,2.66-21.53-1.22-29a62.83,62.83,0,0,0-10-13.91l.21-.19a62.19,62.19,0,0,1,10,14C295.41,297.45,298.8,308.66,292.71,319.19Z"/><path class="cls-4" d="M300.51,274.78a21.5,21.5,0,0,1,9.27-16.08,24.57,24.57,0,0,1,8.05-3.7l.08.28a24.23,24.23,0,0,0-8,3.66,21.29,21.29,0,0,0-9.15,15.88Z"/><path class="cls-4" d="M289.92,322l-.27-.13c5.14-10,3.14-17.3.56-21.62a21.53,21.53,0,0,0-6.92-7.06l.14-.25a21.89,21.89,0,0,1,7,7.16C293.08,304.52,295.12,311.88,289.92,322Z"/><path class="cls-4" d="M317.49,293.25l-.27-.14c4.83-9,10.22-11.82,13.9-12.64a11.8,11.8,0,0,1,6.92.39l-.11.27a11.68,11.68,0,0,0-6.76-.37C327.56,281.57,322.25,284.39,317.49,293.25Z"/><path class="cls-4" d="M279.35,274.35a1.23,1.23,0,0,1-.68-1.58,1.21,1.21,0,0,1,1.6-.6,1.23,1.23,0,0,1,.68,1.58A1.21,1.21,0,0,1,279.35,274.35Zm.81-1.91a.9.9,0,0,0-1.21.45.92.92,0,0,0,.51,1.19.89.89,0,1,0,.7-1.64Z"/><path class="cls-4" d="M340,282a.95.95,0,1,1,1.29-.48A1,1,0,0,1,340,282Zm.63-1.48a.67.67,0,0,0-.89.33.69.69,0,1,0,.89-.33Z"/><path class="cls-4" d="M280.18,292.9a1.14,1.14,0,0,1-.63-1.46,1.13,1.13,0,0,1,1.49-.56,1.15,1.15,0,0,1,.63,1.47A1.13,1.13,0,0,1,280.18,292.9Zm.75-1.75a.82.82,0,0,0-1.1.41.85.85,0,1,0,1.1-.41Z"/><path class="cls-4" d="M313.66,248a.92.92,0,1,1,1.24-.46A.93.93,0,0,1,313.66,248Zm.61-1.43a.64.64,0,1,0,.36.85A.66.66,0,0,0,314.27,246.58Z"/><path class="cls-4" d="M319.53,255.67a.92.92,0,1,1,1.25-.46A.94.94,0,0,1,319.53,255.67Zm.61-1.43a.65.65,0,0,0-.86.32.67.67,0,0,0,.36.85.64.64,0,1,0,.5-1.17Z"/><path class="cls-4" d="M341.06,264a1.38,1.38,0,1,1,1.86-.69A1.4,1.4,0,0,1,341.06,264Zm1-2.27a1.12,1.12,0,0,0-1.48.55,1.13,1.13,0,0,0,.63,1.46,1.12,1.12,0,0,0,1.48-.55A1.13,1.13,0,0,0,342,261.75Z"/><path class="cls-6" d="M280.28,369.32c-.21-4.79,3.32-9,7.56-11.27s9.16-3.14,13.89-4.32,9.56-2.86,12.78-6.37c6-6.51,4.51-16.75,7.43-25.06a24.91,24.91,0,0,1,3-5.9c10.7-15.48,32.57-24.62,51.33-17.48,2.52.74,4,3.93,2.49,5.67-3.12,4.05-9.69,3.94-13.18,8a3.53,3.53,0,0,0-.75,1.7c4.07,9.95-.47,18.11-12.08,16.51a11.73,11.73,0,0,0-3,1.05,9.42,9.42,0,0,0-3.67,3.58,17.22,17.22,0,0,0-1.91,4.9c-.8,3.4-1,7-2.23,10.23-3.37,8.9-13.52,13.26-23,15.5s-19.85,3.45-27.41,9.37c-2.42,1.89-4.53,4.26-7.41,5.44s-6.93.67-8.4-2.1l1.16-2.25"/><path class="cls-4" d="M304.8,353.24V353c17.23.4,24.51-14.17,31.55-28.25.6-1.22,1.21-2.43,1.82-3.63,4.06-8,11.22-11.92,16.51-13.81a39,39,0,0,1,10.61-2.21l0,.29c-.19,0-19.18.74-26.87,15.86-.61,1.2-1.22,2.42-1.82,3.63C329.53,339,322.2,353.65,304.8,353.24Z"/><path class="cls-7" d="M294,311.4c-.32-7.17,1.86-14.71,7.43-19.2s14.92-4.81,20.08.49c.83-7.25,1.8-14.86,6.24-20.63s13.58-8.72,19.76-4.29a11.26,11.26,0,0,1,1.38,16.56c.1-2.56,3.4-3.15,5.38-2.19a4.69,4.69,0,0,1,2.38,2.94c.48,2.71-.15,5.49-2.22,7.09-5.23,3.64-12.39,5-14.08,11.91-2.41,10.57-5.06,20.61-10.16,30.05-.77,1.58-1.56,3.15-2.41,4.7s-1.73,3.07-2.66,4.56c-2.5,4-5.48,7.92-9.79,10-5.14,2.46-11.59,2-16.36,5.07-7.56,4.86-8.35,16.92-16.83,20.14-6.15,2.34-13.34-2.23-15.69-7.95-3.35-8.15,2.94-15.79,9.32-20.14,6-4.11,13.17-6,17.25-12.57a17.31,17.31,0,0,0,2.46-7.07C296.26,324.56,294.25,317.84,294,311.4Z"/><path class="cls-4" d="M280.57,366c0-.12,3.22-11.95,23.29-22.11,14.34-7.26,17.66-23.55,20.08-35.45,1-4.84,1.83-9,3.22-11.59,4.76-8.79,17-14,17.17-14l.13.27c-.13.05-12.33,5.17-17,13.87-1.37,2.53-2.22,6.69-3.2,11.51-2.43,12-5.76,28.33-20.23,35.65-19.95,10.1-23.11,21.81-23.14,21.93Z"/><path class="cls-4" d="M304,344.13l-.21-.22c8.93-8.17,9-19.63,7.46-27.81a60.08,60.08,0,0,0-5.52-16L306,300a60.23,60.23,0,0,1,5.55,16.06C313.12,324.31,313.06,335.87,304,344.13Z"/><path class="cls-4" d="M324.81,304.28a21.94,21.94,0,0,1,13.76-12.62,25.25,25.25,0,0,1,8.9-1.23v.28a25.48,25.48,0,0,0-8.79,1.23,21.64,21.64,0,0,0-13.58,12.46Z"/><path class="cls-4" d="M300.49,346l-.22-.2c8-8.05,8.19-15.49,7-20.31a20.89,20.89,0,0,0-4.6-8.63l.22-.19a21.2,21.2,0,0,1,4.66,8.75C308.77,330.34,308.55,337.89,300.49,346Z"/><path class="cls-4" d="M335.74,326.54l-.21-.21c7.34-7.13,13.41-8.31,17.21-8.05a12,12,0,0,1,6.59,2.31l-.19.22a12,12,0,0,0-6.43-2.25C349,318.31,343,319.49,335.74,326.54Z"/><path class="cls-4" d="M304.46,297.92a1.18,1.18,0,0,1-.18-1.68,1.25,1.25,0,0,1,1.73-.12,1.19,1.19,0,0,1,.18,1.68A1.25,1.25,0,0,1,304.46,297.92Zm1.36-1.58a.94.94,0,0,0-1.31.09.89.89,0,0,0,.14,1.27.94.94,0,0,0,1.31-.09A.89.89,0,0,0,305.82,296.34Z"/><path class="cls-4" d="M360.89,322.24a1,1,0,0,1-.15-1.35,1,1,0,0,1,1.39-.09,1,1,0,0,1,.15,1.35A1,1,0,0,1,360.89,322.24Zm1.05-1.22a.69.69,0,0,0-1,.06.67.67,0,0,0,.11.95.69.69,0,0,0,1-.07A.65.65,0,0,0,361.94,321Z"/><path class="cls-4" d="M299.74,315.72a1.09,1.09,0,0,1-.17-1.56,1.15,1.15,0,0,1,1.6-.11,1.09,1.09,0,0,1,.17,1.56A1.15,1.15,0,0,1,299.74,315.72Zm1.25-1.45a.86.86,0,0,0-1.19.08.81.81,0,0,0,.12,1.15.86.86,0,0,0,1.19-.08A.81.81,0,0,0,301,314.27Z"/><path class="cls-4" d="M345.52,282.64a.92.92,0,0,1-.15-1.31,1,1,0,0,1,1.35-.09.92.92,0,0,1,.14,1.31A1,1,0,0,1,345.52,282.64Zm1-1.18a.66.66,0,0,0-.93.06.64.64,0,0,0,.1.9.68.68,0,0,0,.93-.06A.63.63,0,0,0,346.53,281.46Z"/><path class="cls-4" d="M348.92,291.54a.91.91,0,0,1-.14-1.31,1,1,0,0,1,1.34-.09.92.92,0,0,1,.14,1.31A1,1,0,0,1,348.92,291.54Zm1-1.18a.66.66,0,0,0-.92.06.62.62,0,0,0,.1.9.66.66,0,0,0,.92-.06A.63.63,0,0,0,349.93,290.36Z"/><path class="cls-4" d="M367.26,305.5a1.37,1.37,0,0,1-.21-2,1.45,1.45,0,0,1,2-.14,1.37,1.37,0,0,1,.21,2A1.45,1.45,0,0,1,367.26,305.5Zm1.61-1.88a1.14,1.14,0,0,0-1.59.11,1.09,1.09,0,0,0,.17,1.55,1.14,1.14,0,0,0,1.59-.11A1.08,1.08,0,0,0,368.87,303.62Z"/><path class="cls-8" d="M279.5,332.55a7.75,7.75,0,0,0-3,1.47,6.12,6.12,0,0,0-1.73,2.43,6.54,6.54,0,0,1,.26-3.32c.53-1.72,2.19-3.48,3.19-3.75,2-.83,3.73.16,3.57,1.1S280.51,332.09,279.5,332.55Z"/><path class="cls-8" d="M281.6,343.65a7.84,7.84,0,0,0-3,1.46,6.07,6.07,0,0,0-1.73,2.43,6.69,6.69,0,0,1,3.44-7.07c2-.82,3.74.17,3.57,1.1S282.6,343.19,281.6,343.65Z"/><path class="cls-8" d="M282.91,355.4a7.9,7.9,0,0,0-3,1.47,6.07,6.07,0,0,0-1.73,2.43,6.68,6.68,0,0,1,3.44-7.07c2-.82,3.74.16,3.57,1.1S283.91,354.94,282.91,355.4Z"/><path class="cls-8" d="M269.3,334.87a7.28,7.28,0,0,1,3.12.1,5.42,5.42,0,0,1,2.36,1.41,6.14,6.14,0,0,0-5.53-4.69c-2,0-3.1,1.54-2.61,2.26S268.28,334.85,269.3,334.87Z"/><path class="cls-8" d="M271.52,346.39a7.28,7.28,0,0,1,3.12.1A5.42,5.42,0,0,1,277,347.9a6.14,6.14,0,0,0-5.53-4.69c-2,0-3.1,1.53-2.61,2.26S270.5,346.37,271.52,346.39Z"/><path class="cls-8" d="M273.66,324a4.54,4.54,0,0,0-1.46,1.37,3.61,3.61,0,0,0-.54,1.68,3.9,3.9,0,0,1-.45-1.92,3.76,3.76,0,0,1,1.14-2.69c1-.81,2.14-.57,2.21,0S274.15,323.58,273.66,324Z"/><path class="cls-8" d="M268.49,325.05a4.62,4.62,0,0,1,1.94.48,3.63,3.63,0,0,1,1.3,1.19,3.92,3.92,0,0,0-.55-1.89,3.77,3.77,0,0,0-2.3-1.78c-1.24-.24-2.15.56-1.94,1.08S267.85,324.91,268.49,325.05Z"/><path class="cls-8" d="M321.4,322.42c-10,19.57-24.69,38.38-41,53.71l.65,1.1a204.32,204.32,0,0,0,40.58-53.88c2.32-4.54,5.22-9.68,4.06-15,0-.1-.17-.06-.15,0C326.35,313.38,323.56,318.17,321.4,322.42Z"/><path class="cls-8" d="M279.16,374.06a245.56,245.56,0,0,0,18.33-67.53c0-.24-.39-.29-.42,0A243.07,243.07,0,0,1,278.51,373Z"/><path class="cls-8" d="M330.75,315.67a8.27,8.27,0,0,0-3.64,0,6.43,6.43,0,0,0-2.8,1.58,6.94,6.94,0,0,1,1.77-3.13c1.31-1.44,3.74-2.4,4.84-2.21,2.29.1,3.57,1.88,3,2.72S331.94,315.68,330.75,315.67Z"/><path class="cls-8" d="M315.07,321.61a8.4,8.4,0,0,1,3.2,1.73A6.58,6.58,0,0,1,320,326a7.12,7.12,0,0,0-.09-3.59c-.48-1.88-2.17-3.85-3.23-4.2-2.08-1-4,0-3.91,1S314,321.06,315.07,321.61Z"/><path class="cls-8" d="M311,329a8.31,8.31,0,0,1,3.19,1.73,6.28,6.28,0,0,1,1.73,2.7,6.86,6.86,0,0,0-.09-3.59c-.47-1.88-2.16-3.85-3.23-4.2-2.07-1-4,0-3.91,1S309.93,328.41,311,329Z"/><path class="cls-8" d="M288.79,324.36a8.55,8.55,0,0,1,3.2,1.73,6.58,6.58,0,0,1,1.73,2.71,7.07,7.07,0,0,0-.1-3.59c-.47-1.88-2.16-3.86-3.22-4.2-2.08-1-4,0-3.91,1S287.73,323.82,288.79,324.36Z"/><path class="cls-8" d="M290.77,314.18a8.33,8.33,0,0,1,3.2,1.73,6.52,6.52,0,0,1,1.73,2.7,6.86,6.86,0,0,0-.09-3.59c-.47-1.88-2.17-3.85-3.23-4.2-2.07-1-4,0-3.91,1S289.72,313.63,290.77,314.18Z"/><path class="cls-8" d="M326.71,325a8.44,8.44,0,0,0-3.6-.54,6.53,6.53,0,0,0-3,1.13,7.06,7.06,0,0,1,2.25-2.82c1.52-1.21,4.06-1.78,5.12-1.42,2.25.46,3.23,2.42,2.51,3.15S327.88,325.16,326.71,325Z"/><path class="cls-8" d="M322.81,334.54c-.51-.32-1.89-1.65-3.55-1.74a5.66,5.66,0,0,0-3.41.71,9.44,9.44,0,0,1,3.08-3.27c1.89-1.26,4.66-1.33,5.65-.53,2.18,1.25,2.65,4.24,1.71,5.05S324,335.14,322.81,334.54Z"/><path class="cls-8" d="M315.43,346.54c-.45-.4-1.58-1.94-3.2-2.32a5.66,5.66,0,0,0-3.48.13,9.35,9.35,0,0,1,3.58-2.7c2.08-.93,4.81-.53,5.65.42,1.94,1.61,1.9,4.62.84,5.27S316.46,347.32,315.43,346.54Z"/><path class="cls-8" d="M298.05,334.09a6,6,0,0,0-3-1.21,4.54,4.54,0,0,0-2.73.77,7.61,7.61,0,0,1,2.31-2.83c1.47-1.13,3.72-1.35,4.57-.76,1.85.9,2.39,3.3,1.68,4S299,334.51,298.05,334.09Z"/><path class="cls-8" d="M322.73,307.78a4.93,4.93,0,0,1,2,.88,3.74,3.74,0,0,1,1.14,1.53,4.28,4.28,0,0,0-2.3-4.47c-1.27-.49-2.39.18-2.27.77S322.09,307.5,322.73,307.78Z"/><path class="cls-8" d="M328.49,307.14a4.93,4.93,0,0,0-1.81,1.17,3.82,3.82,0,0,0-.91,1.68,4.28,4.28,0,0,1,1.63-4.76c1.18-.68,2.39-.19,2.36.42S329.09,306.77,328.49,307.14Z"/><path class="cls-8" d="M294,305.81a5,5,0,0,1,2,.88,3.93,3.93,0,0,1,1.14,1.52,4.18,4.18,0,0,0-.21-2.12,4,4,0,0,0-2.1-2.34c-1.27-.49-2.38.18-2.27.77S293.32,305.53,294,305.81Z"/><path class="cls-8" d="M300,305.57a5,5,0,0,0-1.91,1,3.85,3.85,0,0,0-1,1.6,4.26,4.26,0,0,1,2-4.61c1.24-.58,2.4,0,2.32.61S300.65,305.24,300,305.57Z"/><path class="cls-8" d="M270.84,325a60.79,60.79,0,0,1,3.56,9.6A121.65,121.65,0,0,1,277.76,353c.37,3,.76,6.09,1,9.14a30.75,30.75,0,0,1,.13,4.29,41.44,41.44,0,0,1-.87,5.61l-.7-1.11a43.54,43.54,0,0,0,.49-10.43c-1-12-2.08-24.36-7.05-35.43C270.73,325,270.82,325,270.84,325Z"/><path class="cls-9" d="M112.49,347c-.54-4.83-4.63-8.45-9.11-10.07s-9.42-1.66-14.21-2.08-9.76-1.33-13.44-4.32c-6.83-5.56-7-16-11.12-23.88a25.15,25.15,0,0,0-3.86-5.42C47.92,287.45,25.2,281.82,8,292c-2.33,1.15-3.27,4.57-1.54,6.08,3.66,3.54,10.05,2.38,14.08,5.89a3.59,3.59,0,0,1,1,1.58c-2.43,10.61,3.26,18.05,14.32,14.58a11.64,11.64,0,0,1,3.12.56,9.28,9.28,0,0,1,4.13,3,17.3,17.3,0,0,1,2.62,4.6c1.31,3.27,2,6.81,3.76,9.87,4.67,8.37,15.23,11.1,24.85,11.81s19.87.26,28.16,5c2.65,1.51,5.08,3.54,8.07,4.26s6.85-.44,7.85-3.46L117,353.65"/><path class="cls-4" d="M86.11,334.84l0-.29C69.35,337.72,60,324.32,51,311.35L48.61,308c-5.2-7.34-12.78-10.12-18.23-11.16a37.16,37.16,0,0,0-10.68-.5l0,.29c.18,0,18.8-2.35,28.64,11.55l2.34,3.34C59.8,324.57,69.21,338.05,86.11,334.84Z"/><path class="cls-10" d="M90.18,291.23c-.8-7.23-4.09-14.42-10.22-18s-15.28-2.41-19.48,3.72c-1.94-7.12-4.07-14.59-9.28-19.64s-14.59-6.55-19.92-1.11a11.25,11.25,0,0,0-3,8.72A11.11,11.11,0,0,0,32.5,273c-.49-2.55-3.81-2.61-5.58-1.33A4.79,4.79,0,0,0,25.05,275c-.05,2.79,1,5.47,3.27,6.74,5.66,2.8,12.85,3,15.56,9.65,4,10.19,8.13,19.81,14.56,28.44q1.48,2.19,3.07,4.31c1.06,1.41,2.17,2.79,3.31,4.14,3.05,3.58,6.56,7,11.08,8.42,5.39,1.64,11.61.14,16.73,2.44,8.12,3.66,10.76,15.59,19.52,17.45,6.35,1.35,12.65-4.38,14.06-10.48,2-8.7-5.32-15.33-12.2-18.66-6.51-3.14-13.78-3.92-18.76-9.8a17.55,17.55,0,0,1-3.5-6.68C90,304.77,90.9,297.72,90.18,291.23Z"/><path class="cls-4" d="M111.69,343.72c0-.12-5-11.44-26.12-18.38-15.1-5-20.86-20.74-25.06-32.25-1.71-4.69-3.19-8.74-4.94-11.08-6-8-18.77-11.22-18.9-11.25l-.08.29c.13,0,12.81,3.19,18.75,11.14,1.72,2.32,3.19,6.34,4.9,11,4.22,11.57,10,27.42,25.23,32.42,21,6.9,25.9,18.11,26,18.22Z"/><path class="cls-4" d="M85.43,325.6l.17-.25c-10-6.74-11.8-18.2-11.58-26.63a62.79,62.79,0,0,1,2.9-16.87l-.27-.09a62.7,62.7,0,0,0-2.92,17C73.51,307.23,75.36,318.79,85.43,325.6Z"/><path class="cls-4" d="M59,289.06a21.59,21.59,0,0,0-15.37-10.41,24.43,24.43,0,0,0-8.86.2l.05.28a24.31,24.31,0,0,1,8.76-.19,21.29,21.29,0,0,1,15.17,10.29Z"/><path class="cls-4" d="M89.19,326.94l.18-.24c-9-6.78-10.38-14.18-10-19.2a21.48,21.48,0,0,1,3.14-9.38l-.24-.16a22.07,22.07,0,0,0-3.19,9.52C78.69,312.57,80.07,320.08,89.19,326.94Z"/><path class="cls-4" d="M51.81,313.1l.18-.25c-8.26-6-14.35-6.16-18-5.29a11.86,11.86,0,0,0-6.06,3.38l.22.19a11.72,11.72,0,0,1,5.92-3.29C37.65,307,43.65,307.21,51.81,313.1Z"/><path class="cls-4" d="M76.16,279.59a1.23,1.23,0,1,1,1.7-.16A1.21,1.21,0,0,1,76.16,279.59Zm.19-.23a.91.91,0,0,0,1.29-.12.93.93,0,0,0-.06-1.3.94.94,0,0,0-1.23,1.42Z"/><path class="cls-4" d="M25.28,313a1,1,0,0,1-.07-1.37,1,1,0,1,1,.07,1.37Zm.2-.22a.67.67,0,0,0,.95-.09.69.69,0,0,0-.05-1,.7.7,0,0,0-.9,1.06Z"/><path class="cls-4" d="M83.64,296.63a1.13,1.13,0,0,1-.08-1.59,1.12,1.12,0,0,1,1.58-.15,1.13,1.13,0,0,1,.08,1.59A1.12,1.12,0,0,1,83.64,296.63Zm.19-.22A.86.86,0,0,0,85,295.12a.82.82,0,0,0-1.17.11A.84.84,0,0,0,83.83,296.41Z"/><path class="cls-4" d="M34.16,270.86a1,1,0,0,1,1.26-1.46,1,1,0,0,1,.07,1.34A.94.94,0,0,1,34.16,270.86Zm.2-.22a.64.64,0,0,0,.91-.09.66.66,0,0,0,0-.92.64.64,0,0,0-.91.09A.66.66,0,0,0,34.36,270.64Z"/><path class="cls-4" d="M32.23,280.32a1,1,0,0,1-.07-1.33.92.92,0,1,1,1.39,1.2A.93.93,0,0,1,32.23,280.32Zm.19-.23a.65.65,0,0,0,.91-.08.66.66,0,0,0,0-.92.65.65,0,0,0-.91.08A.66.66,0,0,0,32.42,280.09Z"/><path class="cls-4" d="M15.86,297.3a1.45,1.45,0,1,1,2-.19A1.41,1.41,0,0,1,15.86,297.3Zm.2-.23a1.11,1.11,0,0,0,1.57-.15,1.13,1.13,0,0,0-.08-1.58,1.14,1.14,0,0,0-1.49,1.73Z"/><path class="cls-11" d="M118.53,365.26c-1.91-4.4-6.91-6.63-11.73-6.84s-9.61,1.19-14.38,2.19-9.85,1.6-14.28-.14c-8.22-3.25-11.37-13.1-17.63-19.3a25,25,0,0,0-5.3-4c-16.39-9.25-40-7.91-53.81,6.71-1.94,1.76-1.87,5.27.24,6.19,4.57,2.27,10.44-.69,15.36,1.44a3.4,3.4,0,0,1,1.41,1.2c.68,10.73,8.34,16.08,18.08,9.58a11.65,11.65,0,0,1,3.18-.39,9.43,9.43,0,0,1,4.87,1.62,17.23,17.23,0,0,1,3.86,3.57c2.21,2.71,3.94,5.84,6.47,8.23,6.93,6.53,18,6,27.51,3.87s19.35-5.57,28.74-3.55c3,.64,5.94,1.85,9,1.66s6.52-2.43,6.63-5.57l-2-1.51"/><path class="cls-4" d="M89.44,361.51l-.12-.26c-15.31,7.89-28.23-2-40.72-11.63l-3.23-2.47c-7.14-5.4-15.29-5.81-20.88-5.2A39,39,0,0,0,14,344.6l.11.27c.17-.08,17.57-7.72,31.1,2.52l3.23,2.47C61,359.51,74,369.48,89.44,361.51Z"/><path class="cls-12" d="M80.9,319.14c-2.84-6.59-8.1-12.42-15.07-14S50.31,307.31,48,314.34c-3.92-6.16-8.12-12.59-14.63-15.83s-16-1.91-19.65,4.77a11.27,11.27,0,0,0,6,15.5c-1.21-2.26-4.44-1.35-5.8.39a4.72,4.72,0,0,0-.86,3.68c.75,2.65,2.54,4.87,5.11,5.41,6.29,1,13.33-.89,17.85,4.55,6.79,8.46,13.57,16.33,22.28,22.59,1.38,1.09,2.78,2.16,4.22,3.18s2.9,2,4.39,2.93c4,2.5,8.38,4.73,13.17,4.71,5.7,0,11.3-3.26,16.93-2.59,8.92,1.08,14.91,11.57,23.94,10.76,6.55-.58,11-7.83,10.64-14-.55-8.8-9.55-12.92-17.19-14.05-7.21-1.07-14.48.32-21-3.77a17.23,17.23,0,0,1-5.3-5.28C84.59,332,83.46,325.06,80.9,319.14Z"/><path class="cls-4" d="M116.81,362.4c-.08-.09-8.12-9.34-30.61-9.71-16.07-.26-26.18-13.47-33.55-23.11-3-3.92-5.59-7.31-8-9-8.11-5.82-21.42-5.09-21.56-5.08v.29c.13,0,13.34-.73,21.38,5,2.34,1.68,4.92,5.05,7.91,9,7.4,9.69,17.55,23,33.76,23.22,22.37.36,30.33,9.52,30.4,9.61Z"/><path class="cls-4" d="M86.15,353l.09-.28C74.63,349.25,69.57,339,67.37,330.94a59.69,59.69,0,0,1-2-16.78h-.3a60.78,60.78,0,0,0,2,16.87C69.31,339.12,74.42,349.5,86.15,353Z"/><path class="cls-4" d="M50.05,326.22a22,22,0,0,0-17.9-5.34,25.63,25.63,0,0,0-8.54,2.78l.14.26a25.27,25.27,0,0,1,8.44-2.75,21.66,21.66,0,0,1,17.66,5.28Z"/><path class="cls-4" d="M90.17,353.15l.11-.28c-10.68-3.76-14.14-10.35-15.15-15.22a20.8,20.8,0,0,1,.36-9.77l-.28-.08a21.28,21.28,0,0,0-.37,9.91C75.87,342.65,79.36,349.34,90.17,353.15Z"/><path class="cls-4" d="M49.94,351l.1-.28c-9.71-3.21-15.69-1.62-19,.27a12,12,0,0,0-4.91,5l.26.11a12.06,12.06,0,0,1,4.81-4.83C34.45,349.4,40.34,347.85,49.94,351Z"/><path class="cls-4" d="M64,312.26a1.19,1.19,0,0,1-.58-1.6A1.26,1.26,0,0,1,65,310a1.19,1.19,0,0,1,.57,1.6A1.24,1.24,0,0,1,64,312.26Zm.12-.27a1,1,0,0,0,1.22-.5.89.89,0,0,0-.44-1.2.93.93,0,0,0-1.21.49A.9.9,0,0,0,64.09,312Z"/><path class="cls-4" d="M24.16,358.67a1,1,0,0,1-.46-1.28,1,1,0,0,1,1.29-.53,1,1,0,0,1,.46,1.28A1,1,0,0,1,24.16,358.67Zm.12-.28a.69.69,0,0,0,.9-.36.65.65,0,0,0-.32-.89.69.69,0,0,0-.9.36A.66.66,0,0,0,24.28,358.39Z"/><path class="cls-4" d="M76.11,326.16a1.09,1.09,0,0,1-.53-1.48,1.15,1.15,0,0,1,1.49-.61,1.11,1.11,0,0,1,.53,1.48A1.16,1.16,0,0,1,76.11,326.16Zm.12-.27a.87.87,0,0,0,1.1-.45.81.81,0,0,0-.39-1.1.87.87,0,0,0-1.1.45A.82.82,0,0,0,76.23,325.89Z"/><path class="cls-4" d="M20.72,316.31a.92.92,0,0,1-.45-1.24,1,1,0,0,1,1.25-.51A.92.92,0,0,1,22,315.8,1,1,0,0,1,20.72,316.31Zm.12-.27a.67.67,0,0,0,.86-.35.64.64,0,0,0-.3-.86.68.68,0,0,0-.86.35A.63.63,0,0,0,20.84,316Z"/><path class="cls-4" d="M21.55,325.8a.92.92,0,0,1-.45-1.24,1,1,0,0,1,1.25-.5.92.92,0,0,1,.45,1.24A1,1,0,0,1,21.55,325.8Zm.12-.27a.67.67,0,0,0,.86-.35.63.63,0,0,0-.3-.85.67.67,0,0,0-.86.35A.62.62,0,0,0,21.67,325.53Z"/><path class="cls-4" d="M10.53,346.63a1.38,1.38,0,0,1-.67-1.86,1.46,1.46,0,0,1,1.87-.76,1.38,1.38,0,0,1,.67,1.86A1.46,1.46,0,0,1,10.53,346.63Zm.12-.28a1.14,1.14,0,0,0,1.48-.6,1.08,1.08,0,0,0-.52-1.47,1.15,1.15,0,0,0-1.48.6A1.08,1.08,0,0,0,10.65,346.35Z"/><path class="cls-8" d="M103.15,331.85a7.83,7.83,0,0,1,3.38,0,6.12,6.12,0,0,1,2.62,1.43,6.72,6.72,0,0,0-6.19-4.86c-2.13.12-3.29,1.78-2.73,2.55S102.05,331.87,103.15,331.85Z"/><path class="cls-8" d="M106.12,342.74a8,8,0,0,1,3.37,0,5.93,5.93,0,0,1,2.62,1.43,6.45,6.45,0,0,0-1.68-2.88c-1.22-1.31-3.48-2.17-4.5-2-2.13.12-3.29,1.78-2.74,2.55S105,342.77,106.12,342.74Z"/><path class="cls-8" d="M110.08,353.89a7.79,7.79,0,0,1,3.37,0,6,6,0,0,1,2.62,1.43,6.5,6.5,0,0,0-1.68-2.87c-1.23-1.32-3.48-2.17-4.5-2-2.13.12-3.29,1.78-2.74,2.55S109,353.92,110.08,353.89Z"/><path class="cls-8" d="M113.34,329.48a7,7,0,0,0-2.76,1.45,5.49,5.49,0,0,0-1.51,2.3,6,6,0,0,1,.12-3.07,5.84,5.84,0,0,1,2.81-3.57c1.78-.82,3.46,0,3.34.9S114.25,329,113.34,329.48Z"/><path class="cls-8" d="M116.38,340.81a7,7,0,0,0-2.76,1.45,5.49,5.49,0,0,0-1.51,2.3,6,6,0,0,1,.12-3.07,5.84,5.84,0,0,1,2.81-3.57c1.78-.82,3.46,0,3.34.9S117.29,340.35,116.38,340.81Z"/><path class="cls-8" d="M104.68,321.62a4.57,4.57,0,0,1,1.91.6,3.48,3.48,0,0,1,1.22,1.27,3.76,3.76,0,0,0-.43-1.92,3.81,3.81,0,0,0-2.2-1.93c-1.22-.31-2.18.43-2,1S104.05,321.44,104.68,321.62Z"/><path class="cls-8" d="M109.78,320.29a4.57,4.57,0,0,0-1.53,1.28,3.54,3.54,0,0,0-.65,1.64,3.84,3.84,0,0,1-.33-1.94,3.72,3.72,0,0,1,1.29-2.61c1-.76,2.18-.44,2.22.12S110.3,319.88,109.78,320.29Z"/><path class="cls-8" d="M61,341c17.53,13.25,39,23.74,60.38,30.38l-.1,1.27A204.38,204.38,0,0,1,61.26,342c-4.06-3.07-8.91-6.43-10.18-11.67a.08.08,0,0,1,.16,0C52.63,335.08,57.24,338.17,61,341Z"/><path class="cls-8" d="M121.61,369a245.25,245.25,0,0,1-46-52.74c-.13-.2.22-.43.35-.22a243,243,0,0,0,45.75,51.69Z"/><path class="cls-8" d="M49.68,339.06A8.39,8.39,0,0,1,53,337.5a6.63,6.63,0,0,1,3.22.2,7.09,7.09,0,0,0-3-2c-1.81-.72-4.41-.52-5.31.13-2,1.09-2.39,3.25-1.49,3.74S48.61,339.59,49.68,339.06Z"/><path class="cls-8" d="M66.38,337.55a8.38,8.38,0,0,0-2.12,2.95,6.4,6.4,0,0,0-.37,3.19,6.9,6.9,0,0,1-1.49-3.27c-.4-1.9.26-4.41,1.07-5.19,1.43-1.79,3.63-1.76,4-.79S67.09,336.6,66.38,337.55Z"/><path class="cls-8" d="M73.26,342.38a8.42,8.42,0,0,0-2.11,2.95,6.34,6.34,0,0,0-.38,3.19,7,7,0,0,1-1.49-3.27c-.39-1.9.27-4.42,1.07-5.19,1.44-1.79,3.63-1.77,4-.8S74,341.43,73.26,342.38Z"/><path class="cls-8" d="M91.22,328.54a8.51,8.51,0,0,0-2.12,2.95,6.4,6.4,0,0,0-.37,3.19,6.9,6.9,0,0,1-1.49-3.27c-.39-1.89.27-4.41,1.07-5.18,1.44-1.79,3.63-1.77,4-.8S91.93,327.59,91.22,328.54Z"/><path class="cls-8" d="M85,320.25a8.38,8.38,0,0,0-2.12,2.95,6.6,6.6,0,0,0-.38,3.19A6.94,6.94,0,0,1,81,323.12c-.4-1.9.26-4.41,1.07-5.19,1.43-1.79,3.63-1.76,4-.79S85.7,319.3,85,320.25Z"/><path class="cls-8" d="M57.38,345.66a8.51,8.51,0,0,1,3-2.06,6.62,6.62,0,0,1,3.21-.31,7.12,7.12,0,0,0-3.25-1.54c-1.9-.43-4.44.17-5.23,1-1.82,1.39-1.85,3.58-.88,3.93S56.41,346.35,57.38,345.66Z"/><path class="cls-8" d="M65.07,352.56c.32-.5,1-2.3,2.43-3.12a5.64,5.64,0,0,1,3.38-.84,9.29,9.29,0,0,0-4.2-1.6c-2.25-.31-4.77.84-5.31,2-1.42,2.08-.53,5,.67,5.3S64.3,353.6,65.07,352.56Z"/><path class="cls-8" d="M77,360.13c.23-.55.58-2.44,1.87-3.48a5.52,5.52,0,0,1,3.19-1.4,9.43,9.43,0,0,0-4.41-.87c-2.27.07-4.56,1.63-4.9,2.84-1,2.3.32,5,1.56,5.12S76.37,361.28,77,360.13Z"/><path class="cls-8" d="M87.14,341.34A6,6,0,0,1,89.3,339a4.57,4.57,0,0,1,2.79-.5,7.54,7.54,0,0,0-3.32-1.53c-1.81-.39-3.93.41-4.43,1.31-1.27,1.61-.72,4,.24,4.34S86.45,342.15,87.14,341.34Z"/><path class="cls-8" d="M53.44,328.46a5,5,0,0,0-1.38,1.65A3.8,3.8,0,0,0,51.7,332a4.16,4.16,0,0,1-.74-2,4.08,4.08,0,0,1,.86-3c.93-1,2.23-.88,2.38-.3S53.91,327.93,53.44,328.46Z"/><path class="cls-8" d="M48,330.4a5.16,5.16,0,0,1,2.15.26,3.74,3.74,0,0,1,1.55,1.12,4.27,4.27,0,0,0-3.55-3.57c-1.36-.1-2.23.87-1.93,1.4S47.28,330.33,48,330.4Z"/><path class="cls-8" d="M78.45,314.12a5,5,0,0,0-1.38,1.65,3.78,3.78,0,0,0-.36,1.87,4.11,4.11,0,0,1-.74-2,4.05,4.05,0,0,1,.86-3c.93-1,2.23-.89,2.38-.3S78.92,313.58,78.45,314.12Z"/><path class="cls-8" d="M72.91,316.54a5.06,5.06,0,0,1,2.16.08,3.91,3.91,0,0,1,1.64,1,4.3,4.3,0,0,0-3.83-3.27c-1.37,0-2.15,1.05-1.82,1.56S72.2,316.53,72.91,316.54Z"/><path class="cls-8" d="M107.66,321.31a61,61,0,0,0,1,10.18,121,121,0,0,0,5,18c1,2.89,2,5.81,3.1,8.66a31.22,31.22,0,0,0,1.75,3.92,43.2,43.2,0,0,0,3.24,4.66l.14-1.3a44,44,0,0,1-5-9.17c-4.34-11.2-8.78-22.82-9.14-34.95A.05.05,0,1,0,107.66,321.31Z"/><path class="cls-13" d="M76.71,222.78h202.7a7.57,7.57,0,0,1,7.57,7.57V374.48a7.56,7.56,0,0,1-7.56,7.56H76.71a7.56,7.56,0,0,1-7.56-7.56V230.34A7.57,7.57,0,0,1,76.71,222.78Z"/><path class="cls-2" d="M271.46,369H80a2.3,2.3,0,0,1-2.38-2.21V237.08A2.3,2.3,0,0,1,80,234.87H271.46Z"/><g class="cls-14"><path class="cls-15" d="M285,302a5.52,5.52,0,1,1-5.05-5.06A5.53,5.53,0,0,1,285,302Z"/></g><path class="cls-15" d="M281.12,304.71h-3.3a.65.65,0,0,1-.65-.65v-3.3a.65.65,0,0,1,.65-.65h3.3a.65.65,0,0,1,.65.65v3.3A.65.65,0,0,1,281.12,304.71Zm-3.3-4.42a.48.48,0,0,0-.48.47v3.3a.48.48,0,0,0,.48.47h3.3a.47.47,0,0,0,.47-.47v-3.3a.47.47,0,0,0-.47-.47Z"/><path class="cls-16" d="M281.32,67,180.59,38.62c-8.3-2.34-16.53,2.31-18.35,10.39l-12.55,55.87c-1.82,8.08,3.52,16.34,11.87,18.43l33.15,8.32,11.43,21.87a2.79,2.79,0,0,0,3.64,1.25h0l19-14.59L263,148.73a13.92,13.92,0,0,0,17.11-10.47l12-53.35A15.33,15.33,0,0,0,281.32,67Z"/><path class="cls-17" d="M285,64.84,184.23,36.44c-8.3-2.34-16.53,2.31-18.35,10.39L153.33,102.7c-1.82,8.09,3.52,16.34,11.87,18.44l33.15,8.31,11.15,21.34a2.8,2.8,0,0,0,4.14,1L232.42,138l34.19,8.57a13.92,13.92,0,0,0,17.1-10.48l12-53.35A15.33,15.33,0,0,0,285,64.84Z"/><path class="cls-2" d="M241,90.89l-7.36,5.63a6.87,6.87,0,0,0-2.41,3.44l-.18.73-13.27-3.34.47-1.86a12.79,12.79,0,0,1,5.57-8.15l7.34-5.21a8.33,8.33,0,0,0,3.32-4c.71-2.83-.37-5.34-3.61-6.16-3.4-.85-5.41,1-6.14,3.88l-13.27-3.34c2.77-11,12.63-15,22.42-12.51,9.55,2.4,16.68,10.3,13.85,21.55C246.67,85.78,244,88.54,241,90.89Zm-28.21,25.6,3.13-12.25,13.59,3.42-3.13,12.25Z"/><path class="cls-18" d="M68.91,120.16,11,151.77a9.06,9.06,0,0,0-3.68,12.76l19,30.68a9.94,9.94,0,0,0,13.46,3.07l18.59-10.87,14.79,4.82a1.76,1.76,0,0,0,2.19-1h0l2.12-14.94L96.66,165a8.78,8.78,0,0,0,3.09-12.26l-18.12-29.3A9.66,9.66,0,0,0,68.91,120.16Z"/><path class="cls-19" d="M69.59,117.57,11.72,149.18A9.06,9.06,0,0,0,8,161.94l19,30.69a10,10,0,0,0,13.47,3.07l18.59-10.87,14.43,4.69a1.75,1.75,0,0,0,2.28-1.39l2.39-14.47,19.17-11.21a8.77,8.77,0,0,0,3.09-12.25L82.31,120.89A9.66,9.66,0,0,0,69.59,117.57Z"/><path class="cls-2" d="M60.13,149.54l-.69,4.87a3.61,3.61,0,0,0,.36,2.2l.2.35-6.28,3.66-.51-.88a6.76,6.76,0,0,1-.91-5.16l.84-4.71a4.44,4.44,0,0,0-.21-2.74,2.66,2.66,0,1,0-4.55,2.75l-6.28,3.67c-3-5.21-.77-10.38,3.86-13.09s10.16-2.28,13.27,3A9,9,0,0,1,60.13,149.54Zm-1.19,20.2-3.34-5.67L62,160.32,65.37,166Z"/><path class="cls-20" d="M318.18,154.92,361,178.66a6.72,6.72,0,0,1,2.68,9.48l-14.23,22.68a7.39,7.39,0,0,1-10,2.22l-13.74-8.16-11,3.5a1.31,1.31,0,0,1-1.62-.78h0l-1.5-11.1-14.17-8.41a6.5,6.5,0,0,1-2.23-9.11l13.58-21.66A7.17,7.17,0,0,1,318.18,154.92Z"/><path class="cls-21" d="M317.68,153l42.79,23.73a6.72,6.72,0,0,1,2.67,9.49L348.92,208.9a7.38,7.38,0,0,1-10,2.21L325.17,203l-10.73,3.41a1.3,1.3,0,0,1-1.69-1l-1.7-10.75-14.17-8.41a6.51,6.51,0,0,1-2.23-9.11l13.58-21.66A7.16,7.16,0,0,1,317.68,153Z"/><path class="cls-2" d="M335.05,184.37l-3.75,1.18a2.9,2.9,0,0,0-1.45,1l-.18.26-4.81-3.25.46-.67a5.41,5.41,0,0,1,3.4-2.45l3.67-1a3.56,3.56,0,0,0,1.91-1.11,2.13,2.13,0,1,0-3.56-2.32l-4.81-3.25c2.69-4,7.2-4.14,10.75-1.75s5.16,6.52,2.4,10.6A7.21,7.21,0,0,1,335.05,184.37ZM320.1,190.5l3-4.46,4.92,3.33-3,4.46Z"/><path class="cls-22" d="M113.94,51.76,79,66.09a5.19,5.19,0,0,0-2.91,7L84.93,91.8a5.7,5.7,0,0,0,7.47,2.6l11.28-5,8.11,3.68a1,1,0,0,0,1.32-.45h0l2.15-8.37,11.63-5.17a5,5,0,0,0,2.54-6.78L121,54.46A5.53,5.53,0,0,0,113.94,51.76Z"/><path class="cls-23" d="M114.49,50.33l-35,14.33a5.19,5.19,0,0,0-2.91,7l8.86,18.68A5.7,5.7,0,0,0,93,93l11.28-5,7.91,3.59a1,1,0,0,0,1.39-.64l2.28-8.09,11.63-5.17A5,5,0,0,0,130,70.87L121.52,53A5.53,5.53,0,0,0,114.49,50.33Z"/><path class="cls-2" d="M107.43,68.91l-.71,2.76a2.13,2.13,0,0,0,.06,1.29l.1.21L103,74.88l-.24-.54a3.93,3.93,0,0,1-.19-3l.79-2.66a2.57,2.57,0,0,0,0-1.59,1.54,1.54,0,1,0-2.79,1.3l-3.85,1.7c-1.41-3.19.22-6,3.06-7.28s6-.66,7.44,2.6A5.19,5.19,0,0,1,107.43,68.91Zm-2,11.55-1.68-3.78,4-1.75,1.67,3.78Z"/><g class="cls-24"><path class="cls-25" d="M129.2,595.58l2.18-91.69,30.06,2.35-17,88.67S139.06,600.89,129.2,595.58Z"/><path class="cls-25" d="M184.62,509,182,593.27s11.55,4.6,15.27-.67,15.95-84.06,15.95-84.06Z"/><path class="cls-13" d="M197.24,592.6s.57,8.26,6.24,10.35,21.91,3.49,16.11,9.07c-3.33,3.21-19.73,2-24.33,2.15s-8.85,2.41-12.4-.54c-3.92-3.24-.89-20.36-.89-20.36a18.35,18.35,0,0,0,7.63,1.65C194.75,594.56,197.24,592.6,197.24,592.6Z"/><path class="cls-26" d="M234.42,340.77s2.74,37.3-6,109.45c-6.3,52.09-1.87,34.86-5.74,60.06-1.38,9-47.47,9.05-47.2-.81l0-98.92.54-55.76Z"/><path class="cls-13" d="M144.47,594.91s.57,8.27,6.24,10.36,21.91,3.48,16.11,9.07c-3.33,3.2-19.73,1.95-24.33,2.15s-8.85,2.41-12.4-.54c-3.92-3.24-.89-20.37-.89-20.37a18.29,18.29,0,0,0,7.63,1.66C142,596.88,144.47,594.91,144.47,594.91Z"/><path class="cls-26" d="M181.65,343.09s2.74,37.29-6,109.45c-6.3,52.09-3,29.64-6.84,54.84-1.38,9-46.65,8.11-46.37-1.76l.24-92.75.54-55.76Z"/><path class="cls-13" d="M118.68,386.86c.31,4.5,27.5,5.1,61,2.57s60.07-8.35,59.76-12.85-27.41-6-60.89-3.44S118.37,382.36,118.68,386.86Z"/><path class="cls-27" d="M121.33,259s4.9-23.88,48.63-26c63.07-3.11,59.77,55.4,69.47,143.67,0,0-62.53-6.11-120.83,9.17C118.6,385.75,109.2,295.63,121.33,259Z"/><path class="cls-26" d="M234.31,380.45s-36.8-9.15-111.4,8.9l-.11,10.9,110.48-.92Z"/><path class="cls-13" d="M174.29,467.22l-.72-.09c0-.31,3.6-31,6.48-42s17-20.95,17.14-21.05l.41.6c-.14.1-14,9.75-16.85,20.64S174.33,466.91,174.29,467.22Z"/><path class="cls-28" d="M139.49,238.69s-2-1.62-2.4.78,12.65,20.37,34.21,20.75,25.58-7.9,25.58-7.9,5.4-5.14,3.54-16c0,0-1.71-4.66-3.55-1,0,0,7.54,20.8-21.1,21.65-11.91.35-20-3.1-25.4-7.21A52.74,52.74,0,0,1,139.49,238.69Z"/><polygon class="cls-28" points="192.71 281.29 194.6 299.25 206.71 305.66 214.88 296.59 212.62 278.38 192.71 281.29"/><path class="cls-25" d="M44.83,303.85s26-14,22.23-18.42c-.19-.22-8.53-9-8.67-9.26-5.28-10.54-8.76-12.91-13.78-17.51-1.39-1.27-4.39-6.94-6.13-6.25-1.52.61-.76,6.13-.08,8.72-6.87-3.35-17.14-9.39-19.11-6.52-.73,1.07,1.94,3.46,10.07,9.15,0,0-1.06-.45-1.07-.44-2.39-1.11-17-8.63-18.84-5.32-1.4,2.52,12.07,10,16,11.85l0,.12c-4.15-1.56-15.62-7.52-16.95-4.47C7.31,268.1,23,276.65,23,276.65s-13.65-5.83-12.84-2.3c.75,3.25,12,10.68,15.72,12.62,6.2,3.22,9.8,2.64,12.26,4C39,291.48,44.83,303.85,44.83,303.85Z"/><path class="cls-25" d="M66.08,284.34a139.73,139.73,0,0,0,28.53,23.9c5.36,3.34,5.55,10.2,4.65,15.65a16.23,16.23,0,0,1-9.69,12.34c-5.2,2.19-12.56,3.65-20.37,0-13.6-6.41-24.63-32.95-24.63-32.95Z"/></g><ellipse class="cls-25" cx="170.74" cy="201.94" rx="16.24" ry="19.65" transform="translate(-57.83 68.95) rotate(-19.59)"/><path class="cls-25" d="M155.83,208.87a3.35,3.35,0,0,0,4.4-1.77,3.39,3.39,0,0,0-2.25-4.19,3.19,3.19,0,1,0-2.15,6Z"/><path class="cls-29" d="M161.53,202.5c-.58.48-2.93-2.86-4.19-2.23-1.06.53-1.3,3.85,0,6.1,1.14,1.92,2.61,1.7,3.06,3.2.75,2.47-2.27,6.23-3.42,5.81-.75-.26-.16-2-.92-4.06-1.47-4-6.1-3.42-9.93-6.4-6-4.69-3.34-11.46.14-15.88,1.32-1.68,4.16-2.5,5.95-5.2,1.93-2.93,2-10.69,8.53-12.11,4.64-1,5.61,1.64,8.63,1.4,3.58-.28,3.33-1.64,7.59-2.38a9.27,9.27,0,0,1,7.27,2.07c3.95,3.55,3.11,9.86,3,10.76-.77,5.72-5,10.94-9.79,12.18-1,.26-.81,0-11-.07-3.36,0-5.39,0-6,1.26-.94,1.85,1.63,5.07,1.05,5.55Z"/><path class="cls-27" d="M288.23,269.76a117.31,117.31,0,0,1-15.51,16.83c-10.38-8.25-29.44-24-38.55-31.62l0-.08a54.37,54.37,0,0,0-4.89-4l-.26-.21h0a94,94,0,0,0-43.58-17q-4.26-.51-8.84-.62a86.14,86.14,0,0,0-15.18,1c-37.92,6-56.28,22.67-56.28,22.67-.42.51-24.44,29.63-37.89,62.83-3.83,9.43,23.13,17.26,27.25,14a13,13,0,0,0,3-3.46c8.39-12.51,35.13-49.44,35.13-49.44s.58-6-11.24-15.78l13,6.49s47,2.22,70.39.57a10.69,10.69,0,0,0-1.23,4.87c.48.45,27.87,26.4,60,42,0,0,14.91,9.1,28.37-.23,12.41-8.6,18.93-36.7,18.93-36.7Z"/><path class="cls-25" d="M163.81,228.2l2.83-10.85.83-3.16,4.85-18.58,1.54,18.2.92,10.93.29,3.46c.2,2.35,20.07,5.64,21.9,7.61.74.79,6.07,20.54-20.16,22.09-22.5,1.33-32.46-13.37-37.22-18.77C139.62,239.12,162.89,231.71,163.81,228.2Z"/><polygon class="cls-28" points="192.81 281.72 194.7 299.69 206.81 306.1 214.98 297.02 212.72 278.81 192.81 281.72"/><path class="cls-25" d="M94.71,308.67a139.75,139.75,0,0,1-28.54-23.89h0c-2.26-2.38-7.55-8-7.66-8.19-5.28-10.54-8.76-12.91-13.79-17.5-1.38-1.27-4.38-7-6.12-6.25-1.52.6-.76,6.13-.08,8.71-6.87-3.35-17.15-9.39-19.11-6.52-.73,1.07,1.94,3.46,10.07,9.15,0,0-1.06-.45-1.07-.44-2.4-1.11-17-8.63-18.85-5.32-1.39,2.52,12.08,10,16,11.85l0,.12c-4.15-1.55-15.62-7.52-16.95-4.47-1.14,2.6,14.57,11.16,14.57,11.16s-13.64-5.84-12.83-2.3C11,278,22.26,285.46,26,287.4c6.2,3.23,9.81,2.64,12.27,4.05.8.47,6.66,12.83,6.66,12.83h0c1.72,4,12,26.5,24.37,32.35,7.81,3.68,15.17,2.22,20.37,0a16.22,16.22,0,0,0,9.69-12.33C100.26,318.87,100.07,312,94.71,308.67Z"/><path class="cls-25" d="M326.9,256.77s14.09-11,12.54-13.4c-1.82-2.79-12.15,5-16,7.2l-.06-.11C327,248,339,238.39,337.22,236.13c-2.35-3-15.53,6.87-17.71,8.36,0,0-1,.62-1,.61,7.08-6.95,9.32-9.75,8.42-10.69-2.41-2.51-11.55,5.15-17.77,9.58.24-2.66.08-8.23-1.51-8.58-1.84-.39-3.86,5.7-5,7.18-4.19,5.36-7.24,8.27-10.7,19.53-.1.31-3.69,5.74-3.84,6a185.39,185.39,0,0,1-25.28,27.61c-8.55,7.54,1.4,23.6,1.4,23.6s14.86,9.08,28.27-.22c11.19-7.76,17.57-31.43,18.69-35.84h0s2.43-9.23,3.15-9.82c2.19-1.8,5.84-1.81,11.43-6,3.36-2.53,13.21-11.71,13.41-15C339.4,248.77,326.9,256.77,326.9,256.77Z"/><path class="cls-28" d="M139.59,239.13s-2-1.63-2.4.78,12.65,20.37,34.2,20.74,25.58-7.9,25.58-7.9,5.4-5.14,3.55-16c0,0-1.72-4.66-3.55-1,0,0,7.54,20.8-21.1,21.64-11.91.36-20-3.1-25.41-7.21A52.94,52.94,0,0,1,139.59,239.13Z"/></g></g></svg>